<svg id="_1-Box" data-name="1-Box" xmlns="http://www.w3.org/2000/svg" viewBox="0 0 32 32"><title>1-Box</title><path d="M31,6V28a2.938,2.938,0,0,1-3,3H4a2.938,2.938,0,0,1-3-3V6A5,5,0,0,1,6,1h5V11a2.938,2.938,0,0,0,3,3h4a2.938,2.938,0,0,0,3-3V1h5A5,5,0,0,1,31,6Z" style="fill:#c1c5c8"/><path d="M21,9v2a2.938,2.938,0,0,1-3,3H14a2.938,2.938,0,0,1-3-3V9Z" style="fill:#f2f2f2"/><path d="M21,1V9H11V1Z" style="fill:#f2f2f2"/><path d="M19,21a2,2,0,0,1,0,4H13a2,2,0,0,1,0-4Z" style="fill:#f2f2f2"/><path d="M26,0H6A6.006,6.006,0,0,0,0,6V28a3.887,3.887,0,0,0,4,4H28a3.887,3.887,0,0,0,4-4V6A6.006,6.006,0,0,0,26,0ZM12,10h8v1a1.882,1.882,0,0,1-2,2H14a1.882,1.882,0,0,1-2-2Zm8-2H12V2h8ZM30,28a1.882,1.882,0,0,1-2,2H4a1.882,1.882,0,0,1-2-2V6A4,4,0,0,1,6,2h4v9a3.887,3.887,0,0,0,4,4h4a3.887,3.887,0,0,0,4-4V2h4a4,4,0,0,1,4,4Z" style="fill:#6f7a7b"/><path d="M19,20H13a3,3,0,0,0,0,6h6a3,3,0,0,0,0-6Zm0,4H13a1,1,0,0,1,0-2h6a1,1,0,0,1,0,2Z" style="fill:#6f7a7b"/></svg>