<svg xmlns="http://www.w3.org/2000/svg" viewBox="0 0 32 32"><title>11-Destination</title><g id="_11-Destination" data-name="11-Destination"><path d="M21,1V7H11V1Z" style="fill:#f2f2f2"/><path d="M21,7V9a2.938,2.938,0,0,1-3,3H14a2.938,2.938,0,0,1-3-3V7Z" style="fill:#f2f2f2"/><path d="M31,6V28a2.938,2.938,0,0,1-3,3H4a2.938,2.938,0,0,1-3-3V6A5,5,0,0,1,6,1h5V9a2.938,2.938,0,0,0,3,3h4a2.938,2.938,0,0,0,3-3V1h5A5,5,0,0,1,31,6Z" style="fill:#c1c5c8"/><path d="M31,16v9c-2.5,0-2.5,2-5,2s-2.5-2-5-2H19V16h2c2.5,0,2.5,2,5,2S28.5,16,31,16Z" style="fill:#f2f2f2"/><path d="M26,0H6A6.006,6.006,0,0,0,0,6V28a3.887,3.887,0,0,0,4,4H14a1,1,0,0,0,0-2H4a1.884,1.884,0,0,1-2-2V6A4,4,0,0,1,6,2h4V9a3.887,3.887,0,0,0,4,4h4a3.888,3.888,0,0,0,4-4V2h4a4,4,0,0,1,4,4v5a1,1,0,0,0,2,0V6A6.006,6.006,0,0,0,26,0ZM18,11H14a1.884,1.884,0,0,1-2-2V8h8V9A1.882,1.882,0,0,1,18,11Zm2-5H12V2h8Z" style="fill:#6f7a7b"/><path d="M31,15a4.529,4.529,0,0,0-3.125,1.219,2.641,2.641,0,0,1-3.75,0A4.529,4.529,0,0,0,21,15H19a1,1,0,0,0-1,1V31a1,1,0,0,0,2,0V26h1a2.585,2.585,0,0,1,1.875.781,4.615,4.615,0,0,0,6.25,0A2.585,2.585,0,0,1,31,26a1,1,0,0,0,1-1V16A1,1,0,0,0,31,15Zm-1,9.1a4.83,4.83,0,0,0-2.125,1.12,2.641,2.641,0,0,1-3.75,0A4.529,4.529,0,0,0,21,24H20V17h1a2.585,2.585,0,0,1,1.875.781,4.615,4.615,0,0,0,6.25,0A4.105,4.105,0,0,1,30,17.189Z" style="fill:#6f7a7b"/></g></svg>