<svg xmlns="http://www.w3.org/2000/svg" viewBox="0 0 32 32"><title>12-Delivery</title><g id="_12-Delivery" data-name="12-Delivery"><path d="M21,1V7H11V1Z" style="fill:#f2f2f2"/><path d="M21,7V9a2.938,2.938,0,0,1-3,3H14a2.938,2.938,0,0,1-3-3V7Z" style="fill:#f2f2f2"/><path d="M31,6V28a2.938,2.938,0,0,1-3,3H4a2.938,2.938,0,0,1-3-3V6A5,5,0,0,1,6,1h5V9a2.938,2.938,0,0,0,3,3h4a2.938,2.938,0,0,0,3-3V1h5A5,5,0,0,1,31,6Z" style="fill:#c1c5c8"/><circle cx="24" cy="22" r="3" style="fill:#c1c5c8"/><path d="M24,15a7,7,0,0,1,7,7c0,6-7,9-7,9s-7-3-7-9A7,7,0,0,1,24,15Zm3,7a3,3,0,1,0-3,3A3,3,0,0,0,27,22Z" style="fill:#f2f2f2"/><path d="M26,0H6A6.006,6.006,0,0,0,0,6V28a3.887,3.887,0,0,0,4,4h6a1,1,0,0,0,0-2H4a1.884,1.884,0,0,1-2-2V6A4,4,0,0,1,6,2h4V9a3.887,3.887,0,0,0,4,4h4a3.888,3.888,0,0,0,4-4V2h4a4,4,0,0,1,4,4v7a1,1,0,0,0,2,0V6A6.006,6.006,0,0,0,26,0ZM18,11H14a1.884,1.884,0,0,1-2-2V8h8V9A1.882,1.882,0,0,1,18,11Zm2-5H12V2h8Z" style="fill:#6f7a7b"/><path d="M24,14a8.009,8.009,0,0,0-8,8c0,6.583,7.3,9.786,7.606,9.919a1,1,0,0,0,.788,0C24.7,31.786,32,28.583,32,22A8.009,8.009,0,0,0,24,14Zm0,15.891C22.6,29.183,18,26.5,18,22a6,6,0,0,1,12,0C30,26.485,25.393,29.179,24,29.891Z" style="fill:#6f7a7b"/><path d="M24,18a4,4,0,1,0,4,4A4,4,0,0,0,24,18Zm0,6a2,2,0,1,1,2-2A2,2,0,0,1,24,24Z" style="fill:#6f7a7b"/><circle cx="14" cy="31" r="1" style="fill:#6f7a7b"/><circle cx="18" cy="31" r="1" style="fill:#6f7a7b"/></g></svg>