<svg xmlns="http://www.w3.org/2000/svg" viewBox="0 0 32 32"><title>13-Box</title><g id="_13-Box" data-name="13-Box"><path d="M21,1V7H11V1Z" style="fill:#f2f2f2"/><path d="M21,7V9a2.938,2.938,0,0,1-3,3H14a2.938,2.938,0,0,1-3-3V7Z" style="fill:#f2f2f2"/><path d="M31,6V28a2.938,2.938,0,0,1-3,3H4a2.938,2.938,0,0,1-3-3V6A5,5,0,0,1,6,1h5V9a2.938,2.938,0,0,0,3,3h4a2.938,2.938,0,0,0,3-3V1h5A5,5,0,0,1,31,6Z" style="fill:#c1c5c8"/><circle cx="23" cy="23" r="8" style="fill:#f2f2f2"/><circle cx="23" cy="23" r="5" style="fill:#f2f2f2"/><path d="M26,0H6A6.006,6.006,0,0,0,0,6V28a3.887,3.887,0,0,0,4,4h9a1,1,0,0,0,0-2H4a1.882,1.882,0,0,1-2-2V6A4,4,0,0,1,6,2h4V9a3.887,3.887,0,0,0,4,4h4a3.887,3.887,0,0,0,4-4V2h4a4,4,0,0,1,4,4v7a1,1,0,0,0,2,0V6A6.006,6.006,0,0,0,26,0ZM18,11H14a1.882,1.882,0,0,1-2-2V8h8V9A1.882,1.882,0,0,1,18,11Zm2-5H12V2h8Z" style="fill:#6f7a7b"/><path d="M23,14a9,9,0,1,0,9,9A9.011,9.011,0,0,0,23,14Zm0,16a7,7,0,1,1,7-7A7.008,7.008,0,0,1,23,30Z" style="fill:#6f7a7b"/><path d="M23,20a1,1,0,0,0-1,1v2H20a1,1,0,0,0,0,2h3a1,1,0,0,0,1-1V21A1,1,0,0,0,23,20Z" style="fill:#6f7a7b"/></g></svg>