<svg xmlns="http://www.w3.org/2000/svg" viewBox="0 0 32 32"><title>14-Secure</title><g id="_14-Secure" data-name="14-Secure"><path d="M21,1V7H11V1Z" style="fill:#f2f2f2"/><path d="M21,7V9a2.938,2.938,0,0,1-3,3H14a2.938,2.938,0,0,1-3-3V7Z" style="fill:#f2f2f2"/><path d="M31,6V28a2.938,2.938,0,0,1-3,3H4a2.938,2.938,0,0,1-3-3V6A5,5,0,0,1,6,1h5V9a2.938,2.938,0,0,0,3,3h4a2.938,2.938,0,0,0,3-3V1h5A5,5,0,0,1,31,6Z" style="fill:#c1c5c8"/><path d="M31,23v4c0,1.66-1.34,4-3,4H20c-1.66,0-3-2.34-3-4V23a3,3,0,0,1,3-3h8A3,3,0,0,1,31,23Z" style="fill:#f2f2f2"/><path d="M26,0H6A6.006,6.006,0,0,0,0,6V28a3.887,3.887,0,0,0,4,4H14a1,1,0,0,0,0-2H4a1.882,1.882,0,0,1-2-2V6A4,4,0,0,1,6,2h4V9a3.887,3.887,0,0,0,4,4h4a3.887,3.887,0,0,0,4-4V2h4a4,4,0,0,1,4,4v7a1,1,0,0,0,2,0V6A6.006,6.006,0,0,0,26,0ZM18,11H14a1.882,1.882,0,0,1-2-2V8h8V9A1.882,1.882,0,0,1,18,11Zm2-5H12V2h8Z" style="fill:#6f7a7b"/><path d="M29,19.142V17a2.916,2.916,0,0,0-3-3H22a2.916,2.916,0,0,0-3,3v2.142A4,4,0,0,0,16,23v4c0,1.991,1.595,5,4,5h8c2.405,0,4-3.009,4-5V23A4,4,0,0,0,29,19.142ZM22,16h4a.915.915,0,0,1,1,1v2H21V17.012A.919.919,0,0,1,22,16Zm8,11c0,1.239-1.034,3-2,3H20c-.966,0-2-1.761-2-3V23a2,2,0,0,1,2-2h8a2,2,0,0,1,2,2Z" style="fill:#6f7a7b"/><circle cx="24" cy="24" r="1" style="fill:#6f7a7b"/></g></svg>