<svg xmlns="http://www.w3.org/2000/svg" viewBox="0 0 32 32"><title>18-Box</title><g id="_18-Box" data-name="18-Box"><path d="M31,6V7H23V1h3A5,5,0,0,1,31,6Z" style="fill:#f2f2f2"/><path d="M31,7v5H26a2.938,2.938,0,0,1-3-3V7Z" style="fill:#f2f2f2"/><rect x="14" y="22" width="4" height="4" rx="1" style="fill:#f2f2f2"/><path d="M31,12V28a2.938,2.938,0,0,1-3,3H4a2.938,2.938,0,0,1-3-3V6A5,5,0,0,1,6,1H23V9a2.938,2.938,0,0,0,3,3ZM18,25V23a1,1,0,0,0-1-1H15a1,1,0,0,0-1,1v2a1,1,0,0,0,1,1h2A1,1,0,0,0,18,25Z" style="fill:#c1c5c8"/><path d="M7,6h8a4.38,4.38,0,0,0-1,3,1.959,1.959,0,0,1-2,2H10A1.959,1.959,0,0,1,8,9,4.38,4.38,0,0,0,7,6Z" style="fill:#f2f2f2"/><path d="M26,0H6A6.006,6.006,0,0,0,0,6V28a3.887,3.887,0,0,0,4,4H28a3.888,3.888,0,0,0,4-4V6A6.006,6.006,0,0,0,26,0ZM24,8h6v3H26a1.884,1.884,0,0,1-2-2Zm6-2H24V2h2A4,4,0,0,1,30,6ZM28,30H4a1.884,1.884,0,0,1-2-2V6A4,4,0,0,1,6,2H22V9a3.887,3.887,0,0,0,4,4h4V28A1.882,1.882,0,0,1,28,30Z" style="fill:#6f7a7b"/><path d="M17,21H15a2,2,0,0,0-2,2v2a2,2,0,0,0,2,2h2a2,2,0,0,0,2-2V23A2,2,0,0,0,17,21Zm0,4H15V23h2Z" style="fill:#6f7a7b"/><path d="M27,21H22a1,1,0,0,0,0,2h5a1,1,0,0,0,0-2Z" style="fill:#6f7a7b"/><path d="M24,25H22a1,1,0,0,0,0,2h2a1,1,0,0,0,0-2Z" style="fill:#6f7a7b"/><path d="M14,16a1,1,0,0,0-1-1H12V12a2.916,2.916,0,0,0,3-3,3.477,3.477,0,0,1,.717-2.3A1,1,0,0,0,15,5H7a1,1,0,0,0-.911.608A1.014,1.014,0,0,0,6.281,6.7,3.452,3.452,0,0,1,7,9a2.916,2.916,0,0,0,3,3v3H9a1,1,0,0,0,0,2h4A1,1,0,0,0,14,16ZM9,9a6.255,6.255,0,0,0-.314-2h4.628A6.255,6.255,0,0,0,13,9a.915.915,0,0,1-1,1H10.012A.919.919,0,0,1,9,9Z" style="fill:#6f7a7b"/></g></svg>