<svg xmlns="http://www.w3.org/2000/svg" viewBox="0 0 32 32"><title>21-Placeholder</title><g id="_21-Placeholder" data-name="21-Placeholder"><path d="M27,13c.02.31,0,.68,0,1a12.99,12.99,0,0,1-9.82,12.59L14,31l-3.18-4.41A12.99,12.99,0,0,1,1,14c0-.32-.02-.69,0-1a13.042,13.042,0,0,1,26,0Z" style="fill:#f2f2f2"/><circle cx="14" cy="14" r="4" style="fill:#c1c5c8"/><path d="M27,25c0,1-1.33,1-1.33,1H24.33C23,26,23,25,23,25V21h4Z" style="fill:#f2f2f2"/><path d="M31,23v6a2.006,2.006,0,0,1-2,2H21a2.006,2.006,0,0,1-2-2V23a2.006,2.006,0,0,1,2-2h2v4s0,1,1.33,1h1.34S27,26,27,25V21h2A2.006,2.006,0,0,1,31,23Z" style="fill:#c1c5c8"/><path d="M14.634,28.415,14,29.292l-2.374-3.287a1.006,1.006,0,0,0-.566-.384A11.976,11.976,0,0,1,2,14l0-.346c0-.2-.01-.4,0-.582a12.041,12.041,0,0,1,24,0c.013.18.007.385,0,.582L26,14a12.084,12.084,0,0,1-.142,1.847,1,1,0,0,0,.835,1.141,1.031,1.031,0,0,0,.155.012,1,1,0,0,0,.987-.847A14.162,14.162,0,0,0,28,14l0-.3c.006-.26.01-.53-.006-.768v-.005A14.042,14.042,0,0,0,0,12.924v.005c-.016.238-.012.508-.006.768L0,14A13.972,13.972,0,0,0,10.213,27.465l2.976,4.12a1,1,0,0,0,1.622,0l1.444-2a1,1,0,1,0-1.621-1.17Z" style="fill:#6f7a7b"/><path d="M14,9a5,5,0,1,0,5,5A5.006,5.006,0,0,0,14,9Zm0,8a3,3,0,1,1,3-3A3,3,0,0,1,14,17Z" style="fill:#6f7a7b"/><path d="M29,20H21a3,3,0,0,0-3,3v6a3,3,0,0,0,3,3h8a3,3,0,0,0,3-3V23A3,3,0,0,0,29,20Zm-5,2h2v2.933a1.113,1.113,0,0,1-.333.067H24.333c-.22,0-.32-.043-.333,0Zm6,7a1,1,0,0,1-1,1H21a1,1,0,0,1-1-1V23a1,1,0,0,1,1-1h1v3a2.1,2.1,0,0,0,2.333,2h1.334A2.126,2.126,0,0,0,28,25V22h1a1,1,0,0,1,1,1Z" style="fill:#6f7a7b"/></g></svg>