<svg xmlns="http://www.w3.org/2000/svg" viewBox="0 0 32 32"><title>24-Shipping</title><g id="_24-Shipping" data-name="24-Shipping"><rect x="1" y="2" width="30" height="28" rx="3" style="fill:#f2f2f2"/><path d="M31,5a3,3,0,0,0-3-3H4A3,3,0,0,0,1,5V9H31Z" style="fill:#c1c5c8"/><path d="M18,17c0,1-1.33,1-1.33,1H15.33C14,18,14,17,14,17V13h4Z" style="fill:#f2f2f2"/><path d="M22,15v6a2.006,2.006,0,0,1-2,2H12a2.006,2.006,0,0,1-2-2V15a2.006,2.006,0,0,1,2-2h2v4s0,1,1.33,1h1.34S18,18,18,17V13h2A2.006,2.006,0,0,1,22,15Z" style="fill:#c1c5c8"/><path d="M28,1H4A4,4,0,0,0,0,5V27a4,4,0,0,0,4,4H28a4,4,0,0,0,4-4V5A4,4,0,0,0,28,1Zm2,26a2,2,0,0,1-2,2H4a2,2,0,0,1-2-2V5A2,2,0,0,1,4,3H28a2,2,0,0,1,2,2Z" style="fill:#6f7a7b"/><path d="M20,12H12a3,3,0,0,0-3,3v6a3,3,0,0,0,3,3h8a3,3,0,0,0,3-3V15A3,3,0,0,0,20,12Zm-5,2h2v2.933a1.12,1.12,0,0,1-.333.067H15.333c-.219,0-.32-.044-.333,0Zm6,7a1,1,0,0,1-1,1H12a1,1,0,0,1-1-1V15a1,1,0,0,1,1-1h1v3a2.1,2.1,0,0,0,2.333,2h1.334A2.126,2.126,0,0,0,19,17V14h1a1,1,0,0,1,1,1Z" style="fill:#6f7a7b"/><circle cx="5" cy="6" r="1" style="fill:#6f7a7b"/><circle cx="9" cy="6" r="1" style="fill:#6f7a7b"/><circle cx="27" cy="6" r="1" style="fill:#6f7a7b"/></g></svg>