<svg xmlns="http://www.w3.org/2000/svg" viewBox="0 0 32 32"><title>26-Delivery</title><g id="_26-Delivery" data-name="26-Delivery"><path d="M27,13c.02.31,0,.68,0,1a12.99,12.99,0,0,1-9.82,12.59L14,31l-3.18-4.41A12.99,12.99,0,0,1,1,14c0-.32-.02-.69,0-1a13.042,13.042,0,0,1,26,0Z" style="fill:#f2f2f2"/><circle cx="14" cy="14" r="4" style="fill:#c1c5c8"/><path d="M27,25c0,1-1.33,1-1.33,1H24.33C23,26,23,25,23,25V21h4Z" style="fill:#f2f2f2"/><path d="M31,23v6a2.006,2.006,0,0,1-2,2H21a2.006,2.006,0,0,1-2-2V23a2.006,2.006,0,0,1,2-2h2v4s0,1,1.33,1h1.34S27,26,27,25V21h2A2.006,2.006,0,0,1,31,23Z" style="fill:#c1c5c8"/><path d="M27,15c0,1-1.33,1-1.33,1H24.33C23,16,23,15,23,15V11h4Z" style="fill:#f2f2f2"/><path d="M31,13v6a2.006,2.006,0,0,1-2,2H21a2.006,2.006,0,0,1-2-2V13a2.006,2.006,0,0,1,2-2h2v4s0,1,1.33,1h1.34S27,16,27,15V11h2A2.006,2.006,0,0,1,31,13Z" style="fill:#c1c5c8"/><path d="M14.634,28.415,14,29.292l-2.374-3.287a1.006,1.006,0,0,0-.566-.384A11.976,11.976,0,0,1,2,14l0-.346c0-.2-.01-.4,0-.582A12.042,12.042,0,0,1,22.68,5.694a1,1,0,0,0,1.441-1.388A14.043,14.043,0,0,0,0,12.924v.005c-.016.238-.012.508-.006.768L0,14A13.972,13.972,0,0,0,10.213,27.465l2.976,4.12a1,1,0,0,0,1.622,0l1.444-2a1,1,0,1,0-1.621-1.17Z" style="fill:#6f7a7b"/><path d="M14,11a3.006,3.006,0,0,1,1.5.4,1,1,0,1,0,1-1.732,5,5,0,1,0,0,8.662,1,1,0,1,0-1-1.732A3,3,0,1,1,14,11Z" style="fill:#6f7a7b"/><path d="M32,13a3,3,0,0,0-3-3H21a3,3,0,0,0-3,3v6a2.981,2.981,0,0,0,.78,2A2.981,2.981,0,0,0,18,23v6a3,3,0,0,0,3,3h8a3,3,0,0,0,3-3V23a2.981,2.981,0,0,0-.78-2A2.981,2.981,0,0,0,32,19Zm-8-1h2v2.933a1.113,1.113,0,0,1-.333.067H24.333c-.221,0-.32-.043-.333,0Zm-4,1a1,1,0,0,1,1-1h1v3a2.1,2.1,0,0,0,2.333,2h1.334A2.126,2.126,0,0,0,28,15V12h1a1,1,0,0,1,1,1v6a1,1,0,0,1-1,1H21a1,1,0,0,1-1-1Zm4,9h2v2.933a1.113,1.113,0,0,1-.333.067H24.333c-.221,0-.32-.044-.333,0Zm6,7a1,1,0,0,1-1,1H21a1,1,0,0,1-1-1V23a1,1,0,0,1,1-1h1v3a2.1,2.1,0,0,0,2.333,2h1.334A2.126,2.126,0,0,0,28,25V22h1a1,1,0,0,1,1,1Z" style="fill:#6f7a7b"/></g></svg>