<svg xmlns="http://www.w3.org/2000/svg" viewBox="0 0 32 32"><title>29-Arrow up</title><g id="_29-Arrow_up" data-name="29-Arrow up"><circle cx="16" cy="16" r="15" style="fill:#c1c5c8"/><path d="M16,0A16,16,0,1,0,32,16,16.019,16.019,0,0,0,16,0Zm0,30A14,14,0,1,1,30,16,14.015,14.015,0,0,1,16,30Z" style="fill:#6f7a7b"/><path d="M10,16a1,1,0,0,0,2,0V9.414l.293.293a1,1,0,0,0,1.414-1.414l-2-2a.99.99,0,0,0-.326-.217,1,1,0,0,0-.764,0,.99.99,0,0,0-.326.217l-2,2A1,1,0,0,0,9.707,9.707L10,9.414Z" style="fill:#6f7a7b"/><path d="M21.708,6.294a.99.99,0,0,0-.326-.217,1,1,0,0,0-.764,0,.99.99,0,0,0-.326.217l-2,2a1,1,0,0,0,1.414,1.414L20,9.414V16a1,1,0,0,0,2,0V9.414l.293.293a1,1,0,0,0,1.414-1.414Z" style="fill:#6f7a7b"/><path d="M21,19H11a1,1,0,0,0,0,2H21a1,1,0,0,0,0-2Z" style="fill:#6f7a7b"/><path d="M21,23H11a1,1,0,0,0,0,2H21a1,1,0,0,0,0-2Z" style="fill:#6f7a7b"/></g></svg>