<svg xmlns="http://www.w3.org/2000/svg" viewBox="0 0 32 32"><title>30-Destination</title><g id="_30-Destination" data-name="30-Destination"><path d="M27,13c.02.31,0,.68,0,1a12.99,12.99,0,0,1-9.82,12.59L14,31l-3.18-4.41A12.99,12.99,0,0,1,1,14c0-.32-.02-.69,0-1a13.042,13.042,0,0,1,26,0Z" style="fill:#f2f2f2"/><circle cx="14" cy="14" r="4" style="fill:#c1c5c8"/><path d="M31,16v9c-2.5,0-2.5,2-5,2s-2.5-2-5-2H19V16h2c2.5,0,2.5,2,5,2S28.5,16,31,16Z" style="fill:#c1c5c8"/><path d="M15.189,27.646,14,29.292l-2.374-3.287a1.007,1.007,0,0,0-.565-.384A11.976,11.976,0,0,1,2,14l0-.346c-.005-.2-.01-.4,0-.578H2a12.042,12.042,0,0,1,24.006,0h0c.012.179.007.382,0,.578L26,14a1,1,0,0,0,2,0l0-.3c.006-.261.01-.532-.008-.77h0v0A14.042,14.042,0,0,0,0,12.924v0H0c-.018.238-.014.509-.008.77L0,14A13.971,13.971,0,0,0,10.214,27.465l2.975,4.12a1,1,0,0,0,1.622,0l2-2.769a1,1,0,1,0-1.622-1.17Z" style="fill:#6f7a7b"/><path d="M18.33,11.5A5,5,0,1,0,14,19a1,1,0,0,0,0-2,3,3,0,1,1,2.6-4.5,1,1,0,1,0,1.73-1Z" style="fill:#6f7a7b"/><path d="M31,15a4.529,4.529,0,0,0-3.125,1.219,2.641,2.641,0,0,1-3.75,0A4.529,4.529,0,0,0,21,15H19a1,1,0,0,0-1,1V31a1,1,0,0,0,2,0V26h1a2.585,2.585,0,0,1,1.875.781,4.615,4.615,0,0,0,6.25,0A2.585,2.585,0,0,1,31,26a1,1,0,0,0,1-1V16A1,1,0,0,0,31,15Zm-1,9.1a4.83,4.83,0,0,0-2.125,1.12,2.641,2.641,0,0,1-3.75,0A4.529,4.529,0,0,0,21,24H20V17h1a2.585,2.585,0,0,1,1.875.781,4.615,4.615,0,0,0,6.25,0A4.105,4.105,0,0,1,30,17.189Z" style="fill:#6f7a7b"/></g></svg>