<svg xmlns="http://www.w3.org/2000/svg" viewBox="0 0 32 32"><title>32-Store</title><g id="_32-Store" data-name="32-Store"><path d="M9,13c0,1-1.33,1-1.33,1H6.33C5,14,5,13,5,13V9H9Z" style="fill:#f2f2f2"/><path d="M13,11v6a2.006,2.006,0,0,1-2,2H3a2.006,2.006,0,0,1-2-2V11A2.006,2.006,0,0,1,3,9H5v4s0,1,1.33,1H7.67S9,14,9,13V9h2A2.006,2.006,0,0,1,13,11Z" style="fill:#c1c5c8"/><path d="M9,23c0,1-1.33,1-1.33,1H6.33C5,24,5,23,5,23V19H9Z" style="fill:#f2f2f2"/><path d="M13,21v6a2.006,2.006,0,0,1-2,2H3a2.006,2.006,0,0,1-2-2V21a2.006,2.006,0,0,1,2-2H5v4s0,1,1.33,1H7.67S9,24,9,23V19h2A2.006,2.006,0,0,1,13,21Z" style="fill:#c1c5c8"/><path d="M21,23c0,1-1.33,1-1.33,1H18.33C17,24,17,23,17,23V19h4Z" style="fill:#f2f2f2"/><path d="M25,21v6a2.006,2.006,0,0,1-2,2H15a2.006,2.006,0,0,1-2-2V21a2.006,2.006,0,0,1,2-2h2v4s0,1,1.33,1h1.34S21,24,21,23V19h2A2.006,2.006,0,0,1,25,21Z" style="fill:#c1c5c8"/><path d="M31,3v9c-2.5,0-2.5,2-5,2s-2.5-2-5-2H19V3h2c2.5,0,2.5,2,5,2S28.5,3,31,3Z" style="fill:#f2f2f2"/><path d="M31,2a4.527,4.527,0,0,0-3.125,1.219,2.641,2.641,0,0,1-3.75,0A4.527,4.527,0,0,0,21,2H19a1,1,0,0,0-1,1V18H15a2.961,2.961,0,0,0-1.319.319A2.961,2.961,0,0,0,14,17V11a3,3,0,0,0-3-3H3a3,3,0,0,0-3,3v6a2.981,2.981,0,0,0,.78,2A2.981,2.981,0,0,0,0,21v6a3,3,0,0,0,3,3h8a2.981,2.981,0,0,0,2-.78A2.981,2.981,0,0,0,15,30h8a3,3,0,0,0,3-3V21a3,3,0,0,0-3-3H20V13h1a2.583,2.583,0,0,1,1.875.781,4.615,4.615,0,0,0,6.25,0A2.583,2.583,0,0,1,31,13a1,1,0,0,0,1-1V3A1,1,0,0,0,31,2ZM18,20h2v2.933a1.113,1.113,0,0,1-.333.067H18.333c-.221,0-.32-.043-.333,0ZM6,10H8v2.933A1.113,1.113,0,0,1,7.667,13H6.333c-.221,0-.319-.043-.333,0ZM2,11a1,1,0,0,1,1-1H4v3a2.1,2.1,0,0,0,2.333,2H7.667A2.126,2.126,0,0,0,10,13V10h1a1,1,0,0,1,1,1v6a1,1,0,0,1-1,1H3a1,1,0,0,1-1-1Zm4,9H8v2.933A1.113,1.113,0,0,1,7.667,23H6.333c-.221,0-.319-.043-.333,0Zm5,8H3a1,1,0,0,1-1-1V21a1,1,0,0,1,1-1H4v3a2.1,2.1,0,0,0,2.333,2H7.667A2.126,2.126,0,0,0,10,23V20h1a1,1,0,0,1,1,1v6A1,1,0,0,1,11,28Zm13-7v6a1,1,0,0,1-1,1H15a1,1,0,0,1-1-1V21a1,1,0,0,1,1-1h1v3a2.1,2.1,0,0,0,2.333,2h1.334A2.126,2.126,0,0,0,22,23V20h1A1,1,0,0,1,24,21Zm6-9.9a4.819,4.819,0,0,0-2.125,1.119,2.641,2.641,0,0,1-3.75,0A4.527,4.527,0,0,0,21,11H20V4h1a2.583,2.583,0,0,1,1.875.781,4.615,4.615,0,0,0,6.25,0A4.175,4.175,0,0,1,30,4.188Z" style="fill:#6f7a7b"/><circle cx="23" cy="8" r="1" style="fill:#6f7a7b"/><circle cx="27" cy="9" r="1" style="fill:#6f7a7b"/></g></svg>