<svg xmlns="http://www.w3.org/2000/svg" viewBox="0 0 32 32"><title>37-Boxes</title><g id="_37-Boxes" data-name="37-Boxes"><circle cx="16" cy="16" r="15" style="fill:#f2f2f2"/><path d="M18,25c0,1-1.33,1-1.33,1H15.33C14,26,14,25,14,25V21h4Z" style="fill:#f2f2f2"/><path d="M22,23v6a2.006,2.006,0,0,1-2,2H12a2.006,2.006,0,0,1-2-2V23a2.006,2.006,0,0,1,2-2h2v4s0,1,1.33,1h1.34S18,26,18,25V21h2A2.006,2.006,0,0,1,22,23Z" style="fill:#c1c5c8"/><path d="M18,15c0,1-1.33,1-1.33,1H15.33C14,16,14,15,14,15V11h4Z" style="fill:#f2f2f2"/><path d="M22,13v6a2.006,2.006,0,0,1-2,2H12a2.006,2.006,0,0,1-2-2V13a2.006,2.006,0,0,1,2-2h2v4s0,1,1.33,1h1.34S18,16,18,15V11h2A2.006,2.006,0,0,1,22,13Z" style="fill:#c1c5c8"/><path d="M16,0A16,16,0,0,0,4.267,26.878a1,1,0,1,0,1.466-1.359,14,14,0,1,1,20.534,0,1,1,0,0,0,1.466,1.359A16,16,0,0,0,16,0Z" style="fill:#6f7a7b"/><path d="M20,10H12a3,3,0,0,0-3,3v6a2.981,2.981,0,0,0,.78,2A2.981,2.981,0,0,0,9,23v6a3,3,0,0,0,3,3h8a3,3,0,0,0,3-3V23a2.981,2.981,0,0,0-.78-2A2.981,2.981,0,0,0,23,19V13A3,3,0,0,0,20,10Zm-5,2h2v2.933a1.113,1.113,0,0,1-.333.067H15.333c-.221,0-.319-.044-.333,0Zm-4,1a1,1,0,0,1,1-1h1v3a2.1,2.1,0,0,0,2.333,2h1.334A2.126,2.126,0,0,0,19,15V12h1a1,1,0,0,1,1,1v6a1,1,0,0,1-1,1H12a1,1,0,0,1-1-1Zm4,9h2v2.933a1.113,1.113,0,0,1-.333.067H15.333c-.221,0-.319-.043-.333,0Zm6,7a1,1,0,0,1-1,1H12a1,1,0,0,1-1-1V23a1,1,0,0,1,1-1h1v3a2.1,2.1,0,0,0,2.333,2h1.334A2.126,2.126,0,0,0,19,25V22h1a1,1,0,0,1,1,1Z" style="fill:#6f7a7b"/></g></svg>