<svg xmlns="http://www.w3.org/2000/svg" viewBox="0 0 32 32"><title>4-Box</title><g id="_4-Box" data-name="4-Box"><path d="M31,6V28a2.938,2.938,0,0,1-3,3H4a2.938,2.938,0,0,1-3-3V6A5,5,0,0,1,6,1h5V11a2.938,2.938,0,0,0,3,3h4a2.938,2.938,0,0,0,3-3V1h5A5,5,0,0,1,31,6Z" style="fill:#c1c5c8"/><path d="M21,9v2a2.938,2.938,0,0,1-3,3H14a2.938,2.938,0,0,1-3-3V9Z" style="fill:#f2f2f2"/><path d="M21,1V9H11V1Z" style="fill:#f2f2f2"/><path d="M19,21a2,2,0,0,1,0,4H13a2,2,0,0,1,0-4Z" style="fill:#f2f2f2"/><path d="M31,19a1,1,0,0,0-1,1v8a1.882,1.882,0,0,1-2,2H4a1.884,1.884,0,0,1-2-2V6A4,4,0,0,1,6,2h4v9a3.887,3.887,0,0,0,4,4h4a1,1,0,0,0,0-2H14a1.884,1.884,0,0,1-2-2V10h9a1,1,0,0,0,1-1V2h2a1,1,0,0,0,0-2H6A6.006,6.006,0,0,0,0,6V28a3.887,3.887,0,0,0,4,4H28a3.888,3.888,0,0,0,4-4V20A1,1,0,0,0,31,19ZM20,8H12V2h8Z" style="fill:#6f7a7b"/><path d="M22.707,12.293a1,1,0,0,0-1.414,1.414l2,2a1,1,0,0,0,1.414,0l7-7a1,1,0,1,0-1.414-1.414L24,13.586Z" style="fill:#6f7a7b"/><path d="M19,20H13a3,3,0,0,0,0,6h6a3,3,0,0,0,0-6Zm0,4H13a1,1,0,0,1,0-2h6a1,1,0,0,1,0,2Z" style="fill:#6f7a7b"/></g></svg>