<svg xmlns="http://www.w3.org/2000/svg" viewBox="0 0 32 32"><title>41-Service</title><g id="_41-Service" data-name="41-Service"><path d="M31,5V19a4,4,0,0,1-4,4H22l-4,4-4-4H5a4,4,0,0,1-4-4V5A4,4,0,0,1,5,1H27A4,4,0,0,1,31,5Z" style="fill:#c1c5c8"/><path d="M16,31H4c0-2.76,2.69-5,6-5S16,28.24,16,31Z" style="fill:#f2f2f2"/><path d="M14,21.5a4.907,4.907,0,0,1-.52,2.22A3.938,3.938,0,0,1,10,26a3.938,3.938,0,0,1-3.48-2.28A4.907,4.907,0,0,1,6,21.5,4.269,4.269,0,0,1,10,17,4.269,4.269,0,0,1,14,21.5Z" style="fill:#f2f2f2"/><path d="M18,11c0,1-1.33,1-1.33,1H15.33C14,12,14,11,14,11V7h4Z" style="fill:#c1c5c8"/><path d="M22,9v6a2.006,2.006,0,0,1-2,2H12a2.006,2.006,0,0,1-2-2V9a2.006,2.006,0,0,1,2-2h2v4s0,1,1.33,1h1.34S18,12,18,11V7h2A2.006,2.006,0,0,1,22,9Z" style="fill:#f2f2f2"/><path d="M27,0H5A5.006,5.006,0,0,0,0,5V19a5.006,5.006,0,0,0,5,5h.552a5.479,5.479,0,0,0,1.212,1.685A5.966,5.966,0,0,0,3,31a1,1,0,0,0,2,0c0-2.206,2.243-4,5-4s5,1.794,5,4a1,1,0,0,0,2,0,5.966,5.966,0,0,0-3.764-5.315A5.726,5.726,0,0,0,15,21.5,5.274,5.274,0,0,0,10,16a5.274,5.274,0,0,0-5,5.5c0,.169.009.335.023.5H5a3,3,0,0,1-3-3V5A3,3,0,0,1,5,2H27a3,3,0,0,1,3,3V19a3,3,0,0,1-3,3H22a1,1,0,0,0-.707.293l-4,4a1,1,0,1,0,1.414,1.414L22.414,24H27a5.006,5.006,0,0,0,5-5V5A5.006,5.006,0,0,0,27,0ZM10,18a3.283,3.283,0,0,1,3,3.5A3.283,3.283,0,0,1,10,25a3.283,3.283,0,0,1-3-3.5A3.283,3.283,0,0,1,10,18Z" style="fill:#6f7a7b"/><path d="M20,16H16a1,1,0,0,0,0,2h4a3,3,0,0,0,3-3V9a3,3,0,0,0-3-3H12A3,3,0,0,0,9,9v4a1,1,0,0,0,2,0V9a1,1,0,0,1,1-1h1v3a2.1,2.1,0,0,0,2.333,2h1.334A2.126,2.126,0,0,0,19,11V8h1a1,1,0,0,1,1,1v6A1,1,0,0,1,20,16Zm-3-5.067a1.12,1.12,0,0,1-.333.067H15.333c-.219,0-.321-.045-.333,0V8h2Z" style="fill:#6f7a7b"/></g></svg>