<svg xmlns="http://www.w3.org/2000/svg" viewBox="0 0 32 32"><title>45-Box</title><g id="_45-Box" data-name="45-Box"><path d="M15,13v5a2.006,2.006,0,0,1-2,2H11a2.006,2.006,0,0,1-2-2V13Z" style="fill:#f2f2f2"/><path d="M21,13V29a2.006,2.006,0,0,1-2,2H5a2.006,2.006,0,0,1-2-2V15a2.006,2.006,0,0,1,2-2H9v5a2.006,2.006,0,0,0,2,2h2a2.006,2.006,0,0,0,2-2V13h6Z" style="fill:#c1c5c8"/><path d="M29,15V29a2.006,2.006,0,0,1-2,2H19a2.006,2.006,0,0,0,2-2V13h6A2.006,2.006,0,0,1,29,15Z" style="fill:#c1c5c8"/><path d="M27,12H5a3,3,0,0,0-3,3V29a3,3,0,0,0,3,3H27a3,3,0,0,0,3-3V15A3,3,0,0,0,27,12ZM10,14h4v4a1,1,0,0,1-1,1H11a1,1,0,0,1-1-1ZM4,29V15a1,1,0,0,1,1-1H8v4a3,3,0,0,0,3,3h2a3,3,0,0,0,3-3V14h4V29a1,1,0,0,1-1,1H5A1,1,0,0,1,4,29Zm24,0a1,1,0,0,1-1,1H21.816A2.966,2.966,0,0,0,22,29V14h5a1,1,0,0,1,1,1Z" style="fill:#6f7a7b"/><path d="M13.707,4.707,15,3.414V9a1,1,0,0,0,2,0V3.414l1.293,1.293a1,1,0,0,0,1.414-1.414l-3-3a1,1,0,0,0-1.416,0l-3,3a1,1,0,0,0,1.414,1.414Z" style="fill:#6f7a7b"/><path d="M25,16a1,1,0,0,0-1,1v2a1,1,0,0,0,2,0V17A1,1,0,0,0,25,16Z" style="fill:#6f7a7b"/><circle cx="25" cy="27" r="1" style="fill:#6f7a7b"/></g></svg>