<svg xmlns="http://www.w3.org/2000/svg" viewBox="0 0 32 32"><title>47-Delivery</title><g id="_47-Delivery" data-name="47-Delivery"><path d="M17,2V7a2.006,2.006,0,0,1-2,2H13a2.006,2.006,0,0,1-2-2V2Z" style="fill:#f2f2f2"/><path d="M23,2V18a2.006,2.006,0,0,1-2,2H7a2.006,2.006,0,0,1-2-2V4A2.006,2.006,0,0,1,7,2h4V7a2.006,2.006,0,0,0,2,2h2a2.006,2.006,0,0,0,2-2V2h6Z" style="fill:#c1c5c8"/><path d="M31,4V18a2.006,2.006,0,0,1-2,2H21a2.006,2.006,0,0,0,2-2V2h6A2.006,2.006,0,0,1,31,4Z" style="fill:#c1c5c8"/><circle cx="8" cy="16" r="3" style="fill:#c1c5c8"/><path d="M8,9a7,7,0,0,1,7,7c0,6-7,10-7,10S1,22,1,16A7,7,0,0,1,8,9Zm3,7a3,3,0,1,0-3,3A3,3,0,0,0,11,16Z" style="fill:#f2f2f2"/><path d="M29,1H7A3,3,0,0,0,4,4V6A1,1,0,0,0,6,6V4A1,1,0,0,1,7,3h3V6a1,1,0,0,0,2,0V3h4V7a1,1,0,0,1-.5.867,1,1,0,0,0,1,1.731A3.01,3.01,0,0,0,18,7V3h4V18a1,1,0,0,1-1,1H18a1,1,0,0,0,0,2H29a3,3,0,0,0,3-3V4A3,3,0,0,0,29,1Zm1,17a1,1,0,0,1-1,1H23.816A2.966,2.966,0,0,0,24,18V3h5a1,1,0,0,1,1,1Z" style="fill:#6f7a7b"/><path d="M27,5a1,1,0,0,0-1,1V8a1,1,0,0,0,2,0V6A1,1,0,0,0,27,5Z" style="fill:#6f7a7b"/><path d="M8,12a4,4,0,1,0,4,4A4,4,0,0,0,8,12Zm0,6a2,2,0,1,1,2-2A2,2,0,0,1,8,18Z" style="fill:#6f7a7b"/><path d="M8,8a8.009,8.009,0,0,0-8,8c0,6.506,7.2,10.693,7.5,10.868a1,1,0,0,0,.992,0C8.8,26.693,16,22.506,16,16A8.009,8.009,0,0,0,8,8ZM8,24.818C6.479,23.813,2,20.471,2,16a6,6,0,0,1,12,0C14,20.457,9.518,23.811,8,24.818Z" style="fill:#6f7a7b"/><path d="M14,26a1,1,0,0,0-1,1c0,.815-1.948,2-5,2s-5-1.185-5-2a1,1,0,0,0-2,0c0,2.28,3.01,4,7,4s7-1.72,7-4A1,1,0,0,0,14,26Z" style="fill:#6f7a7b"/><circle cx="27" cy="16" r="1" style="fill:#6f7a7b"/></g></svg>