<svg xmlns="http://www.w3.org/2000/svg" viewBox="0 0 32 32"><title>49-Shopping</title><g id="_49-Shopping" data-name="49-Shopping"><rect x="1" y="1" width="20" height="30" rx="3" style="fill:#f2f2f2"/><path d="M21,4a3,3,0,0,0-3-3H4A3,3,0,0,0,1,4V8H21Z" style="fill:#c1c5c8"/><path d="M1,28a3,3,0,0,0,3,3H18a3,3,0,0,0,3-3V24H1Z" style="fill:#f2f2f2"/><path d="M17,13v5a2.006,2.006,0,0,1-2,2H13a2.006,2.006,0,0,1-2-2V13Z" style="fill:#f2f2f2"/><path d="M23,13V29a2.006,2.006,0,0,1-2,2H7a2.006,2.006,0,0,1-2-2V15a2.006,2.006,0,0,1,2-2h4v5a2.006,2.006,0,0,0,2,2h2a2.006,2.006,0,0,0,2-2V13h6Z" style="fill:#c1c5c8"/><path d="M31,15V29a2.006,2.006,0,0,1-2,2H21a2.006,2.006,0,0,0,2-2V13h6A2.006,2.006,0,0,1,31,15Z" style="fill:#f2f2f2"/><path d="M29,12H7a3,3,0,0,0-3,3V29a2.966,2.966,0,0,0,.184,1H4a2,2,0,0,1-2-2V4A2,2,0,0,1,4,2H18a2,2,0,0,1,2,2V9a1,1,0,0,0,2,0V4a4,4,0,0,0-4-4H4A4,4,0,0,0,0,4V28a4,4,0,0,0,4,4H29a3,3,0,0,0,3-3V15A3,3,0,0,0,29,12ZM12,14h4v4a1,1,0,0,1-1,1H13a1,1,0,0,1-1-1Zm8,16H7a1,1,0,0,1-1-1V15a1,1,0,0,1,1-1h3v4a3,3,0,0,0,3,3h2a3,3,0,0,0,3-3V14h4V29a1,1,0,0,1-1,1Zm10-1a1,1,0,0,1-1,1H23.816A2.966,2.966,0,0,0,24,29V14h5a1,1,0,0,1,1,1Z" style="fill:#6f7a7b"/><path d="M27,16a1,1,0,0,0-1,1v2a1,1,0,0,0,2,0V17A1,1,0,0,0,27,16Z" style="fill:#6f7a7b"/><path d="M7,4A1,1,0,0,0,7,6h4a1,1,0,0,0,0-2Z" style="fill:#6f7a7b"/><circle cx="15" cy="5" r="1" style="fill:#6f7a7b"/><circle cx="27" cy="27" r="1" style="fill:#6f7a7b"/></g></svg>