<svg xmlns="http://www.w3.org/2000/svg" viewBox="0 0 32 32"><title>5-Delivery</title><g id="_5-Delivery" data-name="5-Delivery"><path d="M27,1V11a2.938,2.938,0,0,1-3,3H20a2.938,2.938,0,0,1-3-3V1H12A5,5,0,0,0,7,6V28a2.938,2.938,0,0,0,3,3H32V1Z" style="fill:#c1c5c8"/><path d="M27,9v2a2.938,2.938,0,0,1-3,3H20a2.938,2.938,0,0,1-3-3V9Z" style="fill:#f2f2f2"/><path d="M27,1V9H17V1Z" style="fill:#f2f2f2"/><path d="M25,20a2,2,0,0,1,0,4H19a2,2,0,0,1,0-4Z" style="fill:#f2f2f2"/><path d="M7,9A1,1,0,0,0,8,8V6a4,4,0,0,1,4-4h4v9a3.887,3.887,0,0,0,4,4h4a3.888,3.888,0,0,0,4-4V2h3a1,1,0,0,0,0-2H12A6.006,6.006,0,0,0,6,6V8A1,1,0,0,0,7,9Zm17,4H20a1.884,1.884,0,0,1-2-2V10h8v1A1.882,1.882,0,0,1,24,13Zm2-5H18V2h8Z" style="fill:#6f7a7b"/><path d="M31,30H10a1.884,1.884,0,0,1-2-2V24a1,1,0,0,0-2,0v4a3.887,3.887,0,0,0,4,4H31a1,1,0,0,0,0-2Z" style="fill:#6f7a7b"/><path d="M25,19H19a3,3,0,0,0,0,6h6a3,3,0,0,0,0-6Zm0,4H19a1,1,0,0,1,0-2h6a1,1,0,0,1,0,2Z" style="fill:#6f7a7b"/><path d="M3.707,14.293,3.414,14H9a1,1,0,0,0,0-2H3.414l.293-.293a1,1,0,0,0-1.414-1.414l-2,2a1,1,0,0,0,0,1.416l2,2a1,1,0,1,0,1.414-1.414Z" style="fill:#6f7a7b"/><path d="M11.293,20.293a1,1,0,1,0,1.414,1.414l2-2a1,1,0,0,0,0-1.416l-2-2a1,1,0,0,0-1.414,1.414l.293.293H5a1,1,0,0,0,0,2h6.586Z" style="fill:#6f7a7b"/><circle cx="13" cy="13" r="1" style="fill:#6f7a7b"/><circle cx="1" cy="19" r="1" style="fill:#6f7a7b"/></g></svg>