<svg xmlns="http://www.w3.org/2000/svg" viewBox="0 0 32 32"><title>50-Box</title><g id="_50-Box" data-name="50-Box"><path d="M15,1V6a2.006,2.006,0,0,1-2,2H11A2.006,2.006,0,0,1,9,6V1Z" style="fill:#f2f2f2"/><path d="M21,1V17a2.006,2.006,0,0,1-2,2H5a2.006,2.006,0,0,1-2-2V3A2.006,2.006,0,0,1,5,1H9V6a2.006,2.006,0,0,0,2,2h2a2.006,2.006,0,0,0,2-2V1h6Z" style="fill:#c1c5c8"/><path d="M29,3V17a2.006,2.006,0,0,1-2,2H19a2.006,2.006,0,0,0,2-2V1h6A2.006,2.006,0,0,1,29,3Z" style="fill:#c1c5c8"/><path d="M27,0H5A3,3,0,0,0,2,3V17a3,3,0,0,0,3,3H27a3,3,0,0,0,3-3V3A3,3,0,0,0,27,0ZM10,2h4V6a1,1,0,0,1-1,1H11a1,1,0,0,1-1-1Zm8,16H5a1,1,0,0,1-1-1V3A1,1,0,0,1,5,2H8V6a3,3,0,0,0,3,3h2a3,3,0,0,0,3-3V2h4V17a1,1,0,0,1-1,1Zm10-1a1,1,0,0,1-1,1H21.816A2.966,2.966,0,0,0,22,17V2h5a1,1,0,0,1,1,1Z" style="fill:#6f7a7b"/><path d="M25,4a1,1,0,0,0-1,1V7a1,1,0,0,0,2,0V5A1,1,0,0,0,25,4Z" style="fill:#6f7a7b"/><path d="M25.923,24.618a.99.99,0,0,0-.217-.326l-2-2a1,1,0,0,0-1.414,1.414l.293.293H18a.918.918,0,0,1-1-1.01V22a1,1,0,0,0-2,0v.988A.919.919,0,0,1,14,24H9.414l.293-.293a1,1,0,0,0-1.414-1.414l-2,2a.99.99,0,0,0-.217.326,1,1,0,0,0,0,.764.99.99,0,0,0,.217.326l2,2a1,1,0,0,0,1.414-1.414L9.414,26H14a3.253,3.253,0,0,0,1-.162v2.748l-.293-.293a1,1,0,0,0-1.414,1.414l2,2a1,1,0,0,0,1.416,0l2-2a1,1,0,0,0-1.414-1.414L17,28.586V25.838A3.253,3.253,0,0,0,18,26h4.586l-.293.293a1,1,0,1,0,1.414,1.414l2-2a.99.99,0,0,0,.217-.326A1,1,0,0,0,25.923,24.618Z" style="fill:#6f7a7b"/><circle cx="25" cy="15" r="1" style="fill:#6f7a7b"/></g></svg>