<svg xmlns="http://www.w3.org/2000/svg" viewBox="0 0 32 32"><title>55-Boxes</title><g id="_55-Boxes" data-name="55-Boxes"><path d="M18,5c0,1-1.33,1-1.33,1H15.33C14,6,14,5,14,5V1h4Z" style="fill:#f2f2f2"/><path d="M22,3V9a2.006,2.006,0,0,1-2,2H12a2.006,2.006,0,0,1-2-2V3a2.006,2.006,0,0,1,2-2h2V5s0,1,1.33,1h1.34S18,6,18,5V1h2A2.006,2.006,0,0,1,22,3Z" style="fill:#c1c5c8"/><path d="M24,15c0,1-1.33,1-1.33,1H21.33C20,16,20,15,20,15V11h4Z" style="fill:#f2f2f2"/><path d="M28,13v6a2.006,2.006,0,0,1-2,2H18a2.006,2.006,0,0,1-2-2V13a2.006,2.006,0,0,1,2-2h2v4s0,1,1.33,1h1.34S24,16,24,15V11h2A2.006,2.006,0,0,1,28,13Z" style="fill:#c1c5c8"/><path d="M12,15c0,1-1.33,1-1.33,1H9.33C8,16,8,15,8,15V11h4Z" style="fill:#f2f2f2"/><path d="M16,13v6a2.006,2.006,0,0,1-2,2H6a2.006,2.006,0,0,1-2-2V13a2.006,2.006,0,0,1,2-2H8v4s0,1,1.33,1h1.34S12,16,12,15V11h2A2.006,2.006,0,0,1,16,13Z" style="fill:#c1c5c8"/><path d="M12,25c0,1-1.33,1-1.33,1H9.33C8,26,8,25,8,25V21h4Z" style="fill:#f2f2f2"/><path d="M16,23v6a2.006,2.006,0,0,1-2,2H6a2.006,2.006,0,0,1-2-2V23a2.006,2.006,0,0,1,2-2H8v4s0,1,1.33,1h1.34S12,26,12,25V21h2A2.006,2.006,0,0,1,16,23Z" style="fill:#c1c5c8"/><path d="M24,25c0,1-1.33,1-1.33,1H21.33C20,26,20,25,20,25V21h4Z" style="fill:#f2f2f2"/><path d="M28,23v6a2.006,2.006,0,0,1-2,2H18a2.006,2.006,0,0,1-2-2V23a2.006,2.006,0,0,1,2-2h2v4s0,1,1.33,1h1.34S24,26,24,25V21h2A2.006,2.006,0,0,1,28,23Z" style="fill:#c1c5c8"/><path d="M29,13a3,3,0,0,0-3-3H22.816A2.966,2.966,0,0,0,23,9V3a3,3,0,0,0-3-3H12A3,3,0,0,0,9,3V9a2.966,2.966,0,0,0,.184,1H6a3,3,0,0,0-3,3v6a2.981,2.981,0,0,0,.78,2A2.981,2.981,0,0,0,3,23v6a3,3,0,0,0,3,3h8a2.981,2.981,0,0,0,2-.78A2.981,2.981,0,0,0,18,32h8a3,3,0,0,0,3-3V23a2.981,2.981,0,0,0-.78-2A2.981,2.981,0,0,0,29,19Zm-2,0v6a1,1,0,0,1-1,1H18a1,1,0,0,1-1-1V13a1,1,0,0,1,1-1h1v3a2.1,2.1,0,0,0,2.333,2h1.334A2.126,2.126,0,0,0,25,15V12h1A1,1,0,0,1,27,13Zm-6,9h2v2.933a1.113,1.113,0,0,1-.333.067H21.333c-.22,0-.32-.043-.333,0Zm0-10h2v2.933a1.113,1.113,0,0,1-.333.067H21.333c-.22,0-.32-.043-.333,0ZM15,2h2V4.933A1.113,1.113,0,0,1,16.667,5H15.333c-.221,0-.319-.044-.333,0ZM11,9V3a1,1,0,0,1,1-1h1V5a2.1,2.1,0,0,0,2.333,2h1.334A2.126,2.126,0,0,0,19,5V2h1a1,1,0,0,1,1,1V9a1,1,0,0,1-1,1H12A1,1,0,0,1,11,9ZM9,12h2v2.933a1.113,1.113,0,0,1-.333.067H9.333c-.221,0-.319-.043-.333,0ZM5,13a1,1,0,0,1,1-1H7v3a2.1,2.1,0,0,0,2.333,2h1.334A2.126,2.126,0,0,0,13,15V12h1a1,1,0,0,1,1,1v6a1,1,0,0,1-1,1H6a1,1,0,0,1-1-1Zm4,9h2v2.933a1.113,1.113,0,0,1-.333.067H9.333c-.221,0-.319-.043-.333,0Zm5,8H6a1,1,0,0,1-1-1V23a1,1,0,0,1,1-1H7v3a2.1,2.1,0,0,0,2.333,2h1.334A2.126,2.126,0,0,0,13,25V22h1a1,1,0,0,1,1,1v6A1,1,0,0,1,14,30Zm13-1a1,1,0,0,1-1,1H18a1,1,0,0,1-1-1V23a1,1,0,0,1,1-1h1v3a2.1,2.1,0,0,0,2.333,2h1.334A2.126,2.126,0,0,0,25,25V22h1a1,1,0,0,1,1,1Z" style="fill:#6f7a7b"/></g></svg>