<svg xmlns="http://www.w3.org/2000/svg" viewBox="0 0 32 32"><title>56-Target</title><g id="_56-Target" data-name="56-Target"><circle cx="16" cy="16" r="13" style="fill:#f2f2f2"/><path d="M18,15c0,1-1.33,1-1.33,1H15.33C14,16,14,15,14,15V11h4Z" style="fill:#f2f2f2"/><path d="M22,13v6a2.006,2.006,0,0,1-2,2H12a2.006,2.006,0,0,1-2-2V13a2.006,2.006,0,0,1,2-2h2v4s0,1,1.33,1h1.34S18,16,18,15V11h2A2.006,2.006,0,0,1,22,13Z" style="fill:#c1c5c8"/><path d="M31,15H29.949A14,14,0,0,0,17,2.051V1a1,1,0,0,0-2,0V2.051A14,14,0,0,0,2.051,15H1a1,1,0,0,0,0,2H2.051A14,14,0,0,0,15,29.949V31a1,1,0,0,0,2,0V29.949A14,14,0,0,0,29.949,17H31a1,1,0,0,0,0-2ZM17,27.949V26a1,1,0,0,0-2,0v1.949A12.006,12.006,0,0,1,4.051,17H6a1,1,0,0,0,0-2H4.051A12.006,12.006,0,0,1,15,4.051V6a1,1,0,0,0,2,0V4.051A12.006,12.006,0,0,1,27.949,15H26a1,1,0,0,0,0,2h1.949A12.006,12.006,0,0,1,17,27.949Z" style="fill:#6f7a7b"/><path d="M20,10H12a3,3,0,0,0-3,3v6a3,3,0,0,0,3,3h8a3,3,0,0,0,3-3V13A3,3,0,0,0,20,10Zm-5,2h2v2.933a1.113,1.113,0,0,1-.333.067H15.333c-.221,0-.321-.043-.333,0Zm6,7a1,1,0,0,1-1,1H12a1,1,0,0,1-1-1V13a1,1,0,0,1,1-1h1v3a2.1,2.1,0,0,0,2.333,2h1.334A2.126,2.126,0,0,0,19,15V12h1a1,1,0,0,1,1,1Z" style="fill:#6f7a7b"/></g></svg>