<svg xmlns="http://www.w3.org/2000/svg" viewBox="0 0 32 32"><title>57-Calendar</title><g id="_57-Calendar" data-name="57-Calendar"><rect x="1" y="5" width="30" height="22" rx="3" style="fill:#f2f2f2"/><path d="M31,8a3,3,0,0,0-3-3H4A3,3,0,0,0,1,8v2H31Z" style="fill:#c1c5c8"/><path d="M18,16c0,1-1.33,1-1.33,1H15.33C14,17,14,16,14,16V12h4Z" style="fill:#f2f2f2"/><path d="M22,14v6a2.006,2.006,0,0,1-2,2H12a2.006,2.006,0,0,1-2-2V14a2.006,2.006,0,0,1,2-2h2v4s0,1,1.33,1h1.34S18,17,18,16V12h2A2.006,2.006,0,0,1,22,14Z" style="fill:#c1c5c8"/><path d="M28,4H27V3a1,1,0,0,0-2,0V4H22V3a1,1,0,0,0-2,0V4H17V3a1,1,0,0,0-2,0V4H12V3a1,1,0,0,0-2,0V4H7V3A1,1,0,0,0,5,3V4H4A4,4,0,0,0,0,8V24a4,4,0,0,0,4,4H28a4,4,0,0,0,4-4V8A4,4,0,0,0,28,4Zm2,20a2,2,0,0,1-2,2H4a2,2,0,0,1-2-2V8A2,2,0,0,1,4,6H5V7A1,1,0,0,0,7,7V6h3V7a1,1,0,0,0,2,0V6h3V7a1,1,0,0,0,2,0V6h3V7a1,1,0,0,0,2,0V6h3V7a1,1,0,0,0,2,0V6h1a2,2,0,0,1,2,2Z" style="fill:#6f7a7b"/><path d="M20,11H12a3,3,0,0,0-3,3v6a3,3,0,0,0,3,3h8a3,3,0,0,0,3-3V14A3,3,0,0,0,20,11Zm-5,2h2v2.933a1.113,1.113,0,0,1-.333.067H15.333c-.22,0-.32-.044-.333,0Zm6,7a1,1,0,0,1-1,1H12a1,1,0,0,1-1-1V14a1,1,0,0,1,1-1h1v3a2.1,2.1,0,0,0,2.333,2h1.334A2.126,2.126,0,0,0,19,16V13h1a1,1,0,0,1,1,1Z" style="fill:#6f7a7b"/><path d="M27,12H26a1,1,0,0,0,0,2h1a1,1,0,0,0,0-2Z" style="fill:#6f7a7b"/><path d="M27,16H26a1,1,0,0,0,0,2h1a1,1,0,0,0,0-2Z" style="fill:#6f7a7b"/><path d="M27,20H26a1,1,0,0,0,0,2h1a1,1,0,0,0,0-2Z" style="fill:#6f7a7b"/><path d="M6,12H5a1,1,0,0,0,0,2H6a1,1,0,0,0,0-2Z" style="fill:#6f7a7b"/><path d="M6,16H5a1,1,0,0,0,0,2H6a1,1,0,0,0,0-2Z" style="fill:#6f7a7b"/><path d="M6,20H5a1,1,0,0,0,0,2H6a1,1,0,0,0,0-2Z" style="fill:#6f7a7b"/></g></svg>