<svg xmlns="http://www.w3.org/2000/svg" viewBox="0 0 32 32"><title>58-Calendar</title><g id="_58-Calendar" data-name="58-Calendar"><rect x="1" y="4" width="30" height="22" rx="3" style="fill:#f2f2f2"/><path d="M31,7a3,3,0,0,0-3-3H4A3,3,0,0,0,1,7V9H31Z" style="fill:#c1c5c8"/><path d="M27,24c0,1-1.33,1-1.33,1H24.33C23,25,23,24,23,24V20h4Z" style="fill:#f2f2f2"/><path d="M31,22v6a2.006,2.006,0,0,1-2,2H21a2.006,2.006,0,0,1-2-2V22a2.006,2.006,0,0,1,2-2h2v4s0,1,1.33,1h1.34S27,25,27,24V20h2A2.006,2.006,0,0,1,31,22Z" style="fill:#c1c5c8"/><path d="M28,3H27V2a1,1,0,0,0-2,0V3H22V2a1,1,0,0,0-2,0V3H17V2a1,1,0,0,0-2,0V3H12V2a1,1,0,0,0-2,0V3H7V2A1,1,0,0,0,5,2V3H4A4,4,0,0,0,0,7V23a4,4,0,0,0,4,4H15a1,1,0,0,0,0-2H4a2,2,0,0,1-2-2V7A2,2,0,0,1,4,5H5V6A1,1,0,0,0,7,6V5h3V6a1,1,0,0,0,2,0V5h3V6a1,1,0,0,0,2,0V5h3V6a1,1,0,0,0,2,0V5h3V6a1,1,0,0,0,2,0V5h1a2,2,0,0,1,2,2v9a1,1,0,0,0,2,0V7A4,4,0,0,0,28,3Z" style="fill:#6f7a7b"/><path d="M9,11H8a1,1,0,0,0,0,2H9a1,1,0,0,0,0-2Z" style="fill:#6f7a7b"/><path d="M9,15H8a1,1,0,0,0,0,2H9a1,1,0,0,0,0-2Z" style="fill:#6f7a7b"/><path d="M9,19H8a1,1,0,0,0,0,2H9a1,1,0,0,0,0-2Z" style="fill:#6f7a7b"/><path d="M14,11H13a1,1,0,0,0,0,2h1a1,1,0,0,0,0-2Z" style="fill:#6f7a7b"/><path d="M14,15H13a1,1,0,0,0,0,2h1a1,1,0,0,0,0-2Z" style="fill:#6f7a7b"/><path d="M14,19H13a1,1,0,0,0,0,2h1a1,1,0,0,0,0-2Z" style="fill:#6f7a7b"/><path d="M18,13h1a1,1,0,0,0,0-2H18a1,1,0,0,0,0,2Z" style="fill:#6f7a7b"/><path d="M19,17a1,1,0,0,0,0-2H18a1,1,0,0,0,0,2Z" style="fill:#6f7a7b"/><path d="M23,13h1a1,1,0,0,0,0-2H23a1,1,0,0,0,0,2Z" style="fill:#6f7a7b"/><path d="M23,17h1a1,1,0,0,0,0-2H23a1,1,0,0,0,0,2Z" style="fill:#6f7a7b"/><path d="M29,19H21a3,3,0,0,0-3,3v6a3,3,0,0,0,3,3h8a3,3,0,0,0,3-3V22A3,3,0,0,0,29,19Zm-5,2h2v2.933a1.12,1.12,0,0,1-.333.067H24.333c-.219,0-.32-.044-.333,0Zm6,7a1,1,0,0,1-1,1H21a1,1,0,0,1-1-1V22a1,1,0,0,1,1-1h1v3a2.1,2.1,0,0,0,2.333,2h1.334A2.126,2.126,0,0,0,28,24V21h1a1,1,0,0,1,1,1Z" style="fill:#6f7a7b"/></g></svg>