<svg xmlns="http://www.w3.org/2000/svg" viewBox="0 0 32 32"><title>59-Logistics</title><g id="_59-Logistics" data-name="59-Logistics"><path d="M12.84,24.06A2.653,2.653,0,0,1,13,25a3,3,0,0,1-6,0,2.653,2.653,0,0,1,.16-.94,2.988,2.988,0,0,1,5.68,0Z" style="fill:#c1c5c8"/><path d="M24.84,24.06A2.653,2.653,0,0,1,25,25a3,3,0,0,1-6,0,2.653,2.653,0,0,1,.16-.94,2.988,2.988,0,0,1,5.68,0Z" style="fill:#c1c5c8"/><path d="M27,12l1,5c-4,0-5-2-5-2V12Z" style="fill:#c1c5c8"/><path d="M30,17a3.491,3.491,0,0,1,1,2v5H25l-.16.06a2.988,2.988,0,0,0-5.68,0L19,24H13l-.16.06a2.988,2.988,0,0,0-5.68,0L7,24H5a4,4,0,0,1-4-4V8A4,4,0,0,1,5,4H19a4,4,0,0,1,4,4v7s1,2,5,2Z" style="fill:#f2f2f2"/><path d="M14,12c0,1-1.33,1-1.33,1H11.33C10,13,10,12,10,12V8h4Z" style="fill:#f2f2f2"/><path d="M18,10v6a2.006,2.006,0,0,1-2,2H8a2.006,2.006,0,0,1-2-2V10A2.006,2.006,0,0,1,8,8h2v4s0,1,1.33,1h1.34S14,13,14,12V8h2A2.006,2.006,0,0,1,18,10Z" style="fill:#c1c5c8"/><path d="M16,7H8a3,3,0,0,0-3,3v6a3,3,0,0,0,3,3h8a3,3,0,0,0,3-3V10A3,3,0,0,0,16,7ZM11,9h2v2.933a1.12,1.12,0,0,1-.333.067H11.333c-.218,0-.321-.044-.333,0Zm6,7a1,1,0,0,1-1,1H8a1,1,0,0,1-1-1V10A1,1,0,0,1,8,9H9v3a2.1,2.1,0,0,0,2.333,2h1.334A2.126,2.126,0,0,0,15,12V9h1a1,1,0,0,1,1,1Z" style="fill:#6f7a7b"/><path d="M30.707,16.293A1,1,0,0,0,30,16H28.819l-.839-4.2A1,1,0,0,0,27,11H24V8a5.006,5.006,0,0,0-5-5H5A5.006,5.006,0,0,0,0,8V20a5.006,5.006,0,0,0,5,5H6a4,4,0,0,0,8,0h4a4,4,0,0,0,8,0h5a1,1,0,0,0,1-1V19A4.392,4.392,0,0,0,30.707,16.293ZM26.181,13l.582,2.913A4.258,4.258,0,0,1,24,14.7V13ZM10,27a2,2,0,0,1-2-2,1.737,1.737,0,0,1,.111-.632,1.988,1.988,0,0,1,3.778,0c.005.016.01.031.016.047A1.646,1.646,0,0,1,12,25,2,2,0,0,1,10,27Zm12,0a2,2,0,0,1-2-2,1.737,1.737,0,0,1,.111-.632,1.988,1.988,0,0,1,3.778,0c0,.016.01.031.016.047A1.646,1.646,0,0,1,24,25,2,2,0,0,1,22,27Zm8-4H25.448a3.977,3.977,0,0,0-6.9,0h-5.1a3.977,3.977,0,0,0-6.9,0H5a3,3,0,0,1-3-3V8A3,3,0,0,1,5,5H19a3,3,0,0,1,3,3v7a1,1,0,0,0,.105.447C22.236,15.709,23.512,18,28,18h1.541A2.029,2.029,0,0,1,30,19Z" style="fill:#6f7a7b"/></g></svg>