<svg xmlns="http://www.w3.org/2000/svg" viewBox="0 0 32 32"><title>60-Logistics</title><g id="_60-Logistics" data-name="60-Logistics"><path d="M12.84,24.06A2.653,2.653,0,0,1,13,25a3,3,0,0,1-6,0,2.653,2.653,0,0,1,.16-.94,2.988,2.988,0,0,1,5.68,0Z" style="fill:#f2f2f2"/><path d="M24.84,24.06A2.653,2.653,0,0,1,25,25a3,3,0,0,1-6,0,2.653,2.653,0,0,1,.16-.94,2.988,2.988,0,0,1,5.68,0Z" style="fill:#f2f2f2"/><path d="M27,12l1,5c-4,0-5-2-5-2V12Z" style="fill:#f2f2f2"/><path d="M30,17a3.491,3.491,0,0,1,1,2v5H25l-.16.06a2.988,2.988,0,0,0-5.68,0L19,24H13l-.16.06a2.988,2.988,0,0,0-5.68,0L7,24H5a4,4,0,0,1-4-4V8A4,4,0,0,1,5,4H19a4,4,0,0,1,4,4v7s1,2,5,2Z" style="fill:#c1c5c8"/><path d="M30.707,16.293A1,1,0,0,0,30,16H28.819l-.839-4.2A1,1,0,0,0,27,11H24V8a5.006,5.006,0,0,0-5-5H5A5.006,5.006,0,0,0,0,8,1,1,0,0,0,2,8,3,3,0,0,1,5,5H19a3,3,0,0,1,3,3v7a1,1,0,0,0,.105.447C22.236,15.709,23.512,18,28,18h1.541A2.029,2.029,0,0,1,30,19v4H29a1,1,0,0,0,0,2h2a1,1,0,0,0,1-1V19A4.392,4.392,0,0,0,30.707,16.293ZM24,14.7V13h2.181l.582,2.913A4.258,4.258,0,0,1,24,14.7Z" style="fill:#6f7a7b"/><path d="M22,21a3.987,3.987,0,0,0-3.444,2H13.444a3.965,3.965,0,0,0-6.888,0H5a3,3,0,0,1-3-3,1,1,0,0,0-2,0,5.006,5.006,0,0,0,5,5H6a4,4,0,0,0,8,0h4a4,4,0,1,0,4-4ZM10,27a2,2,0,1,1,2-2A2,2,0,0,1,10,27Zm12,0a2,2,0,1,1,2-2A2,2,0,0,1,22,27Z" style="fill:#6f7a7b"/><path d="M1,13H2a1,1,0,0,0,0-2H1a1,1,0,0,0,0,2Z" style="fill:#6f7a7b"/><path d="M1,17H8a1,1,0,0,0,0-2H1a1,1,0,0,0,0,2Z" style="fill:#6f7a7b"/><path d="M10,11H6a1,1,0,0,0,0,2h4a1,1,0,0,0,0-2Z" style="fill:#6f7a7b"/><circle cx="12" cy="16" r="1" style="fill:#6f7a7b"/></g></svg>