<svg xmlns="http://www.w3.org/2000/svg" viewBox="0 0 32 32"><title>8-Box</title><g id="_8-Box" data-name="8-Box"><path d="M21,1V7H11V1Z" style="fill:#f2f2f2"/><path d="M21,7V9a2.938,2.938,0,0,1-3,3H14a2.938,2.938,0,0,1-3-3V7Z" style="fill:#f2f2f2"/><path d="M31,6V28a2.938,2.938,0,0,1-3,3H4a2.938,2.938,0,0,1-3-3V6A5,5,0,0,1,6,1h5V9a2.938,2.938,0,0,0,3,3h4a2.938,2.938,0,0,0,3-3V1h5A5,5,0,0,1,31,6Z" style="fill:#c1c5c8"/><path d="M12,17h8a4.38,4.38,0,0,0-1,3,1.959,1.959,0,0,1-2,2H15a1.959,1.959,0,0,1-2-2A4.38,4.38,0,0,0,12,17Z" style="fill:#f2f2f2"/><path d="M26,0H6A6.006,6.006,0,0,0,0,6V28a3.887,3.887,0,0,0,4,4H28a3.887,3.887,0,0,0,4-4V6A6.006,6.006,0,0,0,26,0ZM12,8h8V9a1.882,1.882,0,0,1-2,2H14a1.882,1.882,0,0,1-2-2Zm8-2H12V2h8ZM30,28a1.882,1.882,0,0,1-2,2H4a1.882,1.882,0,0,1-2-2V6A4,4,0,0,1,6,2h4V9a3.887,3.887,0,0,0,4,4h4a3.887,3.887,0,0,0,4-4V2h4a4,4,0,0,1,4,4Z" style="fill:#6f7a7b"/><path d="M20,16H12a1,1,0,0,0-.911.608,1.012,1.012,0,0,0,.193,1.088A3.461,3.461,0,0,1,12,20a2.916,2.916,0,0,0,3,3v3H14a1,1,0,0,0,0,2h4a1,1,0,0,0,0-2H17V23a2.916,2.916,0,0,0,3-3,3.471,3.471,0,0,1,.717-2.3A1,1,0,0,0,20,16Zm-2,4a.915.915,0,0,1-1,1H15.012A.919.919,0,0,1,14,20a6.255,6.255,0,0,0-.314-2h4.628A6.255,6.255,0,0,0,18,20Z" style="fill:#6f7a7b"/></g></svg>