<?xml version="1.0" encoding="UTF-8"?><svg xmlns="http://www.w3.org/2000/svg" viewBox="0 0 24 24"><g id="a"/><g id="b"/><g id="c"/><g id="d"/><g id="e"/><g id="f"/><g id="g"/><g id="h"/><g id="i"/><g id="j"/><g id="k"/><g id="l"/><g id="m"/><g id="n"/><g id="o"/><g id="p"/><g id="q"/><g id="r"/><g id="s"><g><path d="M2.25,8.3v7.4c0,1.09,.64,2.07,1.63,2.51l7,3.11c.12,.05,.24,.08,.37,.12V11.48L2.39,7.45c-.09,.27-.14,.55-.14,.85Z"/><path d="M20.12,5.79l-7-3.11c-.71-.31-1.52-.31-2.23,0h0L3.88,5.79c-.24,.11-.45,.24-.65,.41l8.76,3.98,8.76-3.98c-.19-.16-.41-.3-.65-.41Z"/><path d="M21.61,7.45l-8.86,4.03v9.96c.12-.04,.25-.07,.37-.12l7-3.11c.99-.44,1.63-1.43,1.63-2.51v-7.4c0-.29-.05-.58-.14-.85Zm-4.31,9.01l-2,.89c-.1,.04-.2,.06-.3,.06-.29,0-.56-.17-.69-.45-.17-.38,0-.82,.38-.99l2-.89c.38-.17,.82,0,.99,.38,.17,.38,0,.82-.38,.99Z"/></g></g><g id="t"/><g id="u"/></svg>