<?xml version="1.0" encoding="UTF-8"?><svg xmlns="http://www.w3.org/2000/svg" viewBox="0 0 24 24"><g id="a"/><g id="b"/><g id="c"/><g id="d"/><g id="e"><g><path d="M16.22,15.52c-.88-.88-2.4-.88-3.27,0l-.6,.56-4.43-4.47,.55-.55c.9-.9,.9-2.37,0-3.27l-1.11-1.11c-.88-.88-2.4-.87-3.27,0l-.49,.49c-1.36,1.36-1.74,3.46-.95,5.23,.88,1.96,2.14,3.79,3.65,5.3,1.55,1.55,3.35,2.78,5.37,3.67,.59,.26,1.23,.39,1.85,.39,1.22,0,2.42-.47,3.31-1.37l.49-.48c.44-.44,.68-1.02,.68-1.64s-.24-1.2-.68-1.64l-1.11-1.11Z"/><path d="M16.5,2.25c-2.9,0-5.25,1.91-5.25,4.25,0,.7,.21,1.38,.6,1.99l-.58,2.33c-.06,.25,.01,.53,.2,.71,.14,.14,.33,.22,.53,.22,.06,0,.12,0,.18-.02l3.91-.98h.41c2.9,0,5.25-1.91,5.25-4.25s-2.35-4.25-5.25-4.25Z"/></g></g><g id="f"/><g id="g"/><g id="h"/><g id="i"/><g id="j"/><g id="k"/><g id="l"/><g id="m"/><g id="n"/><g id="o"/><g id="p"/><g id="q"/><g id="r"/><g id="s"/><g id="t"/><g id="u"/></svg>