<?xml version="1.0" encoding="UTF-8"?><svg xmlns="http://www.w3.org/2000/svg" viewBox="0 0 24 24"><g id="a"/><g id="b"/><g id="c"/><g id="d"/><g id="e"/><g id="f"/><g id="g"/><g id="h"/><g id="i"/><g id="j"/><g id="k"/><g id="l"><g><path d="M21,4.25h-1.5c-.53,0-1.01,.19-1.39,.5l-.16-.4c-.27-.67-.9-1.1-1.62-1.1h-1.32c-.41,0-.75,.34-.75,.75s.34,.75,.75,.75h1.32c.1,0,.19,.06,.23,.16l.71,1.79c.1,1.15,1.06,2.06,2.23,2.06h1.5c.41,0,.75-.34,.75-.75v-3c0-.41-.34-.75-.75-.75Z"/><path d="M9.75,7c0-.96-.79-1.75-1.75-1.75h-1.25v1.75c0,.41-.34,.75-.75,.75s-.75-.34-.75-.75v-1.75h-1.25c-.96,0-1.75,.79-1.75,1.75v1.75h7.5v-1.75Z"/><path d="M14.02,19.25c.69,.91,1.76,1.5,2.98,1.5s2.31-.6,2.99-1.51c-.04,0-.07,.01-.11,.01h-5.86Z"/><path d="M8,20.75c1.22,0,2.3-.59,2.98-1.5H5.02c.69,.91,1.76,1.5,2.98,1.5Z"/><path d="M21,10.25h-1.5c-1.07,0-2.03-.46-2.72-1.18l-.71,3.98c-.02,.12-.13,.21-.25,.21h-3.44c-.11,0-.17-.06-.2-.1-.03-.04-.07-.12-.03-.23l.39-1.17h1.46c.41,0,.75-.34,.75-.75s-.34-.75-.75-.75H2.28c.1,.72,.65,1.3,1.35,1.46l-1.18,1.77c-.56,.85-.62,1.93-.14,2.82,.48,.9,1.41,1.45,2.42,1.45h15.15c.5,0,.97-.21,1.3-.58,.33-.37,.49-.87,.44-1.36l-.62-5.56Z"/></g></g><g id="m"/><g id="n"/><g id="o"/><g id="p"/><g id="q"/><g id="r"/><g id="s"/><g id="t"/><g id="u"/></svg>