<?xml version="1.0" encoding="UTF-8"?><svg xmlns="http://www.w3.org/2000/svg" viewBox="0 0 24 24"><g id="a"/><g id="b"/><g id="c"/><g id="d"/><g id="e"/><g id="f"/><g id="g"><g><path d="M12,14.25c-1.52,0-2.75,1.23-2.75,2.75v2c0,1.52,1.23,2.75,2.75,2.75s2.75-1.23,2.75-2.75v-2c0-1.52-1.23-2.75-2.75-2.75Z"/><path d="M19.67,3.67c-.19-.37-.63-.52-1.01-.34l-1.79,.89s-.07,.03-.11,.03h-2.13c-.33-1.15-1.38-2-2.63-2s-2.3,.85-2.63,2h-2.13s-.08,0-.11-.03l-1.79-.89c-.37-.18-.82-.03-1.01,.34-.19,.37-.04,.82,.34,1.01l1.79,.89c.24,.12,.51,.18,.78,.18h2.13c.18,.61,.55,1.14,1.06,1.5h-.62c-1.42,0-2.6,1.06-2.74,2.48l-.6,6c-.08,.77,.18,1.54,.7,2.12,.17,.19,.37,.34,.58,.47v-1.32c0-2.34,1.91-4.25,4.25-4.25s4.25,1.91,4.25,4.25v1.32c.21-.13,.41-.28,.58-.47,.52-.57,.78-1.35,.7-2.12l-.6-6c-.14-1.41-1.32-2.48-2.74-2.48h-.62c.51-.36,.88-.89,1.06-1.5h2.13c.27,0,.54-.06,.78-.18l1.79-.89c.37-.19,.52-.64,.34-1.01Zm-7.67,.08c.69,0,1.25,.56,1.25,1.25s-.56,1.25-1.25,1.25-1.25-.56-1.25-1.25,.56-1.25,1.25-1.25Z"/></g></g><g id="h"/><g id="i"/><g id="j"/><g id="k"/><g id="l"/><g id="m"/><g id="n"/><g id="o"/><g id="p"/><g id="q"/><g id="r"/><g id="s"/><g id="t"/><g id="u"/></svg>