<?xml version="1.0" encoding="UTF-8"?><svg xmlns="http://www.w3.org/2000/svg" viewBox="0 0 24 24"><g id="a"/><g id="b"/><g id="c"/><g id="d"/><g id="e"/><g id="f"><g><path d="M17,2.25H7c-.96,0-1.75,.79-1.75,1.75v1c0,.96,.79,1.75,1.75,1.75h4.25v-1.75c0-.41,.34-.75,.75-.75s.75,.34,.75,.75v1.75h4.25c.96,0,1.75-.79,1.75-1.75v-1c0-.96-.79-1.75-1.75-1.75Z"/><path d="M17.89,8.11c-.29,.08-.58,.14-.89,.14H7c-.31,0-.61-.06-.89-.14l-.46,.92c-.26,.52-.4,1.1-.4,1.68v8.29c0,1.52,1.23,2.75,2.75,2.75h8c1.52,0,2.75-1.23,2.75-2.75V10.71c0-.58-.14-1.16-.4-1.68l-.46-.92Z"/></g></g><g id="g"/><g id="h"/><g id="i"/><g id="j"/><g id="k"/><g id="l"/><g id="m"/><g id="n"/><g id="o"/><g id="p"/><g id="q"/><g id="r"/><g id="s"/><g id="t"/><g id="u"/></svg>