<?xml version="1.0" encoding="UTF-8"?><svg xmlns="http://www.w3.org/2000/svg" viewBox="0 0 24 24"><g id="a"/><g id="b"/><g id="c"/><g id="d"/><g id="e"/><g id="f"/><g id="g"/><g id="h"/><g id="i"/><g id="j"/><g id="k"/><g id="l"/><g id="m"/><g id="n"/><g id="o"/><g id="p"><path d="M17,2.25h-3.56l-2.04,3h1.6c.28,0,.54,.16,.67,.41s.1,.56-.07,.79l-3,4c-.15,.2-.37,.3-.6,.3-.16,0-.31-.05-.45-.15-.33-.25-.4-.72-.15-1.05l2.1-2.8h-1.5c-.28,0-.53-.15-.66-.4-.13-.24-.12-.54,.04-.77l2-3,.23-.33H7c-.96,0-1.75,.79-1.75,1.75v5c0,3.47,2.63,6.33,6,6.71v4.54h-2.25c-.41,0-.75,.34-.75,.75s.34,.75,.75,.75h6c.41,0,.75-.34,.75-.75s-.34-.75-.75-.75h-2.25v-4.54c3.37-.37,6-3.24,6-6.71V4c0-.96-.79-1.75-1.75-1.75Z"/></g><g id="q"/><g id="r"/><g id="s"/><g id="t"/><g id="u"/></svg>