<?xml version="1.0" encoding="UTF-8"?><svg xmlns="http://www.w3.org/2000/svg" viewBox="0 0 24 24"><g id="a"/><g id="b"/><g id="c"><g><circle cx="12" cy="8" r="1.25"/><path d="M7.35,11.37c.93,1.64,2.08,3.16,3.42,4.49,.34,.34,.79,.51,1.23,.51s.89-.17,1.23-.51c1.34-1.34,2.49-2.85,3.42-4.49,.12-.21,.24-.42,.34-.63,.94-1.81,.89-3.94-.14-5.69-1-1.7-2.77-2.74-4.73-2.79h-.27c-1.94,.03-3.69,1.06-4.69,2.74-1.05,1.77-1.11,3.92-.16,5.74,.11,.21,.22,.42,.34,.63Zm4.65-6.12c1.52,0,2.75,1.23,2.75,2.75s-1.23,2.75-2.75,2.75-2.75-1.23-2.75-2.75,1.23-2.75,2.75-2.75Z"/><path d="M21.66,17.32l-1.07-4c-.28-1.04-1.15-1.8-2.21-2.01-.02,.04-.03,.08-.05,.12-.12,.22-.24,.45-.37,.68-1,1.76-2.23,3.38-3.66,4.81-.61,.61-1.43,.95-2.29,.95s-1.68-.34-2.29-.95c-1.44-1.44-2.67-3.06-3.67-4.82-.13-.22-.25-.45-.37-.68-.02-.04-.03-.08-.05-.12-1.06,.21-1.94,.97-2.21,2.01l-1.07,4c-.21,.8-.04,1.64,.47,2.3,.55,.71,1.4,1.12,2.33,1.12h13.73c.93,0,1.78-.41,2.33-1.12,.51-.66,.68-1.5,.47-2.3Z"/></g></g><g id="d"/><g id="e"/><g id="f"/><g id="g"/><g id="h"/><g id="i"/><g id="j"/><g id="k"/><g id="l"/><g id="m"/><g id="n"/><g id="o"/><g id="p"/><g id="q"/><g id="r"/><g id="s"/><g id="t"/><g id="u"/></svg>