<?xml version="1.0" encoding="UTF-8"?><svg xmlns="http://www.w3.org/2000/svg" viewBox="0 0 24 24"><g id="a"/><g id="b"/><g id="c"/><g id="d"/><g id="e"/><g id="f"/><g id="g"/><g id="h"/><g id="i"/><g id="j"/><g id="k"/><g id="l"/><g id="m"/><g id="n"/><g id="o"/><g id="p"/><g id="q"/><g id="r"/><g id="s"/><g id="t"><g><path d="M20.48,7.18l-1.03-2.58c-.57-1.43-1.94-2.36-3.48-2.36h-3.22V7.25h7.75s-.01-.04-.02-.07Z"/><path d="M11.25,2.25h-3.22c-1.54,0-2.91,.93-3.48,2.36l-1.03,2.58s-.01,.04-.02,.06h7.75V2.25Z"/><path d="M3.25,8.75v9.25c0,2.07,1.68,3.75,3.75,3.75h10c2.07,0,3.75-1.68,3.75-3.75V8.75H3.25Zm6.75,9h-3c-.41,0-.75-.34-.75-.75s.34-.75,.75-.75h3c.41,0,.75,.34,.75,.75s-.34,.75-.75,.75Z"/></g></g><g id="u"/></svg>