<?xml version="1.0" encoding="UTF-8"?><svg xmlns="http://www.w3.org/2000/svg" viewBox="0 0 24 24"><g id="a"/><g id="b"/><g id="c"/><g id="d"/><g id="e"/><g id="f"/><g id="g"/><g id="h"><g><path d="M16.06,17.19l-1.31-.65V5.3c0-.35-.1-.68-.29-.97l-1-1.5c-.33-.49-.87-.78-1.46-.78s-1.13,.29-1.46,.78l-1,1.5c-.19,.29-.29,.62-.29,.97v11.23l-1.31,.65c-.42,.21-.69,.64-.69,1.12v2.05c0,.39,.18,.75,.48,.99,.22,.17,.49,.26,.77,.26,.1,0,.2-.01,.31-.04l3.2-.8,3.2,.8c.38,.09,.77,.01,1.07-.23,.31-.24,.48-.6,.48-.99v-2.05c0-.48-.26-.9-.69-1.12Z"/><path d="M20.48,9.07l-4.23-1.21v5.89h3.75c.96,0,1.75-.79,1.75-1.75v-1.25c0-.78-.52-1.47-1.27-1.68Z"/><path d="M7.75,7.86l-4.23,1.21c-.75,.21-1.27,.9-1.27,1.68v1.25c0,.96,.79,1.75,1.75,1.75h3.75V7.86Z"/></g></g><g id="i"/><g id="j"/><g id="k"/><g id="l"/><g id="m"/><g id="n"/><g id="o"/><g id="p"/><g id="q"/><g id="r"/><g id="s"/><g id="t"/><g id="u"/></svg>