<?xml version="1.0" encoding="UTF-8"?><svg xmlns="http://www.w3.org/2000/svg" viewBox="0 0 24 24"><g id="a"/><g id="b"/><g id="c"/><g id="d"/><g id="e"/><g id="f"/><g id="g"/><g id="h"/><g id="i"/><g id="j"/><g id="k"/><g id="l"/><g id="m"/><g id="n"/><g id="o"><path d="M20.17,18.38l-2.08-9c-.29-1.26-1.39-2.13-2.68-2.13h-1.84c.71-.5,1.18-1.32,1.18-2.25,0-1.52-1.23-2.75-2.75-2.75s-2.75,1.23-2.75,2.75c0,.93,.47,1.75,1.18,2.25h-1.84c-1.29,0-2.39,.88-2.68,2.13l-2.08,9c-.19,.82,0,1.67,.53,2.33s1.31,1.04,2.15,1.04h10.97c.84,0,1.63-.38,2.15-1.04s.72-1.51,.53-2.33ZM12,3.75c.69,0,1.25,.56,1.25,1.25s-.56,1.25-1.25,1.25-1.25-.56-1.25-1.25,.56-1.25,1.25-1.25Z"/></g><g id="p"/><g id="q"/><g id="r"/><g id="s"/><g id="t"/><g id="u"/></svg>