<?xml version="1.0" encoding="UTF-8"?><svg xmlns="http://www.w3.org/2000/svg" viewBox="0 0 24 24"><g id="a"/><g id="b"/><g id="c"/><g id="d"/><g id="e"/><g id="f"/><g id="g"/><g id="h"/><g id="i"/><g id="j"/><g id="k"/><g id="l"/><g id="m"/><g id="n"/><g id="o"/><g id="p"/><g id="q"/><g id="r"><g><path d="M16.25,9c0-.69-.56-1.25-1.25-1.25h-6c-.69,0-1.25,.56-1.25,1.25v2.25h8.5v-2.25Z"/><path d="M6.25,15v-6c0-.49,.14-.93,.36-1.33l-3.45-3.45c-.57,.78-.91,1.74-.91,2.78v10c0,1.04,.35,1.99,.91,2.78l3.45-3.45c-.22-.4-.36-.85-.36-1.33Z"/><path d="M20.84,4.22l-3.45,3.45c.22,.4,.36,.85,.36,1.33v6c0,.49-.14,.93-.36,1.33l3.45,3.45c.57-.78,.91-1.74,.91-2.78V7c0-1.04-.35-1.99-.91-2.78Z"/><path d="M9,6.25h6c.49,0,.93,.14,1.33,.36l3.45-3.45c-.78-.57-1.74-.91-2.78-.91H7c-1.04,0-1.99,.35-2.78,.91l3.45,3.45c.4-.22,.85-.36,1.33-.36Z"/><path d="M7.75,15c0,.69,.56,1.25,1.25,1.25h6c.69,0,1.25-.56,1.25-1.25v-2.25H7.75v2.25Z"/><path d="M15,17.75h-6c-.49,0-.93-.14-1.33-.36l-3.45,3.45c.78,.57,1.74,.91,2.78,.91h10c1.04,0,1.99-.35,2.78-.91l-3.45-3.45c-.4,.22-.85,.36-1.33,.36Z"/></g></g><g id="s"/><g id="t"/><g id="u"/></svg>