<?xml version="1.0" encoding="UTF-8"?><svg xmlns="http://www.w3.org/2000/svg" viewBox="0 0 24 24"><g id="a"/><g id="b"/><g id="c"/><g id="d"/><g id="e"/><g id="f"/><g id="g"/><g id="h"/><g id="i"/><g id="j"><g><path d="M21.67,18.66c-.19-.37-.64-.51-1.01-.33-1.01,.52-2.04,.8-3.06,.88l3.5-4.06c.46-.52,.57-1.24,.28-1.88s-.9-1.03-1.59-1.03H3c-.41,0-.75,.34-.75,.75v6s.02,.07,.02,.1c0,.05,.01,.11,.03,.16,.02,.04,.04,.08,.07,.12,.03,.04,.05,.09,.08,.12,.03,.04,.08,.07,.12,.1,.03,.02,.05,.05,.09,.07,.01,0,.03,.01,.04,.02h0c1.41,.71,2.81,1.05,4.29,1.06,1.27,0,2.06-.29,2.76-.55,.67-.24,1.24-.45,2.24-.45s1.57,.21,2.24,.45c.7,.25,1.49,.54,2.76,.55h.04c1.44,0,2.89-.36,4.3-1.08,.37-.19,.52-.64,.33-1.01Z"/><path d="M18.75,10c0-.41-.34-.75-.75-.75h-4c-.41,0-.75,.34-.75,.75v.75h5.5v-.75Z"/><path d="M11.75,10.75v-.75c0-.96-.79-1.75-1.75-1.75H4c-.96,0-1.75,.79-1.75,1.75v.89c.24-.08,.49-.14,.75-.14H11.75Z"/><path d="M9.72,6.75c-.12-.85-.85-1.5-1.72-1.5h-.25v-1.25c0-.41-.34-.75-.75-.75s-.75,.34-.75,.75v1.25h-.25c-.88,0-1.6,.65-1.72,1.5h5.45Z"/></g></g><g id="k"/><g id="l"/><g id="m"/><g id="n"/><g id="o"/><g id="p"/><g id="q"/><g id="r"/><g id="s"/><g id="t"/><g id="u"/></svg>