<?xml version="1.0" encoding="UTF-8"?><svg xmlns="http://www.w3.org/2000/svg" viewBox="0 0 24 24"><g id="a"/><g id="b"/><g id="c"/><g id="d"/><g id="e"/><g id="f"/><g id="g"/><g id="h"/><g id="i"/><g id="j"/><g id="k"/><g id="l"/><g id="m"/><g id="n"/><g id="o"/><g id="p"/><g id="q"><g><rect x="9.25" y="4.25" width="12.5" height="12.5" rx="2.75" ry="2.75"/><path d="M21,18.25H9.63c-.26-.91-.97-1.62-1.88-1.88V5c0-1.52-1.23-2.75-2.75-2.75h-1c-.41,0-.75,.34-.75,.75s.34,.75,.75,.75h1c.69,0,1.25,.56,1.25,1.25v11.37c-1.15,.33-2,1.38-2,2.63,0,1.52,1.23,2.75,2.75,2.75,1.25,0,2.3-.85,2.63-2h11.37c.41,0,.75-.34,.75-.75s-.34-.75-.75-.75Z"/></g></g><g id="r"/><g id="s"/><g id="t"/><g id="u"/></svg>