<?xml version="1.0" encoding="UTF-8"?><svg xmlns="http://www.w3.org/2000/svg" viewBox="0 0 24 24"><g id="a"/><g id="b"><path d="M18.25,12c0-.41,.34-.75,.75-.75h2.71c-.37-4.78-4.18-8.6-8.96-8.96v2.71c0,.41-.34,.75-.75,.75s-.75-.34-.75-.75V2.29C6.47,2.65,2.65,6.47,2.29,11.25h2.71c.41,0,.75,.34,.75,.75s-.34,.75-.75,.75H2.29c.37,4.78,4.18,8.6,8.96,8.96v-2.71c0-.41,.34-.75,.75-.75s.75,.34,.75,.75v2.71c4.78-.37,8.6-4.18,8.96-8.96h-2.71c-.41,0-.75-.34-.75-.75Zm-2.52-1.63l-3.31,2.25c-.13,.09-.28,.13-.42,.13-.24,0-.48-.11-.62-.33l-2.81-4.13c-.23-.34-.14-.81,.2-1.04,.34-.23,.81-.14,1.04,.2l2.39,3.51,2.69-1.83c.34-.23,.81-.15,1.04,.2,.23,.34,.14,.81-.2,1.04Z"/></g><g id="c"/><g id="d"/><g id="e"/><g id="f"/><g id="g"/><g id="h"/><g id="i"/><g id="j"/><g id="k"/><g id="l"/><g id="m"/><g id="n"/><g id="o"/><g id="p"/><g id="q"/><g id="r"/><g id="s"/><g id="t"/><g id="u"/></svg>