<?xml version="1.0" encoding="UTF-8"?><svg xmlns="http://www.w3.org/2000/svg" viewBox="0 0 24 24"><g id="a"/><g id="b"/><g id="c"/><g id="d"/><g id="e"/><g id="f"/><g id="g"/><g id="h"/><g id="i"><g><circle cx="8" cy="16" r="2.75"/><circle cx="17" cy="16" r="2.75"/><path d="M20.65,10.8l-2.67-2c-.47-.36-1.06-.55-1.65-.55h-1.08v3.89c.54-.24,1.12-.39,1.75-.39,2.34,0,4.25,1.91,4.25,4.25,0,.08-.02,.16-.02,.25,.32-.32,.52-.76,.52-1.25v-2c0-.86-.41-1.68-1.1-2.2Z"/><path d="M12,5.25H4c-.96,0-1.75,.79-1.75,1.75V15c0,.9,.69,1.64,1.57,1.73-.04-.24-.07-.48-.07-.73,0-2.34,1.91-4.25,4.25-4.25s4.25,1.91,4.25,4.25c0,.26-.03,.51-.08,.75h.65c-.04-.24-.08-.49-.08-.75,0-1.03,.39-1.97,1-2.71V7c0-.96-.79-1.75-1.75-1.75Z"/></g></g><g id="j"/><g id="k"/><g id="l"/><g id="m"/><g id="n"/><g id="o"/><g id="p"/><g id="q"/><g id="r"/><g id="s"/><g id="t"/><g id="u"/></svg>