<svg xmlns="http://www.w3.org/2000/svg" viewBox="0 0 32 32"><title>12-Delivery</title><g id="_12-Delivery" data-name="12-Delivery"><path d="M21,1V7H11V1Z" style="fill:#f2f2f2"/><path d="M21,7V9a2.938,2.938,0,0,1-3,3H14a2.938,2.938,0,0,1-3-3V7Z" style="fill:#f2f2f2"/><path d="M31,6V28a2.938,2.938,0,0,1-3,3H4a2.938,2.938,0,0,1-3-3V6A5,5,0,0,1,6,1h5V9a2.938,2.938,0,0,0,3,3h4a2.938,2.938,0,0,0,3-3V1h5A5,5,0,0,1,31,6Z" style="fill:#c1c5c8"/><path d="M31,13V6a5,5,0,0,0-5-5H6A5,5,0,0,0,1,6V28a2.938,2.938,0,0,0,3,3h6" style="fill:none;stroke:#6f7a7b;stroke-linecap:round;stroke-linejoin:round;stroke-width:2px"/><path d="M11,1V9a2.938,2.938,0,0,0,3,3h4a2.938,2.938,0,0,0,3-3V1" style="fill:none;stroke:#6f7a7b;stroke-linecap:round;stroke-linejoin:round;stroke-width:2px"/><line x1="11" y1="7" x2="21" y2="7" style="fill:none;stroke:#6f7a7b;stroke-linecap:round;stroke-linejoin:round;stroke-width:2px"/><circle cx="24" cy="22" r="3" style="fill:#c1c5c8"/><path d="M24,15a7,7,0,0,1,7,7c0,6-7,9-7,9s-7-3-7-9A7,7,0,0,1,24,15Zm3,7a3,3,0,1,0-3,3A3,3,0,0,0,27,22Z" style="fill:#f2f2f2"/><path d="M31,22a7,7,0,0,0-14,0c0,6,7,9,7,9S31,28,31,22Z" style="fill:none;stroke:#6f7a7b;stroke-linecap:round;stroke-linejoin:round;stroke-width:2px"/><circle cx="24" cy="22" r="3" style="fill:none;stroke:#6f7a7b;stroke-linecap:round;stroke-linejoin:round;stroke-width:2px"/><line x1="18" y1="31" x2="18" y2="31" style="fill:none;stroke:#6f7a7b;stroke-linecap:round;stroke-linejoin:round;stroke-width:2px"/><line x1="14" y1="31" x2="14" y2="31" style="fill:none;stroke:#6f7a7b;stroke-linecap:round;stroke-linejoin:round;stroke-width:2px"/></g></svg>