<svg xmlns="http://www.w3.org/2000/svg" viewBox="0 0 32 32"><title>18-Box</title><g id="_18-Box" data-name="18-Box"><path d="M31,6V7H23V1h3A5,5,0,0,1,31,6Z" style="fill:#f2f2f2"/><path d="M31,7v5H26a2.938,2.938,0,0,1-3-3V7Z" style="fill:#f2f2f2"/><rect x="14" y="22" width="4" height="4" rx="1" style="fill:#f2f2f2"/><path d="M31,12V28a2.938,2.938,0,0,1-3,3H4a2.938,2.938,0,0,1-3-3V6A5,5,0,0,1,6,1H23V9a2.938,2.938,0,0,0,3,3ZM18,25V23a1,1,0,0,0-1-1H15a1,1,0,0,0-1,1v2a1,1,0,0,0,1,1h2A1,1,0,0,0,18,25Z" style="fill:#c1c5c8"/><path d="M31,28V6a5,5,0,0,0-5-5H6A5,5,0,0,0,1,6V28a2.938,2.938,0,0,0,3,3H28A2.938,2.938,0,0,0,31,28Z" style="fill:none;stroke:#6f7a7b;stroke-linecap:round;stroke-linejoin:round;stroke-width:2px"/><path d="M23,1V9a2.938,2.938,0,0,0,3,3h5" style="fill:none;stroke:#6f7a7b;stroke-linecap:round;stroke-linejoin:round;stroke-width:2px"/><line x1="23" y1="7" x2="31" y2="7" style="fill:none;stroke:#6f7a7b;stroke-linecap:round;stroke-linejoin:round;stroke-width:2px"/><rect x="14" y="22" width="4" height="4" rx="1" style="fill:none;stroke:#6f7a7b;stroke-linecap:round;stroke-linejoin:round;stroke-width:2px"/><line x1="22" y1="22" x2="27" y2="22" style="fill:none;stroke:#6f7a7b;stroke-linecap:round;stroke-linejoin:round;stroke-width:2px"/><line x1="22" y1="26" x2="24" y2="26" style="fill:none;stroke:#6f7a7b;stroke-linecap:round;stroke-linejoin:round;stroke-width:2px"/><path d="M7,6h8a4.38,4.38,0,0,0-1,3,1.959,1.959,0,0,1-2,2H10A1.959,1.959,0,0,1,8,9,4.38,4.38,0,0,0,7,6Z" style="fill:#f2f2f2"/><path d="M15,6a4.38,4.38,0,0,0-1,3,1.959,1.959,0,0,1-2,2H10A1.959,1.959,0,0,1,8,9,4.38,4.38,0,0,0,7,6Z" style="fill:none;stroke:#6f7a7b;stroke-linecap:round;stroke-linejoin:round;stroke-width:2px"/><line x1="11" y1="11" x2="11" y2="16" style="fill:none;stroke:#6f7a7b;stroke-linecap:round;stroke-linejoin:round;stroke-width:2px"/><line x1="9" y1="16" x2="13" y2="16" style="fill:none;stroke:#6f7a7b;stroke-linecap:round;stroke-linejoin:round;stroke-width:2px"/></g></svg>