<svg xmlns="http://www.w3.org/2000/svg" viewBox="0 0 32 32"><title>20-Planceholder</title><g id="_20-Planceholder" data-name="20-Planceholder"><path d="M29,13c.02.31,0,.68,0,1a12.99,12.99,0,0,1-9.82,12.59L16,31l-3.18-4.41A12.99,12.99,0,0,1,3,14c0-.32-.02-.69,0-1a13.042,13.042,0,0,1,26,0Z" style="fill:#c1c5c8"/><path d="M3,13c-.02.31,0,.68,0,1a12.99,12.99,0,0,0,9.82,12.59L16,31l3.18-4.41A12.99,12.99,0,0,0,29,14c0-.32.02-.69,0-1" style="fill:none;stroke:#6f7a7b;stroke-linecap:round;stroke-linejoin:round;stroke-width:2px"/><path d="M29,13A13.042,13.042,0,0,0,3,13" style="fill:none;stroke:#6f7a7b;stroke-linecap:round;stroke-linejoin:round;stroke-width:2px"/><circle cx="16" cy="14" r="4" style="fill:#f2f2f2"/><circle cx="16" cy="14" r="4" style="fill:none;stroke:#6f7a7b;stroke-linecap:round;stroke-linejoin:round;stroke-width:2px"/></g></svg>