<svg xmlns="http://www.w3.org/2000/svg" viewBox="0 0 32 32"><title>23-Box</title><g id="_23-Box" data-name="23-Box"><circle cx="16" cy="16" r="15" style="fill:#f2f2f2"/><circle cx="16" cy="16" r="15" style="fill:none;stroke:#6f7a7b;stroke-linecap:round;stroke-linejoin:round;stroke-width:2px"/><path d="M18,15c0,1-1.33,1-1.33,1H15.33C14,16,14,15,14,15V11h4Z" style="fill:#f2f2f2"/><path d="M22,13v6a2.006,2.006,0,0,1-2,2H12a2.006,2.006,0,0,1-2-2V13a2.006,2.006,0,0,1,2-2h2v4s0,1,1.33,1h1.34S18,16,18,15V11h2A2.006,2.006,0,0,1,22,13Z" style="fill:#c1c5c8"/><path d="M14,11H12a2.006,2.006,0,0,0-2,2v6a2.006,2.006,0,0,0,2,2h8a2.006,2.006,0,0,0,2-2V13a2.006,2.006,0,0,0-2-2H14Z" style="fill:none;stroke:#6f7a7b;stroke-linecap:round;stroke-linejoin:round;stroke-width:2px"/><path d="M14,11v4s0,1,1.33,1h1.34S18,16,18,15V11" style="fill:none;stroke:#6f7a7b;stroke-linecap:round;stroke-linejoin:round;stroke-width:2px"/></g></svg>