<svg xmlns="http://www.w3.org/2000/svg" viewBox="0 0 32 32"><title>24-Shipping</title><g id="_24-Shipping" data-name="24-Shipping"><rect x="1" y="2" width="30" height="28" rx="3" style="fill:#f2f2f2"/><path d="M31,5a3,3,0,0,0-3-3H4A3,3,0,0,0,1,5V9H31Z" style="fill:#c1c5c8"/><path d="M18,17c0,1-1.33,1-1.33,1H15.33C14,18,14,17,14,17V13h4Z" style="fill:#f2f2f2"/><path d="M22,15v6a2.006,2.006,0,0,1-2,2H12a2.006,2.006,0,0,1-2-2V15a2.006,2.006,0,0,1,2-2h2v4s0,1,1.33,1h1.34S18,18,18,17V13h2A2.006,2.006,0,0,1,22,15Z" style="fill:#c1c5c8"/><rect x="1" y="2" width="30" height="28" rx="3" style="fill:none;stroke:#6f7a7b;stroke-linecap:round;stroke-linejoin:round;stroke-width:2px"/><line x1="5" y1="6" x2="5" y2="6" style="fill:none;stroke:#6f7a7b;stroke-linecap:round;stroke-linejoin:round;stroke-width:2px"/><line x1="9" y1="6" x2="9" y2="6" style="fill:none;stroke:#6f7a7b;stroke-linecap:round;stroke-linejoin:round;stroke-width:2px"/><line x1="27" y1="6" x2="27" y2="6" style="fill:none;stroke:#6f7a7b;stroke-linecap:round;stroke-linejoin:round;stroke-width:2px"/><rect x="10" y="13" width="12" height="10" rx="2" style="fill:none;stroke:#6f7a7b;stroke-linecap:round;stroke-linejoin:round;stroke-width:2px"/><path d="M14,13v4s0,1,1.333,1h1.334S18,18,18,17V13" style="fill:none;stroke:#6f7a7b;stroke-linecap:round;stroke-linejoin:round;stroke-width:2px"/></g></svg>