<svg xmlns="http://www.w3.org/2000/svg" viewBox="0 0 32 32"><title>25-Shipping</title><g id="_25-Shipping" data-name="25-Shipping"><rect x="1" y="2" width="30" height="28" rx="3" style="fill:#f2f2f2"/><path d="M31,5a3,3,0,0,0-3-3H4A3,3,0,0,0,1,5V9H31Z" style="fill:#c1c5c8"/><path d="M9,17c0,1-1.33,1-1.33,1H6.33C5,18,5,17,5,17V13H9Z" style="fill:#f2f2f2"/><path d="M13,15v6a2.006,2.006,0,0,1-2,2H3a2.006,2.006,0,0,1-2-2V15a2.006,2.006,0,0,1,2-2H5v4s0,1,1.33,1H7.67S9,18,9,17V13h2A2.006,2.006,0,0,1,13,15Z" style="fill:#c1c5c8"/><path d="M1,9V5A3,3,0,0,1,4,2H28a3,3,0,0,1,3,3V27a3,3,0,0,1-3,3H4a3,3,0,0,1-3-3" style="fill:none;stroke:#6f7a7b;stroke-linecap:round;stroke-linejoin:round;stroke-width:2px"/><line x1="5" y1="6" x2="5" y2="6" style="fill:none;stroke:#6f7a7b;stroke-linecap:round;stroke-linejoin:round;stroke-width:2px"/><line x1="9" y1="6" x2="9" y2="6" style="fill:none;stroke:#6f7a7b;stroke-linecap:round;stroke-linejoin:round;stroke-width:2px"/><line x1="27" y1="6" x2="27" y2="6" style="fill:none;stroke:#6f7a7b;stroke-linecap:round;stroke-linejoin:round;stroke-width:2px"/><rect x="1" y="13" width="12" height="10" rx="2" style="fill:none;stroke:#6f7a7b;stroke-linecap:round;stroke-linejoin:round;stroke-width:2px"/><path d="M5,13v4s0,1,1.333,1H7.667S9,18,9,17V13" style="fill:none;stroke:#6f7a7b;stroke-linecap:round;stroke-linejoin:round;stroke-width:2px"/><polyline points="21 20 23 22 21 24" style="fill:none;stroke:#6f7a7b;stroke-linecap:round;stroke-linejoin:round;stroke-width:2px"/><line x1="23" y1="22" x2="18" y2="22" style="fill:none;stroke:#6f7a7b;stroke-linecap:round;stroke-linejoin:round;stroke-width:2px"/><polyline points="20 16 18 14 20 12" style="fill:none;stroke:#6f7a7b;stroke-linecap:round;stroke-linejoin:round;stroke-width:2px"/><line x1="18" y1="14" x2="23" y2="14" style="fill:none;stroke:#6f7a7b;stroke-linecap:round;stroke-linejoin:round;stroke-width:2px"/></g></svg>