<svg xmlns="http://www.w3.org/2000/svg" viewBox="0 0 32 32"><title>27-Time</title><g id="_27-Time" data-name="27-Time"><circle cx="16" cy="16" r="11" style="fill:#c1c5c8"/><path d="M16,1A15,15,0,1,1,1,16,15.005,15.005,0,0,1,16,1ZM27,16A11,11,0,1,0,16,27,10.994,10.994,0,0,0,27,16Z" style="fill:#f2f2f2"/><circle cx="16" cy="16" r="15" style="fill:none;stroke:#6f7a7b;stroke-linecap:round;stroke-linejoin:round;stroke-width:2px"/><circle cx="16" cy="16" r="11" style="fill:none;stroke:#6f7a7b;stroke-linecap:round;stroke-linejoin:round;stroke-width:2px"/><line x1="16" y1="9" x2="16" y2="9" style="fill:none;stroke:#6f7a7b;stroke-linecap:round;stroke-linejoin:round;stroke-width:2px"/><line x1="16" y1="23" x2="16" y2="23" style="fill:none;stroke:#6f7a7b;stroke-linecap:round;stroke-linejoin:round;stroke-width:2px"/><line x1="23" y1="16" x2="23" y2="16" style="fill:none;stroke:#6f7a7b;stroke-linecap:round;stroke-linejoin:round;stroke-width:2px"/><line x1="9" y1="16" x2="9" y2="16" style="fill:none;stroke:#6f7a7b;stroke-linecap:round;stroke-linejoin:round;stroke-width:2px"/><polyline points="16 13 16 16 19 19" style="fill:none;stroke:#6f7a7b;stroke-linecap:round;stroke-linejoin:round;stroke-width:2px"/></g></svg>