<svg xmlns="http://www.w3.org/2000/svg" viewBox="0 0 32 32"><title>28-Boxes</title><g id="_28-Boxes" data-name="28-Boxes"><path d="M12,16c0,1-1.33,1-1.33,1H9.33C8,17,8,16,8,16V12h4Z" style="fill:#f2f2f2"/><path d="M16,14v6a2.006,2.006,0,0,1-2,2H6a2.006,2.006,0,0,1-2-2V14a2.006,2.006,0,0,1,2-2H8v4s0,1,1.33,1h1.34S12,17,12,16V12h2A2.006,2.006,0,0,1,16,14Z" style="fill:#c1c5c8"/><path d="M24,16c0,1-1.33,1-1.33,1H21.33C20,17,20,16,20,16V12h4Z" style="fill:#f2f2f2"/><path d="M28,14v6a2.006,2.006,0,0,1-2,2H18a2.006,2.006,0,0,1-2-2V14a2.006,2.006,0,0,1,2-2h2v4s0,1,1.33,1h1.34S24,17,24,16V12h2A2.006,2.006,0,0,1,28,14Z" style="fill:#c1c5c8"/><path d="M18,6c0,1-1.33,1-1.33,1H15.33C14,7,14,6,14,6V2h4Z" style="fill:#f2f2f2"/><path d="M22,4v6a2.006,2.006,0,0,1-2,2H12a2.006,2.006,0,0,1-2-2V4a2.006,2.006,0,0,1,2-2h2V6s0,1,1.33,1h1.34S18,7,18,6V2h2A2.006,2.006,0,0,1,22,4Z" style="fill:#c1c5c8"/><path d="M27,22a4,4,0,0,1,0,8H5a4,4,0,0,1,0-8Z" style="fill:#f2f2f2"/><path d="M1,26a4,4,0,0,0,4,4H27a4,4,0,0,0,0-8H5A4,4,0,0,0,1,26Z" style="fill:none;stroke:#6f7a7b;stroke-linecap:round;stroke-linejoin:round;stroke-width:2px"/><rect x="4" y="12" width="12" height="10" rx="2" style="fill:none;stroke:#6f7a7b;stroke-linecap:round;stroke-linejoin:round;stroke-width:2px"/><path d="M8,12v4s0,1,1.333,1h1.334S12,17,12,16V12" style="fill:none;stroke:#6f7a7b;stroke-linecap:round;stroke-linejoin:round;stroke-width:2px"/><rect x="16" y="12" width="12" height="10" rx="2" style="fill:none;stroke:#6f7a7b;stroke-linecap:round;stroke-linejoin:round;stroke-width:2px"/><path d="M20,12v4s0,1,1.333,1h1.334S24,17,24,16V12" style="fill:none;stroke:#6f7a7b;stroke-linecap:round;stroke-linejoin:round;stroke-width:2px"/><rect x="10" y="2" width="12" height="10" rx="2" style="fill:none;stroke:#6f7a7b;stroke-linecap:round;stroke-linejoin:round;stroke-width:2px"/><path d="M14,2V6s0,1,1.333,1h1.334S18,7,18,6V2" style="fill:none;stroke:#6f7a7b;stroke-linecap:round;stroke-linejoin:round;stroke-width:2px"/><line x1="6" y1="26" x2="6" y2="26" style="fill:none;stroke:#6f7a7b;stroke-linecap:round;stroke-linejoin:round;stroke-width:2px"/><line x1="26" y1="26" x2="26" y2="26" style="fill:none;stroke:#6f7a7b;stroke-linecap:round;stroke-linejoin:round;stroke-width:2px"/><line x1="16" y1="26" x2="16" y2="26" style="fill:none;stroke:#6f7a7b;stroke-linecap:round;stroke-linejoin:round;stroke-width:2px"/><line x1="10" y1="26" x2="12" y2="26" style="fill:none;stroke:#6f7a7b;stroke-linecap:round;stroke-linejoin:round;stroke-width:2px"/><line x1="20" y1="26" x2="22" y2="26" style="fill:none;stroke:#6f7a7b;stroke-linecap:round;stroke-linejoin:round;stroke-width:2px"/></g></svg>