<svg xmlns="http://www.w3.org/2000/svg" viewBox="0 0 32 32"><title>30-Destination</title><g id="_30-Destination" data-name="30-Destination"><path d="M27,13c.02.31,0,.68,0,1a12.99,12.99,0,0,1-9.82,12.59L14,31l-3.18-4.41A12.99,12.99,0,0,1,1,14c0-.32-.02-.69,0-1a13.042,13.042,0,0,1,26,0Z" style="fill:#f2f2f2"/><circle cx="14" cy="14" r="4" style="fill:#c1c5c8"/><path d="M31,16v9c-2.5,0-2.5,2-5,2s-2.5-2-5-2H19V16h2c2.5,0,2.5,2,5,2S28.5,16,31,16Z" style="fill:#c1c5c8"/><path d="M27,14c0-.316.022-.69,0-1" style="fill:none;stroke:#6f7a7b;stroke-linecap:round;stroke-linejoin:round;stroke-width:2px"/><path d="M1,13c-.022.31,0,.684,0,1a12.994,12.994,0,0,0,9.816,12.591L14,31l2-2.769" style="fill:none;stroke:#6f7a7b;stroke-linecap:round;stroke-linejoin:round;stroke-width:2px"/><path d="M27,13A13.042,13.042,0,0,0,1,13" style="fill:none;stroke:#6f7a7b;stroke-linecap:round;stroke-linejoin:round;stroke-width:2px"/><path d="M14,18a4,4,0,1,1,3.465-6" style="fill:none;stroke:#6f7a7b;stroke-linecap:round;stroke-linejoin:round;stroke-width:2px"/><path d="M19,25h2c2.5,0,2.5,2,5,2s2.5-2,5-2V16c-2.5,0-2.5,2-5,2s-2.5-2-5-2H19V31" style="fill:none;stroke:#6f7a7b;stroke-linecap:round;stroke-linejoin:round;stroke-width:2px"/></g></svg>