<svg xmlns="http://www.w3.org/2000/svg" viewBox="0 0 32 32"><title>33-Weight</title><g id="_33-Weight" data-name="33-Weight"><path d="M24,6c0,1-1.33,1-1.33,1H21.33C20,7,20,6,20,6V2h4Z" style="fill:#f2f2f2"/><path d="M28,4v6a2.006,2.006,0,0,1-2,2H18a2.006,2.006,0,0,1-2-2V4a2.006,2.006,0,0,1,2-2h2V6s0,1,1.33,1h1.34S24,7,24,6V2h2A2.006,2.006,0,0,1,28,4Z" style="fill:#c1c5c8"/><path d="M19,16c0,1-1.33,1-1.33,1H16.33C15,17,15,16,15,16V12h4Z" style="fill:#f2f2f2"/><path d="M23,14v6a2.006,2.006,0,0,1-2,2H13a2.006,2.006,0,0,1-2-2V14a2.006,2.006,0,0,1,2-2h2v4s0,1,1.33,1h1.34S19,17,19,16V12h2A2.006,2.006,0,0,1,23,14Z" style="fill:#c1c5c8"/><path d="M27,16c0,1-1.33,1-1.33,1H24.33C23,17,23,16,23,16V12h4Z" style="fill:#f2f2f2"/><path d="M31,14v6a2.006,2.006,0,0,1-2,2H21a2.006,2.006,0,0,1-2-2V14a2.006,2.006,0,0,1,2-2h2v4s0,1,1.33,1h1.34S27,17,27,16V12h2A2.006,2.006,0,0,1,31,14Z" style="fill:#c1c5c8"/><path d="M31,22v2a1.959,1.959,0,0,1-2,2H7V22H31Z" style="fill:#f2f2f2"/><circle cx="4" cy="5" r="3" style="fill:#f2f2f2"/><path d="M29,22h2v2a1.959,1.959,0,0,1-2,2H7V5" style="fill:none;stroke:#6f7a7b;stroke-linecap:round;stroke-linejoin:round;stroke-width:2px"/><line x1="7" y1="22" x2="13" y2="22" style="fill:none;stroke:#6f7a7b;stroke-linecap:round;stroke-linejoin:round;stroke-width:2px"/><path d="M18,12H13a2.006,2.006,0,0,0-2,2v6a2.006,2.006,0,0,0,2,2h8a2.006,2.006,0,0,0,2-2V14a2.006,2.006,0,0,0-2-2" style="fill:none;stroke:#6f7a7b;stroke-linecap:round;stroke-linejoin:round;stroke-width:2px"/><path d="M15,12v4s0,1,1.33,1h1.34S19,17,19,16V12" style="fill:none;stroke:#6f7a7b;stroke-linecap:round;stroke-linejoin:round;stroke-width:2px"/><path d="M26,12a2.006,2.006,0,0,0,2-2V4a2.006,2.006,0,0,0-2-2H18a2.006,2.006,0,0,0-2,2v6a2.006,2.006,0,0,0,2,2h3" style="fill:none;stroke:#6f7a7b;stroke-linecap:round;stroke-linejoin:round;stroke-width:2px"/><path d="M20,2V6s0,1,1.33,1h1.34S24,7,24,6V2" style="fill:none;stroke:#6f7a7b;stroke-linecap:round;stroke-linejoin:round;stroke-width:2px"/><path d="M21,22h8a2.006,2.006,0,0,0,2-2V14a2.006,2.006,0,0,0-2-2H21" style="fill:none;stroke:#6f7a7b;stroke-linecap:round;stroke-linejoin:round;stroke-width:2px"/><path d="M27,12v4a.979.979,0,0,1-1,1H23" style="fill:none;stroke:#6f7a7b;stroke-linecap:round;stroke-linejoin:round;stroke-width:2px"/><circle cx="4" cy="5" r="3" style="fill:none;stroke:#6f7a7b;stroke-linecap:round;stroke-linejoin:round;stroke-width:2px"/><path d="M7,26H3a1.959,1.959,0,0,0-2,2v2H31" style="fill:none;stroke:#6f7a7b;stroke-linecap:round;stroke-linejoin:round;stroke-width:2px"/></g></svg>