<svg xmlns="http://www.w3.org/2000/svg" viewBox="0 0 32 32"><title>37-Boxes</title><g id="_37-Boxes" data-name="37-Boxes"><circle cx="16" cy="16" r="15" style="fill:#f2f2f2"/><path d="M18,25c0,1-1.33,1-1.33,1H15.33C14,26,14,25,14,25V21h4Z" style="fill:#f2f2f2"/><path d="M22,23v6a2.006,2.006,0,0,1-2,2H12a2.006,2.006,0,0,1-2-2V23a2.006,2.006,0,0,1,2-2h2v4s0,1,1.33,1h1.34S18,26,18,25V21h2A2.006,2.006,0,0,1,22,23Z" style="fill:#c1c5c8"/><path d="M18,15c0,1-1.33,1-1.33,1H15.33C14,16,14,15,14,15V11h4Z" style="fill:#f2f2f2"/><path d="M22,13v6a2.006,2.006,0,0,1-2,2H12a2.006,2.006,0,0,1-2-2V13a2.006,2.006,0,0,1,2-2h2v4s0,1,1.33,1h1.34S18,16,18,15V11h2A2.006,2.006,0,0,1,22,13Z" style="fill:#c1c5c8"/><path d="M5,26.2a15,15,0,1,1,22,0" style="fill:none;stroke:#6f7a7b;stroke-linecap:round;stroke-linejoin:round;stroke-width:2px"/><rect x="10" y="21" width="12" height="10" rx="2" style="fill:none;stroke:#6f7a7b;stroke-linecap:round;stroke-linejoin:round;stroke-width:2px"/><path d="M14,21v4s0,1,1.333,1h1.334S18,26,18,25V21" style="fill:none;stroke:#6f7a7b;stroke-linecap:round;stroke-linejoin:round;stroke-width:2px"/><rect x="10" y="11" width="12" height="10" rx="2" style="fill:none;stroke:#6f7a7b;stroke-linecap:round;stroke-linejoin:round;stroke-width:2px"/><path d="M14,11v4s0,1,1.333,1h1.334S18,16,18,15V11" style="fill:none;stroke:#6f7a7b;stroke-linecap:round;stroke-linejoin:round;stroke-width:2px"/></g></svg>