<svg xmlns="http://www.w3.org/2000/svg" viewBox="0 0 32 32"><title>39-Shipping</title><g id="_39-Shipping" data-name="39-Shipping"><path d="M18,25c0,1-1.33,1-1.33,1H15.33C14,26,14,25,14,25V21h4Z" style="fill:#f2f2f2"/><path d="M22,23v6a2.006,2.006,0,0,1-2,2H12a2.006,2.006,0,0,1-2-2V23a2.006,2.006,0,0,1,2-2h2v4s0,1,1.33,1h1.34S18,26,18,25V21h2A2.006,2.006,0,0,1,22,23Z" style="fill:#c1c5c8"/><rect x="10" y="21" width="12" height="10" rx="2" style="fill:none;stroke:#6f7a7b;stroke-linecap:round;stroke-linejoin:round;stroke-width:2px"/><path d="M14,21v4s0,1,1.333,1h1.334S18,26,18,25V21" style="fill:none;stroke:#6f7a7b;stroke-linecap:round;stroke-linejoin:round;stroke-width:2px"/><path d="M25,10l-2,2H9L7,10a9,9,0,0,1,18,0Z" style="fill:#f2f2f2"/><path d="M9,12,7,10a9,9,0,0,1,18,0l-2,2Z" style="fill:none;stroke:#6f7a7b;stroke-linecap:round;stroke-linejoin:round;stroke-width:2px"/><line x1="16" y1="12" x2="16" y2="17" style="fill:none;stroke:#6f7a7b;stroke-linecap:round;stroke-linejoin:round;stroke-width:2px"/><line x1="9" y1="12" x2="12" y2="17" style="fill:none;stroke:#6f7a7b;stroke-linecap:round;stroke-linejoin:round;stroke-width:2px"/><line x1="23" y1="12" x2="20" y2="17" style="fill:none;stroke:#6f7a7b;stroke-linecap:round;stroke-linejoin:round;stroke-width:2px"/><line x1="16" y1="5" x2="16" y2="8" style="fill:none;stroke:#6f7a7b;stroke-linecap:round;stroke-linejoin:round;stroke-width:2px"/><line x1="20" y1="7" x2="20" y2="8" style="fill:none;stroke:#6f7a7b;stroke-linecap:round;stroke-linejoin:round;stroke-width:2px"/><line x1="12" y1="7" x2="12" y2="8" style="fill:none;stroke:#6f7a7b;stroke-linecap:round;stroke-linejoin:round;stroke-width:2px"/></g></svg>