<svg xmlns="http://www.w3.org/2000/svg" viewBox="0 0 32 32"><title>40-Service</title><g id="_40-Service" data-name="40-Service"><path d="M31,13c0,6.63-5.72,12-14,12l-5,2V24C5.66,23.6,1,18.52,1,13,1,6.37,7.72,1,16,1S31,6.37,31,13Z" style="fill:#c1c5c8"/><path d="M29,31H17c0-2.76,2.69-5,6-5S29,28.24,29,31Z" style="fill:#f2f2f2"/><path d="M27,21.5a4.907,4.907,0,0,1-.52,2.22,3.8,3.8,0,0,1-6.96,0A4.907,4.907,0,0,1,19,21.5,4.269,4.269,0,0,1,23,17,4.269,4.269,0,0,1,27,21.5Z" style="fill:#f2f2f2"/><path d="M18,11c0,1-1.33,1-1.33,1H15.33C14,12,14,11,14,11V7h4Z" style="fill:#c1c5c8"/><path d="M22,9v6a2.006,2.006,0,0,1-2,2H12a2.006,2.006,0,0,1-2-2V9a2.006,2.006,0,0,1,2-2h2v4s0,1,1.33,1h1.34S18,12,18,11V7h2A2.006,2.006,0,0,1,22,9Z" style="fill:#f2f2f2"/><ellipse cx="23" cy="21.5" rx="4" ry="4.5" style="fill:none;stroke:#6f7a7b;stroke-linecap:round;stroke-linejoin:round;stroke-width:2px"/><path d="M17,31c0-2.761,2.686-5,6-5s6,2.239,6,5" style="fill:none;stroke:#6f7a7b;stroke-linecap:round;stroke-linejoin:round;stroke-width:2px"/><path d="M29.818,18A11.044,11.044,0,0,0,31,13C31,6.373,24.284,1,16,1S1,6.373,1,13c0,5.517,4.661,10.6,11,11v3l4-1.6" style="fill:none;stroke:#6f7a7b;stroke-linecap:round;stroke-linejoin:round;stroke-width:2px"/><path d="M22,13V9a2,2,0,0,0-2-2H12a2,2,0,0,0-2,2v6a2,2,0,0,0,2,2h4" style="fill:none;stroke:#6f7a7b;stroke-linecap:round;stroke-linejoin:round;stroke-width:2px"/><path d="M14,7v4s0,1,1.333,1h1.334S18,12,18,11V7" style="fill:none;stroke:#6f7a7b;stroke-linecap:round;stroke-linejoin:round;stroke-width:2px"/></g></svg>