<svg xmlns="http://www.w3.org/2000/svg" viewBox="0 0 32 32"><title>42-Document</title><g id="_42-Document" data-name="42-Document"><path d="M28,4V28a3,3,0,0,1-3,3H7a3,3,0,0,1-3-3V7l6-6H25A3,3,0,0,1,28,4Z" style="fill:#f2f2f2"/><path d="M18,11c0,1-1.33,1-1.33,1H15.33C14,12,14,11,14,11V7h4Z" style="fill:#f2f2f2"/><path d="M22,9v6a2.006,2.006,0,0,1-2,2H12a2.006,2.006,0,0,1-2-2V9a2.006,2.006,0,0,1,2-2h2v4s0,1,1.33,1h1.34S18,12,18,11V7h2A2.006,2.006,0,0,1,22,9Z" style="fill:#c1c5c8"/><path d="M25,1H10L4,7V28a3,3,0,0,0,3,3H25a3,3,0,0,0,3-3V4A3,3,0,0,0,25,1Z" style="fill:none;stroke:#6f7a7b;stroke-linecap:round;stroke-linejoin:round;stroke-width:2px"/><line x1="14" y1="22" x2="22" y2="22" style="fill:none;stroke:#6f7a7b;stroke-linecap:round;stroke-linejoin:round;stroke-width:2px"/><line x1="14" y1="26" x2="22" y2="26" style="fill:none;stroke:#6f7a7b;stroke-linecap:round;stroke-linejoin:round;stroke-width:2px"/><line x1="10" y1="22" x2="10" y2="22" style="fill:none;stroke:#6f7a7b;stroke-linecap:round;stroke-linejoin:round;stroke-width:2px"/><line x1="10" y1="26" x2="10" y2="26" style="fill:none;stroke:#6f7a7b;stroke-linecap:round;stroke-linejoin:round;stroke-width:2px"/><rect x="10" y="7" width="12" height="10" rx="2" style="fill:none;stroke:#6f7a7b;stroke-linecap:round;stroke-linejoin:round;stroke-width:2px"/><path d="M14,7v4s0,1,1.333,1h1.334S18,12,18,11V7" style="fill:none;stroke:#6f7a7b;stroke-linecap:round;stroke-linejoin:round;stroke-width:2px"/></g></svg>