<svg xmlns="http://www.w3.org/2000/svg" viewBox="0 0 32 32"><title>43-Document</title><g id="_43-Document" data-name="43-Document"><path d="M28,4V28a3,3,0,0,1-3,3H7a3,3,0,0,1-3-3V7l6-6H25A3,3,0,0,1,28,4Z" style="fill:#f2f2f2"/><path d="M18,20c0,1-1.33,1-1.33,1H15.33C14,21,14,20,14,20V16h4Z" style="fill:#f2f2f2"/><path d="M22,18v6a2.006,2.006,0,0,1-2,2H12a2.006,2.006,0,0,1-2-2V18a2.006,2.006,0,0,1,2-2h2v4s0,1,1.33,1h1.34S18,21,18,20V16h2A2.006,2.006,0,0,1,22,18Z" style="fill:#c1c5c8"/><path d="M25,1H10L4,7V28a3,3,0,0,0,3,3H25a3,3,0,0,0,3-3V4A3,3,0,0,0,25,1Z" style="fill:none;stroke:#6f7a7b;stroke-linecap:round;stroke-linejoin:round;stroke-width:2px"/><rect x="10" y="16" width="12" height="10" rx="2" style="fill:none;stroke:#6f7a7b;stroke-linecap:round;stroke-linejoin:round;stroke-width:2px"/><path d="M14,16v4s0,1,1.333,1h1.334S18,21,18,20V16" style="fill:none;stroke:#6f7a7b;stroke-linecap:round;stroke-linejoin:round;stroke-width:2px"/><polyline points="14 7 16 5 18 7" style="fill:none;stroke:#6f7a7b;stroke-linecap:round;stroke-linejoin:round;stroke-width:2px"/><line x1="16" y1="5" x2="16" y2="12" style="fill:none;stroke:#6f7a7b;stroke-linecap:round;stroke-linejoin:round;stroke-width:2px"/></g></svg>