<svg xmlns="http://www.w3.org/2000/svg" viewBox="0 0 32 32"><title>46-Box</title><g id="_46-Box" data-name="46-Box"><path d="M15,13v5a2.006,2.006,0,0,1-2,2H11a2.006,2.006,0,0,1-2-2V13Z" style="fill:#f2f2f2"/><path d="M21,13V29a2.006,2.006,0,0,1-2,2H5a2.006,2.006,0,0,1-2-2V15a2.006,2.006,0,0,1,2-2H9v5a2.006,2.006,0,0,0,2,2h2a2.006,2.006,0,0,0,2-2V13h6Z" style="fill:#c1c5c8"/><path d="M29,15V29a2.006,2.006,0,0,1-2,2H19a2.006,2.006,0,0,0,2-2V13h6A2.006,2.006,0,0,1,29,15Z" style="fill:#c1c5c8"/><path d="M19,13H5a2,2,0,0,0-2,2V29a2,2,0,0,0,2,2H19a2,2,0,0,0,2-2V13" style="fill:none;stroke:#6f7a7b;stroke-linecap:round;stroke-linejoin:round;stroke-width:2px"/><path d="M18,31h9a2,2,0,0,0,2-2V15a2,2,0,0,0-2-2H17" style="fill:none;stroke:#6f7a7b;stroke-linecap:round;stroke-linejoin:round;stroke-width:2px"/><path d="M9,13v5a2,2,0,0,0,2,2h2a2,2,0,0,0,2-2V13" style="fill:none;stroke:#6f7a7b;stroke-linecap:round;stroke-linejoin:round;stroke-width:2px"/><line x1="25" y1="27" x2="25" y2="27" style="fill:none;stroke:#6f7a7b;stroke-linecap:round;stroke-linejoin:round;stroke-width:2px"/><polyline points="19 6 16 9 13 6" style="fill:none;stroke:#6f7a7b;stroke-linecap:round;stroke-linejoin:round;stroke-width:2px"/><line x1="16" y1="9" x2="16" y2="1" style="fill:none;stroke:#6f7a7b;stroke-linecap:round;stroke-linejoin:round;stroke-width:2px"/><line x1="25" y1="17" x2="25" y2="19" style="fill:none;stroke:#6f7a7b;stroke-linecap:round;stroke-linejoin:round;stroke-width:2px"/></g></svg>