<svg xmlns="http://www.w3.org/2000/svg" viewBox="0 0 32 32"><title>48-Destination</title><g id="_48-Destination" data-name="48-Destination"><path d="M17,2V7a2.006,2.006,0,0,1-2,2H13a2.006,2.006,0,0,1-2-2V2Z" style="fill:#f2f2f2"/><path d="M23,2V18a2.006,2.006,0,0,1-2,2H7a2.006,2.006,0,0,1-2-2V4A2.006,2.006,0,0,1,7,2h4V7a2.006,2.006,0,0,0,2,2h2a2.006,2.006,0,0,0,2-2V2h6Z" style="fill:#c1c5c8"/><path d="M31,4V18a2.006,2.006,0,0,1-2,2H21a2.006,2.006,0,0,0,2-2V2h6A2.006,2.006,0,0,1,31,4Z" style="fill:#c1c5c8"/><path d="M13,15v9c-2.5,0-2.5,2-5,2s-2.5-2-5-2H1V15H3c2.5,0,2.5,2,5,2S10.5,15,13,15Z" style="fill:#f2f2f2"/><path d="M17,20h4a2,2,0,0,0,2-2V2" style="fill:none;stroke:#6f7a7b;stroke-linecap:round;stroke-linejoin:round;stroke-width:2px"/><path d="M21,2H7A2,2,0,0,0,5,4v8" style="fill:none;stroke:#6f7a7b;stroke-linecap:round;stroke-linejoin:round;stroke-width:2px"/><path d="M20,20h9a2,2,0,0,0,2-2V4a2,2,0,0,0-2-2H19" style="fill:none;stroke:#6f7a7b;stroke-linecap:round;stroke-linejoin:round;stroke-width:2px"/><path d="M11,2V7a2,2,0,0,0,2,2h2a2,2,0,0,0,2-2V2" style="fill:none;stroke:#6f7a7b;stroke-linecap:round;stroke-linejoin:round;stroke-width:2px"/><line x1="27" y1="16" x2="27" y2="16" style="fill:none;stroke:#6f7a7b;stroke-linecap:round;stroke-linejoin:round;stroke-width:2px"/><line x1="27" y1="6" x2="27" y2="8" style="fill:none;stroke:#6f7a7b;stroke-linecap:round;stroke-linejoin:round;stroke-width:2px"/><path d="M1,24H3c2.5,0,2.5,2,5,2s2.5-2,5-2V15c-2.5,0-2.5,2-5,2s-2.5-2-5-2H1V30" style="fill:none;stroke:#6f7a7b;stroke-linecap:round;stroke-linejoin:round;stroke-width:2px"/></g></svg>