<svg xmlns="http://www.w3.org/2000/svg" viewBox="0 0 32 32"><title>5-Delivery</title><g id="_5-Delivery" data-name="5-Delivery"><path d="M27,1V11a2.938,2.938,0,0,1-3,3H20a2.938,2.938,0,0,1-3-3V1H12A5,5,0,0,0,7,6V28a2.938,2.938,0,0,0,3,3H32V1Z" style="fill:#c1c5c8"/><path d="M27,9v2a2.938,2.938,0,0,1-3,3H20a2.938,2.938,0,0,1-3-3V9Z" style="fill:#f2f2f2"/><path d="M27,1V9H17V1Z" style="fill:#f2f2f2"/><path d="M25,20a2,2,0,0,1,0,4H19a2,2,0,0,1,0-4Z" style="fill:#f2f2f2"/><path d="M31,1H12A5,5,0,0,0,7,6V8" style="fill:none;stroke:#6f7a7b;stroke-linecap:round;stroke-linejoin:round;stroke-width:2px"/><path d="M31,31H10a2.938,2.938,0,0,1-3-3V24" style="fill:none;stroke:#6f7a7b;stroke-linecap:round;stroke-linejoin:round;stroke-width:2px"/><path d="M17,1V11a2.938,2.938,0,0,0,3,3h4a2.938,2.938,0,0,0,3-3V1" style="fill:none;stroke:#6f7a7b;stroke-linecap:round;stroke-linejoin:round;stroke-width:2px"/><line x1="17" y1="9" x2="27" y2="9" style="fill:none;stroke:#6f7a7b;stroke-linecap:round;stroke-linejoin:round;stroke-width:2px"/><path d="M17,22a2,2,0,0,0,2,2h6a2,2,0,0,0,0-4H19a2,2,0,0,0-2,2" style="fill:none;stroke:#6f7a7b;stroke-linecap:round;stroke-linejoin:round;stroke-width:2px"/><polyline points="3 11 1 13 3 15" style="fill:none;stroke:#6f7a7b;stroke-linecap:round;stroke-linejoin:round;stroke-width:2px"/><line x1="1" y1="13" x2="9" y2="13" style="fill:none;stroke:#6f7a7b;stroke-linecap:round;stroke-linejoin:round;stroke-width:2px"/><polyline points="12 21 14 19 12 17" style="fill:none;stroke:#6f7a7b;stroke-linecap:round;stroke-linejoin:round;stroke-width:2px"/><line x1="14" y1="19" x2="5" y2="19" style="fill:none;stroke:#6f7a7b;stroke-linecap:round;stroke-linejoin:round;stroke-width:2px"/><line x1="13" y1="13" x2="13" y2="13" style="fill:none;stroke:#6f7a7b;stroke-linecap:round;stroke-linejoin:round;stroke-width:2px"/><line x1="1" y1="19" x2="1" y2="19" style="fill:none;stroke:#6f7a7b;stroke-linecap:round;stroke-linejoin:round;stroke-width:2px"/></g></svg>