<svg xmlns="http://www.w3.org/2000/svg" viewBox="0 0 32 32"><title>54-Box</title><g id="_54-Box" data-name="54-Box"><path d="M17,5v5a2.006,2.006,0,0,1-2,2H13a2.006,2.006,0,0,1-2-2V5Z" style="fill:#f2f2f2"/><path d="M23,5V21a2.006,2.006,0,0,1-2,2H7a2.006,2.006,0,0,1-2-2V7A2.006,2.006,0,0,1,7,5h4v5a2.006,2.006,0,0,0,2,2h2a2.006,2.006,0,0,0,2-2V5h6Z" style="fill:#c1c5c8"/><path d="M31,7V21a2.006,2.006,0,0,1-2,2H21a2.006,2.006,0,0,0,2-2V5h6A2.006,2.006,0,0,1,31,7Z" style="fill:#c1c5c8"/><path d="M1,17H9a4.38,4.38,0,0,0-1,3,1.959,1.959,0,0,1-2,2H4a1.959,1.959,0,0,1-2-2A4.38,4.38,0,0,0,1,17Z" style="fill:#f2f2f2"/><path d="M11,23H21a2,2,0,0,0,2-2V5" style="fill:none;stroke:#6f7a7b;stroke-linecap:round;stroke-linejoin:round;stroke-width:2px"/><path d="M21,5H7A2,2,0,0,0,5,7v6" style="fill:none;stroke:#6f7a7b;stroke-linecap:round;stroke-linejoin:round;stroke-width:2px"/><path d="M20,23h9a2,2,0,0,0,2-2V7a2,2,0,0,0-2-2H19" style="fill:none;stroke:#6f7a7b;stroke-linecap:round;stroke-linejoin:round;stroke-width:2px"/><path d="M11,5v5a2,2,0,0,0,2,2h2a2,2,0,0,0,2-2V5" style="fill:none;stroke:#6f7a7b;stroke-linecap:round;stroke-linejoin:round;stroke-width:2px"/><line x1="27" y1="19" x2="27" y2="19" style="fill:none;stroke:#6f7a7b;stroke-linecap:round;stroke-linejoin:round;stroke-width:2px"/><line x1="27" y1="9" x2="27" y2="11" style="fill:none;stroke:#6f7a7b;stroke-linecap:round;stroke-linejoin:round;stroke-width:2px"/><path d="M9,17a4.38,4.38,0,0,0-1,3,1.959,1.959,0,0,1-2,2H4a1.959,1.959,0,0,1-2-2,4.38,4.38,0,0,0-1-3Z" style="fill:none;stroke:#6f7a7b;stroke-linecap:round;stroke-linejoin:round;stroke-width:2px"/><line x1="5" y1="22" x2="5" y2="27" style="fill:none;stroke:#6f7a7b;stroke-linecap:round;stroke-linejoin:round;stroke-width:2px"/><line x1="3" y1="27" x2="7" y2="27" style="fill:none;stroke:#6f7a7b;stroke-linecap:round;stroke-linejoin:round;stroke-width:2px"/></g></svg>