<svg xmlns="http://www.w3.org/2000/svg" viewBox="0 0 32 32"><title>58-Calendar</title><g id="_58-Calendar" data-name="58-Calendar"><rect x="1" y="4" width="30" height="22" rx="3" style="fill:#f2f2f2"/><path d="M31,7a3,3,0,0,0-3-3H4A3,3,0,0,0,1,7V9H31Z" style="fill:#c1c5c8"/><path d="M27,24c0,1-1.33,1-1.33,1H24.33C23,25,23,24,23,24V20h4Z" style="fill:#f2f2f2"/><path d="M31,22v6a2.006,2.006,0,0,1-2,2H21a2.006,2.006,0,0,1-2-2V22a2.006,2.006,0,0,1,2-2h2v4s0,1,1.33,1h1.34S27,25,27,24V20h2A2.006,2.006,0,0,1,31,22Z" style="fill:#c1c5c8"/><path d="M31,16V7a3,3,0,0,0-3-3H4A3,3,0,0,0,1,7V23a3,3,0,0,0,3,3H15" style="fill:none;stroke:#6f7a7b;stroke-linecap:round;stroke-linejoin:round;stroke-width:2px"/><line x1="16" y1="2" x2="16" y2="6" style="fill:none;stroke:#6f7a7b;stroke-linecap:round;stroke-linejoin:round;stroke-width:2px"/><line x1="21" y1="2" x2="21" y2="6" style="fill:none;stroke:#6f7a7b;stroke-linecap:round;stroke-linejoin:round;stroke-width:2px"/><line x1="26" y1="2" x2="26" y2="6" style="fill:none;stroke:#6f7a7b;stroke-linecap:round;stroke-linejoin:round;stroke-width:2px"/><line x1="11" y1="2" x2="11" y2="6" style="fill:none;stroke:#6f7a7b;stroke-linecap:round;stroke-linejoin:round;stroke-width:2px"/><line x1="6" y1="2" x2="6" y2="6" style="fill:none;stroke:#6f7a7b;stroke-linecap:round;stroke-linejoin:round;stroke-width:2px"/><line x1="8" y1="12" x2="9" y2="12" style="fill:none;stroke:#6f7a7b;stroke-linecap:round;stroke-linejoin:round;stroke-width:2px"/><line x1="8" y1="16" x2="9" y2="16" style="fill:none;stroke:#6f7a7b;stroke-linecap:round;stroke-linejoin:round;stroke-width:2px"/><line x1="8" y1="20" x2="9" y2="20" style="fill:none;stroke:#6f7a7b;stroke-linecap:round;stroke-linejoin:round;stroke-width:2px"/><line x1="13" y1="12" x2="14" y2="12" style="fill:none;stroke:#6f7a7b;stroke-linecap:round;stroke-linejoin:round;stroke-width:2px"/><line x1="13" y1="16" x2="14" y2="16" style="fill:none;stroke:#6f7a7b;stroke-linecap:round;stroke-linejoin:round;stroke-width:2px"/><line x1="13" y1="20" x2="14" y2="20" style="fill:none;stroke:#6f7a7b;stroke-linecap:round;stroke-linejoin:round;stroke-width:2px"/><line x1="18" y1="12" x2="19" y2="12" style="fill:none;stroke:#6f7a7b;stroke-linecap:round;stroke-linejoin:round;stroke-width:2px"/><line x1="18" y1="16" x2="19" y2="16" style="fill:none;stroke:#6f7a7b;stroke-linecap:round;stroke-linejoin:round;stroke-width:2px"/><line x1="23" y1="12" x2="24" y2="12" style="fill:none;stroke:#6f7a7b;stroke-linecap:round;stroke-linejoin:round;stroke-width:2px"/><line x1="23" y1="16" x2="24" y2="16" style="fill:none;stroke:#6f7a7b;stroke-linecap:round;stroke-linejoin:round;stroke-width:2px"/><rect x="19" y="20" width="12" height="10" rx="2" style="fill:none;stroke:#6f7a7b;stroke-linecap:round;stroke-linejoin:round;stroke-width:2px"/><path d="M23,20v4s0,1,1.333,1h1.334S27,25,27,24V20" style="fill:none;stroke:#6f7a7b;stroke-linecap:round;stroke-linejoin:round;stroke-width:2px"/></g></svg>