<svg xmlns="http://www.w3.org/2000/svg" viewBox="0 0 32 32"><title>12-List</title><g id="_12-List" data-name="12-List"><circle cx="16" cy="16" r="15" style="fill:#f2f2f2"/><path d="M16,32A16,16,0,1,1,32,16,16.019,16.019,0,0,1,16,32ZM16,2A14,14,0,1,0,30,16,14.015,14.015,0,0,0,16,2Z" style="fill:#6f7a7b"/><path d="M9,12a1.05,1.05,0,0,1-.71-.29,1.032,1.032,0,0,1-.21-.33A1,1,0,0,1,8,11a1,1,0,0,1,1.71-.71A1.052,1.052,0,0,1,10,11a1,1,0,0,1-.08.38,1.032,1.032,0,0,1-.21.33A1.052,1.052,0,0,1,9,12Z" style="fill:#6f7a7b"/><path d="M23,12H13a1,1,0,0,1,0-2H23a1,1,0,0,1,0,2Z" style="fill:#6f7a7b"/><path d="M9,17a.99.99,0,0,1-1-1,1,1,0,0,1,.08-.38,1.155,1.155,0,0,1,.21-.33,1.047,1.047,0,0,1,1.42,0,1.155,1.155,0,0,1,.21.33A1,1,0,0,1,10,16a.99.99,0,0,1-1,1Z" style="fill:#6f7a7b"/><path d="M23,17H13a1,1,0,0,1,0-2H23a1,1,0,0,1,0,2Z" style="fill:#6f7a7b"/><path d="M9,22a1.487,1.487,0,0,1-.2-.02.636.636,0,0,1-.18-.06.782.782,0,0,1-.181-.09l-.149-.12A1.047,1.047,0,0,1,8,21a1,1,0,0,1,.08-.38,1.155,1.155,0,0,1,.21-.33,1.047,1.047,0,0,1,1.42,0,1.155,1.155,0,0,1,.21.33A1,1,0,0,1,10,21a.99.99,0,0,1-1,1Z" style="fill:#6f7a7b"/><path d="M23,22H13a1,1,0,0,1,0-2H23a1,1,0,0,1,0,2Z" style="fill:#6f7a7b"/></g></svg>