<svg xmlns="http://www.w3.org/2000/svg" viewBox="0 0 32 32"><title>14-Picture</title><g id="_14-Picture" data-name="14-Picture"><path d="M30,21l.13.04a14.922,14.922,0,0,1-3.04,5.05L27,26a24.963,24.963,0,0,1-8.02-5.98L19,20l4-5S27,20,30,21Z" style="fill:#c1c5c8"/><path d="M18.98,20.02A24.963,24.963,0,0,0,27,26l.09.09A14.99,14.99,0,0,1,4,25L15,15A35.938,35.938,0,0,0,18.98,20.02Z" style="fill:#c1c5c8"/><path d="M23,15l-4,5-.02.02A35.938,35.938,0,0,1,15,15L4,25a15,15,0,1,1,26.13-3.96L30,21C27,20,23,15,23,15Z" style="fill:#f2f2f2"/><circle cx="16" cy="8" r="3" style="fill:#c1c5c8"/><path d="M16,0A16.019,16.019,0,0,0,0,16a15.852,15.852,0,0,0,3.2,9.6h0c.018.023.039.043.056.066l0,0,0,0a15.982,15.982,0,0,0,24.565,1.088,15.808,15.808,0,0,0,3.243-5.389A16,16,0,0,0,16,0Zm0,2A13.986,13.986,0,0,1,29.5,19.681a25.053,25.053,0,0,1-5.722-5.306,1.036,1.036,0,0,0-1.562,0l-3.286,4.108a34.716,34.716,0,0,1-3.085-4.013,1,1,0,0,0-1.521-.21L4.172,23.492A13.86,13.86,0,0,1,2,16,14.015,14.015,0,0,1,16,2ZM26.842,24.821a23.8,23.8,0,0,1-6.528-4.863l2.707-3.384a23.2,23.2,0,0,0,5.806,5.006A13.8,13.8,0,0,1,26.842,24.821Zm-21.456.271,9.432-8.575A39.046,39.046,0,0,0,18.249,20.7a26.847,26.847,0,0,0,7.162,5.647A13.942,13.942,0,0,1,5.386,25.092Z" style="fill:#6f7a7b"/><path d="M16,12a4,4,0,1,0-4-4A4,4,0,0,0,16,12Zm0-6a2,2,0,1,1-2,2A2,2,0,0,1,16,6Z" style="fill:#6f7a7b"/></g></svg>