<svg xmlns="http://www.w3.org/2000/svg" viewBox="0 0 32 32"><title>15-Account</title><g id="_15-Account" data-name="15-Account"><circle cx="16" cy="16" r="15" style="fill:#c1c5c8"/><path d="M23,12V22a2.006,2.006,0,0,1-2,2H11a2.006,2.006,0,0,1-2-2V12Z" style="fill:#f2f2f2"/><path d="M23,9v3H9V9a2.006,2.006,0,0,1,2-2H21A2.006,2.006,0,0,1,23,9Z" style="fill:#c1c5c8"/><path d="M16,0A16,16,0,1,0,32,16,16.019,16.019,0,0,0,16,0Zm0,30A14,14,0,1,1,30,16,14.015,14.015,0,0,1,16,30Z" style="fill:#6f7a7b"/><path d="M21,6H11A3,3,0,0,0,8,9V22a3,3,0,0,0,3,3H21a3,3,0,0,0,3-3V9A3,3,0,0,0,21,6ZM11,8H21a1,1,0,0,1,1,1v2H10V9A1,1,0,0,1,11,8ZM21,23H11a1,1,0,0,1-1-1V13H22v9A1,1,0,0,1,21,23Z" style="fill:#6f7a7b"/><path d="M13.29,15.29c-.04.05-.08.1-.12.16a.556.556,0,0,0-.09.17.636.636,0,0,0-.06.18A1.5,1.5,0,0,0,13,16a1.355,1.355,0,0,0,.02.2.636.636,0,0,0,.06.18.757.757,0,0,0,.09.18l.12.15A1.052,1.052,0,0,0,14,17a1.033,1.033,0,0,0,.71-.29l.12-.15a.757.757,0,0,0,.09-.18.636.636,0,0,0,.06-.18A1.355,1.355,0,0,0,15,16a1,1,0,0,0-1.71-.71Z" style="fill:#6f7a7b"/><path d="M18.71,15.29l-.15-.12a.757.757,0,0,0-.18-.09.636.636,0,0,0-.18-.06.956.956,0,0,0-.58.06.9.9,0,0,0-.54.54A1,1,0,0,0,17,16a1.052,1.052,0,0,0,.29.71,1.155,1.155,0,0,0,.33.21A1,1,0,0,0,18,17a1.355,1.355,0,0,0,.2-.02.636.636,0,0,0,.18-.06.757.757,0,0,0,.18-.09l.15-.12A1.052,1.052,0,0,0,19,16a1,1,0,0,0-.08-.38A1.155,1.155,0,0,0,18.71,15.29Z" style="fill:#6f7a7b"/><path d="M14.71,19.29l-.15-.12a.757.757,0,0,0-.18-.09.636.636,0,0,0-.18-.06,1.037,1.037,0,0,0-.91.27,1.155,1.155,0,0,0-.21.33A1,1,0,0,0,13,20a1.052,1.052,0,0,0,.29.71l.15.12a.757.757,0,0,0,.18.09.636.636,0,0,0,.18.06A1.5,1.5,0,0,0,14,21a1.355,1.355,0,0,0,.2-.02.636.636,0,0,0,.18-.06.757.757,0,0,0,.18-.09l.15-.12A1.052,1.052,0,0,0,15,20a1,1,0,0,0-.08-.38A1.155,1.155,0,0,0,14.71,19.29Z" style="fill:#6f7a7b"/><path d="M18.56,19.17a.757.757,0,0,0-.18-.09.636.636,0,0,0-.18-.06.956.956,0,0,0-.58.06,1.155,1.155,0,0,0-.33.21A1.052,1.052,0,0,0,17,20a1,1,0,0,0,.08.38,1.032,1.032,0,0,0,.21.33,1.155,1.155,0,0,0,.33.21A1,1,0,0,0,18,21a1.355,1.355,0,0,0,.2-.02.636.636,0,0,0,.18-.06.757.757,0,0,0,.18-.09,1.576,1.576,0,0,0,.15-.12,1.032,1.032,0,0,0,.21-.33A1,1,0,0,0,19,20a1.052,1.052,0,0,0-.29-.71Z" style="fill:#6f7a7b"/></g></svg>