<svg xmlns="http://www.w3.org/2000/svg" viewBox="0 0 32 32"><title>16-Control</title><g id="_16-Control" data-name="16-Control"><circle cx="16" cy="16" r="15" style="fill:#f2f2f2"/><circle cx="20" cy="23" r="2" style="fill:#c1c5c8"/><circle cx="16" cy="16" r="2" style="fill:#c1c5c8"/><circle cx="13" cy="9" r="2" style="fill:#c1c5c8"/><path d="M16,0A16,16,0,1,0,32,16,16.019,16.019,0,0,0,16,0Zm0,30A14,14,0,1,1,30,16,14.015,14.015,0,0,1,16,30Z" style="fill:#6f7a7b"/><path d="M26,15H18.816a2.982,2.982,0,0,0-5.632,0H6a1,1,0,0,0,0,2h7.184a2.982,2.982,0,0,0,5.632,0H26a1,1,0,0,0,0-2ZM16,17a1,1,0,1,1,1-1A1,1,0,0,1,16,17Z" style="fill:#6f7a7b"/><path d="M8,10h2.184a2.982,2.982,0,0,0,5.632,0H24a1,1,0,0,0,0-2H15.816a2.982,2.982,0,0,0-5.632,0H8a1,1,0,0,0,0,2Zm5-2a1,1,0,1,1-1,1A1,1,0,0,1,13,8Z" style="fill:#6f7a7b"/><path d="M24,22H22.816a2.982,2.982,0,0,0-5.632,0H8a1,1,0,0,0,0,2h9.184a2.982,2.982,0,0,0,5.632,0H24a1,1,0,0,0,0-2Zm-4,2a1,1,0,1,1,1-1A1,1,0,0,1,20,24Z" style="fill:#6f7a7b"/></g></svg>