<svg xmlns="http://www.w3.org/2000/svg" viewBox="0 0 32 32"><title>17-Control</title><g id="_17-Control" data-name="17-Control"><circle cx="16" cy="16" r="15" style="fill:#c1c5c8"/><circle cx="22" cy="16" r="4" style="fill:#c1c5c8"/><path d="M10,12H22a4,4,0,0,0,0,8H10a4,4,0,0,1,0-8Z" style="fill:#f2f2f2"/><path d="M16,0A16,16,0,1,0,32,16,16.019,16.019,0,0,0,16,0Zm0,30A14,14,0,1,1,30,16,14.015,14.015,0,0,1,16,30Z" style="fill:#6f7a7b"/><path d="M22,11H10a5,5,0,0,0,0,10H22a5,5,0,0,0,0-10ZM7,16a3,3,0,0,1,3-3h8.026a4.9,4.9,0,0,0,0,6H10A3,3,0,0,1,7,16Zm15,3a3,3,0,1,1,3-3A3,3,0,0,1,22,19Z" style="fill:#6f7a7b"/></g></svg>