<svg xmlns="http://www.w3.org/2000/svg" viewBox="0 0 32 32"><title>18-Flag</title><g id="_18-Flag" data-name="18-Flag"><circle cx="16" cy="16" r="15" style="fill:#f2f2f2"/><path d="M23,8v9c-2.5,0-2.5,2-5,2s-2.5-2-5-2H11V8h2c2.5,0,2.5,2,5,2S20.5,8,23,8Z" style="fill:#c1c5c8"/><path d="M16,0A16,16,0,1,0,32,16,16.019,16.019,0,0,0,16,0Zm0,30A14,14,0,1,1,30,16,14.015,14.015,0,0,1,16,30Z" style="fill:#6f7a7b"/><path d="M23,7a4.529,4.529,0,0,0-3.125,1.219,2.641,2.641,0,0,1-3.75,0A4.529,4.529,0,0,0,13,7H11a1,1,0,0,0-1,1V24a1,1,0,0,0,2,0V18h1a2.585,2.585,0,0,1,1.875.781,4.615,4.615,0,0,0,6.25,0A2.585,2.585,0,0,1,23,18a1,1,0,0,0,1-1V8A1,1,0,0,0,23,7Zm-1,9.1a4.83,4.83,0,0,0-2.125,1.12,2.641,2.641,0,0,1-3.75,0A4.529,4.529,0,0,0,13,16H12V9h1a2.585,2.585,0,0,1,1.875.781,4.615,4.615,0,0,0,6.25,0A4.105,4.105,0,0,1,22,9.189Z" style="fill:#6f7a7b"/><path d="M19.71,13.29a1.047,1.047,0,0,0-1.42,0,1.032,1.032,0,0,0-.21.33A1,1,0,0,0,18,14a1,1,0,0,0,1.71.71.933.933,0,0,0,.21-.33.943.943,0,0,0,0-.76A.933.933,0,0,0,19.71,13.29Z" style="fill:#6f7a7b"/><path d="M14.29,12.29a1.014,1.014,0,0,0,0,1.42,1.032,1.032,0,0,0,.33.21.942.942,0,0,0,.76,0,1.169,1.169,0,0,0,.33-.21,1,1,0,0,0-1.42-1.42Z" style="fill:#6f7a7b"/></g></svg>