<svg xmlns="http://www.w3.org/2000/svg" viewBox="0 0 32 32"><title>2-Placeholder</title><g id="_2-Placeholder" data-name="2-Placeholder"><circle cx="16" cy="16" r="15" style="fill:#f2f2f2"/><path d="M16,32A16,16,0,1,1,32,16,16.019,16.019,0,0,1,16,32ZM16,2A14,14,0,1,0,30,16,14.015,14.015,0,0,0,16,2Z" style="fill:#6f7a7b"/><circle cx="16" cy="14" r="3" style="fill:#f2f2f2"/><path d="M16,7a7,7,0,0,1,7,7c0,6-7,11-7,11S9,20,9,14A7,7,0,0,1,16,7Zm3,7a3,3,0,1,0-3,3A3,3,0,0,0,19,14Z" style="fill:#c1c5c8"/><path d="M16,26a1,1,0,0,1-.581-.186C15.116,25.6,8,20.44,8,14a8,8,0,0,1,16,0c0,6.44-7.116,11.6-7.419,11.814A1,1,0,0,1,16,26ZM16,8a6.006,6.006,0,0,0-6,6c0,4.438,4.391,8.422,6,9.733,1.609-1.311,6-5.3,6-9.733A6.006,6.006,0,0,0,16,8Z" style="fill:#6f7a7b"/><path d="M16,18a4,4,0,1,1,4-4A4,4,0,0,1,16,18Zm0-6a2,2,0,1,0,2,2A2,2,0,0,0,16,12Z" style="fill:#6f7a7b"/></g></svg>