<svg xmlns="http://www.w3.org/2000/svg" viewBox="0 0 32 32"><title>21-Placeholder</title><g id="_21-Placeholder" data-name="21-Placeholder"><circle cx="16" cy="16" r="15" style="fill:#c1c5c8"/><path d="M16,32A16,16,0,1,1,32,16,16.019,16.019,0,0,1,16,32ZM16,2A14,14,0,1,0,30,16,14.015,14.015,0,0,0,16,2Z" style="fill:#6f7a7b"/><circle cx="16" cy="13" r="3" style="fill:#c1c5c8"/><path d="M16,6a7,7,0,0,1,7,7c0,6-7,10-7,10S9,19,9,13A7,7,0,0,1,16,6Zm3,7a3,3,0,1,0-3,3A3,3,0,0,0,19,13Z" style="fill:#f2f2f2"/><path d="M16,17a4,4,0,1,1,4-4A4,4,0,0,1,16,17Zm0-6a2,2,0,1,0,2,2A2,2,0,0,0,16,11Z" style="fill:#6f7a7b"/><path d="M16,24a1,1,0,0,1-.5-.132C15.2,23.693,8,19.505,8,13a8,8,0,0,1,16,0c0,6.5-7.2,10.693-7.5,10.868A1,1,0,0,1,16,24ZM16,7a6.006,6.006,0,0,0-6,6c0,4.471,4.479,7.813,6,8.819,1.519-1.008,6-4.362,6-8.819A6.006,6.006,0,0,0,16,7Z" style="fill:#6f7a7b"/><path d="M16,28c-3.991,0-7-1.72-7-4a1,1,0,0,1,2,0c0,.815,1.948,2,5,2s5-1.185,5-2a1,1,0,0,1,2,0C23,26.28,19.991,28,16,28Z" style="fill:#6f7a7b"/></g></svg>