<svg xmlns="http://www.w3.org/2000/svg" viewBox="0 0 32 32"><title>22-Video</title><g id="_22-Video" data-name="22-Video"><circle cx="16" cy="16" r="15" style="fill:#f2f2f2"/><polygon points="20 16 13 19 13 13 20 16" style="fill:#f2f2f2"/><path d="M25,11V21a2.006,2.006,0,0,1-2,2,56.385,56.385,0,0,1-7,1,56.385,56.385,0,0,1-7-1,2.006,2.006,0,0,1-2-2V11A2.006,2.006,0,0,1,9,9a56.385,56.385,0,0,1,7-1,56.385,56.385,0,0,1,7,1A2.006,2.006,0,0,1,25,11ZM13,19l7-3-7-3Z" style="fill:#c1c5c8"/><path d="M16,0A16,16,0,1,0,32,16,16.019,16.019,0,0,0,16,0Zm0,30A14,14,0,1,1,30,16,14.015,14.015,0,0,1,16,30Z" style="fill:#6f7a7b"/><path d="M23.107,8A54.358,54.358,0,0,0,16,7,54.358,54.358,0,0,0,8.893,8,3,3,0,0,0,6,11V21a3,3,0,0,0,2.893,3A54.358,54.358,0,0,0,16,25a54.358,54.358,0,0,0,7.107-1A3,3,0,0,0,26,21V11A3,3,0,0,0,23.107,8ZM24,21a1,1,0,0,1-1,1,.925.925,0,0,0-.2.02A56.193,56.193,0,0,1,16,23a56.193,56.193,0,0,1-6.8-.98A.925.925,0,0,0,9,22a1,1,0,0,1-1-1V11a1,1,0,0,1,1-1,.925.925,0,0,0,.2-.02A56.193,56.193,0,0,1,16,9a56.193,56.193,0,0,1,6.8.98A.925.925,0,0,0,23,10a1,1,0,0,1,1,1Z" style="fill:#6f7a7b"/><path d="M20.394,15.081l-7-3A1,1,0,0,0,12,13v6a1,1,0,0,0,1.394.919l7-3a1,1,0,0,0,0-1.838ZM14,17.483V14.517L17.461,16Z" style="fill:#6f7a7b"/></g></svg>