<svg xmlns="http://www.w3.org/2000/svg" viewBox="0 0 32 32"><title>25-File</title><g id="_25-File" data-name="25-File"><circle cx="16" cy="16" r="15" style="fill:#c1c5c8"/><path d="M24,12H21a2.006,2.006,0,0,1-2-2V7Z" style="fill:#f2f2f2"/><path d="M19,7v3a2.006,2.006,0,0,0,2,2h3v9a2.006,2.006,0,0,1-2,2H12a2.006,2.006,0,0,1-2-2V9a2.006,2.006,0,0,1,2-2Z" style="fill:#f2f2f2"/><path d="M16,0A16,16,0,1,0,32,16,16.019,16.019,0,0,0,16,0Zm0,30A14,14,0,1,1,30,16,14.015,14.015,0,0,1,16,30Z" style="fill:#6f7a7b"/><path d="M24.707,11.293l-5-5A1.009,1.009,0,0,0,19,6H12A3,3,0,0,0,9,9v2a1,1,0,0,0,2,0V9a1,1,0,0,1,1-1h6v2a3,3,0,0,0,3,3h2v8a1,1,0,0,1-1,1H15a1,1,0,0,0,0,2h7a3,3,0,0,0,3-3V12a1.009,1.009,0,0,0-.293-.707ZM20,10V9.414L21.586,11H21A1,1,0,0,1,20,10Z" style="fill:#6f7a7b"/><path d="M13.707,17.293l-3-3a1,1,0,0,0-1.414,0l-3,3a1,1,0,0,0,1.414,1.414L9,17.414V24a1,1,0,0,0,2,0V17.414l1.293,1.293a1,1,0,0,0,1.414-1.414Z" style="fill:#6f7a7b"/></g></svg>