<svg xmlns="http://www.w3.org/2000/svg" viewBox="0 0 32 32"><title>28-Camera</title><g id="_28-Camera" data-name="28-Camera"><circle cx="16" cy="16" r="15" style="fill:#f2f2f2"/><path d="M16,32A16,16,0,1,1,32,16,16.019,16.019,0,0,1,16,32ZM16,2A14,14,0,1,0,30,16,14.015,14.015,0,0,0,16,2Z" style="fill:#6f7a7b"/><circle cx="13.5" cy="16.5" r="2.5" style="fill:#f2f2f2"/><path d="M25,13v8a2.006,2.006,0,0,1-2,2H9a2.006,2.006,0,0,1-2-2V13a2.006,2.006,0,0,1,2-2h1l1-3h5l1,3h6A2.006,2.006,0,0,1,25,13Zm-9,3.5A2.5,2.5,0,1,0,13.5,19,2.5,2.5,0,0,0,16,16.5Z" style="fill:#c1c5c8"/><path d="M23,24H9a3,3,0,0,1-3-3V13a3,3,0,0,1,3-3h.279l.773-2.316A1,1,0,0,1,11,7h5a1,1,0,0,1,.948.684L17.721,10H23a3,3,0,0,1,3,3v8A3,3,0,0,1,23,24ZM9,12a1,1,0,0,0-1,1v8a1,1,0,0,0,1,1H23a1,1,0,0,0,1-1V13a1,1,0,0,0-1-1H17a1,1,0,0,1-.948-.684L15.279,9H11.721l-.773,2.316A1,1,0,0,1,10,12Z" style="fill:#6f7a7b"/><path d="M13.5,20A3.5,3.5,0,1,1,17,16.5,3.5,3.5,0,0,1,13.5,20Zm0-5A1.5,1.5,0,1,0,15,16.5,1.5,1.5,0,0,0,13.5,15Z" style="fill:#6f7a7b"/><path d="M21,16a1.355,1.355,0,0,1-.2-.02.636.636,0,0,1-.18-.06.782.782,0,0,1-.181-.09l-.149-.12-.12-.15a.757.757,0,0,1-.09-.18.636.636,0,0,1-.06-.18A1.355,1.355,0,0,1,20,15a1.047,1.047,0,0,1,.29-.71l.149-.12a.782.782,0,0,1,.181-.09.636.636,0,0,1,.18-.06,1.038,1.038,0,0,1,.91.27A1,1,0,0,1,21,16Z" style="fill:#6f7a7b"/></g></svg>