<svg xmlns="http://www.w3.org/2000/svg" viewBox="0 0 32 32"><title>3-Email</title><g id="_3-Email" data-name="3-Email"><circle cx="16" cy="16" r="15" style="fill:#c1c5c8"/><path d="M24.41,9.59A1.955,1.955,0,0,1,25,11V21l-4-4-3-3-.11-.18L24,10Z" style="fill:#f2f2f2"/><path d="M14.11,13.82,14,14l-3,3L7,21V11a1.974,1.974,0,0,1,.34-1.12L8,10Z" style="fill:#f2f2f2"/><path d="M16,15l1.89-1.18L18,14l3,3,4,4a2.006,2.006,0,0,1-2,2H9a2.006,2.006,0,0,1-2-2l4-4,3-3,.11-.18Z" style="fill:#f2f2f2"/><path d="M23,9a1.955,1.955,0,0,1,1.41.59L24,10l-6.11,3.82L16,15l-1.89-1.18L8,10l-.66-.12A2.005,2.005,0,0,1,9,9Z" style="fill:#c1c5c8"/><path d="M16,0A16,16,0,1,0,32,16,16.019,16.019,0,0,0,16,0Zm0,30A14,14,0,1,1,30,16,14.015,14.015,0,0,1,16,30Z" style="fill:#6f7a7b"/><path d="M25.126,8.892A2.944,2.944,0,0,0,23,8H9A3.006,3.006,0,0,0,6.515,9.314,2.968,2.968,0,0,0,6,11V21a3,3,0,0,0,3,3H23a3,3,0,0,0,3-3V11A2.928,2.928,0,0,0,25.126,8.892ZM16,13.821,9.887,10H22.113ZM23,22H9a1,1,0,0,1-1-1V11.18l4.558,2.848-2.265,2.265a1,1,0,1,0,1.414,1.414L14.3,15.116l1.172.732a1,1,0,0,0,1.06,0l1.172-.732,2.591,2.591a1,1,0,0,0,1.414-1.414l-2.265-2.265L24,11.18V21A1,1,0,0,1,23,22Z" style="fill:#6f7a7b"/></g></svg>