<svg xmlns="http://www.w3.org/2000/svg" viewBox="0 0 32 32"><title>30-Arrow down</title><g id="_30-Arrow_down" data-name="30-Arrow down"><circle cx="16" cy="16" r="15" style="fill:#f2f2f2"/><circle cx="16" cy="22" r="5" style="fill:#c1c5c8"/><path d="M16,0A16,16,0,1,0,32,16,16.019,16.019,0,0,0,16,0Zm0,30A14,14,0,1,1,30,16,14.015,14.015,0,0,1,16,30Z" style="fill:#6f7a7b"/><path d="M19.293,19.293,17,21.586V12a1,1,0,0,0-2,0v9.586l-2.293-2.293a1,1,0,0,0-1.414,1.414l4,4a.99.99,0,0,0,.326.217.986.986,0,0,0,.764,0,.99.99,0,0,0,.326-.217l4-4a1,1,0,0,0-1.414-1.414Z" style="fill:#6f7a7b"/><path d="M16,9a1.2,1.2,0,0,0,.189-.02.609.609,0,0,0,.191-.06.568.568,0,0,0,.17-.09,1.035,1.035,0,0,0,.15-.12.911.911,0,0,0,.22-.33.974.974,0,0,0-.22-1.09.628.628,0,0,0-.15-.12.568.568,0,0,0-.17-.09.609.609,0,0,0-.191-.06,1,1,0,0,0-.9.27l-.12.15a.757.757,0,0,0-.09.18.636.636,0,0,0-.06.18A1.5,1.5,0,0,0,15,8a.99.99,0,0,0,1,1Z" style="fill:#6f7a7b"/></g></svg>