<svg xmlns="http://www.w3.org/2000/svg" viewBox="0 0 32 32"><title>36-Arrow Left</title><g id="_36-Arrow_Left" data-name="36-Arrow Left"><circle cx="16" cy="16" r="15" style="fill:#f2f2f2"/><circle cx="10" cy="16" r="5" style="fill:#c1c5c8"/><path d="M16,0A16,16,0,1,0,32,16,16.019,16.019,0,0,0,16,0Zm0,30A14,14,0,1,1,30,16,14.015,14.015,0,0,1,16,30Z" style="fill:#6f7a7b"/><path d="M20,15H10.414l2.293-2.293a1,1,0,0,0-1.414-1.414l-4,4a.99.99,0,0,0-.217.326,1,1,0,0,0,0,.764.99.99,0,0,0,.217.326l4,4a1,1,0,0,0,1.414-1.414L10.414,17H20a1,1,0,0,0,0-2Z" style="fill:#6f7a7b"/><path d="M24.71,15.29a1.01,1.01,0,0,0-.91-.27.636.636,0,0,0-.18.06.782.782,0,0,0-.181.09,1.7,1.7,0,0,0-.149.12,1.032,1.032,0,0,0-.21.33,1,1,0,1,0,1.84,0A1.032,1.032,0,0,0,24.71,15.29Z" style="fill:#6f7a7b"/></g></svg>