<svg xmlns="http://www.w3.org/2000/svg" viewBox="0 0 32 32"><title>46-Area</title><g id="_46-Area" data-name="46-Area"><circle cx="16" cy="16" r="15" style="fill:#f2f2f2"/><circle cx="16" cy="16" r="7" style="fill:#c1c5c8"/><path d="M16,0A16,16,0,1,0,32,16,16.019,16.019,0,0,0,16,0Zm0,30A14,14,0,1,1,30,16,14.015,14.015,0,0,1,16,30Z" style="fill:#6f7a7b"/><path d="M13.707,10.707,15,9.414V12a1,1,0,0,0,2,0V9.414l1.293,1.293a1,1,0,0,0,1.414-1.414l-3-3a.99.99,0,0,0-.326-.217,1,1,0,0,0-.764,0,.99.99,0,0,0-.326.217l-3,3a1,1,0,0,0,1.414,1.414Z" style="fill:#6f7a7b"/><path d="M18.293,21.293,17,22.586V20a1,1,0,0,0-2,0v2.586l-1.293-1.293a1,1,0,0,0-1.414,1.414l3,3a1,1,0,0,0,1.416,0l3-3a1,1,0,0,0-1.414-1.414Z" style="fill:#6f7a7b"/><path d="M25.923,15.618a.99.99,0,0,0-.217-.326l-3-3a1,1,0,0,0-1.414,1.414L22.586,15H20a1,1,0,0,0,0,2h2.586l-1.293,1.293a1,1,0,1,0,1.414,1.414l3-3a.99.99,0,0,0,.217-.326A1,1,0,0,0,25.923,15.618Z" style="fill:#6f7a7b"/><path d="M9.414,17H12a1,1,0,0,0,0-2H9.414l1.293-1.293a1,1,0,0,0-1.414-1.414l-3,3a.99.99,0,0,0-.217.326,1,1,0,0,0,0,.764.99.99,0,0,0,.217.326l3,3a1,1,0,0,0,1.414-1.414Z" style="fill:#6f7a7b"/><path d="M15.8,15.02a.636.636,0,0,0-.18.06.782.782,0,0,0-.181.09l-.149.12a1.032,1.032,0,0,0-.21.33A.838.838,0,0,0,15,16a.951.951,0,0,0,.29.7A1,1,0,0,0,17,16a1.05,1.05,0,0,0-.29-.71A1.01,1.01,0,0,0,15.8,15.02Z" style="fill:#6f7a7b"/></g></svg>