<svg xmlns="http://www.w3.org/2000/svg" viewBox="0 0 32 32"><title>7-Email</title><g id="_7-Email" data-name="7-Email"><circle cx="16" cy="16" r="15" style="fill:#c1c5c8"/><path d="M24.41,9.59A1.955,1.955,0,0,1,25,11V21l-4-4-3-3-.11-.18L24,10Z" style="fill:#f2f2f2"/><path d="M14.11,13.82,14,14l-3,3L7,21V11a1.974,1.974,0,0,1,.34-1.12L8,10Z" style="fill:#f2f2f2"/><path d="M16,15l1.89-1.18L18,14l3,3,4,4a2.006,2.006,0,0,1-2,2H9a2.006,2.006,0,0,1-2-2l4-4,3-3,.11-.18Z" style="fill:#f2f2f2"/><path d="M23,9a1.955,1.955,0,0,1,1.41.59L24,10l-6.11,3.82L16,15l-1.89-1.18L8,10l-.66-.12A2.005,2.005,0,0,1,9,9Z" style="fill:#c1c5c8"/><path d="M16,0A16,16,0,1,0,32,16,16.019,16.019,0,0,0,16,0Zm0,30A14,14,0,1,1,30,16,14.015,14.015,0,0,1,16,30Z" style="fill:#6f7a7b"/><path d="M23,8H9a3,3,0,0,0-3,3V21a3,3,0,0,0,3,3h3a1,1,0,0,0,0-2H9a1,1,0,0,1-1-1V11.179l4.558,2.849-2.265,2.265a1,1,0,1,0,1.414,1.414L14.3,15.116l1.172.732a1,1,0,0,0,1.06,0L24,11.179V13a1,1,0,0,0,2,0V11A3,3,0,0,0,23,8Zm-7,5.821L9.887,10H22.113Z" style="fill:#6f7a7b"/><path d="M24.293,20.293,23,21.586V17a1,1,0,0,0-2,0v4.586l-1.293-1.293a1,1,0,0,0-1.414,1.414l3,3a1,1,0,0,0,.325.216.986.986,0,0,0,.764,0,1,1,0,0,0,.325-.216l3-3a1,1,0,0,0-1.414-1.414Z" style="fill:#6f7a7b"/></g></svg>