<svg xmlns="http://www.w3.org/2000/svg" viewBox="0 0 32 32"><title>9-User</title><g id="_9-User" data-name="9-User"><circle cx="16" cy="16" r="15" style="fill:#c1c5c8"/><path d="M22,22H10c0-2.76,2.69-5,6-5S22,19.24,22,22Z" style="fill:#f2f2f2"/><ellipse cx="16" cy="12.5" rx="4" ry="4.5" style="fill:#f2f2f2"/><path d="M16,0A16,16,0,1,0,32,16,16.019,16.019,0,0,0,16,0Zm0,30A14,14,0,1,1,30,16,14.015,14.015,0,0,1,16,30Z" style="fill:#6f7a7b"/><path d="M21,12.5A5.274,5.274,0,0,0,16,7a5.274,5.274,0,0,0-5,5.5,5.722,5.722,0,0,0,1.764,4.185A5.966,5.966,0,0,0,9,22a1,1,0,0,0,2,0c0-2.206,2.243-4,5-4A5.274,5.274,0,0,0,21,12.5Zm-8,0A3.283,3.283,0,0,1,16,9a3.283,3.283,0,0,1,3,3.5A3.283,3.283,0,0,1,16,16,3.283,3.283,0,0,1,13,12.5Z" style="fill:#6f7a7b"/><path d="M25.707,17.293a1,1,0,0,0-1.414,0L19,22.586l-1.293-1.293a1,1,0,0,0-1.414,1.414l2,2a1,1,0,0,0,1.414,0l6-6A1,1,0,0,0,25.707,17.293Z" style="fill:#6f7a7b"/></g></svg>