<svg xmlns="http://www.w3.org/2000/svg" viewBox="0 0 32 32"><defs><style>.cls-1{fill:#9f85ec;}.cls-2{fill:#38004d;}</style></defs><title>Album Video</title><g id="Album_Video" data-name="Album Video"><path class="cls-1" d="M12,23a1,1,0,0,1-1-1V10a1,1,0,0,1,1.51-.86l10,6a1,1,0,0,1,0,1.72C11.6,23.41,12.39,23,12,23Zm1-11.23v8.46L20.06,16Z"/><path class="cls-2" d="M29,3H3A3,3,0,0,0,0,6V26a3,3,0,0,0,3,3H5a1,1,0,0,0,1-1V5H26V27H9a1,1,0,0,0,0,2H29a3,3,0,0,0,3-3V6A3,3,0,0,0,29,3ZM4,27H3a1,1,0,0,1-1-1V6A1,1,0,0,1,3,5H4Zm26-1a1,1,0,0,1-1,1H28V5h1a1,1,0,0,1,1,1Z"/></g></svg>