<svg xmlns="http://www.w3.org/2000/svg" viewBox="0 0 32 32"><defs><style>.cls-1{fill:#38004d;}.cls-2{fill:#9f85ec;}</style></defs><title>Attention</title><g id="Attention"><path class="cls-1" d="M11.88,30.29,9.29,27.71a1,1,0,0,1,1.42-1.42l2.58,2.59a3.84,3.84,0,0,0,5.42,0L28.88,18.71a3.84,3.84,0,0,0,0-5.42L18.71,3.12a3.84,3.84,0,0,0-5.42,0L3.12,13.29a3.84,3.84,0,0,0,0,5.42l4.59,4.58a1,1,0,1,1-1.42,1.42L1.71,20.12a5.83,5.83,0,0,1,0-8.24L11.88,1.71a5.83,5.83,0,0,1,8.24,0L30.29,11.88a5.83,5.83,0,0,1,0,8.24L20.12,30.29A5.83,5.83,0,0,1,11.88,30.29Z"/><path class="cls-2" d="M16,19a3,3,0,0,1-3-3V8a3,3,0,0,1,6,0v8A3,3,0,0,1,16,19ZM16,7a1,1,0,0,0-1,1v8a1,1,0,0,0,2,0V8A1,1,0,0,0,16,7Z"/><path class="cls-2" d="M16,27a3,3,0,1,1,3-3A3,3,0,0,1,16,27Zm0-4a1,1,0,1,0,1,1A1,1,0,0,0,16,23Z"/></g></svg>