<svg xmlns="http://www.w3.org/2000/svg" viewBox="0 0 32 32"><defs><style>.cls-1{fill:#38004d;}.cls-2{fill:#9f85ec;}</style></defs><title>Battery</title><g id="Battery"><path class="cls-1" d="M26.5,24H9a1,1,0,0,1,0-2H26.5a.5.5,0,0,0,.5-.5V19a1,1,0,0,1,1-1h1.5a.5.5,0,0,0,.5-.5v-3a.5.5,0,0,0-.5-.5H28a1,1,0,0,1-1-1,21.92,21.92,0,0,1,0-2.68,1.45,1.45,0,0,0-.61-.32H2.5a.5.5,0,0,0-.5.5v11a.5.5,0,0,0,.5.5H5a1,1,0,0,1,0,2H2.5A2.5,2.5,0,0,1,0,21.5v-11A2.5,2.5,0,0,1,2.5,8h24c1.23,0,2.92,1.36,2.5,2.7V12h.5A2.5,2.5,0,0,1,32,14.5v3A2.5,2.5,0,0,1,29.5,20H29v1.5A2.5,2.5,0,0,1,26.5,24Zm.66-14Z"/><path class="cls-2" d="M21,12H5a1,1,0,0,0-1,1v6a1,1,0,0,0,1,1H21a1,1,0,0,0,1-1V13A1,1,0,0,0,21,12ZM6,14H8v4H6Zm4,0h2v4H10Zm4,0h2v4H14Zm6,4H18V14h2Z"/></g></svg>