<svg xmlns="http://www.w3.org/2000/svg" viewBox="0 0 32 32"><defs><style>.cls-1{fill:#38004d;}.cls-2{fill:#9f85ec;}</style></defs><title>Bubble Text</title><g id="Bubble_Text" data-name="Bubble Text"><path class="cls-1" d="M15.29,29.71l-3.41-3.42a1.05,1.05,0,0,0-.71-.29H9a1,1,0,0,1,0-2h2.17a3,3,0,0,1,2.12.88L16,27.59l2.71-2.71A3,3,0,0,1,20.83,24H29a1,1,0,0,0,1-1V5a1,1,0,0,0-1-1H3A1,1,0,0,0,2,5V23a1,1,0,0,0,1,1H5a1,1,0,0,1,0,2H3a3,3,0,0,1-3-3V5A3,3,0,0,1,3,2H29a3,3,0,0,1,3,3V23a3,3,0,0,1-3,3H20.83a1.05,1.05,0,0,0-.71.29l-3.41,3.42A1,1,0,0,1,15.29,29.71Z"/><path class="cls-2" d="M26,9H6A1,1,0,0,1,6,7H26a1,1,0,0,1,0,2Z"/><path class="cls-2" d="M26,15H6a1,1,0,0,1,0-2H26a1,1,0,0,1,0,2Z"/><path class="cls-2" d="M26,21H6a1,1,0,0,1,0-2H26a1,1,0,0,1,0,2Z"/></g></svg>