<svg xmlns="http://www.w3.org/2000/svg" viewBox="0 0 32 32"><defs><style>.cls-1{fill:#38004d;}.cls-2{fill:#9f85ec;}</style></defs><title>Camera</title><g id="Camera"><path class="cls-1" d="M29,7H25.44a1,1,0,0,1-1-.68L23.4,3.05a3,3,0,0,0-2.84-2H11.44A3,3,0,0,0,8.6,3.05L7.51,6.32a1,1,0,0,1-1,.68H3a3,3,0,0,0-3,3v8a1,1,0,0,0,2,0V10A1,1,0,0,1,3,9H6.56A3,3,0,0,0,9.4,7l1.09-3.27A1,1,0,0,1,11.44,3h9.12a1,1,0,0,1,1,.68L22.6,7A3,3,0,0,0,25.44,9H29a1,1,0,0,1,1,1V25a1,1,0,0,1-1,1H25.21A11,11,0,1,0,6.79,26H3a1,1,0,0,1-1-1V22a1,1,0,0,0-2,0v3a3,3,0,0,0,3,3H8.47a10.94,10.94,0,0,0,15.06,0H29a3,3,0,0,0,3-3V10A3,3,0,0,0,29,7ZM7,20a9,9,0,1,1,9,9A9,9,0,0,1,7,20Z"/><path class="cls-2" d="M16,27a7,7,0,1,1,7-7A7,7,0,0,1,16,27Zm0-12a5,5,0,1,0,5,5A5,5,0,0,0,16,15Z"/><path class="cls-2" d="M16,27a7,7,0,1,1,7-7A7,7,0,0,1,16,27Zm0-12a5,5,0,1,0,5,5A5,5,0,0,0,16,15Z"/></g></svg>