<svg xmlns="http://www.w3.org/2000/svg" viewBox="0 0 32 32"><defs><style>.cls-1{fill:#38004d;}.cls-2{fill:#9f85ec;}</style></defs><title>Cancel</title><g id="Cancel"><path class="cls-1" d="M12.8,31.68a1,1,0,1,1,.4-2,14,14,0,1,0-3.73-1.33,1,1,0,1,1-.94,1.76,16,16,0,1,1,4.27,1.53Z"/><path class="cls-2" d="M11.05,24a3,3,0,0,1-2.12-5.12L11.76,16,8.93,13.17a3,3,0,0,1-.88-2.12,3,3,0,0,1,5.12-2.12L16,11.76l2.83-2.83a3,3,0,0,1,4.24,0h0a3,3,0,0,1,0,4.24L20.24,16l2.83,2.83a3,3,0,0,1-4.24,4.24L16,20.24l-2.83,2.83A3,3,0,0,1,11.05,24Zm0-13.9a1,1,0,0,0-.71,1.71l3.54,3.53a1,1,0,0,1,0,1.42l-3.54,3.53a1,1,0,0,0,0,1.42,1,1,0,0,0,1.42,0l3.53-3.54a1,1,0,0,1,1.42,0l3.53,3.54A1,1,0,0,0,22,21a1,1,0,0,0-.29-.71l-3.54-3.53a1,1,0,0,1,0-1.42l3.54-3.53a1,1,0,0,0,0-1.42h0a1,1,0,0,0-1.42,0l-3.53,3.54a1,1,0,0,1-1.42,0l-3.53-3.54A1,1,0,0,0,11.05,10.05Z"/></g></svg>