<svg xmlns="http://www.w3.org/2000/svg" viewBox="0 0 32 32"><defs><style>.cls-1{fill:#38004d;}.cls-2{fill:#9f85ec;}</style></defs><title>Center</title><g id="Center"><path class="cls-1" d="M16,32a5,5,0,0,1-5-5V23a1,1,0,0,1,2,0v4a3,3,0,0,0,6,0V19c0-.43-.11-.14,3.83-6.05.21-.32.17-.43.17-1.95a1,1,0,0,0-1-1H10a1,1,0,0,0-1,1v1.39c0,.44-.12.13,3.83,6.06a1,1,0,0,1-1.66,1.1L7.5,14.06C6.89,13.15,7,12.44,7,11a3,3,0,0,1,3-3H22a3,3,0,0,1,3,3c0,1.4.11,2.13-.5,3.06L21,19.3V27A5,5,0,0,1,16,32Z"/><path class="cls-2" d="M16,6a1,1,0,0,1-1-1V1a1,1,0,0,1,2,0V5A1,1,0,0,1,16,6Z"/><path class="cls-2" d="M16,23a1,1,0,0,1-1-1V20a1,1,0,0,1,2,0v2A1,1,0,0,1,16,23Z"/><path class="cls-2" d="M11,6a1,1,0,0,1-.95-.68l-1-3A1,1,0,1,1,11,1.68l1,3A1,1,0,0,1,11,6Z"/><path class="cls-2" d="M21,6a1,1,0,0,1-.95-1.32l1-3a1,1,0,1,1,1.9.64l-1,3A1,1,0,0,1,21,6Z"/></g></svg>