<svg xmlns="http://www.w3.org/2000/svg" viewBox="0 0 32 32"><defs><style>.cls-1{fill:#9f85ec;}.cls-2{fill:#38004d;}</style></defs><title>Check</title><g id="Check"><path class="cls-1" d="M12.88,22.29,8.79,18.21a3.14,3.14,0,0,1,0-4.42,3.2,3.2,0,0,1,4.42,0L15,15.59l5.79-5.8a3.2,3.2,0,0,1,4.42,0,3.14,3.14,0,0,1,0,4.42h0l-8.09,8.08A3,3,0,0,1,12.88,22.29ZM11,14.88a1.12,1.12,0,0,0-.79,1.91l4.08,4.09a1,1,0,0,0,1.42,0l8.08-8.09a1.11,1.11,0,0,0,0-1.58,1.13,1.13,0,0,0-1.58,0l-6.5,6.5a1,1,0,0,1-1.42,0l-2.5-2.5A1.11,1.11,0,0,0,11,14.88ZM24.5,13.5h0Z"/><path class="cls-2" d="M12.8,31.68a1,1,0,1,1,.4-2,14,14,0,1,0-3.73-1.33,1,1,0,1,1-.94,1.76,16,16,0,1,1,4.27,1.53Z"/></g></svg>