<svg xmlns="http://www.w3.org/2000/svg" viewBox="0 0 32 32"><defs><style>.cls-1{fill:#38004d;}.cls-2{fill:#9f85ec;}</style></defs><title>Direction</title><g id="Direction"><path class="cls-1" d="M10,15a1,1,0,0,1-.71-1.71L12.59,10,7.29,4.71a1,1,0,0,1,0-1.42L8.59,2H2V8.59l1.29-1.3a1,1,0,0,1,1.42,0l3,3a1,1,0,1,1-1.42,1.42L4,9.41l-2.29,2.3A1,1,0,0,1,0,11V1A1,1,0,0,1,1,0H11a1,1,0,0,1,.71,1.71L9.41,4l5.3,5.29a1,1,0,0,1,0,1.42l-4,4A1,1,0,0,1,10,15Z"/><path class="cls-1" d="M21.29,14.71l-4-4a1,1,0,0,1,0-1.42L22.59,4l-2.3-2.29A1,1,0,0,1,21,0H31a1,1,0,0,1,1,1V11a1,1,0,0,1-1.71.71L28,9.41l-5.29,5.3A1,1,0,0,1,21.29,14.71ZM19.41,10,22,12.59l5.29-5.3a1,1,0,0,1,1.42,0L30,8.59V2H23.41l1.3,1.29a1,1,0,0,1,0,1.42Z"/><path class="cls-1" d="M31,32H21a1,1,0,0,1-.71-1.71L22.59,28l-5.3-5.29a1,1,0,0,1,0-1.42l4-4a1,1,0,0,1,1.42,0L28,22.59l2.29-2.3A1,1,0,0,1,32,21V31A1,1,0,0,1,31,32Zm-7.59-2H30V23.41l-1.29,1.3a1,1,0,0,1-1.42,0L22,19.41,19.41,22l5.3,5.29a1,1,0,0,1,0,1.42Z"/><path class="cls-2" d="M11,32H1a1,1,0,0,1-1-1V21a1,1,0,0,1,1.71-.71L4,22.59l5.29-5.3a1,1,0,0,1,1.42,0l4,4a1,1,0,0,1,0,1.42L9.41,28l2.3,2.29A1,1,0,0,1,11,32ZM2,30H8.59l-1.3-1.29a1,1,0,0,1,0-1.42L12.59,22,10,19.41l-5.29,5.3a1,1,0,0,1-1.42,0L2,23.41Z"/></g></svg>