<svg xmlns="http://www.w3.org/2000/svg" viewBox="0 0 32 32"><defs><style>.cls-1{fill:#38004d;}.cls-2{fill:#9f85ec;}</style></defs><title>Dislike</title><g id="Dislike"><path class="cls-1" d="M14.66,30.55c-.09-.17,0,.39-1.38-6.75A7,7,0,0,0,7,20a1,1,0,0,1-1-1V4A1,1,0,0,1,7,3H9.76c3.56,0,4.4-2,8.41-2H20a1,1,0,0,1,0,2H18.17c-3.51,0-4.29,2-8.41,2H8V18.05a9.06,9.06,0,0,1,7.13,5c.09.17,0-.37,1.37,6.73A.62.62,0,0,0,17,30a3,3,0,0,0,3-3V21a3,3,0,0,1,3-3h6.12A.87.87,0,0,0,30,17L28.24,3.87a1,1,0,0,0-1-.87H24a1,1,0,0,1,0-2h3.25a3,3,0,0,1,3,2.6L32,16.74A2.88,2.88,0,0,1,29.12,20H23a1,1,0,0,0-1,1v6C22,31.63,16.15,33.54,14.66,30.55Z"/><path class="cls-2" d="M6,22H2a2,2,0,0,1-2-2V2A2,2,0,0,1,2,0H6A2,2,0,0,1,8,2V20A2,2,0,0,1,6,22ZM2,2V20H6V2Z"/></g></svg>