<svg xmlns="http://www.w3.org/2000/svg" viewBox="0 0 32 32"><defs><style>.cls-1{fill:#38004d;}.cls-2{fill:#9f85ec;}</style></defs><title>Document</title><g id="Document"><path class="cls-1" d="M28,10a1,1,0,0,0-1,1V29a1,1,0,0,1-1,1H6a1,1,0,0,1-1-1V3A1,1,0,0,1,6,2H21V7a1,1,0,0,0,1,1h6a1,1,0,0,0,.71-1.71l-6-6A1.09,1.09,0,0,0,22.06,0C21.76,0,21.25,0,6,0A3,3,0,0,0,3,3V29a3,3,0,0,0,3,3H26a3,3,0,0,0,3-3V11A1,1,0,0,0,28,10ZM23,6V3.41L25.59,6Z"/><path class="cls-2" d="M23,14H14a1,1,0,0,1,0-2h9a1,1,0,0,1,0,2Z"/><path class="cls-2" d="M23,18H9a1,1,0,0,1,0-2H23a1,1,0,0,1,0,2Z"/><path class="cls-2" d="M23,22H9a1,1,0,0,1,0-2H23a1,1,0,0,1,0,2Z"/><path class="cls-2" d="M18,26H9a1,1,0,0,1,0-2h9a1,1,0,0,1,0,2Z"/></g></svg>