<svg xmlns="http://www.w3.org/2000/svg" viewBox="0 0 32 32"><defs><style>.cls-1{fill:#9f85ec;}.cls-2{fill:#38004d;}</style></defs><title>Files</title><g id="Files"><path class="cls-1" d="M10,24H6a3,3,0,0,1-3-3V3A3,3,0,0,1,6,0H20a3,3,0,0,1,3,3V9a1,1,0,0,1-2,0V3a1,1,0,0,0-1-1H6A1,1,0,0,0,5,3V21a1,1,0,0,0,1,1h4a1,1,0,0,1,0,2Z"/><path class="cls-2" d="M28,18a1,1,0,0,0-1,1V29a1,1,0,0,1-1,1H12a1,1,0,0,1-1-1V11a1,1,0,0,1,1-1h9v5a1,1,0,0,0,1,1c6.44,0,6.32.12,6.73-.32a1,1,0,0,0,0-1.39l-6-6C22.28,7.88,22.67,8,12,8a3,3,0,0,0-3,3V29a3,3,0,0,0,3,3H26a3,3,0,0,0,3-3V19A1,1,0,0,0,28,18Zm-5-4V11.41L25.59,14Z"/></g></svg>