<svg xmlns="http://www.w3.org/2000/svg" viewBox="0 0 32 32"><defs><style>.cls-1{fill:#9f85ec;}.cls-2{fill:#38004d;}</style></defs><title>Galery</title><g id="Galery"><path class="cls-1" d="M31.74,22.33l-9-10a1,1,0,0,0-1.48,0l-7.65,8.5-2.84-3.46a1,1,0,0,0-1.54,0L.76,27.72A1,1,0,0,0,2.3,29l7.7-9.4,8.23,10.05A1,1,0,0,0,19,30a1,1,0,0,0,.77-1.63l-4.88-6L22,14.5l8.26,9.17A1,1,0,0,0,31,24,1,1,0,0,0,31.74,22.33Z"/><path class="cls-1" d="M9,13a3,3,0,1,1,3-3A3,3,0,0,1,9,13ZM9,9a1,1,0,1,0,1,1A1,1,0,0,0,9,9Z"/><path class="cls-2" d="M29,30H3a3,3,0,0,1-3-3V5A3,3,0,0,1,3,2H21a1,1,0,0,1,0,2H3A1,1,0,0,0,2,5V27a1,1,0,0,0,1,1H29a1,1,0,0,0,1-1V5a1,1,0,0,0-1-1H25a1,1,0,0,1,0-2h4a3,3,0,0,1,3,3V27A3,3,0,0,1,29,30Z"/></g></svg>