<svg xmlns="http://www.w3.org/2000/svg" viewBox="0 0 32 32"><defs><style>.cls-1{fill:#9f85ec;}.cls-2{fill:#38004d;}</style></defs><title>GPS</title><g id="GPS"><path class="cls-1" d="M0,8A8,8,0,1,1,15.86,9.49a1,1,0,1,1-2-.38A6,6,0,1,0,9.11,13.9a1,1,0,0,1,.38,2A8,8,0,0,1,0,8Z"/><path class="cls-2" d="M13,31.28l-2.62-9a1,1,0,1,1,1.91-.56L14.17,28l3.91-9.38a1,1,0,0,1,.54-.54L28,14.17,8.47,8.47l2.7,9.25A1,1,0,0,1,10.49,19a1,1,0,0,1-1.24-.68L6,7.28A1,1,0,0,1,7.28,6l24,7a1,1,0,0,1,.1,1.88L19.76,19.76,14.92,31.38A1,1,0,0,1,13,31.28Z"/></g></svg>