<svg xmlns="http://www.w3.org/2000/svg" viewBox="0 0 32 32"><defs><style>.cls-1{fill:#9f85ec;}.cls-2{fill:#38004d;}</style></defs><title>Home</title><g id="Home"><path class="cls-1" d="M20,31H12a1,1,0,0,1-1-1V18a3,3,0,0,1,3-3h4a3,3,0,0,1,3,3V30A1,1,0,0,1,20,31Zm-7-2h6V18a1,1,0,0,0-1-1H14a1,1,0,0,0-1,1Z"/><path class="cls-2" d="M25,31H7a3,3,0,0,1-3-3V16H1a1,1,0,0,1-.66-1.76l15-13a1,1,0,0,1,1.32,0l15,13A1,1,0,0,1,31,16H27a1,1,0,0,1,0-2h1.32L16,3.32,3.68,14H5a1,1,0,0,1,1,1V28a1,1,0,0,0,1,1H25a1,1,0,0,0,1-1V19a1,1,0,0,1,2,0v9A3,3,0,0,1,25,31Z"/></g></svg>