<svg xmlns="http://www.w3.org/2000/svg" viewBox="0 0 32 32"><defs><style>.cls-1{fill:#38004d;}.cls-2{fill:#9f85ec;}</style></defs><title>Invisible</title><g id="Invisible"><path class="cls-1" d="M.17,16.56a1,1,0,0,1,0-1.12A19.15,19.15,0,0,1,6.5,9.53a1,1,0,0,1,1.37.37,1,1,0,0,1-.37,1.36A17.12,17.12,0,0,0,2.22,16a17.07,17.07,0,0,0,27.56,0,17,17,0,0,0-18.5-6.34,1,1,0,0,1-.56-1.92,19.07,19.07,0,0,1,21.11,7.7,1,1,0,0,1,0,1.12A19.07,19.07,0,0,1,.17,16.56Z"/><path class="cls-2" d="M25.71,6.29a1,1,0,0,0-1.42,0l-5.54,5.54a5,5,0,0,0-6.92,6.92L6.29,24.29A1,1,0,0,0,7,26a1,1,0,0,0,.71-.29l5.54-5.54a5,5,0,0,0,6.92-6.92l5.54-5.54A1,1,0,0,0,25.71,6.29Zm-8.42,7-4,4A3,3,0,0,1,17.29,13.3Zm-2.58,5.4,4-4A3,3,0,0,1,14.71,18.7Z"/></g></svg>