<svg xmlns="http://www.w3.org/2000/svg" viewBox="0 0 32 32"><defs><style>.cls-1{fill:#9f85ec;}.cls-2{fill:#38004d;}</style></defs><title>Light</title><g id="Light"><path class="cls-1" d="M16,5a1,1,0,0,1-1-1V1a1,1,0,0,1,2,0V4A1,1,0,0,1,16,5Z"/><path class="cls-1" d="M7.51,8.51C7,8.51,7,8.36,4.69,6.1A1,1,0,1,1,6.1,4.69L8.22,6.81A1,1,0,0,1,7.51,8.51Z"/><path class="cls-1" d="M4,17H1a1,1,0,0,1,0-2H4a1,1,0,0,1,0,2Z"/><path class="cls-1" d="M5.39,27.61a1,1,0,0,1-.7-1.71l2.12-2.12a1,1,0,1,1,1.41,1.41C5.92,27.5,5.94,27.61,5.39,27.61Z"/><path class="cls-1" d="M26.61,27.61c-.55,0-.57-.16-2.83-2.42a1,1,0,1,1,1.41-1.41l2.12,2.12A1,1,0,0,1,26.61,27.61Z"/><path class="cls-1" d="M31,17H28a1,1,0,0,1,0-2h3a1,1,0,0,1,0,2Z"/><path class="cls-1" d="M24.49,8.51a1,1,0,0,1-.71-1.7L25.9,4.69A1,1,0,0,1,27.31,6.1C25,8.4,25,8.51,24.49,8.51Z"/><path class="cls-2" d="M17,7.05a9,9,0,0,0-8.87,4.59,1,1,0,0,0,1.76,1,7,7,0,1,1,11.24,8.16A12,12,0,0,0,18.19,26H17V20h1a1,1,0,0,0,0-2H14a1,1,0,0,0,0,2h1v6H13.82a11.45,11.45,0,0,0-2.88-5.17A7,7,0,0,1,9,16a1,1,0,0,0-2,0,9,9,0,0,0,2.49,6.21A9.36,9.36,0,0,1,12,27.11V28a4,4,0,0,0,8,0v-.92a9.58,9.58,0,0,1,2.59-4.95A9,9,0,0,0,17,7.05ZM16,30a2,2,0,0,1-2-2h4A2,2,0,0,1,16,30Z"/></g></svg>