<svg xmlns="http://www.w3.org/2000/svg" viewBox="0 0 32 32"><defs><style>.cls-1{fill:#38004d;}.cls-2{fill:#9f85ec;}</style></defs><title>Like</title><g id="Like"><path class="cls-1" d="M27.25,31H24a1,1,0,0,1,0-2h3.25a1,1,0,0,0,1-.87L30,15a.88.88,0,0,0-.87-1H23a3,3,0,0,1-3-3V5a3,3,0,0,0-3-3,.62.62,0,0,0-.5.25C15.09,9.35,15.22,8.81,15.13,9A9.06,9.06,0,0,1,8,14V27H9.76c4.1,0,4.93,2,8.41,2H20a1,1,0,0,1,0,2H18.17c-4,0-4.87-2-8.41-2H7a1,1,0,0,1-1-1V13a1,1,0,0,1,1-1,7,7,0,0,0,6.28-3.8c1.42-7.13,1.29-6.58,1.38-6.75C16.19-1.61,22,.45,22,5v6a1,1,0,0,0,1,1h6.12A2.87,2.87,0,0,1,32,15.25L30.22,28.4A3,3,0,0,1,27.25,31Z"/><path class="cls-2" d="M6,32H2a2,2,0,0,1-2-2V12a2,2,0,0,1,2-2H6a2,2,0,0,1,2,2V30A2,2,0,0,1,6,32ZM6,12H2V30H6Z"/></g></svg>