<svg xmlns="http://www.w3.org/2000/svg" viewBox="0 0 32 32"><defs><style>.cls-1{fill:#38004d;}.cls-2{fill:#9f85ec;}</style></defs><title>Logout</title><g id="Logout"><path class="cls-1" d="M20,26H15a1,1,0,0,1,0-2h5a1,1,0,0,0,1-1V17a1,1,0,0,1,2,0v6A3,3,0,0,1,20,26Z"/><path class="cls-1" d="M20,0C1.7,0,2.89,0,2.57.1A.93.93,0,0,0,2.1.57C2,.89,2-.7,2,25a1,1,0,0,0,.49.86C13.07,32.21,12.47,32,13.43,32A2.57,2.57,0,0,0,16,29.43V8.9a2.59,2.59,0,0,0-1.27-2.22L6.7,2H20a1,1,0,0,1,1,1V9a1,1,0,0,0,2,0V3A3,3,0,0,0,20,0ZM14,8.9V29.43a.59.59,0,0,1-.86.49L4,24.43V2.74l9.72,5.67A.58.58,0,0,1,14,8.9Z"/><path class="cls-2" d="M29,14H19a1,1,0,0,1,0-2h7.59l-1.3-1.29a1,1,0,0,1,1.42-1.42l3,3A1,1,0,0,1,29,14Z"/><path class="cls-2" d="M26,17a1,1,0,0,1-.71-1.71l3-3a1,1,0,0,1,1.42,1.42l-3,3A1,1,0,0,1,26,17Z"/></g></svg>