<svg xmlns="http://www.w3.org/2000/svg" viewBox="0 0 32 32"><defs><style>.cls-1{fill:#9f85ec;}.cls-2{fill:#38004d;}</style></defs><title>Map</title><g id="Map"><path class="cls-1" d="M29,22H23V19a1,1,0,0,0-2,0v3.46L18.7,24H7a1,1,0,0,0-1,1v1H2a1,1,0,0,0,0,2H6v3a1,1,0,0,0,2,0V26H19c.45,0,.45-.1,3.3-2H29a1,1,0,0,0,0-2Z"/><path class="cls-2" d="M31.6,28.51l-1.34-8a3,3,0,0,0-3-2.51H21c2-3,4-6.59,4-9A9,9,0,0,0,7,9c0,4.65,7.39,13.63,8.23,14.64a1,1,0,0,0,1.54,0c.3-.36,1.46-1.78,2.82-3.64h7.72a1,1,0,0,1,1,.84l1.34,8a1,1,0,0,1-1,1.16H3.36a1,1,0,0,1-1-1.16l1.34-8a1,1,0,0,1,1-.84H8a1,1,0,0,0,0-2H4.69a3,3,0,0,0-2.95,2.51l-1.34,8a3,3,0,0,0,3,3.49H28.64A3,3,0,0,0,31.6,28.51ZM16,21.41C13.51,18.28,9,12,9,9A7,7,0,0,1,23,9C23,12,18.49,18.28,16,21.41Z"/><path class="cls-1" d="M16,13a4,4,0,1,1,4-4A4,4,0,0,1,16,13Zm0-6a2,2,0,1,0,2,2A2,2,0,0,0,16,7Z"/></g></svg>