<svg xmlns="http://www.w3.org/2000/svg" viewBox="0 0 32 32"><defs><style>.cls-1{fill:#38004d;}.cls-2{fill:#9f85ec;}</style></defs><title>Mute</title><g id="Mute"><path class="cls-1" d="M17.41,2.19,6.68,10H3a3,3,0,0,0-3,3v6a3,3,0,0,0,3,3H7a1,1,0,0,0,1-1V11.51L17,5V27l-6.41-4.67a1,1,0,0,0-1.4.22A1,1,0,0,0,9.41,24c8.68,6.31,8.13,6,8.59,6a1,1,0,0,0,1-1V3A1,1,0,0,0,17.41,2.19ZM6,20H3a1,1,0,0,1-1-1V13a1,1,0,0,1,1-1H6Z"/><path class="cls-2" d="M28.41,16l3.3-3.29a1,1,0,0,0-1.42-1.42L27,14.59l-3.29-3.3a1,1,0,0,0-1.42,1.42L25.59,16l-3.3,3.29a1,1,0,0,0,1.42,1.42L27,17.41l3.29,3.3a1,1,0,0,0,1.42-1.42Z"/></g></svg>