<svg xmlns="http://www.w3.org/2000/svg" viewBox="0 0 32 32"><defs><style>.cls-1{fill:#38004d;}.cls-2{fill:#9f85ec;}</style></defs><title>Protection</title><g id="Protection"><path class="cls-1" d="M15.64,31.93A21.41,21.41,0,0,1,2,12.07V11a1,1,0,0,1,2,0v1.07A19.4,19.4,0,0,0,16,29.92,19.4,19.4,0,0,0,28,12.07V7.64L16,2.1,3.42,7.91a1,1,0,0,1-.84-1.82l13-6a1,1,0,0,1,.84,0l13,6A1,1,0,0,1,30,7v5.07A21.41,21.41,0,0,1,16.36,31.93,1,1,0,0,1,15.64,31.93Z"/><path class="cls-2" d="M15.62,27.64A15.51,15.51,0,0,1,6,13.26V10a1,1,0,0,1,.55-.89l9-4.6a1,1,0,0,1,.9,0l9,4.6A1,1,0,0,1,26,10v3.26a15.51,15.51,0,0,1-9.62,14.38A1,1,0,0,1,15.62,27.64ZM8,10.61v2.65a13.5,13.5,0,0,0,8,12.36,13.5,13.5,0,0,0,8-12.36V10.61L16,6.53Z"/></g></svg>