<svg xmlns="http://www.w3.org/2000/svg" viewBox="0 0 32 32"><defs><style>.cls-1{fill:#38004d;}.cls-2{fill:#9f85ec;}</style></defs><title>Setting</title><g id="Setting"><path class="cls-1" d="M18,32H14a2,2,0,0,1-2-2V27.61a1,1,0,0,1,2,0V30h4V28.35a2,2,0,0,1,1.41-1.9A12,12,0,0,0,21,25.8a2,2,0,0,1,2.34.35l1.17,1.16,2.82-2.82-1.16-1.17A2,2,0,0,1,25.8,21a12,12,0,0,0,.65-1.57A2,2,0,0,1,28.35,18H30V14H28.35a2,2,0,0,1-1.9-1.41A12,12,0,0,0,25.8,11a2,2,0,0,1,.35-2.34l1.16-1.17L24.49,4.69,23.32,5.85A2,2,0,0,1,21,6.2a12,12,0,0,0-1.57-.65A2,2,0,0,1,18,3.65V2H14V3.65a2,2,0,0,1-1.41,1.9A12,12,0,0,0,11,6.2a2,2,0,0,1-2.34-.35L7.51,4.69,4.69,7.51,5.85,8.68A2,2,0,0,1,6.2,11a12,12,0,0,0-.65,1.57A2,2,0,0,1,3.65,14H2v4H3.65a2,2,0,0,1,1.9,1.41A12,12,0,0,0,6.2,21a2,2,0,0,1-.35,2.34L4.69,24.49l2.82,2.82.78-.77a1,1,0,0,1,1.42,0,1,1,0,0,1,0,1.41l-.78.78a2,2,0,0,1-2.83,0L3.27,25.9a2,2,0,0,1,0-2.83l1.17-1.16A13.18,13.18,0,0,1,3.65,20L2,20a2,2,0,0,1-2-2V14a2,2,0,0,1,2-2H3.65a12.55,12.55,0,0,1,.77-1.88L3.27,8.93a2,2,0,0,1,0-2.83L6.1,3.27a2,2,0,0,1,2.83,0l1.16,1.17A13.18,13.18,0,0,1,12,3.65L12,2a2,2,0,0,1,2-2h4a2,2,0,0,1,2,2V3.65a12.55,12.55,0,0,1,1.88.77l1.19-1.15a2,2,0,0,1,2.83,0L28.73,6.1a2,2,0,0,1,0,2.83l-1.17,1.16A13.18,13.18,0,0,1,28.35,12L30,12a2,2,0,0,1,2,2v4a2,2,0,0,1-2,2H28.35a12.55,12.55,0,0,1-.77,1.88l1.15,1.19a2,2,0,0,1,0,2.83L25.9,28.73a2,2,0,0,1-2.83,0l-1.16-1.17a13.18,13.18,0,0,1-1.88.79L20,30A2,2,0,0,1,18,32Z"/><path class="cls-2" d="M16,24a8,8,0,1,1,8-8A8,8,0,0,1,16,24Zm0-14a6,6,0,1,0,6,6A6,6,0,0,0,16,10Z"/></g></svg>