<svg xmlns="http://www.w3.org/2000/svg" viewBox="0 0 32 32"><defs><style>.cls-1{fill:#38004d;}.cls-2{fill:#9f85ec;}</style></defs><title>Stop</title><g id="Stop"><path class="cls-1" d="M12.8,31.68a1,1,0,1,1,.4-2,14,14,0,1,0-3.73-1.33,1,1,0,1,1-.94,1.76,16,16,0,1,1,4.27,1.53Z"/><path class="cls-2" d="M6.12,22.8A12,12,0,0,1,16,4a11.83,11.83,0,0,1,6.8,2.12,1,1,0,0,1,.14,1.53L7.65,22.94A1,1,0,0,1,6.12,22.8ZM16,6A10,10,0,0,0,7.13,20.62L20.62,7.13A9.92,9.92,0,0,0,16,6Z"/><path class="cls-2" d="M16,28a11.83,11.83,0,0,1-6.8-2.12,1,1,0,0,1-.14-1.53L24.35,9.06a1,1,0,0,1,1.53.14A12,12,0,0,1,16,28Zm-4.62-3.13A10,10,0,0,0,24.87,11.38Z"/></g></svg>