<svg xmlns="http://www.w3.org/2000/svg" viewBox="0 0 32 32"><defs><style>.cls-1{fill:#38004d;}.cls-2{fill:#9f85ec;}</style></defs><title>Trash</title><g id="Trash"><path class="cls-1" d="M27,4H21V3a3,3,0,0,0-3-3H14a3,3,0,0,0-3,3V4H5A2,2,0,0,0,3,6V8A2,2,0,0,0,4.06,9.76L5.84,29.27a3,3,0,0,0,3,2.73H23.17a3,3,0,0,0,3-2.73l1.47-16.16a1,1,0,0,0-2-.18L24.17,29.09a1,1,0,0,1-1,.91H8.83a1,1,0,0,1-1-.91L6.1,10H27a2,2,0,0,0,2-2V6A2,2,0,0,0,27,4ZM13,3a1,1,0,0,1,1-1h4a1,1,0,0,1,1,1V4H13ZM5,8V6H27V8Z"/><path class="cls-2" d="M11,27a1,1,0,0,1-1-.92l-1-12a1,1,0,1,1,2-.16l1,12A1,1,0,0,1,11,27Z"/><path class="cls-2" d="M21,27a1,1,0,0,1-1-1.08l1-12a1,1,0,1,1,2,.16l-1,12A1,1,0,0,1,21,27Z"/><path class="cls-2" d="M16,27a1,1,0,0,1-1-1V14a1,1,0,0,1,2,0V26A1,1,0,0,1,16,27Z"/></g></svg>