<svg xmlns="http://www.w3.org/2000/svg" viewBox="0 0 32 32"><defs><style>.cls-1{fill:#38004d;}.cls-2{fill:#9f85ec;}</style></defs><title>Unlock</title><g id="Unlock"><path class="cls-1" d="M24,12H14V8a2,2,0,0,1,4,0V9a1,1,0,0,0,1,1h4a1,1,0,0,0,1-1V8A8,8,0,0,0,8,8v4a3,3,0,0,0-3,3v7a1,1,0,0,0,2,0V15a1,1,0,0,1,1-1H24a1,1,0,0,1,1,1V29a1,1,0,0,1-1,1H8a1,1,0,0,1-1-1V26a1,1,0,0,0-2,0v3a3,3,0,0,0,3,3H24a3,3,0,0,0,3-3V15A3,3,0,0,0,24,12ZM10,8A6,6,0,0,1,22,8H20a4,4,0,0,0-8,0v4H10Z"/><path class="cls-2" d="M16,26a3,3,0,0,1-3-3V21a3,3,0,0,1,6,0v2A3,3,0,0,1,16,26Zm0-6a1,1,0,0,0-1,1v2a1,1,0,0,0,2,0V21A1,1,0,0,0,16,20Z"/></g></svg>