<svg xmlns="http://www.w3.org/2000/svg" viewBox="0 0 32 32"><defs><style>.cls-1{fill:#9f85ec;}.cls-2{fill:#38004d;}</style></defs><title>Upload</title><g id="Upload"><path class="cls-1" d="M19,24H13a1,1,0,0,1-1-1V12H8a1,1,0,0,1-.78-1.62l8-10a1,1,0,0,1,1.56,0l8,10A1,1,0,0,1,24,12H20V23A1,1,0,0,1,19,24Zm-5-2h4V11a1,1,0,0,1,1-1h2.92L16,2.6,10.08,10H13a1,1,0,0,1,1,1Z"/><path class="cls-2" d="M28,32H10a1,1,0,0,1,0-2H28a1,1,0,0,0,1-1V21H27v6a1,1,0,0,1-1,1H6a1,1,0,0,1-1-1V21H3v8a1,1,0,0,0,1,1H6a1,1,0,0,1,0,2H4a3,3,0,0,1-3-3V20a1,1,0,0,1,1-1H6a1,1,0,0,1,1,1v6H25V20a1,1,0,0,1,1-1h4a1,1,0,0,1,1,1v9A3,3,0,0,1,28,32Z"/></g></svg>