<svg xmlns="http://www.w3.org/2000/svg" viewBox="0 0 32 32"><defs><style>.cls-1{fill:#38004d;}.cls-2{fill:#9f85ec;}</style></defs><title>USB</title><g id="USB"><path class="cls-1" d="M13,7h2v3a1,1,0,0,0,2,0V7h2a1,1,0,0,0,.86-1.51l-3-5a1,1,0,0,0-1.72,0l-3,5A1,1,0,0,0,13,7Zm3-4.06L17.23,5H14.77Z"/><path class="cls-1" d="M25,8H21a1,1,0,0,0-1,1v4a1,1,0,0,0,1,1h1a2.46,2.46,0,0,1-2.11,2.43,5.79,5.79,0,0,0-2.89.88V14a1,1,0,0,0-2,0v7a7.26,7.26,0,0,0-2.84-1.17,3,3,0,0,1-2.05-2.08,3,3,0,1,0-2,.06,5,5,0,0,0,3.54,3.95l1.23.35A3,3,0,0,1,15,25a1,1,0,0,0,2,0V21a2.46,2.46,0,0,1,2.11-2.43l1.06-.16A4.47,4.47,0,0,0,24,14h1a1,1,0,0,0,1-1V9A1,1,0,0,0,25,8ZM9,14a1,1,0,1,1-1,1A1,1,0,0,1,9,14Zm15-2H22V10h2Z"/><path class="cls-2" d="M16,32a4,4,0,1,1,4-4A4,4,0,0,1,16,32Zm0-6a2,2,0,1,0,2,2A2,2,0,0,0,16,26Z"/></g></svg>