<svg xmlns="http://www.w3.org/2000/svg" viewBox="0 0 32 32"><defs><style>.cls-1{fill:#9f85ec;}.cls-2{fill:#38004d;}</style></defs><title>Web</title><g id="Web"><path class="cls-1" d="M29,26H25a1,1,0,0,1,0-2h4a1,1,0,0,0,1-1V3a1,1,0,0,0-1-1H9A1,1,0,0,0,8,3V7A1,1,0,0,1,6,7V3A3,3,0,0,1,9,0H29a3,3,0,0,1,3,3V23A3,3,0,0,1,29,26Z"/><path class="cls-2" d="M23,6H3A3,3,0,0,0,0,9v4a1,1,0,0,0,1,1H24V29a1,1,0,0,1-1,1H3a1,1,0,0,1-1-1V17a1,1,0,0,0-2,0V29a3,3,0,0,0,3,3H23a3,3,0,0,0,3-3V9A3,3,0,0,0,23,6ZM2,12V9A1,1,0,0,1,3,8H23a1,1,0,0,1,1,1v3Z"/><path class="cls-2" d="M5,9a1,1,0,1,0,1,1A1,1,0,0,0,5,9Z"/><path class="cls-2" d="M9,9a1,1,0,1,0,1,1A1,1,0,0,0,9,9Z"/><path class="cls-2" d="M13,9a1,1,0,1,0,1,1A1,1,0,0,0,13,9Z"/></g></svg>