<svg xmlns="http://www.w3.org/2000/svg" viewBox="0 0 32 32"><title>10-Video</title><g id="_10-Video" data-name="10-Video"><circle cx="16" cy="16" r="15" style="fill:#f2f2f2"/><circle cx="16" cy="16" r="15" style="fill:none;stroke:#6f7a7b;stroke-linecap:round;stroke-linejoin:round;stroke-width:2px"/><path d="M24,11V21l-4-3v1a3,3,0,0,1-3,3H11a3,3,0,0,1-3-3V13a3,3,0,0,1,3-3h6a3,3,0,0,1,3,3v1Z" style="fill:#c1c5c8"/><path d="M20,14V13a3,3,0,0,0-3-3H11a3,3,0,0,0-3,3v6a3,3,0,0,0,3,3h6a3,3,0,0,0,3-3V18l4,3V11Z" style="fill:none;stroke:#6f7a7b;stroke-linecap:round;stroke-linejoin:round;stroke-width:2px"/><line x1="16" y1="14" x2="16" y2="14" style="fill:none;stroke:#6f7a7b;stroke-linecap:round;stroke-linejoin:round;stroke-width:2px"/></g></svg>