<svg xmlns="http://www.w3.org/2000/svg" viewBox="0 0 32 32"><title>18-Flag</title><g id="_18-Flag" data-name="18-Flag"><circle cx="16" cy="16" r="15" style="fill:#f2f2f2"/><circle cx="16" cy="16" r="15" style="fill:none;stroke:#6f7a7b;stroke-linecap:round;stroke-linejoin:round;stroke-width:2px"/><path d="M23,8v9c-2.5,0-2.5,2-5,2s-2.5-2-5-2H11V8h2c2.5,0,2.5,2,5,2S20.5,8,23,8Z" style="fill:#c1c5c8"/><line x1="11" y1="17" x2="11" y2="24" style="fill:none;stroke:#6f7a7b;stroke-linecap:round;stroke-linejoin:round;stroke-width:2px"/><path d="M11,17h2c2.5,0,2.5,2,5,2s2.5-2,5-2V8c-2.5,0-2.5,2-5,2s-2.5-2-5-2H11Z" style="fill:none;stroke:#6f7a7b;stroke-linecap:round;stroke-linejoin:round;stroke-width:2px"/><line x1="19" y1="14" x2="19" y2="14" style="fill:none;stroke:#6f7a7b;stroke-linecap:round;stroke-linejoin:round;stroke-width:2px"/><line x1="15" y1="13" x2="15" y2="13" style="fill:none;stroke:#6f7a7b;stroke-linecap:round;stroke-linejoin:round;stroke-width:2px"/></g></svg>