<svg xmlns="http://www.w3.org/2000/svg" viewBox="0 0 32 32"><title>2-Placeholder</title><g id="_2-Placeholder" data-name="2-Placeholder"><circle cx="16" cy="16" r="15" style="fill:#f2f2f2"/><circle cx="16" cy="16" r="15" style="fill:none;stroke:#6f7a7b;stroke-linecap:round;stroke-linejoin:round;stroke-width:2px"/><circle cx="16" cy="14" r="3" style="fill:#f2f2f2"/><path d="M16,7a7,7,0,0,1,7,7c0,6-7,11-7,11S9,20,9,14A7,7,0,0,1,16,7Zm3,7a3,3,0,1,0-3,3A3,3,0,0,0,19,14Z" style="fill:#c1c5c8"/><path d="M23,14A7,7,0,0,0,9,14c0,6,7,11,7,11S23,20,23,14Z" style="fill:none;stroke:#6f7a7b;stroke-linecap:round;stroke-linejoin:round;stroke-width:2px"/><circle cx="16" cy="14" r="3" style="fill:none;stroke:#6f7a7b;stroke-linecap:round;stroke-linejoin:round;stroke-width:2px"/></g></svg>