<svg xmlns="http://www.w3.org/2000/svg" viewBox="0 0 32 32"><title>21-Placeholder</title><g id="_21-Placeholder" data-name="21-Placeholder"><circle cx="16" cy="16" r="15" style="fill:#c1c5c8"/><circle cx="16" cy="16" r="15" style="fill:none;stroke:#6f7a7b;stroke-linecap:round;stroke-linejoin:round;stroke-width:2px"/><circle cx="16" cy="13" r="3" style="fill:#c1c5c8"/><path d="M16,6a7,7,0,0,1,7,7c0,6-7,10-7,10S9,19,9,13A7,7,0,0,1,16,6Zm3,7a3,3,0,1,0-3,3A3,3,0,0,0,19,13Z" style="fill:#f2f2f2"/><circle cx="16" cy="13" r="3" style="fill:none;stroke:#6f7a7b;stroke-linecap:round;stroke-linejoin:round;stroke-width:2px"/><path d="M23,13A7,7,0,0,0,9,13c0,6,7,10,7,10S23,19,23,13Z" style="fill:none;stroke:#6f7a7b;stroke-linecap:round;stroke-linejoin:round;stroke-width:2px"/><path d="M22,24c0,1.657-2.686,3-6,3s-6-1.343-6-3" style="fill:none;stroke:#6f7a7b;stroke-linecap:round;stroke-linejoin:round;stroke-width:2px"/></g></svg>