<svg xmlns="http://www.w3.org/2000/svg" viewBox="0 0 32 32"><title>22-Video</title><g id="_22-Video" data-name="22-Video"><circle cx="16" cy="16" r="15" style="fill:#f2f2f2"/><circle cx="16" cy="16" r="15" style="fill:none;stroke:#6f7a7b;stroke-linecap:round;stroke-linejoin:round;stroke-width:2px"/><polygon points="20 16 13 19 13 13 20 16" style="fill:#f2f2f2"/><path d="M25,11V21a2.006,2.006,0,0,1-2,2,56.385,56.385,0,0,1-7,1,56.385,56.385,0,0,1-7-1,2.006,2.006,0,0,1-2-2V11A2.006,2.006,0,0,1,9,9a56.385,56.385,0,0,1,7-1,56.385,56.385,0,0,1,7,1A2.006,2.006,0,0,1,25,11ZM13,19l7-3-7-3Z" style="fill:#c1c5c8"/><path d="M25,21a2.006,2.006,0,0,1-2,2,56.385,56.385,0,0,1-7,1,56.385,56.385,0,0,1-7-1,2.006,2.006,0,0,1-2-2V11A2.006,2.006,0,0,1,9,9a56.385,56.385,0,0,1,7-1,56.385,56.385,0,0,1,7,1,2.006,2.006,0,0,1,2,2Z" style="fill:none;stroke:#6f7a7b;stroke-linecap:round;stroke-linejoin:round;stroke-width:2px"/><polygon points="13 19 13 13 20 16 13 19" style="fill:none;stroke:#6f7a7b;stroke-linecap:round;stroke-linejoin:round;stroke-width:2px"/></g></svg>