<svg xmlns="http://www.w3.org/2000/svg" viewBox="0 0 32 32"><title>24-File</title><g id="_24-File" data-name="24-File"><circle cx="16" cy="16" r="15" style="fill:#f2f2f2"/><path d="M23,13H20a2.006,2.006,0,0,1-2-2V8Z" style="fill:#f2f2f2"/><path d="M18,8v3a2.006,2.006,0,0,0,2,2h3v9a2.006,2.006,0,0,1-2,2H11a2.006,2.006,0,0,1-2-2V10a2.006,2.006,0,0,1,2-2Z" style="fill:#c1c5c8"/><path d="M18,8H11a2.006,2.006,0,0,0-2,2V22a2.006,2.006,0,0,0,2,2H21a2.006,2.006,0,0,0,2-2V13Z" style="fill:none;stroke:#6f7a7b;stroke-linecap:round;stroke-linejoin:round;stroke-width:2px"/><path d="M18,8v3a2.006,2.006,0,0,0,2,2h3" style="fill:none;stroke:#6f7a7b;stroke-linecap:round;stroke-linejoin:round;stroke-width:2px"/><circle cx="16" cy="16" r="15" style="fill:none;stroke:#6f7a7b;stroke-linecap:round;stroke-linejoin:round;stroke-width:2px"/></g></svg>