<svg xmlns="http://www.w3.org/2000/svg" viewBox="0 0 32 32"><title>34-File</title><g id="_34-File" data-name="34-File"><circle cx="16" cy="16" r="15" style="fill:#f2f2f2"/><path d="M24,13H21a2.006,2.006,0,0,1-2-2V8Z" style="fill:#f2f2f2"/><path d="M19,8v3a2.006,2.006,0,0,0,2,2h3v9a2.006,2.006,0,0,1-2,2H12a2.006,2.006,0,0,1-2-2V10a2.006,2.006,0,0,1,2-2Z" style="fill:#c1c5c8"/><circle cx="16" cy="16" r="15" style="fill:none;stroke:#6f7a7b;stroke-linecap:round;stroke-linejoin:round;stroke-width:2px"/><path d="M15,24h7a2,2,0,0,0,2-2V13L19,8H12a2,2,0,0,0-2,2v3" style="fill:none;stroke:#6f7a7b;stroke-linecap:round;stroke-linejoin:round;stroke-width:2px"/><path d="M19,8v3a2,2,0,0,0,2,2h3" style="fill:none;stroke:#6f7a7b;stroke-linecap:round;stroke-linejoin:round;stroke-width:2px"/><line x1="9" y1="17" x2="13" y2="21" style="fill:none;stroke:#6f7a7b;stroke-linecap:round;stroke-linejoin:round;stroke-width:2px"/><line x1="13" y1="17" x2="9" y2="21" style="fill:none;stroke:#6f7a7b;stroke-linecap:round;stroke-linejoin:round;stroke-width:2px"/></g></svg>