<svg xmlns="http://www.w3.org/2000/svg" viewBox="0 0 32 32"><title>39-Message</title><g id="_39-Message" data-name="39-Message"><circle cx="16" cy="16" r="15" style="fill:#c1c5c8"/><circle cx="16" cy="16" r="15" style="fill:none;stroke:#6f7a7b;stroke-linecap:round;stroke-linejoin:round;stroke-width:2px"/><path d="M13.31,23.59A7.194,7.194,0,0,0,11,26V22.48A9,9,0,1,1,16,24,8.851,8.851,0,0,1,13.31,23.59Z" style="fill:#f2f2f2"/><path d="M16,6a9,9,0,0,0-5,16.48V26a7.194,7.194,0,0,1,2.31-2.41A8.851,8.851,0,0,0,16,24,9,9,0,0,0,16,6Z" style="fill:none;stroke:#6f7a7b;stroke-linecap:round;stroke-linejoin:round;stroke-width:2px"/><line x1="16" y1="15" x2="16" y2="15" style="fill:none;stroke:#6f7a7b;stroke-linecap:round;stroke-linejoin:round;stroke-width:2px"/><line x1="20" y1="15" x2="20" y2="15" style="fill:none;stroke:#6f7a7b;stroke-linecap:round;stroke-linejoin:round;stroke-width:2px"/><line x1="12" y1="15" x2="12" y2="15" style="fill:none;stroke:#6f7a7b;stroke-linecap:round;stroke-linejoin:round;stroke-width:2px"/></g></svg>