<svg xmlns="http://www.w3.org/2000/svg" viewBox="0 0 32 32"><title>40-User</title><g id="_40-User" data-name="40-User"><circle cx="16" cy="16" r="15" style="fill:#f2f2f2"/><path d="M25,22H13c0-2.76,2.69-5,6-5S25,19.24,25,22Z" style="fill:#f2f2f2"/><ellipse cx="19" cy="12.5" rx="4" ry="4.5" style="fill:#f2f2f2"/><circle cx="16" cy="16" r="15" style="fill:none;stroke:#6f7a7b;stroke-linecap:round;stroke-linejoin:round;stroke-width:2px"/><path d="M19,22H7c0-2.76,2.69-5,6-5S19,19.24,19,22Z" style="fill:#c1c5c8"/><ellipse cx="13" cy="12.5" rx="4" ry="4.5" style="fill:#c1c5c8"/><ellipse cx="13" cy="12.5" rx="4" ry="4.5" style="fill:none;stroke:#6f7a7b;stroke-linecap:round;stroke-linejoin:round;stroke-width:2px"/><path d="M19,22c0-2.76-2.69-5-6-5s-6,2.24-6,5" style="fill:none;stroke:#6f7a7b;stroke-linecap:round;stroke-linejoin:round;stroke-width:2px"/><path d="M19,8a4.272,4.272,0,0,1,4,4.5A4.272,4.272,0,0,1,19,17" style="fill:none;stroke:#6f7a7b;stroke-linecap:round;stroke-linejoin:round;stroke-width:2px"/><path d="M25,22c0-2.761-2.686-5-6-5" style="fill:none;stroke:#6f7a7b;stroke-linecap:round;stroke-linejoin:round;stroke-width:2px"/></g></svg>