<svg xmlns="http://www.w3.org/2000/svg" viewBox="0 0 32 32"><title>43-Key</title><g id="_43-Key" data-name="43-Key"><circle cx="16" cy="16" r="15" style="fill:#c1c5c8"/><circle cx="16" cy="16" r="15" style="fill:none;stroke:#6f7a7b;stroke-linecap:round;stroke-linejoin:round;stroke-width:2px"/><path d="M23,16v4c0,1.66-1.34,4-3,4H12c-1.66,0-3-2.34-3-4V16a3,3,0,0,1,3-3h8A3,3,0,0,1,23,16Z" style="fill:#f2f2f2"/><path d="M9,20c0,1.66,1.34,4,3,4h8c1.66,0,3-2.34,3-4V16a3,3,0,0,0-3-3H12a3,3,0,0,0-3,3Z" style="fill:none;stroke:#6f7a7b;stroke-linecap:round;stroke-linejoin:round;stroke-width:2px"/><line x1="16" y1="17" x2="16" y2="17" style="fill:none;stroke:#6f7a7b;stroke-linecap:round;stroke-linejoin:round;stroke-width:2px"/><path d="M12,13V10a1.959,1.959,0,0,1,2-2h2" style="fill:none;stroke:#6f7a7b;stroke-linecap:round;stroke-linejoin:round;stroke-width:2px"/><path d="M20,13V10a1.959,1.959,0,0,0-2-2H16" style="fill:none;stroke:#6f7a7b;stroke-linecap:round;stroke-linejoin:round;stroke-width:2px"/></g></svg>