<svg xmlns="http://www.w3.org/2000/svg" viewBox="0 0 32 32"><title>47-Smartphone</title><g id="_47-Smartphone" data-name="47-Smartphone"><circle cx="16" cy="16" r="15" style="fill:#c1c5c8"/><circle cx="16" cy="16" r="15" style="fill:none;stroke:#6f7a7b;stroke-linecap:round;stroke-linejoin:round;stroke-width:2px"/><rect x="10" y="7" width="12" height="18" rx="2" style="fill:#c1c5c8"/><path d="M22,9a2.006,2.006,0,0,0-2-2H12a2.006,2.006,0,0,0-2,2v2H22Z" style="fill:#f2f2f2"/><path d="M10,23a2.006,2.006,0,0,0,2,2h8a2.006,2.006,0,0,0,2-2V21H10Z" style="fill:#f2f2f2"/><rect x="10" y="7" width="12" height="18" rx="2" style="fill:none;stroke:#6f7a7b;stroke-linecap:round;stroke-linejoin:round;stroke-width:2px"/><line x1="14" y1="11" x2="18" y2="11" style="fill:none;stroke:#6f7a7b;stroke-linecap:round;stroke-linejoin:round;stroke-width:2px"/><line x1="16" y1="21" x2="16" y2="21" style="fill:none;stroke:#6f7a7b;stroke-linecap:round;stroke-linejoin:round;stroke-width:2px"/></g></svg>