<svg xmlns="http://www.w3.org/2000/svg" viewBox="0 0 32 32"><title>49-Message</title><g id="_49-Message" data-name="49-Message"><circle cx="16" cy="16" r="15" style="fill:#c1c5c8"/><circle cx="16" cy="16" r="15" style="fill:none;stroke:#6f7a7b;stroke-linecap:round;stroke-linejoin:round;stroke-width:2px"/><path d="M24,11v8a2.006,2.006,0,0,1-2,2H19l-3,2-3-2H10a2.006,2.006,0,0,1-2-2V11a2.006,2.006,0,0,1,2-2H22A2.006,2.006,0,0,1,24,11Z" style="fill:#f2f2f2"/><path d="M22,9H10a2.006,2.006,0,0,0-2,2v8a2.006,2.006,0,0,0,2,2h3l3,2,3-2h3a2.006,2.006,0,0,0,2-2V11A2.006,2.006,0,0,0,22,9Z" style="fill:none;stroke:#6f7a7b;stroke-linecap:round;stroke-linejoin:round;stroke-width:2px"/><line x1="16" y1="15" x2="16" y2="15" style="fill:none;stroke:#6f7a7b;stroke-linecap:round;stroke-linejoin:round;stroke-width:2px"/><line x1="20" y1="15" x2="20" y2="15" style="fill:none;stroke:#6f7a7b;stroke-linecap:round;stroke-linejoin:round;stroke-width:2px"/><line x1="12" y1="15" x2="12" y2="15" style="fill:none;stroke:#6f7a7b;stroke-linecap:round;stroke-linejoin:round;stroke-width:2px"/></g></svg>