<svg xmlns="http://www.w3.org/2000/svg" viewBox="0 0 32 32"><title>50-Trash</title><g id="_50-Trash" data-name="50-Trash"><circle cx="16" cy="16" r="15" style="fill:#f2f2f2"/><circle cx="16" cy="16" r="15" style="fill:none;stroke:#6f7a7b;stroke-linecap:round;stroke-linejoin:round;stroke-width:2px"/><path d="M22,11v1l-1,9a3,3,0,0,1-3,3H14a3,3,0,0,1-3-3l-1-9V11Z" style="fill:#c1c5c8"/><path d="M10,12l1,9a3,3,0,0,0,3,3h4a3,3,0,0,0,3-3l1-9" style="fill:none;stroke:#6f7a7b;stroke-linecap:round;stroke-linejoin:round;stroke-width:2px"/><polyline points="8 11 10 11 22 11 24 11" style="fill:none;stroke:#6f7a7b;stroke-linecap:round;stroke-linejoin:round;stroke-width:2px"/><line x1="15" y1="8" x2="17" y2="8" style="fill:none;stroke:#6f7a7b;stroke-linecap:round;stroke-linejoin:round;stroke-width:2px"/><line x1="16" y1="15" x2="16" y2="20" style="fill:none;stroke:#6f7a7b;stroke-linecap:round;stroke-linejoin:round;stroke-width:2px"/></g></svg>