<svg xmlns="http://www.w3.org/2000/svg" viewBox="0 0 32 32"><title>6-Email</title><g id="_6-Email" data-name="6-Email"><circle cx="16" cy="16" r="15" style="fill:#f2f2f2"/><path d="M24.41,9.59A1.955,1.955,0,0,1,25,11V21l-4-4-3-3-.11-.18L24,10Z" style="fill:#c1c5c8"/><path d="M14.11,13.82,14,14l-3,3L7,21V11a1.974,1.974,0,0,1,.34-1.12L8,10Z" style="fill:#c1c5c8"/><path d="M16,15l1.89-1.18L18,14l3,3,4,4a2.006,2.006,0,0,1-2,2H9a2.006,2.006,0,0,1-2-2l4-4,3-3,.11-.18Z" style="fill:#f2f2f2"/><path d="M23,9a1.955,1.955,0,0,1,1.41.59L24,10l-6.11,3.82L16,15l-1.89-1.18L8,10l-.66-.12A2.005,2.005,0,0,1,9,9Z" style="fill:#f2f2f2"/><circle cx="16" cy="16" r="15" style="fill:none;stroke:#6f7a7b;stroke-linecap:round;stroke-linejoin:round;stroke-width:2px"/><path d="M25,13V11a2,2,0,0,0-2-2H9a2,2,0,0,0-2,2V21a2,2,0,0,0,2,2h3" style="fill:none;stroke:#6f7a7b;stroke-linecap:round;stroke-linejoin:round;stroke-width:2px"/><polyline points="8 10 16 15 24 10" style="fill:none;stroke:#6f7a7b;stroke-linecap:round;stroke-linejoin:round;stroke-width:2px"/><line x1="11" y1="17" x2="14" y2="14" style="fill:none;stroke:#6f7a7b;stroke-linecap:round;stroke-linejoin:round;stroke-width:2px"/><polyline points="19 20 22 17 25 20" style="fill:none;stroke:#6f7a7b;stroke-linecap:round;stroke-linejoin:round;stroke-width:2px"/><line x1="22" y1="17" x2="22" y2="24" style="fill:none;stroke:#6f7a7b;stroke-linecap:round;stroke-linejoin:round;stroke-width:2px"/></g></svg>