<?xml version="1.0" encoding="UTF-8"?><svg xmlns="http://www.w3.org/2000/svg" viewBox="0 0 24 24"><defs><style>.v{fill:#231f20;}</style></defs><g id="a"/><g id="b"/><g id="c"/><g id="d"/><g id="e"/><g id="f"/><g id="g"/><g id="h"/><g id="i"/><g id="j"/><g id="k"/><g id="l"/><g id="m"/><g id="n"/><g id="o"/><g id="p"/><g id="q"/><g id="r"/><g id="s"/><g id="t"/><g id="u"><path class="v" d="M18.63,12.26c-.57-2.9-3.1-5.01-6.13-5.01-2.61,0-4.93,1.65-5.83,4.06-.22-.04-.44-.06-.67-.06-2.07,0-3.75,1.68-3.75,3.75s1.68,3.75,3.75,3.75h12.5c1.79,0,3.25-1.46,3.25-3.25s-1.39-3.17-3.12-3.24Zm-.13,4.99H6c-1.24,0-2.25-1.01-2.25-2.25s1.01-2.25,2.25-2.25c.26,0,.51,.04,.75,.13,.3,.11,.62,0,.82-.22,.17-.09,.31-.25,.36-.45,.58-2.03,2.46-3.45,4.57-3.45,2.48,0,4.51,1.86,4.73,4.32,.04,.39,.36,.68,.75,.68,.02,0,.05,0,.07,0,.06,0,.12-.03,.18-.05,.09,.03,.18,.06,.28,.06,.96,0,1.75,.79,1.75,1.75s-.79,1.75-1.75,1.75Z"/></g></svg>