<?xml version="1.0" encoding="UTF-8"?><svg xmlns="http://www.w3.org/2000/svg" viewBox="0 0 24 24"><defs><style>.v{fill:#231f20;}</style></defs><g id="a"/><g id="b"/><g id="c"/><g id="d"/><g id="e"/><g id="f"/><g id="g"><path class="v" d="M18.63,9.29c-.58-2.9-3.1-5.01-6.13-5.01-2.61,0-4.93,1.65-5.83,4.06-.22-.04-.44-.06-.67-.06-2.07,0-3.75,1.68-3.75,3.75s1.68,3.75,3.75,3.75h2c.41,0,.75-.34,.75-.75s-.34-.75-.75-.75h-2c-1.24,0-2.25-1.01-2.25-2.25s1.01-2.25,2.25-2.25c.26,0,.51,.04,.75,.13,.3,.11,.62,0,.82-.22,.17-.09,.31-.25,.36-.45,.58-2.03,2.46-3.45,4.57-3.45,2.47,0,4.51,1.86,4.73,4.32,.04,.39,.36,.68,.75,.68,.02,0,.05,0,.07,0,.06,0,.12-.03,.18-.05,.09,.03,.18,.06,.28,.06,.96,0,1.75,.79,1.75,1.75s-.79,1.75-1.75,1.75h-2.76l-.03-.1c-.63-1.76-1.86-2.55-2.36-2.81-.22-.11-.48-.11-.69,0-.5,.26-1.73,1.06-2.36,2.81l-.05,.15c-.36,1.1-.18,2.31,.49,3.23,.56,.77,1.39,1.22,2.26,1.22s1.7-.44,2.26-1.22c.38-.52,.58-1.14,.64-1.78h2.59c1.79,0,3.25-1.46,3.25-3.25s-1.39-3.17-3.12-3.24Zm-4.58,7.39c-.16,.22-.51,.6-1.05,.6s-.89-.38-1.05-.6c-.38-.53-.49-1.25-.28-1.89l.04-.11c.33-.94,.89-1.48,1.29-1.77,.4,.29,.96,.84,1.29,1.78l.04,.11c.21,.64,.1,1.36-.28,1.89Z"/></g><g id="h"/><g id="i"/><g id="j"/><g id="k"/><g id="l"/><g id="m"/><g id="n"/><g id="o"/><g id="p"/><g id="q"/><g id="r"/><g id="s"/><g id="t"/><g id="u"/></svg>