<?xml version="1.0" encoding="UTF-8"?><svg xmlns="http://www.w3.org/2000/svg" viewBox="0 0 24 24"><defs><style>.v{fill:#231f20;}</style></defs><g id="a"/><g id="b"/><g id="c"/><g id="d"><g><path class="v" d="M12,1.98C6.62,1.98,2.25,6.35,2.25,11.73s4.37,9.75,9.75,9.75,9.75-4.37,9.75-9.75S17.38,1.98,12,1.98Zm0,18c-4.55,0-8.25-3.7-8.25-8.25S7.45,3.48,12,3.48s8.25,3.7,8.25,8.25-3.7,8.25-8.25,8.25Z"/><path class="v" d="M15,9.48c.41,0,.75-.34,.75-.75s-.34-.75-.75-.75h-5c-.41,0-.75,.34-.75,.75v8c0,.41,.34,.75,.75,.75s.75-.34,.75-.75v-3.25h4.25c.41,0,.75-.34,.75-.75s-.34-.75-.75-.75h-4.25v-2.5h4.25Z"/><path class="v" d="M8.02,6.98h-.01c-.41,0-.74,.34-.74,.75s.34,.75,.75,.75,.75-.34,.75-.75-.34-.75-.75-.75Z"/></g></g><g id="e"/><g id="f"/><g id="g"/><g id="h"/><g id="i"/><g id="j"/><g id="k"/><g id="l"/><g id="m"/><g id="n"/><g id="o"/><g id="p"/><g id="q"/><g id="r"/><g id="s"/><g id="t"/><g id="u"/></svg>