<?xml version="1.0" encoding="UTF-8"?><svg xmlns="http://www.w3.org/2000/svg" viewBox="0 0 24 24"><defs><style>.v{fill:#231f20;}</style></defs><g id="a"/><g id="b"/><g id="c"><g><path class="v" d="M4.08,12.62c1.16,.78,2.67,.78,3.83,0,.66-.44,1.51-.44,2.17,0,1.16,.78,2.67,.78,3.83,0,.66-.44,1.51-.44,2.17,0,.58,.39,1.25,.58,1.92,.58s1.33-.19,1.92-.58l1.5-1c.34-.23,.44-.7,.21-1.04s-.69-.44-1.04-.21l-1.5,1c-.66,.44-1.51,.44-2.17,0-1.16-.78-2.67-.78-3.83,0-.66,.44-1.51,.44-2.17,0-1.16-.78-2.67-.78-3.83,0-.66,.44-1.51,.44-2.17,0l-1.5-1c-.35-.23-.81-.14-1.04,.21s-.14,.81,.21,1.04l1.5,1Z"/><path class="v" d="M20.58,14.92l-1.5,1c-.66,.44-1.51,.44-2.17,0-1.16-.78-2.67-.78-3.83,0-.66,.44-1.51,.44-2.17,0-1.16-.78-2.67-.78-3.83,0-.66,.44-1.51,.44-2.17,0l-1.5-1c-.35-.23-.81-.14-1.04,.21s-.14,.81,.21,1.04l1.5,1c1.16,.78,2.67,.78,3.83,0,.66-.44,1.51-.44,2.17,0,1.16,.78,2.67,.78,3.83,0,.66-.44,1.51-.44,2.17,0,.58,.39,1.25,.58,1.92,.58s1.33-.19,1.92-.58l1.5-1c.34-.23,.44-.7,.21-1.04s-.69-.44-1.04-.21Z"/><path class="v" d="M20.58,18.92l-1.5,1c-.66,.44-1.51,.44-2.17,0-1.16-.78-2.67-.78-3.83,0-.66,.44-1.51,.44-2.17,0-1.16-.78-2.67-.78-3.83,0-.66,.44-1.51,.44-2.17,0l-1.5-1c-.35-.23-.81-.14-1.04,.21s-.14,.81,.21,1.04l1.5,1c1.16,.78,2.67,.78,3.83,0,.66-.44,1.51-.44,2.17,0,1.16,.78,2.67,.78,3.83,0,.66-.44,1.51-.44,2.17,0,.58,.39,1.25,.58,1.92,.58s1.33-.19,1.92-.58l1.5-1c.34-.23,.44-.7,.21-1.04s-.69-.44-1.04-.21Z"/><path class="v" d="M9.53,6.53l1.72-1.72v4.19c0,.41,.34,.75,.75,.75s.75-.34,.75-.75V4.81l1.72,1.72c.15,.15,.34,.22,.53,.22s.38-.07,.53-.22c.29-.29,.29-.77,0-1.06l-3-3c-.29-.29-.77-.29-1.06,0l-3,3c-.29,.29-.29,.77,0,1.06s.77,.29,1.06,0Z"/></g></g><g id="d"/><g id="e"/><g id="f"/><g id="g"/><g id="h"/><g id="i"/><g id="j"/><g id="k"/><g id="l"/><g id="m"/><g id="n"/><g id="o"/><g id="p"/><g id="q"/><g id="r"/><g id="s"/><g id="t"/><g id="u"/></svg>