<?xml version="1.0" encoding="UTF-8"?><svg xmlns="http://www.w3.org/2000/svg" viewBox="0 0 24 24"><defs><style>.v{fill:#231f20;}</style></defs><g id="a"/><g id="b"/><g id="c"/><g id="d"/><g id="e"/><g id="f"/><g id="g"/><g id="h"/><g id="i"><path class="v" d="M18.63,13.29c-.26-1.33-.94-2.5-1.89-3.37,0-.13,.01-.26,.01-.39,0-4-3.25-7.25-7.25-7.25S2.25,5.53,2.25,9.53c0,1.38,.4,2.68,1.12,3.83-.69,.68-1.12,1.62-1.12,2.67,0,2.07,1.68,3.75,3.75,3.75h12.5c1.79,0,3.25-1.46,3.25-3.25s-1.39-3.17-3.12-3.24ZM3.75,9.53c0-3.17,2.58-5.75,5.75-5.75,2.96,0,5.4,2.24,5.71,5.11-.82-.39-1.74-.61-2.71-.61-2.61,0-4.93,1.65-5.83,4.06-.22-.04-.44-.06-.67-.06-.49,0-.95,.1-1.37,.27-.56-.91-.88-1.93-.88-3.02Zm14.75,8.75H6c-1.24,0-2.25-1.01-2.25-2.25s1.01-2.25,2.25-2.25c.26,0,.51,.04,.75,.13,.3,.11,.62,0,.82-.22,.17-.09,.31-.25,.36-.45,.58-2.03,2.46-3.45,4.57-3.45,2.47,0,4.51,1.86,4.73,4.32,.04,.39,.36,.68,.75,.68,.02,0,.05,0,.07,0,.06,0,.12-.03,.18-.05,.09,.03,.18,.06,.28,.06,.96,0,1.75,.79,1.75,1.75s-.79,1.75-1.75,1.75Z"/></g><g id="j"/><g id="k"/><g id="l"/><g id="m"/><g id="n"/><g id="o"/><g id="p"/><g id="q"/><g id="r"/><g id="s"/><g id="t"/><g id="u"/></svg>