<?xml version="1.0" encoding="UTF-8"?><svg xmlns="http://www.w3.org/2000/svg" viewBox="0 0 24 24"><defs><style>.v{fill:#231f20;}</style></defs><g id="a"/><g id="b"/><g id="c"/><g id="d"/><g id="e"/><g id="f"/><g id="g"/><g id="h"/><g id="i"/><g id="j"/><g id="k"/><g id="l"><path class="v" d="M15.56,2.93s-.04-.01-.06-.02c-1.09-.42-2.27-.66-3.5-.66C6.62,2.25,2.25,6.62,2.25,12s4.37,9.75,9.75,9.75,9.75-4.37,9.75-9.75c0-4.12-2.57-7.64-6.19-9.07ZM3.75,12C3.75,7.45,7.45,3.75,12,3.75c.59,0,1.16,.06,1.71,.18-1.49,1.51-3.46,4.23-3.46,8.07s1.88,6.49,3.46,8.07c-.55,.12-1.12,.18-1.71,.18-4.55,0-8.25-3.7-8.25-8.25Zm11.59,7.54c-1.44-1.27-3.59-3.77-3.59-7.54s2.11-6.25,3.58-7.54c2.89,1.28,4.92,4.18,4.92,7.54s-2.02,6.25-4.91,7.54Z"/></g><g id="m"/><g id="n"/><g id="o"/><g id="p"/><g id="q"/><g id="r"/><g id="s"/><g id="t"/><g id="u"/></svg>