<?xml version="1.0" encoding="UTF-8"?><svg xmlns="http://www.w3.org/2000/svg" viewBox="0 0 24 24"><defs><style>.v{fill:#231f20;}</style></defs><g id="a"/><g id="b"/><g id="c"/><g id="d"/><g id="e"/><g id="f"/><g id="g"/><g id="h"/><g id="i"/><g id="j"/><g id="k"/><g id="l"/><g id="m"/><g id="n"/><g id="o"><path class="v" d="M18.63,13.26c-.11-.55-.29-1.07-.53-1.56,1.39-.2,2.63-1.09,3.24-2.38,.12-.25,.09-.55-.08-.77-.17-.22-.45-.33-.72-.29-.93,.16-1.85-.19-2.39-.9-.63-.83-.64-2.03-.03-2.93,.16-.23,.17-.53,.04-.77-.13-.25-.39-.4-.66-.4-2.34,0-4.25,1.91-4.25,4.25,0,.28,.04,.55,.09,.81-.27-.04-.55-.06-.84-.06-2.61,0-4.93,1.65-5.83,4.06-.22-.04-.44-.06-.67-.06-2.07,0-3.75,1.68-3.75,3.75s1.68,3.75,3.75,3.75h12.5c1.79,0,3.25-1.46,3.25-3.25s-1.39-3.17-3.12-3.24Zm-3.88-5.76c0-1.06,.61-1.99,1.5-2.45-.24,1.12,0,2.29,.71,3.22,.55,.72,1.33,1.21,2.21,1.42-.47,.36-1.05,.56-1.66,.56-.12,0-.23,.03-.33,.08-.58-.65-1.28-1.17-2.08-1.52-.22-.4-.34-.85-.34-1.31Zm3.75,10.75H6c-1.24,0-2.25-1.01-2.25-2.25s1.01-2.25,2.25-2.25c.26,0,.51,.04,.75,.13,.3,.11,.62,0,.82-.22,.17-.09,.31-.25,.36-.45,.58-2.03,2.46-3.45,4.57-3.45,2.48,0,4.51,1.86,4.73,4.32,.04,.39,.36,.68,.75,.68,.02,0,.05,0,.07,0,.06,0,.12-.03,.18-.05,.09,.03,.18,.06,.28,.06,.96,0,1.75,.79,1.75,1.75s-.79,1.75-1.75,1.75Z"/></g><g id="p"/><g id="q"/><g id="r"/><g id="s"/><g id="t"/><g id="u"/></svg>