<?xml version="1.0" encoding="UTF-8"?><svg xmlns="http://www.w3.org/2000/svg" viewBox="0 0 24 24"><defs><style>.v{fill:#231f20;}</style></defs><g id="a"/><g id="b"/><g id="c"/><g id="d"/><g id="e"/><g id="f"/><g id="g"/><g id="h"/><g id="i"/><g id="j"/><g id="k"><g><path class="v" d="M20.61,12.05c.72-1.04,1.14-2.28,1.14-3.55,0-3.45-2.8-6.25-6.25-6.25-2.78,0-5.26,1.87-6.01,4.55-.02,.09-.03,.17-.02,.25-1.27,.71-2.27,1.86-2.8,3.26-.22-.04-.44-.06-.67-.06-2.07,0-3.75,1.68-3.75,3.75s1.68,3.75,3.75,3.75h12.5c1.79,0,3.25-1.46,3.25-3.25,0-.98-.45-1.85-1.14-2.45ZM15.5,3.75c2.62,0,4.75,2.13,4.75,4.75,0,1.03-.35,2.03-.97,2.86-.21-.05-.43-.08-.65-.09-.57-2.9-3.1-5.01-6.13-5.01-.43,0-.84,.06-1.25,.14,.79-1.59,2.43-2.64,4.25-2.64Zm3,12.5H6c-1.24,0-2.25-1.01-2.25-2.25s1.01-2.25,2.25-2.25c.26,0,.51,.04,.75,.13,.3,.11,.62,0,.82-.22,.17-.09,.31-.25,.36-.45,.58-2.03,2.46-3.45,4.57-3.45,2.48,0,4.51,1.86,4.73,4.32,.04,.39,.36,.68,.75,.68,.02,0,.05,0,.07,0,.06,0,.12-.03,.18-.05,.09,.03,.18,.06,.28,.06,.96,0,1.75,.79,1.75,1.75s-.79,1.75-1.75,1.75Z"/><path class="v" d="M10.47,19.47l-1,1c-.29,.29-.29,.77,0,1.06,.15,.15,.34,.22,.53,.22s.38-.07,.53-.22l1-1c.29-.29,.29-.77,0-1.06s-.77-.29-1.06,0Z"/><path class="v" d="M7.47,18.47l-2,2c-.29,.29-.29,.77,0,1.06,.15,.15,.34,.22,.53,.22s.38-.07,.53-.22l2-2c.29-.29,.29-.77,0-1.06s-.77-.29-1.06,0Z"/><path class="v" d="M14.47,18.47l-1,1c-.29,.29-.29,.77,0,1.06,.15,.15,.34,.22,.53,.22s.38-.07,.53-.22l1-1c.29-.29,.29-.77,0-1.06s-.77-.29-1.06,0Z"/><path class="v" d="M17.47,19.47l-1,1c-.29,.29-.29,.77,0,1.06,.15,.15,.34,.22,.53,.22s.38-.07,.53-.22l1-1c.29-.29,.29-.77,0-1.06s-.77-.29-1.06,0Z"/></g></g><g id="l"/><g id="m"/><g id="n"/><g id="o"/><g id="p"/><g id="q"/><g id="r"/><g id="s"/><g id="t"/><g id="u"/></svg>