<?xml version="1.0" encoding="UTF-8"?><svg xmlns="http://www.w3.org/2000/svg" viewBox="0 0 24 24"><defs><style>.v{fill:#231f20;}</style></defs><g id="a"/><g id="b"><g><path class="v" d="M12,7.25c-5.38,0-9.75,4.37-9.75,9.75,0,.41,.34,.75,.75,.75s.75-.34,.75-.75c0-4.55,3.7-8.25,8.25-8.25s8.25,3.7,8.25,8.25c0,.41,.34,.75,.75,.75s.75-.34,.75-.75c0-5.38-4.37-9.75-9.75-9.75Z"/><path class="v" d="M12,10.25c-3.72,0-6.75,3.03-6.75,6.75,0,.41,.34,.75,.75,.75s.75-.34,.75-.75c0-2.89,2.36-5.25,5.25-5.25s5.25,2.36,5.25,5.25c0,.41,.34,.75,.75,.75s.75-.34,.75-.75c0-3.72-3.03-6.75-6.75-6.75Z"/><path class="v" d="M12,13.25c-2.07,0-3.75,1.68-3.75,3.75,0,.41,.34,.75,.75,.75s.75-.34,.75-.75c0-1.24,1.01-2.25,2.25-2.25s2.25,1.01,2.25,2.25c0,.41,.34,.75,.75,.75s.75-.34,.75-.75c0-2.07-1.68-3.75-3.75-3.75Z"/></g></g><g id="c"/><g id="d"/><g id="e"/><g id="f"/><g id="g"/><g id="h"/><g id="i"/><g id="j"/><g id="k"/><g id="l"/><g id="m"/><g id="n"/><g id="o"/><g id="p"/><g id="q"/><g id="r"/><g id="s"/><g id="t"/><g id="u"/></svg>