<?xml version="1.0" encoding="UTF-8"?><svg xmlns="http://www.w3.org/2000/svg" viewBox="0 0 24 24"><defs><style>.v{fill:#231f20;}</style></defs><g id="a"/><g id="b"/><g id="c"/><g id="d"/><g id="e"/><g id="f"/><g id="g"/><g id="h"/><g id="i"/><g id="j"/><g id="k"/><g id="l"/><g id="m"/><g id="n"/><g id="o"/><g id="p"/><g id="q"><path class="v" d="M18.63,11.26c-.57-2.9-3.1-5.01-6.13-5.01-2.61,0-4.93,1.65-5.83,4.06-.22-.04-.44-.06-.67-.06-2.07,0-3.75,1.68-3.75,3.75s1.68,3.75,3.75,3.75h2c.41,0,.75-.34,.75-.75s-.34-.75-.75-.75h-2c-1.24,0-2.25-1.01-2.25-2.25s1.01-2.25,2.25-2.25c.26,0,.51,.04,.75,.13,.3,.11,.62,0,.82-.22,.17-.09,.31-.25,.36-.45,.58-2.03,2.46-3.45,4.57-3.45,2.47,0,4.51,1.86,4.73,4.32,.04,.39,.36,.68,.75,.68,.02,0,.05,0,.07,0,.06,0,.12-.03,.18-.05,.09,.03,.18,.06,.28,.06,.96,0,1.75,.79,1.75,1.75s-.79,1.75-1.75,1.75c-.09,0-.17,.02-.25,.05-.08-.03-.16-.05-.25-.05h-4.69l.39-.97c.09-.23,.06-.49-.08-.7s-.37-.33-.62-.33h-1.79l1.46-2.91c.19-.37,.04-.82-.34-1.01-.37-.18-.82-.03-1.01,.34l-2,4c-.12,.23-.1,.51,.03,.73,.14,.22,.38,.36,.64,.36h1.89l-1.59,3.97c-.15,.38,.03,.82,.42,.97,.09,.04,.19,.05,.28,.05,.3,0,.58-.18,.7-.47l1.01-2.53h5.29c.09,0,.17-.02,.25-.05,.08,.03,.16,.05,.25,.05,1.79,0,3.25-1.46,3.25-3.25s-1.39-3.17-3.12-3.24Z"/></g><g id="r"/><g id="s"/><g id="t"/><g id="u"/></svg>