<?xml version="1.0" encoding="UTF-8"?><svg xmlns="http://www.w3.org/2000/svg" viewBox="0 0 24 24"><defs><style>.v{fill:#231f20;}</style></defs><g id="a"/><g id="b"/><g id="c"/><g id="d"/><g id="e"/><g id="f"/><g id="g"/><g id="h"/><g id="i"/><g id="j"/><g id="k"/><g id="l"/><g id="m"/><g id="n"/><g id="o"/><g id="p"/><g id="q"/><g id="r"/><g id="s"/><g id="t"><g><path class="v" d="M21,14.25H4.5c-1.24,0-2.25,1.01-2.25,2.25s1.01,2.25,2.25,2.25h12c.41,0,.75,.34,.75,.75s-.34,.75-.75,.75h-7.5c-.41,0-.75,.34-.75,.75s.34,.75,.75,.75h7.5c1.24,0,2.25-1.01,2.25-2.25s-1.01-2.25-2.25-2.25H4.5c-.41,0-.75-.34-.75-.75s.34-.75,.75-.75H21c.41,0,.75-.34,.75-.75s-.34-.75-.75-.75Z"/><path class="v" d="M5.96,13.74c.4,.06,.79-.21,.86-.62,.43-2.53,2.6-4.37,5.18-4.37s4.75,1.84,5.18,4.37c.06,.37,.38,.63,.74,.63,.04,0,.08,0,.13-.01,.41-.07,.68-.46,.62-.86-.55-3.26-3.35-5.63-6.66-5.63s-6.11,2.37-6.66,5.63c-.07,.41,.21,.79,.62,.86Z"/><path class="v" d="M12,5.75c.41,0,.75-.34,.75-.75v-1c0-.41-.34-.75-.75-.75s-.75,.34-.75,.75v1c0,.41,.34,.75,.75,.75Z"/><path class="v" d="M6.47,7.53c.15,.15,.34,.22,.53,.22s.38-.07,.53-.22c.29-.29,.29-.77,0-1.06l-.71-.71c-.29-.29-.77-.29-1.06,0s-.29,.77,0,1.06l.71,.71Z"/><path class="v" d="M17,7.75c.19,0,.38-.07,.53-.22l.71-.71c.29-.29,.29-.77,0-1.06s-.77-.29-1.06,0l-.71,.71c-.29,.29-.29,.77,0,1.06,.15,.15,.34,.22,.53,.22Z"/><path class="v" d="M20,11.75h1c.41,0,.75-.34,.75-.75s-.34-.75-.75-.75h-1c-.41,0-.75,.34-.75,.75s.34,.75,.75,.75Z"/><path class="v" d="M3,11.75h1c.41,0,.75-.34,.75-.75s-.34-.75-.75-.75h-1c-.41,0-.75,.34-.75,.75s.34,.75,.75,.75Z"/></g></g><g id="u"/></svg>