<?xml version="1.0" encoding="UTF-8"?><svg xmlns="http://www.w3.org/2000/svg" viewBox="0 0 24 24"><defs><style>.v{fill:#231f20;}</style></defs><g id="a"/><g id="b"/><g id="c"/><g id="d"/><g id="e"/><g id="f"/><g id="g"/><g id="h"/><g id="i"/><g id="j"><g><path class="v" d="M16.1,14.6c-.23-.4-.35-.8-.35-1.19V6c0-2.07-1.68-3.75-3.75-3.75s-3.75,1.68-3.75,3.75v7.41c0,.39-.12,.8-.34,1.17-.43,.73-.66,1.57-.66,2.42,0,1.45,.65,2.81,1.79,3.72,.85,.68,1.89,1.03,2.97,1.03,.37,0,.74-.04,1.1-.13,1.73-.4,3.15-1.83,3.53-3.57,.26-1.2,.07-2.42-.54-3.45Zm-.93,3.13c-.26,1.18-1.22,2.16-2.4,2.43-1,.23-2.02,0-2.8-.62-.78-.62-1.23-1.55-1.23-2.54,0-.58,.16-1.16,.45-1.65,.36-.6,.55-1.27,.55-1.94V6c0-1.24,1.01-2.25,2.25-2.25s2.25,1.01,2.25,2.25v7.41c0,.66,.19,1.33,.56,1.95,.42,.71,.55,1.54,.36,2.37Z"/><path class="v" d="M12.02,17.25h-.01c-.41,0-.74,.34-.74,.75s.34,.75,.75,.75,.75-.34,.75-.75-.34-.75-.75-.75Z"/><path class="v" d="M12,15.75c.41,0,.75-.34,.75-.75V6c0-.41-.34-.75-.75-.75s-.75,.34-.75,.75V15c0,.41,.34,.75,.75,.75Z"/></g></g><g id="k"/><g id="l"/><g id="m"/><g id="n"/><g id="o"/><g id="p"/><g id="q"/><g id="r"/><g id="s"/><g id="t"/><g id="u"/></svg>