<?xml version="1.0" encoding="UTF-8"?><svg xmlns="http://www.w3.org/2000/svg" viewBox="0 0 24 24"><defs><style>.v{fill:#231f20;}</style></defs><g id="a"/><g id="b"/><g id="c"/><g id="d"/><g id="e"/><g id="f"/><g id="g"/><g id="h"/><g id="i"/><g id="j"/><g id="k"/><g id="l"/><g id="m"/><g id="n"/><g id="o"/><g id="p"><g><path class="v" d="M19.36,14.78l-.26-.92c-.83-2.91-3.38-4.98-6.34-5.29v-.31c0-.41-.34-.75-.75-.75s-.75,.34-.75,.75v.31c-2.96,.31-5.51,2.38-6.34,5.29l-.26,.92c-.15,.53-.05,1.09,.29,1.53,.33,.44,.84,.7,1.4,.7h4.92v2.75c0,.41-.34,.75-.75,.75s-.75-.34-.75-.75-.34-.75-.75-.75-.75,.34-.75,.75c0,1.24,1.01,2.25,2.25,2.25s2.25-1.01,2.25-2.25v-2.75h4.92c.55,0,1.06-.25,1.4-.7,.33-.44,.44-1,.29-1.53Zm-1.48,.63s-.09,.1-.2,.1H6.33c-.11,0-.17-.06-.2-.1-.03-.04-.07-.11-.04-.22l.26-.92c.72-2.51,3.04-4.26,5.65-4.26s4.94,1.75,5.65,4.26l.26,.92c.03,.1-.01,.18-.04,.22Z"/><path class="v" d="M12,6.01c.41,0,.75-.34,.75-.75V3.26c0-.41-.34-.75-.75-.75s-.75,.34-.75,.75v2c0,.41,.34,.75,.75,.75Z"/><path class="v" d="M15,7.01c.41,0,.75-.34,.75-.75V3.26c0-.41-.34-.75-.75-.75s-.75,.34-.75,.75v3c0,.41,.34,.75,.75,.75Z"/><path class="v" d="M18,9.01c.41,0,.75-.34,.75-.75V3.26c0-.41-.34-.75-.75-.75s-.75,.34-.75,.75v5c0,.41,.34,.75,.75,.75Z"/><path class="v" d="M9,7.01c.41,0,.75-.34,.75-.75V3.26c0-.41-.34-.75-.75-.75s-.75,.34-.75,.75v3c0,.41,.34,.75,.75,.75Z"/><path class="v" d="M6,9.01c.41,0,.75-.34,.75-.75V3.26c0-.41-.34-.75-.75-.75s-.75,.34-.75,.75v5c0,.41,.34,.75,.75,.75Z"/><path class="v" d="M10.11,11.8c-.52,.67-.9,1.43-1.13,2.26-.11,.4,.12,.81,.52,.92,.07,.02,.13,.03,.2,.03,.33,0,.63-.22,.72-.55,.18-.64,.47-1.22,.87-1.74,.25-.33,.19-.8-.13-1.05-.33-.25-.8-.19-1.05,.13Z"/><path class="v" d="M13.86,11.8c-.25-.33-.73-.39-1.05-.13-.33,.25-.39,.73-.13,1.05,.4,.51,.69,1.1,.87,1.74,.09,.33,.39,.55,.72,.55,.07,0,.13,0,.2-.03,.4-.11,.63-.52,.52-.92-.23-.83-.61-1.59-1.13-2.26Z"/></g></g><g id="q"/><g id="r"/><g id="s"/><g id="t"/><g id="u"/></svg>