<?xml version="1.0" encoding="UTF-8"?><svg xmlns="http://www.w3.org/2000/svg" viewBox="0 0 24 24"><defs><style>.v{fill:#231f20;}</style></defs><g id="a"/><g id="b"/><g id="c"/><g id="d"/><g id="e"/><g id="f"/><g id="g"/><g id="h"><g><path class="v" d="M21.18,13.14l-4.83-7.72c-.75-1.21-2.1-1.88-3.52-1.75l-4.28,.39c-.72,.07-1.36,.42-1.81,.93-.8-.44-1.57-.95-2.24-1.55-.33-.29-.64-.61-.94-.94,0,0-.01,0-.02-.01-.04-.04-.09-.07-.14-.1-.03-.02-.06-.05-.1-.07-.04-.02-.08-.02-.13-.03-.05-.01-.1-.03-.16-.03,0,0-.01,0-.02,0-.04,0-.07,.02-.11,.02-.05,0-.11,.01-.16,.03-.05,.02-.1,.05-.14,.08-.03,.02-.06,.03-.09,.05,0,0,0,.01-.01,.02-.04,.04-.07,.09-.1,.14-.02,.03-.05,.06-.07,.1-.02,.04-.02,.08-.03,.13-.01,.05-.03,.1-.03,.16,0,0,0,.01,0,.02V21c0,.41,.34,.75,.75,.75s.75-.34,.75-.75V4.77c.72,.61,1.5,1.15,2.34,1.6,0,.06-.03,.12-.03,.18h0l-.39,4.28c-.13,1.42,.54,2.77,1.75,3.52l7.72,4.83c.62,.39,1.31,.57,1.99,.57,.97,0,1.92-.38,2.65-1.1l.87-.87c1.24-1.24,1.46-3.15,.53-4.64Zm-1.59,3.58l-.87,.87c-.75,.75-1.89,.88-2.78,.32l-7.72-4.83c-.72-.45-1.13-1.26-1.05-2.11l.39-4.28c0-.11,.05-.21,.08-.31,.01-.02,.03-.03,.04-.05,.02-.03,.02-.07,.03-.11,.19-.36,.55-.62,.98-.66l4.28-.39c.85-.08,1.66,.32,2.11,1.05l4.83,7.72c.56,.89,.43,2.04-.32,2.78Z"/><path class="v" d="M14.01,7.38c.16-.38-.01-.82-.4-.98-.38-.16-.82,.01-.98,.4-.36,.85-.9,1.64-1.55,2.29-.66,.66-1.43,1.18-2.29,1.55-.38,.16-.56,.6-.4,.98,.12,.29,.4,.46,.69,.46,.1,0,.2-.02,.29-.06,1.04-.44,1.97-1.07,2.77-1.87,.8-.8,1.43-1.73,1.87-2.77Z"/><path class="v" d="M15.76,9.94c-.37-.17-.82-.01-1,.37-.25,.54-.59,1.03-1.01,1.45s-.91,.76-1.45,1.01c-.38,.17-.54,.62-.37,1,.13,.27,.4,.44,.68,.44,.11,0,.21-.02,.31-.07,.7-.32,1.34-.77,1.88-1.31s.99-1.18,1.31-1.88c.17-.38,0-.82-.37-1Z"/><path class="v" d="M17.04,13.62l-1.41,1.41c-.29,.29-.29,.77,0,1.06,.15,.15,.34,.22,.53,.22s.38-.07,.53-.22l1.41-1.41c.29-.29,.29-.77,0-1.06s-.77-.29-1.06,0Z"/></g></g><g id="i"/><g id="j"/><g id="k"/><g id="l"/><g id="m"/><g id="n"/><g id="o"/><g id="p"/><g id="q"/><g id="r"/><g id="s"/><g id="t"/><g id="u"/></svg>