<?xml version="1.0" encoding="UTF-8"?><svg xmlns="http://www.w3.org/2000/svg" viewBox="0 0 24 24"><defs><style>.v{fill:#231f20;}</style></defs><g id="a"/><g id="b"/><g id="c"/><g id="d"/><g id="e"/><g id="f"/><g id="g"/><g id="h"/><g id="i"/><g id="j"/><g id="k"/><g id="l"/><g id="m"><g><path class="v" d="M20.39,3.11c-.86-.71-1.99-1.01-3.11-.8-1.76,.33-3.03,1.93-3.03,3.81,0,.93,.34,1.83,.95,2.53l1.48,1.7c.33,.38,.81,.6,1.32,.6s.99-.22,1.32-.6l1.48-1.7c.61-.7,.95-1.6,.95-2.53v-.13c0-1.12-.49-2.17-1.36-2.89Zm-.14,3.01c0,.57-.21,1.11-.58,1.54l-1.48,1.7c-.13,.15-.25,.15-.38,0l-1.48-1.7c-.37-.43-.58-.97-.58-1.54,0-1.14,.78-2.14,1.81-2.33,.15-.03,.3-.04,.45-.04,.53,0,1.02,.18,1.43,.52,.52,.43,.81,1.06,.81,1.73v.13Z"/><path class="v" d="M18.02,5.25h0c-.41,0-.75,.34-.75,.75s.34,.75,.75,.75,.75-.34,.75-.75-.33-.75-.75-.75Z"/><path class="v" d="M16.5,15.25H5.5c-.96,0-1.75-.79-1.75-1.75s.79-1.75,1.75-1.75h7.5c.41,0,.75-.34,.75-.75s-.34-.75-.75-.75H5.5c-1.79,0-3.25,1.46-3.25,3.25s1.46,3.25,3.25,3.25h11c.96,0,1.75,.79,1.75,1.75s-.79,1.75-1.75,1.75h-6.5c-.41,0-.75,.34-.75,.75s.34,.75,.75,.75h6.5c1.79,0,3.25-1.46,3.25-3.25s-1.46-3.25-3.25-3.25Z"/></g></g><g id="n"/><g id="o"/><g id="p"/><g id="q"/><g id="r"/><g id="s"/><g id="t"/><g id="u"/></svg>