<?xml version="1.0" encoding="UTF-8"?><svg xmlns="http://www.w3.org/2000/svg" viewBox="0 0 24 24"><defs><style>.v{fill:#231f20;}</style></defs><g id="a"/><g id="b"><g><path class="v" d="M21,11.61h-7c-.69,0-1.25-.56-1.25-1.25V4.43c0-.5-.22-.98-.6-1.32-.38-.33-.88-.49-1.37-.43C5.78,3.31,2.11,7.58,2.25,12.63c.14,5.08,4.39,9.33,9.47,9.47,.09,0,.19,0,.28,0,2.55,0,4.96-.97,6.79-2.76,1.9-1.85,2.95-4.33,2.95-6.99,0-.41-.34-.75-.75-.75Z"/><path class="v" d="M17,10.11h4c.41,0,.75-.34,.75-.75,0-3.22-2.29-6.01-5.46-6.63-.49-.1-1,.04-1.4,.36-.41,.34-.65,.84-.65,1.37v2.9c0,1.52,1.23,2.75,2.75,2.75Z"/></g></g><g id="c"/><g id="d"/><g id="e"/><g id="f"/><g id="g"/><g id="h"/><g id="i"/><g id="j"/><g id="k"/><g id="l"/><g id="m"/><g id="n"/><g id="o"/><g id="p"/><g id="q"/><g id="r"/><g id="s"/><g id="t"/><g id="u"/></svg>