<?xml version="1.0" encoding="UTF-8"?><svg xmlns="http://www.w3.org/2000/svg" viewBox="0 0 24 24"><defs><style>.v{fill:#231f20;}</style></defs><g id="a"/><g id="b"/><g id="c"/><g id="d"/><g id="e"/><g id="f"/><g id="g"/><g id="h"/><g id="i"><g><path class="v" d="M17,2.25H7c-2.62,0-4.75,2.13-4.75,4.75v6c0,2.62,2.13,4.75,4.75,4.75h10c2.62,0,4.75-2.13,4.75-4.75V7c0-2.62-2.13-4.75-4.75-4.75Zm1,7.5h-2.69l-2.78,2.78c-.25,.25-.65,.29-.95,.09l-2.49-1.66-2.57,2.57c-.15,.15-.34,.22-.53,.22s-.38-.07-.53-.22c-.29-.29-.29-.77,0-1.06l3-3c.25-.25,.65-.29,.95-.09l2.49,1.66,2.57-2.57c.14-.14,.33-.22,.53-.22h3c.41,0,.75,.33,.75,.75s-.34,.75-.75,.75Z"/><path class="v" d="M16,20.25h-.63c-.18-.25-.35-.6-.49-1h-5.75c-.14,.4-.31,.75-.49,1h-.63c-.41,0-.75,.34-.75,.75s.34,.75,.75,.75h8c.41,0,.75-.34,.75-.75s-.34-.75-.75-.75Z"/></g></g><g id="j"/><g id="k"/><g id="l"/><g id="m"/><g id="n"/><g id="o"/><g id="p"/><g id="q"/><g id="r"/><g id="s"/><g id="t"/><g id="u"/></svg>