<?xml version="1.0" encoding="UTF-8"?><svg xmlns="http://www.w3.org/2000/svg" viewBox="0 0 24 24"><defs><style>.v{fill:#231f20;}</style></defs><g id="a"/><g id="b"/><g id="c"/><g id="d"/><g id="e"/><g id="f"/><g id="g"/><g id="h"/><g id="i"/><g id="j"/><g id="k"/><g id="l"/><g id="m"/><g id="n"/><g id="o"/><g id="p"><g><path class="v" d="M21,15.25h-5.59c-.47,0-.91,.18-1.24,.51l-.41,.41s-.11,.07-.18,.07h-3.17c-.07,0-.13-.03-.18-.07l-.41-.41c-.33-.33-.77-.51-1.24-.51H3c-.41,0-.75,.34-.75,.75v1c0,1.52,1.23,2.75,2.75,2.75h14c1.52,0,2.75-1.23,2.75-2.75v-1c0-.41-.34-.75-.75-.75Z"/><path class="v" d="M10.88,14.7l.05,.05h2.14l.05-.05c.61-.61,1.43-.95,2.3-.95h5.34v-4.75c0-2.62-2.13-4.75-4.75-4.75H8c-2.62,0-4.75,2.13-4.75,4.75v4.75h5.34c.87,0,1.68,.34,2.3,.95Zm3.37-7.7c0-.41,.34-.75,.75-.75s.75,.34,.75,.75v4c0,.41-.34,.75-.75,.75s-.75-.34-.75-.75V7Zm-3,2c0-.41,.34-.75,.75-.75s.75,.34,.75,.75v2c0,.41-.34,.75-.75,.75s-.75-.34-.75-.75v-2Zm-3,2v-1c0-.41,.34-.75,.75-.75s.75,.34,.75,.75v1c0,.41-.34,.75-.75,.75s-.75-.34-.75-.75Z"/></g></g><g id="q"/><g id="r"/><g id="s"/><g id="t"/><g id="u"/></svg>