<?xml version="1.0" encoding="UTF-8"?><svg xmlns="http://www.w3.org/2000/svg" viewBox="0 0 24 24"><defs><style>.v{fill:#231f20;}</style></defs><g id="a"/><g id="b"/><g id="c"/><g id="d"/><g id="e"/><g id="f"/><g id="g"/><g id="h"/><g id="i"/><g id="j"><g><circle class="v" cx="12" cy="12" r="3.25"/><path class="v" d="M20.23,9.03c-.16-.04-.28-.15-.35-.3-.06-.15-.05-.32,.03-.46,.48-.79,.35-1.8-.3-2.45l-1.44-1.44c-.65-.65-1.66-.78-2.45-.3-.14,.08-.31,.1-.46,.03-.15-.06-.26-.19-.3-.35-.22-.9-1.03-1.52-1.95-1.52h-2.03c-.92,0-1.72,.63-1.95,1.52-.04,.16-.15,.28-.3,.35-.15,.06-.32,.05-.46-.03-.79-.47-1.8-.35-2.45,.3l-1.44,1.44c-.65,.65-.78,1.66-.3,2.45,.08,.14,.1,.31,.03,.46-.06,.15-.19,.26-.35,.3-.9,.22-1.52,1.02-1.52,1.95v2.04c0,.92,.63,1.73,1.52,1.95,.16,.04,.28,.15,.35,.3,.06,.15,.05,.32-.03,.46-.48,.79-.35,1.8,.3,2.45l1.44,1.44c.65,.65,1.66,.78,2.45,.3,.14-.08,.31-.1,.46-.03,.15,.06,.26,.19,.3,.35,.22,.9,1.03,1.52,1.95,1.52h2.03c.92,0,1.72-.63,1.95-1.52,.04-.16,.15-.28,.3-.35,.15-.06,.32-.05,.46,.03,.79,.47,1.8,.35,2.45-.3l1.44-1.44c.65-.65,.78-1.66,.3-2.45-.08-.14-.1-.31-.03-.46,.06-.15,.19-.26,.35-.3,.9-.22,1.52-1.02,1.52-1.95v-2.04c0-.92-.63-1.73-1.52-1.95Zm-8.23,7.72c-2.62,0-4.75-2.13-4.75-4.75s2.13-4.75,4.75-4.75,4.75,2.13,4.75,4.75-2.13,4.75-4.75,4.75Z"/></g></g><g id="k"/><g id="l"/><g id="m"/><g id="n"/><g id="o"/><g id="p"/><g id="q"/><g id="r"/><g id="s"/><g id="t"/><g id="u"/></svg>