<?xml version="1.0" encoding="UTF-8"?><svg xmlns="http://www.w3.org/2000/svg" viewBox="0 0 24 24"><defs><style>.v{fill:#231f20;}</style></defs><g id="a"/><g id="b"/><g id="c"/><g id="d"/><g id="e"/><g id="f"/><g id="g"/><g id="h"/><g id="i"/><g id="j"/><g id="k"/><g id="l"><g><path class="v" d="M9.76,12.75c.12,5.61,1.59,8.5,2.24,8.5s2.11-2.89,2.24-8.5h-4.48Z"/><path class="v" d="M12,2.75c-.64,0-2.11,2.89-2.24,8.5h4.48c-.12-5.61-1.59-8.5-2.24-8.5Z"/><path class="v" d="M15.74,11.25h5.97c-.34-4.41-3.62-8.01-7.89-8.82,1.22,1.78,1.84,5.32,1.91,8.82Z"/><path class="v" d="M8.26,11.25c.08-3.5,.69-7.04,1.91-8.82C5.91,3.24,2.63,6.84,2.29,11.25h5.97Z"/><path class="v" d="M15.74,12.75c-.08,3.5-.69,7.04-1.91,8.82,4.27-.81,7.55-4.41,7.89-8.82h-5.97Z"/><path class="v" d="M8.26,12.75H2.29c.34,4.41,3.62,8.01,7.89,8.82-1.22-1.78-1.84-5.32-1.91-8.82Z"/></g></g><g id="m"/><g id="n"/><g id="o"/><g id="p"/><g id="q"/><g id="r"/><g id="s"/><g id="t"/><g id="u"/></svg>