<?xml version="1.0" encoding="UTF-8"?><svg xmlns="http://www.w3.org/2000/svg" viewBox="0 0 24 24"><defs><style>.v{fill:#231f20;}</style></defs><g id="a"/><g id="b"/><g id="c"/><g id="d"/><g id="e"/><g id="f"/><g id="g"/><g id="h"/><g id="i"/><g id="j"/><g id="k"/><g id="l"/><g id="m"/><g id="n"/><g id="o"/><g id="p"/><g id="q"><path class="v" d="M19.82,13.76l-1-1c-.33-.33-.78-.51-1.24-.51h-4.84v-2.5h4.25c.96,0,1.75-.79,1.75-1.75v-2c0-.96-.79-1.75-1.75-1.75h-4.25v-1.25c0-.41-.34-.75-.75-.75s-.75,.34-.75,.75v1.25H6.41c-.46,0-.91,.19-1.24,.51l-1,1c-.68,.68-.68,1.79,0,2.47l1,1c.33,.33,.78,.51,1.24,.51h4.84v2.5H7c-.96,0-1.75,.79-1.75,1.75v2c0,.96,.79,1.75,1.75,1.75h4.25v3.25c0,.41,.34,.75,.75,.75s.75-.34,.75-.75v-3.25h4.84c.46,0,.91-.19,1.24-.51l1-1c.68-.68,.68-1.79,0-2.47Z"/></g><g id="r"/><g id="s"/><g id="t"/><g id="u"/></svg>