<?xml version="1.0" encoding="UTF-8"?><svg xmlns="http://www.w3.org/2000/svg" viewBox="0 0 24 24"><defs><style>.v{fill:#231f20;}</style></defs><g id="a"/><g id="b"/><g id="c"/><g id="d"/><g id="e"/><g id="f"/><g id="g"/><g id="h"/><g id="i"/><g id="j"/><g id="k"/><g id="l"/><g id="m"/><g id="n"><g><path class="v" d="M21,11.25c-.41,0-.75,.34-.75,.75,0,4.55-3.7,8.25-8.25,8.25S3.75,16.55,3.75,12,7.45,3.75,12,3.75c1.98,0,3.89,.71,5.39,2.01-.08,.23-.14,.48-.14,.74,0,1.24,1.01,2.25,2.25,2.25s2.25-1.01,2.25-2.25-1.01-2.25-2.25-2.25c-.43,0-.83,.13-1.18,.34-1.76-1.51-4-2.34-6.32-2.34C6.62,2.25,2.25,6.62,2.25,12s4.37,9.75,9.75,9.75,9.75-4.37,9.75-9.75c0-.41-.34-.75-.75-.75Z"/><circle class="v" cx="12" cy="12" r="5.75"/></g></g><g id="o"/><g id="p"/><g id="q"/><g id="r"/><g id="s"/><g id="t"/><g id="u"/></svg>