<?xml version="1.0" encoding="UTF-8"?><svg xmlns="http://www.w3.org/2000/svg" viewBox="0 0 24 24"><defs><style>.v{fill:#231f20;}</style></defs><g id="a"/><g id="b"/><g id="c"/><g id="d"/><g id="e"/><g id="f"/><g id="g"/><g id="h"/><g id="i"/><g id="j"><g><path class="v" d="M18.4,4.66l-2.83,2.83c1.39,1.1,2.19,2.73,2.19,4.5,0,3.17-2.58,5.75-5.75,5.75s-5.75-2.58-5.75-5.75c0-1.78,.8-3.41,2.19-4.5l-2.83-2.83c-2.05,1.79-3.35,4.41-3.35,7.34,0,5.38,4.37,9.75,9.75,9.75s9.75-4.37,9.75-9.75c0-2.93-1.3-5.55-3.35-7.34Z"/><path class="v" d="M12,8.94l5.18-5.18c-1.5-.95-3.28-1.51-5.18-1.51s-3.68,.56-5.18,1.51l5.18,5.18Z"/><path class="v" d="M12,10.75c-.19,0-.38-.07-.53-.22l-1.98-1.98s-.02,.03-.04,.05c-1.08,.81-1.7,2.05-1.7,3.4,0,2.34,1.91,4.25,4.25,4.25s4.25-1.91,4.25-4.25c0-1.35-.62-2.59-1.7-3.4-.02-.01-.03-.03-.04-.05l-1.98,1.98c-.15,.15-.34,.22-.53,.22Z"/></g></g><g id="k"/><g id="l"/><g id="m"/><g id="n"/><g id="o"/><g id="p"/><g id="q"/><g id="r"/><g id="s"/><g id="t"/><g id="u"/></svg>