<?xml version="1.0" encoding="UTF-8"?><svg xmlns="http://www.w3.org/2000/svg" viewBox="0 0 24 24"><g id="a"/><g id="b"/><g id="c"/><g id="d"/><g id="e"/><g id="f"/><g id="g"/><g id="h"/><g id="i"/><g id="j"/><g id="k"/><g id="l"/><g id="m"/><g id="n"/><g id="o"/><g id="p"/><g id="q"/><g id="r"/><g id="s"><g><path d="M20.12,5.79l-7-3.11c-.71-.31-1.52-.31-2.23,0h0L3.88,5.79c-.99,.44-1.63,1.43-1.63,2.51v7.4c0,1.09,.64,2.07,1.63,2.51l7,3.11c.35,.16,.74,.24,1.12,.24s.76-.08,1.12-.24l7-3.11c.99-.44,1.63-1.43,1.63-2.51v-7.4c0-1.09-.64-2.07-1.63-2.51Zm-8.63-1.74c.32-.14,.69-.14,1.02,0l6.65,2.95-7.15,3.18-7.15-3.18,6.65-2.95Zm-7,12.8c-.45-.2-.74-.65-.74-1.14v-7.4s.01-.09,.02-.14l7.48,3.32v8.36l-6.76-3Zm15.76-1.14c0,.49-.29,.94-.74,1.14l-6.76,3V11.49l7.48-3.32s.02,.09,.02,.14v7.4Z"/><path d="M16.7,15.09l-2,.89c-.38,.17-.55,.61-.38,.99,.12,.28,.4,.45,.69,.45,.1,0,.21-.02,.3-.06l2-.89c.38-.17,.55-.61,.38-.99-.17-.38-.61-.55-.99-.38Z"/></g></g><g id="t"/><g id="u"/></svg>