<?xml version="1.0" encoding="UTF-8"?><svg xmlns="http://www.w3.org/2000/svg" viewBox="0 0 24 24"><g id="a"/><g id="b"/><g id="c"/><g id="d"/><g id="e"><g><path d="M16.22,15.52c-.88-.88-2.4-.88-3.27,0l-.6,.56-4.43-4.47,.55-.55c.9-.9,.9-2.37,0-3.27l-1.11-1.11c-.88-.88-2.4-.87-3.27,0l-.49,.49c-1.36,1.36-1.74,3.46-.95,5.23,.88,1.96,2.14,3.79,3.65,5.3,1.55,1.55,3.35,2.78,5.37,3.67,.59,.26,1.23,.39,1.85,.39,1.22,0,2.42-.47,3.31-1.37l.49-.48c.44-.44,.68-1.02,.68-1.64s-.24-1.2-.68-1.64l-1.11-1.11Zm.04,3.32l-.48,.48h0c-.92,.92-2.32,1.18-3.5,.67-1.84-.82-3.5-1.95-4.91-3.36-1.38-1.38-2.53-3.06-3.34-4.85-.54-1.2-.28-2.63,.64-3.55l.49-.49c.15-.15,.36-.24,.58-.24s.42,.08,.58,.24l1.11,1.11c.32,.32,.32,.83,0,1.15l-.55,.55c-.6,.6-.6,1.57,0,2.16l4.43,4.43c.29,.29,.68,.4,1.08,.45,.41,0,.79-.16,1.08-.45l.55-.55c.31-.31,.84-.31,1.15,0l1.11,1.11c.15,.15,.24,.36,.24,.58s-.08,.42-.24,.58Z"/><path d="M16.5,2.25c-2.9,0-5.25,1.91-5.25,4.25,0,.7,.21,1.38,.6,1.99l-.58,2.33c-.06,.25,.01,.53,.2,.71,.14,.14,.33,.22,.53,.22,.06,0,.12,0,.18-.02l3.91-.98h.41c2.9,0,5.25-1.91,5.25-4.25s-2.35-4.25-5.25-4.25Zm0,7h-.5c-.06,0-.12,0-.18,.02l-2.79,.7,.36-1.46c.06-.22,0-.46-.14-.65-.33-.42-.5-.89-.5-1.37,0-1.52,1.68-2.75,3.75-2.75s3.75,1.23,3.75,2.75-1.68,2.75-3.75,2.75Z"/></g></g><g id="f"/><g id="g"/><g id="h"/><g id="i"/><g id="j"/><g id="k"/><g id="l"/><g id="m"/><g id="n"/><g id="o"/><g id="p"/><g id="q"/><g id="r"/><g id="s"/><g id="t"/><g id="u"/></svg>