<?xml version="1.0" encoding="UTF-8"?><svg xmlns="http://www.w3.org/2000/svg" viewBox="0 0 24 24"><g id="a"/><g id="b"/><g id="c"/><g id="d"/><g id="e"/><g id="f"/><g id="g"/><g id="h"/><g id="i"/><g id="j"/><g id="k"/><g id="l"><path d="M21.75,8v-3c0-.41-.34-.75-.75-.75h-1.5c-.53,0-1.01,.19-1.39,.5l-.16-.4c-.27-.67-.9-1.1-1.62-1.1h-1.32c-.41,0-.75,.34-.75,.75s.34,.75,.75,.75h1.32c.1,0,.19,.06,.23,.16l.71,1.79c.03,.32,.12,.61,.26,.87-.36,.33-.62,.76-.71,1.26l-.75,4.21c-.02,.12-.13,.21-.25,.21h-3.44c-.11,0-.17-.06-.2-.1-.03-.04-.07-.12-.03-.23l.39-1.17h1.46c.41,0,.75-.34,.75-.75s-.34-.75-.75-.75h-4.28c.01-.08,.03-.16,.03-.25v-3c0-.96-.79-1.75-1.75-1.75H4c-.96,0-1.75,.79-1.75,1.75v3c0,.84,.59,1.54,1.38,1.71l-1.18,1.77c-.56,.85-.62,1.93-.14,2.82,.41,.77,1.16,1.27,2.01,1.4,.33,1.74,1.85,3.06,3.68,3.06s3.33-1.29,3.67-3h1.65c.35,1.71,1.86,3,3.67,3s3.43-1.4,3.7-3.21c.18-.1,.35-.22,.49-.37,.33-.37,.49-.87,.44-1.36l-.78-7.06h.16c.41,0,.75-.34,.75-.75Zm-2.25-2.25h.75v1.5h-.75c-.41,0-.75-.34-.75-.75s.34-.75,.75-.75ZM3.75,7c0-.14,.11-.25,.25-.25h1.25v1.25c0,.41,.34,.75,.75,.75s.75-.34,.75-.75v-1.25h1.25c.14,0,.25,.11,.25,.25v3c0,.14-.11,.25-.25,.25H4c-.14,0-.25-.11-.25-.25v-3Zm-.12,8.59c-.22-.41-.2-.89,.06-1.28l1.7-2.56h5.56l-.23,.7c-.18,.53-.09,1.12,.24,1.58,.33,.46,.86,.73,1.42,.73h3.44c.85,0,1.57-.61,1.72-1.44l.75-4.21c.04-.22,.19-.39,.37-.5,.21,.08,.43,.13,.66,.15l.81,7.24c.01,.1-.04,.16-.06,.19-.03,.03-.09,.08-.19,.08H4.74c-.47,0-.88-.25-1.1-.66Zm4.37,3.66c-.98,0-1.81-.63-2.12-1.5h4.24c-.31,.87-1.14,1.5-2.12,1.5Zm9,0c-.98,0-1.81-.63-2.12-1.5h4.24c-.31,.87-1.14,1.5-2.12,1.5Z"/></g><g id="m"/><g id="n"/><g id="o"/><g id="p"/><g id="q"/><g id="r"/><g id="s"/><g id="t"/><g id="u"/></svg>