<?xml version="1.0" encoding="UTF-8"?><svg xmlns="http://www.w3.org/2000/svg" viewBox="0 0 24 24"><g id="a"/><g id="b"/><g id="c"/><g id="d"/><g id="e"/><g id="f"><path d="M18.75,5v-1c0-.96-.79-1.75-1.75-1.75H7c-.96,0-1.75,.79-1.75,1.75v1c0,.9,.68,1.63,1.55,1.73l-1.15,2.3c-.26,.52-.4,1.1-.4,1.68v8.29c0,1.52,1.23,2.75,2.75,2.75h8c1.52,0,2.75-1.23,2.75-2.75V10.71c0-.58-.14-1.16-.4-1.68l-1.15-2.3c.87-.1,1.55-.83,1.55-1.73Zm-1.5,14c0,.69-.56,1.25-1.25,1.25H8c-.69,0-1.25-.56-1.25-1.25V10.71c0-.35,.08-.7,.24-1.01l1.48-2.95h2.79v.25c0,.41,.34,.75,.75,.75s.75-.34,.75-.75v-.25h2.79l1.48,2.95c.16,.31,.24,.66,.24,1.01v8.29Zm0-14c0,.14-.11,.25-.25,.25h-4.25v-.25c0-.41-.34-.75-.75-.75s-.75,.34-.75,.75v.25H7c-.14,0-.25-.11-.25-.25v-1c0-.14,.11-.25,.25-.25h10c.14,0,.25,.11,.25,.25v1Z"/></g><g id="g"/><g id="h"/><g id="i"/><g id="j"/><g id="k"/><g id="l"/><g id="m"/><g id="n"/><g id="o"/><g id="p"/><g id="q"/><g id="r"/><g id="s"/><g id="t"/><g id="u"/></svg>