<?xml version="1.0" encoding="UTF-8"?><svg xmlns="http://www.w3.org/2000/svg" viewBox="0 0 24 24"><g id="a"/><g id="b"/><g id="c"/><g id="d"/><g id="e"/><g id="f"/><g id="g"/><g id="h"/><g id="i"/><g id="j"/><g id="k"/><g id="l"/><g id="m"/><g id="n"/><g id="o"/><g id="p"><path d="M17,2.25H7c-.96,0-1.75,.79-1.75,1.75v5c0,3.47,2.63,6.33,6,6.71v4.54h-2.25c-.41,0-.75,.34-.75,.75s.34,.75,.75,.75h6c.41,0,.75-.34,.75-.75s-.34-.75-.75-.75h-2.25v-4.54c3.37-.37,6-3.24,6-6.71V4c0-.96-.79-1.75-1.75-1.75Zm.25,6.75c0,2.9-2.35,5.25-5.25,5.25s-5.25-2.35-5.25-5.25V4c0-.14,.11-.25,.25-.25h3.6l-1.22,1.83c-.15,.23-.17,.53-.04,.77,.13,.24,.38,.4,.66,.4h1.5l-2.1,2.8c-.25,.33-.18,.8,.15,1.05,.14,.1,.29,.15,.45,.15,.23,0,.45-.1,.6-.3l3-4c.17-.23,.2-.53,.07-.79s-.39-.41-.67-.41h-1.6l1-1.5h4.6c.14,0,.25,.11,.25,.25v5Z"/></g><g id="q"/><g id="r"/><g id="s"/><g id="t"/><g id="u"/></svg>