<?xml version="1.0" encoding="UTF-8"?><svg xmlns="http://www.w3.org/2000/svg" viewBox="0 0 24 24"><g id="a"/><g id="b"/><g id="c"/><g id="d"/><g id="e"/><g id="f"/><g id="g"/><g id="h"/><g id="i"/><g id="j"/><g id="k"><g><path d="M19,10.25h-3.58l-2.12-3.53c1.37-.15,2.44-1.31,2.44-2.72v-1c0-.41-.34-.75-.75-.75h-6c-.41,0-.75,.34-.75,.75v1c0,1.41,1.07,2.56,2.44,2.72l-2.12,3.53h-3.58c-1.52,0-2.75,1.23-2.75,2.75v5c0,1.52,1.23,2.75,2.75,2.75h14c1.52,0,2.75-1.23,2.75-2.75v-5c0-1.52-1.23-2.75-2.75-2.75ZM9.75,4v-.25h4.5v.25c0,.69-.56,1.25-1.25,1.25h-2c-.69,0-1.25-.56-1.25-1.25Zm2.25,3.46l1.68,2.79h-3.35l1.68-2.79Zm8.25,10.54c0,.69-.56,1.25-1.25,1.25H5c-.69,0-1.25-.56-1.25-1.25v-5c0-.69,.56-1.25,1.25-1.25h14c.69,0,1.25,.56,1.25,1.25v5Z"/><path d="M12,13.25c-.41,0-.75,.34-.75,.75v3c0,.41,.34,.75,.75,.75s.75-.34,.75-.75v-3c0-.41-.34-.75-.75-.75Z"/><path d="M16,13.25c-.41,0-.75,.34-.75,.75v3c0,.41,.34,.75,.75,.75s.75-.34,.75-.75v-3c0-.41-.34-.75-.75-.75Z"/><path d="M8,13.25c-.41,0-.75,.34-.75,.75v3c0,.41,.34,.75,.75,.75s.75-.34,.75-.75v-3c0-.41-.34-.75-.75-.75Z"/></g></g><g id="l"/><g id="m"/><g id="n"/><g id="o"/><g id="p"/><g id="q"/><g id="r"/><g id="s"/><g id="t"/><g id="u"/></svg>