<?xml version="1.0" encoding="UTF-8"?><svg xmlns="http://www.w3.org/2000/svg" viewBox="0 0 24 24"><g id="a"/><g id="b"/><g id="c"><g><path d="M21.66,17.32l-1.07-4c-.33-1.22-1.47-2.07-2.79-2.07h-1.08c.1-.17,.19-.34,.28-.51,.94-1.81,.89-3.94-.14-5.69-1-1.7-2.77-2.74-4.73-2.79h-.27c-1.94,.03-3.69,1.06-4.69,2.74-1.05,1.77-1.11,3.92-.16,5.74,.09,.17,.18,.34,.28,.51h-1.08c-1.32,0-2.47,.85-2.79,2.07l-1.07,4c-.21,.8-.04,1.64,.47,2.3,.55,.71,1.4,1.12,2.33,1.12h13.73c.93,0,1.78-.41,2.33-1.12,.51-.66,.68-1.5,.47-2.3ZM8.45,5.76c.74-1.25,1.99-1.98,3.43-2.01h.2c1.46,.04,2.73,.79,3.47,2.05,.77,1.3,.81,2.89,.1,4.24-.1,.19-.21,.39-.32,.59-.86,1.53-1.93,2.93-3.17,4.17-.1,.1-.25,.1-.35,0-1.24-1.24-2.31-2.64-3.17-4.17-.11-.2-.22-.39-.32-.58h0c-.71-1.36-.67-2.96,.12-4.28Zm11.55,12.95c-.26,.34-.68,.54-1.14,.54H5.13c-.46,0-.87-.2-1.14-.54-.23-.3-.3-.65-.21-1l1.07-4c.15-.56,.7-.96,1.34-.96h1.96s.03,0,.04,0c.75,1.12,1.61,2.16,2.56,3.12,.34,.34,.79,.51,1.23,.51s.89-.17,1.23-.51c.96-.96,1.82-2.01,2.57-3.13,.04,0,.07,.02,.11,.02h1.88c.64,0,1.19,.39,1.34,.96l1.07,4c.09,.35,.02,.71-.21,1Z"/><path d="M12,10.75c1.52,0,2.75-1.23,2.75-2.75s-1.23-2.75-2.75-2.75-2.75,1.23-2.75,2.75,1.23,2.75,2.75,2.75Zm0-4c.69,0,1.25,.56,1.25,1.25s-.56,1.25-1.25,1.25-1.25-.56-1.25-1.25,.56-1.25,1.25-1.25Z"/></g></g><g id="d"/><g id="e"/><g id="f"/><g id="g"/><g id="h"/><g id="i"/><g id="j"/><g id="k"/><g id="l"/><g id="m"/><g id="n"/><g id="o"/><g id="p"/><g id="q"/><g id="r"/><g id="s"/><g id="t"/><g id="u"/></svg>