<?xml version="1.0" encoding="UTF-8"?><svg xmlns="http://www.w3.org/2000/svg" viewBox="0 0 24 24"><g id="a"/><g id="b"/><g id="c"/><g id="d"/><g id="e"/><g id="f"/><g id="g"/><g id="h"/><g id="i"/><g id="j"/><g id="k"/><g id="l"/><g id="m"/><g id="n"/><g id="o"/><g id="p"/><g id="q"/><g id="r"/><g id="s"/><g id="t"><g><path d="M20.48,7.18l-1.03-2.58c-.57-1.43-1.94-2.36-3.48-2.36h-7.94c-1.54,0-2.91,.93-3.48,2.36l-1.03,2.58c-.18,.45-.27,.91-.27,1.39v9.42c0,2.07,1.68,3.75,3.75,3.75h10c2.07,0,3.75-1.68,3.75-3.75V8.58c0-.48-.09-.95-.27-1.39Zm-2.42-2.02l.83,2.09h-6.14V3.75h3.22c.93,0,1.75,.56,2.09,1.41Zm-12.12,0c.34-.86,1.16-1.41,2.09-1.41h3.22v3.5H5.11l.83-2.09Zm11.06,15.09H7c-1.24,0-2.25-1.01-2.25-2.25V8.75h14.5v9.25c0,1.24-1.01,2.25-2.25,2.25Z"/><path d="M10,16.25h-3c-.41,0-.75,.34-.75,.75s.34,.75,.75,.75h3c.41,0,.75-.34,.75-.75s-.34-.75-.75-.75Z"/></g></g><g id="u"/></svg>