<?xml version="1.0" encoding="UTF-8"?><svg xmlns="http://www.w3.org/2000/svg" viewBox="0 0 24 24"><g id="a"/><g id="b"/><g id="c"/><g id="d"/><g id="e"/><g id="f"/><g id="g"/><g id="h"><path d="M20.48,9.07l-5.73-1.64v-2.13c0-.35-.1-.68-.29-.97l-1-1.5c-.33-.49-.87-.78-1.46-.78s-1.13,.29-1.46,.78l-1,1.5c-.19,.29-.29,.62-.29,.97v2.13l-5.73,1.64c-.75,.21-1.27,.9-1.27,1.68v1.25c0,.96,.79,1.75,1.75,1.75h5.25v2.79l-1.31,.65c-.42,.21-.69,.64-.69,1.12v2.05c0,.39,.18,.75,.48,.99,.22,.17,.49,.26,.77,.26,.1,0,.2-.01,.31-.04l3.2-.8,3.2,.8c.38,.09,.77,.01,1.07-.23,.31-.24,.48-.6,.48-.99v-2.05c0-.48-.26-.9-.69-1.12l-1.31-.65v-2.79h5.25c.96,0,1.75-.79,1.75-1.75v-1.25c0-.78-.52-1.47-1.27-1.68ZM4,12.25c-.14,0-.25-.11-.25-.25v-1.25c0-.11,.07-.21,.18-.24l5.32-1.52v3.26H4Zm11.25,6.21v1.58l-2.95-.74c-.1-.02-.2-.04-.3-.04s-.2,.01-.3,.04l-2.95,.74v-1.58l1.31-.65c.42-.21,.69-.64,.69-1.12V5.3s.01-.1,.04-.14l1-1.5c.13-.19,.29-.19,.42,0l1,1.5s.04,.09,.04,.14v11.39c0,.48,.26,.9,.69,1.12l1.31,.65Zm5-6.46c0,.14-.11,.25-.25,.25h-5.25v-3.26l5.32,1.52c.11,.03,.18,.13,.18,.24v1.25Z"/></g><g id="i"/><g id="j"/><g id="k"/><g id="l"/><g id="m"/><g id="n"/><g id="o"/><g id="p"/><g id="q"/><g id="r"/><g id="s"/><g id="t"/><g id="u"/></svg>