<?xml version="1.0" encoding="UTF-8"?><svg xmlns="http://www.w3.org/2000/svg" viewBox="0 0 24 24"><g id="a"/><g id="b"/><g id="c"/><g id="d"/><g id="e"/><g id="f"/><g id="g"/><g id="h"/><g id="i"/><g id="j"/><g id="k"/><g id="l"/><g id="m"/><g id="n"/><g id="o"/><g id="p"/><g id="q"/><g id="r"><path d="M21.75,7c0-1.3-.53-2.48-1.38-3.34,0,0,0-.01-.01-.02s-.01,0-.02-.01c-.86-.85-2.04-1.38-3.34-1.38H7c-1.3,0-2.48,.53-3.34,1.38,0,0-.01,0-.02,.01s0,.01-.01,.02c-.85,.86-1.38,2.04-1.38,3.34v10c0,1.3,.53,2.48,1.38,3.34,0,0,0,.01,.01,.02s.01,0,.02,.01c.86,.85,2.04,1.38,3.34,1.38h10c1.3,0,2.48-.53,3.34-1.38,0,0,.01,0,.02-.01s0-.01,.01-.02c.85-.86,1.38-2.04,1.38-3.34V7Zm-4.36,9.33c.22-.4,.36-.85,.36-1.33v-6c0-.49-.14-.93-.36-1.33l2.37-2.37c.31,.5,.49,1.07,.49,1.7v10c0,.62-.19,1.2-.49,1.7l-2.37-2.37Zm-13.15,2.37c-.31-.5-.49-1.07-.49-1.7V7c0-.62,.19-1.2,.49-1.7l2.37,2.37c-.22,.4-.36,.85-.36,1.33v6c0,.49,.14,.93,.36,1.33l-2.37,2.37Zm12.01-9.7v2.25H7.75v-2.25c0-.69,.56-1.25,1.25-1.25h6c.69,0,1.25,.56,1.25,1.25ZM7.75,15v-2.25h8.5v2.25c0,.69-.56,1.25-1.25,1.25h-6c-.69,0-1.25-.56-1.25-1.25ZM17,3.75c.62,0,1.2,.19,1.7,.49l-2.37,2.37c-.4-.22-.85-.36-1.33-.36h-6c-.49,0-.93,.14-1.33,.36l-2.37-2.37c.5-.31,1.07-.49,1.7-.49h10ZM7,20.25c-.62,0-1.2-.19-1.7-.49l2.37-2.37c.4,.22,.85,.36,1.33,.36h6c.49,0,.93-.14,1.33-.36l2.37,2.37c-.5,.31-1.07,.49-1.7,.49H7Z"/></g><g id="s"/><g id="t"/><g id="u"/></svg>