<?xml version="1.0" encoding="UTF-8"?><svg xmlns="http://www.w3.org/2000/svg" viewBox="0 0 24 24"><g id="a"/><g id="b"/><g id="c"/><g id="d"/><g id="e"/><g id="f"/><g id="g"/><g id="h"/><g id="i"/><g id="j"/><g id="k"/><g id="l"/><g id="m"/><g id="n"/><g id="o"/><g id="p"/><g id="q"><g><path d="M19,4.25h-7c-1.52,0-2.75,1.23-2.75,2.75v7c0,1.52,1.23,2.75,2.75,2.75h7c1.52,0,2.75-1.23,2.75-2.75V7c0-1.52-1.23-2.75-2.75-2.75Zm1.25,9.75c0,.69-.56,1.25-1.25,1.25h-7c-.69,0-1.25-.56-1.25-1.25V7c0-.69,.56-1.25,1.25-1.25h7c.69,0,1.25,.56,1.25,1.25v7Z"/><path d="M21,18.25H9.63c-.26-.91-.97-1.62-1.88-1.88V5c0-1.52-1.23-2.75-2.75-2.75h-1c-.41,0-.75,.34-.75,.75s.34,.75,.75,.75h1c.69,0,1.25,.56,1.25,1.25v11.37c-1.15,.33-2,1.38-2,2.63,0,1.52,1.23,2.75,2.75,2.75,1.25,0,2.3-.85,2.63-2h11.37c.41,0,.75-.34,.75-.75s-.34-.75-.75-.75Zm-14,2c-.69,0-1.25-.56-1.25-1.25s.56-1.25,1.25-1.25,1.25,.56,1.25,1.25-.56,1.25-1.25,1.25Z"/></g></g><g id="r"/><g id="s"/><g id="t"/><g id="u"/></svg>