<?xml version="1.0" encoding="UTF-8"?><svg xmlns="http://www.w3.org/2000/svg" viewBox="0 0 24 24"><g id="a"/><g id="b"><g><path d="M12,2.25C6.62,2.25,2.25,6.62,2.25,12s4.37,9.75,9.75,9.75,9.75-4.37,9.75-9.75S17.38,2.25,12,2.25Zm.75,17.96v-1.21c0-.41-.34-.75-.75-.75s-.75,.34-.75,.75v1.21c-3.95-.36-7.1-3.51-7.46-7.46h1.21c.41,0,.75-.34,.75-.75s-.34-.75-.75-.75h-1.21c.36-3.95,3.51-7.1,7.46-7.46v1.21c0,.41,.34,.75,.75,.75s.75-.34,.75-.75v-1.21c3.95,.36,7.1,3.51,7.46,7.46h-1.21c-.41,0-.75,.34-.75,.75s.34,.75,.75,.75h1.21c-.36,3.95-3.51,7.1-7.46,7.46Z"/><path d="M14.88,9.13l-2.69,1.83-2.39-3.51c-.23-.34-.7-.43-1.04-.2-.34,.23-.43,.7-.2,1.04l2.81,4.13c.15,.21,.38,.33,.62,.33,.14,0,.29-.04,.42-.13l3.31-2.25c.34-.23,.43-.7,.2-1.04-.23-.34-.7-.43-1.04-.2Z"/></g></g><g id="c"/><g id="d"/><g id="e"/><g id="f"/><g id="g"/><g id="h"/><g id="i"/><g id="j"/><g id="k"/><g id="l"/><g id="m"/><g id="n"/><g id="o"/><g id="p"/><g id="q"/><g id="r"/><g id="s"/><g id="t"/><g id="u"/></svg>