<?xml version="1.0" encoding="UTF-8"?><svg xmlns="http://www.w3.org/2000/svg" viewBox="0 0 24 24"><g id="a"/><g id="b"/><g id="c"/><g id="d"/><g id="e"/><g id="f"/><g id="g"/><g id="h"/><g id="i"><path d="M20.65,10.8l-2.67-2c-.47-.36-1.06-.55-1.65-.55h-2.58v-1.25c0-.96-.79-1.75-1.75-1.75H4c-.96,0-1.75,.79-1.75,1.75V15c0,.96,.79,1.75,1.75,1.75h1.37c.33,1.15,1.38,2,2.63,2s2.3-.85,2.63-2h3.73c.33,1.15,1.38,2,2.63,2s2.3-.85,2.63-2h.37c.96,0,1.75-.79,1.75-1.75v-2c0-.86-.41-1.68-1.1-2.2ZM3.75,15V7c0-.14,.11-.25,.25-.25H12c.14,0,.25,.11,.25,.25V15.25h-1.62c-.33-1.15-1.38-2-2.63-2s-2.3,.85-2.63,2h-1.37c-.14,0-.25-.11-.25-.25Zm4.25,2.25c-.69,0-1.25-.56-1.25-1.25s.56-1.25,1.25-1.25,1.25,.56,1.25,1.25-.56,1.25-1.25,1.25Zm9,0c-.69,0-1.25-.56-1.25-1.25s.56-1.25,1.25-1.25,1.25,.56,1.25,1.25-.56,1.25-1.25,1.25Zm3.25-2.25c0,.14-.11,.25-.25,.25h-.37c-.33-1.15-1.38-2-2.63-2s-2.3,.85-2.63,2h-.62v-5.5h2.58c.27,0,.54,.09,.75,.25l2.67,2c.31,.23,.5,.61,.5,1v2Z"/></g><g id="j"/><g id="k"/><g id="l"/><g id="m"/><g id="n"/><g id="o"/><g id="p"/><g id="q"/><g id="r"/><g id="s"/><g id="t"/><g id="u"/></svg>