<?xml version="1.0" encoding="UTF-8"?><svg xmlns="http://www.w3.org/2000/svg" viewBox="0 0 24 24"><g id="a"/><g id="b"/><g id="c"/><g id="d"/><g id="e"/><g id="f"/><g id="g"/><g id="h"/><g id="i"/><g id="j"/><g id="k"/><g id="l"/><g id="m"><path d="M12.75,4.29v-1.29c0-.41-.34-.75-.75-.75s-.75,.34-.75,.75v1.29c-5.03,.39-9,4.59-9,9.71,0,.28,.16,.54,.42,.67,.25,.13,.56,.1,.79-.07,.99-.74,2.02-.85,2.55-.85,1.23,0,2.13,.53,2.55,.85,.27,.2,.63,.2,.9,0,.64-.48,1.31-.7,1.84-.79-.02,.06-.04,.12-.04,.19v5.5c0,.41-.34,.75-.75,.75s-.75-.34-.75-.75-.34-.75-.75-.75-.75,.34-.75,.75c0,1.24,1.01,2.25,2.25,2.25s2.25-1.01,2.25-2.25v-5.5c0-.06-.02-.12-.04-.18,.86,.15,1.5,.53,1.84,.78,.27,.2,.63,.2,.9,0,.99-.74,2.02-.85,2.55-.85,1.23,0,2.13,.53,2.55,.85,.13,.1,.29,.15,.45,.15,.11,0,.23-.03,.33-.08,.25-.13,.42-.39,.42-.67,0-5.12-3.97-9.33-9-9.71Zm5.25,7.96c-.64,0-1.81,.12-3,.85-.66-.4-1.69-.85-3-.85-.64,0-1.81,.12-3,.85-.66-.4-1.69-.85-3-.85-.48,0-1.27,.07-2.14,.42,.64-3.92,4.05-6.92,8.14-6.92s7.5,3,8.14,6.92c-.58-.23-1.31-.42-2.14-.42Z"/></g><g id="n"/><g id="o"/><g id="p"/><g id="q"/><g id="r"/><g id="s"/><g id="t"/><g id="u"/></svg>