<?xml version="1.0" encoding="UTF-8"?><svg xmlns="http://www.w3.org/2000/svg" viewBox="0 0 24 24"><g id="a"/><g id="b"/><g id="c"/><g id="d"/><g id="e"/><g id="f"/><g id="g"/><g id="h"/><g id="i"/><g id="j"/><g id="k"/><g id="l"/><g id="m"/><g id="n"><g><path d="M20,15.25H4c-.96,0-1.75,.79-1.75,1.75v2c0,.96,.79,1.75,1.75,1.75H20c.96,0,1.75-.79,1.75-1.75v-2c0-.96-.79-1.75-1.75-1.75Zm.25,3.75c0,.14-.11,.25-.25,.25H4c-.14,0-.25-.11-.25-.25v-2c0-.14,.11-.25,.25-.25H20c.14,0,.25,.11,.25,.25v2Z"/><path d="M4.53,7.53l1.72-1.72v7.19c0,.41,.34,.75,.75,.75s.75-.34,.75-.75V5.81l1.72,1.72c.15,.15,.34,.22,.53,.22s.38-.07,.53-.22c.29-.29,.29-.77,0-1.06l-3-3c-.29-.29-.77-.29-1.06,0l-3,3c-.29,.29-.29,.77,0,1.06s.77,.29,1.06,0Z"/><path d="M14.53,7.53l1.72-1.72v7.19c0,.41,.34,.75,.75,.75s.75-.34,.75-.75V5.81l1.72,1.72c.15,.15,.34,.22,.53,.22s.38-.07,.53-.22c.29-.29,.29-.77,0-1.06l-3-3c-.29-.29-.77-.29-1.06,0l-3,3c-.29,.29-.29,.77,0,1.06s.77,.29,1.06,0Z"/></g></g><g id="o"/><g id="p"/><g id="q"/><g id="r"/><g id="s"/><g id="t"/><g id="u"/></svg>