<?xml version="1.0" encoding="UTF-8"?><svg xmlns="http://www.w3.org/2000/svg" viewBox="0 0 24 24"><g id="a"/><g id="b"/><g id="c"/><g id="d"><g><path d="M20.49,8.54L14.49,3.21c-1.42-1.26-3.56-1.26-4.98,0L3.51,8.54c-.8,.71-1.26,1.73-1.26,2.8v6.65c0,2.07,1.68,3.75,3.75,3.75h12c2.07,0,3.75-1.68,3.75-3.75v-6.65c0-1.07-.46-2.09-1.26-2.8Zm-4.24,11.71H7.75v-6.25c0-.69,.56-1.25,1.25-1.25h6c.69,0,1.25,.56,1.25,1.25v6.25Zm4-2.25c0,1.24-1.01,2.25-2.25,2.25h-.25v-6.25c0-1.52-1.23-2.75-2.75-2.75h-6c-1.52,0-2.75,1.23-2.75,2.75v6.25h-.25c-1.24,0-2.25-1.01-2.25-2.25v-6.65c0-.64,.28-1.26,.75-1.68l6-5.33c.43-.38,.96-.57,1.5-.57s1.07,.19,1.5,.57l6,5.33c.48,.43,.75,1.04,.75,1.68v6.65Z"/><path d="M14,8.25h-4c-.41,0-.75,.34-.75,.75s.34,.75,.75,.75h4c.41,0,.75-.34,.75-.75s-.34-.75-.75-.75Z"/></g></g><g id="e"/><g id="f"/><g id="g"/><g id="h"/><g id="i"/><g id="j"/><g id="k"/><g id="l"/><g id="m"/><g id="n"/><g id="o"/><g id="p"/><g id="q"/><g id="r"/><g id="s"/><g id="t"/><g id="u"/></svg>