<?xml version="1.0" encoding="UTF-8"?><svg xmlns="http://www.w3.org/2000/svg" viewBox="0 0 24 24"><g id="a"/><g id="b"/><g id="c"/><g id="d"/><g id="e"/><g id="f"><g><path d="M8.87,10.34l-1.94,2.91h10.14l-1.94-2.91c-.25-.37-.38-.8-.38-1.25V3.75h.25c.41,0,.75-.34,.75-.75s-.34-.75-.75-.75h-6c-.41,0-.75,.34-.75,.75s.34,.75,.75,.75h.25v5.34c0,.45-.13,.88-.38,1.25Z"/><path d="M20.37,18.2l-2.3-3.45H5.93l-2.3,3.45c-.25,.38-.38,.81-.38,1.27,0,1.26,1.02,2.29,2.29,2.29h12.93c1.26,0,2.29-1.03,2.29-2.29,0-.45-.13-.89-.38-1.27Z"/></g></g><g id="g"/><g id="h"/><g id="i"/><g id="j"/><g id="k"/><g id="l"/><g id="m"/><g id="n"/><g id="o"/><g id="p"/><g id="q"/><g id="r"/><g id="s"/><g id="t"/><g id="u"/></svg>