<?xml version="1.0" encoding="UTF-8"?><svg xmlns="http://www.w3.org/2000/svg" viewBox="0 0 24 24"><g id="a"/><g id="b"/><g id="c"/><g id="d"/><g id="e"/><g id="f"/><g id="g"/><g id="h"/><g id="i"/><g id="j"><g><path d="M18,11.25h-.25v-2.6c1.43-.34,2.5-1.62,2.5-3.15,0-1.79-1.46-3.25-3.25-3.25s-3.25,1.46-3.25,3.25c0,1.53,1.07,2.81,2.5,3.15v2.6h-.25c-.96,0-1.75,.79-1.75,1.75v6c0,1.52,1.23,2.75,2.75,2.75s2.75-1.23,2.75-2.75v-6c0-.96-.79-1.75-1.75-1.75Z"/><path d="M9,11.25h-.25v-2.08c0-.57-.28-1.1-.74-1.43l-1.85-1.31c-.2-.14-.32-.37-.32-.61s.12-.47,.32-.61l2.27-1.6c.34-.24,.42-.71,.18-1.04-.24-.34-.71-.42-1.05-.18l-2.27,1.6c-.6,.42-.95,1.11-.95,1.84s.36,1.42,.95,1.84l1.85,1.31c.07,.05,.11,.12,.11,.2v2.08h-.25c-.96,0-1.75,.79-1.75,1.75v6c0,1.52,1.23,2.75,2.75,2.75s2.75-1.23,2.75-2.75v-6c0-.96-.79-1.75-1.75-1.75Z"/></g></g><g id="k"/><g id="l"/><g id="m"/><g id="n"/><g id="o"/><g id="p"/><g id="q"/><g id="r"/><g id="s"/><g id="t"/><g id="u"/></svg>