<?xml version="1.0" encoding="UTF-8"?><svg xmlns="http://www.w3.org/2000/svg" viewBox="0 0 24 24"><g id="a"/><g id="b"/><g id="c"/><g id="d"/><g id="e"/><g id="f"/><g id="g"/><g id="h"/><g id="i"><g><path d="M12.69,4.88c-.28-.28-.78-.28-1.06,0L3.49,13.02c-1.66,1.66-1.66,4.35,0,6.01,.83,.83,1.92,1.24,3.01,1.24s2.18-.41,3.01-1.24l.51-.51-.53-.57-2.1-2.1c-.29-.29-.29-.77,0-1.06s.77-.29,1.06,0l2.12,2.12,.51,.55,1.1-1.1-2.67-2.63c-.29-.29-.29-.77,0-1.06s.77-.29,1.06,0l2.12,2.12,.54,.52,1.02-1.02-.53-.6-2.09-2.09c-.29-.29-.29-.77,0-1.06s.77-.29,1.06,0l2.12,2.12,.5,.56,2.33-2.33c.29-.29,.29-.77,0-1.06l-4.95-4.95Z"/><path d="M21.95,16.86l-1.26-3.14c-.23-.57-1.16-.57-1.39,0l-1.26,3.14c-.26,.65-.18,1.38,.21,1.96,.39,.58,1.04,.92,1.74,.92s1.35-.35,1.74-.92c.39-.58,.47-1.31,.21-1.96Z"/><path d="M13.75,3.82l4.95,4.95c.42,.42,.66,.99,.66,1.59,0,.08-.02,.17-.02,.25l.43-.43c.68-.68,.68-1.79,0-2.48L14.81,2.76c-.68-.68-1.79-.68-2.48,0l-.44,.44c.09,0,.17-.03,.26-.03,.6,0,1.18,.24,1.59,.65Z"/></g></g><g id="j"/><g id="k"/><g id="l"/><g id="m"/><g id="n"/><g id="o"/><g id="p"/><g id="q"/><g id="r"/><g id="s"/><g id="t"/><g id="u"/></svg>