<?xml version="1.0" encoding="UTF-8"?><svg xmlns="http://www.w3.org/2000/svg" viewBox="0 0 24 24"><g id="a"/><g id="b"><g><path d="M16.84,4.29c-.11-.56-.48-1.03-1-1.25-3.69-1.58-7.9-.76-10.73,2.07S1.46,12.15,3.04,15.84c.22,.52,.69,.9,1.25,1,.11,.02,.23,.03,.34,.03,.46,0,.91-.18,1.25-.52L16.36,5.87c.41-.41,.59-1.01,.48-1.58Z"/><path d="M20.96,8.16c-.22-.52-.69-.9-1.25-1-.58-.11-1.17,.07-1.58,.48L7.64,18.13c-.41,.41-.59,1.01-.48,1.58,.11,.56,.48,1.03,1,1.25,1.25,.53,2.56,.79,3.85,.79,2.53,0,5.01-.99,6.88-2.86,2.83-2.83,3.65-7.05,2.07-10.73Z"/></g></g><g id="c"/><g id="d"/><g id="e"/><g id="f"/><g id="g"/><g id="h"/><g id="i"/><g id="j"/><g id="k"/><g id="l"/><g id="m"/><g id="n"/><g id="o"/><g id="p"/><g id="q"/><g id="r"/><g id="s"/><g id="t"/><g id="u"/></svg>