<?xml version="1.0" encoding="UTF-8"?><svg xmlns="http://www.w3.org/2000/svg" viewBox="0 0 24 24"><g id="a"/><g id="b"/><g id="c"><g><path d="M4.33,15.63l-.26,.78c-.11,.33-.3,.63-.54,.88l-.56,.56c-.42,.42-.66,.99-.66,1.59s.23,1.17,.66,1.59,.99,.66,1.59,.66,1.17-.23,1.59-.66l.56-.56c.25-.25,.55-.43,.88-.54l.78-.26c.55-.18,1.06-.5,1.47-.91l4.01-4.01H4.78c-.18,.27-.34,.57-.44,.88Z"/><path d="M12.67,7.8c-.28-.28-.78-.28-1.06,0l-5.45,5.45H15.35l.86-.86c.14-.14,.22-.33,.22-.53s-.08-.39-.22-.53l-3.54-3.54Z"/><path d="M20.8,3.2c-1.27-1.27-3.33-1.27-4.6,0l-1.94,1.94-.18-.18c-.33-.33-.77-.51-1.24-.51h0c-.47,0-.91,.18-1.24,.51l-.71,.71c-.34,.34-.5,.78-.51,1.22l.16-.16c.41-.41,.99-.65,1.59-.65s1.18,.24,1.59,.65l3.54,3.54c.42,.42,.66,.99,.66,1.59s-.23,1.17-.66,1.59l-.16,.16c.44,0,.88-.17,1.22-.51l.71-.71c.33-.33,.51-.77,.51-1.24s-.18-.91-.51-1.24l-.18-.18,1.94-1.94c1.27-1.27,1.27-3.33,0-4.6Z"/></g></g><g id="d"/><g id="e"/><g id="f"/><g id="g"/><g id="h"/><g id="i"/><g id="j"/><g id="k"/><g id="l"/><g id="m"/><g id="n"/><g id="o"/><g id="p"/><g id="q"/><g id="r"/><g id="s"/><g id="t"/><g id="u"/></svg>