<?xml version="1.0" encoding="UTF-8"?><svg xmlns="http://www.w3.org/2000/svg" viewBox="0 0 24 24"><g id="a"/><g id="b"/><g id="c"/><g id="d"/><g id="e"/><g id="f"/><g id="g"/><g id="h"/><g id="i"/><g id="j"/><g id="k"/><g id="l"/><g id="m"><g><path d="M10.76,6.17l-.51-.55-4.59,4.59,.53,.58,7.05,7.05,.51,.55,4.62-4.62-.53-.52-7.08-7.07Zm-1.57,6.58c-.41,0-.75-.34-.75-.75s.33-.75,.75-.75h0c.42,0,.75,.34,.75,.75s-.33,.75-.75,.75Zm2.83,2.83c-.41,0-.75-.34-.75-.75s.33-.75,.75-.75h0c.42,0,.75,.34,.75,.75s-.33,.75-.75,.75Zm0-2.83c-.41,0-.75-.34-.75-.75s.33-.75,.75-.75h0c.42,0,.75,.34,.75,.75s-.33,.75-.75,.75Zm0-2.83c-.41,0-.75-.34-.75-.75s.33-.75,.75-.75h0c.42,0,.75,.34,.75,.75s-.33,.75-.75,.75Zm2.83,2.83c-.41,0-.75-.34-.75-.75s.33-.75,.75-.75h0c.42,0,.75,.34,.75,.75s-.33,.75-.75,.75Z"/><path d="M20.31,3.69c-2.24-2.24-5.89-2.24-8.13,0l-.87,.87,.53,.56,7.61,7.57,.86-.86c2.24-2.24,2.24-5.89,0-8.13Z"/><path d="M5.11,11.82l-.51-.55-.91,.91c-2.24,2.24-2.24,5.89,0,8.13,1.12,1.12,2.59,1.68,4.07,1.68s2.95-.56,4.07-1.68l.86-.86-.53-.58-7.05-7.05Z"/></g></g><g id="n"/><g id="o"/><g id="p"/><g id="q"/><g id="r"/><g id="s"/><g id="t"/><g id="u"/></svg>