<?xml version="1.0" encoding="UTF-8"?><svg xmlns="http://www.w3.org/2000/svg" viewBox="0 0 24 24"><g id="a"/><g id="b"/><g id="c"/><g id="d"/><g id="e"/><g id="f"/><g id="g"/><g id="h"/><g id="i"/><g id="j"/><g id="k"/><g id="l"><path d="M14,2.25h-4c-2.07,0-3.75,1.68-3.75,3.75v.25h3.75c.41,0,.75,.34,.75,.75s-.34,.75-.75,.75h-3.75v1.5h3.75c.41,0,.75,.34,.75,.75s-.34,.75-.75,.75h-3.75v1.5h3.75c.41,0,.75,.34,.75,.75s-.34,.75-.75,.75h-3.75v.25c0,2.07,1.68,3.75,3.75,3.75h1.05c-.1,.71,.01,1.29,.37,1.72,.55,.67,1.41,.73,2.1,.78,.28,.02,.74,.05,.83,.13,0,0,.04,.1-.06,.37-.14,.39,.07,.82,.46,.96,.08,.03,.17,.04,.25,.04,.31,0,.6-.19,.71-.5,.22-.63,.2-1.18-.06-1.63-.45-.76-1.33-.82-2.03-.87-.4-.03-.9-.06-1.03-.23-.08-.09-.11-.35-.02-.78h1.44c2.07,0,3.75-1.68,3.75-3.75V6c0-2.07-1.68-3.75-3.75-3.75Z"/></g><g id="m"/><g id="n"/><g id="o"/><g id="p"/><g id="q"/><g id="r"/><g id="s"/><g id="t"/><g id="u"/></svg>