<?xml version="1.0" encoding="UTF-8"?><svg xmlns="http://www.w3.org/2000/svg" viewBox="0 0 24 24"><g id="a"/><g id="b"/><g id="c"/><g id="d"/><g id="e"/><g id="f"/><g id="g"/><g id="h"/><g id="i"/><g id="j"/><g id="k"/><g id="l"/><g id="m"/><g id="n"/><g id="o"/><g id="p"><path d="M17,2.25H7c-2.62,0-4.75,2.13-4.75,4.75v10c0,2.62,2.13,4.75,4.75,4.75h10c2.62,0,4.75-2.13,4.75-4.75V7c0-2.62-2.13-4.75-4.75-4.75ZM7.02,18.75c-.41,0-.75-.34-.75-.75s.33-.75,.74-.75h.01c.41,0,.75,.34,.75,.75s-.34,.75-.75,.75Zm3,0c-.41,0-.75-.34-.75-.75s.33-.75,.74-.75h.01c.41,0,.75,.34,.75,.75s-.34,.75-.75,.75Zm6.98-8h-1.46l-.83,2.49c-.1,.29-.36,.49-.66,.51-.02,0-.04,0-.05,0-.28,0-.54-.16-.67-.41l-2.42-4.84-1.28,1.92c-.14,.21-.37,.33-.62,.33h-2c-.41,0-.75-.34-.75-.75s.34-.75,.75-.75h1.6l1.78-2.67c.15-.22,.4-.35,.67-.33,.27,.02,.5,.17,.62,.41l2.19,4.38,.43-1.28c.1-.31,.39-.51,.71-.51h2c.41,0,.75,.34,.75,.75s-.34,.75-.75,.75Z"/></g><g id="q"/><g id="r"/><g id="s"/><g id="t"/><g id="u"/></svg>