<?xml version="1.0" encoding="UTF-8"?><svg xmlns="http://www.w3.org/2000/svg" viewBox="0 0 24 24"><g id="a"/><g id="b"/><g id="c"/><g id="d"><g><path d="M18.07,11.25H3.93c-.47,0-.91,.18-1.24,.51-.33,.33-.52,.78-.52,1.26,0,.36,.03,.73,.08,1.08,.28,1.89,1.21,3.29,1.94,4.12,.04,.04,.05,.09,.05,.15v.62c0,.96,.79,1.75,1.75,1.75h10c.96,0,1.75-.79,1.75-1.75v-.62c0-.06,.02-.11,.05-.15,.73-.84,1.66-2.24,1.94-4.12,.05-.35,.08-.72,.08-1.09,0-.48-.18-.93-.52-1.26s-.77-.51-1.24-.51Z"/><path d="M21.09,3.91c-.88-.88-2.3-.88-3.18,0l-5.84,5.84h6c.11,0,.22,.02,.33,.03l2.69-2.69c.88-.88,.88-2.3,0-3.18Z"/></g></g><g id="e"/><g id="f"/><g id="g"/><g id="h"/><g id="i"/><g id="j"/><g id="k"/><g id="l"/><g id="m"/><g id="n"/><g id="o"/><g id="p"/><g id="q"/><g id="r"/><g id="s"/><g id="t"/><g id="u"/></svg>