<?xml version="1.0" encoding="UTF-8"?><svg xmlns="http://www.w3.org/2000/svg" viewBox="0 0 24 24"><g id="a"/><g id="b"/><g id="c"/><g id="d"/><g id="e"><path d="M21.53,2.47c-.27-.27-.69-.29-.99-.06L9.89,10.69c-.02-.97-.4-1.88-1.09-2.56-1.42-1.42-3.89-1.42-5.3,0-.71,.71-1.1,1.65-1.1,2.65s.39,1.94,1.1,2.65,1.65,1.1,2.65,1.1,1.87-.37,2.57-1.03h.01l7.99-6.22-6.22,7.99s0,.01,0,.02c-1.38,1.47-1.37,3.78,.07,5.22,.71,.71,1.65,1.1,2.65,1.1s1.94-.39,2.65-1.1c1.46-1.46,1.46-3.84,0-5.3-.71-.71-1.63-1.07-2.56-1.09L21.59,3.46c.23-.3,.21-.72-.06-.99Z"/></g><g id="f"/><g id="g"/><g id="h"/><g id="i"/><g id="j"/><g id="k"/><g id="l"/><g id="m"/><g id="n"/><g id="o"/><g id="p"/><g id="q"/><g id="r"/><g id="s"/><g id="t"/><g id="u"/></svg>