<?xml version="1.0" encoding="UTF-8"?><svg xmlns="http://www.w3.org/2000/svg" viewBox="0 0 24 24"><g id="a"/><g id="b"/><g id="c"/><g id="d"/><g id="e"/><g id="f"/><g id="g"/><g id="h"><path d="M19,8.25c-1.52,0-2.75,1.23-2.75,2.75,0,1.25,.85,2.3,2,2.63v1.87c0,2.62-2.13,4.75-4.75,4.75s-4.75-2.13-4.75-4.75v-1.8c2.82-.37,5-2.78,5-5.7v-3c0-.96-.79-1.75-1.75-1.75h-.25v-.25c0-.41-.34-.75-.75-.75s-.75,.34-.75,.75v2c0,.41,.34,.75,.75,.75s.75-.34,.75-.75v-.25h.25c.14,0,.25,.11,.25,.25v3c0,2.34-1.91,4.25-4.25,4.25s-4.25-1.91-4.25-4.25v-3c0-.14,.11-.25,.25-.25h.25v.25c0,.41,.34,.75,.75,.75s.75-.34,.75-.75V3c0-.41-.34-.75-.75-.75s-.75,.34-.75,.75v.25h-.25c-.96,0-1.75,.79-1.75,1.75v3c0,2.92,2.18,5.33,5,5.7v1.8c0,3.45,2.8,6.25,6.25,6.25s6.25-2.8,6.25-6.25v-1.87c1.15-.33,2-1.38,2-2.63,0-1.52-1.23-2.75-2.75-2.75Z"/></g><g id="i"/><g id="j"/><g id="k"/><g id="l"/><g id="m"/><g id="n"/><g id="o"/><g id="p"/><g id="q"/><g id="r"/><g id="s"/><g id="t"/><g id="u"/></svg>