<?xml version="1.0" encoding="UTF-8"?><svg xmlns="http://www.w3.org/2000/svg" viewBox="0 0 24 24"><g id="a"/><g id="b"/><g id="c"/><g id="d"/><g id="e"/><g id="f"/><g id="g"/><g id="h"/><g id="i"/><g id="j"/><g id="k"/><g id="l"/><g id="m"/><g id="n"/><g id="o"/><g id="p"/><g id="q"><g><path d="M8.1,14.65c-.32,0-.64,.12-.88,.37-.24,.24-.37,.55-.37,.88s.13,.65,.37,.88c.49,.49,1.28,.49,1.77,0,.24-.24,.37-.55,.37-.88s-.13-.65-.37-.88c-.24-.24-.56-.37-.88-.37Z"/><path d="M21.75,6c0-1-.39-1.94-1.1-2.65-.71-.71-1.65-1.1-2.65-1.1s-1.94,.39-2.65,1.1l-6.82,6.82c-2.03-.15-3.99,.78-5.18,2.49-1.31,1.89-1.35,4.44-.09,6.35,.97,1.48,2.52,2.43,4.25,2.61,.2,.02,.4,.03,.6,.03,1.52,0,2.97-.6,4.06-1.68,1.2-1.2,1.8-2.82,1.67-4.5l6.82-6.82c.71-.71,1.1-1.65,1.1-2.65Zm-3.22,.53L10.49,14.57c.23,.4,.36,.86,.36,1.33,0,.73-.29,1.43-.81,1.94-.54,.54-1.24,.8-1.94,.8s-1.41-.27-1.94-.8c-.52-.52-.81-1.21-.81-1.94s.29-1.43,.81-1.94c.89-.89,2.23-1.03,3.28-.45L17.47,5.47c.29-.29,.77-.29,1.06,0s.29,.77,0,1.06Z"/></g></g><g id="r"/><g id="s"/><g id="t"/><g id="u"/></svg>