<?xml version="1.0" encoding="UTF-8"?><svg xmlns="http://www.w3.org/2000/svg" viewBox="0 0 24 24"><defs><style>.v{fill:#231f20;}</style></defs><g id="a"/><g id="b"/><g id="c"/><g id="d"><g><path class="v" d="M12,2.25C6.62,2.25,2.25,6.62,2.25,12s4.37,9.75,9.75,9.75,9.75-4.37,9.75-9.75S17.38,2.25,12,2.25Zm0,18c-4.55,0-8.25-3.7-8.25-8.25S7.45,3.75,12,3.75s8.25,3.7,8.25,8.25-3.7,8.25-8.25,8.25Z"/><path class="v" d="M12,6.25c-1.52,0-2.75,1.23-2.75,2.75,0,.41,.34,.75,.75,.75s.75-.34,.75-.75c0-.69,.56-1.25,1.25-1.25s1.25,.56,1.25,1.25c0,.4-.19,.77-.51,1.01-.95,.69-1.49,1.69-1.49,2.73v.26c0,.41,.34,.75,.75,.75s.75-.34,.75-.75v-.26c0-.76,.55-1.28,.88-1.52,.7-.52,1.12-1.35,1.12-2.22,0-1.52-1.23-2.75-2.75-2.75Z"/><path class="v" d="M12,15.25c-.41,0-.75,.34-.75,.75v.84c0,.41,.34,.75,.75,.75s.75-.34,.75-.75v-.84c0-.41-.34-.75-.75-.75Z"/></g></g><g id="e"/><g id="f"/><g id="g"/><g id="h"/><g id="i"/><g id="j"/><g id="k"/><g id="l"/><g id="m"/><g id="n"/><g id="o"/><g id="p"/><g id="q"/><g id="r"/><g id="s"/><g id="t"/><g id="u"/></svg>