<?xml version="1.0" encoding="UTF-8"?><svg xmlns="http://www.w3.org/2000/svg" viewBox="0 0 24 24"><defs><style>.v{fill:#231f20;}</style></defs><g id="a"/><g id="b"/><g id="c"/><g id="d"/><g id="e"/><g id="f"/><g id="g"><g><path class="v" d="M21.75,6c0-1.52-1.23-2.75-2.75-2.75H5c-1.52,0-2.75,1.23-2.75,2.75,0,1.25,.85,2.3,2,2.63v7.37c0,2.62,2.13,4.75,4.75,4.75h6c2.62,0,4.75-2.13,4.75-4.75v-7.37c1.15-.33,2-1.38,2-2.63Zm-6.75,13.25h-6c-1.79,0-3.25-1.46-3.25-3.25v-7.25h12.5v7.25c0,1.79-1.46,3.25-3.25,3.25Zm4-12H5c-.69,0-1.25-.56-1.25-1.25s.56-1.25,1.25-1.25h14c.69,0,1.25,.56,1.25,1.25s-.56,1.25-1.25,1.25Z"/><path class="v" d="M15,11.25h-6c-.41,0-.75,.34-.75,.75s.34,.75,.75,.75h6c.41,0,.75-.34,.75-.75s-.34-.75-.75-.75Z"/></g></g><g id="h"/><g id="i"/><g id="j"/><g id="k"/><g id="l"/><g id="m"/><g id="n"/><g id="o"/><g id="p"/><g id="q"/><g id="r"/><g id="s"/><g id="t"/><g id="u"/></svg>