<?xml version="1.0" encoding="UTF-8"?><svg xmlns="http://www.w3.org/2000/svg" viewBox="0 0 24 24"><defs><style>.v{fill:#231f20;}</style></defs><g id="a"/><g id="b"/><g id="c"/><g id="d"/><g id="e"/><g id="f"/><g id="g"/><g id="h"/><g id="i"/><g id="j"/><g id="k"/><g id="l"/><g id="m"/><g id="n"/><g id="o"/><g id="p"><g><path class="v" d="M18.36,7.86c.26-.43,.39-.92,.39-1.42v-1.45c0-1.52-1.23-2.75-2.75-2.75H8c-1.52,0-2.75,1.23-2.75,2.75v1.45c0,.5,.14,.99,.39,1.42l2.1,3.5c.24,.4,.24,.89,0,1.29l-2.1,3.5c-.26,.43-.39,.92-.39,1.42v1.45c0,1.52,1.23,2.75,2.75,2.75h8c1.52,0,2.75-1.23,2.75-2.75v-1.45c0-.5-.14-.99-.39-1.42l-2.1-3.5c-.24-.4-.24-.89,0-1.29l2.1-3.5Zm-3.38,5.55l2.1,3.5c.12,.19,.18,.42,.18,.64v1.45c0,.69-.56,1.25-1.25,1.25H8c-.69,0-1.25-.56-1.25-1.25v-1.45c0-.23,.06-.45,.18-.64l2.1-3.5c.52-.87,.52-1.96,0-2.83l-2.1-3.5c-.12-.19-.18-.42-.18-.64v-1.45c0-.69,.56-1.25,1.25-1.25h8c.69,0,1.25,.56,1.25,1.25v1.45c0,.23-.06,.45-.18,.64l-2.1,3.5c-.52,.87-.52,1.96,0,2.83Z"/><path class="v" d="M14,17.25h-4c-.41,0-.75,.34-.75,.75s.34,.75,.75,.75h4c.41,0,.75-.34,.75-.75s-.34-.75-.75-.75Z"/></g></g><g id="q"/><g id="r"/><g id="s"/><g id="t"/><g id="u"/></svg>