<svg xmlns="http://www.w3.org/2000/svg" viewBox="0 0 32 32"><title>10-Box with arrow up</title><g id="_10-Box_with_arrow_up" data-name="10-Box with arrow up"><path d="M21,1V7H11V1Z" style="fill:#f2f2f2"/><path d="M21,7V9a2.938,2.938,0,0,1-3,3H14a2.938,2.938,0,0,1-3-3V7Z" style="fill:#f2f2f2"/><path d="M31,6V28a2.938,2.938,0,0,1-3,3H4a2.938,2.938,0,0,1-3-3V6A5,5,0,0,1,6,1h5V9a2.938,2.938,0,0,0,3,3h4a2.938,2.938,0,0,0,3-3V1h5A5,5,0,0,1,31,6Z" style="fill:#c1c5c8"/><path d="M26,0H6A6.006,6.006,0,0,0,0,6V28a3.887,3.887,0,0,0,4,4H28a3.888,3.888,0,0,0,4-4V6A6.006,6.006,0,0,0,26,0ZM12,8h8V9a1.882,1.882,0,0,1-2,2H14a1.884,1.884,0,0,1-2-2Zm8-2H12V2h8ZM30,28a1.882,1.882,0,0,1-2,2H4a1.884,1.884,0,0,1-2-2V6A4,4,0,0,1,6,2h4V9a3.887,3.887,0,0,0,4,4h4a3.888,3.888,0,0,0,4-4V2h4a4,4,0,0,1,4,4Z" style="fill:#6f7a7b"/><path d="M12.708,15.294a.99.99,0,0,0-.326-.217,1,1,0,0,0-.764,0,.99.99,0,0,0-.326.217l-2,2a1,1,0,0,0,1.414,1.414L11,18.414V22a1,1,0,0,0,2,0V18.414l.293.293a1,1,0,0,0,1.414-1.414Z" style="fill:#6f7a7b"/><path d="M20.708,15.294a.99.99,0,0,0-.326-.217,1,1,0,0,0-.764,0,.99.99,0,0,0-.326.217l-2,2a1,1,0,0,0,1.414,1.414L19,18.414V22a1,1,0,0,0,2,0V18.414l.293.293a1,1,0,0,0,1.414-1.414Z" style="fill:#6f7a7b"/><circle cx="12" cy="26" r="1" style="fill:#6f7a7b"/><circle cx="20" cy="26" r="1" style="fill:#6f7a7b"/></g></svg>