<svg xmlns="http://www.w3.org/2000/svg" viewBox="0 0 32 32"><title>15-Box</title><g id="_15-Box" data-name="15-Box"><path d="M21,1V7H11V1Z" style="fill:#f2f2f2"/><path d="M21,7V9a2.938,2.938,0,0,1-3,3H14a2.938,2.938,0,0,1-3-3V7Z" style="fill:#f2f2f2"/><path d="M31,6V28a2.938,2.938,0,0,1-3,3H4a2.938,2.938,0,0,1-3-3V6A5,5,0,0,1,6,1h5V9a2.938,2.938,0,0,0,3,3h4a2.938,2.938,0,0,0,3-3V1h5A5,5,0,0,1,31,6Z" style="fill:#c1c5c8"/><path d="M31,19v8a2.006,2.006,0,0,1-2,2H26l-3,2-3-2H17a2.006,2.006,0,0,1-2-2V19a2.006,2.006,0,0,1,2-2H29A2.006,2.006,0,0,1,31,19Z" style="fill:#f2f2f2"/><path d="M26,0H6A6.006,6.006,0,0,0,0,6V28a3.887,3.887,0,0,0,4,4h8a1,1,0,0,0,0-2H4a1.882,1.882,0,0,1-2-2V6A4,4,0,0,1,6,2h4V9a3.887,3.887,0,0,0,4,4h4a3.887,3.887,0,0,0,4-4V2h4a4,4,0,0,1,4,4v7a1,1,0,0,0,2,0V6A6.006,6.006,0,0,0,26,0ZM18,11H14a1.882,1.882,0,0,1-2-2V8h8V9A1.882,1.882,0,0,1,18,11Zm2-5H12V2h8Z" style="fill:#6f7a7b"/><path d="M29,16H17a3,3,0,0,0-3,3v8a3,3,0,0,0,3,3h2.7l2.748,1.832a1,1,0,0,0,1.11,0L26.3,30H29a3,3,0,0,0,3-3V19A3,3,0,0,0,29,16Zm1,11a1,1,0,0,1-1,1H26a1.006,1.006,0,0,0-.555.168L23,29.8l-2.445-1.63A1.006,1.006,0,0,0,20,28H17a1,1,0,0,1-1-1V19a1,1,0,0,1,1-1H29a1,1,0,0,1,1,1Z" style="fill:#6f7a7b"/><circle cx="19" cy="23" r="1" style="fill:#6f7a7b"/><circle cx="23" cy="23" r="1" style="fill:#6f7a7b"/><circle cx="27" cy="23" r="1" style="fill:#6f7a7b"/></g></svg>