<svg xmlns="http://www.w3.org/2000/svg" viewBox="0 0 32 32"><title>16-Delivery</title><g id="_16-Delivery" data-name="16-Delivery"><path d="M21,1V7H11V1Z" style="fill:#f2f2f2"/><path d="M21,7V9a2.938,2.938,0,0,1-3,3H14a2.938,2.938,0,0,1-3-3V7Z" style="fill:#f2f2f2"/><path d="M31,6V28a2.938,2.938,0,0,1-3,3H4a2.938,2.938,0,0,1-3-3V6A5,5,0,0,1,6,1h5V9a2.938,2.938,0,0,0,3,3h4a2.938,2.938,0,0,0,3-3V1h5A5,5,0,0,1,31,6Z" style="fill:#c1c5c8"/><path d="M26,0H6A6.006,6.006,0,0,0,0,6V28a3.887,3.887,0,0,0,4,4h8a1,1,0,0,0,0-2H4a1.884,1.884,0,0,1-2-2V6A4,4,0,0,1,6,2h4V9a3.887,3.887,0,0,0,4,4h4a3.888,3.888,0,0,0,4-4V2h4a4,4,0,0,1,4,4v9a1,1,0,0,0,2,0V6A6.006,6.006,0,0,0,26,0ZM18,11H14a1.884,1.884,0,0,1-2-2V8h8V9A1.882,1.882,0,0,1,18,11Zm2-5H12V2h8Z" style="fill:#6f7a7b"/><path d="M31.706,20.292l-2-2a1,1,0,0,0-1.414,1.414l.293.293H19a1,1,0,0,0,0,2h9.586l-.293.293a1,1,0,1,0,1.414,1.414l2-2a1,1,0,0,0,0-1.416Z" style="fill:#6f7a7b"/><path d="M27,27H17.414l.293-.293a1,1,0,0,0-1.414-1.414l-2,2a1,1,0,0,0,0,1.416l2,2a1,1,0,0,0,1.414-1.414L17.414,29H27a1,1,0,0,0,0-2Z" style="fill:#6f7a7b"/><circle cx="15" cy="21" r="1" style="fill:#6f7a7b"/><circle cx="31" cy="28" r="1" style="fill:#6f7a7b"/></g></svg>