<svg xmlns="http://www.w3.org/2000/svg" viewBox="0 0 32 32"><title>17-Box</title><g id="_17-Box" data-name="17-Box"><path d="M31,6V7H23V1h3A5,5,0,0,1,31,6Z" style="fill:#f2f2f2"/><path d="M31,7v5H26a2.938,2.938,0,0,1-3-3V7Z" style="fill:#f2f2f2"/><rect x="14" y="22" width="4" height="4" rx="1" style="fill:#f2f2f2"/><path d="M31,12V28a2.938,2.938,0,0,1-3,3H4a2.938,2.938,0,0,1-3-3V6A5,5,0,0,1,6,1H23V9a2.938,2.938,0,0,0,3,3ZM18,25V23a1,1,0,0,0-1-1H15a1,1,0,0,0-1,1v2a1,1,0,0,0,1,1h2A1,1,0,0,0,18,25Z" style="fill:#c1c5c8"/><path d="M26,0H6A6.006,6.006,0,0,0,0,6V28a3.887,3.887,0,0,0,4,4H28a3.888,3.888,0,0,0,4-4V6A6.006,6.006,0,0,0,26,0ZM24,8h6v3H26a1.884,1.884,0,0,1-2-2Zm6-2H24V2h2A4,4,0,0,1,30,6ZM28,30H4a1.884,1.884,0,0,1-2-2V6A4,4,0,0,1,6,2H22V9a3.887,3.887,0,0,0,4,4h4V28A1.882,1.882,0,0,1,28,30Z" style="fill:#6f7a7b"/><path d="M17,21H15a2,2,0,0,0-2,2v2a2,2,0,0,0,2,2h2a2,2,0,0,0,2-2V23A2,2,0,0,0,17,21Zm0,4H15V23h2Z" style="fill:#6f7a7b"/><path d="M27,21H22a1,1,0,0,0,0,2h5a1,1,0,0,0,0-2Z" style="fill:#6f7a7b"/><path d="M24,25H22a1,1,0,0,0,0,2h2a1,1,0,0,0,0-2Z" style="fill:#6f7a7b"/><path d="M8.708,5.294a.99.99,0,0,0-.326-.217,1,1,0,0,0-.764,0,.99.99,0,0,0-.326.217l-2,2A1,1,0,0,0,6.707,8.707L7,8.414V14a1,1,0,0,0,2,0V8.414l.293.293a1,1,0,0,0,1.414-1.414Z" style="fill:#6f7a7b"/><path d="M16.708,5.294a.99.99,0,0,0-.326-.217,1,1,0,0,0-.764,0,.99.99,0,0,0-.326.217l-2,2a1,1,0,0,0,1.414,1.414L15,8.414V14a1,1,0,0,0,2,0V8.414l.293.293a1,1,0,0,0,1.414-1.414Z" style="fill:#6f7a7b"/></g></svg>