<svg xmlns="http://www.w3.org/2000/svg" viewBox="0 0 32 32"><title>19-Box</title><g id="_19-Box" data-name="19-Box"><path d="M31,6V28a2.938,2.938,0,0,1-3,3H4a2.938,2.938,0,0,1-3-3V6A5,5,0,0,1,6,1h5V11a2.938,2.938,0,0,0,3,3h4a2.938,2.938,0,0,0,3-3V1h5A5,5,0,0,1,31,6Z" style="fill:#c1c5c8"/><path d="M21,9v2a2.938,2.938,0,0,1-3,3H14a2.938,2.938,0,0,1-3-3V9Z" style="fill:#f2f2f2"/><path d="M21,1V9H11V1Z" style="fill:#f2f2f2"/><path d="M26,0H6A6.006,6.006,0,0,0,0,6V28a3.887,3.887,0,0,0,4,4H28a3.887,3.887,0,0,0,4-4V6A6.006,6.006,0,0,0,26,0ZM20,8H12V2h8ZM30,28a1.882,1.882,0,0,1-2,2H4a1.882,1.882,0,0,1-2-2V6A4,4,0,0,1,6,2h4v9a1,1,0,0,0,2,0V10h8v1a1.885,1.885,0,0,1-2.006,2A1,1,0,0,0,18,15a3.887,3.887,0,0,0,4-4V2h4a4,4,0,0,1,4,4Z" style="fill:#6f7a7b"/><path d="M18,17H14.414l.293-.293a1,1,0,0,0-1.414-1.414l-2,2a1,1,0,0,0,0,1.414l2,2a1,1,0,0,0,1.414-1.414L14.414,19h3.574A.919.919,0,0,1,19,20a1,1,0,0,0,2,0A2.916,2.916,0,0,0,18,17Z" style="fill:#6f7a7b"/><path d="M20.923,24.618a1,1,0,0,0-.216-.325l-2-2a1,1,0,0,0-1.414,1.414l.293.293H14.012A.919.919,0,0,1,13,23a1,1,0,0,0-2,0,2.916,2.916,0,0,0,3,3h3.586l-.293.293a1,1,0,1,0,1.414,1.414l2-2a1,1,0,0,0,.216-1.089Z" style="fill:#6f7a7b"/></g></svg>