<svg xmlns="http://www.w3.org/2000/svg" viewBox="0 0 32 32"><title>20-Planceholder</title><g id="_20-Planceholder" data-name="20-Planceholder"><path d="M29,13c.02.31,0,.68,0,1a12.99,12.99,0,0,1-9.82,12.59L16,31l-3.18-4.41A12.99,12.99,0,0,1,3,14c0-.32-.02-.69,0-1a13.042,13.042,0,0,1,26,0Z" style="fill:#c1c5c8"/><circle cx="16" cy="14" r="4" style="fill:#f2f2f2"/><path d="M30,12.936l0-.007v-.005A14.042,14.042,0,0,0,2,12.924v.006l0,.006c-.015.234-.011.5-.006.756L2,14A13.969,13.969,0,0,0,12.218,27.464l2.971,4.121a1,1,0,0,0,1.622,0l2.971-4.121A13.969,13.969,0,0,0,30,14l0-.308C30.009,13.434,30.013,13.17,30,12.936ZM28,14a11.972,11.972,0,0,1-9.064,11.62,1,1,0,0,0-.567.385L16,29.291l-2.369-3.286a1,1,0,0,0-.567-.385A11.972,11.972,0,0,1,4,14l0-.347c0-.2-.009-.4,0-.585a12.041,12.041,0,0,1,24,0c.011.181.006.385,0,.585Z" style="fill:#6f7a7b"/><path d="M16,9a5,5,0,1,0,5,5A5.006,5.006,0,0,0,16,9Zm0,8a3,3,0,1,1,3-3A3,3,0,0,1,16,17Z" style="fill:#6f7a7b"/></g></svg>