<svg xmlns="http://www.w3.org/2000/svg" viewBox="0 0 32 32"><title>22-Smartphone</title><g id="_22-Smartphone" data-name="22-Smartphone"><rect x="6" y="1" width="20" height="30" rx="3" style="fill:#f2f2f2"/><path d="M26,4a3,3,0,0,0-3-3H9A3,3,0,0,0,6,4V8H26Z" style="fill:#c1c5c8"/><path d="M6,28a3,3,0,0,0,3,3H23a3,3,0,0,0,3-3V24H6Z" style="fill:#c1c5c8"/><path d="M18,15c0,1-1.33,1-1.33,1H15.33C14,16,14,15,14,15V11h4Z" style="fill:#f2f2f2"/><path d="M22,13v6a2.006,2.006,0,0,1-2,2H12a2.006,2.006,0,0,1-2-2V13a2.006,2.006,0,0,1,2-2h2v4s0,1,1.33,1h1.34S18,16,18,15V11h2A2.006,2.006,0,0,1,22,13Z" style="fill:#c1c5c8"/><path d="M23,0H9A4,4,0,0,0,5,4V28a4,4,0,0,0,4,4H23a4,4,0,0,0,4-4V4A4,4,0,0,0,23,0Zm2,28a2,2,0,0,1-2,2H9a2,2,0,0,1-2-2V4A2,2,0,0,1,9,2H23a2,2,0,0,1,2,2Z" style="fill:#6f7a7b"/><path d="M12,6h4a1,1,0,0,0,0-2H12a1,1,0,0,0,0,2Z" style="fill:#6f7a7b"/><path d="M20,10H12a3,3,0,0,0-3,3v6a3,3,0,0,0,3,3h8a3,3,0,0,0,3-3V13A3,3,0,0,0,20,10Zm-5,2h2v2.933a1.12,1.12,0,0,1-.333.067H15.333c-.219,0-.321-.045-.333,0Zm6,7a1,1,0,0,1-1,1H12a1,1,0,0,1-1-1V13a1,1,0,0,1,1-1h1v3a2.1,2.1,0,0,0,2.333,2h1.334A2.126,2.126,0,0,0,19,15V12h1a1,1,0,0,1,1,1Z" style="fill:#6f7a7b"/><circle cx="20" cy="5" r="1" style="fill:#6f7a7b"/><circle cx="16" cy="27" r="1" style="fill:#6f7a7b"/></g></svg>