<svg xmlns="http://www.w3.org/2000/svg" viewBox="0 0 32 32"><title>23-Box</title><g id="_23-Box" data-name="23-Box"><circle cx="16" cy="16" r="15" style="fill:#f2f2f2"/><path d="M18,15c0,1-1.33,1-1.33,1H15.33C14,16,14,15,14,15V11h4Z" style="fill:#f2f2f2"/><path d="M22,13v6a2.006,2.006,0,0,1-2,2H12a2.006,2.006,0,0,1-2-2V13a2.006,2.006,0,0,1,2-2h2v4s0,1,1.33,1h1.34S18,16,18,15V11h2A2.006,2.006,0,0,1,22,13Z" style="fill:#c1c5c8"/><path d="M16,0A16,16,0,1,0,32,16,16.019,16.019,0,0,0,16,0Zm0,30A14,14,0,1,1,30,16,14.015,14.015,0,0,1,16,30Z" style="fill:#6f7a7b"/><path d="M20,10H12a3,3,0,0,0-3,3v6a3,3,0,0,0,3,3h8a3,3,0,0,0,3-3V13A3,3,0,0,0,20,10Zm-5,2h2v2.933a1.1,1.1,0,0,1-.33.067H15.33c-.216,0-.318-.045-.33,0Zm6,7a1,1,0,0,1-1,1H12a1,1,0,0,1-1-1V13a1,1,0,0,1,1-1h1v3a2.1,2.1,0,0,0,2.33,2h1.34A2.124,2.124,0,0,0,19,15V12h1a1,1,0,0,1,1,1Z" style="fill:#6f7a7b"/></g></svg>