<svg xmlns="http://www.w3.org/2000/svg" viewBox="0 0 32 32"><title>25-Shipping</title><g id="_25-Shipping" data-name="25-Shipping"><rect x="1" y="2" width="30" height="28" rx="3" style="fill:#f2f2f2"/><path d="M31,5a3,3,0,0,0-3-3H4A3,3,0,0,0,1,5V9H31Z" style="fill:#c1c5c8"/><path d="M9,17c0,1-1.33,1-1.33,1H6.33C5,18,5,17,5,17V13H9Z" style="fill:#f2f2f2"/><path d="M13,15v6a2.006,2.006,0,0,1-2,2H3a2.006,2.006,0,0,1-2-2V15a2.006,2.006,0,0,1,2-2H5v4s0,1,1.33,1H7.67S9,18,9,17V13h2A2.006,2.006,0,0,1,13,15Z" style="fill:#c1c5c8"/><path d="M28,1H4A4,4,0,0,0,0,5V9A1,1,0,0,0,2,9V5A2,2,0,0,1,4,3H28a2,2,0,0,1,2,2V27a2,2,0,0,1-2,2H4a2,2,0,0,1-2-2,1,1,0,0,0-2,0,4,4,0,0,0,4,4H28a4,4,0,0,0,4-4V5A4,4,0,0,0,28,1Z" style="fill:#6f7a7b"/><path d="M3,24h8a3,3,0,0,0,3-3V15a3,3,0,0,0-3-3H3a3,3,0,0,0-3,3v6A3,3,0,0,0,3,24ZM6,14H8v2.933A1.113,1.113,0,0,1,7.667,17H6.333c-.221,0-.32-.043-.333,0ZM2,15a1,1,0,0,1,1-1H4v3a2.1,2.1,0,0,0,2.333,2H7.667A2.126,2.126,0,0,0,10,17V14h1a1,1,0,0,1,1,1v6a1,1,0,0,1-1,1H3a1,1,0,0,1-1-1Z" style="fill:#6f7a7b"/><path d="M18,23h2.586l-.293.293a1,1,0,1,0,1.414,1.414l2-2a1,1,0,0,0,0-1.414l-2-2a1,1,0,0,0-1.414,1.414l.293.293H18a1,1,0,0,0,0,2Z" style="fill:#6f7a7b"/><path d="M20.707,11.293a1,1,0,0,0-1.414,0l-2,2a1,1,0,0,0,0,1.414l2,2a1,1,0,0,0,1.414-1.414L20.414,15H23a1,1,0,0,0,0-2H20.414l.293-.293A1,1,0,0,0,20.707,11.293Z" style="fill:#6f7a7b"/><circle cx="5" cy="6" r="1" style="fill:#6f7a7b"/><circle cx="9" cy="6" r="1" style="fill:#6f7a7b"/><circle cx="27" cy="6" r="1" style="fill:#6f7a7b"/></g></svg>