<svg xmlns="http://www.w3.org/2000/svg" viewBox="0 0 32 32"><title>27-Time</title><g id="_27-Time" data-name="27-Time"><circle cx="16" cy="16" r="11" style="fill:#c1c5c8"/><path d="M16,1A15,15,0,1,1,1,16,15.005,15.005,0,0,1,16,1ZM27,16A11,11,0,1,0,16,27,10.994,10.994,0,0,0,27,16Z" style="fill:#f2f2f2"/><path d="M16,32A16,16,0,1,1,32,16,16.019,16.019,0,0,1,16,32ZM16,2A14,14,0,1,0,30,16,14.015,14.015,0,0,0,16,2Z" style="fill:#6f7a7b"/><path d="M16,28A12,12,0,1,1,28,16,12.013,12.013,0,0,1,16,28ZM16,6A10,10,0,1,0,26,16,10.011,10.011,0,0,0,16,6Z" style="fill:#6f7a7b"/><path d="M19,20a1,1,0,0,1-.707-.293l-3-3A1,1,0,0,1,15,16V13a1,1,0,0,1,2,0v2.586l2.707,2.707A1,1,0,0,1,19,20Z" style="fill:#6f7a7b"/><circle cx="9" cy="16" r="1" style="fill:#6f7a7b"/><circle cx="23" cy="16" r="1" style="fill:#6f7a7b"/><circle cx="16" cy="9" r="1" style="fill:#6f7a7b"/><circle cx="16" cy="23" r="1" style="fill:#6f7a7b"/></g></svg>