<svg xmlns="http://www.w3.org/2000/svg" viewBox="0 0 32 32"><title>28-Boxes</title><g id="_28-Boxes" data-name="28-Boxes"><path d="M12,16c0,1-1.33,1-1.33,1H9.33C8,17,8,16,8,16V12h4Z" style="fill:#f2f2f2"/><path d="M16,14v6a2.006,2.006,0,0,1-2,2H6a2.006,2.006,0,0,1-2-2V14a2.006,2.006,0,0,1,2-2H8v4s0,1,1.33,1h1.34S12,17,12,16V12h2A2.006,2.006,0,0,1,16,14Z" style="fill:#c1c5c8"/><path d="M24,16c0,1-1.33,1-1.33,1H21.33C20,17,20,16,20,16V12h4Z" style="fill:#f2f2f2"/><path d="M28,14v6a2.006,2.006,0,0,1-2,2H18a2.006,2.006,0,0,1-2-2V14a2.006,2.006,0,0,1,2-2h2v4s0,1,1.33,1h1.34S24,17,24,16V12h2A2.006,2.006,0,0,1,28,14Z" style="fill:#c1c5c8"/><path d="M18,6c0,1-1.33,1-1.33,1H15.33C14,7,14,6,14,6V2h4Z" style="fill:#f2f2f2"/><path d="M22,4v6a2.006,2.006,0,0,1-2,2H12a2.006,2.006,0,0,1-2-2V4a2.006,2.006,0,0,1,2-2h2V6s0,1,1.33,1h1.34S18,7,18,6V2h2A2.006,2.006,0,0,1,22,4Z" style="fill:#c1c5c8"/><path d="M27,22a4,4,0,0,1,0,8H5a4,4,0,0,1,0-8Z" style="fill:#f2f2f2"/><path d="M28.685,21.313A2.976,2.976,0,0,0,29,20V14a3,3,0,0,0-3-3H22.816A2.966,2.966,0,0,0,23,10V4a3,3,0,0,0-3-3H12A3,3,0,0,0,9,4v6a2.966,2.966,0,0,0,.184,1H6a3,3,0,0,0-3,3v6a2.963,2.963,0,0,0,.316,1.313A4.988,4.988,0,0,0,5,31H27a4.988,4.988,0,0,0,1.685-9.687ZM27,14v6a1,1,0,0,1-1,1H18a1,1,0,0,1-1-1V14a1,1,0,0,1,1-1h1v3a2.1,2.1,0,0,0,2.333,2h1.334A2.126,2.126,0,0,0,25,16V13h1A1,1,0,0,1,27,14Zm-6-1h2v2.933a1.12,1.12,0,0,1-.333.067H21.333c-.219,0-.32-.044-.333,0ZM15,3h2V5.933A1.12,1.12,0,0,1,16.667,6H15.333c-.219,0-.321-.044-.333,0Zm-4,7V4a1,1,0,0,1,1-1h1V6a2.1,2.1,0,0,0,2.333,2h1.334A2.126,2.126,0,0,0,19,6V3h1a1,1,0,0,1,1,1v6a1,1,0,0,1-1,1H12A1,1,0,0,1,11,10ZM9,13h2v2.933a1.12,1.12,0,0,1-.333.067H9.333c-.219,0-.321-.044-.333,0ZM5,14a1,1,0,0,1,1-1H7v3a2.1,2.1,0,0,0,2.333,2h1.334A2.126,2.126,0,0,0,13,16V13h1a1,1,0,0,1,1,1v6a1,1,0,0,1-1,1H6a1,1,0,0,1-1-1ZM27,29H5a3,3,0,0,1,0-6H27a3,3,0,0,1,0,6Z" style="fill:#6f7a7b"/><path d="M12,25H10a1,1,0,0,0,0,2h2a1,1,0,0,0,0-2Z" style="fill:#6f7a7b"/><path d="M22,25H20a1,1,0,0,0,0,2h2a1,1,0,0,0,0-2Z" style="fill:#6f7a7b"/><circle cx="6" cy="26" r="1" style="fill:#6f7a7b"/><circle cx="16" cy="26" r="1" style="fill:#6f7a7b"/><circle cx="26" cy="26" r="1" style="fill:#6f7a7b"/></g></svg>