<svg xmlns="http://www.w3.org/2000/svg" viewBox="0 0 32 32"><title>3-Box</title><g id="_3-Box" data-name="3-Box"><path d="M31,6V28a2.938,2.938,0,0,1-3,3H4a2.938,2.938,0,0,1-3-3V6A5,5,0,0,1,6,1h5V11a2.938,2.938,0,0,0,3,3h4a2.938,2.938,0,0,0,3-3V1h5A5,5,0,0,1,31,6Z" style="fill:#c1c5c8"/><path d="M21,9v2a2.938,2.938,0,0,1-3,3H14a2.938,2.938,0,0,1-3-3V9Z" style="fill:#f2f2f2"/><path d="M21,1V9H11V1Z" style="fill:#f2f2f2"/><path d="M19,21a2,2,0,0,1,0,4H13a2,2,0,0,1,0-4Z" style="fill:#f2f2f2"/><path d="M31,19a1,1,0,0,0-1,1v8a1.882,1.882,0,0,1-2,2H4a1.882,1.882,0,0,1-2-2V6A4,4,0,0,1,6,2h4v9a3.887,3.887,0,0,0,4,4h4a3.887,3.887,0,0,0,4-4V2h2a1,1,0,0,0,0-2H6A6.006,6.006,0,0,0,0,6V28a3.887,3.887,0,0,0,4,4H28a3.887,3.887,0,0,0,4-4V20A1,1,0,0,0,31,19ZM18,13H14a1.882,1.882,0,0,1-2-2V10h8v1A1.882,1.882,0,0,1,18,13Zm2-5H12V2h8Z" style="fill:#6f7a7b"/><path d="M27.293,4.293l-3,3a1,1,0,0,0,1.414,1.414L27,7.414V17a1,1,0,0,0,2,0V7.414l1.293,1.293a1,1,0,0,0,1.414-1.414l-3-3a1,1,0,0,0-1.414,0Z" style="fill:#6f7a7b"/><path d="M19,20H13a3,3,0,0,0,0,6h6a3,3,0,0,0,0-6Zm0,4H13a1,1,0,0,1,0-2h6a1,1,0,0,1,0,2Z" style="fill:#6f7a7b"/></g></svg>