<svg xmlns="http://www.w3.org/2000/svg" viewBox="0 0 32 32"><title>33-Weight</title><g id="_33-Weight" data-name="33-Weight"><path d="M24,6c0,1-1.33,1-1.33,1H21.33C20,7,20,6,20,6V2h4Z" style="fill:#f2f2f2"/><path d="M28,4v6a2.006,2.006,0,0,1-2,2H18a2.006,2.006,0,0,1-2-2V4a2.006,2.006,0,0,1,2-2h2V6s0,1,1.33,1h1.34S24,7,24,6V2h2A2.006,2.006,0,0,1,28,4Z" style="fill:#c1c5c8"/><path d="M19,16c0,1-1.33,1-1.33,1H16.33C15,17,15,16,15,16V12h4Z" style="fill:#f2f2f2"/><path d="M23,14v6a2.006,2.006,0,0,1-2,2H13a2.006,2.006,0,0,1-2-2V14a2.006,2.006,0,0,1,2-2h2v4s0,1,1.33,1h1.34S19,17,19,16V12h2A2.006,2.006,0,0,1,23,14Z" style="fill:#c1c5c8"/><path d="M27,16c0,1-1.33,1-1.33,1H24.33C23,17,23,16,23,16V12h4Z" style="fill:#f2f2f2"/><path d="M31,14v6a2.006,2.006,0,0,1-2,2H21a2.006,2.006,0,0,1-2-2V14a2.006,2.006,0,0,1,2-2h2v4s0,1,1.33,1h1.34S27,17,27,16V12h2A2.006,2.006,0,0,1,31,14Z" style="fill:#c1c5c8"/><path d="M31,22v2a1.959,1.959,0,0,1-2,2H7V22H31Z" style="fill:#f2f2f2"/><circle cx="4" cy="5" r="3" style="fill:#f2f2f2"/><path d="M32,14a3,3,0,0,0-3-3h-.184A2.966,2.966,0,0,0,29,10V4a3,3,0,0,0-3-3H18a3,3,0,0,0-3,3v6a2.966,2.966,0,0,0,.184,1H13a3,3,0,0,0-3,3v6a2.966,2.966,0,0,0,.184,1H8V5A4,4,0,1,0,4,9a3.959,3.959,0,0,0,2-.556V25H3a2.916,2.916,0,0,0-3,3v2a1,1,0,0,0,1,1H31a1,1,0,0,0,0-2H2V28a.915.915,0,0,1,1-1H29a2.916,2.916,0,0,0,3-3V22a.994.994,0,0,0-.3-.713A2.977,2.977,0,0,0,32,20Zm-2,0v6a1,1,0,0,1-1,1H23.816A2.966,2.966,0,0,0,24,20V18h2a1.959,1.959,0,0,0,2-2V13h1A1,1,0,0,1,30,14Zm-4-1v3H24V14a2.966,2.966,0,0,0-.184-1ZM21,3h2V5.934A1.1,1.1,0,0,1,22.67,6H21.33c-.218,0-.317-.045-.33,0Zm-4,7V4a1,1,0,0,1,1-1h1V6a2.1,2.1,0,0,0,2.33,2h1.34A2.124,2.124,0,0,0,25,6V3h1a1,1,0,0,1,1,1v6a1,1,0,0,1-1,1H18A1,1,0,0,1,17,10Zm-1,3h2v2.934a1.1,1.1,0,0,1-.33.066H16.33c-.218,0-.317-.044-.33,0Zm-4,7V14a1,1,0,0,1,1-1h1v3a2.1,2.1,0,0,0,2.33,2h1.34A2.124,2.124,0,0,0,20,16V13h1a1,1,0,0,1,1,1v6a1,1,0,0,1-1,1H13A1,1,0,0,1,12,20ZM4,7A2,2,0,1,1,6,5,2,2,0,0,1,4,7ZM30,24a.915.915,0,0,1-1,1H8V23H30Z" style="fill:#6f7a7b"/></g></svg>