<svg xmlns="http://www.w3.org/2000/svg" viewBox="0 0 32 32"><title>34-Box</title><g id="_34-Box" data-name="34-Box"><path d="M21,1V7H11V1Z" style="fill:#f2f2f2"/><path d="M21,7V9a2.938,2.938,0,0,1-3,3H14a2.938,2.938,0,0,1-3-3V7Z" style="fill:#f2f2f2"/><path d="M31,6V28a2.938,2.938,0,0,1-3,3H4a2.938,2.938,0,0,1-3-3V6A5,5,0,0,1,6,1h5V9a2.938,2.938,0,0,0,3,3h4a2.938,2.938,0,0,0,3-3V1h5A5,5,0,0,1,31,6Z" style="fill:#c1c5c8"/><path d="M22,22l-1,1H11l-1-1c0-2.76,3.24-5,6-5S22,19.24,22,22Z" style="fill:#f2f2f2"/><path d="M26,0H6A6.006,6.006,0,0,0,0,6V28a3.888,3.888,0,0,0,4,4H28a3.888,3.888,0,0,0,4-4V6A6.006,6.006,0,0,0,26,0ZM12,8h8V9a1.883,1.883,0,0,1-2,2H14a1.883,1.883,0,0,1-2-2Zm8-2H12V2h8ZM30,28a1.883,1.883,0,0,1-2,2H4a1.883,1.883,0,0,1-2-2V6A4,4,0,0,1,6,2h4V9a3.888,3.888,0,0,0,4,4h4a3.888,3.888,0,0,0,4-4V2h4a4,4,0,0,1,4,4Z" style="fill:#6f7a7b"/><path d="M17,16.086V16a1,1,0,0,0-2,0v.086c-2.964.462-6,2.879-6,5.914a1,1,0,0,0,.293.707l1,1A1,1,0,0,0,11,24h4v3a1,1,0,0,0,2,0V24h4a1,1,0,0,0,.707-.293l1-1A1,1,0,0,0,23,22C23,18.965,19.964,16.548,17,16.086ZM20.586,22H11.414l-.385-.385C11.329,19.631,13.885,18,16,18s4.671,1.631,4.971,3.615Z" style="fill:#6f7a7b"/></g></svg>