<svg xmlns="http://www.w3.org/2000/svg" viewBox="0 0 32 32"><title>35-Box</title><g id="_35-Box" data-name="35-Box"><path d="M31,6V7H23V1h3A5,5,0,0,1,31,6Z" style="fill:#f2f2f2"/><path d="M31,7v5H26a2.938,2.938,0,0,1-3-3V7Z" style="fill:#f2f2f2"/><rect x="14" y="22" width="4" height="4" rx="1" style="fill:#f2f2f2"/><path d="M31,12V28a2.938,2.938,0,0,1-3,3H4a2.938,2.938,0,0,1-3-3V6A5,5,0,0,1,6,1H23V9a2.938,2.938,0,0,0,3,3ZM18,25V23a1,1,0,0,0-1-1H15a1,1,0,0,0-1,1v2a1,1,0,0,0,1,1h2A1,1,0,0,0,18,25Z" style="fill:#c1c5c8"/><path d="M18,12l-1,1H7L6,12c0-2.76,3.24-5,6-5S18,9.24,18,12Z" style="fill:#f2f2f2"/><path d="M26,0H6A6.006,6.006,0,0,0,0,6V28a3.888,3.888,0,0,0,4,4H28a3.888,3.888,0,0,0,4-4V6A6.006,6.006,0,0,0,26,0ZM24,8h6v3H26a1.883,1.883,0,0,1-2-2Zm6-2H24V2h2A4,4,0,0,1,30,6ZM28,30H4a1.883,1.883,0,0,1-2-2V6A4,4,0,0,1,6,2H22V9a3.888,3.888,0,0,0,4,4h4V28A1.883,1.883,0,0,1,28,30Z" style="fill:#6f7a7b"/><path d="M17,21H15a2,2,0,0,0-2,2v2a2,2,0,0,0,2,2h2a2,2,0,0,0,2-2V23A2,2,0,0,0,17,21Zm0,4-2,0V23h2Z" style="fill:#6f7a7b"/><path d="M27,21H22a1,1,0,0,0,0,2h5a1,1,0,0,0,0-2Z" style="fill:#6f7a7b"/><path d="M24,25H22a1,1,0,0,0,0,2h2a1,1,0,0,0,0-2Z" style="fill:#6f7a7b"/><path d="M13,6.086V6a1,1,0,0,0-2,0v.086C8.036,6.548,5,8.965,5,12a1,1,0,0,0,.293.707l1,1A1,1,0,0,0,7,14h4v3a1,1,0,0,0,2,0V14h4a1,1,0,0,0,.707-.293l1-1A1,1,0,0,0,19,12C19,8.965,15.964,6.548,13,6.086ZM16.586,12H7.414l-.385-.385C7.329,9.631,9.885,8,12,8s4.671,1.631,4.971,3.615Z" style="fill:#6f7a7b"/></g></svg>