<svg xmlns="http://www.w3.org/2000/svg" viewBox="0 0 32 32"><title>36-World wide shipping</title><g id="_36-World_wide_shipping" data-name="36-World wide shipping"><path d="M31,6V7H23V1h3A5,5,0,0,1,31,6Z" style="fill:#f2f2f2"/><path d="M31,7v5H26a2.938,2.938,0,0,1-3-3V7Z" style="fill:#f2f2f2"/><rect x="14" y="22" width="4" height="4" rx="1" style="fill:#f2f2f2"/><path d="M31,12V28a2.938,2.938,0,0,1-3,3H4a2.938,2.938,0,0,1-3-3V6A5,5,0,0,1,6,1H23V9a2.938,2.938,0,0,0,3,3ZM18,25V23a1,1,0,0,0-1-1H15a1,1,0,0,0-1,1v2a1,1,0,0,0,1,1h2A1,1,0,0,0,18,25Z" style="fill:#c1c5c8"/><path d="M10,13c4-1,6-1,7,2l.21.38A9,9,0,0,1,1,10a8.885,8.885,0,0,1,.95-4.02L2,6S6,7,6,9,6,14,10,13Z" style="fill:#f2f2f2"/><path d="M18.05,5.98a8.98,8.98,0,0,1-.84,9.4L17,15c-1-3-3-3-7-2S6,11,6,9,2,6,2,6l-.05-.02A8.973,8.973,0,0,1,8.99,1.06C8.88,1.56,8.22,5.07,11,6c3,1,4-1,7,0Z" style="fill:#f2f2f2"/><path d="M10,1a9,9,0,0,1,8.05,4.98L18,6c-3-1-4,1-7,0C8.22,5.07,8.88,1.56,8.99,1.06A8.428,8.428,0,0,1,10,1Z" style="fill:#f2f2f2"/><path d="M26,0H20a1,1,0,0,0,0,2h2V9a3.888,3.888,0,0,0,4,4h4V28a1.883,1.883,0,0,1-2,2H4a1.883,1.883,0,0,1-2-2V19a1,1,0,0,0-2,0v9a3.888,3.888,0,0,0,4,4H28a3.888,3.888,0,0,0,4-4V6A6.006,6.006,0,0,0,26,0Zm0,2a4,4,0,0,1,4,4H24V2Zm0,9a1.883,1.883,0,0,1-2-2V8h6v3Z" style="fill:#6f7a7b"/><path d="M15,21a2,2,0,0,0-2,2v2a2,2,0,0,0,2,2h2a2,2,0,0,0,2-2V23a2,2,0,0,0-2-2Zm2,4-2,0V23h2Z" style="fill:#6f7a7b"/><path d="M22,23h5a1,1,0,0,0,0-2H22a1,1,0,0,0,0,2Z" style="fill:#6f7a7b"/><path d="M22,27h2a1,1,0,0,0,0-2H22a1,1,0,0,0,0,2Z" style="fill:#6f7a7b"/><path d="M10,20a10.037,10.037,0,0,0,8.011-4.021A10,10,0,0,0,10,0c-.266,0-.52.024-.776.045A.979.979,0,0,0,8.56.121a9.913,9.913,0,0,0-7.5,5.409A9.818,9.818,0,0,0,0,10,10.011,10.011,0,0,0,10,20ZM16,4.72a9.1,9.1,0,0,0-1.743.31,4.533,4.533,0,0,1-2.941.022c-1.444-.483-1.548-2.059-1.46-3.044C9.9,2.008,9.952,2,10,2A7.936,7.936,0,0,1,16,4.72ZM7.848,2.308C7.8,4.22,8.5,6.217,10.684,6.948a6.188,6.188,0,0,0,1.989.342,8.175,8.175,0,0,0,2.069-.32,4.768,4.768,0,0,1,2.6-.1A7.979,7.979,0,0,1,18,10a7.9,7.9,0,0,1-.72,3.258c-1.568-2.449-4.351-2.023-7.522-1.228a2.769,2.769,0,0,1-2.121-.081C7,11.452,7,10.035,7,9,7,7.074,4.905,5.957,3.456,5.414A7.9,7.9,0,0,1,7.848,2.308Zm-5.34,4.9C3.705,7.631,5,8.359,5,9c0,1.446,0,3.428,1.405,4.525a4.339,4.339,0,0,0,3.837.445c4.209-1.052,5.127-.632,5.782,1.27A7.9,7.9,0,0,1,10,18a8.009,8.009,0,0,1-8-8A7.848,7.848,0,0,1,2.508,7.205Z" style="fill:#6f7a7b"/></g></svg>