<svg xmlns="http://www.w3.org/2000/svg" viewBox="0 0 32 32"><title>38-Navigation</title><g id="_38-Navigation" data-name="38-Navigation"><path d="M27,18v4a2.006,2.006,0,0,1-2,2H10L5,20l5-4H25A2.006,2.006,0,0,1,27,18Z" style="fill:#c1c5c8"/><path d="M27,8l-5,4H7a2.006,2.006,0,0,1-2-2V6A2.006,2.006,0,0,1,7,4H22Z" style="fill:#f2f2f2"/><path d="M25,15H17V13h5a1,1,0,0,0,.625-.219l5-4a1,1,0,0,0,0-1.562l-5-4A1,1,0,0,0,22,3H17V1a1,1,0,0,0-2,0V3H7A3,3,0,0,0,4,6v4a3,3,0,0,0,3,3h8v2H10a1,1,0,0,0-.625.219l-5,4a1,1,0,0,0,0,1.562l5,4A1,1,0,0,0,10,25h5v6a1,1,0,0,0,2,0V25h8a3,3,0,0,0,3-3V18A3,3,0,0,0,25,15ZM6,10V6A1,1,0,0,1,7,5H21.649L25.4,8l-3.75,3H7A1,1,0,0,1,6,10ZM26,22a1,1,0,0,1-1,1H10.351L6.6,20l3.75-3H25a1,1,0,0,1,1,1Z" style="fill:#6f7a7b"/><path d="M17,19H14a1,1,0,0,0,0,2h3a1,1,0,0,0,0-2Z" style="fill:#6f7a7b"/><path d="M19,8a1,1,0,0,0-1-1H15a1,1,0,0,0,0,2h3A1,1,0,0,0,19,8Z" style="fill:#6f7a7b"/><circle cx="11" cy="8" r="1" style="fill:#6f7a7b"/><circle cx="21" cy="20" r="1" style="fill:#6f7a7b"/></g></svg>