<svg xmlns="http://www.w3.org/2000/svg" viewBox="0 0 32 32"><title>39-Shipping</title><g id="_39-Shipping" data-name="39-Shipping"><path d="M18,25c0,1-1.33,1-1.33,1H15.33C14,26,14,25,14,25V21h4Z" style="fill:#f2f2f2"/><path d="M22,23v6a2.006,2.006,0,0,1-2,2H12a2.006,2.006,0,0,1-2-2V23a2.006,2.006,0,0,1,2-2h2v4s0,1,1.33,1h1.34S18,26,18,25V21h2A2.006,2.006,0,0,1,22,23Z" style="fill:#c1c5c8"/><path d="M25,10l-2,2H9L7,10a9,9,0,0,1,18,0Z" style="fill:#f2f2f2"/><path d="M20,20H12a3,3,0,0,0-3,3v6a3,3,0,0,0,3,3h8a3,3,0,0,0,3-3V23A3,3,0,0,0,20,20Zm-5,2h2v2.933a1.113,1.113,0,0,1-.333.067H15.333c-.22,0-.32-.043-.333,0Zm6,7a1,1,0,0,1-1,1H12a1,1,0,0,1-1-1V23a1,1,0,0,1,1-1h1v3a2.1,2.1,0,0,0,2.333,2h1.334A2.126,2.126,0,0,0,19,25V22h1a1,1,0,0,1,1,1Z" style="fill:#6f7a7b"/><path d="M26,10A10,10,0,0,0,6,10a1,1,0,0,0,.293.707L8.206,12.62l2.937,4.9a1,1,0,0,0,1.714-1.03L10.766,13H15v4a1,1,0,0,0,2,0V13h4.234l-2.091,3.485a1,1,0,1,0,1.714,1.03l2.937-4.9,1.913-1.913A1,1,0,0,0,26,10ZM16,2a8.009,8.009,0,0,1,7.99,7.6l-1.4,1.4H9.414L8.01,9.6A8.009,8.009,0,0,1,16,2Z" style="fill:#6f7a7b"/><path d="M16,9a1,1,0,0,0,1-1V5a1,1,0,0,0-2,0V8A1,1,0,0,0,16,9Z" style="fill:#6f7a7b"/><path d="M20,9a1,1,0,0,0,1-1V7a1,1,0,0,0-2,0V8A1,1,0,0,0,20,9Z" style="fill:#6f7a7b"/><path d="M12,9a1,1,0,0,0,1-1V7a1,1,0,0,0-2,0V8A1,1,0,0,0,12,9Z" style="fill:#6f7a7b"/></g></svg>