<svg xmlns="http://www.w3.org/2000/svg" viewBox="0 0 32 32"><title>44-Document</title><g id="_44-Document" data-name="44-Document"><path d="M28,4V28a3,3,0,0,1-3,3H7a3,3,0,0,1-3-3V7l6-6H25A3,3,0,0,1,28,4Z" style="fill:#f2f2f2"/><path d="M18,20c0,1-1.33,1-1.33,1H15.33C14,21,14,20,14,20V16h4Z" style="fill:#f2f2f2"/><path d="M22,18v6a2.006,2.006,0,0,1-2,2H12a2.006,2.006,0,0,1-2-2V18a2.006,2.006,0,0,1,2-2h2v4s0,1,1.33,1h1.34S18,21,18,20V16h2A2.006,2.006,0,0,1,22,18Z" style="fill:#c1c5c8"/><path d="M25,0H10a1,1,0,0,0-.707.293l-6,6A1,1,0,0,0,3,7V28a4,4,0,0,0,4,4H25a4,4,0,0,0,4-4V4A4,4,0,0,0,25,0Zm2,28a2,2,0,0,1-2,2H7a2,2,0,0,1-2-2V7.414L10.414,2H25a2,2,0,0,1,2,2Z" style="fill:#6f7a7b"/><path d="M20,15H12a3,3,0,0,0-3,3v6a3,3,0,0,0,3,3h8a3,3,0,0,0,3-3V18A3,3,0,0,0,20,15Zm-5,2h2v2.933a1.113,1.113,0,0,1-.333.067H15.333c-.221,0-.321-.043-.333,0Zm6,7a1,1,0,0,1-1,1H12a1,1,0,0,1-1-1V18a1,1,0,0,1,1-1h1v3a2.1,2.1,0,0,0,2.333,2h1.334A2.126,2.126,0,0,0,19,20V17h1a1,1,0,0,1,1,1Z" style="fill:#6f7a7b"/><path d="M15.292,12.706a1,1,0,0,0,1.416,0l2-2a1,1,0,0,0-1.414-1.414L17,9.586V5a1,1,0,0,0-2,0V9.586l-.293-.293a1,1,0,0,0-1.414,1.414Z" style="fill:#6f7a7b"/></g></svg>