<svg xmlns="http://www.w3.org/2000/svg" viewBox="0 0 32 32"><title>48-Destination</title><g id="_48-Destination" data-name="48-Destination"><path d="M17,2V7a2.006,2.006,0,0,1-2,2H13a2.006,2.006,0,0,1-2-2V2Z" style="fill:#f2f2f2"/><path d="M23,2V18a2.006,2.006,0,0,1-2,2H7a2.006,2.006,0,0,1-2-2V4A2.006,2.006,0,0,1,7,2h4V7a2.006,2.006,0,0,0,2,2h2a2.006,2.006,0,0,0,2-2V2h6Z" style="fill:#c1c5c8"/><path d="M31,4V18a2.006,2.006,0,0,1-2,2H21a2.006,2.006,0,0,0,2-2V2h6A2.006,2.006,0,0,1,31,4Z" style="fill:#c1c5c8"/><path d="M13,15v9c-2.5,0-2.5,2-5,2s-2.5-2-5-2H1V15H3c2.5,0,2.5,2,5,2S10.5,15,13,15Z" style="fill:#f2f2f2"/><path d="M29,1H7A3,3,0,0,0,4,4v8a1,1,0,0,0,2,0V4A1,1,0,0,1,7,3h3V7a3,3,0,0,0,3,3h2a3,3,0,0,0,3-3V3h4V18a1,1,0,0,1-1,1H17a1,1,0,0,0,0,2H29a3,3,0,0,0,3-3V4A3,3,0,0,0,29,1ZM16,7a1,1,0,0,1-1,1H13a1,1,0,0,1-1-1V3h4ZM30,18a1,1,0,0,1-1,1H23.816A2.966,2.966,0,0,0,24,18V3h5a1,1,0,0,1,1,1Z" style="fill:#6f7a7b"/><path d="M27,5a1,1,0,0,0-1,1V8a1,1,0,0,0,2,0V6A1,1,0,0,0,27,5Z" style="fill:#6f7a7b"/><path d="M13,14a4.529,4.529,0,0,0-3.125,1.219,2.641,2.641,0,0,1-3.75,0A4.529,4.529,0,0,0,3,14H1a1,1,0,0,0-1,1V30a1,1,0,0,0,2,0V25H3a2.585,2.585,0,0,1,1.875.781,4.615,4.615,0,0,0,6.25,0A2.585,2.585,0,0,1,13,25a1,1,0,0,0,1-1V15A1,1,0,0,0,13,14Zm-1,9.1a4.819,4.819,0,0,0-2.125,1.119,2.641,2.641,0,0,1-3.75,0A4.529,4.529,0,0,0,3,23H2V16H3a2.585,2.585,0,0,1,1.875.781,4.615,4.615,0,0,0,6.25,0A4.15,4.15,0,0,1,12,16.188Z" style="fill:#6f7a7b"/><circle cx="27" cy="16" r="1" style="fill:#6f7a7b"/></g></svg>