<svg xmlns="http://www.w3.org/2000/svg" viewBox="0 0 32 32"><title>51-Shipping</title><g id="_51-Shipping" data-name="51-Shipping"><path d="M23,12c0,1-1.33,1-1.33,1H20.33C19,13,19,12,19,12V8h4Z" style="fill:#f2f2f2"/><path d="M27,10v6a2.006,2.006,0,0,1-2,2H17a2.006,2.006,0,0,1-2-2V10a2.006,2.006,0,0,1,2-2h2v4s0,1,1.33,1h1.34S23,13,23,12V8h2A2.006,2.006,0,0,1,27,10Z" style="fill:#c1c5c8"/><path d="M1,22H31s-2,9-9,9H1Z" style="fill:#c1c5c8"/><path d="M7,3V7H1V1H5A1.959,1.959,0,0,1,7,3Z" style="fill:#f2f2f2"/><path d="M9,9v6H1V7H7A1.959,1.959,0,0,1,9,9Z" style="fill:#c1c5c8"/><path d="M31,15v7H1V15H11s1,3,3,3H25s2,0,2-3Z" style="fill:#f2f2f2"/><path d="M31,14H28V10a3,3,0,0,0-3-3H17a3,3,0,0,0-3,3v6a2.966,2.966,0,0,0,.184,1H14c-1.034,0-1.848-1.717-2.051-2.316A1,1,0,0,0,11,14H10V9A2.961,2.961,0,0,0,8,6.162V3A2.916,2.916,0,0,0,5,0H1A1,1,0,0,0,1,2H4.988A.918.918,0,0,1,6,3V6H1A1,1,0,0,0,1,8H7A.915.915,0,0,1,8,9v5H1a1,1,0,0,0,0,2h9.326c.5,1.081,1.659,3,3.674,3H25a2.358,2.358,0,0,0,.408-.041A3,3,0,0,0,28,16h2v5H1a1,1,0,0,0,0,2H29.656c-.8,2.288-3.009,7-7.656,7H1a1,1,0,0,0,0,2H22c7.713,0,9.887-9.384,9.976-9.783A.988.988,0,0,0,32,22V15A1,1,0,0,0,31,14ZM20,9h2v2.933a1.113,1.113,0,0,1-.333.067H20.333c-.22,0-.32-.044-.333,0Zm-3,8a1,1,0,0,1-1-1V10a1,1,0,0,1,1-1h1v3a2.1,2.1,0,0,0,2.333,2h1.334A2.126,2.126,0,0,0,24,12V9h1a1,1,0,0,1,1,1v5c0,1.566-.617,1.9-.89,1.978A1.019,1.019,0,0,1,25,17Z" style="fill:#6f7a7b"/><path d="M1,12H5a1,1,0,0,0,0-2H1a1,1,0,0,0,0,2Z" style="fill:#6f7a7b"/><circle cx="21" cy="26" r="1" style="fill:#6f7a7b"/><circle cx="15" cy="26" r="1" style="fill:#6f7a7b"/><circle cx="9" cy="26" r="1" style="fill:#6f7a7b"/><circle cx="3" cy="26" r="1" style="fill:#6f7a7b"/></g></svg>