<svg xmlns="http://www.w3.org/2000/svg" viewBox="0 0 32 32"><title>52-Service</title><g id="_52-Service" data-name="52-Service"><path d="M31,15c0,6.63-5.72,12-14,12l-5,2V26C5.66,25.6,1,20.52,1,15,1,8.37,7.72,3,16,3S31,8.37,31,15Z" style="fill:#c1c5c8"/><path d="M17,14c0,1-1.33,1-1.33,1H14.33C13,15,13,14,13,14V10h4Z" style="fill:#f2f2f2"/><path d="M21,12v6a2.006,2.006,0,0,1-2,2H11a2.006,2.006,0,0,1-2-2V12a2.006,2.006,0,0,1,2-2h2v4s0,1,1.33,1h1.34S17,15,17,14V10h2A2.006,2.006,0,0,1,21,12Z" style="fill:#f2f2f2"/><path d="M16,2C7.178,2,0,7.832,0,15c0,6.006,4.76,11.074,11,11.906V29a1,1,0,0,0,1,1,.991.991,0,0,0,.371-.071L17.2,28C25.649,27.915,32,22.354,32,15,32,7.832,24.822,2,16,2Zm1,24a1,1,0,0,0-.371.071L13,27.523V26a1,1,0,0,0-.937-1C6.515,24.649,2,20.163,2,15,2,8.935,8.28,4,16,4S30,8.935,30,15C30,21.271,24.411,26,17,26Z" style="fill:#6f7a7b"/><path d="M22,12a3,3,0,0,0-3-3H11a3,3,0,0,0-3,3v6a3,3,0,0,0,3,3h4a1,1,0,0,0,0-2H11a1,1,0,0,1-1-1V12a1,1,0,0,1,1-1h1v3a2.1,2.1,0,0,0,2.333,2h1.334A2.126,2.126,0,0,0,18,14V11h1a1,1,0,0,1,1,1v4a1,1,0,0,0,2,0Zm-6,1.933a1.12,1.12,0,0,1-.333.067H14.333c-.218,0-.32-.045-.333,0V11h2Z" style="fill:#6f7a7b"/><circle cx="23" cy="20" r="1" style="fill:#6f7a7b"/><circle cx="19" cy="20" r="1" style="fill:#6f7a7b"/></g></svg>