<svg xmlns="http://www.w3.org/2000/svg" viewBox="0 0 32 32"><title>53-Service</title><g id="_53-Service" data-name="53-Service"><path d="M31,17c0,6.63-5.72,12-14,12l-5,2V28C5.66,27.6,1,22.52,1,17,1,10.37,7.72,5,16,5S31,10.37,31,17Z" style="fill:#f2f2f2"/><circle cx="22" cy="8" r="7" style="fill:#c1c5c8"/><path d="M17,17c0,1-1.33,1-1.33,1H14.33C13,18,13,17,13,17V13h4Z" style="fill:#f2f2f2"/><path d="M21,15v6a2.006,2.006,0,0,1-2,2H11a2.006,2.006,0,0,1-2-2V15a2.006,2.006,0,0,1,2-2h2v4s0,1,1.33,1h1.34S17,18,17,17V13h2A2.006,2.006,0,0,1,21,15Z" style="fill:#c1c5c8"/><path d="M31.479,13.693a1,1,0,0,0-1.9.614A8.767,8.767,0,0,1,30,17c0,6.271-5.589,11-13,11a1,1,0,0,0-.371.071L13,29.523V28a1,1,0,0,0-.937-1C6.515,26.649,2,22.163,2,17,2,11.448,7.315,6.787,14.238,6.1a8,8,0,1,0,.818-2.057.953.953,0,0,0-.109-.016C6.565,4.469,0,10.167,0,17c0,6.006,4.76,11.074,11,11.906V31a1,1,0,0,0,1,1,.991.991,0,0,0,.371-.071L17.2,30C25.649,29.915,32,24.354,32,17A10.776,10.776,0,0,0,31.479,13.693ZM22,2a6,6,0,1,1-6,6A6.006,6.006,0,0,1,22,2Z" style="fill:#6f7a7b"/><path d="M22,9a1,1,0,0,0,1-1V5a1,1,0,0,0-2,0V8A1,1,0,0,0,22,9Z" style="fill:#6f7a7b"/><path d="M13,12H11a3,3,0,0,0-3,3v6a3,3,0,0,0,3,3h8a3,3,0,0,0,3-3V19a1,1,0,0,0-2,0v2a1,1,0,0,1-1,1H11a1,1,0,0,1-1-1V15a1,1,0,0,1,1-1h1v3a2.1,2.1,0,0,0,2.333,2H16a1,1,0,0,0,0-2H14.333c-.219,0-.321-.044-.333,0V13A1,1,0,0,0,13,12Z" style="fill:#6f7a7b"/><circle cx="22" cy="11" r="1" style="fill:#6f7a7b"/></g></svg>