<svg xmlns="http://www.w3.org/2000/svg" viewBox="0 0 32 32"><title>54-Box</title><g id="_54-Box" data-name="54-Box"><path d="M17,5v5a2.006,2.006,0,0,1-2,2H13a2.006,2.006,0,0,1-2-2V5Z" style="fill:#f2f2f2"/><path d="M23,5V21a2.006,2.006,0,0,1-2,2H7a2.006,2.006,0,0,1-2-2V7A2.006,2.006,0,0,1,7,5h4v5a2.006,2.006,0,0,0,2,2h2a2.006,2.006,0,0,0,2-2V5h6Z" style="fill:#c1c5c8"/><path d="M31,7V21a2.006,2.006,0,0,1-2,2H21a2.006,2.006,0,0,0,2-2V5h6A2.006,2.006,0,0,1,31,7Z" style="fill:#c1c5c8"/><path d="M1,17H9a4.38,4.38,0,0,0-1,3,1.959,1.959,0,0,1-2,2H4a1.959,1.959,0,0,1-2-2A4.38,4.38,0,0,0,1,17Z" style="fill:#f2f2f2"/><path d="M29,4H7A3,3,0,0,0,4,7v6a1,1,0,0,0,2,0V7A1,1,0,0,1,7,6h3v4a3,3,0,0,0,3,3h2a3,3,0,0,0,3-3V6h4V21a1,1,0,0,1-1,1H11a1,1,0,0,0,0,2H29a3,3,0,0,0,3-3V7A3,3,0,0,0,29,4ZM16,10a1,1,0,0,1-1,1H13a1,1,0,0,1-1-1V6h4ZM30,21a1,1,0,0,1-1,1H23.816A2.966,2.966,0,0,0,24,21V6h5a1,1,0,0,1,1,1Z" style="fill:#6f7a7b"/><path d="M27,8a1,1,0,0,0-1,1v2a1,1,0,0,0,2,0V9A1,1,0,0,0,27,8Z" style="fill:#6f7a7b"/><path d="M9,16H1a1,1,0,0,0-.911.608A1.012,1.012,0,0,0,.281,17.7,3.46,3.46,0,0,1,1,20a2.916,2.916,0,0,0,3,3v3H3a1,1,0,0,0,0,2H7a1,1,0,0,0,0-2H6V23a2.916,2.916,0,0,0,3-3,3.474,3.474,0,0,1,.717-2.3A1,1,0,0,0,9,16ZM7,20a.915.915,0,0,1-1,1H4.012A.918.918,0,0,1,3,20a6.25,6.25,0,0,0-.314-2H7.314A6.25,6.25,0,0,0,7,20Z" style="fill:#6f7a7b"/><circle cx="27" cy="19" r="1" style="fill:#6f7a7b"/></g></svg>