<svg xmlns="http://www.w3.org/2000/svg" viewBox="0 0 32 32"><title>9-Box</title><g id="_9-Box" data-name="9-Box"><path d="M21,1V7H11V1Z" style="fill:#f2f2f2"/><path d="M21,7V9a2.938,2.938,0,0,1-3,3H14a2.938,2.938,0,0,1-3-3V7Z" style="fill:#f2f2f2"/><path d="M31,6V28a2.938,2.938,0,0,1-3,3H4a2.938,2.938,0,0,1-3-3V6A5,5,0,0,1,6,1h5V9a2.938,2.938,0,0,0,3,3h4a2.938,2.938,0,0,0,3-3V1h5A5,5,0,0,1,31,6Z" style="fill:#c1c5c8"/><circle cx="21" cy="19" r="6" style="fill:#f2f2f2"/><circle cx="21" cy="19" r="3" style="fill:#f2f2f2"/><path d="M26,0H6A6.006,6.006,0,0,0,0,6V28a3.887,3.887,0,0,0,4,4H27a1,1,0,0,0,0-2H4a1.882,1.882,0,0,1-2-2V6A4,4,0,0,1,6,2h4V9a3.887,3.887,0,0,0,4,4,1,1,0,0,0,0-2,1.882,1.882,0,0,1-2-2V8h8V9a1,1,0,0,0,2,0V2h4a4,4,0,0,1,4,4V19a1,1,0,0,0,2,0V6A6.006,6.006,0,0,0,26,0ZM20,6H12V2h8Z" style="fill:#6f7a7b"/><path d="M26.707,23.293a.9.9,0,0,0-.127-.084,7.027,7.027,0,1,0-1.371,1.371.9.9,0,0,0,.084.127l5,5a1,1,0,0,0,1.414-1.414ZM21,24a5,5,0,1,1,5-5A5.006,5.006,0,0,1,21,24Z" style="fill:#6f7a7b"/><path d="M21,16a3,3,0,0,0-3,3,1,1,0,0,0,2,0,1,1,0,0,1,1-1,1,1,0,0,0,0-2Z" style="fill:#6f7a7b"/></g></svg>