<?xml version="1.0" encoding="UTF-8"?><svg xmlns="http://www.w3.org/2000/svg" viewBox="0 0 24 24"><defs><style>.v{fill:#231f20;}</style></defs><g id="a"/><g id="b"/><g id="c"/><g id="d"/><g id="e"/><g id="f"/><g id="g"/><g id="h"/><g id="i"/><g id="j"/><g id="k"/><g id="l"/><g id="m"/><g id="n"/><g id="o"/><g id="p"/><g id="q"/><g id="r"><g><path class="v" d="M17,2.25H7c-2.62,0-4.75,2.13-4.75,4.75v10c0,2.62,2.13,4.75,4.75,4.75h10c2.62,0,4.75-2.13,4.75-4.75V7c0-2.62-2.13-4.75-4.75-4.75Zm3.25,14.75c0,1.79-1.46,3.25-3.25,3.25H7c-1.79,0-3.25-1.46-3.25-3.25V7c0-1.79,1.46-3.25,3.25-3.25h10c1.79,0,3.25,1.46,3.25,3.25v10Z"/><path class="v" d="M18,11.25c-.41,0-.75,.34-.75,.75,0,2.9-2.36,5.25-5.25,5.25s-5.25-2.35-5.25-5.25,2.36-5.25,5.25-5.25c.41,0,.75-.34,.75-.75s-.34-.75-.75-.75c-3.72,0-6.75,3.03-6.75,6.75s3.03,6.75,6.75,6.75,6.75-3.03,6.75-6.75c0-.41-.34-.75-.75-.75Z"/><path class="v" d="M9.75,12c0-1.24,1.01-2.25,2.25-2.25,.41,0,.75-.34,.75-.75s-.34-.75-.75-.75c-2.07,0-3.75,1.68-3.75,3.75s1.68,3.75,3.75,3.75c1.06,0,2.08-.46,2.79-1.25,.28-.31,.25-.78-.06-1.06-.31-.28-.78-.25-1.06,.06-.43,.48-1.04,.75-1.68,.75-1.24,0-2.25-1.01-2.25-2.25Z"/></g></g><g id="s"/><g id="t"/><g id="u"/></svg>