<svg xmlns="http://www.w3.org/2000/svg" viewBox="0 0 32 32"><title>12-Piano</title><g id="_12-Piano" data-name="12-Piano"><path d="M26,9V20a1,1,0,0,1-1,1H23a1,1,0,0,1-1-1V9Z" style="fill:#bbc2c6"/><path d="M18,9V20a1,1,0,0,1-1,1H15a1,1,0,0,1-1-1V9Z" style="fill:#bbc2c6"/><path d="M10,9V20a1,1,0,0,1-1,1H7a1,1,0,0,1-1-1V9Z" style="fill:#bbc2c6"/><path d="M31,9V27a4,4,0,0,1-4,4H24V21h1a1,1,0,0,0,1-1V9Z" style="fill:#f2f2f2"/><path d="M24,21V31H16V21h1a1,1,0,0,0,1-1V9h4V20a1,1,0,0,0,1,1Z" style="fill:#f2f2f2"/><path d="M16,21V31H8V21H9a1,1,0,0,0,1-1V9h4V20a1,1,0,0,0,1,1Z" style="fill:#f2f2f2"/><path d="M8,21V31H5a4,4,0,0,1-4-4V9H6V20a1,1,0,0,0,1,1Z" style="fill:#f2f2f2"/><path d="M31,5V9H1V5A4,4,0,0,1,5,1H27A4,4,0,0,1,31,5Z" style="fill:#c1c5c8"/><rect x="1" y="1" width="30" height="30" rx="4" style="fill:none;stroke:#6f7a7b;stroke-linecap:round;stroke-linejoin:round;stroke-width:2px"/><line x1="1" y1="9" x2="31" y2="9" style="fill:none;stroke:#6f7a7b;stroke-linecap:round;stroke-linejoin:round;stroke-width:2px"/><path d="M14,9V20a1,1,0,0,0,1,1h2a1,1,0,0,0,1-1V9" style="fill:none;stroke:#6f7a7b;stroke-linecap:round;stroke-linejoin:round;stroke-width:2px"/><path d="M22,9V20a1,1,0,0,0,1,1h2a1,1,0,0,0,1-1V9" style="fill:none;stroke:#6f7a7b;stroke-linecap:round;stroke-linejoin:round;stroke-width:2px"/><path d="M6,9V20a1,1,0,0,0,1,1H9a1,1,0,0,0,1-1V9" style="fill:none;stroke:#6f7a7b;stroke-linecap:round;stroke-linejoin:round;stroke-width:2px"/><line x1="8" y1="21" x2="8" y2="31" style="fill:none;stroke:#6f7a7b;stroke-linecap:round;stroke-linejoin:round;stroke-width:2px"/><line x1="16" y1="21" x2="16" y2="31" style="fill:none;stroke:#6f7a7b;stroke-linecap:round;stroke-linejoin:round;stroke-width:2px"/><line x1="24" y1="21" x2="24" y2="31" style="fill:none;stroke:#6f7a7b;stroke-linecap:round;stroke-linejoin:round;stroke-width:2px"/><line x1="6" y1="5" x2="9" y2="5" style="fill:none;stroke:#6f7a7b;stroke-linecap:round;stroke-linejoin:round;stroke-width:2px"/><circle cx="22" cy="5" r="1" style="fill:#6f7a7b"/><circle cx="26" cy="5" r="1" style="fill:#6f7a7b"/></g></svg>