<svg xmlns="http://www.w3.org/2000/svg" viewBox="0 0 32 32"><title>16-Radio</title><g id="_16-Radio" data-name="16-Radio"><rect x="1" y="9" width="30" height="20" rx="3" style="fill:#c1c5c8"/><circle cx="24" cy="15" r="2" style="fill:#f2f2f2"/><path d="M5,19H17A6,6,0,0,1,5,19Z" style="fill:#f2f2f2"/><path d="M17,19H5a6,6,0,0,1,12,0Z" style="fill:#f2f2f2"/><rect x="1" y="9" width="30" height="20" rx="3" style="fill:none;stroke:#6f7a7b;stroke-linecap:round;stroke-linejoin:round;stroke-width:2px"/><circle cx="11" cy="19" r="6" style="fill:none;stroke:#6f7a7b;stroke-linecap:round;stroke-linejoin:round;stroke-width:2px"/><line x1="26" y1="21" x2="22" y2="21" style="fill:none;stroke:#6f7a7b;stroke-linecap:round;stroke-linejoin:round;stroke-width:2px"/><path d="M5,5H27a.979.979,0,0,0,1-1V3" style="fill:none;stroke:#6f7a7b;stroke-linecap:round;stroke-linejoin:round;stroke-width:2px"/><circle cx="24" cy="15" r="2" style="fill:none;stroke:#6f7a7b;stroke-linecap:round;stroke-linejoin:round;stroke-width:2px"/><line x1="5" y1="19" x2="17" y2="19" style="fill:none;stroke:#6f7a7b;stroke-linecap:round;stroke-linejoin:round;stroke-width:2px"/><circle cx="22" cy="25" r="1" style="fill:#6f7a7b"/><circle cx="26" cy="25" r="1" style="fill:#6f7a7b"/></g></svg>