<svg xmlns="http://www.w3.org/2000/svg" viewBox="0 0 32 32"><title>37-Speaker</title><g id="_37-Speaker" data-name="37-Speaker"><path d="M24,16V31s-9,0-9-7H10A8,8,0,0,1,10,8h5c0-7,9-7,9-7Z" style="fill:#c1c5c8"/><path d="M15,8V24c0,7,9,7,9,7V1S15,1,15,8Z" style="fill:#f2f2f2"/><circle cx="23" cy="20" r="2" style="fill:#c1c5c8"/><path d="M24,6V1s-9,0-9,7H10a8,8,0,0,0-8,8" style="fill:none;stroke:#6f7a7b;stroke-linecap:round;stroke-linejoin:round;stroke-width:2px"/><path d="M24,26v5s-9,0-9-7H10a8,8,0,0,1-8-8" style="fill:none;stroke:#6f7a7b;stroke-linecap:round;stroke-linejoin:round;stroke-width:2px"/><circle cx="23" cy="20" r="2" style="fill:none;stroke:#6f7a7b;stroke-linecap:round;stroke-linejoin:round;stroke-width:2px"/><path d="M25,20V10s5,0,5,5" style="fill:none;stroke:#6f7a7b;stroke-linecap:round;stroke-linejoin:round;stroke-width:2px"/><circle cx="15" cy="12" r="1" style="fill:#6f7a7b"/><circle cx="15" cy="16" r="1" style="fill:#6f7a7b"/><circle cx="15" cy="20" r="1" style="fill:#6f7a7b"/></g></svg>