<svg xmlns="http://www.w3.org/2000/svg" viewBox="0 0 32 32"><title>43-Headphone</title><g id="_43-Headphone" data-name="43-Headphone"><path d="M17,23v3H13V13H12C9,13,6,9,6,9V3A1.959,1.959,0,0,1,8,1h4c5,0,5,5,5,5Z" style="fill:#c1c5c8"/><path d="M17,26v2c0,3-4,3-4,3V26Z" style="fill:#f2f2f2"/><circle cx="19" cy="19" r="2" style="fill:#f2f2f2"/><path d="M17,24v4c0,3-4,3-4,3V13H12C9,13,6,9,6,9V3A1.959,1.959,0,0,1,8,1h4c5,0,5,5,5,5v7" style="fill:none;stroke:#6f7a7b;stroke-linecap:round;stroke-linejoin:round;stroke-width:2px"/><line x1="13" y1="26" x2="17" y2="26" style="fill:none;stroke:#6f7a7b;stroke-linecap:round;stroke-linejoin:round;stroke-width:2px"/><circle cx="19" cy="19" r="2" style="fill:none;stroke:#6f7a7b;stroke-linecap:round;stroke-linejoin:round;stroke-width:2px"/><path d="M21,19V9s5,0,5,5" style="fill:none;stroke:#6f7a7b;stroke-linecap:round;stroke-linejoin:round;stroke-width:2px"/><circle cx="10" cy="6" r="1" style="fill:#6f7a7b"/></g></svg>