<svg xmlns="http://www.w3.org/2000/svg" viewBox="0 0 32 32"><title>11-Speaker</title><g id="_11-Speaker" data-name="11-Speaker"><circle cx="16" cy="24" r="3" style="fill:#f2f2f2"/><circle cx="16" cy="11" r="6" style="fill:#f2f2f2"/><path d="M27,4V28a3,3,0,0,1-3,3H8a3,3,0,0,1-3-3V4A3,3,0,0,1,8,1H24A3,3,0,0,1,27,4Zm-5,7a6,6,0,1,0-6,6A6,6,0,0,0,22,11ZM19,24a3,3,0,1,0-3,3A3,3,0,0,0,19,24Z" style="fill:#c1c5c8"/><path d="M24,32H8a4,4,0,0,1-4-4V4A4,4,0,0,1,8,0H24a4,4,0,0,1,4,4V28A4,4,0,0,1,24,32ZM8,2A2,2,0,0,0,6,4V28a2,2,0,0,0,2,2H24a2,2,0,0,0,2-2V4a2,2,0,0,0-2-2Z" style="fill:#6f7a7b"/><path d="M16,18a7,7,0,1,1,7-7A7.008,7.008,0,0,1,16,18ZM16,6a5,5,0,1,0,5,5A5.006,5.006,0,0,0,16,6Z" style="fill:#6f7a7b"/><path d="M16,28a4,4,0,1,1,4-4A4,4,0,0,1,16,28Zm0-6a2,2,0,1,0,2,2A2,2,0,0,0,16,22Z" style="fill:#6f7a7b"/><circle cx="16" cy="11" r="1" style="fill:#6f7a7b"/></g></svg>