<svg xmlns="http://www.w3.org/2000/svg" viewBox="0 0 32 32"><title>13-Control</title><g id="_13-Control" data-name="13-Control"><path d="M28,9v2a1,1,0,0,1-1,1H23a1,1,0,0,1-1-1V9a1,1,0,0,1,1-1h4A1,1,0,0,1,28,9Z" style="fill:#c1c5c8"/><path d="M19,21v2a1,1,0,0,1-1,1H14a1,1,0,0,1-1-1V21a1,1,0,0,1,1-1h4A1,1,0,0,1,19,21Z" style="fill:#c1c5c8"/><path d="M10,13v2a1,1,0,0,1-1,1H5a1,1,0,0,1-1-1V13a1,1,0,0,1,1-1H9A1,1,0,0,1,10,13Z" style="fill:#c1c5c8"/><path d="M9,17H5a2,2,0,0,1-2-2V13a2,2,0,0,1,2-2H9a2,2,0,0,1,2,2v2A2,2,0,0,1,9,17ZM5,13v2H9V13Z" style="fill:#6f7a7b"/><path d="M18,25H14a2,2,0,0,1-2-2V21a2,2,0,0,1,2-2h4a2,2,0,0,1,2,2v2A2,2,0,0,1,18,25Zm-4-4v2h4V21Z" style="fill:#6f7a7b"/><path d="M7,13a1,1,0,0,1-1-1V1A1,1,0,0,1,8,1V12A1,1,0,0,1,7,13Z" style="fill:#6f7a7b"/><path d="M7,32a1,1,0,0,1-1-1V16a1,1,0,0,1,2,0V31A1,1,0,0,1,7,32Z" style="fill:#6f7a7b"/><path d="M16,32a1,1,0,0,1-1-1V24a1,1,0,0,1,2,0v7A1,1,0,0,1,16,32Z" style="fill:#6f7a7b"/><path d="M16,21a1,1,0,0,1-1-1V1a1,1,0,0,1,2,0V20A1,1,0,0,1,16,21Z" style="fill:#6f7a7b"/><path d="M27,13H23a2,2,0,0,1-2-2V9a2,2,0,0,1,2-2h4a2,2,0,0,1,2,2v2A2,2,0,0,1,27,13ZM23,9v2h4V9Z" style="fill:#6f7a7b"/><path d="M25,32a1,1,0,0,1-1-1V12a1,1,0,0,1,2,0V31A1,1,0,0,1,25,32Z" style="fill:#6f7a7b"/><path d="M25,9a1,1,0,0,1-1-1V1a1,1,0,0,1,2,0V8A1,1,0,0,1,25,9Z" style="fill:#6f7a7b"/></g></svg>