<svg xmlns="http://www.w3.org/2000/svg" viewBox="0 0 32 32"><title>15-Music</title><g id="_15-Music" data-name="15-Music"><circle cx="16" cy="16" r="15" style="fill:#c1c5c8"/><circle cx="14" cy="19" r="2" style="fill:#f2f2f2"/><path d="M16,32A16,16,0,1,1,32,16,16.019,16.019,0,0,1,16,32ZM16,2A14,14,0,1,0,30,16,14.015,14.015,0,0,0,16,2Z" style="fill:#6f7a7b"/><path d="M14,22a3,3,0,1,1,3-3A3,3,0,0,1,14,22Zm0-4a1,1,0,1,0,1,1A1,1,0,0,0,14,18Z" style="fill:#6f7a7b"/><path d="M16,20a1,1,0,0,1-1-1V9a1,1,0,0,1,1-1,5.785,5.785,0,0,1,6,6,1,1,0,0,1-2,0,3.657,3.657,0,0,0-3-3.869V19A1,1,0,0,1,16,20Z" style="fill:#6f7a7b"/><circle cx="19" cy="21" r="1" style="fill:#6f7a7b"/></g></svg>