<svg xmlns="http://www.w3.org/2000/svg" viewBox="0 0 32 32"><title>16-Radio</title><g id="_16-Radio" data-name="16-Radio"><rect x="1" y="9" width="30" height="20" rx="3" style="fill:#c1c5c8"/><circle cx="24" cy="15" r="2" style="fill:#f2f2f2"/><path d="M5,19H17A6,6,0,0,1,5,19Z" style="fill:#f2f2f2"/><path d="M17,19H5a6,6,0,0,1,12,0Z" style="fill:#f2f2f2"/><path d="M28,30H4a4,4,0,0,1-4-4V12A4,4,0,0,1,4,8H28a4,4,0,0,1,4,4V26A4,4,0,0,1,28,30ZM4,10a2,2,0,0,0-2,2V26a2,2,0,0,0,2,2H28a2,2,0,0,0,2-2V12a2,2,0,0,0-2-2Z" style="fill:#6f7a7b"/><path d="M11,26a7,7,0,1,1,7-7A7.008,7.008,0,0,1,11,26Zm0-12a5,5,0,1,0,5,5A5.006,5.006,0,0,0,11,14Z" style="fill:#6f7a7b"/><path d="M26,22H22a1,1,0,0,1,0-2h4a1,1,0,0,1,0,2Z" style="fill:#6f7a7b"/><path d="M27,6H5A1,1,0,0,1,5,4H27V3a1,1,0,0,1,2,0V4A1.959,1.959,0,0,1,27,6Z" style="fill:#6f7a7b"/><path d="M24,18a3,3,0,1,1,3-3A3,3,0,0,1,24,18Zm0-4a1,1,0,1,0,1,1A1,1,0,0,0,24,14Z" style="fill:#6f7a7b"/><path d="M17,20H5a1,1,0,0,1,0-2H17a1,1,0,0,1,0,2Z" style="fill:#6f7a7b"/><circle cx="22" cy="25" r="1" style="fill:#6f7a7b"/><circle cx="26" cy="25" r="1" style="fill:#6f7a7b"/></g></svg>