<svg xmlns="http://www.w3.org/2000/svg" viewBox="0 0 32 32"><title>17-Tape</title><g id="_17-Tape" data-name="17-Tape"><path d="M26,22v5H6V22a1.959,1.959,0,0,1,2-2H24A1.959,1.959,0,0,1,26,22Z" style="fill:#f2f2f2"/><path d="M31,8V24a3,3,0,0,1-3,3H26V22a1.959,1.959,0,0,0-2-2H8a1.959,1.959,0,0,0-2,2v5H4a3,3,0,0,1-3-3V8A3,3,0,0,1,4,5H28A3,3,0,0,1,31,8Z" style="fill:#c1c5c8"/><circle cx="24" cy="12" r="2" style="fill:#f2f2f2"/><path d="M24,14H8a2,2,0,0,0,0-4H24a2,2,0,0,0,0,4Z" style="fill:#f2f2f2"/><circle cx="8" cy="12" r="2" style="fill:#f2f2f2"/><path d="M28,28H4a4,4,0,0,1-4-4V8A4,4,0,0,1,4,4H28a4,4,0,0,1,4,4V24A4,4,0,0,1,28,28ZM4,6A2,2,0,0,0,2,8V24a2,2,0,0,0,2,2H28a2,2,0,0,0,2-2V8a2,2,0,0,0-2-2Z" style="fill:#6f7a7b"/><path d="M24,15H8A3,3,0,0,1,8,9H24a3,3,0,0,1,0,6ZM8,11a1,1,0,0,0,0,2H24a1,1,0,0,0,0-2Z" style="fill:#6f7a7b"/><path d="M8,15a3,3,0,1,1,3-3A3,3,0,0,1,8,15Zm0-4a1,1,0,1,0,1,1A1,1,0,0,0,8,11Z" style="fill:#6f7a7b"/><path d="M24,15a3,3,0,1,1,3-3A3,3,0,0,1,24,15Zm0-4a1,1,0,1,0,1,1A1,1,0,0,0,24,11Z" style="fill:#6f7a7b"/><path d="M26,28a1,1,0,0,1-1-1V22a.919.919,0,0,0-1.012-1H8a.918.918,0,0,0-1,1.012V27a1,1,0,0,1-2,0V22a2.916,2.916,0,0,1,3-3H24a2.916,2.916,0,0,1,3,3v5A1,1,0,0,1,26,28Z" style="fill:#6f7a7b"/></g></svg>