<svg xmlns="http://www.w3.org/2000/svg" viewBox="0 0 32 32"><title>19-Control</title><g id="_19-Control" data-name="19-Control"><rect x="1" y="1" width="30" height="30" rx="4" style="fill:#c1c5c8"/><circle cx="24" cy="20" r="2" style="fill:#f2f2f2"/><circle cx="16" cy="15" r="2" style="fill:#f2f2f2"/><circle cx="8" cy="11" r="2" style="fill:#f2f2f2"/><path d="M27,32H5a5.006,5.006,0,0,1-5-5V5A5.006,5.006,0,0,1,5,0H27a5.006,5.006,0,0,1,5,5V27A5.006,5.006,0,0,1,27,32ZM5,2A3,3,0,0,0,2,5V27a3,3,0,0,0,3,3H27a3,3,0,0,0,3-3V5a3,3,0,0,0-3-3Z" style="fill:#6f7a7b"/><path d="M16,27a1,1,0,0,1-1-1V17a1,1,0,0,1,2,0v9A1,1,0,0,1,16,27Z" style="fill:#6f7a7b"/><path d="M16,18a3,3,0,1,1,3-3A3,3,0,0,1,16,18Zm0-4a1,1,0,1,0,1,1A1,1,0,0,0,16,14Z" style="fill:#6f7a7b"/><path d="M24,23a3,3,0,1,1,3-3A3,3,0,0,1,24,23Zm0-4a1,1,0,1,0,1,1A1,1,0,0,0,24,19Z" style="fill:#6f7a7b"/><path d="M24,27a1,1,0,0,1-1-1V22a1,1,0,0,1,2,0v4A1,1,0,0,1,24,27Z" style="fill:#6f7a7b"/><path d="M8,14a3,3,0,1,1,3-3A3,3,0,0,1,8,14Zm0-4a1,1,0,1,0,1,1A1,1,0,0,0,8,10Z" style="fill:#6f7a7b"/><path d="M8,10A1,1,0,0,1,7,9V6A1,1,0,0,1,9,6V9A1,1,0,0,1,8,10Z" style="fill:#6f7a7b"/><path d="M8,27a1,1,0,0,1-1-1V13a1,1,0,0,1,2,0V26A1,1,0,0,1,8,27Z" style="fill:#6f7a7b"/><path d="M16,14a1,1,0,0,1-1-1V6a1,1,0,0,1,2,0v7A1,1,0,0,1,16,14Z" style="fill:#6f7a7b"/><path d="M24,19a1,1,0,0,1-1-1V6a1,1,0,0,1,2,0V18A1,1,0,0,1,24,19Z" style="fill:#6f7a7b"/></g></svg>