<svg xmlns="http://www.w3.org/2000/svg" viewBox="0 0 32 32"><title>2-Playlist</title><g id="_2-Playlist" data-name="2-Playlist"><circle cx="22" cy="23" r="4" style="fill:#c1c5c8"/><circle cx="6" cy="27" r="4" style="fill:#c1c5c8"/><path d="M6,32a5,5,0,1,1,5-5A5.006,5.006,0,0,1,6,32Zm0-8a3,3,0,1,0,3,3A3,3,0,0,0,6,24Z" style="fill:#6f7a7b"/><path d="M22,28a5,5,0,1,1,5-5A5.006,5.006,0,0,1,22,28Zm0-8a3,3,0,1,0,3,3A3,3,0,0,0,22,20Z" style="fill:#6f7a7b"/><path d="M10,28a1,1,0,0,1-1-1V6a4.556,4.556,0,0,1,2.553-3.895C13.417,1.174,23.839.191,25.91,0A1,1,0,0,1,27,1V5a1,1,0,0,1-2,0V2.1c-4.688.45-11.461,1.251-12.553,1.8A2.556,2.556,0,0,0,11,6.011V27A1,1,0,0,1,10,28Z" style="fill:#6f7a7b"/><path d="M26,24a1,1,0,0,1-1-1V18a1,1,0,0,1,2,0v5A1,1,0,0,1,26,24Z" style="fill:#6f7a7b"/><path d="M30,10H22a1,1,0,0,1,0-2h8a1,1,0,0,1,0,2Z" style="fill:#6f7a7b"/><path d="M30,14H22a1,1,0,0,1,0-2h8a1,1,0,0,1,0,2Z" style="fill:#6f7a7b"/><circle cx="18" cy="9" r="1" style="fill:#6f7a7b"/><circle cx="18" cy="13" r="1" style="fill:#6f7a7b"/></g></svg>