<svg xmlns="http://www.w3.org/2000/svg" viewBox="0 0 32 32"><title>23-Microphone</title><g id="_23-Microphone" data-name="23-Microphone"><path d="M23,8v8A7,7,0,0,1,9,16V8A7,7,0,0,1,23,8Z" style="fill:#c1c5c8"/><circle cx="19" cy="11" r="2" style="fill:#f2f2f2"/><path d="M16,24a8.009,8.009,0,0,1-8-8V8a8.009,8.009,0,0,1,8-8,1,1,0,0,1,0,2,6.006,6.006,0,0,0-6,6v8a6,6,0,0,0,12,0,1,1,0,0,1,2,0A8.009,8.009,0,0,1,16,24Z" style="fill:#6f7a7b"/><path d="M16,28C7.378,28,5.143,21.589,5.052,21.316a1,1,0,1,1,1.9-.632C7.021,20.9,8.862,26,16,26c7.2,0,9.033-5.263,9.052-5.316a1,1,0,1,1,1.9.632C26.857,21.589,24.622,28,16,28Z" style="fill:#6f7a7b"/><path d="M16,32a1,1,0,0,1-1-1V27a1,1,0,0,1,2,0v4A1,1,0,0,1,16,32Z" style="fill:#6f7a7b"/><path d="M19,14a3,3,0,1,1,3-3A3,3,0,0,1,19,14Zm0-4a1,1,0,1,0,1,1A1,1,0,0,0,19,10Z" style="fill:#6f7a7b"/><path d="M21,12a1,1,0,0,1-1-1V1a1,1,0,0,1,1-1,5.785,5.785,0,0,1,6,6,1,1,0,0,1-2,0,3.657,3.657,0,0,0-3-3.869V11A1,1,0,0,1,21,12Z" style="fill:#6f7a7b"/></g></svg>