<svg xmlns="http://www.w3.org/2000/svg" viewBox="0 0 32 32"><title>25-Control</title><g id="_25-Control" data-name="25-Control"><circle cx="16" cy="16" r="7" style="fill:#f2f2f2"/><path d="M16,1A15,15,0,1,1,1,16,15.005,15.005,0,0,1,16,1Zm7,15a7,7,0,1,0-7,7A6.995,6.995,0,0,0,23,16Z" style="fill:#c1c5c8"/><path d="M16,32A16,16,0,1,1,32,16,16.019,16.019,0,0,1,16,32ZM16,2A14,14,0,1,0,30,16,14.015,14.015,0,0,0,16,2Z" style="fill:#6f7a7b"/><path d="M16,24a8,8,0,1,1,8-8A8.009,8.009,0,0,1,16,24Zm0-14a6,6,0,1,0,6,6A6.006,6.006,0,0,0,16,10Z" style="fill:#6f7a7b"/><path d="M15,16a1,1,0,0,1-.707-.293l-3-3a1,1,0,0,1,1.414-1.414l3,3A1,1,0,0,1,15,16Z" style="fill:#6f7a7b"/><circle cx="24" cy="8" r="1" style="fill:#6f7a7b"/><circle cx="24" cy="24" r="1" style="fill:#6f7a7b"/><circle cx="16" cy="27" r="1" style="fill:#6f7a7b"/><circle cx="8" cy="24" r="1" style="fill:#6f7a7b"/><circle cx="5" cy="16" r="1" style="fill:#6f7a7b"/><circle cx="8" cy="8" r="1" style="fill:#6f7a7b"/><circle cx="16" cy="5" r="1" style="fill:#6f7a7b"/><circle cx="27" cy="16" r="1" style="fill:#6f7a7b"/></g></svg>