<svg xmlns="http://www.w3.org/2000/svg" viewBox="0 0 32 32"><title>29-Tape</title><g id="_29-Tape" data-name="29-Tape"><path d="M26,24v5H6V24a1.959,1.959,0,0,1,2-2H24A1.959,1.959,0,0,1,26,24Z" style="fill:#ebeff3"/><path d="M31,10V26a3,3,0,0,1-3,3H26V24a1.959,1.959,0,0,0-2-2H8a1.959,1.959,0,0,0-2,2v5H4a3,3,0,0,1-3-3V10A3,3,0,0,1,4,7H28A3,3,0,0,1,31,10Z" style="fill:#c1c5c8"/><circle cx="24" cy="14" r="2" style="fill:#ebeff3"/><path d="M24,16H8a2,2,0,0,0,0-4H24a2,2,0,0,0,0,4Z" style="fill:#ebeff3"/><circle cx="8" cy="14" r="2" style="fill:#ebeff3"/><circle cx="17" cy="13" r="2" style="fill:#f2f2f2"/><path d="M28,30H4a4,4,0,0,1-4-4V10A4,4,0,0,1,4,6H15a1,1,0,0,1,0,2H4a2,2,0,0,0-2,2V26a2,2,0,0,0,2,2H28a2,2,0,0,0,2-2V10a2,2,0,0,0-2-2,1,1,0,0,1,0-2,4,4,0,0,1,4,4V26A4,4,0,0,1,28,30Z" style="fill:#6f7a7b"/><path d="M8,17a3,3,0,1,1,3-3A3,3,0,0,1,8,17Zm0-4a1,1,0,1,0,1,1A1,1,0,0,0,8,13Z" style="fill:#6f7a7b"/><path d="M24,17H23a1,1,0,0,1,0-2h1a1,1,0,0,0,0-2H23a1,1,0,0,1,0-2h1a3,3,0,0,1,0,6Z" style="fill:#6f7a7b"/><path d="M26,30a1,1,0,0,1-1-1V24a.919.919,0,0,0-1.012-1H8a.918.918,0,0,0-1,1.012V29a1,1,0,0,1-2,0V24a2.916,2.916,0,0,1,3-3H24a2.916,2.916,0,0,1,3,3v5A1,1,0,0,1,26,30Z" style="fill:#6f7a7b"/><path d="M17,16a3,3,0,1,1,3-3A3,3,0,0,1,17,16Zm0-4a1,1,0,1,0,1,1A1,1,0,0,0,17,12Z" style="fill:#6f7a7b"/><path d="M19,14a1,1,0,0,1-1-1V3a1,1,0,0,1,1-1,5.785,5.785,0,0,1,6,6,1,1,0,0,1-2,0,3.657,3.657,0,0,0-3-3.869V13A1,1,0,0,1,19,14Z" style="fill:#6f7a7b"/><path d="M12,17H8a1,1,0,0,1,0-2h4a1,1,0,0,1,0,2Z" style="fill:#6f7a7b"/></g></svg>