<svg xmlns="http://www.w3.org/2000/svg" viewBox="0 0 32 32"><title>31-Music</title><g id="_31-Music" data-name="31-Music"><path d="M6,1V31H5a4,4,0,0,1-4-4V5A4,4,0,0,1,5,1Z" style="fill:#f2f2f2"/><path d="M31,5V27a4,4,0,0,1-4,4H6V1H27A4,4,0,0,1,31,5Z" style="fill:#c1c5c8"/><circle cx="15" cy="20" r="2" style="fill:#f2f2f2"/><path d="M27,32H5a5.006,5.006,0,0,1-5-5V5A5.006,5.006,0,0,1,5,0H27a5.006,5.006,0,0,1,5,5V27A5.006,5.006,0,0,1,27,32ZM5,2A3,3,0,0,0,2,5V27a3,3,0,0,0,3,3H27a3,3,0,0,0,3-3V5a3,3,0,0,0-3-3Z" style="fill:#6f7a7b"/><path d="M6,32a1,1,0,0,1-1-1V1A1,1,0,0,1,7,1V31A1,1,0,0,1,6,32Z" style="fill:#6f7a7b"/><path d="M15,23a3,3,0,1,1,3-3A3,3,0,0,1,15,23Zm0-4a1,1,0,1,0,1,1A1,1,0,0,0,15,19Z" style="fill:#6f7a7b"/><path d="M17,21a1,1,0,0,1-1-1V10a1,1,0,0,1,1-1,5.785,5.785,0,0,1,6,6,1,1,0,0,1-2,0,3.657,3.657,0,0,0-3-3.869V20A1,1,0,0,1,17,21Z" style="fill:#6f7a7b"/><circle cx="20" cy="22" r="1" style="fill:#6f7a7b"/></g></svg>