<svg xmlns="http://www.w3.org/2000/svg" viewBox="0 0 32 32"><title>34-Folder</title><g id="_34-Folder" data-name="34-Folder"><path d="M31,10V27a4,4,0,0,1-4,4H5a4,4,0,0,1-4-4V10A4,4,0,0,1,5,6H4V3A1.959,1.959,0,0,1,6,1H18l5,5h4A4,4,0,0,1,31,10Z" style="fill:#c1c5c8"/><circle cx="14" cy="22" r="2" style="fill:#f2f2f2"/><path d="M27,32H5a5.006,5.006,0,0,1-5-5V10A5,5,0,0,1,3,5.418V3A2.916,2.916,0,0,1,6,0H18a1,1,0,0,1,.707.293L23.414,5H27a5.006,5.006,0,0,1,5,5V27A5.006,5.006,0,0,1,27,32ZM5,7a3,3,0,0,0-3,3V27a3,3,0,0,0,3,3H27a3,3,0,0,0,3-3V10a3,3,0,0,0-3-3H23a1,1,0,0,1-.707-.293L17.586,2H6A.918.918,0,0,0,5,3.012V5A1,1,0,0,1,5,7Z" style="fill:#6f7a7b"/><path d="M16,7H5A1,1,0,0,1,5,5H16a1,1,0,0,1,0,2Z" style="fill:#6f7a7b"/><path d="M14,25a3,3,0,1,1,3-3A3,3,0,0,1,14,25Zm0-4a1,1,0,1,0,1,1A1,1,0,0,0,14,21Z" style="fill:#6f7a7b"/><path d="M16,23a1,1,0,0,1-1-1V12a1,1,0,0,1,1-1,5.785,5.785,0,0,1,6,6,1,1,0,0,1-2,0,3.657,3.657,0,0,0-3-3.869V22A1,1,0,0,1,16,23Z" style="fill:#6f7a7b"/><circle cx="19" cy="24" r="1" style="fill:#6f7a7b"/></g></svg>