<svg xmlns="http://www.w3.org/2000/svg" viewBox="0 0 32 32"><title>37-Speaker</title><g id="_37-Speaker" data-name="37-Speaker"><path d="M24,16V31s-9,0-9-7H10A8,8,0,0,1,10,8h5c0-7,9-7,9-7Z" style="fill:#c1c5c8"/><path d="M15,8V24c0,7,9,7,9,7V1S15,1,15,8Z" style="fill:#f2f2f2"/><circle cx="23" cy="20" r="2" style="fill:#c1c5c8"/><path d="M2,17a1,1,0,0,1-1-1,9.01,9.01,0,0,1,9-9h4.058c.65-5.506,6.673-7,9.942-7a1,1,0,0,1,1,1V6a1,1,0,0,1-2,0V2.062C20.845,2.283,16,3.305,16,8a1,1,0,0,1-1,1H10a7.008,7.008,0,0,0-7,7A1,1,0,0,1,2,17Z" style="fill:#6f7a7b"/><path d="M24,32c-3.269,0-9.292-1.494-9.942-7H10a9.01,9.01,0,0,1-9-9,1,1,0,0,1,2,0,7.008,7.008,0,0,0,7,7h5a1,1,0,0,1,1,1c0,4.7,4.845,5.717,7,5.938V26a1,1,0,0,1,2,0v5A1,1,0,0,1,24,32Z" style="fill:#6f7a7b"/><path d="M23,23a3,3,0,1,1,3-3A3,3,0,0,1,23,23Zm0-4a1,1,0,1,0,1,1A1,1,0,0,0,23,19Z" style="fill:#6f7a7b"/><path d="M25,21a1,1,0,0,1-1-1V10a1,1,0,0,1,1-1,5.785,5.785,0,0,1,6,6,1,1,0,0,1-2,0,3.657,3.657,0,0,0-3-3.869V20A1,1,0,0,1,25,21Z" style="fill:#6f7a7b"/><circle cx="15" cy="12" r="1" style="fill:#6f7a7b"/><circle cx="15" cy="16" r="1" style="fill:#6f7a7b"/><circle cx="15" cy="20" r="1" style="fill:#6f7a7b"/></g></svg>