<svg xmlns="http://www.w3.org/2000/svg" viewBox="0 0 32 32"><title>4-Music</title><g id="_4-Music" data-name="4-Music"><rect x="1" y="4" width="30" height="24" rx="2" style="fill:#c1c5c8"/><circle cx="13" cy="20" r="2" style="fill:#f2f2f2"/><path d="M29,29H3a3,3,0,0,1-3-3V6A3,3,0,0,1,3,3H29a3,3,0,0,1,3,3V26A3,3,0,0,1,29,29ZM3,5A1,1,0,0,0,2,6V26a1,1,0,0,0,1,1H29a1,1,0,0,0,1-1V6a1,1,0,0,0-1-1Z" style="fill:#6f7a7b"/><path d="M13,23a3,3,0,1,1,3-3A3,3,0,0,1,13,23Zm0-4a1,1,0,1,0,1,1A1,1,0,0,0,13,19Z" style="fill:#6f7a7b"/><path d="M15,21a1,1,0,0,1-1-1V10a1,1,0,0,1,1-1,5.785,5.785,0,0,1,6,6,1,1,0,0,1-2,0,3.657,3.657,0,0,0-3-3.869V20A1,1,0,0,1,15,21Z" style="fill:#6f7a7b"/><circle cx="19" cy="22" r="1" style="fill:#6f7a7b"/></g></svg>