<svg xmlns="http://www.w3.org/2000/svg" viewBox="0 0 32 32"><title>43-Headphone</title><g id="_43-Headphone" data-name="43-Headphone"><path d="M17,23v3H13V13H12C9,13,6,9,6,9V3A1.959,1.959,0,0,1,8,1h4c5,0,5,5,5,5Z" style="fill:#c1c5c8"/><path d="M17,26v2c0,3-4,3-4,3V26Z" style="fill:#f2f2f2"/><circle cx="19" cy="19" r="2" style="fill:#f2f2f2"/><path d="M13,32a1,1,0,0,1-1-1V14c-3.4,0-6.462-3.949-6.8-4.4A1,1,0,0,1,5,9V3A2.916,2.916,0,0,1,8,0h4a5.785,5.785,0,0,1,6,6v7a1,1,0,0,1-2,0V6a3.85,3.85,0,0,0-4-4H8A.915.915,0,0,0,7,3V8.654C7.918,9.782,10.114,12,12,12h1a1,1,0,0,1,1,1V29.884c.874-.184,2-.659,2-1.884V24a1,1,0,0,1,2,0v4C18,31.164,14.729,32,13,32Z" style="fill:#6f7a7b"/><path d="M17,27H13a1,1,0,0,1,0-2h4a1,1,0,0,1,0,2Z" style="fill:#6f7a7b"/><path d="M19,22a3,3,0,1,1,3-3A3,3,0,0,1,19,22Zm0-4a1,1,0,1,0,1,1A1,1,0,0,0,19,18Z" style="fill:#6f7a7b"/><path d="M21,20a1,1,0,0,1-1-1V9a1,1,0,0,1,1-1,5.785,5.785,0,0,1,6,6,1,1,0,0,1-2,0,3.657,3.657,0,0,0-3-3.869V19A1,1,0,0,1,21,20Z" style="fill:#6f7a7b"/><circle cx="10" cy="6" r="1" style="fill:#6f7a7b"/></g></svg>