<svg xmlns="http://www.w3.org/2000/svg" viewBox="0 0 32 32"><title>44-Headphone</title><g id="_44-Headphone" data-name="44-Headphone"><path d="M16,23v3H12V13H11C8,13,5,9,5,9V3A1.959,1.959,0,0,1,7,1h4c5,0,5,5,5,5Z" style="fill:#c1c5c8"/><path d="M16,26v2c0,3-4,3-4,3V26Z" style="fill:#f2f2f2"/><path d="M12,32a1,1,0,0,1-1-1V14c-3.4,0-6.462-3.949-6.8-4.4A1,1,0,0,1,4,9V3A2.916,2.916,0,0,1,7,0h4a5.785,5.785,0,0,1,6,6V8a1,1,0,0,1-2,0V6a3.85,3.85,0,0,0-4-4H7A.915.915,0,0,0,6,3V8.654C6.918,9.782,9.114,12,11,12h1a1,1,0,0,1,1,1V29.884c.874-.184,2-.659,2-1.884V24a1,1,0,0,1,2,0v4C17,31.164,13.729,32,12,32Z" style="fill:#6f7a7b"/><path d="M16,27H12a1,1,0,0,1,0-2h4a1,1,0,0,1,0,2Z" style="fill:#6f7a7b"/><path d="M22,25a.987.987,0,0,1-.383-.076A1,1,0,0,1,21,24V14.414l-1.707-1.707a1,1,0,0,1,1.414-1.414l7,7a1,1,0,0,1,0,1.414l-5,5A1,1,0,0,1,22,25Zm1-8.586v5.172L25.586,19Z" style="fill:#6f7a7b"/><path d="M20,21a1,1,0,0,1-.707-1.707L21,17.586V8a1,1,0,0,1,1.707-.707l5,5a1,1,0,0,1,0,1.414l-7,7A1,1,0,0,1,20,21Zm3-10.586v5.172L25.586,13Z" style="fill:#6f7a7b"/><circle cx="9" cy="6" r="1" style="fill:#6f7a7b"/><circle cx="16" cy="12" r="1" style="fill:#6f7a7b"/><circle cx="16" cy="16" r="1" style="fill:#6f7a7b"/><circle cx="16" cy="20" r="1" style="fill:#6f7a7b"/></g></svg>