<svg xmlns="http://www.w3.org/2000/svg" viewBox="0 0 32 32"><title>47-Music button</title><g id="_47-Music_button" data-name="47-Music button"><circle cx="16" cy="16" r="15" style="fill:#c1c5c8"/><polygon points="25 16 15 21 15 17.5 8 21 8 11 15 14.5 15 11 25 16" style="fill:#f2f2f2"/><path d="M16,32A16,16,0,1,1,32,16,16.019,16.019,0,0,1,16,32ZM16,2A14,14,0,1,0,30,16,14.015,14.015,0,0,0,16,2Z" style="fill:#6f7a7b"/><path d="M15,22a1,1,0,0,1-1-1V19.118L8.447,21.9A1,1,0,0,1,7,21V11a1,1,0,0,1,1.447-.895L14,12.882V11a1,1,0,0,1,1.447-.895l10,5a1,1,0,0,1,0,1.79l-10,5A1,1,0,0,1,15,22Zm0-5.5a1,1,0,0,1,1,1v1.882L22.764,16,16,12.618V14.5a1,1,0,0,1-1.447.895L9,12.618v6.764l5.553-2.777A1,1,0,0,1,15,16.5Z" style="fill:#6f7a7b"/></g></svg>