<svg xmlns="http://www.w3.org/2000/svg" viewBox="0 0 32 32"><title>48-Music button</title><g id="_48-Music_button" data-name="48-Music button"><circle cx="16" cy="16" r="15" style="fill:#c1c5c8"/><polygon points="7 16 17 11 17 14.5 24 11 24 21 17 17.5 17 21 7 16" style="fill:#f2f2f2"/><path d="M16,32A16,16,0,1,1,32,16,16.019,16.019,0,0,1,16,32ZM16,2A14,14,0,1,0,30,16,14.015,14.015,0,0,0,16,2Z" style="fill:#6f7a7b"/><path d="M24,22a1,1,0,0,1-.447-.105L18,19.118V21a1,1,0,0,1-1.447.895l-10-5a1,1,0,0,1,0-1.79l10-5A1,1,0,0,1,18,11v1.882l5.553-2.777A1,1,0,0,1,25,11V21a1,1,0,0,1-1,1Zm-7-5.5a1,1,0,0,1,.447.105L23,19.382V12.618L17.447,15.4A1,1,0,0,1,16,14.5V12.618L9.236,16,16,19.382V17.5a1,1,0,0,1,1-1Z" style="fill:#6f7a7b"/></g></svg>