<svg xmlns="http://www.w3.org/2000/svg" viewBox="0 0 32 32"><title>50-Headphone</title><g id="_50-Headphone" data-name="50-Headphone"><path d="M12,23v3H8V13H7C4,13,1,9,1,9V3A1.959,1.959,0,0,1,3,1H7c5,0,5,5,5,5Z" style="fill:#c1c5c8"/><path d="M12,26v2c0,3-4,3-4,3V26Z" style="fill:#f2f2f2"/><path d="M22,23v3H18V13H17c-3,0-6-4-6-4V3a1.959,1.959,0,0,1,2-2h4c5,0,5,5,5,5Z" style="fill:#c1c5c8"/><path d="M22,26v2c0,3-4,3-4,3V26Z" style="fill:#f2f2f2"/><rect x="27" y="12" width="4" height="8" rx="1" style="fill:#f2f2f2"/><path d="M18,32a1,1,0,0,1-1-1V14c-3.4,0-6.462-3.949-6.8-4.4A1,1,0,0,1,10,9V3a2.916,2.916,0,0,1,3-3h4a5.785,5.785,0,0,1,6,6V28C23,31.164,19.729,32,18,32ZM12,8.654C12.918,9.782,15.114,12,17,12h1a1,1,0,0,1,1,1V29.884c.874-.184,2-.659,2-1.884V6a3.85,3.85,0,0,0-4-4H13a.915.915,0,0,0-1,1Z" style="fill:#6f7a7b"/><path d="M22,27H18a1,1,0,0,1,0-2h4a1,1,0,0,1,0,2Z" style="fill:#6f7a7b"/><path d="M8,32a1,1,0,0,1-1-1V14C3.6,14,.538,10.051.2,9.6A1,1,0,0,1,0,9V3A2.916,2.916,0,0,1,3,0H7A1,1,0,0,1,7,2H3A.915.915,0,0,0,2,3V8.654C2.918,9.782,5.114,12,7,12H8a1,1,0,0,1,1,1V29.884c.874-.184,2-.659,2-1.884V15a1,1,0,0,1,2,0V28C13,31.164,9.729,32,8,32Z" style="fill:#6f7a7b"/><path d="M12,27H8a1,1,0,0,1,0-2h4a1,1,0,0,1,0,2Z" style="fill:#6f7a7b"/><path d="M25,32a1,1,0,0,1,0-2,2.853,2.853,0,0,0,3-3V20a1,1,0,0,1,2,0v7A4.821,4.821,0,0,1,25,32Z" style="fill:#6f7a7b"/><path d="M30,21H28a2,2,0,0,1-2-2V13a2,2,0,0,1,2-2h2a2,2,0,0,1,2,2v6A2,2,0,0,1,30,21Zm-2-8v6h2V13Z" style="fill:#6f7a7b"/><path d="M29,13a1,1,0,0,1-1-1V9a1,1,0,0,1,2,0v3A1,1,0,0,1,29,13Z" style="fill:#6f7a7b"/><circle cx="5" cy="6" r="1" style="fill:#6f7a7b"/><circle cx="15" cy="6" r="1" style="fill:#6f7a7b"/></g></svg>