<svg xmlns="http://www.w3.org/2000/svg" viewBox="0 0 32 32"><title>7-Add to playlist</title><g id="_7-Add_to_playlist" data-name="7-Add to playlist"><circle cx="21" cy="23" r="4" style="fill:#c1c5c8"/><circle cx="5" cy="27" r="4" style="fill:#c1c5c8"/><circle cx="24" cy="8" r="7" style="fill:#f2f2f2"/><path d="M5,32a5,5,0,1,1,5-5A5.006,5.006,0,0,1,5,32Zm0-8a3,3,0,1,0,3,3A3,3,0,0,0,5,24Z" style="fill:#6f7a7b"/><path d="M21,28a5,5,0,1,1,5-5A5.006,5.006,0,0,1,21,28Zm0-8a3,3,0,1,0,3,3A3,3,0,0,0,21,20Z" style="fill:#6f7a7b"/><path d="M25,24a1,1,0,0,1-1-1V19a1,1,0,0,1,2,0v4A1,1,0,0,1,25,24Z" style="fill:#6f7a7b"/><path d="M9,28a1,1,0,0,1-1-1V6a4.556,4.556,0,0,1,2.553-3.895,15.98,15.98,0,0,1,4.3-.949,1,1,0,0,1,.292,1.979,16.494,16.494,0,0,0-3.7.76A2.556,2.556,0,0,0,10,6.011V27A1,1,0,0,1,9,28Z" style="fill:#6f7a7b"/><path d="M24,16a8,8,0,1,1,8-8A8.009,8.009,0,0,1,24,16ZM24,2a6,6,0,1,0,6,6A6.006,6.006,0,0,0,24,2Z" style="fill:#6f7a7b"/><path d="M24,12a1,1,0,0,1-1-1V5a1,1,0,0,1,2,0v6A1,1,0,0,1,24,12Z" style="fill:#6f7a7b"/><path d="M27,9H21a1,1,0,0,1,0-2h6a1,1,0,0,1,0,2Z" style="fill:#6f7a7b"/></g></svg>