<svg xmlns="http://www.w3.org/2000/svg" viewBox="0 0 32 32"><title>8-Music</title><g id="_8-Music" data-name="8-Music"><path d="M31,15c0,6.63-5.72,12-14,12l-5,2V26C5.66,25.6,1,20.52,1,15,1,8.37,7.72,3,16,3S31,8.37,31,15Z" style="fill:#c1c5c8"/><circle cx="14" cy="18" r="2" style="fill:#f2f2f2"/><path d="M12,30a1,1,0,0,1-1-1V26.906C4.761,26.074,0,21.006,0,15,0,7.832,7.178,2,16,2S32,7.832,32,15c0,7.354-6.351,12.915-14.8,13l-4.823,1.93A1.007,1.007,0,0,1,12,30ZM16,4C8.28,4,2,8.935,2,15c0,5.164,4.514,9.65,10.063,10A1,1,0,0,1,13,26v1.523l3.628-1.452A1.012,1.012,0,0,1,17,26c7.411,0,13-4.729,13-11C30,8.935,23.72,4,16,4Z" style="fill:#6f7a7b"/><path d="M14,21a3,3,0,1,1,3-3A3,3,0,0,1,14,21Zm0-4a1,1,0,1,0,1,1A1,1,0,0,0,14,17Z" style="fill:#6f7a7b"/><path d="M16,19a1,1,0,0,1-1-1V8a1,1,0,0,1,1-1,5.785,5.785,0,0,1,6,6,1,1,0,0,1-2,0,3.657,3.657,0,0,0-3-3.869V18A1,1,0,0,1,16,19Z" style="fill:#6f7a7b"/></g></svg>