<svg xmlns="http://www.w3.org/2000/svg" viewBox="0 0 32 32"><title>9-Music</title><g id="_9-Music" data-name="9-Music"><rect x="1" y="2" width="30" height="28" rx="3" style="fill:#f2f2f2"/><path d="M31,5a3,3,0,0,0-3-3H4A3,3,0,0,0,1,5V9H31Z" style="fill:#c1c5c8"/><circle cx="14" cy="21" r="2" style="fill:#c1c5c8"/><path d="M28,31H4a4,4,0,0,1-4-4V5A4,4,0,0,1,4,1H28a4,4,0,0,1,4,4V27A4,4,0,0,1,28,31ZM4,3A2,2,0,0,0,2,5V27a2,2,0,0,0,2,2H28a2,2,0,0,0,2-2V5a2,2,0,0,0-2-2Z" style="fill:#6f7a7b"/><path d="M14,24a3,3,0,1,1,3-3A3,3,0,0,1,14,24Zm0-4a1,1,0,1,0,1,1A1,1,0,0,0,14,20Z" style="fill:#6f7a7b"/><path d="M16,22a1,1,0,0,1-1-1V11a1,1,0,0,1,1-1,5.785,5.785,0,0,1,6,6,1,1,0,0,1-2,0,3.657,3.657,0,0,0-3-3.869V21A1,1,0,0,1,16,22Z" style="fill:#6f7a7b"/><circle cx="5" cy="6" r="1" style="fill:#6f7a7b"/><circle cx="9" cy="6" r="1" style="fill:#6f7a7b"/><circle cx="27" cy="6" r="1" style="fill:#6f7a7b"/></g></svg>