<?xml version="1.0" encoding="UTF-8"?><svg xmlns="http://www.w3.org/2000/svg" viewBox="0 0 24 24"><g id="a"/><g id="b"/><g id="c"/><g id="d"/><g id="e"/><g id="f"/><g id="g"/><g id="h"/><g id="i"/><g id="j"/><g id="k"/><g id="l"/><g id="m"/><g id="n"/><g id="o"/><g id="p"/><g id="q"/><g id="r"/><g id="s"/><g id="t"><g><path d="M19.37,17.71c-.78-.04-1.55-.03-2.3,.04-1.54,.14-2.34,.43-2.99,.67-.53,.19-1.01,.37-1.64,.37-.17,0-.35-.01-.54-.04-1.54-.22-2.39-1.14-3.21-2.04-.77-.84-1.5-1.63-2.87-1.98-.26-.07-.53-.1-.8-.13-.51,.07-1.02,.12-1.55,.14,0,0,0,0-.01,0h-.25l-.52,.14c1.23,3.97,4.94,6.87,9.31,6.87,3.24,0,6.11-1.59,7.88-4.03h-.51Z"/><path d="M9.79,15.69c.73,.8,1.31,1.42,2.32,1.57,.55,.08,.86-.03,1.46-.25,.69-.25,1.63-.6,3.37-.75,.82-.07,1.66-.09,2.49-.04l1.34,.03c.21-.43,.4-.88,.54-1.34l-.31-.1-.25,.08c-1.73,.54-3.33,.8-4.78,.8-1.63,0-3.08-.34-4.33-1.01-.85-.46-1.54-1.03-2.15-1.59-.36,.21-.74,.42-1.19,.62-.19,.08-.38,.15-.57,.22,.88,.51,1.5,1.17,2.06,1.79Z"/><path d="M8.36,11.99c-.87-.81-1.52-1.29-2.31-1.24-.82,.05-1.64,.63-2.45,1.7l-.59,.79,.13-.03c.63-.11,1.23-.15,1.8-.11,.98-.15,1.9-.4,2.76-.78,.24-.1,.45-.21,.66-.33Z"/><path d="M18.88,13.81c-.11-.07-.23-.13-.33-.21-.61-.45-.95-.87-1.26-1.24-.24-.28-.44-.53-.75-.77-.67-.52-1.56-.81-2.56-.84-1.15-.03-1.8,.46-2.82,1.21-.12,.08-.24,.17-.36,.26,.47,.41,.97,.8,1.56,1.12,1.7,.92,3.9,1.07,6.53,.47Z"/><path d="M2.4,11.55c1.09-1.45,2.28-2.22,3.55-2.3,1.58-.1,2.63,.86,3.73,1.92,.21-.14,.41-.29,.6-.43,1.09-.79,2.1-1.55,3.75-1.5,1.32,.04,2.51,.44,3.44,1.16,.44,.34,.71,.67,.98,1,.28,.33,.54,.65,1.01,1,.43,.32,.91,.58,1.42,.77l.15,.05,.68-.21c.03-.33,.05-.67,.05-1,0-5.38-4.37-9.75-9.75-9.75S2.41,6.48,2.26,11.73l.13-.18Z"/></g></g><g id="u"/></svg>