<?xml version="1.0" encoding="UTF-8"?><svg xmlns="http://www.w3.org/2000/svg" viewBox="0 0 24 24"><g id="a"/><g id="b"/><g id="c"/><g id="d"/><g id="e"/><g id="f"/><g id="g"><g><path d="M20.53,8.77L14.9,3.4c-1.6-1.53-4.21-1.53-5.81,0L3.47,8.77c-.78,.74-1.22,1.77-1.22,2.82v6.18c0,2.19,1.85,3.97,4.13,3.97h4.88v-6.08c-1.71-.35-3-1.86-3-3.67v-1c0-.41,.34-.75,.75-.75h.25v-1.25c0-.41,.34-.75,.75-.75s.75,.34,.75,.75v1.25h2.5v-1.25c0-.41,.34-.75,.75-.75s.75,.34,.75,.75v1.25h.25c.41,0,.75,.34,.75,.75v1c0,1.81-1.29,3.33-3,3.67v6.08h4.88c2.27,0,4.13-1.78,4.13-3.97v-6.18c0-1.05-.44-2.08-1.22-2.82Z"/><path d="M12,14.25c1.24,0,2.25-1.01,2.25-2.25v-.25h-4.5v.25c0,1.24,1.01,2.25,2.25,2.25Z"/></g></g><g id="h"/><g id="i"/><g id="j"/><g id="k"/><g id="l"/><g id="m"/><g id="n"/><g id="o"/><g id="p"/><g id="q"/><g id="r"/><g id="s"/><g id="t"/><g id="u"/></svg>