<?xml version="1.0" encoding="UTF-8"?><svg xmlns="http://www.w3.org/2000/svg" viewBox="0 0 24 24"><g id="a"/><g id="b"/><g id="c"/><g id="d"/><g id="e"/><g id="f"/><g id="g"/><g id="h"/><g id="i"/><g id="j"/><g id="k"/><g id="l"/><g id="m"/><g id="n"/><g id="o"/><g id="p"/><g id="q"><g><path d="M19.39,15.62l-.02-.32-1.11,.41c-2.03,.7-4.13,1.05-6.26,1.05s-4.23-.35-6.24-1.04l-1.13-.42-.02,.33c-.11,1.6,.44,3.14,1.54,4.31s2.59,1.82,4.2,1.82h3.31c1.61,0,3.1-.65,4.2-1.82s1.65-2.71,1.54-4.31Z"/><path d="M17.76,14.29l1.51-.56-.32-4.79c-1.43,1.42-3.92,2.3-6.95,2.3s-5.52-.88-6.95-2.3l-.32,4.78,1.53,.57c3.68,1.26,7.78,1.27,11.5,0Z"/><path d="M12,9.75c3.85,0,6.75-1.61,6.75-3.75s-2.9-3.75-6.75-3.75-6.75,1.61-6.75,3.75,2.9,3.75,6.75,3.75Zm3.01-4.5h0c.42,0,.75,.34,.75,.75s-.33,.75-.75,.75-.75-.34-.75-.75,.33-.75,.75-.75Zm-2,0h0c.42,0,.75,.34,.75,.75s-.33,.75-.75,.75-.75-.34-.75-.75,.33-.75,.75-.75Z"/></g></g><g id="r"/><g id="s"/><g id="t"/><g id="u"/></svg>