<?xml version="1.0" encoding="UTF-8"?><svg xmlns="http://www.w3.org/2000/svg" viewBox="0 0 24 24"><g id="a"/><g id="b"/><g id="c"/><g id="d"/><g id="e"/><g id="f"/><g id="g"/><g id="h"><g><path d="M13.56,12.31l-.85-2.55c-.1-.31-.39-.51-.71-.51h-1.25V3c0-.41-.34-.75-.75-.75s-.75,.34-.75,.75v6.25h-1.25c-.32,0-.61,.21-.71,.51l-.85,2.55c-2.36,.31-4.19,2.31-4.19,4.75v.94c0,.41,.34,.75,.75,.75h3.33c.35,1.71,1.86,3,3.67,3s3.33-1.29,3.67-3h3.33c.41,0,.75-.34,.75-.75v-.94c0-2.44-1.83-4.44-4.19-4.75Zm-3.56,7.94c-.98,0-1.81-.63-2.12-1.5h4.24c-.31,.87-1.14,1.5-2.12,1.5Z"/><path d="M17.02,8.25h0c-.41,0-.75,.34-.75,.75s.34,.75,.75,.75,.75-.34,.75-.75-.33-.75-.75-.75Z"/><path d="M17,5.25c-.99,0-1.93,.47-2.59,1.28-.26,.32-.21,.8,.12,1.05,.32,.26,.79,.21,1.05-.12,.74-.93,2.09-.93,2.83,0,.15,.18,.37,.28,.59,.28,.17,0,.33-.05,.47-.16,.32-.26,.38-.73,.12-1.05-.65-.81-1.59-1.28-2.59-1.28Z"/><path d="M21.59,4.53c-1.16-1.45-2.83-2.28-4.59-2.28s-3.42,.83-4.59,2.28c-.26,.32-.21,.8,.12,1.05,.32,.26,.79,.21,1.05-.12,.87-1.09,2.12-1.72,3.41-1.72s2.54,.63,3.41,1.72c.15,.18,.37,.28,.59,.28,.17,0,.33-.05,.47-.16,.32-.26,.38-.73,.12-1.05Z"/></g></g><g id="i"/><g id="j"/><g id="k"/><g id="l"/><g id="m"/><g id="n"/><g id="o"/><g id="p"/><g id="q"/><g id="r"/><g id="s"/><g id="t"/><g id="u"/></svg>