<?xml version="1.0" encoding="UTF-8"?><svg xmlns="http://www.w3.org/2000/svg" viewBox="0 0 24 24"><g id="a"/><g id="b"><g><path d="M12,8.25h-1.25v-.25c0-.41-.34-.75-.75-.75s-.75,.34-.75,.75v.25h-1.25c-2.36,0-4.31,1.74-4.67,4h13.35c-.36-2.26-2.31-4-4.67-4Z"/><ellipse cx="10" cy="17.5" rx="1.25" ry=".75"/><path d="M17,14.25h-.25v-.5H3.25v.5h-.25c-.41,0-.75,.34-.75,.75s.34,.75,.75,.75h.25v3.25c0,1.52,1.23,2.75,2.75,2.75H14c1.52,0,2.75-1.23,2.75-2.75v-3.25h.25c.41,0,.75-.34,.75-.75s-.34-.75-.75-.75Zm-7,5.5c-1.54,0-2.75-.99-2.75-2.25s1.21-2.25,2.75-2.25,2.75,.99,2.75,2.25-1.21,2.25-2.75,2.25Z"/><path d="M15.02,5.15c-.41,.03-.72,.39-.7,.8s.39,.72,.8,.7c.6-.04,1.19,.17,1.61,.59s.64,1.01,.59,1.61c-.03,.41,.28,.77,.7,.8,.02,0,.04,0,.05,0,.39,0,.72-.3,.75-.7,.07-1.04-.3-2.05-1.03-2.77s-1.73-1.1-2.77-1.03Z"/><path d="M19.86,4.11c-1.3-1.3-3.11-1.97-4.97-1.84-.41,.03-.72,.39-.7,.8s.4,.73,.8,.7c1.43-.1,2.81,.41,3.8,1.4,.99,.99,1.5,2.38,1.4,3.8-.03,.41,.28,.77,.7,.8,.02,0,.04,0,.05,0,.39,0,.72-.3,.75-.7,.13-1.86-.54-3.67-1.84-4.97Z"/></g></g><g id="c"/><g id="d"/><g id="e"/><g id="f"/><g id="g"/><g id="h"/><g id="i"/><g id="j"/><g id="k"/><g id="l"/><g id="m"/><g id="n"/><g id="o"/><g id="p"/><g id="q"/><g id="r"/><g id="s"/><g id="t"/><g id="u"/></svg>