<?xml version="1.0" encoding="UTF-8"?><svg xmlns="http://www.w3.org/2000/svg" viewBox="0 0 24 24"><g id="a"/><g id="b"/><g id="c"/><g id="d"/><g id="e"/><g id="f"/><g id="g"/><g id="h"/><g id="i"/><g id="j"/><g id="k"/><g id="l"/><g id="m"/><g id="n"><g><circle cx="7.5" cy="13.5" r=".75"/><circle cx="16.5" cy="13.5" r=".75"/><path d="M20.53,8.77L14.9,3.4c-1.6-1.53-4.21-1.53-5.81,0L3.47,8.77c-.78,.74-1.22,1.77-1.22,2.82v6.18c0,2.19,1.85,3.97,4.13,3.97h11.25c2.27,0,4.13-1.78,4.13-3.97v-6.18c0-1.05-.44-2.08-1.22-2.82Zm-9.78,9.23c0,.41-.34,.75-.75,.75s-.75-.34-.75-.75v-1.17c0-.33-.13-.65-.37-.88l-.41-.41h0c-.29,.13-.62,.22-.97,.22-1.24,0-2.25-1.01-2.25-2.25s1.01-2.25,2.25-2.25,2.25,1.01,2.25,2.25c0,.35-.09,.67-.23,.97h0l.41,.42c.52,.52,.81,1.21,.81,1.94v1.17Zm1.25-3.25c-.41,0-.75-.34-.75-.75v-2.37c-1.15-.33-2-1.38-2-2.63,0-1.52,1.23-2.75,2.75-2.75s2.75,1.23,2.75,2.75c0,1.25-.85,2.3-2,2.63v2.37c0,.41-.34,.75-.75,.75Zm4.5,1c-.35,0-.67-.09-.97-.23h0l-.41,.42c-.24,.24-.37,.55-.37,.88v1.17c0,.41-.34,.75-.75,.75s-.75-.34-.75-.75v-1.17c0-.73,.29-1.43,.81-1.94l.41-.41h0c-.14-.3-.23-.62-.23-.97,0-1.24,1.01-2.25,2.25-2.25s2.25,1.01,2.25,2.25-1.01,2.25-2.25,2.25Z"/><circle cx="12" cy="9" r="1.25"/></g></g><g id="o"/><g id="p"/><g id="q"/><g id="r"/><g id="s"/><g id="t"/><g id="u"/></svg>