<?xml version="1.0" encoding="UTF-8"?><svg xmlns="http://www.w3.org/2000/svg" viewBox="0 0 24 24"><g id="a"/><g id="b"/><g id="c"/><g id="d"/><g id="e"><g><circle cx="15.5" cy="16.5" r=".75"/><circle cx="8.5" cy="11.5" r=".75"/><path d="M20.53,8.77L14.9,3.4c-1.6-1.53-4.21-1.53-5.81,0L3.47,8.77c-.78,.74-1.22,1.77-1.22,2.82v6.18c0,2.19,1.85,3.97,4.13,3.97h11.25c2.27,0,4.13-1.78,4.13-3.97v-6.18c0-1.05-.44-2.08-1.22-2.82Zm-5.03,9.98c-.78,0-1.46-.4-1.87-1H7c-.41,0-.75-.34-.75-.75s.34-.75,.75-.75h6.28c.13-1.12,1.07-2,2.22-2,1.24,0,2.25,1.01,2.25,2.25s-1.01,2.25-2.25,2.25Zm1.5-6h-6.63c-.4,.6-1.09,1-1.87,1-1.24,0-2.25-1.01-2.25-2.25s1.01-2.25,2.25-2.25c1.16,0,2.1,.88,2.22,2h6.28c.41,0,.75,.34,.75,.75s-.34,.75-.75,.75Z"/></g></g><g id="f"/><g id="g"/><g id="h"/><g id="i"/><g id="j"/><g id="k"/><g id="l"/><g id="m"/><g id="n"/><g id="o"/><g id="p"/><g id="q"/><g id="r"/><g id="s"/><g id="t"/><g id="u"/></svg>