<?xml version="1.0" encoding="UTF-8"?><svg xmlns="http://www.w3.org/2000/svg" viewBox="0 0 24 24"><g id="a"/><g id="b"/><g id="c"/><g id="d"/><g id="e"/><g id="f"/><g id="g"/><g id="h"/><g id="i"/><g id="j"/><g id="k"/><g id="l"/><g id="m"/><g id="n"/><g id="o"/><g id="p"/><g id="q"/><g id="r"/><g id="s"/><g id="t"/><g id="u"><path d="M20.53,8.77L14.9,3.4c-1.6-1.53-4.21-1.53-5.81,0L3.47,8.77c-.78,.74-1.22,1.77-1.22,2.82v6.18c0,2.19,1.85,3.97,4.13,3.97h11.25c2.27,0,4.13-1.78,4.13-3.97v-6.18c0-1.05-.44-2.08-1.22-2.82Zm-8.51,7.98c-.41,0-.75-.34-.75-.75s.33-.75,.74-.75h.01c.41,0,.75,.34,.75,.75s-.34,.75-.75,.75Zm2.72-2.19c-.14,.13-.32,.19-.5,.19-.21,0-.41-.08-.56-.25-.85-.95-2.5-.95-3.35,0-.28,.31-.75,.33-1.06,.06-.31-.28-.33-.75-.06-1.06,.71-.79,1.73-1.25,2.79-1.25s2.08,.46,2.79,1.25c.28,.31,.25,.78-.06,1.06Zm2.24-2c-.14,.13-.32,.19-.5,.19-.21,0-.41-.08-.56-.25-1-1.11-2.42-1.75-3.91-1.75s-2.92,.64-3.91,1.75c-.28,.31-.75,.33-1.06,.06-.31-.28-.33-.75-.06-1.06,1.28-1.43,3.11-2.25,5.03-2.25s3.75,.82,5.03,2.25c.28,.31,.25,.78-.06,1.06Z"/></g></svg>