<?xml version="1.0" encoding="UTF-8"?><svg xmlns="http://www.w3.org/2000/svg" viewBox="0 0 24 24"><g id="a"/><g id="b"/><g id="c"/><g id="d"/><g id="e"/><g id="f"/><g id="g"/><g id="h"/><g id="i"/><g id="j"/><g id="k"/><g id="l"/><g id="m"/><g id="n"/><g id="o"/><g id="p"><g><path d="M10.39,4.11c.04,.09,.13,.14,.22,.14h2.76c.1,0,.18-.05,.22-.14l.93-1.86h-5.04l.19,.46,.7,1.4Z"/><path d="M16.12,2.44l-1.17,2.34c-.3,.6-.9,.97-1.57,.97h-2.76c-.67,0-1.27-.37-1.57-.97l-.72-1.45-.39-.91c-1.55,.46-2.69,1.88-2.69,3.58v12c0,2.07,1.68,3.75,3.75,3.75h6c2.07,0,3.75-1.68,3.75-3.75V6c0-1.68-1.11-3.08-2.63-3.56Zm-4.1,12.31c-.41,0-.75-.34-.75-.75s.33-.75,.74-.75h.01c.41,0,.75,.34,.75,.75s-.34,.75-.75,.75Zm1.92-1.63c-.15,.15-.34,.22-.53,.22s-.38-.07-.53-.22c-.47-.47-1.29-.47-1.77,0-.29,.29-.77,.29-1.06,0-.29-.29-.29-.77,0-1.06,1.04-1.04,2.85-1.04,3.89,0,.29,.29,.29,.77,0,1.06Zm1.41-1.41c-.15,.15-.34,.22-.53,.22s-.38-.07-.53-.22c-1.27-1.27-3.33-1.27-4.6,0-.29,.29-.77,.29-1.06,0s-.29-.77,0-1.06c1.85-1.85,4.87-1.85,6.72,0,.29,.29,.29,.77,0,1.06Z"/></g></g><g id="q"/><g id="r"/><g id="s"/><g id="t"/><g id="u"/></svg>