<?xml version="1.0" encoding="UTF-8"?><svg xmlns="http://www.w3.org/2000/svg" viewBox="0 0 24 24"><g id="a"/><g id="b"/><g id="c"/><g id="d"/><g id="e"/><g id="f"/><g id="g"/><g id="h"/><g id="i"/><g id="j"/><g id="k"/><g id="l"/><g id="m"/><g id="n"/><g id="o"><g><path d="M13.74,3.62c-.18-.81-.88-1.37-1.71-1.37H5.64c-.83,0-1.53,.56-1.71,1.37l-1.56,7c-.12,.52,0,1.06,.34,1.47s.83,.65,1.36,.65h.17v1.25c0,.41,.34,.75,.75,.75s.75-.34,.75-.75v-1.25h2.5v4.5h-1.25c-1.52,0-2.75,1.23-2.75,2.75v1c0,.41,.34,.75,.75,.75H13c.41,0,.75-.34,.75-.75v-1c0-1.52-1.23-2.75-2.75-2.75h-1.25v-4.5h3.84c.53,0,1.03-.24,1.36-.65s.46-.95,.34-1.47l-1.56-7Z"/><path d="M17.53,9.47c-.29-.29-.77-.29-1.06,0-.29,.29-.29,.77,0,1.06,.5,.5,.78,1.21,.78,1.97s-.28,1.47-.78,1.97c-.29,.29-.29,.77,0,1.06,.15,.15,.34,.22,.53,.22s.38-.07,.53-.22c.77-.78,1.22-1.88,1.22-3.03s-.44-2.25-1.22-3.03Z"/><path d="M19.5,7.44c-.31-.28-.78-.25-1.06,.06-.28,.31-.25,.78,.06,1.06,1.11,1,1.75,2.42,1.75,3.91s-.64,2.92-1.75,3.91c-.31,.28-.33,.75-.06,1.06,.15,.17,.35,.25,.56,.25,.18,0,.36-.06,.5-.19,1.43-1.28,2.25-3.11,2.25-5.03s-.82-3.75-2.25-5.03Z"/></g></g><g id="p"/><g id="q"/><g id="r"/><g id="s"/><g id="t"/><g id="u"/></svg>