<?xml version="1.0" encoding="UTF-8"?><svg xmlns="http://www.w3.org/2000/svg" viewBox="0 0 24 24"><g id="a"/><g id="b"/><g id="c"><g><path d="M10.3,20.05c-1.14,0-2.24-.43-3.08-1.2-.94-.86-1.47-2.08-1.47-3.35s.54-2.49,1.47-3.35c.84-.78,1.93-1.2,3.07-1.2,.13,0,.26,0,.39,.02l4.06,.31V7c0-2.62-2.13-4.75-4.75-4.75h-2c-2.62,0-4.75,2.13-4.75,4.75v10c0,2.62,2.13,4.75,4.75,4.75h2c1.55,0,2.95-.76,3.83-1.95l-3.16,.24c-.11,0-.24,.01-.36,.01Zm.71-15.8h0c.42,0,.75,.34,.75,.75s-.33,.75-.75,.75-.75-.34-.75-.75,.33-.75,.75-.75Zm0,2h0c.42,0,.75,.34,.75,.75s-.33,.75-.75,.75-.75-.34-.75-.75,.33-.75,.75-.75Zm0,2h0c.42,0,.75,.34,.75,.75s-.33,.75-.75,.75-.75-.34-.75-.75,.33-.75,.75-.75Zm-2-4h0c.42,0,.75,.34,.75,.75s-.33,.75-.75,.75-.75-.34-.75-.75,.33-.75,.75-.75Zm0,2h0c.42,0,.75,.34,.75,.75s-.33,.75-.75,.75-.75-.34-.75-.75,.33-.75,.75-.75Zm0,2h0c.42,0,.75,.34,.75,.75s-.33,.75-.75,.75-.75-.34-.75-.75,.33-.75,.75-.75Zm-2-4h0c.42,0,.75,.34,.75,.75s-.33,.75-.75,.75-.75-.34-.75-.75,.33-.75,.75-.75Zm0,2h0c.42,0,.75,.34,.75,.75s-.33,.75-.75,.75-.75-.34-.75-.75,.33-.75,.75-.75Zm0,2h0c.42,0,.75,.34,.75,.75s-.33,.75-.75,.75-.75-.34-.75-.75,.33-.75,.75-.75Z"/><path d="M20.13,13.18l-9.58-.72c-.84-.08-1.69,.22-2.32,.79-.63,.58-.99,1.39-.99,2.25s.36,1.67,.99,2.25c.56,.52,1.31,.8,2.06,.8,.08,0,.17,0,.25,0l9.58-.72c.91-.07,1.62-.83,1.62-1.75v-1.14c0-.91-.71-1.68-1.62-1.75Z"/></g></g><g id="d"/><g id="e"/><g id="f"/><g id="g"/><g id="h"/><g id="i"/><g id="j"/><g id="k"/><g id="l"/><g id="m"/><g id="n"/><g id="o"/><g id="p"/><g id="q"/><g id="r"/><g id="s"/><g id="t"/><g id="u"/></svg>