<?xml version="1.0" encoding="UTF-8"?><svg xmlns="http://www.w3.org/2000/svg" viewBox="0 0 24 24"><g id="a"/><g id="b"/><g id="c"/><g id="d"><g><rect x="9.75" y="15.75" width="4.5" height="1.5" rx=".25" ry=".25"/><path d="M12,2.25C6.62,2.25,2.25,6.62,2.25,12s4.37,9.75,9.75,9.75,9.75-4.37,9.75-9.75S17.38,2.25,12,2.25Zm3.75,14.75c0,.96-.79,1.75-1.75,1.75h-4c-.96,0-1.75-.79-1.75-1.75v-1c0-.96,.79-1.75,1.75-1.75h4c.96,0,1.75,.79,1.75,1.75v1Zm-5.16-6.53c-.26,.32-.73,.38-1.05,.12-.32-.26-.38-.73-.12-1.05,.65-.81,1.59-1.28,2.59-1.28s1.93,.47,2.59,1.28c.26,.32,.21,.8-.12,1.05-.14,.11-.3,.16-.47,.16-.22,0-.44-.1-.59-.28-.74-.93-2.09-.93-2.83,0Zm2.18,1.53c0,.41-.34,.75-.75,.75s-.75-.34-.75-.75,.33-.75,.74-.75h.01c.41,0,.75,.34,.75,.75Zm3.7-3.41c-.14,.11-.3,.16-.47,.16-.22,0-.44-.1-.59-.28-.87-1.09-2.12-1.72-3.41-1.72s-2.54,.63-3.41,1.72c-.26,.32-.73,.37-1.05,.12-.32-.26-.38-.73-.12-1.05,1.16-1.45,2.83-2.28,4.59-2.28s3.42,.83,4.59,2.28c.26,.32,.21,.8-.12,1.05Z"/></g></g><g id="e"/><g id="f"/><g id="g"/><g id="h"/><g id="i"/><g id="j"/><g id="k"/><g id="l"/><g id="m"/><g id="n"/><g id="o"/><g id="p"/><g id="q"/><g id="r"/><g id="s"/><g id="t"/><g id="u"/></svg>