<?xml version="1.0" encoding="UTF-8"?><svg xmlns="http://www.w3.org/2000/svg" viewBox="0 0 24 24"><g id="a"/><g id="b"/><g id="c"/><g id="d"/><g id="e"/><g id="f"/><g id="g"/><g id="h"/><g id="i"/><g id="j"/><g id="k"/><g id="l"/><g id="m"/><g id="n"/><g id="o"/><g id="p"/><g id="q"/><g id="r"><path d="M14.75,4.7v-.7c0-.96-.79-1.75-1.75-1.75h-2c-.96,0-1.75,.79-1.75,1.75v.7c-3.48,1.16-6,4.44-6,8.3,0,4.82,3.92,8.75,8.75,8.75s8.75-3.93,8.75-8.75c0-3.86-2.52-7.14-6-8.3Zm-4-.45v-.25c0-.14,.11-.25,.25-.25h2c.14,0,.25,.11,.25,.25v.25h-2.5Zm3.78,9.78l-3,3c-.15,.15-.34,.22-.53,.22s-.38-.07-.53-.22c-.29-.29-.29-.77,0-1.06l2.06-2.06-2.71-.68c-.26-.07-.47-.27-.54-.53s0-.54,.19-.73l3-3c.29-.29,.77-.29,1.06,0s.29,.77,0,1.06l-2.06,2.06,2.71,.68c.26,.07,.47,.27,.54,.53s0,.54-.19,.73Z"/></g><g id="s"/><g id="t"/><g id="u"/></svg>