<?xml version="1.0" encoding="UTF-8"?><svg xmlns="http://www.w3.org/2000/svg" viewBox="0 0 24 24"><g id="a"/><g id="b"><path d="M12,2.25C6.62,2.25,2.25,6.62,2.25,12s4.37,9.75,9.75,9.75,9.75-4.37,9.75-9.75S17.38,2.25,12,2.25Zm-4.53,6.28c-.29-.29-.29-.77,0-1.06s.77-.29,1.06,0l2,2c.29,.29,.29,.77,0,1.06l-2,2c-.15,.15-.34,.22-.53,.22s-.38-.07-.53-.22c-.29-.29-.29-.77,0-1.06l1.47-1.47-1.47-1.47Zm9.2,7.81c-.13,.26-.4,.41-.67,.41-.11,0-.23-.03-.33-.08l-1.66-.83-1.44,.72c-.35,.17-.77,.18-1.12,0l-1.44-.72-1.66,.83c-.37,.19-.82,.04-1.01-.33-.19-.37-.04-.82,.33-1.01l1.78-.89c.35-.17,.77-.18,1.12,0l1.44,.72,1.44-.72c.35-.17,.77-.18,1.12,0l1.78,.89c.37,.19,.52,.64,.33,1.01Zm-.14-4.87c.29,.29,.29,.77,0,1.06-.15,.15-.34,.22-.53,.22s-.38-.07-.53-.22l-2-2c-.29-.29-.29-.77,0-1.06l2-2c.29-.29,.77-.29,1.06,0s.29,.77,0,1.06l-1.47,1.47,1.47,1.47Z"/></g><g id="c"/><g id="d"/><g id="e"/><g id="f"/><g id="g"/><g id="h"/><g id="i"/><g id="j"/><g id="k"/><g id="l"/><g id="m"/><g id="n"/><g id="o"/><g id="p"/><g id="q"/><g id="r"/><g id="s"/><g id="t"/><g id="u"/></svg>