<?xml version="1.0" encoding="UTF-8"?><svg xmlns="http://www.w3.org/2000/svg" viewBox="0 0 24 24"><g id="a"/><g id="b"/><g id="c"/><g id="d"/><g id="e"/><g id="f"><path d="M12,2.25C6.62,2.25,2.25,6.62,2.25,12s4.37,9.75,9.75,9.75,9.75-4.37,9.75-9.75S17.38,2.25,12,2.25Zm-3.5,6.5c.69,0,1.25,.56,1.25,1.25s-.56,1.25-1.25,1.25-1.25-.56-1.25-1.25,.56-1.25,1.25-1.25Zm8.22,5.46c-.61,2.08-2.55,3.54-4.72,3.54s-4.11-1.46-4.72-3.54c-.12-.4,.11-.81,.51-.93,.4-.12,.81,.11,.93,.51,.42,1.45,1.77,2.46,3.28,2.46s2.86-1.01,3.28-2.46c.12-.4,.54-.63,.93-.51,.4,.12,.63,.53,.51,.93Zm.68-3.74c-.12,.08-.26,.11-.4,.11-.25,0-.49-.13-.64-.35-.01-.02-.31-.48-.84-.49-.55,.01-.87,.47-.89,.49-.23,.34-.69,.45-1.03,.22-.35-.22-.45-.68-.23-1.02,.08-.12,.78-1.19,2.14-1.19h.05c1.32,.03,2.01,1.07,2.09,1.19,.22,.35,.11,.81-.24,1.03Z"/></g><g id="g"/><g id="h"/><g id="i"/><g id="j"/><g id="k"/><g id="l"/><g id="m"/><g id="n"/><g id="o"/><g id="p"/><g id="q"/><g id="r"/><g id="s"/><g id="t"/><g id="u"/></svg>