<?xml version="1.0" encoding="UTF-8"?><svg xmlns="http://www.w3.org/2000/svg" viewBox="0 0 24 24"><g id="a"/><g id="b"/><g id="c"/><g id="d"/><g id="e"/><g id="f"/><g id="g"/><g id="h"/><g id="i"/><g id="j"/><g id="k"><path d="M12,2.25C6.62,2.25,2.25,6.62,2.25,12s4.37,9.75,9.75,9.75,9.75-4.37,9.75-9.75S17.38,2.25,12,2.25Zm-5.68,7.07c-.18-.38-.01-.82,.36-1,.32-.15,1.45-.59,2.65,0,.56,.28,1.04,.75,1.33,1.33,.19,.37,.04,.82-.33,1.01-.11,.06-.23,.08-.34,.08-.27,0-.54-.15-.67-.41-.09-.17-.29-.48-.67-.67-.63-.31-1.28-.03-1.35,0-.37,.18-.82,.01-1-.36Zm9.89,8.4c-.07,.02-.14,.03-.21,.03-.32,0-.62-.21-.72-.54-.42-1.45-1.77-2.46-3.28-2.46s-2.86,1.01-3.28,2.46c-.12,.4-.54,.63-.93,.51-.4-.12-.63-.53-.51-.93,.61-2.08,2.55-3.54,4.72-3.54s4.11,1.46,4.72,3.54c.12,.4-.11,.81-.51,.93Zm1.47-8.4c-.17,.38-.62,.54-1,.36-.07-.03-.72-.32-1.35,0-.38,.19-.58,.5-.67,.67-.13,.26-.4,.41-.67,.41-.12,0-.23-.03-.34-.08-.37-.19-.51-.64-.33-1.01,.3-.58,.77-1.05,1.33-1.33,1.2-.6,2.33-.16,2.65,0,.38,.17,.54,.62,.36,1Z"/></g><g id="l"/><g id="m"/><g id="n"/><g id="o"/><g id="p"/><g id="q"/><g id="r"/><g id="s"/><g id="t"/><g id="u"/></svg>