<?xml version="1.0" encoding="UTF-8"?><svg xmlns="http://www.w3.org/2000/svg" viewBox="0 0 24 24"><g id="a"/><g id="b"/><g id="c"/><g id="d"/><g id="e"/><g id="f"/><g id="g"/><g id="h"/><g id="i"/><g id="j"/><g id="k"/><g id="l"/><g id="m"/><g id="n"/><g id="o"/><g id="p"/><g id="q"/><g id="r"><path d="M12,2.25C6.62,2.25,2.25,6.62,2.25,12s4.37,9.75,9.75,9.75,9.75-4.37,9.75-9.75S17.38,2.25,12,2.25Zm-5.75,7.75c0-.41,.34-.75,.75-.75h3c.41,0,.75,.34,.75,.75s-.34,.75-.75,.75h-3c-.41,0-.75-.34-.75-.75Zm9.75,5.75H8c-.41,0-.75-.34-.75-.75s.34-.75,.75-.75h8c.41,0,.75,.34,.75,.75s-.34,.75-.75,.75Zm1-5h-3c-.41,0-.75-.34-.75-.75s.34-.75,.75-.75h3c.41,0,.75,.34,.75,.75s-.34,.75-.75,.75Z"/></g><g id="s"/><g id="t"/><g id="u"/></svg>