<?xml version="1.0" encoding="UTF-8"?><svg xmlns="http://www.w3.org/2000/svg" viewBox="0 0 24 24"><g id="a"/><g id="b"/><g id="c"/><g id="d"/><g id="e"/><g id="f"/><g id="g"/><g id="h"/><g id="i"/><g id="j"/><g id="k"/><g id="l"/><g id="m"/><g id="n"/><g id="o"/><g id="p"><g><path d="M15,14.75h-6c-.14,0-.25,.11-.25,.25,0,1.24,1.01,2.25,2.25,2.25h2c1.24,0,2.25-1.01,2.25-2.25,0-.14-.11-.25-.25-.25Z"/><path d="M18.1,11.39l-.6-.3-.16,.65c-.07,.29,.09,.47,.17,.54s.28,.2,.55,.09c.29-.12,.33-.37,.34-.48s-.02-.36-.3-.5Z"/><path d="M6.5,11.09l-.6,.3c-.28,.14-.3,.4-.3,.5s.05,.36,.34,.48c.28,.11,.48-.03,.55-.09,.07-.06,.24-.25,.17-.54l-.16-.65Z"/><path d="M12,2.25C6.62,2.25,2.25,6.62,2.25,12s4.37,9.75,9.75,9.75,9.75-4.37,9.75-9.75S17.38,2.25,12,2.25ZM5.38,13.76c-.75-.3-1.25-.99-1.28-1.81-.03-.81,.4-1.54,1.12-1.91l1.12-.56s0-.03,.02-.04c.28-.45,1.08-1.2,2.19-1.2,1.33,.03,2.01,1.08,2.09,1.19,.22,.35,.11,.81-.24,1.03-.12,.08-.26,.11-.39,.11-.25,0-.5-.13-.64-.35-.01-.02-.31-.47-.84-.48-.34-.02-.58,.16-.73,.31l.33,1.31c.19,.75-.06,1.52-.64,2.03-.38,.33-.85,.5-1.34,.5-.26,0-.51-.05-.76-.15Zm7.62,4.99h-2c-2.07,0-3.75-1.68-3.75-3.75,0-.96,.79-1.75,1.75-1.75h6c.96,0,1.75,.79,1.75,1.75,0,2.07-1.68,3.75-3.75,3.75Zm5.62-4.99c-.25,.1-.5,.15-.76,.15-.48,0-.96-.17-1.34-.5-.58-.51-.82-1.28-.64-2.03l.33-1.31c-.14-.14-.36-.31-.69-.31-.52-.03-.87,.47-.89,.49-.23,.34-.69,.45-1.03,.23-.35-.22-.45-.67-.24-1.02,.28-.45,1.07-1.2,2.19-1.2,1.33,.03,2.01,1.08,2.09,1.19,0,.01,0,.03,.02,.04l1.12,.56c.73,.36,1.16,1.1,1.12,1.91-.03,.81-.52,1.5-1.28,1.81Z"/></g></g><g id="q"/><g id="r"/><g id="s"/><g id="t"/><g id="u"/></svg>