<?xml version="1.0" encoding="UTF-8"?><svg xmlns="http://www.w3.org/2000/svg" viewBox="0 0 24 24"><g id="a"/><g id="b"/><g id="c"/><g id="d"/><g id="e"/><g id="f"/><g id="g"/><g id="h"/><g id="i"/><g id="j"/><g id="k"/><g id="l"/><g id="m"/><g id="n"/><g id="o"><g><circle cx="16" cy="10" r="1.25"/><path d="M5.48,8.9c.42-.97,1.39-1.65,2.52-1.65,1.25,0,2.3,.85,2.63,2h2.73c.33-1.15,1.38-2,2.63-2,1.13,0,2.09,.68,2.52,1.65l2.26-1.13c-1.58-3.26-4.91-5.52-8.77-5.52S4.86,4.47,3.27,7.69l1.12,.67,1.1,.55Z"/><path d="M21.33,9.17l-2.63,1.31c-.23,1.28-1.35,2.26-2.7,2.26-1.25,0-2.3-.85-2.63-2h-2.73c-.33,1.15-1.38,2-2.63,2-1.35,0-2.47-.98-2.7-2.26l-1.63-.82-.97-.58c-.29,.92-.44,1.9-.44,2.91,0,5.38,4.37,9.75,9.75,9.75s9.75-4.37,9.75-9.75c0-.98-.15-1.93-.42-2.83Zm-5.13,6.22c-.89,1.46-2.5,2.36-4.2,2.36-.82,0-1.64-.21-2.36-.61-.36-.2-.5-.66-.3-1.02,.2-.36,.66-.5,1.02-.3,.5,.28,1.07,.42,1.64,.42,1.18,0,2.3-.63,2.92-1.64,.22-.35,.68-.47,1.03-.25,.35,.22,.46,.68,.25,1.03Z"/><circle cx="8" cy="10" r="1.25"/></g></g><g id="p"/><g id="q"/><g id="r"/><g id="s"/><g id="t"/><g id="u"/></svg>