<?xml version="1.0" encoding="UTF-8"?><svg xmlns="http://www.w3.org/2000/svg" viewBox="0 0 24 24"><g id="a"/><g id="b"/><g id="c"/><g id="d"/><g id="e"/><g id="f"/><g id="g"/><g id="h"/><g id="i"/><g id="j"/><g id="k"/><g id="l"/><g id="m"/><g id="n"/><g id="o"/><g id="p"/><g id="q"/><g id="r"/><g id="s"/><g id="t"><path d="M12,2.25C6.62,2.25,2.25,6.62,2.25,12s4.37,9.75,9.75,9.75,9.75-4.37,9.75-9.75S17.38,2.25,12,2.25Zm-1.6,8.23c-.12,.08-.26,.11-.4,.11-.25,0-.49-.13-.64-.35-.01-.02-.31-.48-.84-.49-.55-.03-.87,.47-.89,.49-.23,.34-.69,.45-1.03,.23-.35-.22-.45-.68-.23-1.02,.08-.13,.81-1.2,2.19-1.19,1.32,.03,2.01,1.07,2.09,1.19,.22,.35,.11,.81-.24,1.03Zm4.35,5.52c0,.96-.79,1.75-1.75,1.75h-1c-.41,0-.75-.34-.75-.75s.34-.75,.75-.75h1c.14,0,.25-.11,.25-.25s-.11-.25-.25-.25c-.41,0-.75-.34-.75-.75s.34-.75,.75-.75c.14,0,.25-.11,.25-.25s-.11-.25-.25-.25h-1c-.41,0-.75-.34-.75-.75s.34-.75,.75-.75h1c.96,0,1.75,.79,1.75,1.75,0,.37-.12,.72-.32,1,.2,.28,.32,.63,.32,1Zm2.65-5.52c-.12,.08-.26,.11-.4,.11-.25,0-.49-.13-.64-.35-.01-.02-.31-.48-.84-.49-.52-.03-.87,.47-.89,.49-.23,.34-.69,.45-1.03,.23-.35-.22-.45-.68-.23-1.02,.08-.13,.8-1.2,2.19-1.19,1.32,.03,2.01,1.07,2.09,1.19,.22,.35,.11,.81-.24,1.03Z"/></g><g id="u"/></svg>