<?xml version="1.0" encoding="UTF-8"?><svg xmlns="http://www.w3.org/2000/svg" viewBox="0 0 24 24"><g id="a"/><g id="b"/><g id="c"><path d="M12,2.25C6.62,2.25,2.25,6.62,2.25,12s4.37,9.75,9.75,9.75,9.75-4.37,9.75-9.75S17.38,2.25,12,2.25ZM6.6,10.47c-.35-.22-.45-.68-.23-1.02,.08-.13,.8-1.21,2.19-1.19,1.32,.03,2.01,1.07,2.08,1.19,.22,.35,.11,.81-.24,1.03-.12,.08-.26,.11-.4,.11-.25,0-.5-.13-.64-.35-.01-.02-.31-.48-.84-.49h-.02c-.54,0-.86,.47-.87,.49-.22,.34-.69,.45-1.03,.22Zm10.12,3.74c-.61,2.08-2.55,3.54-4.72,3.54s-4.11-1.46-4.72-3.54c-.12-.4,.11-.81,.51-.93,.4-.12,.81,.11,.93,.51,.42,1.45,1.77,2.46,3.28,2.46s2.86-1.01,3.28-2.46c.12-.4,.53-.63,.93-.51,.4,.12,.63,.53,.51,.93Zm.68-3.74c-.12,.08-.26,.11-.4,.11-.25,0-.5-.13-.64-.35-.01-.02-.31-.48-.84-.49h-.02c-.54,0-.86,.47-.87,.49-.23,.34-.69,.45-1.03,.22-.35-.22-.45-.68-.23-1.02,.08-.13,.8-1.21,2.19-1.19,1.32,.03,2.01,1.07,2.08,1.19,.22,.35,.11,.81-.24,1.03Z"/></g><g id="d"/><g id="e"/><g id="f"/><g id="g"/><g id="h"/><g id="i"/><g id="j"/><g id="k"/><g id="l"/><g id="m"/><g id="n"/><g id="o"/><g id="p"/><g id="q"/><g id="r"/><g id="s"/><g id="t"/><g id="u"/></svg>