<?xml version="1.0" encoding="UTF-8"?><svg xmlns="http://www.w3.org/2000/svg" viewBox="0 0 24 24"><g id="a"/><g id="b"/><g id="c"/><g id="d"/><g id="e"/><g id="f"/><g id="g"/><g id="h"><g><path d="M15,14.75h-6c-.14,0-.25,.11-.25,.25,0,1.24,1.01,2.25,2.25,2.25h2c1.24,0,2.25-1.01,2.25-2.25,0-.14-.11-.25-.25-.25Z"/><path d="M12,2.25C6.62,2.25,2.25,6.62,2.25,12s4.37,9.75,9.75,9.75,9.75-4.37,9.75-9.75S17.38,2.25,12,2.25Zm-6.16,7.68c-.13-.19-.24-.37-.35-.54-.32-.55-.33-1.21,0-1.77,.32-.56,.92-.91,1.56-.91,.47,0,.93,.19,1.27,.53l.19,.19,.19-.19c.33-.33,.79-.52,1.26-.52,.64,0,1.24,.35,1.56,.91,.32,.56,.32,1.22,0,1.76-.11,.18-.22,.36-.35,.54-.43,.62-.93,1.18-1.5,1.67h0c-.33,.29-.75,.43-1.16,.43s-.82-.14-1.16-.43c-.57-.49-1.08-1.06-1.5-1.67Zm7.16,8.82h-2c-2.07,0-3.75-1.68-3.75-3.75,0-.96,.79-1.75,1.75-1.75h6c.96,0,1.75,.79,1.75,1.75,0,2.07-1.68,3.75-3.75,3.75Zm5.51-9.37c-.11,.18-.22,.36-.35,.54-.43,.62-.93,1.18-1.5,1.67h0c-.33,.29-.75,.43-1.16,.43s-.82-.14-1.16-.43c-.57-.49-1.08-1.06-1.5-1.67-.13-.19-.24-.37-.35-.54-.32-.55-.33-1.21,0-1.77,.32-.56,.92-.91,1.56-.91,.47,0,.93,.19,1.27,.53l.19,.19,.19-.19c.33-.33,.79-.52,1.26-.52,.64,0,1.24,.35,1.56,.91,.32,.56,.32,1.22,0,1.76Z"/></g></g><g id="i"/><g id="j"/><g id="k"/><g id="l"/><g id="m"/><g id="n"/><g id="o"/><g id="p"/><g id="q"/><g id="r"/><g id="s"/><g id="t"/><g id="u"/></svg>