<?xml version="1.0" encoding="UTF-8"?><svg xmlns="http://www.w3.org/2000/svg" viewBox="0 0 24 24"><g id="a"/><g id="b"/><g id="c"/><g id="d"/><g id="e"/><g id="f"/><g id="g"/><g id="h"/><g id="i"/><g id="j"/><g id="k"/><g id="l"><path d="M12,2.25C6.62,2.25,2.25,6.62,2.25,12s4.37,9.75,9.75,9.75,9.75-4.37,9.75-9.75S17.38,2.25,12,2.25Zm-5.64,7.15c-.22-.35-.11-.81,.24-1.03,.35-.22,.81-.11,1.03,.24,.02,.03,.33,.49,.87,.49h.02c.53-.01,.83-.47,.84-.49,.22-.35,.68-.45,1.04-.23,.35,.22,.46,.68,.24,1.03-.07,.12-.77,1.17-2.08,1.19h-.05c-1.35,0-2.06-1.07-2.13-1.19Zm10.24,6.05c-1.64,2.19-4.12,2.3-4.6,2.3-2.74,0-4.31-1.92-4.6-2.3-.25-.33-.18-.8,.15-1.05,.33-.25,.8-.18,1.05,.15,.13,.17,1.33,1.7,3.4,1.7,.22,0,2.16-.05,3.4-1.7,.25-.33,.72-.4,1.05-.15,.33,.25,.4,.72,.15,1.05Zm1.04-6.05c-.07,.12-.77,1.17-2.08,1.19h-.05c-1.35,0-2.06-1.07-2.13-1.19-.22-.35-.11-.81,.24-1.03,.35-.22,.81-.11,1.03,.24,.02,.03,.33,.49,.87,.49h.02c.53-.01,.83-.47,.84-.49,.22-.35,.68-.45,1.04-.23,.35,.22,.46,.68,.24,1.03Z"/></g><g id="m"/><g id="n"/><g id="o"/><g id="p"/><g id="q"/><g id="r"/><g id="s"/><g id="t"/><g id="u"/></svg>