<?xml version="1.0" encoding="UTF-8"?><svg xmlns="http://www.w3.org/2000/svg" viewBox="0 0 24 24"><g id="a"/><g id="b"/><g id="c"/><g id="d"/><g id="e"/><g id="f"/><g id="g"/><g id="h"/><g id="i"/><g id="j"/><g id="k"/><g id="l"/><g id="m"/><g id="n"><path d="M12,2.25C6.62,2.25,2.25,6.62,2.25,12s4.37,9.75,9.75,9.75,9.75-4.37,9.75-9.75S17.38,2.25,12,2.25Zm-3.5,6c.69,0,1.25,.56,1.25,1.25s-.56,1.25-1.25,1.25-1.25-.56-1.25-1.25,.56-1.25,1.25-1.25Zm7.71,9.47c-.4,.11-.81-.11-.93-.51-.42-1.45-1.77-2.46-3.28-2.46s-2.86,1.01-3.28,2.46c-.1,.33-.4,.54-.72,.54-.07,0-.14,0-.21-.03-.4-.12-.63-.53-.51-.93,.61-2.08,2.55-3.54,4.72-3.54s4.11,1.46,4.72,3.54c.12,.4-.11,.81-.51,.93Zm-.71-6.97c-.69,0-1.25-.56-1.25-1.25s.56-1.25,1.25-1.25,1.25,.56,1.25,1.25-.56,1.25-1.25,1.25Z"/></g><g id="o"/><g id="p"/><g id="q"/><g id="r"/><g id="s"/><g id="t"/><g id="u"/></svg>