<?xml version="1.0" encoding="UTF-8"?><svg xmlns="http://www.w3.org/2000/svg" viewBox="0 0 24 24"><g id="a"/><g id="b"/><g id="c"/><g id="d"/><g id="e"/><g id="f"/><g id="g"/><g id="h"/><g id="i"/><g id="j"/><g id="k"/><g id="l"/><g id="m"><g><path d="M12,12.75c-1.24,0-2.25,1.01-2.25,2.25,0,.05,.01,.1,.02,.16,.42-.39,1.17-.91,2.23-.91,.24,0,1.34,.05,2.24,.89,0-.05,.01-.09,.01-.14,0-1.24-1.01-2.25-2.25-2.25Z"/><path d="M12,15.75c-.85,0-1.35,.63-1.4,.7-.05,.06-.12,.1-.18,.15,.41,.4,.96,.65,1.58,.65s1.17-.25,1.57-.65c-.06-.04-.12-.09-.17-.15-.51-.68-1.31-.7-1.4-.7Z"/><path d="M12,2.25C6.62,2.25,2.25,6.62,2.25,12s4.37,9.75,9.75,9.75,9.75-4.37,9.75-9.75S17.38,2.25,12,2.25Zm-4.68,6.65c-.38,.18-.82,.01-1-.36-.17-.38-.01-.82,.36-1,.32-.15,1.45-.59,2.65,0,.57,.28,1.04,.75,1.33,1.33,.19,.37,.04,.82-.33,1.01-.11,.06-.23,.08-.34,.08-.27,0-.54-.15-.67-.41-.09-.17-.29-.48-.67-.67-.63-.31-1.28-.03-1.35,0Zm4.68,9.85c-2.07,0-3.75-1.68-3.75-3.75s1.68-3.75,3.75-3.75,3.75,1.68,3.75,3.75-1.68,3.75-3.75,3.75Zm5.68-10.21c-.17,.38-.62,.54-1,.36-.07-.03-.73-.32-1.35,0-.38,.19-.58,.5-.67,.67-.13,.26-.4,.41-.67,.41-.11,0-.23-.03-.34-.08-.37-.19-.51-.64-.33-1.01,.3-.58,.77-1.05,1.33-1.33,1.2-.6,2.33-.16,2.65,0,.38,.17,.54,.62,.36,1Z"/></g></g><g id="n"/><g id="o"/><g id="p"/><g id="q"/><g id="r"/><g id="s"/><g id="t"/><g id="u"/></svg>