<?xml version="1.0" encoding="UTF-8"?><svg xmlns="http://www.w3.org/2000/svg" viewBox="0 0 24 24"><g id="a"/><g id="b"/><g id="c"/><g id="d"/><g id="e"/><g id="f"/><g id="g"/><g id="h"/><g id="i"><g><path d="M13,13.75h-2c-1.24,0-2.25,1.01-2.25,2.25,0,.14,.11,.25,.25,.25h6c.14,0,.25-.11,.25-.25,0-1.24-1.01-2.25-2.25-2.25Z"/><path d="M12,2.25C6.62,2.25,2.25,6.62,2.25,12s4.37,9.75,9.75,9.75,9.75-4.37,9.75-9.75S17.38,2.25,12,2.25ZM7.47,7.47c.29-.29,.77-.29,1.06,0l2,2c.17,.17,.25,.41,.21,.65s-.19,.44-.4,.55l-2,1c-.11,.05-.22,.08-.33,.08-.27,0-.54-.15-.67-.42-.19-.37-.04-.82,.34-1.01l1.07-.53-1.26-1.26c-.29-.29-.29-.77,0-1.06Zm7.53,10.28h-6c-.96,0-1.75-.79-1.75-1.75,0-2.07,1.68-3.75,3.75-3.75h2c2.07,0,3.75,1.68,3.75,3.75,0,.96-.79,1.75-1.75,1.75Zm1.53-9.22l-1.26,1.26,1.07,.53c.37,.19,.52,.64,.34,1.01-.13,.26-.4,.42-.67,.42-.11,0-.23-.03-.33-.08l-2-1c-.22-.11-.37-.31-.41-.55-.04-.24,.04-.48,.21-.65l2-2c.29-.29,.77-.29,1.06,0s.29,.77,0,1.06Z"/></g></g><g id="j"/><g id="k"/><g id="l"/><g id="m"/><g id="n"/><g id="o"/><g id="p"/><g id="q"/><g id="r"/><g id="s"/><g id="t"/><g id="u"/></svg>