<?xml version="1.0" encoding="UTF-8"?><svg xmlns="http://www.w3.org/2000/svg" viewBox="0 0 24 24"><g id="a"/><g id="b"/><g id="c"/><g id="d"/><g id="e"/><g id="f"/><g id="g"/><g id="h"/><g id="i"/><g id="j"/><g id="k"/><g id="l"/><g id="m"/><g id="n"/><g id="o"/><g id="p"/><g id="q"><g><circle cx="8.5" cy="10.5" r=".75"/><circle cx="15.5" cy="10.5" r=".75"/><path d="M12,2.25C6.62,2.25,2.25,6.62,2.25,12s4.37,9.75,9.75,9.75,9.75-4.37,9.75-9.75S17.38,2.25,12,2.25ZM6.25,10.5c0-1.24,1.01-2.25,2.25-2.25s2.25,1.01,2.25,2.25-1.01,2.25-2.25,2.25-2.25-1.01-2.25-2.25Zm8.2,6.9c.33,.25,.4,.72,.15,1.05-.15,.2-.37,.3-.6,.3-.16,0-.31-.05-.45-.15l-1.55-1.16-1.55,1.16c-.13,.1-.29,.15-.45,.15-.23,0-.45-.1-.6-.3-.25-.33-.18-.8,.15-1.05l1.2-.9-1.2-.9c-.33-.25-.4-.72-.15-1.05,.25-.33,.72-.4,1.05-.15l1.55,1.16,1.55-1.16c.33-.25,.8-.18,1.05,.15,.25,.33,.18,.8-.15,1.05l-1.2,.9,1.2,.9Zm1.05-4.65c-1.24,0-2.25-1.01-2.25-2.25s1.01-2.25,2.25-2.25,2.25,1.01,2.25,2.25-1.01,2.25-2.25,2.25Z"/></g></g><g id="r"/><g id="s"/><g id="t"/><g id="u"/></svg>