<?xml version="1.0" encoding="UTF-8"?><svg xmlns="http://www.w3.org/2000/svg" viewBox="0 0 24 24"><g id="a"/><g id="b"/><g id="c"/><g id="d"><path d="M12,2.25C6.62,2.25,2.25,6.62,2.25,12s4.37,9.75,9.75,9.75,9.75-4.37,9.75-9.75S17.38,2.25,12,2.25Zm-4.75,7.25c0-.69,.56-1.25,1.25-1.25s1.25,.56,1.25,1.25-.56,1.25-1.25,1.25-1.25-.56-1.25-1.25Zm7.41,5.38c-.2,.36-.65,.5-1.02,.3-1.31-.72-3.06-.45-4.1,.63-.15,.15-.34,.23-.54,.23s-.38-.07-.52-.21c-.3-.29-.31-.76-.02-1.06,1.5-1.55,4.01-1.94,5.9-.9,.36,.2,.5,.66,.3,1.02Zm.84-4.13c-.69,0-1.25-.56-1.25-1.25s.56-1.25,1.25-1.25,1.25,.56,1.25,1.25-.56,1.25-1.25,1.25Z"/></g><g id="e"/><g id="f"/><g id="g"/><g id="h"/><g id="i"/><g id="j"/><g id="k"/><g id="l"/><g id="m"/><g id="n"/><g id="o"/><g id="p"/><g id="q"/><g id="r"/><g id="s"/><g id="t"/><g id="u"/></svg>