<?xml version="1.0" encoding="UTF-8"?><svg xmlns="http://www.w3.org/2000/svg" viewBox="0 0 24 24"><g id="a"/><g id="b"/><g id="c"/><g id="d"/><g id="e"/><g id="f"/><g id="g"/><g id="h"/><g id="i"/><g id="j"><g><path d="M9.17,16.33c-.09,.18-.02,.4,.16,.49,.12,.06,.23,.04,.28,.02,.05-.02,.15-.07,.21-.18l.53-1.07c-.24-.04-.49-.1-.74-.16l-.45,.9Z"/><path d="M12,2.25C6.62,2.25,2.25,6.62,2.25,12s4.37,9.75,9.75,9.75,9.75-4.37,9.75-9.75S17.38,2.25,12,2.25ZM6.6,10.47c-.35-.22-.45-.68-.23-1.02,.08-.12,.78-1.19,2.14-1.19h.05c1.32,.03,2.01,1.07,2.09,1.19,.22,.35,.11,.81-.24,1.03-.12,.08-.26,.11-.4,.11-.25,0-.49-.13-.64-.35-.01-.02-.31-.48-.84-.49h-.02c-.54,0-.86,.47-.87,.49-.23,.34-.69,.45-1.03,.22Zm9.75,4.2c-.93,.5-2.44,1.09-4.35,1.09h-.04l-.79,1.58c-.22,.45-.61,.78-1.08,.94-.19,.06-.39,.1-.59,.1-.29,0-.57-.07-.83-.2-.92-.46-1.3-1.58-.84-2.51l.37-.74c-.18-.08-.37-.17-.55-.27-.37-.2-.5-.65-.31-1.01,.19-.37,.65-.5,1.01-.31,1.41,.75,2.76,.91,3.65,.91,1.6,0,2.87-.5,3.65-.91,.36-.19,.82-.06,1.01,.31,.19,.37,.06,.82-.31,1.01Zm1.04-4.19c-.12,.08-.26,.11-.4,.11-.25,0-.49-.13-.64-.35-.01-.02-.31-.48-.84-.49-.57,.03-.87,.47-.89,.49-.23,.34-.69,.45-1.03,.22-.35-.22-.45-.68-.23-1.02,.08-.12,.78-1.19,2.14-1.19h.05c1.32,.03,2.01,1.07,2.09,1.19,.22,.35,.11,.81-.24,1.03Z"/></g></g><g id="k"/><g id="l"/><g id="m"/><g id="n"/><g id="o"/><g id="p"/><g id="q"/><g id="r"/><g id="s"/><g id="t"/><g id="u"/></svg>