<svg id="_1-Camera" data-name="1-Camera" xmlns="http://www.w3.org/2000/svg" viewBox="0 0 32 32"><title>1-Camera</title><circle cx="16" cy="16" r="15" style="fill:#c1c5c8"/><circle cx="16" cy="17" r="3" style="fill:#c1c5c8"/><path d="M24,11V21a3,3,0,0,1-3,3H11a3,3,0,0,1-3-3V11a3,3,0,0,1,3-3H21A3,3,0,0,1,24,11Zm-5,6a3,3,0,1,0-3,3A3,3,0,0,0,19,17Z" style="fill:#f2f2f2"/><rect x="8" y="8" width="16" height="16" rx="3" style="fill:none;stroke:#6f7a7b;stroke-linecap:round;stroke-linejoin:round;stroke-width:2px"/><circle cx="16" cy="17" r="3" style="fill:none;stroke:#6f7a7b;stroke-linecap:round;stroke-linejoin:round;stroke-width:2px"/><circle cx="16" cy="16" r="15" style="fill:none;stroke:#6f7a7b;stroke-linecap:round;stroke-linejoin:round;stroke-width:2px"/><line x1="20" y1="12" x2="20" y2="12" style="fill:none;stroke:#6f7a7b;stroke-linecap:round;stroke-linejoin:round;stroke-width:2px"/></svg>