<svg xmlns="http://www.w3.org/2000/svg" viewBox="0 0 32 32"><title>14-Picture</title><g id="_14-Picture" data-name="14-Picture"><path d="M30,21l.13.04a14.922,14.922,0,0,1-3.04,5.05L27,26a24.963,24.963,0,0,1-8.02-5.98L19,20l4-5S27,20,30,21Z" style="fill:#c1c5c8"/><path d="M18.98,20.02A24.963,24.963,0,0,0,27,26l.09.09A14.99,14.99,0,0,1,4,25L15,15A35.938,35.938,0,0,0,18.98,20.02Z" style="fill:#c1c5c8"/><path d="M23,15l-4,5-.02.02A35.938,35.938,0,0,1,15,15L4,25a15,15,0,1,1,26.13-3.96L30,21C27,20,23,15,23,15Z" style="fill:#f2f2f2"/><path d="M4,25a14.99,14.99,0,1,1,12,6A14.932,14.932,0,0,1,4,25Z" style="fill:none;stroke:#6f7a7b;stroke-linecap:round;stroke-linejoin:round;stroke-width:2px"/><path d="M4,25,15,15a35.938,35.938,0,0,0,3.98,5.02A24.963,24.963,0,0,0,27,26" style="fill:none;stroke:#6f7a7b;stroke-linecap:round;stroke-linejoin:round;stroke-width:2px"/><path d="M19,20l4-5s4,5,7,6" style="fill:none;stroke:#6f7a7b;stroke-linecap:round;stroke-linejoin:round;stroke-width:2px"/><circle cx="16" cy="8" r="3" style="fill:#c1c5c8"/><circle cx="16" cy="8" r="3" style="fill:none;stroke:#6f7a7b;stroke-linecap:round;stroke-linejoin:round;stroke-width:2px"/></g></svg>