<svg xmlns="http://www.w3.org/2000/svg" viewBox="0 0 32 32"><title>15-Account</title><g id="_15-Account" data-name="15-Account"><circle cx="16" cy="16" r="15" style="fill:#c1c5c8"/><circle cx="16" cy="16" r="15" style="fill:none;stroke:#6f7a7b;stroke-linecap:round;stroke-linejoin:round;stroke-width:2px"/><path d="M23,12V22a2.006,2.006,0,0,1-2,2H11a2.006,2.006,0,0,1-2-2V12Z" style="fill:#f2f2f2"/><path d="M23,9v3H9V9a2.006,2.006,0,0,1,2-2H21A2.006,2.006,0,0,1,23,9Z" style="fill:#c1c5c8"/><path d="M9,12V22a2.006,2.006,0,0,0,2,2H21a2.006,2.006,0,0,0,2-2V9a2.006,2.006,0,0,0-2-2H11A2.006,2.006,0,0,0,9,9Z" style="fill:none;stroke:#6f7a7b;stroke-linecap:round;stroke-linejoin:round;stroke-width:2px"/><line x1="9" y1="12" x2="23" y2="12" style="fill:none;stroke:#6f7a7b;stroke-linecap:round;stroke-linejoin:round;stroke-width:2px"/><line x1="14" y1="16" x2="14" y2="16" style="fill:none;stroke:#6f7a7b;stroke-linecap:round;stroke-linejoin:round;stroke-width:2px"/><line x1="18" y1="16" x2="18" y2="16" style="fill:none;stroke:#6f7a7b;stroke-linecap:round;stroke-linejoin:round;stroke-width:2px"/><line x1="14" y1="20" x2="14" y2="20" style="fill:none;stroke:#6f7a7b;stroke-linecap:round;stroke-linejoin:round;stroke-width:2px"/><line x1="18" y1="20" x2="18" y2="20" style="fill:none;stroke:#6f7a7b;stroke-linecap:round;stroke-linejoin:round;stroke-width:2px"/></g></svg>