<svg xmlns="http://www.w3.org/2000/svg" viewBox="0 0 32 32"><title>19-Computer</title><g id="_19-Computer" data-name="19-Computer"><circle cx="16" cy="16" r="15" style="fill:#c1c5c8"/><circle cx="16" cy="16" r="15" style="fill:none;stroke:#6f7a7b;stroke-linecap:round;stroke-linejoin:round;stroke-width:2px"/><polygon points="18 20 19 24 13 24 14 20 18 20" style="fill:#f2f2f2"/><path d="M24,10v8a2.006,2.006,0,0,1-2,2H10a2.006,2.006,0,0,1-2-2V10a2.006,2.006,0,0,1,2-2H22A2.006,2.006,0,0,1,24,10Z" style="fill:#f2f2f2"/><path d="M18,20h4a2.006,2.006,0,0,0,2-2V10a2.006,2.006,0,0,0-2-2H10a2.006,2.006,0,0,0-2,2v8a2.006,2.006,0,0,0,2,2h4" style="fill:none;stroke:#6f7a7b;stroke-linecap:round;stroke-linejoin:round;stroke-width:2px"/><polyline points="13 24 14 20 18 20 19 24" style="fill:none;stroke:#6f7a7b;stroke-linecap:round;stroke-linejoin:round;stroke-width:2px"/><polyline points="12 24 13 24 19 24 20 24" style="fill:none;stroke:#6f7a7b;stroke-linecap:round;stroke-linejoin:round;stroke-width:2px"/><line x1="16" y1="16" x2="16" y2="16" style="fill:none;stroke:#6f7a7b;stroke-linecap:round;stroke-linejoin:round;stroke-width:2px"/></g></svg>