<svg xmlns="http://www.w3.org/2000/svg" viewBox="0 0 32 32"><title>25-File</title><g id="_25-File" data-name="25-File"><circle cx="16" cy="16" r="15" style="fill:#c1c5c8"/><path d="M24,12H21a2.006,2.006,0,0,1-2-2V7Z" style="fill:#f2f2f2"/><path d="M19,7v3a2.006,2.006,0,0,0,2,2h3v9a2.006,2.006,0,0,1-2,2H12a2.006,2.006,0,0,1-2-2V9a2.006,2.006,0,0,1,2-2Z" style="fill:#f2f2f2"/><circle cx="16" cy="16" r="15" style="fill:none;stroke:#6f7a7b;stroke-linecap:round;stroke-linejoin:round;stroke-width:2px"/><path d="M15,23h7a2,2,0,0,0,2-2V12L19,7H12a2,2,0,0,0-2,2v2" style="fill:none;stroke:#6f7a7b;stroke-linecap:round;stroke-linejoin:round;stroke-width:2px"/><path d="M19,7v3a2,2,0,0,0,2,2h3" style="fill:none;stroke:#6f7a7b;stroke-linecap:round;stroke-linejoin:round;stroke-width:2px"/><polyline points="7 18 10 15 13 18" style="fill:none;stroke:#6f7a7b;stroke-linecap:round;stroke-linejoin:round;stroke-width:2px"/><line x1="10" y1="15" x2="10" y2="24" style="fill:none;stroke:#6f7a7b;stroke-linecap:round;stroke-linejoin:round;stroke-width:2px"/></g></svg>