<svg xmlns="http://www.w3.org/2000/svg" viewBox="0 0 32 32"><title>28-Camera</title><g id="_28-Camera" data-name="28-Camera"><circle cx="16" cy="16" r="15" style="fill:#f2f2f2"/><circle cx="16" cy="16" r="15" style="fill:none;stroke:#6f7a7b;stroke-linecap:round;stroke-linejoin:round;stroke-width:2px"/><circle cx="13.5" cy="16.5" r="2.5" style="fill:#f2f2f2"/><path d="M25,13v8a2.006,2.006,0,0,1-2,2H9a2.006,2.006,0,0,1-2-2V13a2.006,2.006,0,0,1,2-2h1l1-3h5l1,3h6A2.006,2.006,0,0,1,25,13Zm-9,3.5A2.5,2.5,0,1,0,13.5,19,2.5,2.5,0,0,0,16,16.5Z" style="fill:#c1c5c8"/><path d="M23,11H17L16,8H11l-1,3H9a2.006,2.006,0,0,0-2,2v8a2.006,2.006,0,0,0,2,2H23a2.006,2.006,0,0,0,2-2V13A2.006,2.006,0,0,0,23,11Z" style="fill:none;stroke:#6f7a7b;stroke-linecap:round;stroke-linejoin:round;stroke-width:2px"/><circle cx="13.5" cy="16.5" r="2.5" style="fill:none;stroke:#6f7a7b;stroke-linecap:round;stroke-linejoin:round;stroke-width:2px"/><line x1="21" y1="15" x2="21" y2="15" style="fill:none;stroke:#6f7a7b;stroke-linecap:round;stroke-linejoin:round;stroke-width:2px"/></g></svg>