<?xml version="1.0" encoding="UTF-8"?><svg xmlns="http://www.w3.org/2000/svg" viewBox="0 0 24 24"><g id="a"/><g id="b"/><g id="c"/><g id="d"/><g id="e"/><g id="f"/><g id="g"/><g id="h"/><g id="i"/><g id="j"/><g id="k"><path d="M17,4.25H7c-2.62,0-4.75,2.13-4.75,4.75v4c0,2.62,2.13,4.75,4.75,4.75h7.89c.59,0,1.17,.16,1.67,.46l2.53,1.52c.28,.17,.59,.25,.9,.25s.59-.08,.86-.23c.56-.31,.89-.88,.89-1.52V9c0-2.62-2.13-4.75-4.75-4.75Zm-8.98,7.5c-.41,0-.75-.34-.75-.75s.33-.75,.74-.75h.01c.41,0,.75,.34,.75,.75s-.34,.75-.75,.75Zm4,0c-.41,0-.75-.34-.75-.75s.33-.75,.74-.75h.01c.41,0,.75,.34,.75,.75s-.34,.75-.75,.75Zm4,0c-.41,0-.75-.34-.75-.75s.33-.75,.74-.75h.01c.41,0,.75,.34,.75,.75s-.34,.75-.75,.75Z"/></g><g id="l"/><g id="m"/><g id="n"/><g id="o"/><g id="p"/><g id="q"/><g id="r"/><g id="s"/><g id="t"/><g id="u"/></svg>