<?xml version="1.0" encoding="UTF-8"?><svg xmlns="http://www.w3.org/2000/svg" viewBox="0 0 24 24"><g id="a"/><g id="b"/><g id="c"/><g id="d"/><g id="e"/><g id="f"/><g id="g"/><g id="h"/><g id="i"/><g id="j"/><g id="k"/><g id="l"/><g id="m"/><g id="n"/><g id="o"><g><path d="M17.5,2.25c-2.34,0-4.25,1.91-4.25,4.25s1.91,4.25,4.25,4.25,4.25-1.91,4.25-4.25-1.91-4.25-4.25-4.25Zm2.03,3.78l-2,2c-.15,.15-.34,.22-.53,.22s-.38-.07-.53-.22l-1-1c-.29-.29-.29-.77,0-1.06s.77-.29,1.06,0l.47,.47,1.47-1.47c.29-.29,.77-.29,1.06,0s.29,.77,0,1.06Z"/><path d="M2.25,15.55v3c0,1.52,1.23,2.75,2.75,2.75h.25V12.8h-.25c-1.52,0-2.75,1.23-2.75,2.75Z"/><path d="M16.35,12.8h-3.35c-.14,0-.25-.11-.25-.25v-2.1c0-.84-.47-1.59-1.21-1.97-1.02-.51-2.28-.14-2.87,.83l-1.92,3.2v8.79H15.49c1.22,0,2.31-.82,2.64-1.99l.86-3c.24-.84,.08-1.72-.45-2.41s-1.32-1.09-2.2-1.09Z"/></g></g><g id="p"/><g id="q"/><g id="r"/><g id="s"/><g id="t"/><g id="u"/></svg>