<?xml version="1.0" encoding="UTF-8"?><svg xmlns="http://www.w3.org/2000/svg" viewBox="0 0 24 24"><g id="a"/><g id="b"/><g id="c"/><g id="d"/><g id="e"/><g id="f"/><g id="g"/><g id="h"/><g id="i"/><g id="j"/><g id="k"/><g id="l"/><g id="m"><path d="M16.5,13.25h-3.75v-1.5h1.75c1.24,0,2.25-1.01,2.25-2.25v-1c0-1.24-1.01-2.25-2.25-2.25h-1.75V3c0-.41-.34-.75-.75-.75s-.75,.34-.75,.75v3.25h-1.75c-1.24,0-2.25,1.01-2.25,2.25v1c0,1.24,1.01,2.25,2.25,2.25h1.75v1.5h-3.75c-1.24,0-2.25,1.01-2.25,2.25v1c0,1.24,1.01,2.25,2.25,2.25h3.75v2.25c0,.41,.34,.75,.75,.75s.75-.34,.75-.75v-2.25h3.75c1.24,0,2.25-1.01,2.25-2.25v-1c0-1.24-1.01-2.25-2.25-2.25Zm-7.75-3.75v-1c0-.41,.34-.75,.75-.75h5c.41,0,.75,.34,.75,.75v1c0,.41-.34,.75-.75,.75h-5c-.41,0-.75-.34-.75-.75Zm8.5,7c0,.41-.34,.75-.75,.75H7.5c-.41,0-.75-.34-.75-.75v-1c0-.41,.34-.75,.75-.75h9c.41,0,.75,.34,.75,.75v1Z"/></g><g id="n"/><g id="o"/><g id="p"/><g id="q"/><g id="r"/><g id="s"/><g id="t"/><g id="u"/></svg>