<?xml version="1.0" encoding="UTF-8"?><svg xmlns="http://www.w3.org/2000/svg" viewBox="0 0 24 24"><g id="a"/><g id="b"><path d="M21,18.25h-6.85l1.55-1.55h0l4.24-4.25c1.07-1.07,1.07-2.82,0-3.89l-4.24-4.24c-1.07-1.07-2.82-1.07-3.89,0L3.33,12.81c-1.07,1.07-1.07,2.82,0,3.89l1.55,1.55h-1.88c-.41,0-.75,.34-.75,.75s.34,.75,.75,.75H21c.41,0,.75-.34,.75-.75s-.34-.75-.75-.75ZM12.87,5.39c.49-.49,1.28-.49,1.77,0l4.24,4.24c.49,.49,.49,1.28,0,1.77l-3.71,3.71-6.01-6.01,3.71-3.71ZM4.39,15.64c-.49-.49-.49-1.28,0-1.77l3.71-3.71,6.01,6.01-2.08,2.08H7l-2.61-2.61Z"/></g><g id="c"/><g id="d"/><g id="e"/><g id="f"/><g id="g"/><g id="h"/><g id="i"/><g id="j"/><g id="k"/><g id="l"/><g id="m"/><g id="n"/><g id="o"/><g id="p"/><g id="q"/><g id="r"/><g id="s"/><g id="t"/><g id="u"/></svg>