<?xml version="1.0" encoding="UTF-8"?><svg xmlns="http://www.w3.org/2000/svg" viewBox="0 0 24 24"><g id="a"/><g id="b"/><g id="c"/><g id="d"/><g id="e"/><g id="f"/><g id="g"/><g id="h"/><g id="i"><g><path d="M9.54,19.36c1,0,1.94-.39,2.65-1.1l5.66-5.66c.68-.68,.68-1.79,0-2.47L11.48,3.76c-.68-.68-1.79-.68-2.47,0L3.35,9.42c-.68,.67-1.05,1.56-1.09,2.51,0,.02-.01,.04-.01,.07,0,0,0,.02,0,.02,0,.02,0,.03,0,.05,0,1,.39,1.94,1.1,2.65l3.54,3.54c.71,.71,1.65,1.1,2.65,1.1Zm.53-14.53s.11-.07,.18-.07,.13,.02,.18,.07l6.36,6.36s.01,.04,.03,.06H3.91c.11-.28,.28-.55,.5-.77l5.66-5.66ZM3.86,12.75H15.57l-4.45,4.45c-.85,.85-2.33,.85-3.18,0l-3.54-3.54c-.26-.26-.44-.57-.54-.91Z"/><path d="M21,20.25H5c-.41,0-.75,.34-.75,.75s.34,.75,.75,.75H21c.41,0,.75-.34,.75-.75s-.34-.75-.75-.75Z"/><path d="M17.41,15.54c-.15,.2-.29,.39-.41,.59-.44,.72-.46,1.64-.05,2.4,.4,.74,1.14,1.2,1.95,1.22h.2c.83-.04,1.57-.5,1.97-1.25,.4-.76,.38-1.64-.06-2.37-.12-.2-.25-.39-.41-.59-.33-.42-.71-.8-1.13-1.13-.27-.21-.65-.21-.92,0-.42,.33-.8,.71-1.13,1.13Zm.87,1.37c.09-.15,.19-.3,.31-.45,.13-.16,.26-.32,.41-.46,.15,.15,.28,.3,.41,.46,.12,.15,.22,.3,.31,.45,.16,.27,.17,.6,.02,.88-.07,.13-.28,.44-.79,.45-.41-.01-.62-.31-.69-.44-.16-.29-.15-.63,.02-.9Z"/></g></g><g id="j"/><g id="k"/><g id="l"/><g id="m"/><g id="n"/><g id="o"/><g id="p"/><g id="q"/><g id="r"/><g id="s"/><g id="t"/><g id="u"/></svg>