<?xml version="1.0" encoding="UTF-8"?><svg xmlns="http://www.w3.org/2000/svg" viewBox="0 0 24 24"><g id="a"/><g id="b"/><g id="c"/><g id="d"/><g id="e"/><g id="f"/><g id="g"/><g id="h"/><g id="i"/><g id="j"/><g id="k"/><g id="l"/><g id="m"/><g id="n"/><g id="o"/><g id="p"/><g id="q"/><g id="r"><g><path d="M21,3.25H3c-.41,0-.75,.34-.75,.75s.34,.75,.75,.75h1.25v3.55c0,1.31,.7,2.54,1.82,3.22l2.09,1.25c.67,.4,1.09,1.14,1.09,1.93v3.68c0,.67,.37,1.27,.97,1.57l2,1c.25,.12,.52,.19,.78,.19,.32,0,.64-.09,.92-.26,.52-.32,.83-.88,.83-1.49v-4.68c0-.79,.42-1.53,1.09-1.93l2.09-1.25c1.12-.67,1.82-1.91,1.82-3.22v-3.55h1.25c.41,0,.75-.34,.75-.75s-.34-.75-.75-.75Zm-2.75,5.05c0,.79-.42,1.53-1.09,1.93l-2.09,1.25c-1.12,.67-1.82,1.91-1.82,3.22v4.68c0,.12-.07,.19-.12,.21-.04,.03-.13,.07-.24,.01l-2-1c-.08-.04-.14-.13-.14-.22v-3.68c0-1.31-.7-2.54-1.82-3.22l-2.09-1.25c-.67-.4-1.09-1.14-1.09-1.93v-3.55h12.5v3.55Z"/><path d="M9,8.75h6c.41,0,.75-.34,.75-.75s-.34-.75-.75-.75h-6c-.41,0-.75,.34-.75,.75s.34,.75,.75,.75Z"/></g></g><g id="s"/><g id="t"/><g id="u"/></svg>