<?xml version="1.0" encoding="UTF-8"?><svg xmlns="http://www.w3.org/2000/svg" viewBox="0 0 24 24"><g id="a"/><g id="b"/><g id="c"/><g id="d"/><g id="e"/><g id="f"/><g id="g"/><g id="h"/><g id="i"/><g id="j"/><g id="k"/><g id="l"/><g id="m"/><g id="n"/><g id="o"/><g id="p"><g><path d="M4,19.75h2.83c.2,0,.39-.08,.53-.22l.94-.94c.26,.15,.56,.23,.85,.23,.27,0,.53-.06,.78-.19l1.83-.91c.21,.08,.43,.13,.66,.13,.02,0,.04,0,.06,0,.5-.02,.97-.25,1.3-.63l6.85-7.95c.96-1.11,.92-2.78-.09-3.79l-1.62-1.62c-1.01-1.01-2.67-1.05-3.79-.09l-7.95,6.85c-.38,.33-.61,.81-.63,1.3,0,.25,.04,.5,.13,.72l-.91,1.83c-.27,.53-.23,1.14,.05,1.64l-2.35,2.35c-.21,.21-.28,.54-.16,.82s.39,.46,.69,.46Zm5.26-2.45c-.09,.05-.21,.03-.29-.05l-1.61-1.61h0l-.2-.2c-.08-.08-.09-.19-.05-.29l.63-1.25,2.77,2.77-1.25,.63Zm-1.09-5.54l7.95-6.85c.52-.45,1.29-.44,1.75,.02l1.62,1.62c.46,.46,.46,1.23,.02,1.75l-6.85,7.95c-.08,.09-.17,.11-.22,.11-.05,0-.12,0-.18-.07l-4.13-4.13c-.06-.06-.07-.13-.06-.17,0-.05,.02-.14,.11-.22Zm-1.34,5.47l.35,.35-.66,.66h-.71l1.02-1.02Z"/><path d="M21,20.25H3c-.41,0-.75,.34-.75,.75s.34,.75,.75,.75H21c.41,0,.75-.34,.75-.75s-.34-.75-.75-.75Z"/></g></g><g id="q"/><g id="r"/><g id="s"/><g id="t"/><g id="u"/></svg>