<?xml version="1.0" encoding="UTF-8"?><svg xmlns="http://www.w3.org/2000/svg" viewBox="0 0 24 24"><g id="a"/><g id="b"/><g id="c"/><g id="d"/><g id="e"><g><path d="M18,5.25h-4c-.41,0-.75,.34-.75,.75s.34,.75,.75,.75h1.25v2.25c0,.41,.34,.75,.75,.75s.75-.34,.75-.75v-2.25h1.25c.41,0,.75-.34,.75-.75s-.34-.75-.75-.75Z"/><path d="M19,2.25h-6c-1.52,0-2.75,1.23-2.75,2.75v5c0,1.52,1.23,2.75,2.75,2.75h6c1.52,0,2.75-1.23,2.75-2.75V5c0-1.52-1.23-2.75-2.75-2.75Zm1.25,7.75c0,.69-.56,1.25-1.25,1.25h-6c-.69,0-1.25-.56-1.25-1.25V5c0-.69,.56-1.25,1.25-1.25h6c.69,0,1.25,.56,1.25,1.25v5Z"/><path d="M6,2.25h-1c-1.52,0-2.75,1.23-2.75,2.75v14c0,1.52,1.23,2.75,2.75,2.75h1c1.52,0,2.75-1.23,2.75-2.75V5c0-1.52-1.23-2.75-2.75-2.75Zm1.25,16.75c0,.69-.56,1.25-1.25,1.25h-1c-.69,0-1.25-.56-1.25-1.25V5c0-.69,.56-1.25,1.25-1.25h1c.69,0,1.25,.56,1.25,1.25v14Z"/><path d="M19,14.25h-6c-1.52,0-2.75,1.23-2.75,2.75v2c0,1.52,1.23,2.75,2.75,2.75h6c1.52,0,2.75-1.23,2.75-2.75v-2c0-1.52-1.23-2.75-2.75-2.75Zm1.25,4.75c0,.69-.56,1.25-1.25,1.25h-6c-.69,0-1.25-.56-1.25-1.25v-2c0-.69,.56-1.25,1.25-1.25h6c.69,0,1.25,.56,1.25,1.25v2Z"/></g></g><g id="f"/><g id="g"/><g id="h"/><g id="i"/><g id="j"/><g id="k"/><g id="l"/><g id="m"/><g id="n"/><g id="o"/><g id="p"/><g id="q"/><g id="r"/><g id="s"/><g id="t"/><g id="u"/></svg>