<?xml version="1.0" encoding="UTF-8"?><svg xmlns="http://www.w3.org/2000/svg" viewBox="0 0 24 24"><g id="a"/><g id="b"/><g id="c"/><g id="d"/><g id="e"/><g id="f"/><g id="g"/><g id="h"/><g id="i"/><g id="j"/><g id="k"/><g id="l"/><g id="m"/><g id="n"/><g id="o"/><g id="p"/><g id="q"><g><path d="M17,2.25H7c-2.62,0-4.75,2.13-4.75,4.75v10c0,2.62,2.13,4.75,4.75,4.75h10c2.62,0,4.75-2.13,4.75-4.75V7c0-2.62-2.13-4.75-4.75-4.75ZM7,3.75h10c1.79,0,3.25,1.46,3.25,3.25v7.4l-3.1-2.58c-.59-.49-1.36-.71-2.12-.61-.76,.1-1.45,.52-1.89,1.15l-1.98,2.83-2.32-1.74c-1.09-.81-2.63-.71-3.59,.26l-1.49,1.49V7c0-1.79,1.46-3.25,3.25-3.25Zm-3.22,13.53l2.53-2.53c.44-.44,1.14-.49,1.63-.12l2.36,1.77-2.69,3.84h-.61c-1.7,0-3.08-1.31-3.22-2.97Zm13.22,2.97h-7.56l4.93-7.04c.2-.29,.51-.48,.86-.52,.35-.04,.69,.05,.96,.28l4.06,3.38v.65c0,1.79-1.46,3.25-3.25,3.25Z"/><path d="M11,11.75c1.52,0,2.75-1.23,2.75-2.75s-1.23-2.75-2.75-2.75-2.75,1.23-2.75,2.75,1.23,2.75,2.75,2.75Zm0-4c.69,0,1.25,.56,1.25,1.25s-.56,1.25-1.25,1.25-1.25-.56-1.25-1.25,.56-1.25,1.25-1.25Z"/></g></g><g id="r"/><g id="s"/><g id="t"/><g id="u"/></svg>