<?xml version="1.0" encoding="UTF-8"?><svg xmlns="http://www.w3.org/2000/svg" viewBox="0 0 24 24"><g id="a"/><g id="b"/><g id="c"><g><path d="M19,8.25h-1.25v-1.25c0-.14,.11-.25,.25-.25,.96,0,1.75-.79,1.75-1.75v-1c0-.96-.79-1.75-1.75-1.75h-5c-.96,0-1.75,.79-1.75,1.75v1c0,.96,.79,1.75,1.75,1.75,.14,0,.25,.11,.25,.25v1.25H6c-1.52,0-2.75,1.23-2.75,2.75v2c0,1.52,1.23,2.75,2.75,2.75h7.25v1.25c0,.14-.11,.25-.25,.25-.96,0-1.75,.79-1.75,1.75v1c0,.96,.79,1.75,1.75,1.75h5c.96,0,1.75-.79,1.75-1.75v-1c0-.96-.79-1.75-1.75-1.75-.14,0-.25-.11-.25-.25v-1.25h1.25c1.52,0,2.75-1.23,2.75-2.75v-2c0-1.52-1.23-2.75-2.75-2.75ZM6,14.25c-.69,0-1.25-.56-1.25-1.25v-2c0-.69,.56-1.25,1.25-1.25h7.25v4.5H6Zm12,4.5c.14,0,.25,.11,.25,.25v1c0,.14-.11,.25-.25,.25h-5c-.14,0-.25-.11-.25-.25v-1c0-.14,.11-.25,.25-.25,.96,0,1.75-.79,1.75-1.75V7c0-.96-.79-1.75-1.75-1.75-.14,0-.25-.11-.25-.25v-1c0-.14,.11-.25,.25-.25h5c.14,0,.25,.11,.25,.25v1c0,.14-.11,.25-.25,.25-.96,0-1.75,.79-1.75,1.75v10c0,.96,.79,1.75,1.75,1.75Zm2.25-5.75c0,.69-.56,1.25-1.25,1.25h-1.25v-4.5h1.25c.69,0,1.25,.56,1.25,1.25v2Z"/><path d="M7.02,12.25h0c-.41,0-.75,.34-.75,.75s.34,.75,.75,.75,.75-.34,.75-.75-.33-.75-.75-.75Z"/><path d="M9.02,12.25h0c-.41,0-.75,.34-.75,.75s.34,.75,.75,.75,.75-.34,.75-.75-.33-.75-.75-.75Z"/><path d="M11.02,12.25h0c-.41,0-.75,.34-.75,.75s.34,.75,.75,.75,.75-.34,.75-.75-.33-.75-.75-.75Z"/></g></g><g id="d"/><g id="e"/><g id="f"/><g id="g"/><g id="h"/><g id="i"/><g id="j"/><g id="k"/><g id="l"/><g id="m"/><g id="n"/><g id="o"/><g id="p"/><g id="q"/><g id="r"/><g id="s"/><g id="t"/><g id="u"/></svg>