<?xml version="1.0" encoding="UTF-8"?><svg xmlns="http://www.w3.org/2000/svg" viewBox="0 0 24 24"><g id="a"/><g id="b"/><g id="c"/><g id="d"/><g id="e"/><g id="f"/><g id="g"/><g id="h"/><g id="i"/><g id="j"/><g id="k"><g><path d="M2.7,13.69c.38,.16,.82-.01,.98-.39l.66-1.55h3.3l.66,1.55c.12,.28,.4,.45,.69,.45,.1,0,.2-.02,.29-.06,.38-.16,.56-.6,.39-.99l-3-7c-.24-.55-1.14-.55-1.38,0l-3,7c-.16,.38,.01,.82,.39,.99Zm3.3-5.79l1.01,2.35h-2.01l1.01-2.35Z"/><path d="M19.5,2.25h-6c-1.24,0-2.25,1.01-2.25,2.25v1c0,1.24,1.01,2.25,2.25,2.25h6c1.24,0,2.25-1.01,2.25-2.25v-1c0-1.24-1.01-2.25-2.25-2.25Zm.75,3.25c0,.41-.34,.75-.75,.75h-6c-.41,0-.75-.34-.75-.75v-1c0-.41,.34-.75,.75-.75h6c.41,0,.75,.34,.75,.75v1Z"/><path d="M19.5,9.25h-6c-1.24,0-2.25,1.01-2.25,2.25v1c0,1.24,1.01,2.25,2.25,2.25h6c1.24,0,2.25-1.01,2.25-2.25v-1c0-1.24-1.01-2.25-2.25-2.25Zm.75,3.25c0,.41-.34,.75-.75,.75h-6c-.41,0-.75-.34-.75-.75v-1c0-.41,.34-.75,.75-.75h6c.41,0,.75,.34,.75,.75v1Z"/><path d="M19.5,16.25H4.5c-1.24,0-2.25,1.01-2.25,2.25v1c0,1.24,1.01,2.25,2.25,2.25h15c1.24,0,2.25-1.01,2.25-2.25v-1c0-1.24-1.01-2.25-2.25-2.25Zm.75,3.25c0,.41-.34,.75-.75,.75H4.5c-.41,0-.75-.34-.75-.75v-1c0-.41,.34-.75,.75-.75h15c.41,0,.75,.34,.75,.75v1Z"/></g></g><g id="l"/><g id="m"/><g id="n"/><g id="o"/><g id="p"/><g id="q"/><g id="r"/><g id="s"/><g id="t"/><g id="u"/></svg>