<?xml version="1.0" encoding="UTF-8"?><svg xmlns="http://www.w3.org/2000/svg" viewBox="0 0 24 24"><g id="a"/><g id="b"><g><circle cx="6.75" cy="18" r="2.75"/><circle cx="17.25" cy="18" r="2.75"/><path d="M20.79,10.83l-5.74-4.92c-.5-.43-1.13-.66-1.79-.66H5c-1.52,0-2.75,1.23-2.75,2.75v8c0,.46,.12,.89,.32,1.27,.35-1.99,2.08-3.52,4.18-3.52,2.34,0,4.25,1.91,4.25,4.25,0,.26-.03,.51-.08,.75h2.15c-.04-.24-.08-.49-.08-.75,0-2.34,1.91-4.25,4.25-4.25,2.09,0,3.83,1.52,4.18,3.52,.2-.38,.32-.81,.32-1.27v-3.08c0-.8-.35-1.57-.96-2.09Zm-10.79-.33h-1.25v1.25c0,.41-.34,.75-.75,.75s-.75-.34-.75-.75v-1.25h-1.25c-.41,0-.75-.34-.75-.75s.34-.75,.75-.75h1.25v-1.25c0-.41,.34-.75,.75-.75s.75,.34,.75,.75v1.25h1.25c.41,0,.75,.34,.75,.75s-.34,.75-.75,.75Z"/><path d="M7.5,2.25c-.98,0-1.8,.63-2.11,1.5h4.22c-.31-.87-1.14-1.5-2.11-1.5Z"/></g></g><g id="c"/><g id="d"/><g id="e"/><g id="f"/><g id="g"/><g id="h"/><g id="i"/><g id="j"/><g id="k"/><g id="l"/><g id="m"/><g id="n"/><g id="o"/><g id="p"/><g id="q"/><g id="r"/><g id="s"/><g id="t"/><g id="u"/></svg>