<?xml version="1.0" encoding="UTF-8"?><svg xmlns="http://www.w3.org/2000/svg" viewBox="0 0 24 24"><g id="a"/><g id="b"/><g id="c"/><g id="d"/><g id="e"/><g id="f"/><g id="g"><g><rect x="6.25" y="8.25" width="11.5" height="13.5" rx="2.75" ry="2.75"/><path d="M15,6.75c.16,0,.31,.03,.46,.05-.45-.91-1.38-1.55-2.46-1.55h-.25v-1.5h1.42c.33,0,.65,.13,.88,.37l.41,.41c.15,.15,.34,.22,.53,.22s.38-.07,.53-.22c.29-.29,.29-.77,0-1.06l-.41-.41c-.52-.52-1.21-.81-1.94-.81h-4.17c-.41,0-.75,.34-.75,.75s.34,.75,.75,.75h1.25v1.5h-.25c-1.08,0-2.01,.63-2.46,1.55,.15-.02,.3-.05,.46-.05h6Z"/></g></g><g id="h"/><g id="i"/><g id="j"/><g id="k"/><g id="l"/><g id="m"/><g id="n"/><g id="o"/><g id="p"/><g id="q"/><g id="r"/><g id="s"/><g id="t"/><g id="u"/></svg>