<?xml version="1.0" encoding="UTF-8"?><svg xmlns="http://www.w3.org/2000/svg" viewBox="0 0 24 24"><g id="a"/><g id="b"/><g id="c"/><g id="d"/><g id="e"/><g id="f"/><g id="g"/><g id="h"/><g id="i"><g><path d="M21,7.25c-.41,0-.75,.34-.75,.75v2.25H3.75V5c0-.41-.34-.75-.75-.75s-.75,.34-.75,.75V14c0,.96,.79,1.75,1.75,1.75h1.25v1.68c-.59,.28-1,.88-1,1.57,0,.96,.79,1.75,1.75,1.75s1.75-.79,1.75-1.75c0-.7-.41-1.29-1-1.57v-1.68h10.5v1.68c-.59,.28-1,.88-1,1.57,0,.96,.79,1.75,1.75,1.75s1.75-.79,1.75-1.75c0-.7-.41-1.29-1-1.57v-1.68h1.25c.96,0,1.75-.79,1.75-1.75v-6c0-.41-.34-.75-.75-.75Z"/><path d="M9,7.25h-2c-1.06,0-1.98,.61-2.44,1.5h6.87c-.46-.89-1.37-1.5-2.44-1.5Z"/></g></g><g id="j"/><g id="k"/><g id="l"/><g id="m"/><g id="n"/><g id="o"/><g id="p"/><g id="q"/><g id="r"/><g id="s"/><g id="t"/><g id="u"/></svg>