<?xml version="1.0" encoding="UTF-8"?><svg xmlns="http://www.w3.org/2000/svg" viewBox="0 0 24 24"><g id="a"/><g id="b"/><g id="c"/><g id="d"/><g id="e"/><g id="f"/><g id="g"/><g id="h"/><g id="i"/><g id="j"/><g id="k"/><g id="l"><path d="M17.5,15.25c-.11,0-.22,.02-.33,.03-.06-.01-.11-.03-.17-.03h-4.25v-3.5h3.01c.48,0,.91,.26,1.12,.69l.45,.89c.13,.26,.4,.41,.67,.41,.11,0,.23-.03,.33-.08,.37-.19,.52-.64,.34-1.01l-.45-.89c-.47-.94-1.41-1.52-2.46-1.52h-3.01V5.75h3.01c.48,0,.91,.26,1.12,.69l.45,.89c.13,.26,.4,.41,.67,.41,.11,0,.23-.03,.33-.08,.37-.19,.52-.64,.34-1.01l-.45-.89c-.47-.94-1.41-1.52-2.46-1.52h-3.01v-1.25c0-.41-.34-.75-.75-.75s-.75,.34-.75,.75v1.25h-3.01c-1.05,0-1.99,.58-2.46,1.52l-.45,.89c-.19,.37-.04,.82,.34,1.01,.37,.19,.82,.03,1.01-.34l.45-.89c.21-.43,.64-.69,1.12-.69h3.01v4.5h-3.01c-1.05,0-1.99,.58-2.46,1.52l-.45,.89c-.19,.37-.04,.82,.34,1.01,.37,.19,.82,.04,1.01-.34l.45-.89c.21-.43,.64-.69,1.12-.69h3.01v3.5H7c-.06,0-.11,.02-.17,.03-.11-.01-.22-.03-.33-.03-1.79,0-3.25,1.46-3.25,3.25s1.46,3.25,3.25,3.25,3.25-1.46,3.25-3.25c0-.65-.19-1.24-.52-1.75h5.54c-.33,.51-.52,1.1-.52,1.75,0,1.79,1.46,3.25,3.25,3.25s3.25-1.46,3.25-3.25-1.46-3.25-3.25-3.25Z"/></g><g id="m"/><g id="n"/><g id="o"/><g id="p"/><g id="q"/><g id="r"/><g id="s"/><g id="t"/><g id="u"/></svg>