<?xml version="1.0" encoding="UTF-8"?><svg xmlns="http://www.w3.org/2000/svg" viewBox="0 0 24 24"><g id="a"/><g id="b"/><g id="c"/><g id="d"/><g id="e"/><g id="f"/><g id="g"/><g id="h"/><g id="i"/><g id="j"/><g id="k"><g><path d="M20.43,11.95c1.47-.98,2.05-2.88,1.38-4.51l-.36-.87c-.58-1.41-1.93-2.32-3.47-2.32h0c-.14,0-.26,.01-.37,.02-.21,.02-.31,.02-.45,0-.37-.08-.73-.36-1.06-.84-.51-.74-1.33-1.17-2.2-1.17-.41,0-.8,.1-1.15,.27V21.48c.35,.17,.74,.27,1.15,.27,.87,0,1.69-.44,2.2-1.17,.33-.48,.69-.76,1.06-.84,.14-.03,.24-.02,.45,0,.11,0,.23,.02,.39,.02,1.52,0,2.88-.91,3.45-2.32l.36-.87c.67-1.63,.09-3.53-1.38-4.61Zm-4.51-.25c.18,.18,.47,.22,.72,.12,.39-.16,.82,.03,.98,.42,.15,.38-.03,.82-.42,.97-.27,.11-.55,.16-.83,.16-.55,0-1.09-.21-1.5-.6-.75-.74-.64-1.7-.61-1.89,.07-.41,.45-.69,.86-.62,.41,.07,.69,.45,.62,.86,0,.02-.05,.36,.18,.58Zm2.02,4.05c-.23-.02-.83-.02-1.4,.37-.52,.36-.74,.85-.83,1.11-.1,.32-.4,.52-.71,.52-.08,0-.16-.01-.23-.04-.39-.13-.61-.55-.48-.95,.14-.44,.52-1.27,1.4-1.88,.93-.64,1.88-.67,2.37-.63,.41,.03,.72,.39,.69,.81-.03,.41-.39,.7-.81,.69Zm.12-6c-.08,0-.17,0-.28,0-.52,0-1.32-.11-2.09-.65-.88-.61-1.26-1.44-1.4-1.88-.13-.39,.09-.82,.48-.95,.39-.13,.82,.08,.95,.48,.09,.26,.31,.75,.83,1.11,.57,.39,1.17,.4,1.4,.38,.41-.02,.77,.28,.81,.69,.03,.41-.28,.77-.69,.81Z"/><path d="M7.9,3.42c-.33,.48-.69,.76-1.06,.84-.14,.03-.24,.02-.45,0-.11,0-.23-.02-.39-.02-1.52,0-2.87,.91-3.44,2.33l-.37,.92c-.65,1.62-.06,3.49,1.38,4.55-1.45,.97-2.03,2.84-1.38,4.46l.37,.92c.57,1.42,1.92,2.33,3.46,2.33h0c.14,0,.26-.01,.37-.02,.21-.02,.31-.02,.45,0,.37,.08,.73,.36,1.06,.84,.51,.74,1.33,1.17,2.2,1.17,.41,0,.8-.1,1.15-.27V2.52c-.35-.17-.74-.27-1.15-.27-.87,0-1.69,.44-2.2,1.17Zm1.33,14.29c-.08,.03-.16,.04-.23,.04-.32,0-.61-.2-.71-.52-.09-.26-.31-.75-.83-1.11-.57-.39-1.17-.4-1.4-.38-.41,.02-.77-.28-.81-.69-.03-.41,.28-.77,.69-.81,.49-.04,1.44,0,2.37,.64,.88,.61,1.26,1.44,1.4,1.88,.13,.39-.09,.82-.48,.95Zm-1.07-6.59c-.06-.41,.22-.79,.63-.85,.4-.07,.79,.21,.85,.62,.03,.19,.14,1.15-.61,1.89-.4,.39-.94,.6-1.5,.6-.28,0-.56-.05-.83-.16-.38-.15-.57-.59-.42-.97,.15-.38,.59-.57,.98-.42,.26,.1,.54,.05,.73-.12,.23-.22,.18-.56,.18-.58Zm1.55-3.88c-.14,.44-.52,1.27-1.4,1.88-.78,.53-1.57,.64-2.09,.64-.1,0-.2,0-.28,0-.41-.03-.72-.39-.69-.81,.03-.41,.38-.71,.81-.69,.23,.02,.83,.02,1.4-.37,.52-.36,.74-.85,.83-1.11,.13-.39,.55-.61,.95-.48,.39,.13,.61,.55,.48,.95Z"/></g></g><g id="l"/><g id="m"/><g id="n"/><g id="o"/><g id="p"/><g id="q"/><g id="r"/><g id="s"/><g id="t"/><g id="u"/></svg>