<?xml version="1.0" encoding="UTF-8"?><svg xmlns="http://www.w3.org/2000/svg" viewBox="0 0 24 24"><g id="a"/><g id="b"/><g id="c"/><g id="d"/><g id="e"/><g id="f"/><g id="g"/><g id="h"/><g id="i"/><g id="j"/><g id="k"/><g id="l"/><g id="m"/><g id="n"/><g id="o"><g><path d="M19.35,10.03l-1.68-3.37c-.13-.25-.39-.41-.67-.41H7c-.28,0-.54,.16-.67,.41l-1.68,3.37c-.26,.52-.4,1.1-.4,1.68v6.29c0,2.07,1.68,3.75,3.75,3.75h8c2.07,0,3.75-1.68,3.75-3.75v-6.29c0-.58-.14-1.16-.4-1.68Zm-5.35,4.72h-1.25v1.25c0,.41-.34,.75-.75,.75s-.75-.34-.75-.75v-1.25h-1.25c-.41,0-.75-.34-.75-.75s.34-.75,.75-.75h1.25v-1.25c0-.41,.34-.75,.75-.75s.75,.34,.75,.75v1.25h1.25c.41,0,.75,.34,.75,.75s-.34,.75-.75,.75Z"/><path d="M7,4.75h10c.7,0,1.33,.33,1.75,.86v-1.61c0-.96-.79-1.75-1.75-1.75H7c-.96,0-1.75,.79-1.75,1.75v1.61c.42-.53,1.05-.86,1.75-.86Z"/></g></g><g id="p"/><g id="q"/><g id="r"/><g id="s"/><g id="t"/><g id="u"/></svg>