<?xml version="1.0" encoding="UTF-8"?><svg xmlns="http://www.w3.org/2000/svg" viewBox="0 0 24 24"><g id="a"/><g id="b"/><g id="c"/><g id="d"/><g id="e"/><g id="f"/><g id="g"/><g id="h"/><g id="i"/><g id="j"/><g id="k"/><g id="l"/><g id="m"/><g id="n"/><g id="o"/><g id="p"><g><path d="M17,12.75c-.28,0-.54-.16-.67-.41l-.28-.55-2.36,5.51c-.12,.27-.39,.45-.68,.45h0c-.3,0-.56-.17-.69-.45l-3.35-7.55-1.29,2.58c-.13,.25-.39,.41-.67,.41H2.25v4.25c0,2.62,2.13,4.75,4.75,4.75h10c2.62,0,4.75-2.13,4.75-4.75v-4.25h-4.75Z"/><path d="M6.54,11.25l1.79-3.59c.13-.26,.39-.42,.69-.41,.29,0,.55,.18,.67,.45l3.3,7.43,2.32-5.42c.12-.27,.38-.45,.67-.45,.28-.02,.56,.15,.69,.41l.79,1.59h4.29V7c0-2.62-2.13-4.75-4.75-4.75H7c-2.62,0-4.75,2.13-4.75,4.75v4.25H6.54Z"/></g></g><g id="q"/><g id="r"/><g id="s"/><g id="t"/><g id="u"/></svg>