<?xml version="1.0" encoding="UTF-8"?><svg xmlns="http://www.w3.org/2000/svg" viewBox="0 0 24 24"><g id="a"/><g id="b"/><g id="c"/><g id="d"/><g id="e"/><g id="f"/><g id="g"/><g id="h"/><g id="i"/><g id="j"/><g id="k"/><g id="l"/><g id="m"/><g id="n"><path d="M20,8.25h-4c-.14,0-.25-.11-.25-.25V4c0-.96-.79-1.75-1.75-1.75h-4c-.96,0-1.75,.79-1.75,1.75v4c0,.14-.11,.25-.25,.25H4c-.96,0-1.75,.79-1.75,1.75v4c0,.96,.79,1.75,1.75,1.75h4c.14,0,.25,.11,.25,.25v4c0,.96,.79,1.75,1.75,1.75h4c.96,0,1.75-.79,1.75-1.75v-4c0-.14,.11-.25,.25-.25h4c.96,0,1.75-.79,1.75-1.75v-4c0-.96-.79-1.75-1.75-1.75Z"/></g><g id="o"/><g id="p"/><g id="q"/><g id="r"/><g id="s"/><g id="t"/><g id="u"/></svg>