<?xml version="1.0" encoding="UTF-8"?><svg xmlns="http://www.w3.org/2000/svg" viewBox="0 0 24 24"><g id="a"/><g id="b"/><g id="c"/><g id="d"/><g id="e"/><g id="f"/><g id="g"/><g id="h"/><g id="i"/><g id="j"/><g id="k"/><g id="l"/><g id="m"/><g id="n"/><g id="o"/><g id="p"/><g id="q"/><g id="r"><g><path d="M14.67,14.26c.1,.05,.22,.08,.33,.08,.1,0,.21-.02,.31-.07,.2-.09,.36-.27,.42-.48l1-3.59c.1-.35-.07-.71-.39-.87l-1.45-.72c-.08-.04-.14-.13-.14-.22V3c0-.41-.34-.75-.75-.75h-4c-.41,0-.75,.34-.75,.75v5.38c0,.1-.05,.18-.14,.22l-1.45,.72c-.32,.16-.48,.53-.39,.87l1,3.59c.06,.22,.21,.39,.42,.48,.2,.09,.44,.09,.64-.01,.38-.19,.75-.4,1.1-.64,.28-.19,.53-.39,.76-.6,.47-.41,1.15-.41,1.62,0,.23,.2,.48,.4,.76,.6,.35,.24,.72,.46,1.1,.65Z"/><path d="M20.4,7.95c-1.01-1.35-2.51-2.26-4.15-2.57v2.23l.76,.38c.96,.48,1.45,1.58,1.16,2.62l-1,3.59c-.18,.65-.64,1.17-1.25,1.45-.3,.13-.6,.2-.92,.2-.34,0-.68-.08-.99-.23-.26-.13-.51-.29-.76-.45v1.34c0,2.34,1.91,4.25,4.25,4.25s4.25-1.91,4.25-4.25v-4.5c0-1.45-.48-2.89-1.35-4.05Z"/><path d="M9,15.84c-.32,0-.63-.07-.92-.19-.62-.28-1.07-.8-1.25-1.45l-1-3.59c-.29-1.03,.2-2.14,1.16-2.62l.76-.38v-2.23c-1.64,.31-3.14,1.22-4.15,2.57-.87,1.16-1.35,2.6-1.35,4.05v4.5c0,2.34,1.91,4.25,4.25,4.25s4.25-1.91,4.25-4.25v-1.34c-.25,.15-.49,.32-.76,.44-.32,.15-.66,.23-.99,.23Z"/></g></g><g id="s"/><g id="t"/><g id="u"/></svg>