<?xml version="1.0" encoding="UTF-8"?><svg xmlns="http://www.w3.org/2000/svg" viewBox="0 0 24 24"><g id="a"/><g id="b"/><g id="c"/><g id="d"/><g id="e"/><g id="f"/><g id="g"/><g id="h"/><g id="i"/><g id="j"/><g id="k"/><g id="l"/><g id="m"><g><path d="M21,11.25c-.41,0-.75,.34-.75,.75v4c0,.41,.34,.75,.75,.75s.75-.34,.75-.75v-4c0-.41-.34-.75-.75-.75Z"/><path d="M2.25,13v2c0,.96,.79,1.75,1.75,1.75h1.25v-5.5h-1.25c-.96,0-1.75,.79-1.75,1.75Z"/><path d="M9.64,8.61c-.21-.35-.67-.47-1.03-.26-.36,.21-.47,.67-.26,1.03l1.12,1.86h-2.72v5.5h6.03l1.58,2.64c.14,.23,.39,.36,.64,.36,.13,0,.26-.03,.38-.11,.36-.21,.47-.67,.26-1.03l-6-10Z"/><path d="M17,11.25h-4.03l3.3,5.5h.73c.96,0,1.75-.79,1.75-1.75v-2c0-.96-.79-1.75-1.75-1.75Z"/><path d="M15.86,7.85c.17,.12,.29,.19,.38,.34,.16,.23,.23,.55,.2,.95-.03,.41,.28,.77,.69,.8,.02,0,.04,0,.06,0,.39,0,.72-.3,.75-.69,.06-.75-.1-1.4-.46-1.92-.26-.37-.54-.56-.77-.72-.17-.11-.29-.2-.4-.34-.18-.25-.28-.6-.27-1.05,0-.41-.32-.76-.74-.76-.4,.04-.75,.32-.76,.74-.01,.79,.18,1.46,.57,1.98,.26,.35,.53,.53,.75,.68Z"/><path d="M20.93,8.25c.06-.75-.1-1.4-.46-1.92-.26-.37-.54-.56-.77-.72-.17-.11-.29-.2-.4-.34-.18-.25-.28-.6-.27-1.05,0-.41-.32-.76-.74-.76-.4,0-.75,.32-.76,.74-.01,.79,.18,1.46,.57,1.98,.26,.35,.53,.53,.75,.68,.17,.12,.29,.19,.38,.34,.16,.23,.23,.55,.2,.95-.03,.41,.28,.77,.69,.8,.02,0,.04,0,.06,0,.39,0,.72-.3,.75-.69Z"/></g></g><g id="n"/><g id="o"/><g id="p"/><g id="q"/><g id="r"/><g id="s"/><g id="t"/><g id="u"/></svg>