<?xml version="1.0" encoding="UTF-8"?><svg xmlns="http://www.w3.org/2000/svg" viewBox="0 0 24 24"><g id="a"/><g id="b"/><g id="c"/><g id="d"/><g id="e"/><g id="f"><g><path d="M12,2.25C6.62,2.25,2.25,6.17,2.25,11c0,2.77,1.41,5.31,3.87,6.98,.08,.06,.13,.14,.13,.22v1.8c0,.96,.79,1.75,1.75,1.75h1.25v-2.75c0-.41,.34-.75,.75-.75s.75,.34,.75,.75v2.75h2.5v-2.75c0-.41,.34-.75,.75-.75s.75,.34,.75,.75v2.75h1.25c.96,0,1.75-.79,1.75-1.75v-1.8c0-.11,.09-.19,.13-.22,2.46-1.67,3.87-4.21,3.87-6.98,0-4.83-4.37-8.75-9.75-8.75Zm-4,11.5c-1.52,0-2.75-1.23-2.75-2.75s1.23-2.75,2.75-2.75,2.75,1.23,2.75,2.75-1.23,2.75-2.75,2.75Zm5.53,2.78c-.15,.15-.34,.22-.53,.22s-.38-.07-.53-.22l-.47-.47-.47,.47c-.29,.29-.77,.29-1.06,0s-.29-.77,0-1.06l1-1c.29-.29,.77-.29,1.06,0l1,1c.29,.29,.29,.77,0,1.06Zm2.47-2.78c-1.52,0-2.75-1.23-2.75-2.75s1.23-2.75,2.75-2.75,2.75,1.23,2.75,2.75-1.23,2.75-2.75,2.75Z"/><circle cx="16" cy="11" r="1.25"/><circle cx="8" cy="11" r="1.25"/></g></g><g id="g"/><g id="h"/><g id="i"/><g id="j"/><g id="k"/><g id="l"/><g id="m"/><g id="n"/><g id="o"/><g id="p"/><g id="q"/><g id="r"/><g id="s"/><g id="t"/><g id="u"/></svg>