<?xml version="1.0" encoding="UTF-8"?><svg xmlns="http://www.w3.org/2000/svg" viewBox="0 0 24 24"><g id="a"/><g id="b"/><g id="c"/><g id="d"/><g id="e"/><g id="f"/><g id="g"/><g id="h"/><g id="i"/><g id="j"/><g id="k"/><g id="l"/><g id="m"/><g id="n"/><g id="o"/><g id="p"/><g id="q"><path d="M14.11,5.26c-.34-.05-1-.22-1.58-.79-.2-.2-.48-.54-.65-1.03-.26-.71-.92-1.19-1.66-1.19h-1.34c-.96,0-1.75,.78-1.75,1.75,0,.41,.05,.81,.15,1.19,.32,1.2,1.03,1.83,1.61,2.34,.44,.39,.78,.69,.92,1.18,.21,.73-.03,1.81-.59,2.62-.38,.55-.85,.89-1.27,.92-.38,.02-.77-.21-1.02-.41-.48-.38-1.1-.59-1.76-.59-1.61,0-2.92,1.31-2.92,2.92v5.33c0,1.24,1.01,2.25,2.25,2.25s2.25-1.01,2.25-2.25v-.77c1.26,.99,3.47,2.27,6.32,2.02,3.4-.3,7.13-2.68,7.68-6.65,.55-4-2.34-7.88-6.64-8.84Z"/></g><g id="r"/><g id="s"/><g id="t"/><g id="u"/></svg>