<?xml version="1.0" encoding="UTF-8"?><svg xmlns="http://www.w3.org/2000/svg" viewBox="0 0 24 24"><g id="a"/><g id="b"/><g id="c"/><g id="d"/><g id="e"/><g id="f"/><g id="g"/><g id="h"/><g id="i"/><g id="j"/><g id="k"/><g id="l"/><g id="m"/><g id="n"/><g id="o"/><g id="p"/><g id="q"/><g id="r"/><g id="s"/><g id="t"><g><path d="M20.53,4.47c-.85-.85-2.33-.85-3.18,0L3.91,17.91c-.42,.42-.66,.99-.66,1.59s.23,1.17,.66,1.59h0c.42,.43,.99,.66,1.59,.66s1.17-.23,1.59-.66L20.53,7.66c.42-.42,.66-.99,.66-1.59s-.23-1.17-.66-1.59Z"/><path d="M9.74,9.95l6.54-6.54c.06-.06,.13-.1,.19-.16l-.55-.55c-.68-.68-1.79-.68-2.47,0l-4.24,4.24c-.68,.68-.68,1.79,0,2.48l.53,.53Z"/></g></g><g id="u"/></svg>