<?xml version="1.0" encoding="UTF-8"?><svg xmlns="http://www.w3.org/2000/svg" viewBox="0 0 24 24"><g id="a"/><g id="b"/><g id="c"/><g id="d"/><g id="e"/><g id="f"/><g id="g"/><g id="h"/><g id="i"/><g id="j"/><g id="k"/><g id="l"/><g id="m"/><g id="n"/><g id="o"/><g id="p"/><g id="q"/><g id="r"/><g id="s"><path d="M20.77,6.05c-.4-1.53-1.4-2.77-2.74-3.39-1.2-.56-2.51-.55-3.71,.02-.12,.06-.24,.12-.37,.19-.34,.18-.67,.39-.98,.62-.52,.38-1.22,.37-1.74,0-.31-.23-.65-.43-.98-.62-.12-.07-.24-.13-.37-.19-1.41-.67-2.98-.56-4.31,.31-1.53,1.01-2.4,2.8-2.32,4.88,.05,1.07,.29,2.1,.7,3.07,.12,.27,.27,.6,.48,.96,.15,.26,.2,.55,.16,.82-.16,.98-.27,2.5,.16,4.22,.48,1.94,1.43,3.31,2.14,4.11,.23,.26,.5,.45,.82,.56,.22,.08,.44,.12,.67,.12,.4,0,.79-.13,1.13-.37,.57-.41,.9-1.1,.88-1.83-.03-.98,.08-2.31,.79-3.07,.18-.2,.53-.57,.92-.57s.74,.37,.92,.57c.7,.76,.81,2.09,.79,3.07-.02,.73,.31,1.42,.88,1.83,.53,.38,1.19,.48,1.8,.25,.32-.12,.59-.31,.82-.56,.71-.8,1.66-2.17,2.14-4.11,.43-1.72,.32-3.24,.16-4.22-.05-.28,0-.56,.16-.83,.54-.95,.92-2.03,1.08-3.13,0-.01,0-.03,0-.04,.03-.31,.04-.65,.04-1.01,0-.53-.04-1.07-.14-1.68Z"/></g><g id="t"/><g id="u"/></svg>