<?xml version="1.0" encoding="UTF-8"?><svg xmlns="http://www.w3.org/2000/svg" viewBox="0 0 24 24"><g id="a"/><g id="b"/><g id="c"/><g id="d"/><g id="e"/><g id="f"/><g id="g"/><g id="h"/><g id="i"/><g id="j"/><g id="k"/><g id="l"/><g id="m"/><g id="n"/><g id="o"/><g id="p"/><g id="q"/><g id="r"/><g id="s"/><g id="t"/><g id="u"><g><circle cx="7.5" cy="16.5" r=".75"/><path d="M18.54,17.25l-.37-1.12c-.38-1.12-1.42-1.88-2.61-1.88h-3.34c-.85-1.77-2.64-3-4.72-3-.26,0-.5,.04-.75,.08v-2.58h7.25c.41,0,.75-.34,.75-.75s-.34-.75-.75-.75H6.75v-2.25c0-1.52-1.23-2.75-2.75-2.75h-1c-.41,0-.75,.34-.75,.75s.34,.75,.75,.75h1c.69,0,1.25,.56,1.25,1.25v6.78c-1.77,.85-3,2.64-3,4.72,0,2.9,2.35,5.25,5.25,5.25s5.25-2.35,5.25-5.25c0-.26-.04-.5-.08-.75h2.88c.54,0,1.02,.34,1.19,.85l.38,1.13c-.53,.41-.87,1.05-.87,1.76,0,1.24,1.01,2.25,2.25,2.25s2.25-1.01,2.25-2.25-.99-2.22-2.21-2.25Zm-11.04,1.5c-1.24,0-2.25-1.01-2.25-2.25s1.01-2.25,2.25-2.25,2.25,1.01,2.25,2.25-1.01,2.25-2.25,2.25Z"/></g></g></svg>