<svg xmlns="http://www.w3.org/2000/svg" viewBox="0 0 24 24"><title>32.Image</title><g id="_32.Image" data-name="32.Image"><polyline points="7 14 7 23 23 23 23 9 19 9" style="fill:none;stroke:#000;stroke-miterlimit:10;stroke-width:2px"/><polyline points="7 23 14 16 21 23" style="fill:none;stroke:#000;stroke-miterlimit:10;stroke-width:2px"/><polyline points="16 18 19 15 23 19" style="fill:none;stroke:#000;stroke-miterlimit:10;stroke-width:2px"/><path d="M12,3a3.959,3.959,0,0,0-1.25.219A3.5,3.5,0,0,0,4,4.5a3.5,3.5,0,0,0,.051.5c-.017,0-.034,0-.051,0a3,3,0,0,0,0,6h8a4,4,0,0,0,0-8Z" style="fill:none;stroke:#000;stroke-miterlimit:10;stroke-width:2px"/></g></svg>