<svg xmlns="http://www.w3.org/2000/svg" viewBox="0 0 24 24"><title>34.Computer</title><g id="_34.Computer" data-name="34.Computer"><polyline points="23 15 1 15 1 19 23 19 23 13" style="fill:none;stroke:#000;stroke-miterlimit:10;stroke-width:2px"/><polyline points="9 19 9 22 8 23 6 23 6 24" style="fill:none;stroke:#000;stroke-miterlimit:10;stroke-width:2px"/><polyline points="15 19 15 22 16 23 18 23 18 24" style="fill:none;stroke:#000;stroke-miterlimit:10;stroke-width:2px"/><polyline points="1 15 1 1 8 1" style="fill:none;stroke:#000;stroke-miterlimit:10;stroke-width:2px"/><path d="M19,3a3.959,3.959,0,0,0-1.25.219A3.5,3.5,0,0,0,11,4.5a3.5,3.5,0,0,0,.051.5c-.017,0-.034,0-.051,0a3,3,0,0,0,0,6h8a4,4,0,0,0,0-8Z" style="fill:none;stroke:#000;stroke-miterlimit:10;stroke-width:2px"/></g></svg>