<svg xmlns="http://www.w3.org/2000/svg" viewBox="0 0 24 24"><title>50.Networking</title><g id="_50.Networking" data-name="50.Networking"><path d="M15,18h2.5A5.5,5.5,0,1,0,15.978,7.218c0-.074.022-.143.022-.218a5,5,0,0,0-9.907-.924A6,6,0,0,0,7,18H9" style="fill:none;stroke:#000;stroke-miterlimit:10;stroke-width:2px"/><line x1="11" y1="18" x2="13" y2="18" style="fill:none;stroke:#000;stroke-miterlimit:10;stroke-width:2px"/><line x1="11" y1="14" x2="13" y2="14" style="fill:none;stroke:#000;stroke-miterlimit:10;stroke-width:2px"/><line x1="11" y1="10" x2="13" y2="10" style="fill:none;stroke:#000;stroke-miterlimit:10;stroke-width:2px"/><line x1="11" y1="22" x2="13" y2="22" style="fill:none;stroke:#000;stroke-miterlimit:10;stroke-width:2px"/><line x1="7" y1="22" x2="9" y2="22" style="fill:none;stroke:#000;stroke-miterlimit:10;stroke-width:2px"/><line x1="3" y1="22" x2="5" y2="22" style="fill:none;stroke:#000;stroke-miterlimit:10;stroke-width:2px"/><line x1="15" y1="22" x2="17" y2="22" style="fill:none;stroke:#000;stroke-miterlimit:10;stroke-width:2px"/><line x1="19" y1="22" x2="21" y2="22" style="fill:none;stroke:#000;stroke-miterlimit:10;stroke-width:2px"/></g></svg>