<svg xmlns="http://www.w3.org/2000/svg" viewBox="0 0 32 32"><title>11-Text Edit</title><g id="_11-Text_Edit" data-name="11-Text Edit"><path d="M28,1a3,3,0,0,1,0,6H19V28a3,3,0,0,1-6,0V7H4A3,3,0,0,1,4,1Z" style="fill:#c1c5c8"/><path d="M16,32a4,4,0,0,1-4-4V23a1,1,0,0,1,2,0v5a2,2,0,0,0,4,0V23a1,1,0,0,1,2,0v5A4,4,0,0,1,16,32Z" style="fill:#6f7a7b"/><path d="M19,16a1,1,0,0,1-1-1V7a1,1,0,0,1,1-1h9a2,2,0,0,0,0-4H4A2,2,0,0,0,4,6h9a1,1,0,0,1,1,1v8a1,1,0,0,1-2,0V8H4A4,4,0,0,1,4,0H28a4,4,0,0,1,0,8H20v7A1,1,0,0,1,19,16Z" style="fill:#6f7a7b"/><circle cx="18" cy="19" r="1" style="fill:#6f7a7b"/><circle cx="14" cy="19" r="1" style="fill:#6f7a7b"/><circle cx="10" cy="19" r="1" style="fill:#6f7a7b"/><circle cx="22" cy="19" r="1" style="fill:#6f7a7b"/></g></svg>