<svg xmlns="http://www.w3.org/2000/svg" viewBox="0 0 32 32"><title>13-Editor</title><g id="_13-Editor" data-name="13-Editor"><path d="M28,4V28a3,3,0,0,1-3,3H7a3,3,0,0,1-3-3V7l6-6H25A3,3,0,0,1,28,4Z" style="fill:#c1c5c8"/><path d="M25,0H10a1,1,0,0,0-.707.293l-6,6A1,1,0,0,0,3,7V28a4,4,0,0,0,4,4H25a4,4,0,0,0,4-4V4A4,4,0,0,0,25,0Zm2,28a2,2,0,0,1-2,2H7a2,2,0,0,1-2-2V7.414L10.414,2H25a2,2,0,0,1,2,2Z" style="fill:#6f7a7b"/><path d="M22,23H17a1,1,0,0,0,0,2h5a1,1,0,0,0,0-2Z" style="fill:#6f7a7b"/><path d="M22,19H19a1,1,0,0,0,0,2h3a1,1,0,0,0,0-2Z" style="fill:#6f7a7b"/><path d="M22,15H19a1,1,0,0,0,0,2h3a1,1,0,0,0,0-2Z" style="fill:#6f7a7b"/><path d="M22,11H17a1,1,0,0,0,0,2h5a1,1,0,0,0,0-2Z" style="fill:#6f7a7b"/><path d="M15.923,18.382a1,1,0,0,0-.216-1.089l-2-2a1,1,0,0,0-1.414,1.414l.293.293H9a1,1,0,0,0,0,2h3.586l-.293.293a1,1,0,1,0,1.414,1.414l2-2A1,1,0,0,0,15.923,18.382Z" style="fill:#6f7a7b"/></g></svg>