<svg xmlns="http://www.w3.org/2000/svg" viewBox="0 0 32 32"><title>15-Image</title><g id="_15-Image" data-name="15-Image"><rect x="1" y="2" width="30" height="28" rx="3" style="fill:#f2f2f2"/><path d="M31,5a3,3,0,0,0-3-3H4A3,3,0,0,0,1,5V9H31Z" style="fill:#c1c5c8"/><circle cx="19" cy="12" r="3" style="fill:#f2f2f2"/><path d="M2,29,13,18l8,8,4-4,5.87,5.87A2.982,2.982,0,0,1,28,30H4a2.993,2.993,0,0,1-2.12-.88Z" style="fill:#c1c5c8"/><circle cx="27" cy="6" r="1" style="fill:#6f7a7b"/><circle cx="9" cy="6" r="1" style="fill:#6f7a7b"/><circle cx="5" cy="6" r="1" style="fill:#6f7a7b"/><path d="M28,1H4A4,4,0,0,0,0,5V27a4,4,0,0,0,4,4H28a3.966,3.966,0,0,0,3.828-2.844v0A4.115,4.115,0,0,0,32,27V5A4,4,0,0,0,28,1ZM2,5A2,2,0,0,1,4,3H28a2,2,0,0,1,2,2V25.586l-4.293-4.293a1,1,0,0,0-1.414,0L21,24.586l-7.293-7.293a1,1,0,0,0-1.414,0L2.075,27.511A1.979,1.979,0,0,1,2,27ZM28,29H4a1.979,1.979,0,0,1-.511-.075L13,19.414l7.293,7.293a1,1,0,0,0,1.414,0L25,23.414l4.67,4.67A1.974,1.974,0,0,1,28,29Z" style="fill:#6f7a7b"/><path d="M19,16a4,4,0,1,0-4-4A4,4,0,0,0,19,16Zm0-6a2,2,0,1,1-2,2A2,2,0,0,1,19,10Z" style="fill:#6f7a7b"/></g></svg>