<svg xmlns="http://www.w3.org/2000/svg" viewBox="0 0 32 32"><title>16-Editor</title><g id="_16-Editor" data-name="16-Editor"><path d="M28,4V28a3,3,0,0,1-3,3H7a3,3,0,0,1-3-3V7l6-6H25A3,3,0,0,1,28,4Z" style="fill:#c1c5c8"/><path d="M25,32H7a4,4,0,0,1-4-4V7a1,1,0,0,1,.293-.707l6-6A1,1,0,0,1,10,0H25a4,4,0,0,1,4,4V28A4,4,0,0,1,25,32ZM5,7.414V28a2,2,0,0,0,2,2H25a2,2,0,0,0,2-2V4a2,2,0,0,0-2-2H10.414Z" style="fill:#6f7a7b"/><path d="M23,20a1,1,0,0,1-.707-.293l-2-2a1,1,0,0,1,0-1.414l2-2a1,1,0,0,1,1.414,1.414L22.414,17l1.293,1.293A1,1,0,0,1,23,20Z" style="fill:#6f7a7b"/><path d="M9,20a1,1,0,0,1-.707-1.707L9.586,17,8.293,15.707a1,1,0,0,1,1.414-1.414l2,2a1,1,0,0,1,0,1.414l-2,2A1,1,0,0,1,9,20Z" style="fill:#6f7a7b"/><circle cx="16" cy="17" r="1" style="fill:#6f7a7b"/><circle cx="16" cy="13" r="1" style="fill:#6f7a7b"/><circle cx="16" cy="9" r="1" style="fill:#6f7a7b"/><circle cx="16" cy="21" r="1" style="fill:#6f7a7b"/><circle cx="16" cy="25" r="1" style="fill:#6f7a7b"/></g></svg>