<svg xmlns="http://www.w3.org/2000/svg" viewBox="0 0 32 32"><title>19-Pencil</title><g id="_19-Pencil" data-name="19-Pencil"><polygon points="16 1 21 7 16 8 11 7 16 1" style="fill:#f2f2f2"/><path d="M21,23v4a4,4,0,0,1-4,4H15a4,4,0,0,1-4-4V23a7.651,7.651,0,0,0,5,2A7.651,7.651,0,0,0,21,23Z" style="fill:#f2f2f2"/><path d="M21,7V23a7.651,7.651,0,0,1-5,2V8Z" style="fill:#c1c5c8"/><path d="M16,8V25a7.651,7.651,0,0,1-5-2V7Z" style="fill:#c1c5c8"/><path d="M21.768,6.36l-5-6a1.033,1.033,0,0,0-1.536,0l-5,6A1,1,0,0,0,10,7V27a5.006,5.006,0,0,0,5,5h2a5.006,5.006,0,0,0,5-5V7A1,1,0,0,0,21.768,6.36ZM12,22.541V8.22l3,.6V23.906A6.9,6.9,0,0,1,12,22.541ZM17,8.82l3-.6V22.546a6.784,6.784,0,0,1-3,1.362ZM16,2.562l3.156,3.787L16,6.98l-3.156-.631ZM17,30H15a3,3,0,0,1-3-3V24.931a8.018,8.018,0,0,0,8,0V27A3,3,0,0,1,17,30Z" style="fill:#6f7a7b"/></g></svg>