<svg xmlns="http://www.w3.org/2000/svg" viewBox="0 0 32 32"><title>21-Pencil</title><g id="_21-Pencil" data-name="21-Pencil"><path d="M22,18l-3.25,7.05-.1-.05a4.011,4.011,0,0,0-5.3,0l-.1.05L10,18l6-3Z" style="fill:#f2f2f2"/><path d="M16,24a4.026,4.026,0,0,1,2.65,1l.1.05L16,31l-2.75-5.95.1-.05A4.026,4.026,0,0,1,16,24Z" style="fill:#c1c5c8"/><polygon points="16 1 16 15 10 18 10 1 16 1" style="fill:#c1c5c8"/><polygon points="22 1 22 18 16 15 16 1 22 1" style="fill:#c1c5c8"/><path d="M22,0a1,1,0,0,0-1,1V16.382l-4-2V1a1,1,0,0,0-2,0V14.382l-4,2V1A1,1,0,0,0,9,1V18a.984.984,0,0,0,.092.418l6,13a1,1,0,0,0,1.816,0l6-13A.984.984,0,0,0,23,18V1A1,1,0,0,0,22,0ZM18.314,23.6a5.2,5.2,0,0,0-4.628,0l-2.372-5.14L16,16.118l4.686,2.343ZM16,28.616,14.518,25.4a3.121,3.121,0,0,1,2.964,0Z" style="fill:#6f7a7b"/></g></svg>