<svg xmlns="http://www.w3.org/2000/svg" viewBox="0 0 32 32"><title>24-Pen</title><g id="_24-Pen" data-name="24-Pen"><path d="M16,12a1,1,0,1,0,1,1A1,1,0,0,0,16,12ZM16,1l5,10a4.11,4.11,0,0,1-1,5l-1,3H13l-1-3a4.11,4.11,0,0,1-1-5Z" style="fill:#c1c5c8"/><rect x="13" y="19" width="6" height="4" style="fill:#f2f2f2"/><rect x="13" y="23" width="6" height="8" style="fill:#c1c5c8"/><circle cx="16" cy="13" r="1" style="fill:#6f7a7b"/><path d="M21.9,10.553l-5-10A1,1,0,0,0,15.553.105a.97.97,0,0,0-.371.347.282.282,0,0,0-.077.1l-4.962,9.932a5.1,5.1,0,0,0,.98,6.047L12,19.161V31a1,1,0,0,0,1,1h6a1,1,0,0,0,1-1V19.161l.877-2.629A5.088,5.088,0,0,0,21.9,10.553ZM18,22H14V20h4Zm-4,8V24h4v6Zm5.293-14.707a1.011,1.011,0,0,0-.241.391L18.28,18H13.72l-.772-2.316a1.011,1.011,0,0,0-.241-.391,3.111,3.111,0,0,1-.812-3.846L15,5.236V10a1,1,0,0,0,2,0V5.234l3.143,6.281A3.129,3.129,0,0,1,19.293,15.293Z" style="fill:#6f7a7b"/></g></svg>