<svg xmlns="http://www.w3.org/2000/svg" viewBox="0 0 32 32"><title>25-Pen</title><g id="_25-Pen" data-name="25-Pen"><path d="M16,20a1,1,0,1,0-1-1A1,1,0,0,0,16,20Zm0,11L11,21a4.11,4.11,0,0,1,1-5l1-3h6l1,3a4.11,4.11,0,0,1,1,5Z" style="fill:#c1c5c8"/><rect x="13" y="9" width="6" height="4" style="fill:#f2f2f2"/><rect x="13" y="1" width="6" height="8" style="fill:#c1c5c8"/><rect x="25" y="25" width="6" height="6" rx="2" style="fill:#f2f2f2"/><rect x="1" y="25" width="6" height="6" rx="2" style="fill:#f2f2f2"/><path d="M20.877,15.468,20,12.837V1a1,1,0,0,0-2,0V8H14V1a1,1,0,0,0-2,0V12.837l-.877,2.631a5.088,5.088,0,0,0-1.018,5.979l5,9.991.032.061a.99.99,0,0,0,.384.376.952.952,0,0,0,.205.085A.97.97,0,0,0,16,32a1,1,0,0,0,.9-.562l4.958-9.923A5.1,5.1,0,0,0,20.877,15.468ZM18,10v2H14V10Zm2.105,10.553L17,26.764V22a1,1,0,0,0-2,0v4.767l-3.143-6.282a3.129,3.129,0,0,1,.85-3.778,1.013,1.013,0,0,0,.242-.391L13.721,14h4.558l.772,2.316a1.013,1.013,0,0,0,.242.391A3.108,3.108,0,0,1,20.105,20.553Z" style="fill:#6f7a7b"/><circle cx="16" cy="19" r="1" style="fill:#6f7a7b"/><path d="M29,24H27a3,3,0,0,0-3,3H22a1,1,0,0,0,0,2h2a3,3,0,0,0,3,3h2a3,3,0,0,0,3-3V27A3,3,0,0,0,29,24Zm1,5a1,1,0,0,1-1,1H27a1,1,0,0,1-1-1V27a1,1,0,0,1,1-1h2a1,1,0,0,1,1,1Z" style="fill:#6f7a7b"/><path d="M10,27H8a3,3,0,0,0-3-3H3a3,3,0,0,0-3,3v2a3,3,0,0,0,3,3H5a3,3,0,0,0,3-3h2a1,1,0,0,0,0-2ZM6,29a1,1,0,0,1-1,1H3a1,1,0,0,1-1-1V27a1,1,0,0,1,1-1H5a1,1,0,0,1,1,1Z" style="fill:#6f7a7b"/></g></svg>