<svg xmlns="http://www.w3.org/2000/svg" viewBox="0 0 32 32"><title>26-File</title><g id="_26-File" data-name="26-File"><path d="M28,19v9a3,3,0,0,1-3,3H7a3,3,0,0,1-3-3V7l6-6h6V6a1.959,1.959,0,0,0,2,2h5v7a1.959,1.959,0,0,0,2,2A3.7,3.7,0,0,1,28,19Z" style="fill:#c1c5c8"/><circle cx="28" cy="2" r="1" style="fill:#6f7a7b"/><circle cx="28" cy="6" r="1" style="fill:#6f7a7b"/><circle cx="28" cy="10" r="1" style="fill:#6f7a7b"/><circle cx="28" cy="14" r="1" style="fill:#6f7a7b"/><circle cx="24" cy="1" r="1" style="fill:#6f7a7b"/><circle cx="20" cy="1" r="1" style="fill:#6f7a7b"/><path d="M25,32H7a4,4,0,0,1-4-4V7a1,1,0,0,1,.293-.707l6-6A1,1,0,0,1,10,0h6a1,1,0,0,1,1,1V6a.915.915,0,0,0,1,1h5a1,1,0,0,1,1,1v6.992A.918.918,0,0,0,25,16,4.7,4.7,0,0,1,28.9,18.553,1,1,0,0,1,29,19v9A4,4,0,0,1,25,32ZM5,7.414V28a2,2,0,0,0,2,2H25a2,2,0,0,0,2-2V19.272A2.572,2.572,0,0,0,25,18a2.916,2.916,0,0,1-3-3V9H18a2.916,2.916,0,0,1-3-3V2H10.414Z" style="fill:#6f7a7b"/></g></svg>