<svg xmlns="http://www.w3.org/2000/svg" viewBox="0 0 32 32"><title>3-Pencil and Ruler</title><g id="_3-Pencil_and_Ruler" data-name="3-Pencil and Ruler"><path d="M12,3V6H8V3a2,2,0,0,1,4,0Z" style="fill:#f2f2f2"/><polygon points="12 6 12 27 10 31 8 27 8 6 12 6" style="fill:#c1c5c8"/><path d="M16,24V3a2.006,2.006,0,0,1,2-2h4a2.006,2.006,0,0,1,2,2V29a2.006,2.006,0,0,1-2,2H18a2.006,2.006,0,0,1-2-2Z" style="fill:#c1c5c8"/><path d="M10,0A3,3,0,0,0,7,3V27a1,1,0,0,0,.105.447l2,4a1,1,0,0,0,1.79,0l2-4A1,1,0,0,0,13,27V3A3,3,0,0,0,10,0Zm0,2a1,1,0,0,1,1,1V5H9V3A1,1,0,0,1,10,2Zm0,26.764-1-2V7h2V26.764Z" style="fill:#6f7a7b"/><path d="M22,0H18a3,3,0,0,0-3,3V29a3,3,0,0,0,3,3h4a3,3,0,0,0,3-3V3A3,3,0,0,0,22,0Zm1,29a1,1,0,0,1-1,1H18a1,1,0,0,1-1-1V25h3a1,1,0,0,0,0-2H17V17h2a1,1,0,0,0,0-2H17V9h3a1,1,0,0,0,0-2H17V3a1,1,0,0,1,1-1h4a1,1,0,0,1,1,1Z" style="fill:#6f7a7b"/></g></svg>