<svg xmlns="http://www.w3.org/2000/svg" viewBox="0 0 32 32"><title>32-Cut</title><g id="_32-Cut" data-name="32-Cut"><circle cx="29" cy="13" r="2" style="fill:#f2f2f2"/><circle cx="29" cy="24" r="2" style="fill:#f2f2f2"/><path d="M24,4V28c0,1.66-2.34,3-4,3H4a3,3,0,0,1-3-3V7L7,1H21A3,3,0,0,1,24,4Z" style="fill:#c1c5c8"/><path d="M29.461,21.047,26.914,18.5l2.547-2.547a3.007,3.007,0,1,0-2.26-.568l-1.7,1.7-4.793-4.793a1,1,0,0,0-1.414,1.414L24.086,18.5l-.792.792a.99.99,0,0,0-.217.326A1.01,1.01,0,0,0,23,20v8a2,2,0,0,1-2,2H4a2,2,0,0,1-2-2V7.414L7.414,2H21a2,2,0,0,1,2,2v9a1,1,0,0,0,2,0V4a4,4,0,0,0-4-4H7a1,1,0,0,0-.707.293l-6,6A1,1,0,0,0,0,7V28a4,4,0,0,0,4,4H21a4,4,0,0,0,4-4V20.414l.5-.5,1.7,1.7a3,3,0,1,0,2.26-.568ZM29,12a1,1,0,1,1-1,1A1,1,0,0,1,29,12Zm0,13a1,1,0,1,1,1-1A1,1,0,0,1,29,25Z" style="fill:#6f7a7b"/><circle cx="10" cy="19" r="1" style="fill:#6f7a7b"/><circle cx="14" cy="19" r="1" style="fill:#6f7a7b"/><path d="M18,20h2a1,1,0,0,0,0-2H18a1,1,0,0,0,0,2Z" style="fill:#6f7a7b"/></g></svg>