<svg xmlns="http://www.w3.org/2000/svg" viewBox="0 0 32 32"><title>35-File</title><g id="_35-File" data-name="35-File"><path d="M28,4V28a3,3,0,0,1-3,3H7a3,3,0,0,1-3-3V7l6-6H25A3,3,0,0,1,28,4Z" style="fill:#c1c5c8"/><path d="M25,32H7a4,4,0,0,1-4-4V7a1,1,0,0,1,.293-.707l6-6A1,1,0,0,1,10,0H25a4,4,0,0,1,4,4V28A4,4,0,0,1,25,32ZM5,7.414V28a2,2,0,0,0,2,2H25a2,2,0,0,0,2-2V4a2,2,0,0,0-2-2H10.414Z" style="fill:#6f7a7b"/><circle cx="10" cy="13" r="1" style="fill:#6f7a7b"/><circle cx="10" cy="18" r="1" style="fill:#6f7a7b"/><circle cx="10" cy="23" r="1" style="fill:#6f7a7b"/><path d="M22,14H14a1,1,0,0,1,0-2h8a1,1,0,0,1,0,2Z" style="fill:#6f7a7b"/><path d="M22,19H14a1,1,0,0,1,0-2h8a1,1,0,0,1,0,2Z" style="fill:#6f7a7b"/><path d="M22,24H14a1,1,0,0,1,0-2h8a1,1,0,0,1,0,2Z" style="fill:#6f7a7b"/></g></svg>