<svg xmlns="http://www.w3.org/2000/svg" viewBox="0 0 32 32"><title>37-Folder</title><g id="_37-Folder" data-name="37-Folder"><circle cx="21.5" cy="14.5" r="2.5" style="fill:#f2f2f2"/><path d="M5,6H4V3A1.959,1.959,0,0,1,6,1H18l5,5h4a4,4,0,0,1,4,4V26l-5-5-5,5-8-8L2,29l-.32.23A3.992,3.992,0,0,1,1,27V10A4,4,0,0,1,5,6Zm19,8.5A2.5,2.5,0,1,0,21.5,17,2.5,2.5,0,0,0,24,14.5Z" style="fill:#c1c5c8"/><path d="M2,29,13,18l8,8,5-5,5,5v1a4,4,0,0,1-4,4H5a4,4,0,0,1-3.32-1.77Z" style="fill:#f2f2f2"/><path d="M18,1H6A1.959,1.959,0,0,0,4,3V6H23Z" style="fill:#f2f2f2"/><path d="M27,5H23.414L18.707.293A1,1,0,0,0,18,0H6A2.916,2.916,0,0,0,3,3V5.418A5,5,0,0,0,0,10V27a5,5,0,0,0,5,5H27a5.006,5.006,0,0,0,5-5V10A5.006,5.006,0,0,0,27,5ZM2,10A3,3,0,0,1,5,7H16a1,1,0,0,0,0-2H5V3.012A.919.919,0,0,1,6,2H17.586l4.707,4.707A1,1,0,0,0,23,7h4a3,3,0,0,1,3,3V23.586l-3.293-3.293a1,1,0,0,0-1.414,0L21,24.586l-7.293-7.293a1,1,0,0,0-1.414,0L2.053,27.533A2.963,2.963,0,0,1,2,27ZM27,30H5a2.991,2.991,0,0,1-1.895-.691L13,19.414l7.293,7.293a1,1,0,0,0,1.414,0L26,22.414l4,4V27A3,3,0,0,1,27,30Z" style="fill:#6f7a7b"/><path d="M21.5,18A3.5,3.5,0,1,0,18,14.5,3.5,3.5,0,0,0,21.5,18Zm0-5A1.5,1.5,0,1,1,20,14.5,1.5,1.5,0,0,1,21.5,13Z" style="fill:#6f7a7b"/></g></svg>