<svg xmlns="http://www.w3.org/2000/svg" viewBox="0 0 32 32"><title>39-Text Edit</title><g id="_39-Text_Edit" data-name="39-Text Edit"><path d="M26,10a2,2,0,0,1,0,4H23V24a2,2,0,0,1-4,0V14H14V10H26Z" style="fill:#c1c5c8"/><path d="M9,7V24L4,25V9A7.651,7.651,0,0,1,9,7Z" style="fill:#c1c5c8"/><path d="M14,10V25L9,24V7a7.651,7.651,0,0,1,5,2Z" style="fill:#c1c5c8"/><polygon points="14 25 9 31 4 25 9 24 14 25" style="fill:#f2f2f2"/><path d="M14,5V9A7.651,7.651,0,0,0,9,7,7.651,7.651,0,0,0,4,9V5A4,4,0,0,1,8,1h2A4,4,0,0,1,14,5Z" style="fill:#f2f2f2"/><path d="M10,0H8A5.006,5.006,0,0,0,3,5V25a1,1,0,0,0,.232.641l5,6a1,1,0,0,0,1.536,0l5-6A1,1,0,0,0,15,25V5A5.006,5.006,0,0,0,10,0Zm0,23.18V8.094a6.9,6.9,0,0,1,3,1.365V23.78ZM5,9.455A6.772,6.772,0,0,1,8,8.092V23.18l-3,.6ZM8,2h2a3,3,0,0,1,3,3V7.069A8.267,8.267,0,0,0,9,6,8.267,8.267,0,0,0,5,7.069V5A3,3,0,0,1,8,2ZM9,29.438,5.844,25.651,9,25.02l3.156.631Z" style="fill:#6f7a7b"/><path d="M26,9H18a1,1,0,0,0,0,2h8a1,1,0,0,1,0,2H23a1,1,0,0,0-1,1V24a1,1,0,0,1-2,0V14a1,1,0,0,0-1-1H18a1,1,0,0,0,0,2v9a3,3,0,0,0,6,0V15h2a3,3,0,0,0,0-6Z" style="fill:#6f7a7b"/></g></svg>