<svg xmlns="http://www.w3.org/2000/svg" viewBox="0 0 32 32"><title>4-Roller</title><g id="_4-Roller" data-name="4-Roller"><path d="M15,22v8a1,1,0,0,1-1,1H12a1,1,0,0,1-1-1V22a1,1,0,0,1,1-1h2A1,1,0,0,1,15,22Z" style="fill:#f2f2f2"/><path d="M25,6V9a2.006,2.006,0,0,1-2,2H3A2.006,2.006,0,0,1,1,9V3A2.006,2.006,0,0,1,3,1H23a2.006,2.006,0,0,1,2,2Z" style="fill:#c1c5c8"/><path d="M26,5.089V3a3,3,0,0,0-3-3H3A3,3,0,0,0,0,3V9a3,3,0,0,0,3,3H23a3,3,0,0,0,3-3V7.131A3.657,3.657,0,0,1,29,11c0,.163-.046,4-4,4H16a3.888,3.888,0,0,0-4,4v1a2,2,0,0,0-2,2v8a2,2,0,0,0,2,2h2a2,2,0,0,0,2-2V22a2,2,0,0,0-2-2V19a1.882,1.882,0,0,1,2-2h9a5.785,5.785,0,0,0,6-6A5.648,5.648,0,0,0,26,5.089ZM24,9a1,1,0,0,1-1,1H3A1,1,0,0,1,2,9V3A1,1,0,0,1,3,2H23a1,1,0,0,1,1,1ZM14,30l-2,0V22h2Z" style="fill:#6f7a7b"/></g></svg>