<svg xmlns="http://www.w3.org/2000/svg" viewBox="0 0 32 32"><title>41-File</title><g id="_41-File" data-name="41-File"><path d="M24,24H10a2.006,2.006,0,0,1-2-2V19a2.006,2.006,0,0,1,2-2H28a2.006,2.006,0,0,1,2,2v3a2.006,2.006,0,0,1-2,2H24Z" style="fill:#c1c5c8"/><path d="M26,24v4a3,3,0,0,1-3,3H5a3,3,0,0,1-3-3V7L8,1H23a3,3,0,0,1,3,3V17H10a2.006,2.006,0,0,0-2,2v3a2.006,2.006,0,0,0,2,2H26Z" style="fill:#f2f2f2"/><path d="M28,16H27V4a4,4,0,0,0-4-4H8a1,1,0,0,0-.707.293l-6,6A1,1,0,0,0,1,7V28a4,4,0,0,0,4,4H23a4,4,0,0,0,4-4V25h1a3,3,0,0,0,3-3V19A3,3,0,0,0,28,16ZM25,28a2,2,0,0,1-2,2H5a2,2,0,0,1-2-2V7.414L8.414,2H23a2,2,0,0,1,2,2V16H10a3,3,0,0,0-3,3v3a3,3,0,0,0,3,3H25Zm4-6a1,1,0,0,1-1,1H25V21a1,1,0,0,0-2,0v2H20V21a1,1,0,0,0-2,0v2H15V21a1,1,0,0,0-2,0v2H10a1,1,0,0,1-1-1V19a1,1,0,0,1,1-1H28a1,1,0,0,1,1,1Z" style="fill:#6f7a7b"/></g></svg>