<svg xmlns="http://www.w3.org/2000/svg" viewBox="0 0 32 32"><title>42-Folder</title><g id="_42-Folder" data-name="42-Folder"><path d="M31,10V27a4,4,0,0,1-4,4H5a4,4,0,0,1-4-4V10A4,4,0,0,1,5,6H4V3A1.959,1.959,0,0,1,6,1H18l5,5h4A4,4,0,0,1,31,10Z" style="fill:#c1c5c8"/><path d="M18,1H6A1.959,1.959,0,0,0,4,3V6H23Z" style="fill:#f2f2f2"/><path d="M27,5H23.414L18.707.293A1,1,0,0,0,18,0H6A2.916,2.916,0,0,0,3,3V5.418A5,5,0,0,0,0,10V27a5.006,5.006,0,0,0,5,5H27a5.006,5.006,0,0,0,5-5V10A5.006,5.006,0,0,0,27,5Zm3,22a3,3,0,0,1-3,3H5a3,3,0,0,1-3-3V10A3,3,0,0,1,5,7H17a1,1,0,0,0,0-2H5V3.012A.918.918,0,0,1,6,2H17.586l4.707,4.707A1,1,0,0,0,23,7h4a3,3,0,0,1,3,3Z" style="fill:#6f7a7b"/><path d="M22,12H10a1,1,0,0,0-1,1v2a1,1,0,0,0,2,0V14h4V25a1,1,0,0,0,2,0V14h4v1a1,1,0,0,0,2,0V13A1,1,0,0,0,22,12Z" style="fill:#6f7a7b"/></g></svg>