<svg xmlns="http://www.w3.org/2000/svg" viewBox="0 0 32 32"><title>44-Color</title><g id="_44-Color" data-name="44-Color"><path d="M25,17h2a4,4,0,0,1,4,4v6a4,4,0,0,1-4,4H23V19Z" style="fill:#f2f2f2"/><path d="M23,19V31H11a4,4,0,0,0,4-4l6.71-6.71Z" style="fill:#c1c5c8"/><path d="M29,7a4.431,4.431,0,0,1,0,6l-2.34,2.34-.05-.05-9.9-9.9-.05-.05L19,3a4.431,4.431,0,0,1,6,0Z" style="fill:#f2f2f2"/><polygon points="26.61 15.29 26.66 15.34 25 17 23 19 21.71 20.29 21.66 20.24 15 13.59 15 8 15 7 16.66 5.34 16.71 5.39 26.61 15.29" style="fill:#c1c5c8"/><polygon points="21.71 20.29 15 27 15 22 15 15 15 13.59 21.66 20.24 21.71 20.29" style="fill:#f2f2f2"/><polygon points="15 13.59 15 15 1 15 1 8 15 8 15 13.59" style="fill:#f2f2f2"/><path d="M15,7V8H1V5A4,4,0,0,1,5,1h6a4,4,0,0,1,4,4Z" style="fill:#c1c5c8"/><polygon points="15 15 15 22 1 22 1 21 1 15 15 15" style="fill:#c1c5c8"/><path d="M8,25a1,1,0,1,0,1,1A1,1,0,0,0,8,25ZM1,22H15v5a4,4,0,0,1-4,4H5a4,4,0,0,1-4-4Z" style="fill:#f2f2f2"/><circle cx="8" cy="26" r="1" style="fill:#6f7a7b"/><path d="M27.376,16.038l2.331-2.331A5.248,5.248,0,0,0,31.17,10a5.248,5.248,0,0,0-1.463-3.707l-4-4a5.452,5.452,0,0,0-7.414,0L15.962,4.624A4.991,4.991,0,0,0,11,0H5A5.006,5.006,0,0,0,0,5V27a5.006,5.006,0,0,0,5,5H27a5.006,5.006,0,0,0,5-5V21A4.991,4.991,0,0,0,27.376,16.038ZM16,16l4.3,4.289L16,24.586Zm-2-2H2V9H14ZM2,16H14v5H2ZM15.953,27.461,22,21.414V30H14.974A4.941,4.941,0,0,0,15.953,27.461Zm6.341-9.169,0,0-.582.582L16,13.175V7.414l.66-.66,8.586,8.586-.952.952,0,0ZM19.707,3.707a3.418,3.418,0,0,1,4.586,0l4,4A3.241,3.241,0,0,1,29.17,10a3.239,3.239,0,0,1-.877,2.293L26.66,13.926,18.074,5.34ZM5,2h6a3,3,0,0,1,3,3V7H2V5A3,3,0,0,1,5,2ZM2,27V23H14v4a3,3,0,0,1-3,3H5A3,3,0,0,1,2,27Zm28,0a3,3,0,0,1-3,3H24V19.414L25.414,18H27a3,3,0,0,1,3,3Z" style="fill:#6f7a7b"/></g></svg>