<svg xmlns="http://www.w3.org/2000/svg" viewBox="0 0 32 32"><title>45-Marker</title><g id="_45-Marker" data-name="45-Marker"><path d="M6,4V14h4V4ZM2,1H14V18H2Z" style="fill:#c1c5c8"/><polygon points="10 25 10 31 8 31 6 29 6 25 10 25" style="fill:#c1c5c8"/><polygon points="14 18 10 25 6 25 2 18 10 18 14 18" style="fill:#f2f2f2"/><rect x="6" y="4" width="4" height="10" style="fill:#f2f2f2"/><path d="M14.868,18.5A.993.993,0,0,0,15,18V1a1,1,0,0,0-2,0V17.734L9.42,24H6.58L3.723,19H10a1,1,0,0,0,0-2H3V1A1,1,0,0,0,1,1V18a1.014,1.014,0,0,0,.069.344c.011.028.021.054.034.081s.016.049.029.071L5,25.265V29a1,1,0,0,0,.293.707l2,2A1,1,0,0,0,8,32h2a1,1,0,0,0,1-1V25.265ZM8.414,30,7,28.586V26H9v4Z" style="fill:#6f7a7b"/><path d="M6,15h4a1,1,0,0,0,1-1V4a1,1,0,0,0-1-1H6A1,1,0,0,0,5,4V14A1,1,0,0,0,6,15ZM7,5H9v8H7Z" style="fill:#6f7a7b"/><path d="M27,26H25.834l-1.85-10.179A1,1,0,0,0,23,15H19a1,1,0,0,0-.975.775L15.131,28.316l-1.578.789a1,1,0,0,0,.894,1.79l2-1a1,1,0,0,0,.528-.67L18.411,23h4.845l.76,4.179A1,1,0,0,0,25,28h2a1,1,0,0,0,0-2Zm-8.128-5,.923-4h2.371l.727,4Z" style="fill:#6f7a7b"/><circle cx="30" cy="27" r="1" style="fill:#6f7a7b"/></g></svg>