<svg xmlns="http://www.w3.org/2000/svg" viewBox="0 0 32 32"><title>46-Area</title><g id="_46-Area" data-name="46-Area"><rect x="1" y="2" width="30" height="28" rx="3" style="fill:#f2f2f2"/><path d="M31,5a3,3,0,0,0-3-3H4A3,3,0,0,0,1,5V9H31Z" style="fill:#c1c5c8"/><path d="M28,1H4A4,4,0,0,0,0,5V27a4,4,0,0,0,4,4H28a4,4,0,0,0,4-4V5A4,4,0,0,0,28,1Zm2,26a2,2,0,0,1-2,2H4a2,2,0,0,1-2-2V5A2,2,0,0,1,4,3H28a2,2,0,0,1,2,2Z" style="fill:#6f7a7b"/><circle cx="5" cy="6" r="1" style="fill:#6f7a7b"/><circle cx="9" cy="6" r="1" style="fill:#6f7a7b"/><circle cx="27" cy="6" r="1" style="fill:#6f7a7b"/><path d="M23,8H21a1,1,0,0,0,0,2h.586L9,22.586V22a1,1,0,0,0-2,0v2a1.959,1.959,0,0,0,2,2h2a1,1,0,0,0,0-2h-.586L23,11.414V12a1,1,0,0,0,2,0V10A1.959,1.959,0,0,0,23,8Z" style="fill:#6f7a7b"/></g></svg>