<svg xmlns="http://www.w3.org/2000/svg" viewBox="0 0 32 32"><title>48-Vector Graphic</title><g id="_48-Vector_Graphic" data-name="48-Vector Graphic"><rect x="25" y="25" width="6" height="6" rx="2" style="fill:#f2f2f2"/><path d="M7,27v2a2.006,2.006,0,0,1-2,2H3a2.006,2.006,0,0,1-2-2V27a2.006,2.006,0,0,1,2-2H5A2.006,2.006,0,0,1,7,27Z" style="fill:#c1c5c8"/><path d="M7,16v1a2.006,2.006,0,0,1-2,2H3a2.006,2.006,0,0,1-2-2V15a2.006,2.006,0,0,1,2-2H5a2.006,2.006,0,0,1,2,2Z" style="fill:#c1c5c8"/><path d="M19,16v1a2.006,2.006,0,0,1-2,2H15a2.006,2.006,0,0,1-2-2V15a2.006,2.006,0,0,1,2-2h2a2.006,2.006,0,0,1,2,2Z" style="fill:#c1c5c8"/><path d="M31,15v2a2.006,2.006,0,0,1-2,2H27a2.006,2.006,0,0,1-2-2V15a2.006,2.006,0,0,1,2-2h2A2.006,2.006,0,0,1,31,15Z" style="fill:#c1c5c8"/><path d="M31,3V5a2.006,2.006,0,0,1-2,2H27a2.006,2.006,0,0,1-2-2V3a2.006,2.006,0,0,1,2-2h2A2.006,2.006,0,0,1,31,3Z" style="fill:#c1c5c8"/><rect x="1" y="1" width="6" height="6" rx="2" style="fill:#f2f2f2"/><circle cx="20" cy="4" r="1" style="fill:#6f7a7b"/><circle cx="20" cy="28" r="1" style="fill:#6f7a7b"/><circle cx="16" cy="4" r="1" style="fill:#6f7a7b"/><circle cx="16" cy="28" r="1" style="fill:#6f7a7b"/><circle cx="12" cy="4" r="1" style="fill:#6f7a7b"/><circle cx="12" cy="28" r="1" style="fill:#6f7a7b"/><path d="M3,8H5A3,3,0,0,0,8,5V3A3,3,0,0,0,5,0H3A3,3,0,0,0,0,3V5A3,3,0,0,0,3,8ZM2,3A1,1,0,0,1,3,2H5A1,1,0,0,1,6,3V5A1,1,0,0,1,5,6H3A1,1,0,0,1,2,5Z" style="fill:#6f7a7b"/><path d="M32,5V3a3,3,0,0,0-3-3H27a3,3,0,0,0-3,3V5a3,3,0,0,0,3,3v4a3,3,0,0,0-3,3H20a3,3,0,0,0-3-3H15a3,3,0,0,0-3,3H8a3,3,0,0,0-3-3H3a3,3,0,0,0-3,3v2a3,3,0,0,0,3,3v4a3,3,0,0,0-3,3v2a3,3,0,0,0,3,3H5a3,3,0,0,0,3-3V27a3,3,0,0,0-3-3V20a3,3,0,0,0,3-3h4a3,3,0,0,0,3,3h2a3,3,0,0,0,3-3h4a3,3,0,0,0,3,3h2a3,3,0,0,0,3-3V15a3,3,0,0,0-3-3V8A3,3,0,0,0,32,5ZM6,27v2a1,1,0,0,1-1,1H3a1,1,0,0,1-1-1V27a1,1,0,0,1,1-1H5A1,1,0,0,1,6,27ZM6,17a1,1,0,0,1-1,1H3a1,1,0,0,1-1-1V15a1,1,0,0,1,1-1H5a1,1,0,0,1,1,1Zm12,0a1,1,0,0,1-1,1H15a1,1,0,0,1-1-1V15a1,1,0,0,1,1-1h2a1,1,0,0,1,1,1Zm12-2v2a1,1,0,0,1-1,1H27a1,1,0,0,1-1-1V15a1,1,0,0,1,1-1h2A1,1,0,0,1,30,15ZM26,5V3a1,1,0,0,1,1-1h2a1,1,0,0,1,1,1V5a1,1,0,0,1-1,1H27A1,1,0,0,1,26,5Z" style="fill:#6f7a7b"/><path d="M29,24H27a3,3,0,0,0-3,3v2a3,3,0,0,0,3,3h2a3,3,0,0,0,3-3V27A3,3,0,0,0,29,24Zm1,5a1,1,0,0,1-1,1H27a1,1,0,0,1-1-1V27a1,1,0,0,1,1-1h2a1,1,0,0,1,1,1Z" style="fill:#6f7a7b"/></g></svg>