<svg xmlns="http://www.w3.org/2000/svg" viewBox="0 0 32 32"><title>50-Editor</title><g id="_50-Editor" data-name="50-Editor"><rect x="2" y="17" width="13" height="14" rx="3" style="fill:#c1c5c8"/><circle cx="30" cy="1" r="1" style="fill:#6f7a7b"/><circle cx="30" cy="5" r="1" style="fill:#6f7a7b"/><circle cx="30" cy="9" r="1" style="fill:#6f7a7b"/><circle cx="30" cy="13" r="1" style="fill:#6f7a7b"/><circle cx="30" cy="17" r="1" style="fill:#6f7a7b"/><circle cx="30" cy="21" r="1" style="fill:#6f7a7b"/><circle cx="30" cy="25" r="1" style="fill:#6f7a7b"/><circle cx="30" cy="29" r="1" style="fill:#6f7a7b"/><circle cx="26" cy="1" r="1" style="fill:#6f7a7b"/><circle cx="26" cy="29" r="1" style="fill:#6f7a7b"/><circle cx="22" cy="1" r="1" style="fill:#6f7a7b"/><circle cx="22" cy="29" r="1" style="fill:#6f7a7b"/><circle cx="18" cy="1" r="1" style="fill:#6f7a7b"/><circle cx="18" cy="29" r="1" style="fill:#6f7a7b"/><circle cx="14" cy="1" r="1" style="fill:#6f7a7b"/><circle cx="10" cy="1" r="1" style="fill:#6f7a7b"/><circle cx="6" cy="1" r="1" style="fill:#6f7a7b"/><circle cx="2" cy="1" r="1" style="fill:#6f7a7b"/><circle cx="2" cy="5" r="1" style="fill:#6f7a7b"/><circle cx="2" cy="9" r="1" style="fill:#6f7a7b"/><circle cx="2" cy="13" r="1" style="fill:#6f7a7b"/><path d="M12,16H5a4,4,0,0,0-4,4v8a4,4,0,0,0,4,4h7a4,4,0,0,0,4-4V20A4,4,0,0,0,12,16Zm2,12a2,2,0,0,1-2,2H5a2,2,0,0,1-2-2V20a2,2,0,0,1,2-2h7a2,2,0,0,1,2,2Z" style="fill:#6f7a7b"/><path d="M26,9V7a1.959,1.959,0,0,0-2-2H22a1,1,0,0,0,0,2h.586L18,11.586V11a1,1,0,0,0-2,0v2a1.959,1.959,0,0,0,2,2h2a1,1,0,0,0,0-2h-.586L24,8.414V9a1,1,0,0,0,2,0Z" style="fill:#6f7a7b"/></g></svg>