<svg xmlns="http://www.w3.org/2000/svg" viewBox="0 0 32 32"><title>58-Text Edit</title><g id="_58-Text_Edit" data-name="58-Text Edit"><rect x="1" y="6" width="30" height="20" rx="5" style="fill:#c1c5c8"/><path d="M26,5H6a6.006,6.006,0,0,0-6,6V21a6.006,6.006,0,0,0,6,6H26a6.006,6.006,0,0,0,6-6V11A6.006,6.006,0,0,0,26,5Zm4,16a4,4,0,0,1-4,4H6a4,4,0,0,1-4-4V11A4,4,0,0,1,6,7H26a4,4,0,0,1,4,4Z" style="fill:#6f7a7b"/><path d="M11.01,11A1,1,0,0,0,11,9a3.229,3.229,0,0,0-2,.721A3.229,3.229,0,0,0,7,9a.994.994,0,0,0-.993.987A1.006,1.006,0,0,0,6.988,11,.918.918,0,0,1,8,12v8a.918.918,0,0,1-1.01,1A1,1,0,0,0,7,23a3.229,3.229,0,0,0,2-.721A3.229,3.229,0,0,0,11,23a.994.994,0,0,0,.993-.987A1.006,1.006,0,0,0,11.012,21,.918.918,0,0,1,10,20V12A.918.918,0,0,1,11.01,11Z" style="fill:#6f7a7b"/><circle cx="16" cy="22" r="1" style="fill:#6f7a7b"/><circle cx="20" cy="22" r="1" style="fill:#6f7a7b"/><circle cx="24" cy="22" r="1" style="fill:#6f7a7b"/></g></svg>