<svg xmlns="http://www.w3.org/2000/svg" viewBox="0 0 32 32"><title>7-Graphic File</title><g id="_7-Graphic_File" data-name="7-Graphic File"><path d="M28,4V28a3,3,0,0,1-3,3H7a3,3,0,0,1-3-3V7l6-6H25A3,3,0,0,1,28,4Z" style="fill:#f2f2f2"/><path d="M18,22v3a.979.979,0,0,1-1,1H15a.979.979,0,0,1-1-1V22Z" style="fill:#f2f2f2"/><path d="M16,8l5,6s-3,3-3,6v2H14V20c0-3-3-6-3-6Z" style="fill:#c1c5c8"/><path d="M25,0H10a1,1,0,0,0-.707.293l-6,6A1,1,0,0,0,3,7V28a4,4,0,0,0,4,4H25a4,4,0,0,0,4-4V4A4,4,0,0,0,25,0Zm2,28a2,2,0,0,1-2,2H7a2,2,0,0,1-2-2V7.414L10.414,2H25a2,2,0,0,1,2,2Z" style="fill:#6f7a7b"/><path d="M16.768,7.36c-.009-.011-.022-.014-.031-.024a.976.976,0,0,0-1.474,0c-.009.01-.022.013-.031.024l-5,6a1,1,0,0,0,.06,1.346C10.319,14.733,13,17.458,13,20v5a1.959,1.959,0,0,0,2,2h2a1.959,1.959,0,0,0,2-2V20c0-2.542,2.681-5.267,2.708-5.294a1,1,0,0,0,.06-1.346ZM15,25V23h2v2Zm2-5v1H15V20c0-2.493-1.723-4.888-2.678-6.025L15,10.762V13a1,1,0,0,0,2,0V10.762l2.678,3.213C18.723,15.112,17,17.507,17,20Z" style="fill:#6f7a7b"/></g></svg>