<?xml version="1.0" encoding="UTF-8"?><svg xmlns="http://www.w3.org/2000/svg" viewBox="0 0 24 24"><g id="a"/><g id="b"/><g id="c"/><g id="d"/><g id="e"/><g id="f"/><g id="g"/><g id="h"/><g id="i"/><g id="j"/><g id="k"/><g id="l"/><g id="m"/><g id="n"/><g id="o"><g><path d="M12.75,12.33v-.82l.5-.2V2.25h-2.5V11.31l.5,.2v.82c-2.26,.36-4,2.31-4,4.67,0,2.62,2.13,4.75,4.75,4.75s4.75-2.13,4.75-4.75c0-2.36-1.74-4.31-4-4.67Z"/><path d="M9.25,10.71V2.25h-1.25c-.96,0-1.75,.79-1.75,1.75v3.65c0,1.13,.68,2.13,1.73,2.55l1.27,.51Z"/><path d="M16,2.25h-1.25V10.71l1.27-.51c1.05-.42,1.73-1.42,1.73-2.55v-3.65c0-.96-.79-1.75-1.75-1.75Z"/></g></g><g id="p"/><g id="q"/><g id="r"/><g id="s"/><g id="t"/><g id="u"/></svg>