<?xml version="1.0" encoding="UTF-8"?><svg xmlns="http://www.w3.org/2000/svg" viewBox="0 0 24 24"><g id="a"/><g id="b"/><g id="c"/><g id="d"/><g id="e"/><g id="f"/><g id="g"/><g id="h"/><g id="i"/><g id="j"/><g id="k"/><g id="l"/><g id="m"><g><path d="M2.25,19c0,.41,.34,.75,.75,.75H21c.41,0,.75-.34,.75-.75v-2.25H2.25v2.25Z"/><path d="M20,11.25h-2.75v4h4.5v-2.25c0-.96-.79-1.75-1.75-1.75Z"/><path d="M15.75,7c0-.96-.79-1.75-1.75-1.75h-4c-.96,0-1.75,.79-1.75,1.75V15.25h7.5V7Z"/><path d="M6.75,9.25h-2.75c-.96,0-1.75,.79-1.75,1.75v4.25H6.75v-6Z"/></g></g><g id="n"/><g id="o"/><g id="p"/><g id="q"/><g id="r"/><g id="s"/><g id="t"/><g id="u"/></svg>