<svg xmlns="http://www.w3.org/2000/svg" viewBox="0 0 32 32"><title>10-Trash</title><g id="_10-Trash" data-name="10-Trash"><path d="M22,31H10a4,4,0,0,1-4-4V10A1.959,1.959,0,0,1,8,8H24a1.959,1.959,0,0,1,2,2V27A4,4,0,0,1,22,31Zm-6-3a1,1,0,1,0-1-1A1,1,0,0,0,16,28Z" style="fill:#f2f2f2"/><path d="M8,8a1.959,1.959,0,0,0-2,2V27a4,4,0,0,0,4,4h1V8Z" style="fill:#c1c5c8"/><path d="M16,8V26a1,1,0,0,1,0,2v3h5V8Z" style="fill:#c1c5c8"/><path d="M26,10V27a4,4,0,0,1-4,4H10a4,4,0,0,1-4-4V10A1.959,1.959,0,0,1,8,8H24A1.959,1.959,0,0,1,26,10Z" style="fill:none;stroke:#6f7a7b;stroke-linecap:round;stroke-linejoin:round;stroke-width:2px"/><line x1="16" y1="12" x2="16" y2="23" style="fill:none;stroke:#6f7a7b;stroke-linecap:round;stroke-linejoin:round;stroke-width:2px"/><polyline points="6 4 16 4 26 4" style="fill:none;stroke:#6f7a7b;stroke-linecap:round;stroke-linejoin:round;stroke-width:2px"/><line x1="16" y1="4" x2="16" y2="1" style="fill:none;stroke:#6f7a7b;stroke-linecap:round;stroke-linejoin:round;stroke-width:2px"/><line x1="21" y1="27" x2="21" y2="12" style="fill:none;stroke:#6f7a7b;stroke-linecap:round;stroke-linejoin:round;stroke-width:2px"/><line x1="11" y1="27" x2="11" y2="12" style="fill:none;stroke:#6f7a7b;stroke-linecap:round;stroke-linejoin:round;stroke-width:2px"/><circle cx="16" cy="27" r="1" style="fill:#6f7a7b"/></g></svg>