<svg xmlns="http://www.w3.org/2000/svg" viewBox="0 0 32 32"><title>18-File</title><g id="_18-File" data-name="18-File"><path d="M28,4V28a3,3,0,0,1-3,3H7a3,3,0,0,1-3-3V7l6-6H25A3,3,0,0,1,28,4Z" style="fill:#c1c5c8"/><path d="M25,1H10L4,7V28a3,3,0,0,0,3,3H25a3,3,0,0,0,3-3V4A3,3,0,0,0,25,1Z" style="fill:none;stroke:#6f7a7b;stroke-linecap:round;stroke-linejoin:round;stroke-width:2px"/><path d="M21,16v7H13a1.959,1.959,0,0,1-2-2V14h8A1.959,1.959,0,0,1,21,16Z" style="fill:#f2f2f2"/><path d="M8,14H19a1.959,1.959,0,0,1,2,2V26" style="fill:none;stroke:#6f7a7b;stroke-linecap:round;stroke-linejoin:round;stroke-width:2px"/><path d="M24,23H13a1.959,1.959,0,0,1-2-2V11" style="fill:none;stroke:#6f7a7b;stroke-linecap:round;stroke-linejoin:round;stroke-width:2px"/></g></svg>