<svg xmlns="http://www.w3.org/2000/svg" viewBox="0 0 32 32"><title>19-Pencil</title><g id="_19-Pencil" data-name="19-Pencil"><polygon points="15 1 20 7 15 8 10 7 15 1" style="fill:#f2f2f2"/><path d="M20,23v4a4,4,0,0,1-4,4H14a4,4,0,0,1-4-4V23a7.651,7.651,0,0,0,5,2A7.651,7.651,0,0,0,20,23Z" style="fill:#f2f2f2"/><path d="M20,7V23a7.651,7.651,0,0,1-5,2V8Z" style="fill:#c1c5c8"/><path d="M15,8V25a7.651,7.651,0,0,1-5-2V7Z" style="fill:#c1c5c8"/><path d="M20,7V27a4,4,0,0,1-4,4H14a4,4,0,0,1-4-4V7l5-6Z" style="fill:none;stroke:#6f7a7b;stroke-linecap:round;stroke-linejoin:round;stroke-width:2px"/><path d="M10,23a7.651,7.651,0,0,0,5,2,7.651,7.651,0,0,0,5-2" style="fill:none;stroke:#6f7a7b;stroke-linecap:round;stroke-linejoin:round;stroke-width:2px"/><polyline points="10 7 15 8 20 7" style="fill:none;stroke:#6f7a7b;stroke-linecap:round;stroke-linejoin:round;stroke-width:2px"/><line x1="15" y1="8" x2="15" y2="25" style="fill:none;stroke:#6f7a7b;stroke-linecap:round;stroke-linejoin:round;stroke-width:2px"/></g></svg>