<svg xmlns="http://www.w3.org/2000/svg" viewBox="0 0 32 32"><title>2-Pencil and Ruler</title><g id="_2-Pencil_and_Ruler" data-name="2-Pencil and Ruler"><path d="M18,3V6H14V3a2,2,0,0,1,4,0Z" style="fill:#c1c5c8"/><polygon points="18 24 18 27 16 31 14 27 14 24 14 16 14 6 18 6 18 16 18 24" style="fill:#f2f2f2"/><path d="M24,16h5a2.006,2.006,0,0,1,2,2v4a2.006,2.006,0,0,1-2,2H18V16Z" style="fill:#c1c5c8"/><path d="M8,16h6v8H3a2.006,2.006,0,0,1-2-2V18a2.006,2.006,0,0,1,2-2Z" style="fill:#c1c5c8"/><path d="M18,24v3l-2,4-2-4V3a2,2,0,0,1,4,0V24Z" style="fill:none;stroke:#6f7a7b;stroke-linecap:round;stroke-linejoin:round;stroke-width:2px"/><line x1="18" y1="6" x2="14" y2="6" style="fill:none;stroke:#6f7a7b;stroke-linecap:round;stroke-linejoin:round;stroke-width:2px"/><path d="M18,16H29a2.006,2.006,0,0,1,2,2v4a2.006,2.006,0,0,1-2,2H18" style="fill:none;stroke:#6f7a7b;stroke-linecap:round;stroke-linejoin:round;stroke-width:2px"/><path d="M13,16H3a2.006,2.006,0,0,0-2,2v4a2.006,2.006,0,0,0,2,2H14" style="fill:none;stroke:#6f7a7b;stroke-linecap:round;stroke-linejoin:round;stroke-width:2px"/><line x1="24" y1="16" x2="24" y2="20" style="fill:none;stroke:#6f7a7b;stroke-linecap:round;stroke-linejoin:round;stroke-width:2px"/><line x1="8" y1="16" x2="8" y2="20" style="fill:none;stroke:#6f7a7b;stroke-linecap:round;stroke-linejoin:round;stroke-width:2px"/></g></svg>