<svg xmlns="http://www.w3.org/2000/svg" viewBox="0 0 32 32"><title>22-Text Edit</title><g id="_22-Text_Edit" data-name="22-Text Edit"><rect x="25" y="1" width="6" height="6" rx="2" style="fill:#c1c5c8"/><rect x="1" y="25" width="6" height="6" rx="2" style="fill:#c1c5c8"/><rect x="25" y="25" width="6" height="6" rx="2" style="fill:#f2f2f2"/><rect x="1" y="1" width="6" height="6" rx="2" style="fill:#f2f2f2"/><circle cx="28" cy="12" r="1" style="fill:#6f7a7b"/><circle cx="28" cy="16" r="1" style="fill:#6f7a7b"/><circle cx="28" cy="20" r="1" style="fill:#6f7a7b"/><circle cx="20" cy="4" r="1" style="fill:#6f7a7b"/><circle cx="20" cy="29" r="1" style="fill:#6f7a7b"/><circle cx="16" cy="4" r="1" style="fill:#6f7a7b"/><circle cx="16" cy="29" r="1" style="fill:#6f7a7b"/><circle cx="12" cy="4" r="1" style="fill:#6f7a7b"/><circle cx="12" cy="29" r="1" style="fill:#6f7a7b"/><circle cx="4" cy="12" r="1" style="fill:#6f7a7b"/><circle cx="4" cy="16" r="1" style="fill:#6f7a7b"/><circle cx="4" cy="20" r="1" style="fill:#6f7a7b"/><rect x="1" y="1" width="6" height="6" rx="2" style="fill:none;stroke:#6f7a7b;stroke-linecap:round;stroke-linejoin:round;stroke-width:2px"/><rect x="25" y="1" width="6" height="6" rx="2" style="fill:none;stroke:#6f7a7b;stroke-linecap:round;stroke-linejoin:round;stroke-width:2px"/><rect x="25" y="25" width="6" height="6" rx="2" style="fill:none;stroke:#6f7a7b;stroke-linecap:round;stroke-linejoin:round;stroke-width:2px"/><rect x="1" y="25" width="6" height="6" rx="2" style="fill:none;stroke:#6f7a7b;stroke-linecap:round;stroke-linejoin:round;stroke-width:2px"/><polyline points="10 13 10 11 16 11 22 11 22 13" style="fill:none;stroke:#6f7a7b;stroke-linecap:round;stroke-linejoin:round;stroke-width:2px"/><line x1="16" y1="11" x2="16" y2="23" style="fill:none;stroke:#6f7a7b;stroke-linecap:round;stroke-linejoin:round;stroke-width:2px"/></g></svg>