<svg xmlns="http://www.w3.org/2000/svg" viewBox="0 0 32 32"><title>23-Spray</title><g id="_23-Spray" data-name="23-Spray"><path d="M13,4V8H9V2a1,1,0,0,1,1-1h2a1,1,0,0,1,1,1Z" style="fill:#f2f2f2"/><polygon points="19 24 19 26 3 26 3 24 3 15 19 15 19 24" style="fill:#f2f2f2"/><polygon points="19 26 19 30 18 31 4 31 3 30 3 26 19 26" style="fill:#c1c5c8"/><path d="M19,14v1H3V14A6,6,0,0,1,9,8h4A6,6,0,0,1,19,14Z" style="fill:#c1c5c8"/><circle cx="29" cy="4" r="1" style="fill:#6f7a7b"/><circle cx="29" cy="8" r="1" style="fill:#6f7a7b"/><circle cx="29" cy="12" r="1" style="fill:#6f7a7b"/><circle cx="25" cy="2" r="1" style="fill:#6f7a7b"/><circle cx="25" cy="6" r="1" style="fill:#6f7a7b"/><circle cx="25" cy="10" r="1" style="fill:#6f7a7b"/><circle cx="25" cy="14" r="1" style="fill:#6f7a7b"/><circle cx="21" cy="4" r="1" style="fill:#6f7a7b"/><circle cx="21" cy="8" r="1" style="fill:#6f7a7b"/><path d="M19,26V14a6,6,0,0,0-6-6H9a6,6,0,0,0-6,6V30l1,1H18l1-1Z" style="fill:none;stroke:#6f7a7b;stroke-linecap:round;stroke-linejoin:round;stroke-width:2px"/><path d="M13,8V2a1,1,0,0,0-1-1H10A1,1,0,0,0,9,2V8" style="fill:none;stroke:#6f7a7b;stroke-linecap:round;stroke-linejoin:round;stroke-width:2px"/><line x1="13" y1="4" x2="17" y2="4" style="fill:none;stroke:#6f7a7b;stroke-linecap:round;stroke-linejoin:round;stroke-width:2px"/><line x1="3" y1="15" x2="19" y2="15" style="fill:none;stroke:#6f7a7b;stroke-linecap:round;stroke-linejoin:round;stroke-width:2px"/><line x1="3" y1="26" x2="19" y2="26" style="fill:none;stroke:#6f7a7b;stroke-linecap:round;stroke-linejoin:round;stroke-width:2px"/></g></svg>