<svg xmlns="http://www.w3.org/2000/svg" viewBox="0 0 32 32"><title>25-Pen</title><g id="_25-Pen" data-name="25-Pen"><path d="M16,20a1,1,0,1,0-1-1A1,1,0,0,0,16,20Zm0,11L11,21a4.11,4.11,0,0,1,1-5l1-3h6l1,3a4.11,4.11,0,0,1,1,5Z" style="fill:#c1c5c8"/><rect x="13" y="9" width="6" height="4" style="fill:#f2f2f2"/><rect x="13" y="1" width="6" height="8" style="fill:#c1c5c8"/><path d="M16,31,11,21a4.11,4.11,0,0,1,1-5l1-3h6l1,3a4.11,4.11,0,0,1,1,5L16,31V22" style="fill:none;stroke:#6f7a7b;stroke-linecap:round;stroke-linejoin:round;stroke-width:2px"/><polyline points="19 1 19 13 13 13 13 1" style="fill:none;stroke:#6f7a7b;stroke-linecap:round;stroke-linejoin:round;stroke-width:2px"/><circle cx="16" cy="19" r="1" style="fill:#6f7a7b"/><line x1="19" y1="9" x2="13" y2="9" style="fill:none;stroke:#6f7a7b;stroke-linecap:round;stroke-linejoin:round;stroke-width:2px"/><rect x="25" y="25" width="6" height="6" rx="2" style="fill:#f2f2f2"/><rect x="1" y="25" width="6" height="6" rx="2" style="fill:#f2f2f2"/><rect x="25" y="25" width="6" height="6" rx="2" style="fill:none;stroke:#6f7a7b;stroke-linecap:round;stroke-linejoin:round;stroke-width:2px"/><rect x="1" y="25" width="6" height="6" rx="2" style="fill:none;stroke:#6f7a7b;stroke-linecap:round;stroke-linejoin:round;stroke-width:2px"/><line x1="7" y1="28" x2="10" y2="28" style="fill:none;stroke:#6f7a7b;stroke-linecap:round;stroke-linejoin:round;stroke-width:2px"/><line x1="22" y1="28" x2="25" y2="28" style="fill:none;stroke:#6f7a7b;stroke-linecap:round;stroke-linejoin:round;stroke-width:2px"/></g></svg>