<svg xmlns="http://www.w3.org/2000/svg" viewBox="0 0 32 32"><title>27-File</title><g id="_27-File" data-name="27-File"><path d="M28,4V28a3,3,0,0,1-3,3H7a3,3,0,0,1-3-3V7l6-6H25A3,3,0,0,1,28,4Z" style="fill:#c1c5c8"/><path d="M18,16a4,4,0,1,1-4,4h2a2.006,2.006,0,0,0,2-2Z" style="fill:#f2f2f2"/><path d="M18,16v2a2.006,2.006,0,0,1-2,2H14A4,4,0,0,1,18,16Z" style="fill:#f2f2f2"/><path d="M18,14v2a4,4,0,0,0-4,4H12a2.006,2.006,0,0,1-2-2V14a2.006,2.006,0,0,1,2-2h4A2.006,2.006,0,0,1,18,14Z" style="fill:#f2f2f2"/><path d="M25,1H10L4,7V28a3,3,0,0,0,3,3H25a3,3,0,0,0,3-3V4A3,3,0,0,0,25,1Z" style="fill:none;stroke:#6f7a7b;stroke-linecap:round;stroke-linejoin:round;stroke-width:2px"/><rect x="10" y="12" width="8" height="8" rx="2" style="fill:none;stroke:#6f7a7b;stroke-linecap:round;stroke-linejoin:round;stroke-width:2px"/><circle cx="18" cy="20" r="4" style="fill:none;stroke:#6f7a7b;stroke-linecap:round;stroke-linejoin:round;stroke-width:2px"/></g></svg>