<svg xmlns="http://www.w3.org/2000/svg" viewBox="0 0 32 32"><title>28-File</title><g id="_28-File" data-name="28-File"><path d="M28,7V28a3,3,0,0,1-3,3H7a3,3,0,0,1-3-3V11l6-7h3V18l4-4,4,4V4h4A3,3,0,0,1,28,7Z" style="fill:#c1c5c8"/><polygon points="21 4 21 13 21 18 17 14 13 18 13 13 13 4 13 1 21 1 21 4" style="fill:#f2f2f2"/><polygon points="13 4 13 1 21 1 21 4 21 13 21 18 17 14 13 18 13 13 13 4" style="fill:none;stroke:#6f7a7b;stroke-linecap:round;stroke-linejoin:round;stroke-width:2px"/><path d="M13,4H10L4,11V28a3,3,0,0,0,3,3H25a3,3,0,0,0,3-3V7a3,3,0,0,0-3-3H21" style="fill:none;stroke:#6f7a7b;stroke-linecap:round;stroke-linejoin:round;stroke-width:2px"/></g></svg>