<svg xmlns="http://www.w3.org/2000/svg" viewBox="0 0 32 32"><title>31-Layout</title><g id="_31-Layout" data-name="31-Layout"><path d="M28,19v9a3,3,0,0,1-3,3H12V19Z" style="fill:#f2f2f2"/><rect x="12" y="9" width="16" height="10" style="fill:#c1c5c8"/><path d="M12,19V31H7a3,3,0,0,1-3-3V9h8Z" style="fill:#c1c5c8"/><path d="M28,4V9H4V4A3,3,0,0,1,7,1H25A3,3,0,0,1,28,4Z" style="fill:#f2f2f2"/><path d="M4,9V28a3,3,0,0,0,3,3H25a3,3,0,0,0,3-3V4a3,3,0,0,0-3-3H7A3,3,0,0,0,4,4Z" style="fill:none;stroke:#6f7a7b;stroke-linecap:round;stroke-linejoin:round;stroke-width:2px"/><polyline points="4 9 12 9 28 9" style="fill:none;stroke:#6f7a7b;stroke-linecap:round;stroke-linejoin:round;stroke-width:2px"/><polyline points="12 9 12 19 12 31" style="fill:none;stroke:#6f7a7b;stroke-linecap:round;stroke-linejoin:round;stroke-width:2px"/><line x1="12" y1="19" x2="28" y2="19" style="fill:none;stroke:#6f7a7b;stroke-linecap:round;stroke-linejoin:round;stroke-width:2px"/></g></svg>