<svg xmlns="http://www.w3.org/2000/svg" viewBox="0 0 32 32"><title>32-Cut</title><g id="_32-Cut" data-name="32-Cut"><circle cx="29" cy="13" r="2" style="fill:#f2f2f2"/><circle cx="29" cy="24" r="2" style="fill:#f2f2f2"/><path d="M24,4V28c0,1.66-2.34,3-4,3H4a3,3,0,0,1-3-3V7L7,1H21A3,3,0,0,1,24,4Z" style="fill:#c1c5c8"/><path d="M24,13V4a3,3,0,0,0-3-3H7L1,7V28a3,3,0,0,0,3,3H21a3,3,0,0,0,3-3V20" style="fill:none;stroke:#6f7a7b;stroke-linecap:round;stroke-linejoin:round;stroke-width:2px"/><circle cx="29" cy="24" r="2" style="fill:none;stroke:#6f7a7b;stroke-linecap:round;stroke-linejoin:round;stroke-width:2px"/><circle cx="29" cy="13" r="2" style="fill:none;stroke:#6f7a7b;stroke-linecap:round;stroke-linejoin:round;stroke-width:2px"/><line x1="29" y1="22" x2="20" y2="13" style="fill:none;stroke:#6f7a7b;stroke-linecap:round;stroke-linejoin:round;stroke-width:2px"/><line x1="24" y1="20" x2="29" y2="15" style="fill:none;stroke:#6f7a7b;stroke-linecap:round;stroke-linejoin:round;stroke-width:2px"/><circle cx="10" cy="19" r="1" style="fill:#6f7a7b"/><circle cx="14" cy="19" r="1" style="fill:#6f7a7b"/><line x1="20" y1="19" x2="18" y2="19" style="fill:none;stroke:#6f7a7b;stroke-linecap:round;stroke-linejoin:round;stroke-width:2px"/></g></svg>