<svg xmlns="http://www.w3.org/2000/svg" viewBox="0 0 32 32"><title>34-Marker</title><g id="_34-Marker" data-name="34-Marker"><polygon points="14 25 14 31 12 31 10 29 10 25 14 25" style="fill:#c1c5c8"/><polygon points="18 18 14 25 10 25 6 18 14 18 18 18" style="fill:#f2f2f2"/><rect x="10" y="4" width="4" height="10" style="fill:#f2f2f2"/><path d="M10,4V14h4V4ZM6,1H18V18H6Z" style="fill:#c1c5c8"/><circle cx="25" cy="31" r="1" style="fill:#6f7a7b"/><polyline points="18 1 18 18 14 25 10 25 6 18 6 1" style="fill:none;stroke:#6f7a7b;stroke-linecap:round;stroke-linejoin:round;stroke-width:2px"/><polyline points="10 25 10 29 12 31 14 31 14 25" style="fill:none;stroke:#6f7a7b;stroke-linecap:round;stroke-linejoin:round;stroke-width:2px"/><line x1="6" y1="18" x2="14" y2="18" style="fill:none;stroke:#6f7a7b;stroke-linecap:round;stroke-linejoin:round;stroke-width:2px"/><rect x="10" y="4" width="4" height="10" style="fill:none;stroke:#6f7a7b;stroke-linecap:round;stroke-linejoin:round;stroke-width:2px"/><line x1="18" y1="31" x2="22" y2="31" style="fill:none;stroke:#6f7a7b;stroke-linecap:round;stroke-linejoin:round;stroke-width:2px"/></g></svg>