<svg xmlns="http://www.w3.org/2000/svg" viewBox="0 0 32 32"><title>35-File</title><g id="_35-File" data-name="35-File"><path d="M28,4V28a3,3,0,0,1-3,3H7a3,3,0,0,1-3-3V7l6-6H25A3,3,0,0,1,28,4Z" style="fill:#c1c5c8"/><path d="M25,1H10L4,7V28a3,3,0,0,0,3,3H25a3,3,0,0,0,3-3V4A3,3,0,0,0,25,1Z" style="fill:none;stroke:#6f7a7b;stroke-linecap:round;stroke-linejoin:round;stroke-width:2px"/><circle cx="10" cy="13" r="1" style="fill:#6f7a7b"/><circle cx="10" cy="18" r="1" style="fill:#6f7a7b"/><circle cx="10" cy="23" r="1" style="fill:#6f7a7b"/><line x1="14" y1="13" x2="22" y2="13" style="fill:none;stroke:#6f7a7b;stroke-linecap:round;stroke-linejoin:round;stroke-width:2px"/><line x1="14" y1="18" x2="22" y2="18" style="fill:none;stroke:#6f7a7b;stroke-linecap:round;stroke-linejoin:round;stroke-width:2px"/><line x1="14" y1="23" x2="22" y2="23" style="fill:none;stroke:#6f7a7b;stroke-linecap:round;stroke-linejoin:round;stroke-width:2px"/></g></svg>