<svg xmlns="http://www.w3.org/2000/svg" viewBox="0 0 32 32"><title>36-Idea</title><g id="_36-Idea" data-name="36-Idea"><line x1="13" y1="29" x2="19" y2="29" style="fill:none;stroke:#6f7a7b;stroke-linecap:round;stroke-linejoin:round;stroke-width:2px"/><line x1="16" y1="29" x2="16" y2="31" style="fill:none;stroke:#6f7a7b;stroke-linecap:round;stroke-linejoin:round;stroke-width:2px"/><path d="M27,12c0,4.88-3.61,8.56-8,10v4H13V22c-4.39-1.44-8-5.12-8-10a11,11,0,0,1,22,0Z" style="fill:#c1c5c8"/><path d="M19,26V22c4.39-1.44,8-5.12,8-10A11,11,0,0,0,5,12c0,4.88,3.61,8.56,8,10v4" style="fill:none;stroke:#6f7a7b;stroke-linecap:round;stroke-linejoin:round;stroke-width:2px"/><polyline points="11 26 13 26 19 26 21 26" style="fill:none;stroke:#6f7a7b;stroke-linecap:round;stroke-linejoin:round;stroke-width:2px"/><path d="M10,12a6,6,0,0,1,6-6" style="fill:none;stroke:#6f7a7b;stroke-linecap:round;stroke-linejoin:round;stroke-width:2px"/><circle cx="11" cy="15" r="1" style="fill:#6f7a7b"/></g></svg>