<svg xmlns="http://www.w3.org/2000/svg" viewBox="0 0 32 32"><title>37-Folder</title><g id="_37-Folder" data-name="37-Folder"><circle cx="21.5" cy="14.5" r="2.5" style="fill:#f2f2f2"/><path d="M5,6H4V3A1.959,1.959,0,0,1,6,1H18l5,5h4a4,4,0,0,1,4,4V26l-5-5-5,5-8-8L2,29l-.32.23A3.992,3.992,0,0,1,1,27V10A4,4,0,0,1,5,6Zm19,8.5A2.5,2.5,0,1,0,21.5,17,2.5,2.5,0,0,0,24,14.5Z" style="fill:#c1c5c8"/><path d="M2,29,13,18l8,8,5-5,5,5v1a4,4,0,0,1-4,4H5a4,4,0,0,1-3.32-1.77Z" style="fill:#f2f2f2"/><path d="M18,1H6A1.959,1.959,0,0,0,4,3V6H23Z" style="fill:#f2f2f2"/><path d="M31,26V10a4,4,0,0,0-4-4H23L18,1H6A1.959,1.959,0,0,0,4,3V6H5a4,4,0,0,0-4,4V27a4,4,0,0,0,4,4H27a4,4,0,0,0,4-4Z" style="fill:none;stroke:#6f7a7b;stroke-linecap:round;stroke-linejoin:round;stroke-width:2px"/><line x1="5" y1="6" x2="16" y2="6" style="fill:none;stroke:#6f7a7b;stroke-linecap:round;stroke-linejoin:round;stroke-width:2px"/><polyline points="2 29 13 18 21 26 26 21 31 26" style="fill:none;stroke:#6f7a7b;stroke-linecap:round;stroke-linejoin:round;stroke-width:2px"/><circle cx="21.5" cy="14.5" r="2.5" style="fill:none;stroke:#6f7a7b;stroke-linecap:round;stroke-linejoin:round;stroke-width:2px"/></g></svg>