<svg xmlns="http://www.w3.org/2000/svg" viewBox="0 0 32 32"><title>38-Folder</title><g id="_38-Folder" data-name="38-Folder"><path d="M31,10V27a4,4,0,0,1-4,4H5a4,4,0,0,1-4-4V10A4,4,0,0,1,5,6H4V3A1.959,1.959,0,0,1,6,1H18l5,5h4A4,4,0,0,1,31,10Z" style="fill:#c1c5c8"/><path d="M18,1H6A1.959,1.959,0,0,0,4,3V6H23Z" style="fill:#f2f2f2"/><path d="M27,6H23L18,1H6A1.959,1.959,0,0,0,4,3V6H5a4,4,0,0,0-4,4V27a4,4,0,0,0,4,4H27a4,4,0,0,0,4-4V10A4,4,0,0,0,27,6Z" style="fill:none;stroke:#6f7a7b;stroke-linecap:round;stroke-linejoin:round;stroke-width:2px"/><line x1="5" y1="6" x2="16" y2="6" style="fill:none;stroke:#6f7a7b;stroke-linecap:round;stroke-linejoin:round;stroke-width:2px"/><path d="M18,17a4,4,0,1,1-4,4h2a2.006,2.006,0,0,0,2-2Z" style="fill:#f2f2f2"/><path d="M18,17v2a2.006,2.006,0,0,1-2,2H14A4,4,0,0,1,18,17Z" style="fill:#f2f2f2"/><path d="M18,15v2a4,4,0,0,0-4,4H12a2.006,2.006,0,0,1-2-2V15a2.006,2.006,0,0,1,2-2h4A2.006,2.006,0,0,1,18,15Z" style="fill:#f2f2f2"/><path d="M18,17V15a2.006,2.006,0,0,0-2-2H12a2.006,2.006,0,0,0-2,2v4a2.006,2.006,0,0,0,2,2h4a2.006,2.006,0,0,0,2-2Z" style="fill:none;stroke:#6f7a7b;stroke-linecap:round;stroke-linejoin:round;stroke-width:2px"/><circle cx="18" cy="21" r="4" style="fill:none;stroke:#6f7a7b;stroke-linecap:round;stroke-linejoin:round;stroke-width:2px"/></g></svg>