<svg xmlns="http://www.w3.org/2000/svg" viewBox="0 0 32 32"><title>40-Printer</title><g id="_40-Printer" data-name="40-Printer"><path d="M23,23v5a2.006,2.006,0,0,1-2,2H14L9,25V16H23Z" style="fill:#f2f2f2"/><path d="M23,4V8H9V4a.979.979,0,0,1,1-1H22A.979.979,0,0,1,23,4Z" style="fill:#f2f2f2"/><path d="M25,11a1,1,0,1,0,1,1A1,1,0,0,0,25,11ZM23,8h5a3,3,0,0,1,3,3v9a3,3,0,0,1-3,3H23V16H9v7H4a3,3,0,0,1-3-3V11A3,3,0,0,1,4,8H23Z" style="fill:#c1c5c8"/><circle cx="25" cy="12" r="1" style="fill:#6f7a7b"/><path d="M9,23H4a3,3,0,0,1-3-3V11A3,3,0,0,1,4,8H28a3,3,0,0,1,3,3v9a3,3,0,0,1-3,3H23" style="fill:none;stroke:#6f7a7b;stroke-linecap:round;stroke-linejoin:round;stroke-width:2px"/><line x1="23" y1="16" x2="25" y2="16" style="fill:none;stroke:#6f7a7b;stroke-linecap:round;stroke-linejoin:round;stroke-width:2px"/><line x1="7" y1="16" x2="9" y2="16" style="fill:none;stroke:#6f7a7b;stroke-linecap:round;stroke-linejoin:round;stroke-width:2px"/><path d="M9,16v9l5,5h7a2.006,2.006,0,0,0,2-2V16Z" style="fill:none;stroke:#6f7a7b;stroke-linecap:round;stroke-linejoin:round;stroke-width:2px"/><line x1="7" y1="12" x2="9" y2="12" style="fill:none;stroke:#6f7a7b;stroke-linecap:round;stroke-linejoin:round;stroke-width:2px"/><path d="M9,8V4a.979.979,0,0,1,1-1H22a.979.979,0,0,1,1,1V8" style="fill:none;stroke:#6f7a7b;stroke-linecap:round;stroke-linejoin:round;stroke-width:2px"/><line x1="13" y1="20" x2="19" y2="20" style="fill:none;stroke:#6f7a7b;stroke-linecap:round;stroke-linejoin:round;stroke-width:2px"/><line x1="19" y1="24" x2="16" y2="24" style="fill:none;stroke:#6f7a7b;stroke-linecap:round;stroke-linejoin:round;stroke-width:2px"/></g></svg>