<svg xmlns="http://www.w3.org/2000/svg" viewBox="0 0 32 32"><title>45-Marker</title><g id="_45-Marker" data-name="45-Marker"><path d="M6,4V14h4V4ZM2,1H14V18H2Z" style="fill:#c1c5c8"/><polygon points="10 25 10 31 8 31 6 29 6 25 10 25" style="fill:#c1c5c8"/><polygon points="14 18 10 25 6 25 2 18 10 18 14 18" style="fill:#f2f2f2"/><rect x="6" y="4" width="4" height="10" style="fill:#f2f2f2"/><polyline points="2 1 2 18 6 25 10 25 14 18 14 1" style="fill:none;stroke:#6f7a7b;stroke-linecap:round;stroke-linejoin:round;stroke-width:2px"/><polyline points="6 25 6 29 8 31 10 31 10 25" style="fill:none;stroke:#6f7a7b;stroke-linecap:round;stroke-linejoin:round;stroke-width:2px"/><line x1="2" y1="18" x2="10" y2="18" style="fill:none;stroke:#6f7a7b;stroke-linecap:round;stroke-linejoin:round;stroke-width:2px"/><rect x="6" y="4" width="4" height="10" style="fill:none;stroke:#6f7a7b;stroke-linecap:round;stroke-linejoin:round;stroke-width:2px"/><polyline points="14 30 16 29 19 16 23 16 25 27 27 27" style="fill:none;stroke:#6f7a7b;stroke-linecap:round;stroke-linejoin:round;stroke-width:2px"/><line x1="18" y1="22" x2="24" y2="22" style="fill:none;stroke:#6f7a7b;stroke-linecap:round;stroke-linejoin:round;stroke-width:2px"/><circle cx="30" cy="27" r="1" style="fill:#6f7a7b"/></g></svg>