<svg xmlns="http://www.w3.org/2000/svg" viewBox="0 0 32 32"><title>48-Vector Graphic</title><g id="_48-Vector_Graphic" data-name="48-Vector Graphic"><rect x="25" y="25" width="6" height="6" rx="2" style="fill:#f2f2f2"/><path d="M7,27v2a2.006,2.006,0,0,1-2,2H3a2.006,2.006,0,0,1-2-2V27a2.006,2.006,0,0,1,2-2H5A2.006,2.006,0,0,1,7,27Z" style="fill:#c1c5c8"/><path d="M7,16v1a2.006,2.006,0,0,1-2,2H3a2.006,2.006,0,0,1-2-2V15a2.006,2.006,0,0,1,2-2H5a2.006,2.006,0,0,1,2,2Z" style="fill:#c1c5c8"/><path d="M19,16v1a2.006,2.006,0,0,1-2,2H15a2.006,2.006,0,0,1-2-2V15a2.006,2.006,0,0,1,2-2h2a2.006,2.006,0,0,1,2,2Z" style="fill:#c1c5c8"/><path d="M31,15v2a2.006,2.006,0,0,1-2,2H27a2.006,2.006,0,0,1-2-2V15a2.006,2.006,0,0,1,2-2h2A2.006,2.006,0,0,1,31,15Z" style="fill:#c1c5c8"/><path d="M31,3V5a2.006,2.006,0,0,1-2,2H27a2.006,2.006,0,0,1-2-2V3a2.006,2.006,0,0,1,2-2h2A2.006,2.006,0,0,1,31,3Z" style="fill:#c1c5c8"/><rect x="1" y="1" width="6" height="6" rx="2" style="fill:#f2f2f2"/><circle cx="20" cy="4" r="1" style="fill:#6f7a7b"/><circle cx="20" cy="28" r="1" style="fill:#6f7a7b"/><circle cx="16" cy="4" r="1" style="fill:#6f7a7b"/><circle cx="16" cy="28" r="1" style="fill:#6f7a7b"/><circle cx="12" cy="4" r="1" style="fill:#6f7a7b"/><circle cx="12" cy="28" r="1" style="fill:#6f7a7b"/><rect x="1" y="1" width="6" height="6" rx="2" style="fill:none;stroke:#6f7a7b;stroke-linecap:round;stroke-linejoin:round;stroke-width:2px"/><path d="M13,16v1a2.006,2.006,0,0,0,2,2h2a2.006,2.006,0,0,0,2-2V15a2.006,2.006,0,0,0-2-2H15a2.006,2.006,0,0,0-2,2Z" style="fill:none;stroke:#6f7a7b;stroke-linecap:round;stroke-linejoin:round;stroke-width:2px"/><path d="M7,16V15a2.006,2.006,0,0,0-2-2H3a2.006,2.006,0,0,0-2,2v2a2.006,2.006,0,0,0,2,2H5a2.006,2.006,0,0,0,2-2Z" style="fill:none;stroke:#6f7a7b;stroke-linecap:round;stroke-linejoin:round;stroke-width:2px"/><path d="M25,16v1a2.006,2.006,0,0,0,2,2h2a2.006,2.006,0,0,0,2-2V15a2.006,2.006,0,0,0-2-2H27a2.006,2.006,0,0,0-2,2Z" style="fill:none;stroke:#6f7a7b;stroke-linecap:round;stroke-linejoin:round;stroke-width:2px"/><path d="M25,5a2.006,2.006,0,0,0,2,2h2a2.006,2.006,0,0,0,2-2V3a2.006,2.006,0,0,0-2-2H27a2.006,2.006,0,0,0-2,2Z" style="fill:none;stroke:#6f7a7b;stroke-linecap:round;stroke-linejoin:round;stroke-width:2px"/><rect x="25" y="25" width="6" height="6" rx="2" style="fill:none;stroke:#6f7a7b;stroke-linecap:round;stroke-linejoin:round;stroke-width:2px"/><path d="M1,29a2.006,2.006,0,0,0,2,2H5a2.006,2.006,0,0,0,2-2V27a2.006,2.006,0,0,0-2-2H3a2.006,2.006,0,0,0-2,2Z" style="fill:none;stroke:#6f7a7b;stroke-linecap:round;stroke-linejoin:round;stroke-width:2px"/><line x1="25" y1="16" x2="19" y2="16" style="fill:none;stroke:#6f7a7b;stroke-linecap:round;stroke-linejoin:round;stroke-width:2px"/><line x1="13" y1="16" x2="7" y2="16" style="fill:none;stroke:#6f7a7b;stroke-linecap:round;stroke-linejoin:round;stroke-width:2px"/><line x1="28" y1="7" x2="28" y2="13" style="fill:none;stroke:#6f7a7b;stroke-linecap:round;stroke-linejoin:round;stroke-width:2px"/><line x1="4" y1="19" x2="4" y2="25" style="fill:none;stroke:#6f7a7b;stroke-linecap:round;stroke-linejoin:round;stroke-width:2px"/></g></svg>