<svg xmlns="http://www.w3.org/2000/svg" viewBox="0 0 32 32"><title>5-Picture</title><g id="_5-Picture" data-name="5-Picture"><circle cx="22" cy="9" r="3" style="fill:#f2f2f2"/><path d="M31,6V25l-6-6-4,4-9-9L1,25V6A5,5,0,0,1,6,1H26A5,5,0,0,1,31,6ZM25,9a3,3,0,1,0-3,3A3,3,0,0,0,25,9Z" style="fill:#c1c5c8"/><path d="M31,25v1a5,5,0,0,1-5,5H6a5,5,0,0,1-5-5V25L12,14l9,9,4-4Z" style="fill:#f2f2f2"/><path d="M1,25v1a5,5,0,0,0,5,5H26a5,5,0,0,0,5-5V6a5,5,0,0,0-5-5H6A5,5,0,0,0,1,6Z" style="fill:none;stroke:#6f7a7b;stroke-linecap:round;stroke-linejoin:round;stroke-width:2px"/><polyline points="1 25 12 14 21 23 25 19 31 25" style="fill:none;stroke:#6f7a7b;stroke-linecap:round;stroke-linejoin:round;stroke-width:2px"/><circle cx="22" cy="9" r="3" style="fill:none;stroke:#6f7a7b;stroke-linecap:round;stroke-linejoin:round;stroke-width:2px"/></g></svg>