<svg xmlns="http://www.w3.org/2000/svg" viewBox="0 0 32 32"><title>50-Editor</title><g id="_50-Editor" data-name="50-Editor"><rect x="2" y="17" width="13" height="14" rx="3" style="fill:#c1c5c8"/><circle cx="30" cy="1" r="1" style="fill:#6f7a7b"/><circle cx="30" cy="5" r="1" style="fill:#6f7a7b"/><circle cx="30" cy="9" r="1" style="fill:#6f7a7b"/><circle cx="30" cy="13" r="1" style="fill:#6f7a7b"/><circle cx="30" cy="17" r="1" style="fill:#6f7a7b"/><circle cx="30" cy="21" r="1" style="fill:#6f7a7b"/><circle cx="30" cy="25" r="1" style="fill:#6f7a7b"/><circle cx="30" cy="29" r="1" style="fill:#6f7a7b"/><circle cx="26" cy="1" r="1" style="fill:#6f7a7b"/><circle cx="26" cy="29" r="1" style="fill:#6f7a7b"/><circle cx="22" cy="1" r="1" style="fill:#6f7a7b"/><circle cx="22" cy="29" r="1" style="fill:#6f7a7b"/><circle cx="18" cy="1" r="1" style="fill:#6f7a7b"/><circle cx="18" cy="29" r="1" style="fill:#6f7a7b"/><circle cx="14" cy="1" r="1" style="fill:#6f7a7b"/><circle cx="10" cy="1" r="1" style="fill:#6f7a7b"/><circle cx="6" cy="1" r="1" style="fill:#6f7a7b"/><circle cx="2" cy="1" r="1" style="fill:#6f7a7b"/><circle cx="2" cy="5" r="1" style="fill:#6f7a7b"/><circle cx="2" cy="9" r="1" style="fill:#6f7a7b"/><circle cx="2" cy="13" r="1" style="fill:#6f7a7b"/><rect x="2" y="17" width="13" height="14" rx="3" style="fill:none;stroke:#6f7a7b;stroke-linecap:round;stroke-linejoin:round;stroke-width:2px"/><path d="M22,6h2a.979.979,0,0,1,1,1V9" style="fill:none;stroke:#6f7a7b;stroke-linecap:round;stroke-linejoin:round;stroke-width:2px"/><line x1="18" y1="13" x2="24" y2="7" style="fill:none;stroke:#6f7a7b;stroke-linecap:round;stroke-linejoin:round;stroke-width:2px"/><path d="M20,14H18a.979.979,0,0,1-1-1V11" style="fill:none;stroke:#6f7a7b;stroke-linecap:round;stroke-linejoin:round;stroke-width:2px"/></g></svg>