<svg xmlns="http://www.w3.org/2000/svg" viewBox="0 0 32 32"><title>55-Image</title><g id="_55-Image" data-name="55-Image"><circle cx="15.5" cy="7.5" r="2.5" style="fill:#c1c5c8"/><path d="M23,5V19l-4-4-3,3-5-5L3,21l-1.32.23A3.992,3.992,0,0,1,1,19V5A4,4,0,0,1,5,1H19A4,4,0,0,1,23,5ZM18,7.5A2.5,2.5,0,1,0,15.5,10,2.5,2.5,0,0,0,18,7.5Z" style="fill:#f2f2f2"/><path d="M19,15l4,4a4,4,0,0,1-4,4H5a4,4,0,0,1-3.32-1.77L3,21l8-8,5,5Z" style="fill:#c1c5c8"/><path d="M23,19V5a4,4,0,0,0-4-4H5A4,4,0,0,0,1,5V19a4,4,0,0,0,4,4H19A4,4,0,0,0,23,19Z" style="fill:none;stroke:#6f7a7b;stroke-linecap:round;stroke-linejoin:round;stroke-width:2px"/><polyline points="27 9 29 7 31 9" style="fill:none;stroke:#6f7a7b;stroke-linecap:round;stroke-linejoin:round;stroke-width:2px"/><line x1="29" y1="7" x2="29" y2="18" style="fill:none;stroke:#6f7a7b;stroke-linecap:round;stroke-linejoin:round;stroke-width:2px"/><polyline points="31 17 29 19 27 17" style="fill:none;stroke:#6f7a7b;stroke-linecap:round;stroke-linejoin:round;stroke-width:2px"/><polyline points="16 27 18 29 16 31" style="fill:none;stroke:#6f7a7b;stroke-linecap:round;stroke-linejoin:round;stroke-width:2px"/><line x1="18" y1="29" x2="7" y2="29" style="fill:none;stroke:#6f7a7b;stroke-linecap:round;stroke-linejoin:round;stroke-width:2px"/><polyline points="8 31 6 29 8 27" style="fill:none;stroke:#6f7a7b;stroke-linecap:round;stroke-linejoin:round;stroke-width:2px"/><polyline points="3 21 11 13 16 18 19 15 23 19" style="fill:none;stroke:#6f7a7b;stroke-linecap:round;stroke-linejoin:round;stroke-width:2px"/><circle cx="15.5" cy="7.5" r="2.5" style="fill:none;stroke:#6f7a7b;stroke-linecap:round;stroke-linejoin:round;stroke-width:2px"/></g></svg>