<svg xmlns="http://www.w3.org/2000/svg" viewBox="0 0 32 32"><title>56-Shadow</title><g id="_56-Shadow" data-name="56-Shadow"><path d="M16,22h7.99A9.957,9.957,0,0,1,16,26Z" style="fill:#f2f2f2"/><path d="M16,16H26a9.74,9.74,0,0,1-.52,3.16L25,19H16Z" style="fill:#f2f2f2"/><path d="M25.48,12.84,25,13H16V10h8A9.614,9.614,0,0,1,25.48,12.84Z" style="fill:#f2f2f2"/><path d="M16,22v4a9.957,9.957,0,0,0,7.99-4H24a9.614,9.614,0,0,0,1.48-2.84,9.862,9.862,0,0,0,0-6.32A9.614,9.614,0,0,0,24,10h-.01A9.957,9.957,0,0,0,16,6V22ZM16,1A15,15,0,1,1,1,16,15.005,15.005,0,0,1,16,1Z" style="fill:#f2f2f2"/><path d="M25,19l.48.16A9.614,9.614,0,0,1,24,22H16V19Z" style="fill:#c1c5c8"/><path d="M25,13l.48-.16A9.74,9.74,0,0,1,26,16H16V13Z" style="fill:#c1c5c8"/><path d="M23.99,10H16V6A9.957,9.957,0,0,1,23.99,10Z" style="fill:#c1c5c8"/><circle cx="16" cy="16" r="15" style="fill:none;stroke:#6f7a7b;stroke-linecap:round;stroke-linejoin:round;stroke-width:2px"/><path d="M16,26a9.957,9.957,0,0,0,7.99-4" style="fill:none;stroke:#6f7a7b;stroke-linecap:round;stroke-linejoin:round;stroke-width:2px"/><path d="M23.99,10A9.957,9.957,0,0,0,16,6" style="fill:none;stroke:#6f7a7b;stroke-linecap:round;stroke-linejoin:round;stroke-width:2px"/><path d="M24,22a9.614,9.614,0,0,0,1.48-2.84,9.862,9.862,0,0,0,0-6.32A9.614,9.614,0,0,0,24,10" style="fill:none;stroke:#6f7a7b;stroke-linecap:round;stroke-linejoin:round;stroke-width:2px"/><line x1="16" y1="16" x2="26" y2="16" style="fill:none;stroke:#6f7a7b;stroke-linecap:round;stroke-linejoin:round;stroke-width:2px"/><line x1="16" y1="13" x2="25" y2="13" style="fill:none;stroke:#6f7a7b;stroke-linecap:round;stroke-linejoin:round;stroke-width:2px"/><polyline points="16 10 23.99 10 24 10" style="fill:none;stroke:#6f7a7b;stroke-linecap:round;stroke-linejoin:round;stroke-width:2px"/><line x1="16" y1="19" x2="25" y2="19" style="fill:none;stroke:#6f7a7b;stroke-linecap:round;stroke-linejoin:round;stroke-width:2px"/><polyline points="16 22 23.99 22 24 22" style="fill:none;stroke:#6f7a7b;stroke-linecap:round;stroke-linejoin:round;stroke-width:2px"/></g></svg>