<svg xmlns="http://www.w3.org/2000/svg" viewBox="0 0 32 32"><title>57-Folder</title><g id="_57-Folder" data-name="57-Folder"><path d="M22,15a2,2,0,0,1,0,4H20v6a2,2,0,0,1-4,0V19H14a2,2,0,0,1,0-4Z" style="fill:#f2f2f2"/><path d="M31,10v4a2.938,2.938,0,0,0-3-3H8a2.938,2.938,0,0,0-3,3V31a4,4,0,0,1-4-4V10A4,4,0,0,1,5,6H4V3A1.959,1.959,0,0,1,6,1H18l5,5h4A4,4,0,0,1,31,10Z" style="fill:#f2f2f2"/><path d="M31,14V27a4,4,0,0,1-4,4H5V14a2.938,2.938,0,0,1,3-3H28A2.938,2.938,0,0,1,31,14Zm-7,3a2.006,2.006,0,0,0-2-2H14a2,2,0,0,0,0,4h2v6a2,2,0,0,0,4,0V19h2A2.006,2.006,0,0,0,24,17Z" style="fill:#c1c5c8"/><path d="M18,1H6A1.959,1.959,0,0,0,4,3V6H23Z" style="fill:#c1c5c8"/><path d="M31,14V10a4,4,0,0,0-4-4H23L18,1H6A1.959,1.959,0,0,0,4,3V6H5a4,4,0,0,0-4,4V27a4,4,0,0,0,4,4H27a4,4,0,0,0,4-4Z" style="fill:none;stroke:#6f7a7b;stroke-linecap:round;stroke-linejoin:round;stroke-width:2px"/><line x1="5" y1="6" x2="16" y2="6" style="fill:none;stroke:#6f7a7b;stroke-linecap:round;stroke-linejoin:round;stroke-width:2px"/><path d="M5,31V14a2.938,2.938,0,0,1,3-3H28a2.938,2.938,0,0,1,3,3" style="fill:none;stroke:#6f7a7b;stroke-linecap:round;stroke-linejoin:round;stroke-width:2px"/><path d="M22,15H14a2,2,0,0,0,0,4h2v6a2,2,0,0,0,4,0V19h2a2,2,0,0,0,0-4Z" style="fill:none;stroke:#6f7a7b;stroke-linecap:round;stroke-linejoin:round;stroke-width:2px"/></g></svg>