<svg xmlns="http://www.w3.org/2000/svg" viewBox="0 0 32 32"><title>59-Ink</title><g id="_59-Ink" data-name="59-Ink"><path d="M19,9V26a3,3,0,0,1-6,0V9Z" style="fill:#c1c5c8"/><path d="M18,3V5H14V3a2,2,0,0,1,4,0Z" style="fill:#c1c5c8"/><path d="M21,5a2,2,0,0,1,0,4H11a2,2,0,0,1,0-4H21Z" style="fill:#f2f2f2"/><path d="M9,7a2.006,2.006,0,0,0,2,2H21a2,2,0,0,0,0-4H11A2.006,2.006,0,0,0,9,7" style="fill:none;stroke:#6f7a7b;stroke-linecap:round;stroke-linejoin:round;stroke-width:2px"/><path d="M18,5V3a2,2,0,0,0-4,0V5" style="fill:none;stroke:#6f7a7b;stroke-linecap:round;stroke-linejoin:round;stroke-width:2px"/><path d="M13,9V26a3,3,0,0,0,6,0V9" style="fill:none;stroke:#6f7a7b;stroke-linecap:round;stroke-linejoin:round;stroke-width:2px"/><line x1="16" y1="29" x2="16" y2="31" style="fill:none;stroke:#6f7a7b;stroke-linecap:round;stroke-linejoin:round;stroke-width:2px"/></g></svg>