<svg xmlns="http://www.w3.org/2000/svg" viewBox="0 0 32 32"><title>60-Edit</title><g id="_60-Edit" data-name="60-Edit"><rect x="18" y="2" width="12" height="28" style="fill:#f2f2f2"/><path d="M18,1V31H7a5,5,0,0,1-5-5V6A5,5,0,0,1,7,1Z" style="fill:#c1c5c8"/><path d="M14,31H7a5,5,0,0,1-5-5V6A5,5,0,0,1,7,1h7" style="fill:none;stroke:#6f7a7b;stroke-linecap:round;stroke-linejoin:round;stroke-width:2px"/><line x1="18" y1="1" x2="18" y2="31" style="fill:none;stroke:#6f7a7b;stroke-linecap:round;stroke-linejoin:round;stroke-width:2px"/><circle cx="22" cy="2" r="1" style="fill:#6f7a7b"/><circle cx="26" cy="2" r="1" style="fill:#6f7a7b"/><circle cx="30" cy="2" r="1" style="fill:#6f7a7b"/><circle cx="30" cy="6" r="1" style="fill:#6f7a7b"/><circle cx="30" cy="10" r="1" style="fill:#6f7a7b"/><circle cx="30" cy="14" r="1" style="fill:#6f7a7b"/><circle cx="30" cy="18" r="1" style="fill:#6f7a7b"/><circle cx="30" cy="22" r="1" style="fill:#6f7a7b"/><circle cx="30" cy="26" r="1" style="fill:#6f7a7b"/><circle cx="30" cy="30" r="1" style="fill:#6f7a7b"/><circle cx="26" cy="30" r="1" style="fill:#6f7a7b"/><circle cx="22" cy="30" r="1" style="fill:#6f7a7b"/></g></svg>