<svg xmlns="http://www.w3.org/2000/svg" viewBox="0 0 32 32"><title>8-Artwork</title><g id="_8-Artwork" data-name="8-Artwork"><path d="M22,15l4,4a3,3,0,0,1-3,3H9a3,3,0,0,1-3-3l7-7,6,6Z" style="fill:#f2f2f2"/><circle cx="18" cy="8" r="2" style="fill:#f2f2f2"/><path d="M25,4l1,15-4-4-3,3-6-6L6,19,7,4a3,3,0,0,1,3-3H22A3,3,0,0,1,25,4ZM20,8a2,2,0,1,0-2,2A2.006,2.006,0,0,0,20,8Z" style="fill:#c1c5c8"/><path d="M6,19a3,3,0,0,0,3,3H23a3,3,0,0,0,3-3L25,4a3,3,0,0,0-3-3H10A3,3,0,0,0,7,4Z" style="fill:none;stroke:#6f7a7b;stroke-linecap:round;stroke-linejoin:round;stroke-width:2px"/><polyline points="6 26 13 26 16 26 19 26 26 26" style="fill:none;stroke:#6f7a7b;stroke-linecap:round;stroke-linejoin:round;stroke-width:2px"/><line x1="16" y1="26" x2="16" y2="31" style="fill:none;stroke:#6f7a7b;stroke-linecap:round;stroke-linejoin:round;stroke-width:2px"/><line x1="13" y1="26" x2="8" y2="31" style="fill:none;stroke:#6f7a7b;stroke-linecap:round;stroke-linejoin:round;stroke-width:2px"/><line x1="19" y1="26" x2="24" y2="31" style="fill:none;stroke:#6f7a7b;stroke-linecap:round;stroke-linejoin:round;stroke-width:2px"/><polyline points="6 19 13 12 19 18 22 15 26 19" style="fill:none;stroke:#6f7a7b;stroke-linecap:round;stroke-linejoin:round;stroke-width:2px"/><circle cx="18" cy="8" r="2" style="fill:none;stroke:#6f7a7b;stroke-linecap:round;stroke-linejoin:round;stroke-width:2px"/></g></svg>