<?xml version="1.0" encoding="UTF-8"?><svg xmlns="http://www.w3.org/2000/svg" viewBox="0 0 24 24"><defs><style>.v{fill:#231f20;}</style></defs><g id="a"/><g id="b"/><g id="c"/><g id="d"/><g id="e"/><g id="f"/><g id="g"/><g id="h"/><g id="i"/><g id="j"/><g id="k"><g><path class="v" d="M17,4.25H7c-2.62,0-4.75,2.13-4.75,4.75v4c0,2.62,2.13,4.75,4.75,4.75h7.89c.59,0,1.17,.16,1.67,.46l2.53,1.52c.28,.17,.59,.25,.9,.25s.59-.08,.86-.23c.56-.31,.89-.88,.89-1.52V9c0-2.62-2.13-4.75-4.75-4.75Zm3.25,13.98c0,.13-.08,.19-.13,.22-.05,.03-.14,.06-.25,0h0l-2.54-1.52c-.74-.44-1.58-.68-2.44-.68H7c-1.79,0-3.25-1.46-3.25-3.25v-4c0-1.79,1.46-3.25,3.25-3.25h10c1.79,0,3.25,1.46,3.25,3.25v9.23Z"/><path class="v" d="M12.02,10.25h-.01c-.41,0-.74,.34-.74,.75s.34,.75,.75,.75,.75-.34,.75-.75-.34-.75-.75-.75Z"/><path class="v" d="M8.02,10.25h-.01c-.41,0-.74,.34-.74,.75s.34,.75,.75,.75,.75-.34,.75-.75-.34-.75-.75-.75Z"/><path class="v" d="M16.02,10.25h-.01c-.41,0-.74,.34-.74,.75s.34,.75,.75,.75,.75-.34,.75-.75-.34-.75-.75-.75Z"/></g></g><g id="l"/><g id="m"/><g id="n"/><g id="o"/><g id="p"/><g id="q"/><g id="r"/><g id="s"/><g id="t"/><g id="u"/></svg>