<?xml version="1.0" encoding="UTF-8"?><svg xmlns="http://www.w3.org/2000/svg" viewBox="0 0 24 24"><defs><style>.v{fill:#231f20;}</style></defs><g id="a"/><g id="b"/><g id="c"/><g id="d"/><g id="e"/><g id="f"/><g id="g"/><g id="h"><g><path class="v" d="M18,4.25H6c-2.07,0-3.75,1.68-3.75,3.75v7c0,2.07,1.68,3.75,3.75,3.75h12c2.07,0,3.75-1.68,3.75-3.75v-7c0-2.07-1.68-3.75-3.75-3.75Zm-.75,1.5v1.25c0,.14-.11,.25-.25,.25h-3c-.14,0-.25-.11-.25-.25v-1.25h3.5Zm3,9.25c0,1.24-1.01,2.25-2.25,2.25H6c-1.24,0-2.25-1.01-2.25-2.25v-7c0-1.24,1.01-2.25,2.25-2.25h6.25v1.25c0,.96,.79,1.75,1.75,1.75h3c.96,0,1.75-.79,1.75-1.75v-1.11c.87,.31,1.5,1.14,1.5,2.11v7Z"/><path class="v" d="M9,7.25h-2c-.96,0-1.75,.79-1.75,1.75v5c0,.96,.79,1.75,1.75,1.75h2c.96,0,1.75-.79,1.75-1.75v-5c0-.96-.79-1.75-1.75-1.75Zm.25,6.75c0,.14-.11,.25-.25,.25h-2c-.14,0-.25-.11-.25-.25v-5c0-.14,.11-.25,.25-.25h2c.14,0,.25,.11,.25,.25v5Z"/><path class="v" d="M14,10.25h-1c-.41,0-.75,.34-.75,.75s.34,.75,.75,.75h1c.41,0,.75-.34,.75-.75s-.34-.75-.75-.75Z"/><path class="v" d="M18,10.25h-1c-.41,0-.75,.34-.75,.75s.34,.75,.75,.75h1c.41,0,.75-.34,.75-.75s-.34-.75-.75-.75Z"/><path class="v" d="M14,13.25h-1c-.41,0-.75,.34-.75,.75s.34,.75,.75,.75h1c.41,0,.75-.34,.75-.75s-.34-.75-.75-.75Z"/><path class="v" d="M18,13.25h-1c-.41,0-.75,.34-.75,.75s.34,.75,.75,.75h1c.41,0,.75-.34,.75-.75s-.34-.75-.75-.75Z"/></g></g><g id="i"/><g id="j"/><g id="k"/><g id="l"/><g id="m"/><g id="n"/><g id="o"/><g id="p"/><g id="q"/><g id="r"/><g id="s"/><g id="t"/><g id="u"/></svg>