<?xml version="1.0" encoding="UTF-8"?><svg xmlns="http://www.w3.org/2000/svg" viewBox="0 0 24 24"><g id="a"/><g id="b"/><g id="c"/><g id="d"/><g id="e"/><g id="f"/><g id="g"/><g id="h"/><g id="i"/><g id="j"/><g id="k"/><g id="l"/><g id="m"/><g id="n"/><g id="o"/><g id="p"><g><path d="M11.25,12.75H2.25v4.25c0,2.62,2.13,4.75,4.75,4.75h4.25V12.75Zm-2.31,6.19c-.15,.15-.34,.22-.53,.22s-.38-.07-.53-.22l-.88-.88-.88,.88c-.15,.15-.34,.22-.53,.22s-.38-.07-.53-.22c-.29-.29-.29-.77,0-1.06l.88-.88-.88-.88c-.29-.29-.29-.77,0-1.06s.77-.29,1.06,0l.88,.88,.88-.88c.29-.29,.77-.29,1.06,0s.29,.77,0,1.06l-.88,.88,.88,.88c.29,.29,.29,.77,0,1.06Z"/><path d="M12.75,11.25h9V7c0-2.62-2.13-4.75-4.75-4.75h-4.25V11.25Zm2.75-5h3c.41,0,.75,.34,.75,.75s-.34,.75-.75,.75h-3c-.41,0-.75-.34-.75-.75s.34-.75,.75-.75Z"/><path d="M11.25,11.25V2.25H7c-2.62,0-4.75,2.13-4.75,4.75v4.25H11.25ZM5,6.25h1.25v-1.25c0-.41,.34-.75,.75-.75s.75,.34,.75,.75v1.25h1.25c.41,0,.75,.34,.75,.75s-.34,.75-.75,.75h-1.25v1.25c0,.41-.34,.75-.75,.75s-.75-.34-.75-.75v-1.25h-1.25c-.41,0-.75-.34-.75-.75s.34-.75,.75-.75Z"/><path d="M12.75,12.75v9h4.25c2.62,0,4.75-2.13,4.75-4.75v-4.25H12.75Zm5.75,6.5h-3c-.41,0-.75-.34-.75-.75s.34-.75,.75-.75h3c.41,0,.75,.34,.75,.75s-.34,.75-.75,.75Zm0-3h-3c-.41,0-.75-.34-.75-.75s.34-.75,.75-.75h3c.41,0,.75,.34,.75,.75s-.34,.75-.75,.75Z"/></g></g><g id="q"/><g id="r"/><g id="s"/><g id="t"/><g id="u"/></svg>