<?xml version="1.0" encoding="UTF-8"?><svg xmlns="http://www.w3.org/2000/svg" viewBox="0 0 24 24"><g id="a"/><g id="b"/><g id="c"/><g id="d"/><g id="e"/><g id="f"/><g id="g"/><g id="h"/><g id="i"/><g id="j"/><g id="k"/><g id="l"/><g id="m"/><g id="n"/><g id="o"/><g id="p"/><g id="q"/><g id="r"/><g id="s"/><g id="t"/><g id="u"><g><path d="M16,5.25H5c-1.52,0-2.75,1.23-2.75,2.75v7c0,1.52,1.23,2.75,2.75,2.75h11c1.52,0,2.75-1.23,2.75-2.75v-7c0-1.52-1.23-2.75-2.75-2.75Zm-1.88,7.17c-.23,.35-.7,.44-1.04,.21l-1.83-1.22v1.6c0,.28-.15,.53-.4,.66-.11,.06-.23,.09-.35,.09-.15,0-.29-.04-.42-.13l-3-2c-.34-.23-.44-.7-.21-1.04,.23-.35,.7-.44,1.04-.21l1.83,1.22v-1.6c0-.28,.15-.53,.4-.66,.24-.13,.54-.12,.77,.04l3,2c.34,.23,.44,.7,.21,1.04Z"/><path d="M21,7.25c-.41,0-.75,.34-.75,.75v7c0,.41,.34,.75,.75,.75s.75-.34,.75-.75v-7c0-.41-.34-.75-.75-.75Z"/></g></g></svg>