<?xml version="1.0" encoding="UTF-8"?><svg xmlns="http://www.w3.org/2000/svg" viewBox="0 0 24 24"><g id="a"/><g id="b"/><g id="c"/><g id="d"/><g id="e"/><g id="f"/><g id="g"/><g id="h"/><g id="i"/><g id="j"/><g id="k"/><g id="l"/><g id="m"/><g id="n"/><g id="o"><g><polygon points="8.94 15.06 13.53 13.53 15.06 8.94 10.47 10.47 8.94 15.06"/><path d="M18.89,5.11c-1.84-1.84-4.29-2.86-6.89-2.86s-5.05,1.01-6.89,2.86c-1.84,1.84-2.86,4.29-2.86,6.89s1.01,5.05,2.86,6.89c1.84,1.84,4.29,2.86,6.89,2.86s5.05-1.01,6.89-2.86c1.84-1.84,2.86-4.29,2.86-6.89s-1.01-5.05-2.86-6.89Zm-2.26,3.84l-1.73,5.18c-.12,.37-.42,.67-.79,.79l-5.18,1.73c-.13,.04-.27,.06-.4,.06-.33,0-.64-.13-.88-.37-.34-.34-.45-.83-.3-1.28l1.73-5.18c.12-.37,.42-.67,.79-.79l5.18-1.73c.45-.15,.94-.04,1.28,.3s.45,.83,.3,1.28Z"/></g></g><g id="p"/><g id="q"/><g id="r"/><g id="s"/><g id="t"/><g id="u"/></svg>