<?xml version="1.0" encoding="UTF-8"?><svg xmlns="http://www.w3.org/2000/svg" viewBox="0 0 24 24"><g id="a"/><g id="b"/><g id="c"/><g id="d"><g><path d="M11.78,5.18l7.06,7.05,.51,.55,1.61-1.61c.68-.68,.68-1.79,0-2.47L15.3,3.04c-.68-.68-1.79-.68-2.47,0l-1.57,1.57,.53,.56Z"/><path d="M17.76,13.28l-7.05-7.05-.39-.42c-.34,.61-.54,1.29-.54,2.01s-.28,1.38-.78,1.88L3.63,15.07c-.71,.71-1.1,1.65-1.1,2.65s.39,1.94,1.1,2.65c.71,.71,1.65,1.1,2.65,1.1s1.94-.39,2.65-1.1l5.36-5.36c.5-.5,1.17-.78,1.88-.78s1.37-.19,1.97-.52l-.4-.43Zm-5.99,.02l-2.83,2.83c-.15,.15-.34,.22-.53,.22s-.38-.07-.53-.22c-.29-.29-.29-.77,0-1.06l2.83-2.83c.29-.29,.77-.29,1.06,0s.29,.77,0,1.06Z"/></g></g><g id="e"/><g id="f"/><g id="g"/><g id="h"/><g id="i"/><g id="j"/><g id="k"/><g id="l"/><g id="m"/><g id="n"/><g id="o"/><g id="p"/><g id="q"/><g id="r"/><g id="s"/><g id="t"/><g id="u"/></svg>