<?xml version="1.0" encoding="UTF-8"?><svg xmlns="http://www.w3.org/2000/svg" viewBox="0 0 24 24"><g id="a"/><g id="b"><path d="M16,8.25h-3.25v-.75c0-.41,.34-.75,.75-.75h2c1.24,0,2.25-1.01,2.25-2.25s-1.01-2.25-2.25-2.25h-1.5c-.41,0-.75,.34-.75,.75s.34,.75,.75,.75h1.5c.41,0,.75,.34,.75,.75s-.34,.75-.75,.75h-2c-1.24,0-2.25,1.01-2.25,2.25v.75h-3.25c-3.17,0-5.75,2.58-5.75,5.75s2.58,5.75,5.75,5.75h8c3.17,0,5.75-2.58,5.75-5.75s-2.58-5.75-5.75-5.75Zm-6,6.5h-1.25v1.25c0,.41-.34,.75-.75,.75s-.75-.34-.75-.75v-1.25h-1.25c-.41,0-.75-.34-.75-.75s.34-.75,.75-.75h1.25v-1.25c0-.41,.34-.75,.75-.75s.75,.34,.75,.75v1.25h1.25c.41,0,.75,.34,.75,.75s-.34,.75-.75,.75Zm4.02,0c-.41,0-.75-.34-.75-.75s.33-.75,.75-.75h0c.42,0,.75,.34,.75,.75s-.33,.75-.75,.75Zm2,2c-.41,0-.75-.34-.75-.75s.33-.75,.75-.75h0c.42,0,.75,.34,.75,.75s-.33,.75-.75,.75Zm0-4c-.41,0-.75-.34-.75-.75s.33-.75,.75-.75h0c.42,0,.75,.34,.75,.75s-.33,.75-.75,.75Zm2,2c-.41,0-.75-.34-.75-.75s.33-.75,.75-.75h0c.42,0,.75,.34,.75,.75s-.33,.75-.75,.75Z"/></g><g id="c"/><g id="d"/><g id="e"/><g id="f"/><g id="g"/><g id="h"/><g id="i"/><g id="j"/><g id="k"/><g id="l"/><g id="m"/><g id="n"/><g id="o"/><g id="p"/><g id="q"/><g id="r"/><g id="s"/><g id="t"/><g id="u"/></svg>