<?xml version="1.0" encoding="UTF-8"?><svg xmlns="http://www.w3.org/2000/svg" viewBox="0 0 24 24"><g id="a"/><g id="b"/><g id="c"/><g id="d"/><g id="e"/><g id="f"><path d="M22.43,11.39L14,5.49c-.54-.38-1.23-.42-1.81-.12-.58,.3-.94,.9-.94,1.55v1.33c-1.39,.06-3.7,.46-5.73,2.17-2.5,2.1-3.17,4.93-3.29,6.93-.03,.54,.28,1.04,.79,1.24,.51,.2,1.08,.05,1.42-.37,.71-.87,1.94-2.01,3.76-2.5,1.17-.31,2.24-.26,3.06-.12v1.47c0,.66,.36,1.25,.94,1.55,.26,.13,.53,.2,.81,.2,.35,0,.7-.11,1-.32l8.43-5.9c.2-.14,.32-.37,.32-.61s-.12-.47-.32-.61Z"/></g><g id="g"/><g id="h"/><g id="i"/><g id="j"/><g id="k"/><g id="l"/><g id="m"/><g id="n"/><g id="o"/><g id="p"/><g id="q"/><g id="r"/><g id="s"/><g id="t"/><g id="u"/></svg>