<?xml version="1.0" encoding="UTF-8"?><svg xmlns="http://www.w3.org/2000/svg" viewBox="0 0 24 24"><g id="a"/><g id="b"/><g id="c"/><g id="d"/><g id="e"/><g id="f"/><g id="g"/><g id="h"/><g id="i"/><g id="j"/><g id="k"/><g id="l"/><g id="m"/><g id="n"/><g id="o"/><g id="p"/><g id="q"/><g id="r"><g><path d="M13.44,4.93l5.64,5.64,.54,.52,.88-.88c.71-.71,1.1-1.65,1.1-2.65s-.39-1.94-1.1-2.65l-1.41-1.41c-1.46-1.46-3.84-1.46-5.3,0l-.87,.87,.53,.56Z"/><path d="M18.03,11.64l-5.67-5.66-.52-.54L3.78,13.5c-.5,.5-.84,1.12-1,1.8l-.97,4.18c-.18,.76,.05,1.55,.6,2.1,.43,.43,1,.66,1.58,.66,.17,0,.34-.02,.51-.06l4.18-.97h0c.68-.16,1.31-.5,1.8-1l8.06-8.06-.53-.51Z"/></g></g><g id="s"/><g id="t"/><g id="u"/></svg>