<?xml version="1.0" encoding="UTF-8"?><svg xmlns="http://www.w3.org/2000/svg" viewBox="0 0 24 24"><g id="a"/><g id="b"/><g id="c"/><g id="d"/><g id="e"><g><path d="M2.76,17l4.94-5.65c.33-.38,.8-.59,1.3-.6h.02c.49,0,.96,.21,1.3,.57l2.57,2.83,3.07-2.3c.62-.46,1.48-.46,2.1,0l3.4,2.55,.3,.2V7c0-2.62-2.13-4.75-4.75-4.75H7c-2.62,0-4.75,2.13-4.75,4.75v10c0,.15,.03,.29,.04,.43l.47-.43ZM14.5,5.25c1.24,0,2.25,1.01,2.25,2.25s-1.01,2.25-2.25,2.25-2.25-1.01-2.25-2.25,1.01-2.25,2.25-2.25Z"/><circle cx="14.5" cy="7.5" r=".75"/><path d="M17.15,13.05c-.09-.07-.21-.07-.3,0l-2.96,2.22,4.5,4.95s0,.01,.01,.02l.85,.92c1.48-.81,2.5-2.36,2.5-4.16v-.58l-1.17-.8-3.43-2.57Z"/><path d="M17,20.93s0-.02-.02-.03l-7.79-8.57c-.07-.07-.16-.1-.19-.08-.04,0-.12,.01-.19,.08l-4.99,5.71-1.1,1.01c.77,1.59,2.38,2.69,4.26,2.69h10c.24,0,.47-.04,.69-.07l-.69-.75Z"/></g></g><g id="f"/><g id="g"/><g id="h"/><g id="i"/><g id="j"/><g id="k"/><g id="l"/><g id="m"/><g id="n"/><g id="o"/><g id="p"/><g id="q"/><g id="r"/><g id="s"/><g id="t"/><g id="u"/></svg>