<?xml version="1.0" encoding="UTF-8"?><svg xmlns="http://www.w3.org/2000/svg" viewBox="0 0 24 24"><g id="a"/><g id="b"/><g id="c"/><g id="d"/><g id="e"/><g id="f"/><g id="g"/><g id="h"/><g id="i"/><g id="j"/><g id="k"><g><path d="M6,11.75c1.81,0,3.33-1.29,3.67-3h11.33c.41,0,.75-.34,.75-.75s-.34-.75-.75-.75H9.67c-.35-1.71-1.86-3-3.67-3-2.07,0-3.75,1.68-3.75,3.75s1.68,3.75,3.75,3.75Z"/><path d="M21,15.25h-2.33c-.35-1.71-1.86-3-3.67-3s-3.33,1.29-3.67,3H3c-.41,0-.75,.34-.75,.75s.34,.75,.75,.75H11.33c.35,1.71,1.86,3,3.67,3s3.33-1.29,3.67-3h2.33c.41,0,.75-.34,.75-.75s-.34-.75-.75-.75Z"/></g></g><g id="l"/><g id="m"/><g id="n"/><g id="o"/><g id="p"/><g id="q"/><g id="r"/><g id="s"/><g id="t"/><g id="u"/></svg>