<?xml version="1.0" encoding="UTF-8"?><svg xmlns="http://www.w3.org/2000/svg" viewBox="0 0 24 24"><g id="a"/><g id="b"/><g id="c"/><g id="d"/><g id="e"/><g id="f"/><g id="g"/><g id="h"><g><path d="M15.22,11.7c-.72-.41-1.63-.17-2.05,.55-.45,.77-1.28,1.25-2.17,1.25H7c-1.38,0-2.5-1.12-2.5-2.5s1.12-2.5,2.5-2.5c.83,0,1.5-.67,1.5-1.5s-.67-1.5-1.5-1.5c-3.03,0-5.5,2.47-5.5,5.5s2.47,5.5,5.5,5.5h4c1.96,0,3.78-1.05,4.76-2.75,.41-.72,.17-1.63-.55-2.05Z"/><path d="M17,6.5h-4c-1.96,0-3.78,1.05-4.76,2.75-.41,.72-.17,1.63,.55,2.05s1.63,.17,2.05-.55c.45-.77,1.28-1.25,2.17-1.25h4c1.38,0,2.5,1.12,2.5,2.5s-1.12,2.5-2.5,2.5c-.83,0-1.5,.67-1.5,1.5s.67,1.5,1.5,1.5c3.03,0,5.5-2.47,5.5-5.5s-2.47-5.5-5.5-5.5Z"/></g></g><g id="i"/><g id="j"/><g id="k"/><g id="l"/><g id="m"/><g id="n"/><g id="o"/><g id="p"/><g id="q"/><g id="r"/><g id="s"/><g id="t"/><g id="u"/></svg>