<?xml version="1.0" encoding="UTF-8"?><svg xmlns="http://www.w3.org/2000/svg" viewBox="0 0 24 24"><g id="a"/><g id="b"/><g id="c"/><g id="d"/><g id="e"/><g id="f"/><g id="g"/><g id="h"/><g id="i"/><g id="j"/><g id="k"/><g id="l"/><g id="m"/><g id="n"/><g id="o"/><g id="p"/><g id="q"><g><rect x="9.75" y="9.75" width="4.5" height="4.5"/><path d="M15.75,14.25h5.73c.17-.72,.27-1.47,.27-2.25,0-4.05-2.48-7.53-6-9V14.25Z"/><path d="M14.25,8.25V2.52c-.72-.17-1.47-.27-2.25-.27-4.05,0-7.53,2.48-9,6H14.25Z"/><path d="M9.75,15.75v5.73c.72,.17,1.47,.27,2.25,.27,4.05,0,7.53-2.48,9-6H9.75Z"/><path d="M8.25,9.75H2.52c-.17,.72-.27,1.47-.27,2.25,0,4.05,2.48,7.53,6,9V9.75Z"/></g></g><g id="r"/><g id="s"/><g id="t"/><g id="u"/></svg>