<?xml version="1.0" encoding="UTF-8"?><svg xmlns="http://www.w3.org/2000/svg" viewBox="0 0 24 24"><g id="a"/><g id="b"/><g id="c"/><g id="d"/><g id="e"/><g id="f"/><g id="g"/><g id="h"/><g id="i"/><g id="j"/><g id="k"/><g id="l"/><g id="m"/><g id="n"/><g id="o"/><g id="p"/><g id="q"/><g id="r"/><g id="s"/><g id="t"><g><path d="M7.75,9c0-1.35,.62-2.59,1.7-3.4,.33-.25,.4-.72,.15-1.05-.25-.33-.72-.4-1.05-.15-1.46,1.1-2.3,2.77-2.3,4.6s.84,3.5,2.3,4.6c.13,.1,.29,.15,.45,.15,.23,0,.45-.1,.6-.3,.25-.33,.18-.8-.15-1.05-1.08-.81-1.7-2.05-1.7-3.4Z"/><path d="M15.45,4.4c-.33-.25-.8-.18-1.05,.15-.25,.33-.18,.8,.15,1.05,1.08,.81,1.7,2.05,1.7,3.4s-.62,2.59-1.7,3.4c-.33,.25-.4,.72-.15,1.05,.15,.2,.37,.3,.6,.3,.16,0,.31-.05,.45-.15,1.46-1.1,2.3-2.77,2.3-4.6s-.84-3.5-2.3-4.6Z"/><path d="M4.75,9c0-2.21,.99-4.27,2.72-5.66,.32-.26,.38-.73,.12-1.05-.26-.32-.73-.37-1.05-.12-2.08,1.67-3.28,4.16-3.28,6.83s1.2,5.16,3.28,6.83c.14,.11,.3,.16,.47,.16,.22,0,.44-.1,.59-.28,.26-.32,.21-.8-.12-1.05-1.73-1.38-2.72-3.45-2.72-5.66Z"/><path d="M17.47,2.17c-.32-.26-.8-.21-1.05,.12-.26,.32-.21,.8,.12,1.05,1.73,1.38,2.72,3.45,2.72,5.66s-.99,4.27-2.72,5.66c-.32,.26-.38,.73-.12,1.05,.15,.18,.37,.28,.59,.28,.16,0,.33-.05,.47-.16,2.08-1.67,3.28-4.16,3.28-6.83s-1.2-5.16-3.28-6.83Z"/><path d="M12,6.25c-1.52,0-2.75,1.23-2.75,2.75,0,1.25,.85,2.3,2,2.63v9.37c0,.41,.34,.75,.75,.75s.75-.34,.75-.75V11.63c1.15-.33,2-1.38,2-2.63,0-1.52-1.23-2.75-2.75-2.75Z"/></g></g><g id="u"/></svg>