<?xml version="1.0" encoding="UTF-8"?><svg xmlns="http://www.w3.org/2000/svg" viewBox="0 0 24 24"><g id="a"/><g id="b"/><g id="c"/><g id="d"/><g id="e"/><g id="f"><g><path d="M12,2.25C6.62,2.25,2.25,6.62,2.25,12s4.37,9.75,9.75,9.75,9.75-4.37,9.75-9.75S17.38,2.25,12,2.25Zm0,18c-4.55,0-8.25-3.7-8.25-8.25S7.45,3.75,12,3.75s8.25,3.7,8.25,8.25-3.7,8.25-8.25,8.25Z"/><path d="M8.5,11.25c.69,0,1.25-.56,1.25-1.25s-.56-1.25-1.25-1.25-1.25,.56-1.25,1.25,.56,1.25,1.25,1.25Zm0-1.5c.14,0,.25,.11,.25,.25,0,.28-.5,.28-.5,0,0-.14,.11-.25,.25-.25Z"/><path d="M15.55,8.25h-.05c-1.35,0-2.06,1.07-2.14,1.19-.22,.35-.11,.8,.23,1.02,.35,.22,.81,.12,1.03-.22,.01-.02,.33-.48,.89-.49,.53,.01,.83,.47,.84,.49,.14,.23,.39,.35,.64,.35,.14,0,.27-.04,.4-.11,.35-.22,.46-.68,.24-1.03-.07-.12-.77-1.17-2.09-1.19Z"/><path d="M16.21,13.28c-.39-.12-.81,.11-.93,.51-.42,1.45-1.77,2.46-3.28,2.46s-2.86-1.01-3.28-2.46c-.12-.4-.54-.63-.93-.51-.4,.12-.63,.53-.51,.93,.61,2.08,2.55,3.54,4.72,3.54s4.11-1.46,4.72-3.54c.12-.4-.11-.81-.51-.93Z"/></g></g><g id="g"/><g id="h"/><g id="i"/><g id="j"/><g id="k"/><g id="l"/><g id="m"/><g id="n"/><g id="o"/><g id="p"/><g id="q"/><g id="r"/><g id="s"/><g id="t"/><g id="u"/></svg>