<?xml version="1.0" encoding="UTF-8"?><svg xmlns="http://www.w3.org/2000/svg" viewBox="0 0 24 24"><g id="a"/><g id="b"/><g id="c"/><g id="d"/><g id="e"/><g id="f"/><g id="g"/><g id="h"/><g id="i"/><g id="j"/><g id="k"/><g id="l"/><g id="m"/><g id="n"/><g id="o"/><g id="p"><g><path d="M12,2.25C6.62,2.25,2.25,6.62,2.25,12s4.37,9.75,9.75,9.75,9.75-4.37,9.75-9.75S17.38,2.25,12,2.25Zm0,18c-4.55,0-8.25-3.7-8.25-8.25S7.45,3.75,12,3.75s8.25,3.7,8.25,8.25-3.7,8.25-8.25,8.25Z"/><path d="M15,13.25h-6c-.96,0-1.75,.79-1.75,1.75,0,2.07,1.68,3.75,3.75,3.75h2c2.07,0,3.75-1.68,3.75-3.75,0-.96-.79-1.75-1.75-1.75Zm-2,4h-2c-1.24,0-2.25-1.01-2.25-2.25,0-.14,.11-.25,.25-.25h6c.14,0,.25,.11,.25,.25,0,1.24-1.01,2.25-2.25,2.25Z"/><path d="M8.12,11.38l-.33-1.31c.15-.15,.39-.33,.73-.31,.53,.01,.83,.47,.84,.48,.14,.23,.39,.35,.64,.35,.14,0,.27-.04,.39-.11,.35-.22,.46-.68,.24-1.03-.07-.12-.76-1.17-2.09-1.19-1.11,0-1.91,.74-2.19,1.2,0,.01,0,.03-.02,.04l-1.12,.56c-.73,.36-1.16,1.1-1.12,1.91,.03,.81,.52,1.5,1.28,1.81,.25,.1,.5,.15,.76,.15,.48,0,.96-.17,1.34-.5,.58-.51,.82-1.28,.64-2.03Zm-1.62,.9c-.07,.06-.28,.2-.55,.09-.29-.12-.33-.37-.34-.48s.02-.36,.3-.5l.6-.3,.16,.65c.07,.29-.09,.47-.17,.54Z"/><path d="M18.77,10.05l-1.12-.56s0-.03-.02-.04c-.07-.12-.76-1.17-2.09-1.19-1.12,0-1.91,.74-2.19,1.2-.22,.35-.11,.8,.24,1.02,.35,.22,.81,.12,1.03-.23,.01-.02,.36-.52,.89-.49,.33,0,.55,.18,.69,.31l-.33,1.31c-.19,.75,.06,1.52,.64,2.03,.38,.33,.85,.5,1.34,.5,.26,0,.51-.05,.76-.15,.76-.3,1.25-.99,1.28-1.81,.03-.81-.4-1.54-1.12-1.91Zm-.71,2.32c-.27,.11-.48-.03-.55-.09s-.24-.25-.17-.54l.16-.65,.6,.3c.28,.14,.3,.4,.3,.5s-.05,.36-.34,.48Z"/></g></g><g id="q"/><g id="r"/><g id="s"/><g id="t"/><g id="u"/></svg>