<?xml version="1.0" encoding="UTF-8"?><svg xmlns="http://www.w3.org/2000/svg" viewBox="0 0 24 24"><g id="a"/><g id="b"/><g id="c"/><g id="d"/><g id="e"/><g id="f"/><g id="g"/><g id="h"/><g id="i"/><g id="j"/><g id="k"/><g id="l"/><g id="m"/><g id="n"/><g id="o"><g><path d="M12,2.25C6.62,2.25,2.25,6.62,2.25,12s4.37,9.75,9.75,9.75,9.75-4.37,9.75-9.75S17.38,2.25,12,2.25Zm0,1.5c3.27,0,6.1,1.92,7.43,4.69l-.91,.46c-.42-.97-1.39-1.65-2.52-1.65-1.25,0-2.3,.85-2.63,2h-2.73c-.33-1.15-1.38-2-2.63-2-1.13,0-2.09,.68-2.52,1.65l-.91-.46c1.33-2.77,4.16-4.69,7.43-4.69Zm5.25,6.25c0,.69-.56,1.25-1.25,1.25s-1.25-.56-1.25-1.25,.56-1.25,1.25-1.25,1.25,.56,1.25,1.25Zm-8,0c0,.69-.56,1.25-1.25,1.25s-1.25-.56-1.25-1.25,.56-1.25,1.25-1.25,1.25,.56,1.25,1.25Zm2.75,10.25c-4.55,0-8.25-3.7-8.25-8.25,0-.74,.11-1.46,.29-2.14l1.26,.63c.23,1.28,1.35,2.26,2.7,2.26,1.25,0,2.3-.85,2.63-2h2.73c.33,1.15,1.38,2,2.63,2,1.35,0,2.47-.98,2.7-2.26l1.26-.63c.18,.68,.29,1.4,.29,2.14,0,4.55-3.7,8.25-8.25,8.25Z"/><path d="M15.95,14.36c-.35-.22-.81-.1-1.03,.25-.62,1.01-1.74,1.64-2.92,1.64-.57,0-1.14-.15-1.64-.42-.36-.2-.82-.07-1.02,.3-.2,.36-.07,.82,.3,1.02,.72,.4,1.54,.61,2.36,.61,1.7,0,3.31-.9,4.2-2.36,.22-.35,.1-.82-.25-1.03Z"/></g></g><g id="p"/><g id="q"/><g id="r"/><g id="s"/><g id="t"/><g id="u"/></svg>