<?xml version="1.0" encoding="UTF-8"?><svg xmlns="http://www.w3.org/2000/svg" viewBox="0 0 24 24"><g id="a"/><g id="b"/><g id="c"/><g id="d"/><g id="e"/><g id="f"/><g id="g"/><g id="h"/><g id="i"/><g id="j"/><g id="k"/><g id="l"/><g id="m"/><g id="n"/><g id="o"/><g id="p"/><g id="q"/><g id="r"/><g id="s"/><g id="t"><g><path d="M12,2.25C6.62,2.25,2.25,6.62,2.25,12s4.37,9.75,9.75,9.75,9.75-4.37,9.75-9.75S17.38,2.25,12,2.25Zm0,18c-4.55,0-8.25-3.7-8.25-8.25S7.45,3.75,12,3.75s8.25,3.7,8.25,8.25-3.7,8.25-8.25,8.25Z"/><path d="M8.55,8.25c-1.37,0-2.11,1.07-2.19,1.19-.22,.35-.11,.8,.23,1.02,.35,.22,.81,.12,1.03-.23,.01-.02,.34-.52,.89-.49,.53,.01,.83,.47,.84,.49,.14,.23,.39,.35,.64,.35,.14,0,.27-.04,.4-.11,.35-.22,.46-.68,.24-1.03-.07-.12-.77-1.17-2.09-1.19Z"/><path d="M15.55,8.25c-1.38,0-2.11,1.07-2.19,1.19-.22,.35-.11,.8,.23,1.02,.35,.22,.81,.12,1.03-.23,.01-.02,.36-.52,.89-.49,.53,.01,.83,.47,.84,.49,.14,.23,.39,.35,.64,.35,.14,0,.27-.04,.4-.11,.35-.22,.46-.68,.24-1.03-.07-.12-.77-1.17-2.09-1.19Z"/><path d="M13,12.25h-1c-.41,0-.75,.34-.75,.75s.34,.75,.75,.75h1c.14,0,.25,.11,.25,.25s-.11,.25-.25,.25c-.41,0-.75,.34-.75,.75s.34,.75,.75,.75c.14,0,.25,.11,.25,.25s-.11,.25-.25,.25h-1c-.41,0-.75,.34-.75,.75s.34,.75,.75,.75h1c.96,0,1.75-.79,1.75-1.75,0-.37-.12-.72-.32-1,.2-.28,.32-.63,.32-1,0-.96-.79-1.75-1.75-1.75Z"/></g></g><g id="u"/></svg>