<?xml version="1.0" encoding="UTF-8"?><svg xmlns="http://www.w3.org/2000/svg" viewBox="0 0 24 24"><g id="a"/><g id="b"/><g id="c"/><g id="d"/><g id="e"/><g id="f"/><g id="g"/><g id="h"><g><path d="M12,2.25C6.62,2.25,2.25,6.62,2.25,12s4.37,9.75,9.75,9.75,9.75-4.37,9.75-9.75S17.38,2.25,12,2.25Zm0,18c-4.55,0-8.25-3.7-8.25-8.25S7.45,3.75,12,3.75s8.25,3.7,8.25,8.25-3.7,8.25-8.25,8.25Z"/><path d="M15,13.25h-6c-.96,0-1.75,.79-1.75,1.75,0,2.07,1.68,3.75,3.75,3.75h2c2.07,0,3.75-1.68,3.75-3.75,0-.96-.79-1.75-1.75-1.75Zm-2,4h-2c-1.24,0-2.25-1.01-2.25-2.25,0-.14,.11-.25,.25-.25h6c.14,0,.25,.11,.25,.25,0,1.24-1.01,2.25-2.25,2.25Z"/><path d="M8.5,12.03c.41,0,.82-.14,1.16-.43h0c.57-.49,1.08-1.06,1.5-1.67,.13-.18,.24-.36,.35-.54,.32-.55,.32-1.21,0-1.76-.32-.56-.92-.91-1.56-.91-.47,0-.93,.19-1.26,.52l-.19,.19-.19-.19c-.33-.33-.79-.53-1.27-.53-.64,0-1.24,.35-1.56,.91-.32,.56-.32,1.22,0,1.77,.11,.18,.22,.36,.35,.54,.42,.61,.93,1.17,1.5,1.67,.33,.29,.75,.43,1.16,.43Zm-1.71-3.4c-.06-.1-.03-.2,0-.26,.03-.05,.1-.15,.26-.15,.08,0,.15,.03,.2,.08l.72,.72c.29,.29,.77,.29,1.06,0l.72-.72c.05-.05,.13-.08,.2-.08,.16,0,.23,.11,.26,.15,.04,.06,.06,.16,0,.26-.09,.15-.19,.3-.29,.46-.35,.51-.77,.97-1.25,1.38-.11,.09-.25,.09-.36,0-.48-.41-.9-.88-1.25-1.38-.11-.15-.2-.31-.29-.45Z"/><path d="M18.51,7.62c-.32-.56-.92-.91-1.56-.91-.47,0-.93,.19-1.26,.52l-.19,.19-.19-.19c-.33-.33-.79-.53-1.27-.53-.64,0-1.24,.35-1.56,.91-.32,.56-.32,1.22,0,1.77,.11,.18,.22,.36,.35,.54,.42,.61,.93,1.17,1.5,1.67,.33,.29,.75,.43,1.16,.43s.82-.14,1.16-.43h0c.57-.49,1.08-1.06,1.5-1.67,.13-.18,.24-.36,.35-.54,.32-.55,.32-1.21,0-1.76Zm-1.3,1c-.09,.15-.19,.3-.29,.46-.35,.51-.77,.97-1.25,1.38-.11,.09-.25,.09-.36,0-.48-.41-.9-.88-1.25-1.38-.11-.15-.2-.31-.29-.45-.06-.1-.03-.2,0-.26,.03-.05,.1-.15,.26-.15,.08,0,.15,.03,.2,.08l.72,.72c.29,.29,.77,.29,1.06,0l.72-.72c.05-.05,.13-.08,.2-.08,.16,0,.23,.11,.26,.15,.04,.06,.06,.16,0,.26Z"/></g></g><g id="i"/><g id="j"/><g id="k"/><g id="l"/><g id="m"/><g id="n"/><g id="o"/><g id="p"/><g id="q"/><g id="r"/><g id="s"/><g id="t"/><g id="u"/></svg>