<?xml version="1.0" encoding="UTF-8"?><svg xmlns="http://www.w3.org/2000/svg" viewBox="0 0 24 24"><g id="a"/><g id="b"/><g id="c"/><g id="d"/><g id="e"/><g id="f"/><g id="g"/><g id="h"/><g id="i"/><g id="j"/><g id="k"/><g id="l"><g><path d="M12,2.25C6.62,2.25,2.25,6.62,2.25,12s4.37,9.75,9.75,9.75,9.75-4.37,9.75-9.75S17.38,2.25,12,2.25Zm0,18c-4.55,0-8.25-3.7-8.25-8.25S7.45,3.75,12,3.75s8.25,3.7,8.25,8.25-3.7,8.25-8.25,8.25Z"/><path d="M8.55,10.59c1.32-.03,2.01-1.07,2.08-1.19,.22-.35,.11-.81-.24-1.03-.35-.22-.81-.12-1.04,.23-.01,.02-.31,.48-.84,.49h-.02c-.53,0-.85-.46-.87-.49-.22-.35-.68-.45-1.03-.24-.35,.22-.46,.68-.24,1.03,.08,.12,.78,1.19,2.13,1.19h.05Z"/><path d="M17.4,8.37c-.35-.22-.81-.12-1.04,.23-.01,.02-.31,.48-.84,.49h-.02c-.53,0-.85-.46-.87-.49-.22-.35-.68-.45-1.03-.24-.35,.22-.46,.68-.24,1.03,.08,.12,.78,1.19,2.13,1.19h.05c1.32-.03,2.01-1.07,2.08-1.19,.22-.35,.11-.81-.24-1.03Z"/><path d="M15.4,14.55c-1.24,1.65-3.18,1.7-3.4,1.7-2.07,0-3.27-1.53-3.4-1.7-.25-.33-.72-.4-1.05-.15-.33,.25-.4,.72-.15,1.05,.29,.38,1.86,2.3,4.6,2.3,.48,0,2.96-.11,4.6-2.3,.25-.33,.18-.8-.15-1.05-.33-.25-.8-.18-1.05,.15Z"/></g></g><g id="m"/><g id="n"/><g id="o"/><g id="p"/><g id="q"/><g id="r"/><g id="s"/><g id="t"/><g id="u"/></svg>