<?xml version="1.0" encoding="UTF-8"?><svg xmlns="http://www.w3.org/2000/svg" viewBox="0 0 24 24"><g id="a"/><g id="b"/><g id="c"/><g id="d"/><g id="e"/><g id="f"/><g id="g"/><g id="h"/><g id="i"/><g id="j"/><g id="k"/><g id="l"/><g id="m"/><g id="n"><g><path d="M12,2.25C6.62,2.25,2.25,6.62,2.25,12s4.37,9.75,9.75,9.75,9.75-4.37,9.75-9.75S17.38,2.25,12,2.25Zm0,18c-4.55,0-8.25-3.7-8.25-8.25S7.45,3.75,12,3.75s8.25,3.7,8.25,8.25-3.7,8.25-8.25,8.25Z"/><path d="M8.5,10.75c.69,0,1.25-.56,1.25-1.25s-.56-1.25-1.25-1.25-1.25,.56-1.25,1.25,.56,1.25,1.25,1.25Zm0-1.5c.14,0,.25,.11,.25,.25,0,.28-.5,.28-.5,0,0-.14,.11-.25,.25-.25Z"/><path d="M15.5,8.25c-.69,0-1.25,.56-1.25,1.25s.56,1.25,1.25,1.25,1.25-.56,1.25-1.25-.56-1.25-1.25-1.25Zm-.25,1.25c0-.14,.11-.25,.25-.25s.25,.11,.25,.25c0,.28-.5,.28-.5,0Z"/><path d="M12,13.25c-2.17,0-4.11,1.46-4.72,3.54-.12,.4,.11,.81,.51,.93,.07,.02,.14,.03,.21,.03,.32,0,.62-.21,.72-.54,.42-1.45,1.77-2.46,3.28-2.46s2.86,1.01,3.28,2.46c.12,.4,.53,.62,.93,.51,.4-.12,.63-.53,.51-.93-.61-2.08-2.55-3.54-4.72-3.54Z"/></g></g><g id="o"/><g id="p"/><g id="q"/><g id="r"/><g id="s"/><g id="t"/><g id="u"/></svg>