<?xml version="1.0" encoding="UTF-8"?><svg xmlns="http://www.w3.org/2000/svg" viewBox="0 0 24 24"><g id="a"/><g id="b"/><g id="c"/><g id="d"/><g id="e"/><g id="f"/><g id="g"/><g id="h"/><g id="i"><g><path d="M12,2.25C6.62,2.25,2.25,6.62,2.25,12s4.37,9.75,9.75,9.75,9.75-4.37,9.75-9.75S17.38,2.25,12,2.25Zm0,18c-4.55,0-8.25-3.7-8.25-8.25S7.45,3.75,12,3.75s8.25,3.7,8.25,8.25-3.7,8.25-8.25,8.25Z"/><path d="M8.73,9.79l-1.07,.53c-.37,.19-.52,.64-.34,1.01,.13,.26,.4,.42,.67,.42,.11,0,.23-.03,.33-.08l2-1c.22-.11,.37-.31,.4-.55s-.04-.48-.21-.65l-2-2c-.29-.29-.77-.29-1.06,0s-.29,.77,0,1.06l1.26,1.26Z"/><path d="M15.47,7.47l-2,2c-.17,.17-.25,.41-.21,.65,.04,.24,.19,.44,.41,.55l2,1c.11,.05,.22,.08,.33,.08,.28,0,.54-.15,.67-.42,.19-.37,.04-.82-.34-1.01l-1.07-.53,1.26-1.26c.29-.29,.29-.77,0-1.06s-.77-.29-1.06,0Z"/><path d="M13,12.25h-2c-2.07,0-3.75,1.68-3.75,3.75,0,.96,.79,1.75,1.75,1.75h6c.96,0,1.75-.79,1.75-1.75,0-2.07-1.68-3.75-3.75-3.75Zm2,4h-6c-.14,0-.25-.11-.25-.25,0-1.24,1.01-2.25,2.25-2.25h2c1.24,0,2.25,1.01,2.25,2.25,0,.14-.11,.25-.25,.25Z"/></g></g><g id="j"/><g id="k"/><g id="l"/><g id="m"/><g id="n"/><g id="o"/><g id="p"/><g id="q"/><g id="r"/><g id="s"/><g id="t"/><g id="u"/></svg>