<?xml version="1.0" encoding="UTF-8"?><svg xmlns="http://www.w3.org/2000/svg" viewBox="0 0 24 24"><g id="a"/><g id="b"/><g id="c"/><g id="d"><g><path d="M12,2.25C6.62,2.25,2.25,6.62,2.25,12s4.37,9.75,9.75,9.75,9.75-4.37,9.75-9.75S17.38,2.25,12,2.25Zm0,18c-4.55,0-8.25-3.7-8.25-8.25S7.45,3.75,12,3.75s8.25,3.7,8.25,8.25-3.7,8.25-8.25,8.25Z"/><path d="M9.75,9.5c0-.69-.56-1.25-1.25-1.25s-1.25,.56-1.25,1.25,.56,1.25,1.25,1.25,1.25-.56,1.25-1.25Zm-1.5,0c0-.14,.11-.25,.25-.25s.25,.11,.25,.25c0,.28-.5,.28-.5,0Z"/><path d="M15.5,8.25c-.69,0-1.25,.56-1.25,1.25s.56,1.25,1.25,1.25,1.25-.56,1.25-1.25-.56-1.25-1.25-1.25Zm-.25,1.25c0-.14,.11-.25,.25-.25s.25,.11,.25,.25c0,.28-.5,.28-.5,0Z"/><path d="M14.36,13.86c-1.89-1.03-4.4-.65-5.9,.9-.29,.3-.28,.77,.02,1.06,.15,.14,.33,.21,.52,.21s.39-.08,.54-.23c1.04-1.08,2.79-1.35,4.1-.63,.37,.2,.82,.07,1.02-.3,.2-.36,.07-.82-.3-1.02Z"/></g></g><g id="e"/><g id="f"/><g id="g"/><g id="h"/><g id="i"/><g id="j"/><g id="k"/><g id="l"/><g id="m"/><g id="n"/><g id="o"/><g id="p"/><g id="q"/><g id="r"/><g id="s"/><g id="t"/><g id="u"/></svg>