<?xml version="1.0" encoding="UTF-8"?><svg xmlns="http://www.w3.org/2000/svg" viewBox="0 0 24 24"><g id="a"/><g id="b"/><g id="c"/><g id="d"/><g id="e"/><g id="f"/><g id="g"/><g id="h"/><g id="i"/><g id="j"><g><path d="M12,2.25C6.62,2.25,2.25,6.62,2.25,12s4.37,9.75,9.75,9.75,9.75-4.37,9.75-9.75S17.38,2.25,12,2.25Zm0,18c-4.55,0-8.25-3.7-8.25-8.25S7.45,3.75,12,3.75s8.25,3.7,8.25,8.25-3.7,8.25-8.25,8.25Z"/><path d="M7.63,10.24s.33-.49,.87-.49h.02c.53,.01,.83,.47,.84,.49,.14,.23,.39,.35,.64,.35,.14,0,.27-.04,.4-.11,.35-.22,.46-.68,.24-1.03-.07-.12-.77-1.17-2.09-1.19h-.05c-1.35,0-2.06,1.07-2.14,1.19-.22,.35-.11,.8,.23,1.02,.35,.22,.81,.12,1.03-.22Z"/><path d="M15.55,8.25h-.05c-1.35,0-2.06,1.07-2.14,1.19-.22,.35-.11,.8,.23,1.02,.35,.22,.81,.12,1.03-.22,.01-.02,.32-.47,.89-.49,.53,.01,.83,.47,.84,.49,.14,.23,.39,.35,.64,.35,.14,0,.27-.04,.4-.11,.35-.22,.46-.68,.24-1.03-.07-.12-.77-1.17-2.09-1.19Z"/><path d="M15.65,13.34c-.78,.42-2.05,.91-3.65,.91-.88,0-2.23-.16-3.65-.91-.37-.19-.82-.06-1.01,.31-.2,.37-.06,.82,.31,1.01,.18,.1,.37,.19,.55,.27l-.37,.74c-.46,.92-.09,2.04,.84,2.51,.26,.13,.55,.2,.83,.2,.2,0,.4-.03,.59-.1,.47-.16,.86-.49,1.08-.94l.79-1.59h.04c1.91,0,3.42-.59,4.35-1.09,.37-.2,.5-.65,.31-1.01-.2-.37-.65-.5-1.01-.31Zm-5.82,3.33c-.06,.12-.16,.17-.21,.18-.05,.02-.16,.04-.28-.02-.18-.09-.26-.31-.16-.49l.45-.9c.26,.07,.5,.12,.74,.16l-.53,1.07Z"/></g></g><g id="k"/><g id="l"/><g id="m"/><g id="n"/><g id="o"/><g id="p"/><g id="q"/><g id="r"/><g id="s"/><g id="t"/><g id="u"/></svg>