<?xml version="1.0" encoding="iso-8859-1"?>
<!-- Generator: Adobe Illustrator 20.1.0, SVG Export Plug-In . SVG Version: 6.00 Build 0)  -->
<svg version="1.1" id="Airticket" xmlns="http://www.w3.org/2000/svg" xmlns:xlink="http://www.w3.org/1999/xlink" x="0px" y="0px"
	 viewBox="0 0 32 16" style="enable-background:new 0 0 32 16;" xml:space="preserve">
<g>
	<path d="M30,0H18c-0.366,0-0.705,0.106-1,0.278C16.705,0.106,16.366,0,16,0H2C0.897,0,0,0.897,0,2v12c0,1.103,0.897,2,2,2h14
		c0.366,0,0.705-0.106,1-0.278C17.295,15.894,17.634,16,18,16h12c1.103,0,2-0.897,2-2V2C32,0.897,31.103,0,30,0z M30,1.999V6H18V2
		L30,1.999z M2,14V2l14-0.001V2v12H2z M18,14V8h12v6H18z"/>
	<rect x="26" y="10" width="2" height="2"/>
	<rect x="22" y="10" width="2" height="2"/>
	<rect x="20" y="3" width="8" height="2"/>
	<path d="M12,7H9V5H7v2H4v2h3v2h2V9h4c0.552,0,1-0.448,1-1V6h-2V7z"/>
</g>
</svg>
