<?xml version="1.0" encoding="iso-8859-1"?>
<!-- Generator: Adobe Illustrator 20.1.0, SVG Export Plug-In . SVG Version: 6.00 Build 0)  -->
<svg version="1.1" id="Bag-2" xmlns="http://www.w3.org/2000/svg" xmlns:xlink="http://www.w3.org/1999/xlink" x="0px" y="0px"
	 viewBox="0 0 22 32" style="enable-background:new 0 0 22 32;" xml:space="preserve">
<g>
	<path d="M19,4h-4V2h2V0H5v2h2v2H3C1.346,4,0,5.346,0,7v20c0,1.654,1.346,3,3,3v2h2v-2h12v2h2v-2c1.654,0,3-1.346,3-3V7
		C22,5.346,20.654,4,19,4z M9,2h4v2H9V2z M3,6h16c0.551,0,1,0.449,1,1v11H2V7C2,6.449,2.449,6,3,6z M19,28H3c-0.551,0-1-0.449-1-1
		v-7h18v7C20,27.551,19.551,28,19,28z"/>
	<polygon points="4,24 13,24 13,26 15,26 15,24 18,24 18,22 4,22 	"/>
	<path d="M6,16h10c1.103,0,2-0.897,2-2V9c0-0.552-0.448-1-1-1H5C4.448,8,4,8.448,4,9v5C4,15.103,4.897,16,6,16z M6,10h10v4H6V10z"/>
</g>
</svg>
