<?xml version="1.0" encoding="iso-8859-1"?>
<!-- Generator: Adobe Illustrator 20.1.0, SVG Export Plug-In . SVG Version: 6.00 Build 0)  -->
<svg version="1.1" id="Bag" xmlns="http://www.w3.org/2000/svg" xmlns:xlink="http://www.w3.org/1999/xlink" x="0px" y="0px"
	 viewBox="0 0 32 30" style="enable-background:new 0 0 32 30;" xml:space="preserve">
<g>
	<path d="M30,6h-8V2c0-1.284-1.024-1.989-2-2h-8c-1.299,0-2,1.03-2,2v4H2C0.897,6,0,6.897,0,8v20c0,1.103,0.897,2,2,2h28
		c1.103,0,2-0.897,2-2V8C32,6.897,31.103,6,30,6z M11,8l10,0V28H11V8z M9,28H7V8l2,0V28z M23,7.999l2,0V28h-2V7.999z M12,2h8v4h-8V2
		z M2,8l3,0v20H2V8z M30,28h-3V7.999l3,0V28z"/>
	<rect x="13" y="13" width="6" height="2"/>
	<rect x="15" y="10" width="2" height="2"/>
</g>
</svg>
