<?xml version="1.0" encoding="iso-8859-1"?>
<!-- Generator: Adobe Illustrator 20.1.0, SVG Export Plug-In . SVG Version: 6.00 Build 0)  -->
<svg version="1.1" id="Beach-3" xmlns="http://www.w3.org/2000/svg" xmlns:xlink="http://www.w3.org/1999/xlink" x="0px" y="0px"
	 viewBox="0 0 32 32" style="enable-background:new 0 0 32 32;" xml:space="preserve">
<path d="M29,30v-3.586l2.707-2.707l-1.414-1.414L27.586,25H17h-3v2h2v3h-4V13h9c0.552,0,1-0.448,1-1c0-5.932-4.234-10.478-10-10.953
	V0h-2v1.047C4.234,1.522,0,6.068,0,12c0,0.552,0.448,1,1,1h9v17H0v2h32v-2H29z M10,3.871V11H7.031C7.26,7.078,8.813,4.944,10,3.871z
	 M12,3.883c1.189,1.082,2.739,3.221,2.969,7.117H12V3.883z M19.953,11H16.96c-0.185-3.501-1.306-5.854-2.504-7.383
	C17.518,4.782,19.616,7.506,19.953,11z M7.526,3.625C6.333,5.151,5.223,7.501,5.04,11H2.047C2.383,7.513,4.474,4.794,7.526,3.625z
	 M18,27h9v3h-9V27z"/>
</svg>
