<?xml version="1.0" encoding="iso-8859-1"?>
<!-- Generator: Adobe Illustrator 20.1.0, SVG Export Plug-In . SVG Version: 6.00 Build 0)  -->
<svg version="1.1" id="Camp" xmlns="http://www.w3.org/2000/svg" xmlns:xlink="http://www.w3.org/1999/xlink" x="0px" y="0px"
	 viewBox="0 0 32 31.956" style="enable-background:new 0 0 32 31.956;" xml:space="preserve">
<path d="M31.894,30.508l-15-30c-0.339-0.678-1.45-0.678-1.789,0l-15,30c-0.155,0.31-0.138,0.678,0.044,0.973
	C0.331,31.776,0.653,31.956,1,31.956h30c0.347,0,0.668-0.18,0.851-0.474C32.033,31.187,32.049,30.818,31.894,30.508z M21,29.956
	h-1.434L17,25.679v-3.723h1c1.654,0,3,1.346,3,3V29.956z M16,27.899l1.234,2.056h-2.468L16,27.899z M15,25.679l-2.566,4.277H11v-5
	c0-1.654,1.346-3,3-3h1V25.679z M23,29.956v-5c0-2.757-2.243-5-5-5h-4c-2.757,0-5,2.243-5,5v5H2.618l1-2H7v-2H4.618L15,5.191v10.764
	h-2v2h6v-2h-2V5.191l10.382,20.764H25v2h3.382l1,2H23z"/>
</svg>
