<?xml version="1.0" encoding="iso-8859-1"?>
<!-- Generator: Adobe Illustrator 20.1.0, SVG Export Plug-In . SVG Version: 6.00 Build 0)  -->
<svg version="1.1" id="Diving" xmlns="http://www.w3.org/2000/svg" xmlns:xlink="http://www.w3.org/1999/xlink" x="0px" y="0px"
	 viewBox="0 0 32 28.001" style="enable-background:new 0 0 32 28.001;" xml:space="preserve">
<g>
	<path d="M10.895,13.447L12,11.236l1.105,2.211C13.275,13.786,13.621,14,14,14h6c2.206,0,4-1.794,4-4V4c0-2.206-1.794-4-4-4H4
		C1.794,0,0,1.794,0,4v6c0,2.206,1.794,4,4,4h6C10.379,14,10.725,13.786,10.895,13.447z M4,12c-1.103,0-2-0.897-2-2V4
		c0-1.103,0.897-2,2-2h16c1.103,0,2,0.897,2,2v6c0,1.103-0.897,2-2,2h-5.382L13,8.764V5h-2v3.764L9.382,12H4z"/>
	<path d="M31,0h-4c-0.552,0-1,0.448-1,1l0.044,20.969C26.025,21.982,25.969,21.999,26,22H15v-3h2v-2H7v2h2v7
		c0,0.744,0.315,1.202,0.579,1.456c0.522,0.501,1.186,0.545,1.378,0.545c0.02,0,0.034,0,0.043-0.001h19c1.299,0,2-1.03,2-2V1
		C32,0.448,31.552,0,31,0z M30,2v3h-2V2H30z M13,26l-2-0.011V19h2v3c0,0.97,0.701,2,2,2h11.042C26.829,24,28,23.407,28,22V7h2v19H13
		z"/>
	<path d="M4,5v3h2V6h2V4H5C4.448,4,4,4.448,4,5z"/>
</g>
</svg>
