<?xml version="1.0" encoding="iso-8859-1"?>
<!-- Generator: Adobe Illustrator 20.1.0, SVG Export Plug-In . SVG Version: 6.00 Build 0)  -->
<svg version="1.1" id="Diving-3" xmlns="http://www.w3.org/2000/svg" xmlns:xlink="http://www.w3.org/1999/xlink" x="0px" y="0px"
	 viewBox="0 0 19 32" style="enable-background:new 0 0 19 32;" xml:space="preserve">
<path d="M17,15.184V4c0-1.407-1.171-1.966-2-2H7V0H5v2H3v2h2v2H4c-2.206,0-4,1.794-4,4v18c0,2.206,1.794,4,4,4h4
	c2.206,0,4-1.794,4-4V10c0-2.206-1.794-4-4-4H7V4h8v11.184c-1.161,0.414-2,1.514-2,2.816c0,1.654,1.346,3,3,3s3-1.346,3-3
	C19,16.698,18.161,15.598,17,15.184z M10,21v2H2v-8h8v4H6v2H10z M8,30H4c-1.103,0-2-0.897-2-2v-3h8v3C10,29.103,9.103,30,8,30z
	 M10,10v3H2v-3c0-1.103,0.897-2,2-2h4C9.103,8,10,8.897,10,10z M16,19c-0.551,0-1-0.449-1-1s0.449-1,1-1s1,0.449,1,1
	S16.551,19,16,19z"/>
</svg>
