<?xml version="1.0" encoding="iso-8859-1"?>
<!-- Generator: Adobe Illustrator 20.1.0, SVG Export Plug-In . SVG Version: 6.00 Build 0)  -->
<svg version="1.1" id="Hotelsign-2" xmlns="http://www.w3.org/2000/svg" xmlns:xlink="http://www.w3.org/1999/xlink" x="0px"
	 y="0px" viewBox="0 0 32 32" style="enable-background:new 0 0 32 32;" xml:space="preserve">
<g>
	<path d="M32,4V2H5V1c0-0.552-0.448-1-1-1H1C0.448,0,0,0.448,0,1v30c0,0.552,0.448,1,1,1h3c0.552,0,1-0.448,1-1V4h5v2H8
		C7.448,6,7,6.448,7,7v16c0,0.552,0.448,1,1,1h22c0.552,0,1-0.448,1-1V7c0-0.552-0.448-1-1-1h-2V4H32z M3,30H2V2h1V30z M29,22H9V8
		h20V22z M26,6H12V4h14V6z"/>
	<polygon points="17,16 21,16 21,20 23,20 23,10 21,10 21,14 17,14 17,10 15,10 15,20 17,20 	"/>
</g>
</svg>
