<?xml version="1.0" encoding="iso-8859-1"?>
<!-- Generator: Adobe Illustrator 20.1.0, SVG Export Plug-In . SVG Version: 6.00 Build 0)  -->
<svg version="1.1" id="Hotelsign" xmlns="http://www.w3.org/2000/svg" xmlns:xlink="http://www.w3.org/1999/xlink" x="0px" y="0px"
	 viewBox="0 0 32 32" style="enable-background:new 0 0 32 32;" xml:space="preserve">
<g>
	<path d="M30,0H2C0.897,0,0,0.897,0,2v28c0,1.103,0.897,2,2,2h28c1.103,0,2-0.897,2-2V2C32,0.897,31.103,0,30,0z M30,30H2V2
		l28-0.001V30z"/>
	<path d="M6,6h2V4H5C4.448,4,4,4.448,4,5v3h2V6z"/>
	<polygon points="12,17 20,17 20,24 22,24 22,8 20,8 20,15 12,15 12,8 10,8 10,24 12,24 	"/>
	<path d="M26,8h2V5c0-0.552-0.448-1-1-1h-3v2h2V8z"/>
	<path d="M28,28v-3h-2v2h-2v2h3C27.552,29,28,28.552,28,28z"/>
	<path d="M5,29h3v-2H6v-2H4v3C4,28.552,4.448,29,5,29z"/>
</g>
</svg>
