<?xml version="1.0" encoding="iso-8859-1"?>
<!-- Generator: Adobe Illustrator 20.1.0, SVG Export Plug-In . SVG Version: 6.00 Build 0)  -->
<svg version="1.1" id="Lighttower" xmlns="http://www.w3.org/2000/svg" xmlns:xlink="http://www.w3.org/1999/xlink" x="0px" y="0px"
	 viewBox="0 0 22 32" style="enable-background:new 0 0 22 32;" xml:space="preserve">
<g>
	<path d="M18,30v-8h2v-2h-2V10h2V8h-3h-1V3c0-0.552-0.448-1-1-1h-3V0h-2v2H7C6.448,2,6,2.448,6,3v5H5H2v2h2v10H2v2h2v8H0v2h22v-2H18
		z M8,7h4V5H8V4h6v4H8V7z M6,10h1h8h1v10H6V10z M6,30v-8h10v8H6z"/>
	<rect x="7" y="12" width="2" height="2"/>
	<rect x="10" y="12" width="2" height="2"/>
	<rect x="13" y="12" width="2" height="2"/>
	<rect x="7" y="16" width="8" height="2"/>
	<rect x="7" y="23" width="2" height="2"/>
	<rect x="10" y="23" width="2" height="2"/>
	<rect x="13" y="23" width="2" height="2"/>
	<rect x="7" y="27" width="8" height="2"/>
</g>
</svg>
