<?xml version="1.0" encoding="iso-8859-1"?>
<!-- Generator: Adobe Illustrator 20.1.0, SVG Export Plug-In . SVG Version: 6.00 Build 0)  -->
<svg version="1.1" id="Passport" xmlns="http://www.w3.org/2000/svg" xmlns:xlink="http://www.w3.org/1999/xlink" x="0px" y="0px"
	 viewBox="0 0 26 32" style="enable-background:new 0 0 26 32;" xml:space="preserve">
<g>
	<path d="M24,0H1C0.448,0,0,0.448,0,1v30c0,0.552,0.448,1,1,1h23c1.103,0,2-0.897,2-2V2C26,0.897,25.103,0,24,0z M24,30H2V2h2v25h2
		V2h18V30z"/>
	<path d="M15,18c3.86,0,7-3.14,7-7s-3.14-7-7-7s-7,3.14-7,7S11.14,18,15,18z M11.026,14H14v1.899
		C12.787,15.652,11.747,14.953,11.026,14z M10,11c0-0.342,0.035-0.677,0.101-1H14v2h-3.899C10.035,11.677,10,11.342,10,11z M20,11
		c0,0.342-0.035,0.677-0.101,1H16v-2h3.899C19.965,10.323,20,10.658,20,11z M16,15.899V14h2.974
		C18.253,14.953,17.213,15.652,16,15.899z M18.974,8H16V6.101C17.213,6.348,18.253,7.047,18.974,8z M14,6.101V8h-2.974
		C11.747,7.047,12.787,6.348,14,6.101z"/>
	<rect x="10" y="21" width="10" height="2"/>
	<rect x="10" y="25" width="2" height="2"/>
	<rect x="13" y="25" width="2" height="2"/>
	<rect x="18" y="25" width="2" height="2"/>
</g>
</svg>
