<?xml version="1.0" encoding="iso-8859-1"?>
<!-- Generator: Adobe Illustrator 20.1.0, SVG Export Plug-In . SVG Version: 6.00 Build 0)  -->
<svg version="1.1" id="Postcard" xmlns="http://www.w3.org/2000/svg" xmlns:xlink="http://www.w3.org/1999/xlink" x="0px" y="0px"
	 viewBox="0 0 32 24" style="enable-background:new 0 0 32 24;" xml:space="preserve">
<g>
	<path d="M31,0H1C0.448,0,0,0.448,0,1v22c0,0.552,0.448,1,1,1h30c0.552,0,1-0.448,1-1V1C32,0.448,31.552,0,31,0z M30,22H2V2h28V22z"
		/>
	<path d="M22,9c0,0.552,0.448,1,1,1h4c0.552,0,1-0.448,1-1V5c0-0.552-0.448-1-1-1h-4c-0.552,0-1,0.448-1,1v1h-3v2h3V9z M24,6h2v2h-2
		V6z"/>
	<rect x="14" y="5" width="2" height="14"/>
	<rect x="18" y="13" width="10" height="2"/>
	<rect x="18" y="17" width="10" height="2"/>
	<rect x="4" y="17" width="6" height="2"/>
	<rect x="4" y="13" width="8" height="2"/>
	<rect x="4" y="9" width="8" height="2"/>
	<rect x="4" y="5" width="4" height="2"/>
</g>
</svg>
