<?xml version="1.0" encoding="iso-8859-1"?>
<!-- Generator: Adobe Illustrator 20.1.0, SVG Export Plug-In . SVG Version: 6.00 Build 0)  -->
<svg version="1.1" id="Sandtower-2" xmlns="http://www.w3.org/2000/svg" xmlns:xlink="http://www.w3.org/1999/xlink" x="0px"
	 y="0px" viewBox="0 0 32 32" style="enable-background:new 0 0 32 32;" xml:space="preserve">
<g>
	<path d="M31,13h-4c-0.552,0-1,0.448-1,1v3h-2V1c0-0.552-0.448-1-1-1h-4c-0.552,0-1,0.448-1,1v5h-4V1c0-0.552-0.448-1-1-1H9
		C8.448,0,8,0.448,8,1v16H6v-3c0-0.552-0.448-1-1-1H1c-0.552,0-1,0.448-1,1v17c0,0.552,0.448,1,1,1h30c0.552,0,1-0.448,1-1V14
		C32,13.448,31.552,13,31,13z M27,19c0.552,0,1-0.448,1-1v-3h2v11h-6v-7H27z M12,2v5c0,0.552,0.448,1,1,1h6c0.552,0,1-0.448,1-1V2h2
		v8H10V2H12z M4,15v3c0,0.552,0.448,1,1,1h3v7H2V15H4z M2,28h6v2H2V28z M10,12h12v18h-2v-6c0-0.552-0.448-1-1-1h-6
		c-0.552,0-1,0.448-1,1v6h-2V12z M18,30h-4v-5h4V30z M24,30v-2h6v2H24z"/>
	<rect x="15" y="14" width="2" height="2"/>
	<rect x="18" y="14" width="2" height="2"/>
	<rect x="12" y="14" width="2" height="2"/>
	<rect x="12" y="18" width="8" height="2"/>
</g>
</svg>
