<svg xmlns="http://www.w3.org/2000/svg" viewBox="0 0 24 24"><title>11.Secure</title><g id="_11.Secure" data-name="11.Secure"><path d="M4.667,19.6A7,7,0,0,1,5.276,6.223a6,6,0,0,1,11.645.8,6.523,6.523,0,0,1,6.834,4.7l-1.924.544a4.534,4.534,0,0,0-5.577-3.093l-1.339.385L15,7.979A4,4,0,0,0,7.076,7.26l-.131.7-.7.106a5,5,0,0,0-.911,9.652Z"/><path d="M20,22a4,4,0,1,1,4-4A4,4,0,0,1,20,22Zm0-6a2,2,0,1,0,2,2A2,2,0,0,0,20,16Z"/><polygon points="10 19 8 19 8 14 20 14 20 16 10 16 10 19"/><rect x="12" y="15" width="2" height="4"/></g></svg>