<svg xmlns="http://www.w3.org/2000/svg" viewBox="0 0 24 24"><title>24.Media</title><g id="_24.Media" data-name="24.Media"><path d="M13,20H7A7,7,0,0,1,5.276,6.223a6,6,0,0,1,11.645.8,6.465,6.465,0,0,1,3.534.682l-.91,1.781a4.463,4.463,0,0,0-3.291-.311l-1.339.385L15,7.979A4,4,0,0,0,7.076,7.26l-.131.7-.7.106A5,5,0,0,0,7,18h6Z"/><path d="M18,22a3,3,0,1,1,3-3A3,3,0,0,1,18,22Zm0-4a1,1,0,1,0,1,1A1,1,0,0,0,18,18Z"/><path d="M21,19H19V10.613l1.316.438C20.693,11.177,24,12.355,24,15H22a1.909,1.909,0,0,0-1-1.38Z"/></g></svg>