<svg xmlns="http://www.w3.org/2000/svg" viewBox="0 0 24 24"><title>29.Database</title><g id="_29.Database" data-name="29.Database"><path d="M.4,13.334A7,7,0,0,1,5.275,4.223a6,6,0,0,1,11.646.8,6.467,6.467,0,0,1,4.716,1.459L20.363,8.028a4.5,4.5,0,0,0-4.108-.849l-1.33.383.054-1.383a1.881,1.881,0,0,1,.02-.2A4,4,0,0,0,7.075,5.26l-.13.7-.7.106a5,5,0,0,0-3.959,6.6Z"/><path d="M24,16H12V10H24ZM14,14h8V12H14Z"/><path d="M24,24H12V18H24ZM14,22h8V20H14Z"/><rect x="13" y="15" width="2" height="4"/><rect x="21" y="15" width="2" height="4"/><polygon points="9.293 14.707 7 12.414 4.707 14.707 3.293 13.293 7 9.586 10.707 13.293 9.293 14.707"/><rect x="6" y="11" width="2" height="11"/></g></svg>