<svg xmlns="http://www.w3.org/2000/svg" viewBox="0 0 24 24"><title>30.Database</title><g id="_30.Database" data-name="30.Database"><path d="M1.167,14.871A6.964,6.964,0,0,1,0,11,7.045,7.045,0,0,1,5.275,4.223a6,6,0,0,1,11.646.8,6.463,6.463,0,0,1,4.716,1.459L20.363,8.028a4.5,4.5,0,0,0-4.108-.849l-1.33.383.054-1.383a1.881,1.881,0,0,1,.02-.2A4,4,0,0,0,7.075,5.26l-.13.7-.7.106A5.026,5.026,0,0,0,2,11a4.975,4.975,0,0,0,.833,2.764Z"/><path d="M24,16H12V10H24ZM14,14h8V12H14Z"/><path d="M24,24H12V18H24ZM14,22h8V20H14Z"/><rect x="13" y="15" width="2" height="4"/><rect x="21" y="15" width="2" height="4"/><polygon points="7 23.414 3.293 19.707 4.707 18.293 7 20.586 9.293 18.293 10.707 19.707 7 23.414"/><rect x="6" y="11" width="2" height="11"/></g></svg>