<svg xmlns="http://www.w3.org/2000/svg" viewBox="0 0 24 24"><title>32.Image</title><g id="_32.Image" data-name="32.Image"><polygon points="24 24 6 24 6 14 8 14 8 22 22 22 22 10 19 10 19 8 24 8 24 24"/><polygon points="20.293 23.707 14 17.414 7.707 23.707 6.293 22.293 14 14.586 21.707 22.293 20.293 23.707"/><polygon points="22.293 19.707 19 16.414 16.707 18.707 15.293 17.293 19 13.586 23.707 18.293 22.293 19.707"/><path d="M12,12H4a4,4,0,0,1-.984-7.877A4.5,4.5,0,0,1,11.275,2.06,4.5,4.5,0,0,1,12,2a5,5,0,0,1,0,10ZM3.947,6A2,2,0,0,0,4,10h8a3,3,0,1,0-.936-5.832l-.9.3-.347-.88A2.5,2.5,0,0,0,5,4.5a2.3,2.3,0,0,0,.033.313L5.2,5.958l-1.222.047Z"/></g></svg>