<svg xmlns="http://www.w3.org/2000/svg" viewBox="0 0 24 24"><title>34.Computer</title><g id="_34.Computer" data-name="34.Computer"><path d="M24,20H0V14H22V13h2ZM2,18H22V16H2Z"/><polygon points="8.414 24 5 24 5 22 7.586 22 8 21.586 8 19 10 19 10 22.414 8.414 24"/><polygon points="19 24 15.586 24 14 22.414 14 19 16 19 16 21.586 16.414 22 19 22 19 24"/><polygon points="2 15 0 15 0 0 8 0 8 2 2 2 2 15"/><path d="M19,12H11a4,4,0,0,1-.984-7.877A4.5,4.5,0,0,1,18.275,2.06,4.5,4.5,0,0,1,19,2a5,5,0,0,1,0,10ZM10.947,6A2,2,0,0,0,11,10h8a3,3,0,1,0-.936-5.832l-.9.3-.347-.88A2.5,2.5,0,0,0,12,4.5a2.3,2.3,0,0,0,.033.313L12.2,5.958l-1.222.047Z"/></g></svg>