<svg xmlns="http://www.w3.org/2000/svg" viewBox="0 0 24 24"><title>36.Secure</title><g id="_36.Secure" data-name="36.Secure"><polygon points="5 24 0 24 0 8 18 8 18 11 16 11 16 10 2 10 2 22 5 22 5 24"/><path d="M15,7H13V5a3,3,0,0,0-3-3H8A3,3,0,0,0,5,5V7H3V5A5.006,5.006,0,0,1,8,0h2a5.006,5.006,0,0,1,5,5Z"/><path d="M19,24H11a4,4,0,0,1-.984-7.877,4.5,4.5,0,0,1,8.259-2.063A5,5,0,1,1,19,24Zm-8.054-6A2,2,0,0,0,11,22h8a3,3,0,1,0-.936-5.832l-.9.3-.348-.88A2.5,2.5,0,0,0,12,16.5a2.355,2.355,0,0,0,.035.326l.17,1.146-1.227.033Z"/></g></svg>