<svg xmlns="http://www.w3.org/2000/svg" viewBox="0 0 24 24"><title>39.Protect</title><g id="_39.Protect" data-name="39.Protect"><path d="M24,6H0V0H24ZM2,4H22V2H2Z"/><path d="M4.587,22.268A21.6,21.6,0,0,1,.375,19.781L0,19.48V7H2V18.5a21.186,21.186,0,0,0,3.413,1.95Z"/><rect x="22" y="7" width="2" height="6"/><rect x="11" y="5" width="2" height="5"/><path d="M19,24H11a4,4,0,0,1-.984-7.877,4.5,4.5,0,0,1,8.259-2.063A5,5,0,1,1,19,24Zm-8.054-6A2,2,0,0,0,11,22h8a3,3,0,1,0-.936-5.832l-.9.3-.348-.88A2.5,2.5,0,0,0,12,16.5a2.355,2.355,0,0,0,.035.326l.17,1.146-1.227.033Z"/></g></svg>