<svg xmlns="http://www.w3.org/2000/svg" viewBox="0 0 24 24"><title>45.Cloud</title><g id="_45.Cloud" data-name="45.Cloud"><path d="M10,19H7A7,7,0,0,1,5.276,5.223a6,6,0,0,1,11.645.8,6.474,6.474,0,0,1,6.37,3.518l-1.781.91a4.5,4.5,0,0,0-5.256-2.276l-1.339.385L15,6.979A4,4,0,0,0,7.076,6.26l-.131.7-.7.106A5,5,0,0,0,7,17h3Z"/><path d="M18,21a4,4,0,1,1,4-4A4,4,0,0,1,18,21Zm0-6a2,2,0,1,0,2,2A2,2,0,0,0,18,15Z"/><rect x="17" y="11" width="2" height="3"/><rect x="17" y="20" width="2" height="3"/><rect x="21" y="16" width="3" height="2"/><rect x="12" y="16" width="3" height="2"/><rect x="19.586" y="13" width="2.828" height="2" transform="translate(-3.749 18.95) rotate(-45)"/><rect x="14" y="12.586" width="2" height="2.828" transform="translate(-5.506 14.707) rotate(-45)"/><rect x="13.586" y="19" width="2.828" height="2" transform="translate(-9.749 16.464) rotate(-45)"/><rect x="20" y="18.586" width="2" height="2.828" transform="translate(-7.991 20.707) rotate(-45)"/></g></svg>