<?xml version="1.0" encoding="UTF-8"?><svg xmlns="http://www.w3.org/2000/svg" viewBox="0 0 24 24"><defs><style>.v{fill:#231f20;}</style></defs><g id="a"/><g id="b"/><g id="c"/><g id="d"/><g id="e"/><g id="f"/><g id="g"/><g id="h"><g><path class="v" d="M3,7.75H21c.35,0,.66-.25,.73-.59,.07-.35-.11-.7-.43-.84L13.12,2.68c-.71-.32-1.52-.32-2.23,0L2.7,6.31c-.32,.14-.5,.5-.43,.84,.07,.35,.38,.59,.73,.59Z"/><path class="v" d="M10,10.75c.41,0,.75-.34,.75-.75s-.34-.75-.75-.75H4c-.41,0-.75,.34-.75,.75s.34,.75,.75,.75h.25v6.5h-.25c-.41,0-.75,.34-.75,.75s.34,.75,.75,.75h6c.41,0,.75-.34,.75-.75s-.34-.75-.75-.75h-.25v-6.5h.25Z"/><path class="v" d="M20,10.75c.41,0,.75-.34,.75-.75s-.34-.75-.75-.75h-6c-.41,0-.75,.34-.75,.75s.34,.75,.75,.75h.25v6.5h-.25c-.41,0-.75,.34-.75,.75s.34,.75,.75,.75h6c.41,0,.75-.34,.75-.75s-.34-.75-.75-.75h-.25v-6.5h.25Z"/><path class="v" d="M21,20.25H3c-.41,0-.75,.34-.75,.75s.34,.75,.75,.75H21c.41,0,.75-.34,.75-.75s-.34-.75-.75-.75Z"/></g></g><g id="i"/><g id="j"/><g id="k"/><g id="l"/><g id="m"/><g id="n"/><g id="o"/><g id="p"/><g id="q"/><g id="r"/><g id="s"/><g id="t"/><g id="u"/></svg>