<?xml version="1.0" encoding="UTF-8"?><svg xmlns="http://www.w3.org/2000/svg" viewBox="0 0 24 24"><defs><style>.v{fill:#231f20;}</style></defs><g id="a"/><g id="b"/><g id="c"/><g id="d"/><g id="e"/><g id="f"/><g id="g"/><g id="h"/><g id="i"/><g id="j"/><g id="k"/><g id="l"/><g id="m"/><g id="n"/><g id="o"/><g id="p"><g><path class="v" d="M13.5,12.75h-3.75v1.5h3.75c.41,0,.75-.34,.75-.75s-.34-.75-.75-.75Z"/><path class="v" d="M13.5,9.75h-3.75v1.5h3.75c.41,0,.75-.34,.75-.75s-.34-.75-.75-.75Z"/><path class="v" d="M12,2.25C6.62,2.25,2.25,6.62,2.25,12s4.37,9.75,9.75,9.75,9.75-4.37,9.75-9.75S17.38,2.25,12,2.25Zm3.75,11.25c0,1.16-.88,2.1-2,2.22v1.28c0,.41-.34,.75-.75,.75s-.75-.34-.75-.75v-1.25h-1.5v1.25c0,.41-.34,.75-.75,.75s-.75-.34-.75-.75v-1.25h-.25c-.41,0-.75-.34-.75-.75v-6c0-.41,.34-.75,.75-.75h.25v-1.25c0-.41,.34-.75,.75-.75s.75,.34,.75,.75v1.25h1.5v-1.25c0-.41,.34-.75,.75-.75s.75,.34,.75,.75v1.28c1.12,.13,2,1.07,2,2.22,0,.58-.22,1.1-.57,1.5,.36,.4,.57,.92,.57,1.5Z"/></g></g><g id="q"/><g id="r"/><g id="s"/><g id="t"/><g id="u"/></svg>