<?xml version="1.0" encoding="UTF-8"?><svg xmlns="http://www.w3.org/2000/svg" viewBox="0 0 24 24"><defs><style>.v{fill:#231f20;}</style></defs><g id="a"/><g id="b"/><g id="c"/><g id="d"><g><path class="v" d="M6.88,8.25c.98,0,1.85,.54,2.29,1.42,.18,.36,.54,.58,.95,.58h3.76c.4,0,.77-.22,.95-.58,.44-.87,1.31-1.42,2.29-1.42h4.58c-.37-2.82-2.78-5-5.7-5H8c-2.92,0-5.33,2.18-5.7,5H6.88Z"/><path class="v" d="M17.12,9.75c-.4,0-.77,.22-.95,.58-.44,.87-1.31,1.42-2.29,1.42h-3.76c-.98,0-1.85-.54-2.29-1.42-.18-.36-.54-.58-.95-.58H2.25v5.25c0,3.17,2.58,5.75,5.75,5.75h8c3.17,0,5.75-2.58,5.75-5.75v-5.25h-4.63Z"/></g></g><g id="e"/><g id="f"/><g id="g"/><g id="h"/><g id="i"/><g id="j"/><g id="k"/><g id="l"/><g id="m"/><g id="n"/><g id="o"/><g id="p"/><g id="q"/><g id="r"/><g id="s"/><g id="t"/><g id="u"/></svg>