<?xml version="1.0" encoding="UTF-8"?><svg xmlns="http://www.w3.org/2000/svg" viewBox="0 0 24 24"><defs><style>.v{fill:#231f20;}</style></defs><g id="a"/><g id="b"/><g id="c"/><g id="d"/><g id="e"><g><circle class="v" cx="17.5" cy="6.5" r="4.25"/><rect class="v" x="2.25" y="13.25" width="10.5" height="7.5" rx="2.75" ry="2.75"/><path class="v" d="M20,12.25c-.41,0-.75,.34-.75,.75v1c0,1.24-1.01,2.25-2.25,2.25h-.19l.72-.72c.29-.29,.29-.77,0-1.06s-.77-.29-1.06,0l-2,2c-.07,.07-.13,.16-.16,.24-.04,.09-.06,.18-.06,.29s.02,.2,.06,.29c.04,.09,.09,.17,.16,.24l2,2c.15,.15,.34,.22,.53,.22s.38-.07,.53-.22c.29-.29,.29-.77,0-1.06l-.72-.72h.19c2.07,0,3.75-1.68,3.75-3.75v-1c0-.41-.34-.75-.75-.75Z"/><path class="v" d="M5,10.75c.41,0,.75-.34,.75-.75v-1c0-1.24,1.01-2.25,2.25-2.25h.19l-.72,.72c-.29,.29-.29,.77,0,1.06,.15,.15,.34,.22,.53,.22s.38-.07,.53-.22l2-2c.07-.07,.13-.16,.16-.24,.04-.09,.06-.18,.06-.29s-.02-.2-.06-.29c-.04-.09-.09-.17-.16-.24l-2-2c-.29-.29-.77-.29-1.06,0s-.29,.77,0,1.06l.72,.72h-.19c-2.07,0-3.75,1.68-3.75,3.75v1c0,.41,.34,.75,.75,.75Z"/></g></g><g id="f"/><g id="g"/><g id="h"/><g id="i"/><g id="j"/><g id="k"/><g id="l"/><g id="m"/><g id="n"/><g id="o"/><g id="p"/><g id="q"/><g id="r"/><g id="s"/><g id="t"/><g id="u"/></svg>