<?xml version="1.0" encoding="UTF-8"?><svg xmlns="http://www.w3.org/2000/svg" viewBox="0 0 24 24"><defs><style>.v{fill:#231f20;}</style></defs><g id="a"/><g id="b"/><g id="c"><g><path class="v" d="M20,19.25h-7.25V8.63c.91-.26,1.62-.97,1.88-1.88h5.37c.41,0,.75-.34,.75-.75s-.34-.75-.75-.75h-5.37c-.33-1.15-1.38-2-2.63-2s-2.3,.85-2.63,2H4c-.41,0-.75,.34-.75,.75s.34,.75,.75,.75h5.37c.26,.91,.97,1.62,1.88,1.88v10.62H4c-.41,0-.75,.34-.75,.75s.34,.75,.75,.75H20c.41,0,.75-.34,.75-.75s-.34-.75-.75-.75Z"/><path class="v" d="M21.73,12.91c0-.05-.01-.1-.03-.15-.02-.05-.04-.09-.07-.14-.01-.03-.02-.05-.04-.08l-3-4c-.28-.38-.92-.38-1.2,0l-3,4s-.02,.05-.04,.08c-.03,.04-.05,.09-.07,.14-.02,.05-.02,.1-.03,.15,0,.03-.02,.06-.02,.09s0,.06,0,.09c0,.01,0,.02,0,.03,.06,2.01,1.71,3.63,3.74,3.63s3.67-1.62,3.74-3.63c0-.01,0-.02,0-.03,0-.03,0-.06,0-.09s-.01-.06-.02-.09Zm-5.23-.66l1.5-2,1.5,2h-3Z"/><path class="v" d="M6,16.75c2.03,0,3.67-1.62,3.74-3.63,0-.01,0-.02,0-.03,0-.03,0-.06,0-.09s-.01-.06-.02-.09c0-.05-.01-.1-.03-.15-.02-.05-.04-.09-.07-.14-.01-.03-.02-.05-.04-.08l-3-4c-.28-.38-.92-.38-1.2,0l-3,4s-.02,.05-.04,.08c-.03,.04-.05,.09-.07,.14-.02,.05-.02,.1-.03,.15,0,.03-.02,.06-.02,.09s0,.06,0,.09c0,.01,0,.02,0,.03,.06,2.01,1.71,3.63,3.74,3.63Zm0-6.5l1.5,2h-3l1.5-2Z"/></g></g><g id="d"/><g id="e"/><g id="f"/><g id="g"/><g id="h"/><g id="i"/><g id="j"/><g id="k"/><g id="l"/><g id="m"/><g id="n"/><g id="o"/><g id="p"/><g id="q"/><g id="r"/><g id="s"/><g id="t"/><g id="u"/></svg>