<?xml version="1.0" encoding="UTF-8"?><svg xmlns="http://www.w3.org/2000/svg" viewBox="0 0 24 24"><defs><style>.v{fill:#231f20;}</style></defs><g id="a"/><g id="b"/><g id="c"/><g id="d"/><g id="e"/><g id="f"/><g id="g"/><g id="h"/><g id="i"/><g id="j"/><g id="k"/><g id="l"/><g id="m"/><g id="n"/><g id="o"><g><path class="v" d="M15,9.75h-6c-.69,0-1.25,.56-1.25,1.25v2c0,.69,.56,1.25,1.25,1.25h6c.69,0,1.25-.56,1.25-1.25v-2c0-.69-.56-1.25-1.25-1.25Zm0,3h-2c-.41,0-.75-.34-.75-.75s.34-.75,.75-.75h2c.41,0,.75,.34,.75,.75s-.34,.75-.75,.75Z"/><path class="v" d="M12,2.25C6.62,2.25,2.25,6.62,2.25,12s4.37,9.75,9.75,9.75,9.75-4.37,9.75-9.75S17.38,2.25,12,2.25Zm5.75,10.75c0,1.52-1.23,2.75-2.75,2.75h-6c-1.52,0-2.75-1.23-2.75-2.75v-2c0-1.52,1.23-2.75,2.75-2.75h6c1.52,0,2.75,1.23,2.75,2.75v2Z"/></g></g><g id="p"/><g id="q"/><g id="r"/><g id="s"/><g id="t"/><g id="u"/></svg>