<?xml version="1.0" encoding="UTF-8"?><svg xmlns="http://www.w3.org/2000/svg" viewBox="0 0 24 24"><defs><style>.v{fill:#231f20;}</style></defs><g id="a"/><g id="b"><path class="v" d="M17,3.25H7c-2.62,0-4.75,2.13-4.75,4.75v8c0,2.62,2.13,4.75,4.75,4.75h10c2.62,0,4.75-2.13,4.75-4.75V8c0-2.62-2.13-4.75-4.75-4.75Zm-4.47,13.28l-1,1c-.15,.15-.34,.22-.53,.22s-.38-.07-.53-.22c-.21-.21-.26-.52-.17-.78h-2.3c-2.07,0-3.75-1.68-3.75-3.75v-2c0-2.07,1.68-3.75,3.75-3.75,.41,0,.75,.34,.75,.75s-.34,.75-.75,.75c-1.24,0-2.25,1.01-2.25,2.25v2c0,1.24,1.01,2.25,2.25,2.25h2.3c-.09-.26-.04-.57,.17-.78,.29-.29,.77-.29,1.06,0l1,1c.07,.07,.12,.15,.16,.24,.08,.18,.08,.39,0,.57-.04,.09-.09,.17-.16,.24Zm-3.76-4.53c0,.41-.33,.75-.75,.75s-.75-.34-.75-.75,.33-.75,.75-.75h0c.42,0,.75,.34,.75,.75Zm3.25,.75c-.41,0-.75-.34-.75-.75s.33-.75,.75-.75h0c.42,0,.75,.34,.75,.75s-.33,.75-.75,.75Zm7.73,.25c0,2.07-1.68,3.75-3.75,3.75-.41,0-.75-.34-.75-.75s.34-.75,.75-.75c1.24,0,2.25-1.01,2.25-2.25v-2c0-1.24-1.01-2.25-2.25-2.25h-2.3c.09,.26,.04,.57-.17,.78-.15,.15-.34,.22-.53,.22s-.38-.07-.53-.22l-1-1c-.07-.07-.12-.15-.16-.24-.08-.18-.08-.39,0-.57,.04-.09,.09-.17,.16-.24l1-1c.29-.29,.77-.29,1.06,0,.21,.21,.26,.52,.17,.78h2.3c2.07,0,3.75,1.68,3.75,3.75v2Zm-4.49-1c0-.41,.33-.75,.75-.75h0c.42,0,.75,.34,.75,.75s-.33,.75-.75,.75-.75-.34-.75-.75Z"/></g><g id="c"/><g id="d"/><g id="e"/><g id="f"/><g id="g"/><g id="h"/><g id="i"/><g id="j"/><g id="k"/><g id="l"/><g id="m"/><g id="n"/><g id="o"/><g id="p"/><g id="q"/><g id="r"/><g id="s"/><g id="t"/><g id="u"/></svg>