<?xml version="1.0" encoding="UTF-8"?><svg xmlns="http://www.w3.org/2000/svg" viewBox="0 0 24 24"><defs><style>.v{fill:#231f20;}</style></defs><g id="a"/><g id="b"/><g id="c"/><g id="d"/><g id="e"/><g id="f"/><g id="g"/><g id="h"/><g id="i"><g><path class="v" d="M7.29,6.24c.1,.31,.39,.51,.71,.51h8c.32,0,.61-.21,.71-.51l.78-2.34c.13-.38,.06-.8-.17-1.13-.23-.33-.61-.52-1.01-.52H7.69c-.4,0-.78,.19-1.01,.52-.23,.33-.3,.75-.17,1.13l.78,2.34Z"/><path class="v" d="M17.94,10.88s-.02-.03-.03-.04c-.41,.25-.89,.4-1.41,.4H7.5c-.52,0-1-.15-1.41-.4-.01,.01-.02,.03-.03,.04-1.16,1.16-1.81,2.71-1.81,4.36v.52c0,1.65,.64,3.19,1.81,4.36,1.05,1.05,2.45,1.63,3.94,1.63h4c1.47,0,2.91-.6,3.94-1.63,1.16-1.16,1.81-2.71,1.81-4.36v-.52c0-1.65-.64-3.19-1.81-4.36Z"/><path class="v" d="M7.5,9.75h9c.69,0,1.25-.56,1.25-1.25v-1s-.01-.05-.02-.08c-.42,.51-1.05,.83-1.73,.83H8c-.69,0-1.32-.32-1.73-.83,0,.03-.02,.05-.02,.08v1c0,.69,.56,1.25,1.25,1.25Z"/></g></g><g id="j"/><g id="k"/><g id="l"/><g id="m"/><g id="n"/><g id="o"/><g id="p"/><g id="q"/><g id="r"/><g id="s"/><g id="t"/><g id="u"/></svg>