<?xml version="1.0" encoding="UTF-8"?><svg xmlns="http://www.w3.org/2000/svg" viewBox="0 0 24 24"><defs><style>.v{fill:#231f20;}</style></defs><g id="a"/><g id="b"/><g id="c"/><g id="d"/><g id="e"/><g id="f"/><g id="g"/><g id="h"/><g id="i"/><g id="j"/><g id="k"/><g id="l"/><g id="m"/><g id="n"/><g id="o"/><g id="p"/><g id="q"/><g id="r"><g><polygon class="v" points="9.15 10.75 12 17.15 14.85 10.75 9.15 10.75"/><path class="v" d="M14.67,4.66l1.84,4.59h4.85c-.04-.1-.06-.21-.12-.31l-2.31-3.85c-.31-.52-.89-.85-1.5-.85h-2.97l.21,.41Z"/><polygon class="v" points="12.79 4.25 11.21 4.25 10.67 5.34 9.11 9.25 14.89 9.25 13.3 5.28 12.79 4.25"/><path class="v" d="M16.49,10.75l-3.64,8.22,.05,.11c.12-.07,.23-.15,.33-.26l7.74-7.74c.1-.1,.17-.22,.24-.33h-4.73Z"/><path class="v" d="M11.16,19.11l.05-.11-.33-.68-3.37-7.57H2.79c.07,.12,.14,.23,.24,.33l7.74,7.74c.12,.12,.26,.21,.4,.29Z"/><path class="v" d="M7.49,9.25l1.81-4.53,.24-.47h-2.97c-.61,0-1.19,.33-1.5,.85l-2.31,3.85c-.06,.1-.08,.2-.12,.3H7.49Z"/></g></g><g id="s"/><g id="t"/><g id="u"/></svg>