<?xml version="1.0" encoding="UTF-8"?><svg xmlns="http://www.w3.org/2000/svg" viewBox="0 0 24 24"><defs><style>.v{fill:#231f20;}</style></defs><g id="a"/><g id="b"/><g id="c"/><g id="d"/><g id="e"/><g id="f"/><g id="g"/><g id="h"/><g id="i"/><g id="j"><g><path class="v" d="M8.47,15.29s.02,.02,.04,.03l1.03,.9c.33,.29,.74,.43,1.15,.43s.85-.15,1.18-.46l3.56-3.5c.33-.33,.51-.77,.51-1.24,0-.47-.18-.91-.51-1.24l-5.66-5.66c-.66-.66-1.81-.66-2.47,0l-3.54,3.54c-.33,.33-.51,.77-.51,1.24s.18,.91,.51,1.24l4.71,4.71Zm-2.59-6.48c.29-.29,.77-.29,1.06,0l1.41,1.42c.29,.29,.29,.77,0,1.06-.15,.15-.34,.22-.53,.22s-.38-.07-.53-.22l-1.41-1.42c-.29-.29-.29-.77,0-1.06Z"/><path class="v" d="M16,6.75h5c.41,0,.75-.34,.75-.75s-.34-.75-.75-.75h-5c-.41,0-.75,.34-.75,.75s.34,.75,.75,.75Z"/><path class="v" d="M21,8.25h-4c-.41,0-.75,.34-.75,.75s.34,.75,.75,.75h4c.41,0,.75-.34,.75-.75s-.34-.75-.75-.75Z"/><path class="v" d="M21,11.25h-3c-.41,0-.75,.34-.75,.75s.34,.75,.75,.75h3c.41,0,.75-.34,.75-.75s-.34-.75-.75-.75Z"/><path class="v" d="M20,14.25h-4.01l-3.07,3.02c-.64,.59-1.42,.89-2.23,.89s-1.55-.29-2.14-.8l-1.07-.94-2.17-2.17h-1.31c-.96,0-1.75,.79-1.75,1.75v2c0,.96,.79,1.75,1.75,1.75H20c.96,0,1.75-.79,1.75-1.75v-2c0-.96-.79-1.75-1.75-1.75Z"/></g></g><g id="k"/><g id="l"/><g id="m"/><g id="n"/><g id="o"/><g id="p"/><g id="q"/><g id="r"/><g id="s"/><g id="t"/><g id="u"/></svg>