<?xml version="1.0" encoding="UTF-8"?><svg xmlns="http://www.w3.org/2000/svg" viewBox="0 0 24 24"><defs><style>.v{fill:#231f20;}</style></defs><g id="a"/><g id="b"/><g id="c"/><g id="d"/><g id="e"/><g id="f"/><g id="g"/><g id="h"/><g id="i"/><g id="j"/><g id="k"><path class="v" d="M12,2.25c-4.27,0-7.75,3.48-7.75,7.75v11c0,.41,.34,.75,.75,.75h14c.41,0,.75-.34,.75-.75V10c0-4.27-3.48-7.75-7.75-7.75Zm4.75,12.75c0,2.62-2.13,4.75-4.75,4.75s-4.75-2.13-4.75-4.75v-4c0-.41,.34-.75,.75-.75s.75,.34,.75,.75v4c0,1.79,1.46,3.25,3.25,3.25s3.25-1.46,3.25-3.25v-4c0-1.79-1.46-3.25-3.25-3.25-.57,0-1.13,.15-1.62,.43-.36,.21-.82,.09-1.02-.27-.21-.36-.09-.82,.27-1.03,.72-.42,1.54-.64,2.38-.64,2.62,0,4.75,2.13,4.75,4.75v4Zm-5-4v4c0,.14,.11,.25,.25,.25,.41,0,.75,.34,.75,.75s-.34,.75-.75,.75c-.96,0-1.75-.79-1.75-1.75v-4c0-.96,.79-1.75,1.75-1.75s1.75,.79,1.75,1.75v3c0,.41-.34,.75-.75,.75s-.75-.34-.75-.75v-3c0-.28-.5-.28-.5,0Z"/></g><g id="l"/><g id="m"/><g id="n"/><g id="o"/><g id="p"/><g id="q"/><g id="r"/><g id="s"/><g id="t"/><g id="u"/></svg>