<?xml version="1.0" encoding="UTF-8"?><svg xmlns="http://www.w3.org/2000/svg" viewBox="0 0 24 24"><defs><style>.v{fill:#231f20;}</style></defs><g id="a"/><g id="b"/><g id="c"/><g id="d"><g><path class="v" d="M8.75,13v-3c0-2.34,1.91-4.25,4.25-4.25h1.72c-.13-1.95-1.74-3.5-3.72-3.5H7c-2.07,0-3.75,1.68-3.75,3.75v12c0,2.07,1.68,3.75,3.75,3.75h4c2.07,0,3.75-1.68,3.75-3.75v-.75h-1.75c-2.34,0-4.25-1.91-4.25-4.25Zm1.25,7h-2c-.41,0-.75-.34-.75-.75s.34-.75,.75-.75h2c.41,0,.75,.34,.75,.75s-.34,.75-.75,.75Z"/><path class="v" d="M19,7.25h-6c-1.52,0-2.75,1.23-2.75,2.75v.25h11.5v-.25c0-1.52-1.23-2.75-2.75-2.75Z"/><path class="v" d="M10.25,13c0,1.52,1.23,2.75,2.75,2.75h6c1.52,0,2.75-1.23,2.75-2.75v-1.25H10.25v1.25Z"/></g></g><g id="e"/><g id="f"/><g id="g"/><g id="h"/><g id="i"/><g id="j"/><g id="k"/><g id="l"/><g id="m"/><g id="n"/><g id="o"/><g id="p"/><g id="q"/><g id="r"/><g id="s"/><g id="t"/><g id="u"/></svg>