<?xml version="1.0" encoding="UTF-8"?><svg xmlns="http://www.w3.org/2000/svg" viewBox="0 0 24 24"><defs><style>.v{fill:#231f20;}</style></defs><g id="a"/><g id="b"/><g id="c"/><g id="d"/><g id="e"/><g id="f"/><g id="g"/><g id="h"><g><path class="v" d="M15.31,8.52l.5,.56,.91-.91c.68-.68,.68-1.79,0-2.47l-1.41-1.41c-.68-.68-1.79-.68-2.47,0l-.87,.87,.53,.56,2.81,2.81Z"/><path class="v" d="M7,14.75s.1,0,.15-.01l3.54-.71c.14-.03,.28-.1,.38-.21l3.68-3.68-.53-.59-2.8-2.8-.52-.55-3.73,3.73c-.1,.1-.18,.24-.21,.38l-.71,3.54c-.05,.25,.03,.5,.21,.68,.14,.14,.33,.22,.53,.22Z"/><path class="v" d="M19,10.25h-2.24l-4.63,4.63c-.31,.31-.71,.53-1.15,.61l-3.54,.71c-.15,.03-.29,.04-.44,.04-.6,0-1.17-.24-1.59-.66-.53-.53-.76-1.29-.61-2.03l.66-3.31h-.46c-1.52,0-2.75,1.23-2.75,2.75v5c0,1.52,1.23,2.75,2.75,2.75h14c1.52,0,2.75-1.23,2.75-2.75v-5c0-1.52-1.23-2.75-2.75-2.75Zm-1,8.5H6c-.41,0-.75-.34-.75-.75s.34-.75,.75-.75h12c.41,0,.75,.34,.75,.75s-.34,.75-.75,.75Zm0-3h-2c-.41,0-.75-.34-.75-.75s.34-.75,.75-.75h2c.41,0,.75,.34,.75,.75s-.34,.75-.75,.75Z"/></g></g><g id="i"/><g id="j"/><g id="k"/><g id="l"/><g id="m"/><g id="n"/><g id="o"/><g id="p"/><g id="q"/><g id="r"/><g id="s"/><g id="t"/><g id="u"/></svg>