<?xml version="1.0" encoding="UTF-8"?><svg xmlns="http://www.w3.org/2000/svg" viewBox="0 0 24 24"><defs><style>.v{fill:#231f20;}</style></defs><g id="a"/><g id="b"/><g id="c"/><g id="d"/><g id="e"><g><path class="v" d="M15.75,11c0-1.52-1.23-2.75-2.75-2.75H5c-1.52,0-2.75,1.23-2.75,2.75v.25H15.75v-.25Z"/><path class="v" d="M15.75,15v-2.25H2.25v2.25c0,1.52,1.23,2.75,2.75,2.75H13c1.52,0,2.75-1.23,2.75-2.75Z"/><path class="v" d="M17.25,11V7c0-.14-.11-.25-.25-.25h-4c2.34,0,4.25,1.91,4.25,4.25Z"/><path class="v" d="M18,2.25h-7c-2.07,0-3.75,1.68-3.75,3.75v.75h3.03c.12-.85,.85-1.5,1.72-1.5h5c.96,0,1.75,.79,1.75,1.75v4c0,.88-.65,1.6-1.5,1.72v2.28c0,2.34-1.91,4.25-4.25,4.25H7.48c.52,1.45,1.89,2.5,3.52,2.5h7c2.07,0,3.75-1.68,3.75-3.75V6c0-2.07-1.68-3.75-3.75-3.75Z"/></g></g><g id="f"/><g id="g"/><g id="h"/><g id="i"/><g id="j"/><g id="k"/><g id="l"/><g id="m"/><g id="n"/><g id="o"/><g id="p"/><g id="q"/><g id="r"/><g id="s"/><g id="t"/><g id="u"/></svg>