<?xml version="1.0" encoding="UTF-8"?><svg xmlns="http://www.w3.org/2000/svg" viewBox="0 0 24 24"><defs><style>.v{fill:#231f20;}</style></defs><g id="a"/><g id="b"/><g id="c"/><g id="d"/><g id="e"/><g id="f"/><g id="g"/><g id="h"/><g id="i"/><g id="j"/><g id="k"/><g id="l"/><g id="m"/><g id="n"/><g id="o"/><g id="p"/><g id="q"/><g id="r"/><g id="s"/><g id="t"/><g id="u"><g><path class="v" d="M15,7.25h-6c-1.52,0-2.75,1.23-2.75,2.75v9c0,1.52,1.23,2.75,2.75,2.75h6c1.52,0,2.75-1.23,2.75-2.75V10c0-1.52-1.23-2.75-2.75-2.75Zm-1,11.5h-4c-.41,0-.75-.34-.75-.75s.34-.75,.75-.75h4c.41,0,.75,.34,.75,.75s-.34,.75-.75,.75Zm0-3h-4c-.41,0-.75-.34-.75-.75s.34-.75,.75-.75h4c.41,0,.75,.34,.75,.75s-.34,.75-.75,.75Zm0-3h-4c-.41,0-.75-.34-.75-.75s.34-.75,.75-.75h4c.41,0,.75,.34,.75,.75s-.34,.75-.75,.75Z"/><path class="v" d="M19,2.25H5c-1.52,0-2.75,1.23-2.75,2.75v2c0,1.44,1.12,2.61,2.53,2.73,.14-2.21,1.97-3.98,4.22-3.98h6c2.25,0,4.08,1.76,4.22,3.98,1.41-.12,2.53-1.29,2.53-2.73v-2c0-1.52-1.23-2.75-2.75-2.75Z"/></g></g></svg>