<?xml version="1.0" encoding="UTF-8"?><svg xmlns="http://www.w3.org/2000/svg" viewBox="0 0 24 24"><defs><style>.v{fill:#231f20;}</style></defs><g id="a"/><g id="b"/><g id="c"/><g id="d"/><g id="e"/><g id="f"/><g id="g"><g><path class="v" d="M10.75,12c0,1.03,.49,1.95,1.25,2.54,.76-.6,1.25-1.51,1.25-2.54s-.49-1.95-1.25-2.54c-.76,.6-1.25,1.51-1.25,2.54Z"/><path class="v" d="M14,8.75c-.18,0-.34,.02-.51,.05,.78,.85,1.26,1.96,1.26,3.2s-.49,2.35-1.26,3.2c.17,.03,.34,.05,.51,.05,1.79,0,3.25-1.46,3.25-3.25s-1.46-3.25-3.25-3.25Z"/><path class="v" d="M9.25,12c0-1.24,.49-2.35,1.26-3.2-.17-.03-.34-.05-.51-.05-1.79,0-3.25,1.46-3.25,3.25s1.46,3.25,3.25,3.25c.18,0,.34-.02,.51-.05-.78-.85-1.26-1.96-1.26-3.2Z"/><path class="v" d="M16,3.25H8c-3.17,0-5.75,2.58-5.75,5.75v6c0,3.17,2.58,5.75,5.75,5.75h8c3.17,0,5.75-2.58,5.75-5.75v-6c0-3.17-2.58-5.75-5.75-5.75Zm-2,13.5c-.72,0-1.39-.17-2-.46-.61,.29-1.28,.46-2,.46-2.62,0-4.75-2.13-4.75-4.75s2.13-4.75,4.75-4.75c.72,0,1.39,.17,2,.46,.61-.29,1.28-.46,2-.46,2.62,0,4.75,2.13,4.75,4.75s-2.13,4.75-4.75,4.75Z"/></g></g><g id="h"/><g id="i"/><g id="j"/><g id="k"/><g id="l"/><g id="m"/><g id="n"/><g id="o"/><g id="p"/><g id="q"/><g id="r"/><g id="s"/><g id="t"/><g id="u"/></svg>