<?xml version="1.0" encoding="UTF-8"?><svg xmlns="http://www.w3.org/2000/svg" viewBox="0 0 24 24"><defs><style>.v{fill:#231f20;}</style></defs><g id="a"/><g id="b"/><g id="c"/><g id="d"/><g id="e"/><g id="f"><g><rect class="v" x="8.25" y="12.25" width="7.5" height="9.5" rx="2.75" ry="2.75"/><path class="v" d="M15,2.25h-6c-2.07,0-3.75,1.68-3.75,3.75v5c0,1.27,.64,2.39,1.61,3.07,.43-1.9,2.12-3.32,4.14-3.32h2c2.02,0,3.71,1.42,4.14,3.32,.97-.68,1.61-1.8,1.61-3.07V6c0-2.07-1.68-3.75-3.75-3.75Zm-.87,7.61c-.38,.17-.82,0-.99-.38-.2-.45-.65-.74-1.14-.74s-.94,.29-1.14,.74c-.13,.28-.4,.44-.68,.44-.1,0-.21-.02-.31-.07-.38-.17-.55-.61-.38-.99,.44-.98,1.43-1.62,2.51-1.62s2.06,.63,2.51,1.62c.17,.38,0,.82-.37,.99Zm1.58-2.53c-.34,.24-.81,.15-1.04-.19-.61-.87-1.61-1.39-2.67-1.39s-2.06,.52-2.67,1.4c-.15,.21-.38,.32-.62,.32-.15,0-.3-.04-.43-.13-.34-.24-.42-.7-.19-1.04,.89-1.28,2.35-2.04,3.9-2.04s3.01,.76,3.9,2.04c.24,.34,.15,.81-.19,1.04Z"/></g></g><g id="g"/><g id="h"/><g id="i"/><g id="j"/><g id="k"/><g id="l"/><g id="m"/><g id="n"/><g id="o"/><g id="p"/><g id="q"/><g id="r"/><g id="s"/><g id="t"/><g id="u"/></svg>