<?xml version="1.0" encoding="iso-8859-1"?>
<!-- Generator: Adobe Illustrator 20.1.0, SVG Export Plug-In . SVG Version: 6.00 Build 0)  -->
<svg version="1.1" id="Airport" xmlns="http://www.w3.org/2000/svg" xmlns:xlink="http://www.w3.org/1999/xlink" x="0px" y="0px"
	 viewBox="0 0 32.008 27" style="enable-background:new 0 0 32.008 27;" xml:space="preserve">
<g>
	<path d="M19,15h-5c-0.304,0-0.591,0.138-0.781,0.375l-8,10c-0.24,0.3-0.287,0.711-0.121,1.058C5.265,26.78,5.616,27,6,27h5
		c0.304,0,0.591-0.138,0.781-0.375l8-10c0.24-0.3,0.287-0.711,0.121-1.058C19.735,15.22,19.384,15,19,15z M10.52,25H8.081l6.4-8
		h2.439L10.52,25z"/>
	<path d="M30.707,12.293c-1.875-1.875-5.451-2.271-5.602-2.288C25.07,10.002,25.035,10,25,10h-5.52l-7.7-9.625
		C11.591,0.138,11.304,0,11,0H6C5.616,0,5.265,0.22,5.099,0.567c-0.167,0.346-0.12,0.758,0.121,1.058L11.92,10H6.677L4.929,5.628
		C4.777,5.249,4.409,5,4,5H1C0.448,5,0,5.448,0,6v10c0,0.552,0.448,1,1,1h9v-2H2V7h1.323l1.749,4.372C5.223,11.751,5.591,12,6,12
		h18.945c0.878,0.101,3.225,0.584,4.348,1.707c0.642,0.642,0.731,1.012,0.712,1.101c-0.012,0.054-0.113,0.136-0.211,0.192H22v2h8
		c0.104,0,0.209-0.017,0.308-0.049c0.138-0.044,1.352-0.47,1.641-1.675C32.173,14.345,31.755,13.341,30.707,12.293z M8.081,2h2.439
		l6.4,8H14.48L8.081,2z"/>
</g>
</svg>
