<?xml version="1.0" encoding="iso-8859-1"?>
<!-- Generator: Adobe Illustrator 20.1.0, SVG Export Plug-In . SVG Version: 6.00 Build 0)  -->
<svg version="1.1" id="Beach-2" xmlns="http://www.w3.org/2000/svg" xmlns:xlink="http://www.w3.org/1999/xlink" x="0px" y="0px"
	 viewBox="0 0 28 28" style="enable-background:new 0 0 28 28;" xml:space="preserve">
<g>
	<path d="M20.329,13c0.294-0.624,0.493-1.3,0.593-2H24V9h-3.08c-0.17-1.183-0.636-2.269-1.322-3.184l2.109-2.109l-1.414-1.414
		l-2.109,2.109C17.269,3.716,16.183,3.25,15,3.08V0h-2v3.08c-1.183,0.17-2.269,0.636-3.184,1.322L7.707,2.293L6.293,3.707
		l2.109,2.109C7.716,6.731,7.25,7.817,7.08,9H4v2h3.078c0.099,0.7,0.299,1.376,0.593,2H0v2h9.537h8.926H28v-2H20.329z M9.995,13
		C9.367,12.189,9,11.097,9,10c0-2.757,2.243-5,5-5s5,2.243,5,5c0,1.097-0.367,2.188-0.995,3H9.995z"/>
	<path d="M26.036,18.329C25.529,17.768,24.834,17,23.588,17c-1.281,0-1.943,0.828-2.381,1.375C20.808,18.875,20.67,19,20.388,19
		s-0.42-0.125-0.819-0.625c-0.438-0.547-1.1-1.375-2.38-1.375c-1.281,0-1.943,0.828-2.381,1.375C14.408,18.875,14.271,19,13.989,19
		c-0.28,0-0.418-0.125-0.816-0.624C12.735,17.828,12.073,17,10.793,17c-1.281,0-1.943,0.828-2.381,1.375
		C8.013,18.875,7.875,19,7.594,19s-0.419-0.125-0.819-0.625C6.337,17.828,5.675,17,4.395,17c-1.246,0-1.937,0.77-2.441,1.332
		C1.518,18.817,1.323,19,1,19H0v2h1c1.246,0,1.937-0.77,2.441-1.332C3.876,19.183,4.072,19,4.395,19
		c0.282,0,0.419,0.125,0.819,0.625C5.651,20.172,6.313,21,7.594,21s1.942-0.828,2.38-1.375c0.399-0.5,0.538-0.625,0.819-0.625
		c0.28,0,0.418,0.125,0.816,0.624C12.047,20.172,12.709,21,13.989,21c1.28,0,1.942-0.828,2.38-1.375
		c0.399-0.5,0.538-0.625,0.819-0.625s0.419,0.125,0.819,0.625c0.438,0.548,1.1,1.375,2.381,1.375s1.943-0.828,2.381-1.375
		C23.168,19.125,23.307,19,23.588,19c0.327,0,0.524,0.184,0.964,0.671C25.06,20.232,25.754,21,27,21h1v-2h-1
		C26.673,19,26.476,18.816,26.036,18.329z"/>
	<path d="M26.036,25.329C25.529,24.768,24.834,24,23.588,24c-1.281,0-1.943,0.828-2.381,1.375C20.808,25.875,20.67,26,20.388,26
		s-0.42-0.125-0.819-0.625c-0.438-0.547-1.1-1.375-2.38-1.375c-1.281,0-1.943,0.828-2.381,1.375C14.408,25.875,14.271,26,13.989,26
		c-0.28,0-0.418-0.125-0.816-0.624C12.735,24.828,12.073,24,10.793,24c-1.281,0-1.943,0.828-2.381,1.375
		C8.013,25.875,7.875,26,7.594,26s-0.419-0.125-0.819-0.625C6.337,24.828,5.675,24,4.395,24c-1.246,0-1.937,0.77-2.441,1.332
		C1.518,25.817,1.323,26,1,26H0v2h1c1.246,0,1.937-0.77,2.441-1.332C3.876,26.183,4.072,26,4.395,26
		c0.282,0,0.419,0.125,0.819,0.625C5.651,27.172,6.313,28,7.594,28s1.942-0.828,2.38-1.375c0.399-0.5,0.538-0.625,0.819-0.625
		c0.28,0,0.418,0.125,0.816,0.624C12.047,27.172,12.709,28,13.989,28c1.28,0,1.942-0.828,2.38-1.375
		c0.399-0.5,0.538-0.625,0.819-0.625s0.419,0.125,0.819,0.625c0.438,0.548,1.1,1.375,2.381,1.375s1.943-0.828,2.381-1.375
		C23.168,26.125,23.307,26,23.588,26c0.327,0,0.524,0.184,0.964,0.671C25.06,27.232,25.754,28,27,28h1v-2h-1
		C26.673,26,26.476,25.816,26.036,25.329z"/>
</g>
</svg>
