<?xml version="1.0" encoding="iso-8859-1"?>
<!-- Generator: Adobe Illustrator 20.1.0, SVG Export Plug-In . SVG Version: 6.00 Build 0)  -->
<svg version="1.1" id="Beach" xmlns="http://www.w3.org/2000/svg" xmlns:xlink="http://www.w3.org/1999/xlink" x="0px" y="0px"
	 viewBox="0 0 32 32" style="enable-background:new 0 0 32 32;" xml:space="preserve">
<g>
	<path d="M10.402,14.184l-2.109,2.109l1.414,1.414l2.109-2.109c0.915,0.686,2.001,1.151,3.184,1.322V20h2v-3.08
		c1.183-0.17,2.269-0.636,3.184-1.322l2.109,2.109l1.414-1.414l-2.109-2.109c0.686-0.915,1.151-2.001,1.322-3.184H26V9h-3.08
		c-0.17-1.183-0.636-2.269-1.322-3.184l2.109-2.109l-1.414-1.414l-2.109,2.109C19.269,3.716,18.183,3.25,17,3.08V0h-2v3.08
		c-1.183,0.17-2.269,0.636-3.184,1.322L9.707,2.293L8.293,3.707l2.109,2.109C9.716,6.731,9.25,7.817,9.08,9H6v2h3.08
		C9.25,12.183,9.716,13.269,10.402,14.184z M11,10c0-2.757,2.243-5,5-5s5,2.243,5,5s-2.243,5-5,5S11,12.757,11,10z"/>
	<path d="M27.016,23.063C25.621,22.541,24.18,22,21.331,22s-4.291,0.541-5.687,1.063C14.36,23.545,13.147,24,10.662,24
		c-2.484,0-3.696-0.455-4.979-0.937C4.288,22.541,2.847,22,0,22v2c2.484,0,3.696,0.455,4.979,0.937C6.374,25.459,7.815,26,10.662,26
		c2.849,0,4.29-0.541,5.685-1.063C17.632,24.455,18.845,24,21.331,24c2.485,0,3.698,0.455,4.982,0.937
		C27.709,25.459,29.151,26,32,26v-2C29.514,24,28.301,23.545,27.016,23.063z"/>
	<path d="M21.338,28c-2.849,0-4.29,0.541-5.685,1.063C14.368,29.545,13.155,30,10.669,30c-2.485,0-3.698-0.455-4.982-0.937
		C4.291,28.541,2.849,28,0,28v2c2.486,0,3.699,0.455,4.984,0.937C6.379,31.459,7.82,32,10.669,32s4.291-0.541,5.687-1.063
		C17.64,30.455,18.853,30,21.338,30c2.484,0,3.696,0.455,4.979,0.937C27.712,31.459,29.153,32,32,32v-2
		c-2.484,0-3.696-0.455-4.979-0.937C25.626,28.541,24.185,28,21.338,28z"/>
</g>
</svg>
