<?xml version="1.0" encoding="iso-8859-1"?>
<!-- Generator: Adobe Illustrator 20.1.0, SVG Export Plug-In . SVG Version: 6.00 Build 0)  -->
<svg version="1.1" id="Board-2" xmlns="http://www.w3.org/2000/svg" xmlns:xlink="http://www.w3.org/1999/xlink" x="0px" y="0px"
	 viewBox="0 0 24 30" style="enable-background:new 0 0 24 30;" xml:space="preserve">
<path d="M16.64,28C18.166,24.758,19,20.575,19,16c0-9.122-3.009-16-7-16S5,6.878,5,16c0,4.575,0.834,8.758,2.36,12H0v2h24v-2H16.64z
	 M12,20H7.243c-0.117-0.969-0.189-1.971-0.218-3h9.951c-0.06,2.135-0.31,4.157-0.739,6H13v-2C13,20.448,12.552,20,12,20z M16.98,15
	H13V2.34C14.952,3.605,16.806,8.417,16.98,15z M11,2.34V15H7.02C7.194,8.417,9.048,3.605,11,2.34z M9.594,28
	c-0.921-1.681-1.604-3.725-2.041-6H11v2c0,0.552,0.448,1,1,1h3.677c-0.358,1.087-0.777,2.099-1.271,3H9.594z"/>
</svg>
