<?xml version="1.0" encoding="iso-8859-1"?>
<!-- Generator: Adobe Illustrator 20.1.0, SVG Export Plug-In . SVG Version: 6.00 Build 0)  -->
<svg version="1.1" id="Boat" xmlns="http://www.w3.org/2000/svg" xmlns:xlink="http://www.w3.org/1999/xlink" x="0px" y="0px"
	 viewBox="0 0 32 31.981" style="enable-background:new 0 0 32 31.981;" xml:space="preserve">
<path d="M31,20.981H17v-3h12c0.386,0,0.737-0.222,0.903-0.57c0.166-0.348,0.117-0.761-0.127-1.06l-13-16
	c-0.379-0.468-1.173-0.468-1.552,0l-13,16c-0.244,0.299-0.293,0.712-0.127,1.06c0.166,0.349,0.517,0.57,0.903,0.57h12v3H1
	c-0.552,0-1,0.448-1,1v6c0,2.206,1.794,4,4,4h24c2.206,0,4-1.794,4-4v-6C32,21.429,31.552,20.981,31,20.981z M8.351,11.981L15,3.798
	v8.183H8.351z M17,3.798l6.649,8.183H17V3.798z M20,13.981v2h-3v-2H20z M22,15.981v-2h3.274l1.625,2H22z M6.726,13.981H10v2H5.101
	L6.726,13.981z M12,15.981v-2h3v2H12z M30,22.981v1H2v-1H30z M28,29.981H4c-1.103,0-2-0.897-2-2v-2h28v2
	C30,29.084,29.103,29.981,28,29.981z"/>
</svg>
