<?xml version="1.0" encoding="iso-8859-1"?>
<!-- Generator: Adobe Illustrator 20.1.0, SVG Export Plug-In . SVG Version: 6.00 Build 0)  -->
<svg version="1.1" id="Compass" xmlns="http://www.w3.org/2000/svg" xmlns:xlink="http://www.w3.org/1999/xlink" x="0px" y="0px"
	 viewBox="0 0 32 32" style="enable-background:new 0 0 32 32;" xml:space="preserve">
<g>
	<path d="M16,0C7.178,0,0,7.178,0,16s7.178,16,16,16s16-7.178,16-16S24.822,0,16,0z M16,30C8.28,30,2,23.72,2,16S8.28,2,16,2
		s14,6.28,14,14S23.72,30,16,30z"/>
	<path d="M16,4C9.383,4,4,9.383,4,16s5.383,12,12,12s12-5.383,12-12S22.617,4,16,4z M17,25.949V24h-2v1.949
		C10.283,25.479,6.521,21.717,6.051,17H8v-2H6.051C6.521,10.283,10.283,6.521,15,6.051V8h2V6.051
		c4.717,0.471,8.479,4.232,8.949,8.949H24v2h1.949C25.479,21.717,21.717,25.479,17,25.949z"/>
	<path d="M16.929,10.628C16.776,10.249,16.409,10,16,10s-0.776,0.249-0.929,0.628l-2,5c-0.095,0.239-0.095,0.504,0,0.743l2,5
		C15.224,21.751,15.591,22,16,22s0.776-0.249,0.929-0.628l2-5c0.095-0.239,0.095-0.504,0-0.743L16.929,10.628z M16,18.308L15.077,16
		L16,13.692L16.923,16L16,18.308z"/>
</g>
</svg>
