<?xml version="1.0" encoding="iso-8859-1"?>
<!-- Generator: Adobe Illustrator 20.1.0, SVG Export Plug-In . SVG Version: 6.00 Build 0)  -->
<svg version="1.1" id="Diving-2" xmlns="http://www.w3.org/2000/svg" xmlns:xlink="http://www.w3.org/1999/xlink" x="0px" y="0px"
	 viewBox="0 0 32 32" style="enable-background:new 0 0 32 32;" xml:space="preserve">
<path d="M30,15.184V4c0-1.407-1.171-1.966-2-2h-8V0h-2v2H7V0H5v2H2v2h3v2H4c-2.206,0-4,1.794-4,4v18c0,2.206,1.794,4,4,4h4
	c2.206,0,4-1.794,4-4V10c0-2.206-1.794-4-4-4H7V4h11v2h-1c-2.206,0-4,1.794-4,4v18c0,2.206,1.794,4,4,4h4c2.206,0,4-1.794,4-4V10
	c0-2.206-1.794-4-4-4h-1V4h8v11.184c-1.161,0.414-2,1.514-2,2.816c0,1.654,1.346,3,3,3s3-1.346,3-3
	C32,16.698,31.161,15.598,30,15.184z M10,21v2H2v-8h8v4H6v2H10z M8,30H4c-1.103,0-2-0.897-2-2v-3h8v3C10,29.103,9.103,30,8,30z
	 M10,10v3H2v-3c0-1.103,0.897-2,2-2h4C9.103,8,10,8.897,10,10z M23,21v2h-8v-8h8v4h-4v2H23z M21,30h-4c-1.103,0-2-0.897-2-2v-3h8v3
	C23,29.103,22.103,30,21,30z M23,10v3h-8v-3c0-1.103,0.897-2,2-2h4C22.103,8,23,8.897,23,10z M29,19c-0.551,0-1-0.449-1-1
	s0.449-1,1-1s1,0.449,1,1S29.551,19,29,19z"/>
</svg>
