<?xml version="1.0" encoding="iso-8859-1"?>
<!-- Generator: Adobe Illustrator 20.1.0, SVG Export Plug-In . SVG Version: 6.00 Build 0)  -->
<svg version="1.1" id="Icecream" xmlns="http://www.w3.org/2000/svg" xmlns:xlink="http://www.w3.org/1999/xlink" x="0px" y="0px"
	 viewBox="0 0 14 32" style="enable-background:new 0 0 14 32;" xml:space="preserve">
<path d="M11,0H3C1.346,0,0,1.346,0,3v18c0,0.552,0.447,1,1,1h3v8c0,1.103,0.897,2,2,2h2c1.103,0,2-0.897,2-2v-8h3
	c0.553,0,1-0.448,1-1V3C14,1.346,12.654,0,11,0z M3,2h8c0.552,0,1,0.449,1,1v5H8C7.495,8,7.068,8.386,7.007,8.888
	C6.975,9.148,6.807,10,6,10S5.025,9.148,4.995,8.896C4.941,8.387,4.513,8,4,8H2V3C2,2.449,2.448,2,3,2z M12,10v6H2v-6h1.226
	C3.588,10.95,4.414,12,6,12s2.412-1.05,2.774-2H12z M8,30H6v-8h2V30z M2,20v-2h10v2H2z"/>
</svg>
