<?xml version="1.0" encoding="iso-8859-1"?>
<!-- Generator: Adobe Illustrator 20.1.0, SVG Export Plug-In . SVG Version: 6.00 Build 0)  -->
<svg version="1.1" id="Pant" xmlns="http://www.w3.org/2000/svg" xmlns:xlink="http://www.w3.org/1999/xlink" x="0px" y="0px"
	 viewBox="0 0 32 28" style="enable-background:new 0 0 32 28;" xml:space="preserve">
<path d="M31,0H1C0.448,0,0,0.448,0,1v4v21c0,0.97,0.701,2,2,2h11c0.379,0,0.725-0.214,0.895-0.553L16,23.236l2.105,4.211
	C18.275,27.786,18.621,28,19,28h11c1.422,0,1.975-1.177,2-2V5V1C32,0.448,31.553,0,31,0z M2,2h28v2H2V2z M29.993,26H19.618
	L17,20.764V14h-2v6.764L12.382,26H2V11h2v2h2v-2h3V9H2V6h13v1.586l-1.707,1.707l1.414,1.414L16,9.414l1.293,1.293l1.414-1.414
	L17,7.586V6h13l0,3h-7v2h3v2h2v-2h2.001l0.001,14.943C30,25.962,29.994,25.987,29.993,26z"/>
</svg>
