<?xml version="1.0" encoding="iso-8859-1"?>
<!-- Generator: Adobe Illustrator 20.1.0, SVG Export Plug-In . SVG Version: 6.00 Build 0)  -->
<svg version="1.1" id="Postcard-2" xmlns="http://www.w3.org/2000/svg" xmlns:xlink="http://www.w3.org/1999/xlink" x="0px" y="0px"
	 viewBox="0 0 32 24" style="enable-background:new 0 0 32 24;" xml:space="preserve">
<g>
	<path d="M31,0H5C4.448,0,4,0.448,4,1v3H1C0.448,4,0,4.448,0,5v18c0,0.552,0.448,1,1,1h26c0.552,0,1-0.448,1-1v-1h3
		c0.552,0,1-0.448,1-1V1C32,0.448,31.552,0,31,0z M26,22H2V6h24V22z M30,20h-2V5c0-0.552-0.448-1-1-1H6V2h24V20z"/>
	<path d="M19,14h4c0.552,0,1-0.448,1-1V9c0-0.552-0.448-1-1-1h-4c-0.552,0-1,0.448-1,1v4C18,13.552,18.448,14,19,14z M20,10h2v2h-2
		V10z"/>
	<rect x="12" y="8" width="2" height="12"/>
	<rect x="16" y="18" width="8" height="2"/>
	<rect x="4" y="18" width="6" height="2"/>
	<rect x="4" y="15" width="6" height="2"/>
	<rect x="4" y="12" width="6" height="2"/>
	<rect x="4" y="9" width="2" height="2"/>
	<rect x="7" y="9" width="2" height="2"/>
	<rect x="22" y="15" width="2" height="2"/>
	<rect x="19" y="15" width="2" height="2"/>
</g>
</svg>
