<?xml version="1.0" encoding="iso-8859-1"?>
<!-- Generator: Adobe Illustrator 20.1.0, SVG Export Plug-In . SVG Version: 6.00 Build 0)  -->
<svg version="1.1" id="Safejecket" xmlns="http://www.w3.org/2000/svg" xmlns:xlink="http://www.w3.org/1999/xlink" x="0px" y="0px"
	 viewBox="0 0 28 32" style="enable-background:new 0 0 28 32;" xml:space="preserve">
<path d="M27,13c-2.75,0-2.982-1.66-3-2.019V1c0-0.552-0.447-1-1-1h-4c-0.552,0-1,0.448-1,1c0,2.318-1.682,4-4,4s-4-1.682-4-4
	c0-0.552-0.448-1-1-1H5C4.448,0,4,0.448,4,1v9.986C3.999,11.068,3.938,13,1,13c-0.552,0-1,0.448-1,1v17c0,0.552,0.448,1,1,1h26
	c0.553,0,1-0.448,1-1V14C28,13.448,27.553,13,27,13z M2,14.938C5.098,14.535,5.982,12.266,6,11V2h2.076
	C8.475,4.586,10.414,6.514,13,6.915V9h-2v2h2v2h-2v2h2v2H2V14.938z M20,19v3H8v-3H20z M2,19h4v3H2V19z M13,30H2v-6h11V30z M26,30H15
	v-6h11V30z M26,22h-4v-3h4V22z M26,17H15v-2h2v-2h-2v-2h2V9h-2V6.915c2.586-0.4,4.525-2.329,4.924-4.915H22v9
	c0,0.005,0,0.009,0,0.014c0.018,1.253,0.902,3.521,4,3.924V17z"/>
</svg>
