<?xml version="1.0" encoding="iso-8859-1"?>
<!-- Generator: Adobe Illustrator 20.1.0, SVG Export Plug-In . SVG Version: 6.00 Build 0)  -->
<svg version="1.1" id="Swimmingpool" xmlns="http://www.w3.org/2000/svg" xmlns:xlink="http://www.w3.org/1999/xlink" x="0px"
	 y="0px" viewBox="0 0 32 32" style="enable-background:new 0 0 32 32;" xml:space="preserve">
<g>
	<path d="M28,9V1c0-0.552-0.448-1-1-1h-4.958c-0.143,0-0.888-0.007-1.462,0.544C20.315,0.797,20,1.256,20,2v7h-6.996l0.003-7H18V0
		h-4.958c-0.143,0-0.888-0.007-1.462,0.544C11.315,0.797,11,1.256,11,2v7H0v2h11v10h2l0.001-2H20v2h2l0.004-10H32V9H28z M20,11v2
		h-6.997l0.001-2H20z M13.001,17l0.001-2H20v2H13.001z M22.007,2H26v7h-3.996L22.007,2z"/>
	<rect y="13" width="8" height="2"/>
	<rect x="24" y="13" width="8" height="2"/>
	<path d="M21.331,23c-2.849,0-4.291,0.541-5.686,1.063C14.361,24.545,13.147,25,10.662,25c-2.484,0-3.696-0.455-4.979-0.936
		C4.289,23.541,2.847,23,0,23v2c2.484,0,3.696,0.455,4.98,0.937C6.374,26.459,7.815,27,10.662,27c2.849,0,4.291-0.541,5.686-1.063
		C17.631,25.455,18.845,25,21.331,25c2.486,0,3.699,0.455,4.983,0.937C27.709,26.459,29.151,27,32,27v-2
		c-2.486,0-3.699-0.455-4.983-0.937C25.622,23.541,24.18,23,21.331,23z"/>
	<path d="M21.338,28c-2.849,0-4.291,0.541-5.686,1.063C14.369,29.545,13.155,30,10.669,30c-2.486,0-3.699-0.455-4.983-0.937
		C4.291,28.541,2.849,28,0,28v2c2.486,0,3.699,0.455,4.983,0.937C6.378,31.459,7.82,32,10.669,32s4.291-0.541,5.686-1.063
		C17.639,30.455,18.853,30,21.338,30c2.484,0,3.696,0.455,4.979,0.936C27.711,31.459,29.153,32,32,32v-2
		c-2.484,0-3.696-0.455-4.98-0.937C25.626,28.541,24.185,28,21.338,28z"/>
</g>
</svg>
