<?xml version="1.0" encoding="UTF-8"?><svg xmlns="http://www.w3.org/2000/svg" viewBox="0 0 24 24"><g id="a"/><g id="b"/><g id="c"/><g id="d"/><g id="e"/><g id="f"/><g id="g"><path d="M18,5.25h-.25v-.25c0-1.52-1.23-2.75-2.75-2.75H5c-1.52,0-2.75,1.23-2.75,2.75v2c0,1.52,1.23,2.75,2.75,2.75H15c1.52,0,2.75-1.23,2.75-2.75v-.25h.25c.69,0,1.25,.56,1.25,1.25v2c0,.69-.56,1.25-1.25,1.25h-6c-1.52,0-2.75,1.23-2.75,2.75v.37c-1.15,.33-2,1.38-2,2.63v2c0,1.52,1.23,2.75,2.75,2.75s2.75-1.23,2.75-2.75v-2c0-1.25-.85-2.3-2-2.63v-.37c0-.69,.56-1.25,1.25-1.25h6c1.52,0,2.75-1.23,2.75-2.75v-2c0-1.52-1.23-2.75-2.75-2.75Zm-8,1.5H6c-.41,0-.75-.34-.75-.75s.34-.75,.75-.75h4c.41,0,.75,.34,.75,.75s-.34,.75-.75,.75Z"/></g><g id="h"/><g id="i"/><g id="j"/><g id="k"/><g id="l"/><g id="m"/><g id="n"/><g id="o"/><g id="p"/><g id="q"/><g id="r"/><g id="s"/><g id="t"/><g id="u"/></svg>