<?xml version="1.0" encoding="UTF-8"?><svg xmlns="http://www.w3.org/2000/svg" viewBox="0 0 24 24"><g id="a"/><g id="b"><g><path d="M15.7,15.64l.55,.51,3.69-3.69c1.07-1.07,1.07-2.82,0-3.89l-4.24-4.24c-1.07-1.07-2.82-1.07-3.89,0l-3.7,3.7,.53,.56,7.06,7.06Z"/><path d="M21,18.25h-6.85l1.04-1.04-.53-.49-7.09-7.09-.52-.54-3.72,3.72c-1.07,1.07-1.07,2.82,0,3.89l1.55,1.55h-1.88c-.41,0-.75,.34-.75,.75s.34,.75,.75,.75H21c.41,0,.75-.34,.75-.75s-.34-.75-.75-.75Z"/></g></g><g id="c"/><g id="d"/><g id="e"/><g id="f"/><g id="g"/><g id="h"/><g id="i"/><g id="j"/><g id="k"/><g id="l"/><g id="m"/><g id="n"/><g id="o"/><g id="p"/><g id="q"/><g id="r"/><g id="s"/><g id="t"/><g id="u"/></svg>