<?xml version="1.0" encoding="UTF-8"?><svg xmlns="http://www.w3.org/2000/svg" viewBox="0 0 24 24"><g id="a"/><g id="b"/><g id="c"/><g id="d"/><g id="e"/><g id="f"/><g id="g"/><g id="h"/><g id="i"><g><path d="M21,20.25H5c-.41,0-.75,.34-.75,.75s.34,.75,.75,.75H21c.41,0,.75-.34,.75-.75s-.34-.75-.75-.75Z"/><path d="M17.41,15.54c-.15,.2-.29,.39-.41,.59-.44,.72-.46,1.64-.05,2.4,.4,.74,1.14,1.2,1.95,1.22h.2c.83-.04,1.57-.5,1.97-1.25,.4-.76,.38-1.64-.06-2.37-.12-.2-.25-.39-.41-.59-.33-.42-.71-.8-1.13-1.13-.27-.21-.65-.21-.92,0-.42,.33-.8,.71-1.13,1.13Z"/><path d="M17.84,10.13L11.48,3.76c-.68-.68-1.79-.68-2.47,0L3.35,9.42c-.51,.51-.85,1.14-1,1.83h16c-.03-.41-.19-.81-.5-1.12Z"/><path d="M9.54,19.36c1,0,1.94-.39,2.65-1.1l5.51-5.51H2.32c.14,.74,.49,1.43,1.03,1.97l3.54,3.54c.71,.71,1.65,1.1,2.65,1.1Z"/></g></g><g id="j"/><g id="k"/><g id="l"/><g id="m"/><g id="n"/><g id="o"/><g id="p"/><g id="q"/><g id="r"/><g id="s"/><g id="t"/><g id="u"/></svg>