<?xml version="1.0" encoding="UTF-8"?><svg xmlns="http://www.w3.org/2000/svg" viewBox="0 0 24 24"><g id="a"/><g id="b"/><g id="c"/><g id="d"/><g id="e"/><g id="f"/><g id="g"/><g id="h"/><g id="i"/><g id="j"/><g id="k"/><g id="l"/><g id="m"/><g id="n"/><g id="o"/><g id="p"><g><path d="M11.19,17.35h0c.32,.32,.77,.5,1.23,.5,.02,0,.04,0,.06,0,.5-.02,.97-.25,1.3-.63l6.85-7.95c.96-1.11,.92-2.78-.09-3.79l-1.62-1.62c-1.01-1.01-2.67-1.05-3.79-.09l-7.95,6.85c-.38,.33-.61,.81-.63,1.3-.02,.48,.17,.95,.5,1.29l4.13,4.13Z"/><path d="M21,20.25H3c-.41,0-.75,.34-.75,.75s.34,.75,.75,.75H21c.41,0,.75-.34,.75-.75s-.34-.75-.75-.75Z"/><path d="M4,19.75h2.83c.13,0,.24-.04,.35-.1-.11-.09-.23-.17-.33-.27l-1.81-1.81c-.11-.11-.21-.23-.31-.36l-1.26,1.26c-.21,.21-.28,.54-.16,.82s.39,.46,.69,.46Z"/><path d="M7.91,18.31h0c.34,.34,.78,.51,1.24,.51,.27,0,.53-.06,.78-.19l.3-.15s-.07-.05-.1-.08l-4.13-4.13s-.05-.07-.08-.1l-.15,.3c-.34,.67-.21,1.49,.33,2.02l1.81,1.81Z"/></g></g><g id="q"/><g id="r"/><g id="s"/><g id="t"/><g id="u"/></svg>