<?xml version="1.0" encoding="UTF-8"?><svg xmlns="http://www.w3.org/2000/svg" viewBox="0 0 24 24"><g id="a"/><g id="b"/><g id="c"/><g id="d"><g><path d="M3,12.75h6v.19l-.53,.53c-.29,.29-.29,.77,0,1.06,.15,.15,.34,.22,.53,.22s.38-.07,.53-.22l2-2c.07-.07,.13-.16,.16-.24,.04-.09,.06-.18,.06-.29s-.02-.2-.06-.29c-.04-.09-.09-.17-.16-.24l-2-2c-.29-.29-.77-.29-1.06,0s-.29,.77,0,1.06l.53,.53v.19H3c-.41,0-.75,.34-.75,.75s.34,.75,.75,.75Z"/><path d="M3,4.75H21c.41,0,.75-.34,.75-.75s-.34-.75-.75-.75H3c-.41,0-.75,.34-.75,.75s.34,.75,.75,.75Z"/><path d="M21,19.25H3c-.41,0-.75,.34-.75,.75s.34,.75,.75,.75H21c.41,0,.75-.34,.75-.75s-.34-.75-.75-.75Z"/><path d="M21,11.25h-7c-.41,0-.75,.34-.75,.75s.34,.75,.75,.75h7c.41,0,.75-.34,.75-.75s-.34-.75-.75-.75Z"/><path d="M21,7.25H12c-.41,0-.75,.34-.75,.75s.34,.75,.75,.75h9c.41,0,.75-.34,.75-.75s-.34-.75-.75-.75Z"/><path d="M21,15.25H12c-.41,0-.75,.34-.75,.75s.34,.75,.75,.75h9c.41,0,.75-.34,.75-.75s-.34-.75-.75-.75Z"/></g></g><g id="e"/><g id="f"/><g id="g"/><g id="h"/><g id="i"/><g id="j"/><g id="k"/><g id="l"/><g id="m"/><g id="n"/><g id="o"/><g id="p"/><g id="q"/><g id="r"/><g id="s"/><g id="t"/><g id="u"/></svg>