<?xml version="1.0" encoding="UTF-8"?><svg xmlns="http://www.w3.org/2000/svg" viewBox="0 0 24 24"><g id="a"/><g id="b"/><g id="c"/><g id="d"/><g id="e"><g><path d="M19,2.25h-6c-1.52,0-2.75,1.23-2.75,2.75v5c0,1.52,1.23,2.75,2.75,2.75h6c1.52,0,2.75-1.23,2.75-2.75V5c0-1.52-1.23-2.75-2.75-2.75Zm-1,4.5h-1.25v2.25c0,.41-.34,.75-.75,.75s-.75-.34-.75-.75v-2.25h-1.25c-.41,0-.75-.34-.75-.75s.34-.75,.75-.75h4c.41,0,.75,.34,.75,.75s-.34,.75-.75,.75Z"/><rect x="2.25" y="2.25" width="6.5" height="19.5" rx="2.75" ry="2.75"/><rect x="10.25" y="14.25" width="11.5" height="7.5" rx="2.75" ry="2.75"/></g></g><g id="f"/><g id="g"/><g id="h"/><g id="i"/><g id="j"/><g id="k"/><g id="l"/><g id="m"/><g id="n"/><g id="o"/><g id="p"/><g id="q"/><g id="r"/><g id="s"/><g id="t"/><g id="u"/></svg>