<?xml version="1.0" encoding="UTF-8"?><svg xmlns="http://www.w3.org/2000/svg" viewBox="0 0 24 24"><g id="a"/><g id="b"/><g id="c"/><g id="d"/><g id="e"/><g id="f"/><g id="g"/><g id="h"/><g id="i"/><g id="j"/><g id="k"/><g id="l"/><g id="m"/><g id="n"/><g id="o"><g><rect x="2.25" y="2.25" width="5.5" height="5.5" rx="1.75" ry="1.75"/><rect x="2.25" y="9.25" width="5.5" height="5.5" rx="1.75" ry="1.75"/><rect x="2.25" y="16.25" width="5.5" height="5.5" rx="1.75" ry="1.75"/><path d="M10,5.75h11c.41,0,.75-.34,.75-.75s-.34-.75-.75-.75H10c-.41,0-.75,.34-.75,.75s.34,.75,.75,.75Z"/><path d="M21,11.25H10c-.41,0-.75,.34-.75,.75s.34,.75,.75,.75h11c.41,0,.75-.34,.75-.75s-.34-.75-.75-.75Z"/><path d="M21,18.25H10c-.41,0-.75,.34-.75,.75s.34,.75,.75,.75h11c.41,0,.75-.34,.75-.75s-.34-.75-.75-.75Z"/></g></g><g id="p"/><g id="q"/><g id="r"/><g id="s"/><g id="t"/><g id="u"/></svg>