<?xml version="1.0" encoding="UTF-8"?><svg xmlns="http://www.w3.org/2000/svg" viewBox="0 0 24 24"><g id="a"/><g id="b"/><g id="c"/><g id="d"/><g id="e"/><g id="f"/><g id="g"/><g id="h"/><g id="i"/><g id="j"/><g id="k"/><g id="l"/><g id="m"/><g id="n"/><g id="o"/><g id="p"/><g id="q"/><g id="r"/><g id="s"/><g id="t"/><g id="u"><g><rect x="9.75" y="7.75" width="4.5" height="8.5"/><path d="M16,2.25H8c-2.07,0-3.75,1.68-3.75,3.75v12c0,2.07,1.68,3.75,3.75,3.75h8c2.07,0,3.75-1.68,3.75-3.75V6c0-2.07-1.68-3.75-3.75-3.75Zm0,14c.41,0,.75,.34,.75,.75s-.34,.75-.75,.75h-.25v.25c0,.41-.34,.75-.75,.75s-.75-.34-.75-.75v-.25h-4.5v.25c0,.41-.34,.75-.75,.75s-.75-.34-.75-.75v-.25h-.25c-.41,0-.75-.34-.75-.75s.34-.75,.75-.75h.25V7.75h-.25c-.41,0-.75-.34-.75-.75s.34-.75,.75-.75h.25v-.25c0-.41,.34-.75,.75-.75s.75,.34,.75,.75v.25h4.5v-.25c0-.41,.34-.75,.75-.75s.75,.34,.75,.75v.25h.25c.41,0,.75,.34,.75,.75s-.34,.75-.75,.75h-.25v8.5h.25Z"/></g></g></svg>