<?xml version="1.0" encoding="UTF-8"?><svg xmlns="http://www.w3.org/2000/svg" viewBox="0 0 24 24"><g id="a"/><g id="b"/><g id="c"/><g id="d"/><g id="e"/><g id="f"/><g id="g"/><g id="h"/><g id="i"/><g id="j"/><g id="k"/><g id="l"/><g id="m"/><g id="n"/><g id="o"/><g id="p"/><g id="q"><g><circle cx="11" cy="9" r="1.25"/><path d="M2.45,16.49l2.79-2.79c.96-.96,2.51-1.07,3.59-.26l2.32,1.74,1.98-2.83c.44-.63,1.13-1.05,1.89-1.15,.76-.1,1.54,.12,2.12,.61l4.33,3.61,.27,.24V7c0-2.62-2.13-4.75-4.75-4.75H7c-2.62,0-4.75,2.13-4.75,4.75v9.71l.2-.22ZM11,6.25c1.52,0,2.75,1.23,2.75,2.75s-1.23,2.75-2.75,2.75-2.75-1.23-2.75-2.75,1.23-2.75,2.75-2.75Z"/><path d="M7.38,20.58l2.92-4.17-2.36-1.77c-.49-.37-1.2-.32-1.63,.12l-2.77,2.77-.98,1.07c.62,1.72,2.19,2.96,4.08,3.12l.75-1.13Z"/><path d="M20.5,16.56l-4.31-3.59c-.27-.23-.62-.32-.96-.28-.35,.05-.66,.23-.86,.52l-5.75,8.22-.21,.32h8.6c2.4,0,4.38-1.8,4.69-4.12l-1.19-1.07Z"/></g></g><g id="r"/><g id="s"/><g id="t"/><g id="u"/></svg>