<?xml version="1.0" encoding="UTF-8"?><svg xmlns="http://www.w3.org/2000/svg" viewBox="0 0 24 24"><g id="a"/><g id="b"/><g id="c"/><g id="d"/><g id="e"/><g id="f"/><g id="g"/><g id="h"/><g id="i"/><g id="j"/><g id="k"/><g id="l"/><g id="m"/><g id="n"/><g id="o"/><g id="p"/><g id="q"/><g id="r"/><g id="s"/><g id="t"><g><path d="M8,8.25h4c.69,0,1.25-.56,1.25-1.25V2.25H6.75V7c0,.69,.56,1.25,1.25,1.25Z"/><path d="M16,14.75H8c-.69,0-1.25,.56-1.25,1.25v5.75h10.5v-5.75c0-.69-.56-1.25-1.25-1.25Z"/><path d="M20.76,6.82l-4.72-3.94c-.37-.31-.82-.51-1.29-.6V7c0,1.52-1.23,2.75-2.75,2.75h-4c-1.52,0-2.75-1.23-2.75-2.75V2.25h-.25c-1.52,0-2.75,1.23-2.75,2.75v14c0,1.52,1.23,2.75,2.75,2.75h.25v-5.75c0-1.52,1.23-2.75,2.75-2.75h8c1.52,0,2.75,1.23,2.75,2.75v5.75h.25c1.52,0,2.75-1.23,2.75-2.75V8.94c0-.82-.36-1.59-.99-2.11Z"/></g></g><g id="u"/></svg>