<?xml version="1.0" encoding="UTF-8"?><svg xmlns="http://www.w3.org/2000/svg" viewBox="0 0 24 24"><g id="a"/><g id="b"/><g id="c"><g><path d="M16,3.25h-3c-.96,0-1.75,.79-1.75,1.75v.29c0,1.01,.58,1.81,1.34,1.89,.04,.07,.09,.21,.09,.4v8.86c0,.19-.05,.33-.09,.4-.76,.08-1.34,.88-1.34,1.89v.29c0,.96,.79,1.75,1.75,1.75h3c.96,0,1.75-.79,1.75-1.75v-.29c0-1.01-.58-1.81-1.34-1.89-.04-.07-.09-.21-.09-.4V7.57c0-.19,.05-.33,.09-.4,.76-.08,1.34-.88,1.34-1.89v-.29c0-.96-.79-1.75-1.75-1.75Z"/><path d="M2.25,11v2c0,1.52,1.23,2.75,2.75,2.75h6.18v-7.5H5c-1.52,0-2.75,1.23-2.75,2.75Zm6.46,1.25h0c.42,0,.75,.34,.75,.75s-.33,.75-.75,.75-.75-.34-.75-.75,.33-.75,.75-.75Zm-2,0h0c.42,0,.75,.34,.75,.75s-.33,.75-.75,.75-.75-.34-.75-.75,.33-.75,.75-.75Zm-1.24,.75c0,.41-.33,.75-.75,.75s-.75-.34-.75-.75,.33-.75,.75-.75h0c.42,0,.75,.34,.75,.75Z"/><path d="M19,8.25h-1.18v7.5h1.18c1.52,0,2.75-1.23,2.75-2.75v-2c0-1.52-1.23-2.75-2.75-2.75Z"/></g></g><g id="d"/><g id="e"/><g id="f"/><g id="g"/><g id="h"/><g id="i"/><g id="j"/><g id="k"/><g id="l"/><g id="m"/><g id="n"/><g id="o"/><g id="p"/><g id="q"/><g id="r"/><g id="s"/><g id="t"/><g id="u"/></svg>