<?xml version="1.0" encoding="UTF-8"?><svg xmlns="http://www.w3.org/2000/svg" viewBox="0 0 24 24"><g id="a"/><g id="b"/><g id="c"/><g id="d"/><g id="e"/><g id="f"/><g id="g"/><g id="h"/><g id="i"/><g id="j"/><g id="k"><g><path d="M2.7,13.69c.38,.16,.82-.01,.98-.39l.66-1.55h3.3l.66,1.55c.12,.28,.4,.45,.69,.45,.1,0,.2-.02,.29-.06,.38-.16,.56-.6,.39-.99l-3-7c-.24-.55-1.14-.55-1.38,0l-3,7c-.16,.38,.01,.82,.39,.99Zm3.3-5.79l1.01,2.35h-2.01l1.01-2.35Z"/><rect x="11.25" y="2.25" width="10.5" height="5.5" rx="2.25" ry="2.25"/><rect x="11.25" y="9.25" width="10.5" height="5.5" rx="2.25" ry="2.25"/><rect x="2.25" y="16.25" width="19.5" height="5.5" rx="2.25" ry="2.25"/></g></g><g id="l"/><g id="m"/><g id="n"/><g id="o"/><g id="p"/><g id="q"/><g id="r"/><g id="s"/><g id="t"/><g id="u"/></svg>