<?xml version="1.0" encoding="UTF-8"?><svg xmlns="http://www.w3.org/2000/svg" viewBox="0 0 24 24"><g id="a"/><g id="b"/><g id="c"/><g id="d"/><g id="e"/><g id="f"/><g id="g"/><g id="h"><g><path d="M18.5,5.25h-2.25l-2.6-1.95c-.97-.73-2.33-.73-3.3,0l-2.6,1.95h-2.25c-1.24,0-2.25,1.01-2.25,2.25s1.01,2.25,2.25,2.25h13c1.24,0,2.25-1.01,2.25-2.25s-1.01-2.25-2.25-2.25Zm-7.25-.75c.44-.33,1.06-.33,1.5,0l1,.75h-3.5l1-.75Z"/><path d="M18.5,11.25H5.5c-.22,0-.43,.1-.57,.27-.14,.17-.2,.39-.17,.61l1.08,6.49c.3,1.82,1.86,3.13,3.7,3.13h4.92c1.84,0,3.4-1.32,3.7-3.13l1.08-6.49c.04-.22-.03-.44-.17-.61-.14-.17-.35-.27-.57-.27Zm-8.54,8.49s-.08,0-.12,0c-.36,0-.68-.26-.74-.63l-.83-5c-.07-.41,.21-.79,.62-.86,.41-.07,.79,.21,.86,.62l.83,5c.07,.41-.21,.79-.62,.86Zm4.95-.62c-.06,.37-.38,.63-.74,.63-.04,0-.08,0-.12,0-.41-.07-.68-.46-.62-.86l.83-5c.07-.41,.45-.69,.86-.62,.41,.07,.68,.46,.62,.86l-.83,5Z"/></g></g><g id="i"/><g id="j"/><g id="k"/><g id="l"/><g id="m"/><g id="n"/><g id="o"/><g id="p"/><g id="q"/><g id="r"/><g id="s"/><g id="t"/><g id="u"/></svg>