<?xml version="1.0" encoding="UTF-8"?><svg xmlns="http://www.w3.org/2000/svg" viewBox="0 0 24 24"><g id="a"/><g id="b"/><g id="c"/><g id="d"/><g id="e"/><g id="f"/><g id="g"/><g id="h"/><g id="i"/><g id="j"/><g id="k"/><g id="l"/><g id="m"/><g id="n"/><g id="o"><path d="M17,2.25H7c-2.07,0-3.75,1.68-3.75,3.75v12c0,2.07,1.68,3.75,3.75,3.75h10c2.07,0,3.75-1.68,3.75-3.75V6c0-2.07-1.68-3.75-3.75-3.75ZM7,3.75h10c1.24,0,2.25,1.01,2.25,2.25v1.6l-2.16,1.44c-.21,.14-.45,.21-.69,.21h-3.64v-1.5h.25c.41,0,.75-.34,.75-.75s-.34-.75-.75-.75h-2c-.41,0-.75,.34-.75,.75s.34,.75,.75,.75h.25v1.5h-3.64c-.25,0-.49-.07-.69-.21l-2.16-1.44v-1.6c0-1.24,1.01-2.25,2.25-2.25Zm10,16.5H7c-1.24,0-2.25-1.01-2.25-2.25V9.4l1.33,.89c.45,.3,.98,.46,1.53,.46h3.64v1.5h-.25c-.41,0-.75,.34-.75,.75s.34,.75,.75,.75h2c.41,0,.75-.34,.75-.75s-.34-.75-.75-.75h-.25v-1.5h3.64c.54,0,1.07-.16,1.53-.46l1.33-.89v8.6c0,1.24-1.01,2.25-2.25,2.25Z"/></g><g id="p"/><g id="q"/><g id="r"/><g id="s"/><g id="t"/><g id="u"/></svg>