<?xml version="1.0" encoding="UTF-8"?><svg xmlns="http://www.w3.org/2000/svg" viewBox="0 0 24 24"><g id="a"/><g id="b"><g><path d="M19,4.25h-1.25v-.25c0-.41-.34-.75-.75-.75s-.75,.34-.75,.75v.25h-3.5v-.25c0-.41-.34-.75-.75-.75s-.75,.34-.75,.75v.25h-3.5v-.25c0-.41-.34-.75-.75-.75s-.75,.34-.75,.75v.25h-1.25c-1.52,0-2.75,1.23-2.75,2.75v10c0,1.52,1.23,2.75,2.75,2.75h14c1.52,0,2.75-1.23,2.75-2.75V7c0-1.52-1.23-2.75-2.75-2.75Zm1.25,12.75c0,.69-.56,1.25-1.25,1.25H5c-.69,0-1.25-.56-1.25-1.25V7c0-.69,.56-1.25,1.25-1.25h1.25v.25c0,.41,.34,.75,.75,.75s.75-.34,.75-.75v-.25h3.5v.25c0,.41,.34,.75,.75,.75s.75-.34,.75-.75v-.25h3.5v.25c0,.41,.34,.75,.75,.75s.75-.34,.75-.75v-.25h1.25c.69,0,1.25,.56,1.25,1.25v10Z"/><path d="M7.02,10.25h0c-.41,0-.75,.34-.75,.75s.34,.75,.75,.75,.75-.34,.75-.75-.33-.75-.75-.75Z"/><path d="M12.02,10.25h0c-.41,0-.75,.34-.75,.75s.34,.75,.75,.75,.75-.34,.75-.75-.33-.75-.75-.75Z"/><path d="M17.02,10.25h0c-.41,0-.75,.34-.75,.75s.34,.75,.75,.75,.75-.34,.75-.75-.33-.75-.75-.75Z"/><path d="M7.02,14.25h0c-.41,0-.75,.34-.75,.75s.34,.75,.75,.75,.75-.34,.75-.75-.33-.75-.75-.75Z"/><path d="M12.02,14.25h0c-.41,0-.75,.34-.75,.75s.34,.75,.75,.75,.75-.34,.75-.75-.33-.75-.75-.75Z"/></g></g><g id="c"/><g id="d"/><g id="e"/><g id="f"/><g id="g"/><g id="h"/><g id="i"/><g id="j"/><g id="k"/><g id="l"/><g id="m"/><g id="n"/><g id="o"/><g id="p"/><g id="q"/><g id="r"/><g id="s"/><g id="t"/><g id="u"/></svg>