<?xml version="1.0" encoding="UTF-8"?><svg xmlns="http://www.w3.org/2000/svg" viewBox="0 0 24 24"><g id="a"/><g id="b"/><g id="c"/><g id="d"/><g id="e"/><g id="f"/><g id="g"/><g id="h"/><g id="i"><path d="M19,7.25h-1.25v-1.25c0-1.52-1.23-2.75-2.75-2.75H5c-1.52,0-2.75,1.23-2.75,2.75v10c0,.28,.16,.54,.41,.67,.11,.05,.22,.08,.34,.08,.16,0,.32-.05,.45-.15l2.8-2.1v.5c0,1.52,1.23,2.75,2.75,2.75h7.33c.27,0,.54,.09,.75,.25l3.47,2.6c.13,.1,.29,.15,.45,.15,.11,0,.23-.03,.33-.08,.25-.13,.42-.39,.42-.67V10c0-1.52-1.23-2.75-2.75-2.75ZM3.75,14.5V6c0-.69,.56-1.25,1.25-1.25H15c.69,0,1.25,.56,1.25,1.25v5c0,.69-.56,1.25-1.25,1.25H7.67c-.32,0-.63,.06-.93,.17-.02,0-.03,.01-.05,.02-.24,.09-.46,.21-.67,.36l-2.27,1.7Zm16.5,4l-2.27-1.7c-.47-.36-1.06-.55-1.65-.55h-7.33c-.69,0-1.25-.56-1.25-1.25v-1.25h7.25c1.52,0,2.75-1.23,2.75-2.75v-2.25h1.25c.69,0,1.25,.56,1.25,1.25v8.5Z"/></g><g id="j"/><g id="k"/><g id="l"/><g id="m"/><g id="n"/><g id="o"/><g id="p"/><g id="q"/><g id="r"/><g id="s"/><g id="t"/><g id="u"/></svg>