<?xml version="1.0" encoding="UTF-8"?><svg xmlns="http://www.w3.org/2000/svg" viewBox="0 0 24 24"><g id="a"/><g id="b"/><g id="c"><path d="M19,4.25H9c-1.52,0-2.75,1.23-2.75,2.75v1.25h-1.25c-1.52,0-2.75,1.23-2.75,2.75v6c0,.76,.31,1.44,.8,1.94h.01c.5,.51,1.18,.81,1.94,.81H15c.76,0,1.44-.31,1.94-.8h.01c.49-.51,.8-1.19,.8-1.95v-1.25h1.25c1.52,0,2.75-1.23,2.75-2.75V7c0-1.52-1.23-2.75-2.75-2.75Zm-6.28,9.41l3.47-2.97c.03,.1,.06,.2,.06,.31v6c0,.06-.02,.1-.03,.16l-3.5-3.5Zm-1.91-.34c-.47,.4-1.16,.4-1.63,0l-4.16-3.57H14.97l-4.16,3.57Zm-7.03,3.84c0-.05-.03-.1-.03-.16v-6c0-.11,.04-.21,.06-.31l3.47,2.97-3.5,3.5Zm1.22,1.09c-.06,0-.1-.02-.16-.03l3.6-3.6c.47,.33,1.01,.5,1.56,.5s1.09-.17,1.56-.5l3.6,3.6c-.05,0-.1,.03-.16,.03H5Zm15.25-5.25c0,.69-.56,1.25-1.25,1.25h-1.25v-3.25c0-1.52-1.23-2.75-2.75-2.75H7.75v-1.25c0-.69,.56-1.25,1.25-1.25h10c.69,0,1.25,.56,1.25,1.25v6Z"/></g><g id="d"/><g id="e"/><g id="f"/><g id="g"/><g id="h"/><g id="i"/><g id="j"/><g id="k"/><g id="l"/><g id="m"/><g id="n"/><g id="o"/><g id="p"/><g id="q"/><g id="r"/><g id="s"/><g id="t"/><g id="u"/></svg>