<?xml version="1.0" encoding="UTF-8"?><svg xmlns="http://www.w3.org/2000/svg" viewBox="0 0 24 24"><g id="a"/><g id="b"/><g id="c"/><g id="d"/><g id="e"/><g id="f"/><g id="g"/><g id="h"/><g id="i"/><g id="j"/><g id="k"/><g id="l"/><g id="m"/><g id="n"/><g id="o"/><g id="p"/><g id="q"/><g id="r"/><g id="s"/><g id="t"/><g id="u"><path d="M19,5.25H5c-1.52,0-2.75,1.23-2.75,2.75v8c0,1.52,1.23,2.75,2.75,2.75h14c1.52,0,2.75-1.23,2.75-2.75V8c0-1.52-1.23-2.75-2.75-2.75Zm0,1.5s.08,.02,.12,.02l-6.3,5.51c-.47,.41-1.18,.41-1.65,0L4.88,6.77s.08-.02,.12-.02h14Zm1.25,9.25c0,.69-.56,1.25-1.25,1.25H5c-.69,0-1.25-.56-1.25-1.25V8c0-.07,.03-.12,.04-.19l6.4,5.6c.52,.45,1.16,.68,1.81,.68s1.29-.23,1.81-.68l6.4-5.6c.01,.06,.04,.12,.04,.19v8Z"/></g></svg>