<?xml version="1.0" encoding="UTF-8"?><svg xmlns="http://www.w3.org/2000/svg" viewBox="0 0 24 24"><g id="a"/><g id="b"/><g id="c"/><g id="d"/><g id="e"><path d="M19,5.25H5c-1.52,0-2.75,1.23-2.75,2.75v8c0,1.52,1.23,2.75,2.75,2.75h14c1.52,0,2.75-1.23,2.75-2.75V8c0-1.52-1.23-2.75-2.75-2.75Zm-14,1.5h14c.69,0,1.25,.56,1.25,1.25v.69l-1.9,1.9c-.43,.42-.99,.66-1.59,.66H7.24c-.6,0-1.17-.23-1.59-.66l-1.9-1.9v-.69c0-.69,.56-1.25,1.25-1.25Zm14,10.5H5c-.69,0-1.25-.56-1.25-1.25v-5.19l.84,.84c.71,.71,1.65,1.1,2.65,1.1h9.51c1,0,1.94-.39,2.65-1.1l.84-.84v5.19c0,.69-.56,1.25-1.25,1.25Z"/></g><g id="f"/><g id="g"/><g id="h"/><g id="i"/><g id="j"/><g id="k"/><g id="l"/><g id="m"/><g id="n"/><g id="o"/><g id="p"/><g id="q"/><g id="r"/><g id="s"/><g id="t"/><g id="u"/></svg>