<?xml version="1.0" encoding="UTF-8"?><svg xmlns="http://www.w3.org/2000/svg" viewBox="0 0 24 24"><g id="a"/><g id="b"/><g id="c"/><g id="d"/><g id="e"/><g id="f"/><g id="g"/><g id="h"/><g id="i"/><g id="j"/><g id="k"/><g id="l"/><g id="m"/><g id="n"/><g id="o"/><g id="p"/><g id="q"><path d="M19,6.25H9c-1.25,0-2.3,.85-2.63,2H3c-.41,0-.75,.34-.75,.75s.34,.75,.75,.75h3.25v1.5h-2.25c-.41,0-.75,.34-.75,.75s.34,.75,.75,.75h2.25v1.5h-1.25c-.41,0-.75,.34-.75,.75s.34,.75,.75,.75h1.37c.33,1.15,1.38,2,2.63,2h10c1.52,0,2.75-1.23,2.75-2.75v-6c0-1.52-1.23-2.75-2.75-2.75Zm0,1.5s.07,.02,.1,.02l-4.3,3.59c-.46,.39-1.14,.39-1.6,0l-4.3-3.59s.07-.02,.1-.02h10Zm1.25,7.25c0,.69-.56,1.25-1.25,1.25H9c-.69,0-1.25-.56-1.25-1.25v-6c0-.07,.03-.13,.04-.2l4.45,3.71c.51,.43,1.14,.64,1.76,.64s1.25-.21,1.76-.64l4.45-3.71c.01,.07,.04,.13,.04,.2v6Z"/></g><g id="r"/><g id="s"/><g id="t"/><g id="u"/></svg>