<?xml version="1.0" encoding="UTF-8"?><svg xmlns="http://www.w3.org/2000/svg" viewBox="0 0 24 24"><g id="a"/><g id="b"/><g id="c"/><g id="d"/><g id="e"/><g id="f"/><g id="g"/><g id="h"/><g id="i"/><g id="j"><path d="M18.34,5.51l-3.05-2.44c-.66-.53-1.49-.82-2.34-.82h-4.95c-2.07,0-3.75,1.68-3.75,3.75v12c0,2.07,1.68,3.75,3.75,3.75h8c2.07,0,3.75-1.68,3.75-3.75V8.44c0-1.15-.51-2.21-1.41-2.93Zm-.94,1.17c.2,.16,.36,.36,.49,.56h-3.89c-.14,0-.25-.11-.25-.25v-3s-.02-.07-.02-.11c.22,.08,.44,.2,.62,.35l3.05,2.44Zm-1.41,13.56H8c-1.24,0-2.25-1.01-2.25-2.25V6c0-1.24,1.01-2.25,2.25-2.25h4.3c-.03,.08-.05,.16-.05,.25v3c0,.96,.79,1.75,1.75,1.75h4c.09,0,.17-.02,.25-.05v9.3c0,1.24-1.01,2.25-2.25,2.25Z"/></g><g id="k"/><g id="l"/><g id="m"/><g id="n"/><g id="o"/><g id="p"/><g id="q"/><g id="r"/><g id="s"/><g id="t"/><g id="u"/></svg>