<?xml version="1.0" encoding="UTF-8"?><svg xmlns="http://www.w3.org/2000/svg" viewBox="0 0 24 24"><g id="a"/><g id="b"/><g id="c"/><g id="d"/><g id="e"/><g id="f"/><g id="g"/><g id="h"/><g id="i"/><g id="j"/><g id="k"/><g id="l"/><g id="m"/><g id="n"/><g id="o"/><g id="p"><g><path d="M17,2.25H7c-2.07,0-3.75,1.68-3.75,3.75v12c0,2.07,1.68,3.75,3.75,3.75h10c2.07,0,3.75-1.68,3.75-3.75V6c0-2.07-1.68-3.75-3.75-3.75ZM7,3.75h10c1.24,0,2.25,1.01,2.25,2.25V15.25h-2.13c-.98,0-1.85,.54-2.29,1.41-.18,.36-.54,.59-.95,.59h-3.76c-.4,0-.77-.22-.95-.59-.44-.87-1.31-1.41-2.29-1.41h-2.13V6c0-1.24,1.01-2.25,2.25-2.25Zm10,16.5H7c-1.24,0-2.25-1.01-2.25-2.25v-1.25h2.13c.4,0,.77,.22,.95,.59,.44,.87,1.31,1.41,2.29,1.41h3.76c.98,0,1.85-.54,2.29-1.41,.18-.36,.54-.59,.95-.59h2.13v1.25c0,1.24-1.01,2.25-2.25,2.25Z"/><path d="M8,12.75h8c.41,0,.75-.34,.75-.75s-.34-.75-.75-.75H8c-.41,0-.75,.34-.75,.75s.34,.75,.75,.75Z"/><path d="M8,8.75h8c.41,0,.75-.34,.75-.75s-.34-.75-.75-.75H8c-.41,0-.75,.34-.75,.75s.34,.75,.75,.75Z"/></g></g><g id="q"/><g id="r"/><g id="s"/><g id="t"/><g id="u"/></svg>