<?xml version="1.0" encoding="UTF-8"?><svg xmlns="http://www.w3.org/2000/svg" viewBox="0 0 24 24"><g id="a"/><g id="b"/><g id="c"/><g id="d"/><g id="e"/><g id="f"/><g id="g"/><g id="h"><g><path d="M21.73,14.32c-.02-.38-.06-.75-.14-1.11l-1.38-6.94c-.35-1.75-1.89-3.02-3.68-3.02H7.46c-1.78,0-3.33,1.27-3.68,3.02l-1.38,6.93c-.08,.37-.12,.74-.14,1.12,0,.06-.02,.12-.02,.19v2.5c0,1.52,1.23,2.75,2.75,2.75h14c1.52,0,2.75-1.23,2.75-2.75v-2.5c0-.06-.01-.12-.02-.18ZM5.26,6.56c.21-1.05,1.14-1.81,2.21-1.81h9.07c1.07,0,2,.76,2.21,1.81l1.14,5.73c-.12-.02-.25-.04-.38-.04h-2.38c-.98,0-1.85,.54-2.29,1.42-.18,.36-.54,.58-.95,.58h-3.76c-.4,0-.77-.22-.95-.58-.44-.87-1.31-1.42-2.29-1.42h-2.38c-.13,0-.26,.02-.38,.04l1.14-5.73Zm14.99,10.44c0,.69-.56,1.25-1.25,1.25H5c-.69,0-1.25-.56-1.25-1.25v-2.34c0-.07,0-.15,.01-.22,.03-.38,.35-.69,.74-.69h2.38c.4,0,.77,.22,.95,.58,.44,.87,1.31,1.42,2.29,1.42h3.76c.98,0,1.85-.54,2.29-1.42,.18-.36,.54-.58,.95-.58h2.38c.39,0,.71,.31,.74,.69,0,.07,.01,.14,.01,.22v2.34Z"/><path d="M11.47,12.53c.15,.15,.34,.22,.53,.22s.38-.07,.53-.22l2-2c.29-.29,.29-.77,0-1.06s-.77-.29-1.06,0l-.72,.72v-3.19c0-.41-.34-.75-.75-.75s-.75,.34-.75,.75v3.19l-.72-.72c-.29-.29-.77-.29-1.06,0s-.29,.77,0,1.06l2,2Z"/></g></g><g id="i"/><g id="j"/><g id="k"/><g id="l"/><g id="m"/><g id="n"/><g id="o"/><g id="p"/><g id="q"/><g id="r"/><g id="s"/><g id="t"/><g id="u"/></svg>