<?xml version="1.0" encoding="UTF-8"?><svg xmlns="http://www.w3.org/2000/svg" viewBox="0 0 24 24"><g id="a"/><g id="b"/><g id="c"/><g id="d"/><g id="e"/><g id="f"/><g id="g"/><g id="h"/><g id="i"/><g id="j"/><g id="k"><path d="M20,7.75c.96,0,1.75-.79,1.75-1.75v-2c0-.96-.79-1.75-1.75-1.75h-4c-.96,0-1.75,.79-1.75,1.75v5.25H7c-2.62,0-4.75,2.13-4.75,4.75v4c0,1.52,1.23,2.75,2.75,2.75h14c1.52,0,2.75-1.23,2.75-2.75v-4c0-2.62-2.13-4.75-4.75-4.75h-1.25v-1.5h4.25ZM3.75,18v-4c0-1.79,1.46-3.25,3.25-3.25s3.25,1.46,3.25,3.25v5.25H5c-.69,0-1.25-.56-1.25-1.25Zm13.25-7.25c1.79,0,3.25,1.46,3.25,3.25v4c0,.69-.56,1.25-1.25,1.25h-7.25v-5.25c0-1.26-.5-2.4-1.3-3.25h3.8v3.25c0,.41,.34,.75,.75,.75s.75-.34,.75-.75v-3.25h1.25Zm-1.25-6.75c0-.14,.11-.25,.25-.25h4c.14,0,.25,.11,.25,.25v2c0,.14-.11,.25-.25,.25h-4.25v-2.25Z"/></g><g id="l"/><g id="m"/><g id="n"/><g id="o"/><g id="p"/><g id="q"/><g id="r"/><g id="s"/><g id="t"/><g id="u"/></svg>