<?xml version="1.0" encoding="UTF-8"?><svg xmlns="http://www.w3.org/2000/svg" viewBox="0 0 24 24"><g id="a"/><g id="b"/><g id="c"/><g id="d"/><g id="e"/><g id="f"/><g id="g"/><g id="h"/><g id="i"/><g id="j"/><g id="k"/><g id="l"/><g id="m"/><g id="n"/><g id="o"/><g id="p"/><g id="q"/><g id="r"><g><path d="M19,12.2c-.41,0-.75,.34-.75,.75v3.05c0,.69-.56,1.25-1.25,1.25H5c-.69,0-1.25-.56-1.25-1.25v-7c0-.07,.03-.13,.04-.19l5.42,4.65c.52,.44,1.15,.67,1.79,.67s1.27-.22,1.79-.67l2.36-2.03c.31-.27,.35-.74,.08-1.06-.27-.31-.74-.35-1.06-.08l-2.36,2.03c-.47,.4-1.16,.4-1.63,0L4.89,7.77s.07-.02,.11-.02H13c.41,0,.75-.34,.75-.75s-.34-.75-.75-.75H5c-1.52,0-2.75,1.23-2.75,2.75v7c0,1.52,1.23,2.75,2.75,2.75h12c1.52,0,2.75-1.23,2.75-2.75v-3.05c0-.41-.34-.75-.75-.75Z"/><path d="M18.5,4.25c-1.79,0-3.25,1.46-3.25,3.25s1.46,3.25,3.25,3.25,3.25-1.46,3.25-3.25-1.46-3.25-3.25-3.25Zm0,5c-.96,0-1.75-.79-1.75-1.75s.79-1.75,1.75-1.75,1.75,.79,1.75,1.75-.79,1.75-1.75,1.75Z"/></g></g><g id="s"/><g id="t"/><g id="u"/></svg>