<?xml version="1.0" encoding="UTF-8"?><svg xmlns="http://www.w3.org/2000/svg" viewBox="0 0 24 24"><g id="a"/><g id="b"/><g id="c"/><g id="d"/><g id="e"/><g id="f"/><g id="g"/><g id="h"/><g id="i"/><g id="j"/><g id="k"/><g id="l"><g><path d="M20.77,10.47c-.33-.16-.68-.2-1.02-.15V5c0-1.52-1.23-2.75-2.75-2.75H7c-1.52,0-2.75,1.23-2.75,2.75v5.32c-.34-.05-.69,0-1.02,.15-.6,.3-.98,.9-.98,1.57v6.96c0,1.52,1.23,2.75,2.75,2.75h14c1.52,0,2.75-1.23,2.75-2.75v-6.96c0-.67-.38-1.28-.98-1.57ZM5.75,5c0-.69,.56-1.25,1.25-1.25h10c.69,0,1.25,.56,1.25,1.25v6c0,.06,.02,.11,.03,.16l-5.52,4.29c-.45,.35-1.08,.35-1.53,0l-5.52-4.29c.01-.05,.03-.11,.03-.16V5Zm14.5,14c0,.69-.56,1.25-1.25,1.25H5c-.69,0-1.25-.56-1.25-1.25v-6.96c0-.14,.09-.2,.14-.22,.03-.01,.07-.03,.11-.03,.04,0,.1,.01,.15,.05l6.16,4.79c.99,.77,2.38,.77,3.38,0l6.16-4.79c.11-.08,.21-.05,.26-.03,.05,.03,.14,.09,.14,.22v6.96Z"/><path d="M9,7.75h6c.41,0,.75-.34,.75-.75s-.34-.75-.75-.75h-6c-.41,0-.75,.34-.75,.75s.34,.75,.75,.75Z"/><path d="M9,10.75h6c.41,0,.75-.34,.75-.75s-.34-.75-.75-.75h-6c-.41,0-.75,.34-.75,.75s.34,.75,.75,.75Z"/></g></g><g id="m"/><g id="n"/><g id="o"/><g id="p"/><g id="q"/><g id="r"/><g id="s"/><g id="t"/><g id="u"/></svg>