<?xml version="1.0" encoding="UTF-8"?><svg xmlns="http://www.w3.org/2000/svg" viewBox="0 0 24 24"><g id="a"/><g id="b"/><g id="c"/><g id="d"/><g id="e"/><g id="f"/><g id="g"/><g id="h"/><g id="i"/><g id="j"/><g id="k"/><g id="l"/><g id="m"><path d="M20.69,8.81L13.69,3.36c-.99-.77-2.38-.77-3.38,0L3.31,8.81c-.68,.52-1.06,1.32-1.06,2.17v8.02c0,1.52,1.23,2.75,2.75,2.75h14c1.52,0,2.75-1.23,2.75-2.75V10.98c0-.85-.39-1.65-1.06-2.17Zm-5.26,6.19l4.8-4.2c0,.06,.02,.12,.02,.18v8.02c0,.07-.03,.12-.04,.19l-4.79-4.19ZM11.23,4.55c.23-.18,.5-.26,.77-.26s.54,.09,.77,.26l6.52,5.08-6.47,5.66c-.47,.41-1.18,.41-1.65,0l-6.47-5.66,6.53-5.08ZM3.79,19.19c-.01-.06-.04-.12-.04-.19V10.98c0-.06,.01-.12,.02-.18l4.8,4.2-4.79,4.19Zm1.21,1.06s-.08-.02-.12-.02l4.83-4.23,.48,.42c.52,.45,1.16,.68,1.81,.68s1.29-.23,1.81-.68l.47-.42,4.83,4.23s-.08,.02-.12,.02H5Z"/></g><g id="n"/><g id="o"/><g id="p"/><g id="q"/><g id="r"/><g id="s"/><g id="t"/><g id="u"/></svg>