<?xml version="1.0" encoding="UTF-8"?><svg xmlns="http://www.w3.org/2000/svg" viewBox="0 0 24 24"><g id="a"/><g id="b"/><g id="c"/><g id="d"/><g id="e"/><g id="f"><path d="M21,18.25h-4.88l3.82-3.82c.89-.89,1.03-2.23,.45-3.28l.97-.97c.29-.29,.29-.77,0-1.06s-.77-.29-1.06,0l-.88,.88-1.06-1.06,1.59-1.59c.29-.29,.29-.77,0-1.06s-.77-.29-1.06,0l-1.59,1.59-1.06-1.06,2.3-2.3c.29-.29,.29-.77,0-1.06s-.77-.29-1.06,0l-2.38,2.38c-1.05-.58-2.39-.44-3.28,.45l-7.07,7.07c-.52,.52-.81,1.21-.81,1.94s.29,1.43,.81,1.94l.99,.99H3c-.41,0-.75,.34-.75,.75s.34,.75,.75,.75H21c.41,0,.75-.34,.75-.75s-.34-.75-.75-.75ZM12.87,7.36s.06-.03,.09-.06l-.51,5.58c-.05,.6-.53,1.08-1.13,1.13l-5.58,.51s.03-.06,.06-.09l7.07-7.07Zm-7.07,8.84s-.07-.11-.11-.17l5.77-.52c1.32-.12,2.37-1.17,2.49-2.49l.52-5.77c.06,.04,.12,.06,.17,.11l2.12,2.12h0l2.12,2.12c.24,.24,.37,.55,.37,.88s-.13,.65-.37,.88l-4.88,4.88H7.85l-2.05-2.05Z"/></g><g id="g"/><g id="h"/><g id="i"/><g id="j"/><g id="k"/><g id="l"/><g id="m"/><g id="n"/><g id="o"/><g id="p"/><g id="q"/><g id="r"/><g id="s"/><g id="t"/><g id="u"/></svg>