<?xml version="1.0" encoding="UTF-8"?><svg xmlns="http://www.w3.org/2000/svg" viewBox="0 0 24 24"><g id="a"/><g id="b"/><g id="c"/><g id="d"><g><path d="M20.94,3.06c-1.07-1.07-2.82-1.07-3.89,0l-6.78,6.78c-.33,.33-.51,.77-.51,1.24v2.41c0,.41,.34,.75,.75,.75h2.41c.47,0,.91-.18,1.24-.51l6.78-6.78c1.07-1.07,1.07-2.82,0-3.89Zm-7.84,9.61s-.11,.07-.18,.07h-1.66v-1.66c0-.07,.03-.13,.07-.18l4.83-4.83,1.77,1.77-4.83,4.83Zm6.78-6.78l-.88,.88-1.77-1.77,.88-.88c.49-.49,1.28-.49,1.77,0,.49,.49,.49,1.28,0,1.77Z"/><path d="M18,11.25c-.41,0-.75,.34-.75,.75v6c0,1.24-1.01,2.25-2.25,2.25H6c-1.24,0-2.25-1.01-2.25-2.25V9c0-1.24,1.01-2.25,2.25-2.25h6c.41,0,.75-.34,.75-.75s-.34-.75-.75-.75H6c-2.07,0-3.75,1.68-3.75,3.75v9c0,2.07,1.68,3.75,3.75,3.75H15c2.07,0,3.75-1.68,3.75-3.75v-6c0-.41-.34-.75-.75-.75Z"/></g></g><g id="e"/><g id="f"/><g id="g"/><g id="h"/><g id="i"/><g id="j"/><g id="k"/><g id="l"/><g id="m"/><g id="n"/><g id="o"/><g id="p"/><g id="q"/><g id="r"/><g id="s"/><g id="t"/><g id="u"/></svg>