<?xml version="1.0" encoding="UTF-8"?><svg xmlns="http://www.w3.org/2000/svg" viewBox="0 0 24 24"><g id="a"/><g id="b"/><g id="c"/><g id="d"/><g id="e"/><g id="f"/><g id="g"/><g id="h"/><g id="i"/><g id="j"/><g id="k"/><g id="l"/><g id="m"><path d="M20,11.25h-4.25V7c0-.96-.79-1.75-1.75-1.75h-4c-.96,0-1.75,.79-1.75,1.75v2.25H4c-.96,0-1.75,.79-1.75,1.75v8c0,.41,.34,.75,.75,.75H21c.41,0,.75-.34,.75-.75v-6c0-.96-.79-1.75-1.75-1.75Zm0,1.5c.14,0,.25,.11,.25,.25v2.25h-4.5v-2.5h4.25ZM9.75,7c0-.14,.11-.25,.25-.25h4c.14,0,.25,.11,.25,.25V15.25h-4.5V7ZM3.75,11c0-.14,.11-.25,.25-.25h4.25v4.5H3.75v-4.25Zm16.5,7.25H3.75v-1.5H20.25v1.5Z"/></g><g id="n"/><g id="o"/><g id="p"/><g id="q"/><g id="r"/><g id="s"/><g id="t"/><g id="u"/></svg>