<?xml version="1.0" encoding="UTF-8"?><svg xmlns="http://www.w3.org/2000/svg" viewBox="0 0 24 24"><g id="a"/><g id="b"><g><path d="M9,17.25H5c-.41,0-.75,.34-.75,.75v1c0,1.52,1.23,2.75,2.75,2.75s2.75-1.23,2.75-2.75v-1c0-.41-.34-.75-.75-.75Z"/><path d="M7,2.25c-1.52,0-2.87,.91-3.44,2.33-.87,2.18-1,4.62-.35,6.88l1.07,3.75c.09,.32,.39,.54,.72,.54h4c.33,0,.63-.22,.72-.54l1.07-3.75c.65-2.26,.52-4.7-.35-6.88-.57-1.42-1.92-2.33-3.44-2.33Z"/><path d="M19,17.25h-4c-.41,0-.75,.34-.75,.75v1c0,1.52,1.23,2.75,2.75,2.75s2.75-1.23,2.75-2.75v-1c0-.41-.34-.75-.75-.75Z"/><path d="M20.44,4.58c-.57-1.42-1.92-2.33-3.44-2.33s-2.87,.91-3.44,2.33c-.87,2.18-1,4.62-.35,6.88l1.07,3.75c.09,.32,.39,.54,.72,.54h4c.33,0,.63-.22,.72-.54l1.07-3.75c.65-2.26,.52-4.7-.35-6.88Z"/></g></g><g id="c"/><g id="d"/><g id="e"/><g id="f"/><g id="g"/><g id="h"/><g id="i"/><g id="j"/><g id="k"/><g id="l"/><g id="m"/><g id="n"/><g id="o"/><g id="p"/><g id="q"/><g id="r"/><g id="s"/><g id="t"/><g id="u"/></svg>