<?xml version="1.0" encoding="UTF-8"?><svg xmlns="http://www.w3.org/2000/svg" viewBox="0 0 24 24"><g id="a"/><g id="b"/><g id="c"/><g id="d"/><g id="e"/><g id="f"/><g id="g"/><g id="h"/><g id="i"/><g id="j"/><g id="k"/><g id="l"/><g id="m"><g><path d="M19.64,5.98l-6.85-3.43s-.02,0-.03-.01V11.25h7.07l.74-3.33c.17-.78-.21-1.58-.93-1.94Z"/><path d="M4.36,5.98c-.72,.36-1.1,1.16-.93,1.94l.74,3.33h7.07V2.54s-.02,0-.03,.01l-6.85,3.43Z"/><path d="M5.19,15.83c.08,.38,.29,.72,.59,.97l5.1,4.25c.11,.09,.24,.15,.37,.21V12.75H4.51l.68,3.08Z"/><path d="M12.75,21.25c.13-.06,.26-.12,.37-.21l5.1-4.25c.3-.25,.5-.59,.59-.96l.68-3.08h-6.74v8.5Z"/></g></g><g id="n"/><g id="o"/><g id="p"/><g id="q"/><g id="r"/><g id="s"/><g id="t"/><g id="u"/></svg>