<?xml version="1.0" encoding="UTF-8"?><svg xmlns="http://www.w3.org/2000/svg" viewBox="0 0 24 24"><defs><style>.v{fill:#231f20;}</style></defs><g id="a"/><g id="b"/><g id="c"/><g id="d"/><g id="e"/><g id="f"/><g id="g"/><g id="h"/><g id="i"/><g id="j"/><g id="k"/><g id="l"/><g id="m"/><g id="n"><g><path class="v" d="M16,3.25H8c-3.17,0-5.75,2.58-5.75,5.75v10c0,1.52,1.23,2.75,2.75,2.75h14c1.52,0,2.75-1.23,2.75-2.75V9c0-3.17-2.58-5.75-5.75-5.75Zm4.25,15.75c0,.69-.56,1.25-1.25,1.25H5c-.69,0-1.25-.56-1.25-1.25V9c0-2.34,1.91-4.25,4.25-4.25h8c2.34,0,4.25,1.91,4.25,4.25v10Z"/><path class="v" d="M18.75,11v-3c0-.96-.79-1.75-1.75-1.75H7c-.96,0-1.75,.79-1.75,1.75v3c0,.96,.79,1.75,1.75,1.75h10c.96,0,1.75-.79,1.75-1.75Zm-1.5,0c0,.14-.11,.25-.25,.25H7c-.14,0-.25-.11-.25-.25v-3c0-.14,.11-.25,.25-.25h10c.14,0,.25,.11,.25,.25v3Z"/><path class="v" d="M9,14.25h-3c-.41,0-.75,.34-.75,.75s.34,.75,.75,.75h3c.41,0,.75-.34,.75-.75s-.34-.75-.75-.75Z"/><path class="v" d="M18.02,14.25h0c-.41,0-.75,.34-.75,.75s.34,.75,.75,.75,.75-.34,.75-.75-.33-.75-.75-.75Z"/><path class="v" d="M15.02,14.25h0c-.41,0-.75,.34-.75,.75s.34,.75,.75,.75,.75-.34,.75-.75-.33-.75-.75-.75Z"/><path class="v" d="M12.02,14.25h-.01c-.41,0-.74,.34-.74,.75s.34,.75,.75,.75,.75-.34,.75-.75-.34-.75-.75-.75Z"/><path class="v" d="M18.02,17.25h0c-.41,0-.75,.34-.75,.75s.34,.75,.75,.75,.75-.34,.75-.75-.33-.75-.75-.75Z"/><path class="v" d="M15.02,17.25h0c-.41,0-.75,.34-.75,.75s.34,.75,.75,.75,.75-.34,.75-.75-.33-.75-.75-.75Z"/><path class="v" d="M12.02,17.25h-.01c-.41,0-.74,.34-.74,.75s.34,.75,.75,.75,.75-.34,.75-.75-.34-.75-.75-.75Z"/></g></g><g id="o"/><g id="p"/><g id="q"/><g id="r"/><g id="s"/><g id="t"/><g id="u"/></svg>