<?xml version="1.0" encoding="UTF-8"?><svg xmlns="http://www.w3.org/2000/svg" viewBox="0 0 24 24"><defs><style>.v{fill:#231f20;}</style></defs><g id="a"/><g id="b"/><g id="c"/><g id="d"/><g id="e"/><g id="f"/><g id="g"/><g id="h"/><g id="i"/><g id="j"/><g id="k"/><g id="l"/><g id="m"/><g id="n"/><g id="o"/><g id="p"/><g id="q"/><g id="r"/><g id="s"><path class="v" d="M20,9.75c.96,0,1.75-.79,1.75-1.75v-1.28c0-.75-.48-1.42-1.2-1.66L12.55,2.39c-.36-.12-.75-.12-1.11,0L3.45,5.06c-.72,.24-1.2,.91-1.2,1.66v1.28c0,.96,.79,1.75,1.75,1.75h.25v7.78c-.66,.32-1.18,.88-1.42,1.61l-.1,.31c-.18,.53-.09,1.12,.24,1.58,.33,.46,.86,.73,1.42,.73h15.23c.56,0,1.09-.27,1.42-.73,.33-.45,.42-1.04,.24-1.58l-.1-.32c-.24-.72-.76-1.29-1.42-1.61v-7.78h.25ZM3.75,8v-1.28c0-.11,.07-.2,.17-.24l8-2.67s.05-.01,.08-.01,.05,0,.08,.01l8,2.67c.1,.03,.17,.13,.17,.24v1.28c0,.14-.11,.25-.25,.25H4c-.14,0-.25-.11-.25-.25Zm6,9.25v-7.5h4.5v7.5h-4.5Zm-1.5-7.5v7.5h-2.5v-7.5h2.5Zm11.57,10.4s-.09,.1-.2,.1H4.39c-.11,0-.17-.06-.2-.1-.03-.04-.07-.12-.03-.23l.1-.31c.17-.51,.65-.85,1.19-.85h13.12c.54,0,1.02,.34,1.19,.85l.1,.32c.04,.11,0,.19-.03,.23Zm-1.57-2.9h-2.5v-7.5h2.5v7.5Z"/></g><g id="t"/><g id="u"/></svg>