<?xml version="1.0" encoding="UTF-8"?><svg xmlns="http://www.w3.org/2000/svg" viewBox="0 0 24 24"><defs><style>.v{fill:#231f20;}</style></defs><g id="a"/><g id="b"/><g id="c"/><g id="d"/><g id="e"/><g id="f"/><g id="g"/><g id="h"/><g id="i"/><g id="j"/><g id="k"/><g id="l"/><g id="m"/><g id="n"/><g id="o"/><g id="p"/><g id="q"><g><path class="v" d="M21.75,14v-6c0-2.62-2.13-4.75-4.75-4.75H7c-2.62,0-4.75,2.13-4.75,4.75v6c0,1.87,1.1,3.48,2.68,4.25l-1.55,2.33c-.23,.34-.14,.81,.21,1.04,.13,.09,.27,.13,.42,.13,.24,0,.48-.12,.63-.33l1.82-2.72c.19,.02,.37,.06,.56,.06h10c.19,0,.37-.03,.56-.06l1.82,2.72c.14,.22,.38,.33,.63,.33,.14,0,.29-.04,.42-.13,.34-.23,.44-.7,.21-1.04l-1.55-2.33c1.58-.77,2.68-2.38,2.68-4.25Zm-1.5,0c0,1.79-1.46,3.25-3.25,3.25H7c-1.79,0-3.25-1.46-3.25-3.25v-6c0-1.79,1.46-3.25,3.25-3.25h10c1.79,0,3.25,1.46,3.25,3.25v6Z"/><path class="v" d="M15,7.25c-2.07,0-3.75,1.68-3.75,3.75s1.68,3.75,3.75,3.75,3.75-1.68,3.75-3.75-1.68-3.75-3.75-3.75Zm0,6c-1.24,0-2.25-1.01-2.25-2.25s1.01-2.25,2.25-2.25c.98,0,1.8,.63,2.11,1.5h-1.11c-.41,0-.75,.34-.75,.75s.34,.75,.75,.75h1.11c-.31,.87-1.14,1.5-2.11,1.5Z"/><path class="v" d="M7,7.25c-.41,0-.75,.34-.75,.75v6c0,.41,.34,.75,.75,.75s.75-.34,.75-.75v-6c0-.41-.34-.75-.75-.75Z"/></g></g><g id="r"/><g id="s"/><g id="t"/><g id="u"/></svg>