<?xml version="1.0" encoding="UTF-8"?><svg xmlns="http://www.w3.org/2000/svg" viewBox="0 0 24 24"><defs><style>.v{fill:#231f20;}</style></defs><g id="a"/><g id="b"><g><path class="v" d="M17,5.25h-3.19l.72-.72c.29-.29,.29-.77,0-1.06s-.77-.29-1.06,0l-2,2c-.07,.07-.12,.15-.16,.24-.08,.18-.08,.39,0,.57,.04,.09,.09,.17,.16,.24l2,2c.15,.15,.34,.22,.53,.22s.38-.07,.53-.22c.29-.29,.29-.77,0-1.06l-.72-.72h3.19c1.79,0,3.25,1.46,3.25,3.25v4c0,1.79-1.46,3.25-3.25,3.25h-1c-.41,0-.75,.34-.75,.75s.34,.75,.75,.75h1c2.62,0,4.75-2.13,4.75-4.75v-4c0-2.62-2.13-4.75-4.75-4.75Z"/><path class="v" d="M16.02,12.75c.42,0,.75-.34,.75-.75s-.33-.75-.75-.75h0c-.41,0-.75,.34-.75,.75s.34,.75,.75,.75Z"/><path class="v" d="M12.02,11.25h0c-.41,0-.75,.34-.75,.75s.34,.75,.75,.75,.75-.34,.75-.75-.33-.75-.75-.75Z"/><path class="v" d="M8.02,11.25h0c-.41,0-.75,.34-.75,.75s.34,.75,.75,.75,.75-.34,.75-.75-.33-.75-.75-.75Z"/><path class="v" d="M12.69,17.71c-.04-.09-.09-.17-.16-.24l-2-2c-.29-.29-.77-.29-1.06,0s-.29,.77,0,1.06l.72,.72h-3.19c-1.79,0-3.25-1.46-3.25-3.25v-4c0-1.79,1.46-3.25,3.25-3.25h1c.41,0,.75-.34,.75-.75s-.34-.75-.75-.75h-1c-2.62,0-4.75,2.13-4.75,4.75v4c0,2.62,2.13,4.75,4.75,4.75h3.19l-.72,.72c-.29,.29-.29,.77,0,1.06,.15,.15,.34,.22,.53,.22s.38-.07,.53-.22l2-2c.07-.07,.12-.15,.16-.24,.08-.18,.08-.39,0-.57Z"/></g></g><g id="c"/><g id="d"/><g id="e"/><g id="f"/><g id="g"/><g id="h"/><g id="i"/><g id="j"/><g id="k"/><g id="l"/><g id="m"/><g id="n"/><g id="o"/><g id="p"/><g id="q"/><g id="r"/><g id="s"/><g id="t"/><g id="u"/></svg>