<?xml version="1.0" encoding="UTF-8"?><svg xmlns="http://www.w3.org/2000/svg" viewBox="0 0 24 24"><defs><style>.v{fill:#231f20;}</style></defs><g id="a"/><g id="b"/><g id="c"/><g id="d"/><g id="e"/><g id="f"/><g id="g"/><g id="h"/><g id="i"><path class="v" d="M17.94,10.88c-.6-.6-.98-1.37-1.13-2.2,.53-.14,.93-.61,.93-1.19v-1c0-.51-.31-.95-.75-1.14l.49-1.46c.13-.38,.06-.8-.17-1.13-.23-.33-.61-.52-1.01-.52H7.69c-.4,0-.78,.19-1.01,.52-.23,.33-.3,.75-.17,1.13l.49,1.46c-.44,.19-.75,.63-.75,1.14v1c0,.58,.4,1.04,.93,1.19-.14,.83-.53,1.6-1.13,2.2-1.16,1.16-1.81,2.71-1.81,4.36v.52c0,1.65,.64,3.19,1.81,4.36,1.05,1.05,2.45,1.63,3.94,1.63h4c1.47,0,2.91-.6,3.94-1.63,1.16-1.16,1.81-2.71,1.81-4.36v-.52c0-1.65-.64-3.19-1.81-4.36ZM7.75,7.25v-.5h8.5v.5H7.75ZM15.96,3.75l-.5,1.5h-6.92l-.5-1.5h7.92Zm2.29,12.01c0,1.25-.49,2.42-1.37,3.3-.76,.76-1.81,1.19-2.88,1.19h-4c-1.09,0-2.11-.42-2.88-1.19-.88-.88-1.37-2.05-1.37-3.3v-.52c0-1.25,.49-2.42,1.37-3.3s1.39-2,1.56-3.19h6.65c.17,1.2,.7,2.33,1.56,3.19s1.37,2.05,1.37,3.3v.52Z"/></g><g id="j"/><g id="k"/><g id="l"/><g id="m"/><g id="n"/><g id="o"/><g id="p"/><g id="q"/><g id="r"/><g id="s"/><g id="t"/><g id="u"/></svg>