<?xml version="1.0" encoding="UTF-8"?><svg xmlns="http://www.w3.org/2000/svg" viewBox="0 0 24 24"><defs><style>.v{fill:#231f20;}</style></defs><g id="a"/><g id="b"/><g id="c"/><g id="d"/><g id="e"/><g id="f"/><g id="g"/><g id="h"/><g id="i"/><g id="j"/><g id="k"/><g id="l"/><g id="m"/><g id="n"/><g id="o"/><g id="p"/><g id="q"/><g id="r"><path class="v" d="M21.24,8.94l-2.31-3.85c-.31-.52-.89-.85-1.5-.85H6.57c-.61,0-1.19,.33-1.5,.85l-2.31,3.85c-.41,.69-.3,1.57,.26,2.14l7.74,7.74c.34,.34,.79,.51,1.24,.51s.9-.17,1.24-.51l7.74-7.74c.57-.57,.68-1.45,.26-2.14Zm-13.73,1.81l2.16,4.86-4.86-4.86h2.7Zm5.98-5l1.4,3.5h-5.79l1.4-3.5h2.98Zm1.35,5l-2.85,6.4-2.85-6.4h5.69Zm1.64,0h2.7l-4.86,4.86,2.16-4.86Zm1.16-4.88l2.03,3.38h-3.17l-1.4-3.5h2.33c.09,0,.17,.05,.21,.12Zm-11.29,0c.04-.08,.13-.12,.21-.12h2.33l-1.4,3.5h-3.17l2.03-3.38Z"/></g><g id="s"/><g id="t"/><g id="u"/></svg>