<?xml version="1.0" encoding="UTF-8"?><svg xmlns="http://www.w3.org/2000/svg" viewBox="0 0 24 24"><defs><style>.v{fill:#231f20;}</style></defs><g id="a"/><g id="b"/><g id="c"/><g id="d"/><g id="e"/><g id="f"/><g id="g"/><g id="h"/><g id="i"/><g id="j"><g><path class="v" d="M20,14.25h-6.12l1.55-1.55c.33-.33,.51-.77,.51-1.24,0-.47-.18-.91-.51-1.24l-5.66-5.66c-.66-.66-1.81-.66-2.47,0l-3.54,3.54c-.33,.33-.51,.77-.51,1.24,0,.47,.18,.91,.51,1.24l3.67,3.67h-3.43c-.96,0-1.75,.79-1.75,1.75v2c0,.96,.79,1.75,1.75,1.75H20c.96,0,1.75-.79,1.75-1.75v-2c0-.96-.79-1.75-1.75-1.75Zm-10.47-.02l-4.71-4.71c-.06-.06-.07-.14-.07-.17s0-.11,.07-.18l3.54-3.54c.13-.13,.23-.13,.35,0l5.66,5.66c.06,.06,.07,.14,.07,.17s0,.11-.07,.18l-2.61,2.61h-2.22s0-.02-.01-.02Zm10.72,3.77c0,.14-.11,.25-.25,.25H4c-.14,0-.25-.11-.25-.25v-2c0-.14,.11-.25,.25-.25H20c.14,0,.25,.11,.25,.25v2Z"/><path class="v" d="M6.94,8.81c-.29-.29-.77-.29-1.06,0s-.29,.77,0,1.06l1.41,1.42c.15,.15,.34,.22,.53,.22s.38-.07,.53-.22c.29-.29,.29-.77,0-1.06l-1.41-1.42Z"/><path class="v" d="M16,6.75h5c.41,0,.75-.34,.75-.75s-.34-.75-.75-.75h-5c-.41,0-.75,.34-.75,.75s.34,.75,.75,.75Z"/><path class="v" d="M21,8.25h-4c-.41,0-.75,.34-.75,.75s.34,.75,.75,.75h4c.41,0,.75-.34,.75-.75s-.34-.75-.75-.75Z"/><path class="v" d="M21,11.25h-3c-.41,0-.75,.34-.75,.75s.34,.75,.75,.75h3c.41,0,.75-.34,.75-.75s-.34-.75-.75-.75Z"/></g></g><g id="k"/><g id="l"/><g id="m"/><g id="n"/><g id="o"/><g id="p"/><g id="q"/><g id="r"/><g id="s"/><g id="t"/><g id="u"/></svg>