<?xml version="1.0" encoding="UTF-8"?><svg xmlns="http://www.w3.org/2000/svg" viewBox="0 0 24 24"><defs><style>.v{fill:#231f20;}</style></defs><g id="a"/><g id="b"/><g id="c"/><g id="d"/><g id="e"/><g id="f"/><g id="g"/><g id="h"/><g id="i"/><g id="j"/><g id="k"><g><path class="v" d="M12,2.25c-4.27,0-7.75,3.48-7.75,7.75v11c0,.41,.34,.75,.75,.75s.75-.34,.75-.75V10c0-3.45,2.8-6.25,6.25-6.25s6.25,2.8,6.25,6.25v11c0,.41,.34,.75,.75,.75s.75-.34,.75-.75V10c0-4.27-3.48-7.75-7.75-7.75Z"/><path class="v" d="M12,6.25c-.84,0-1.66,.22-2.38,.64-.36,.21-.48,.67-.27,1.03,.21,.36,.67,.48,1.02,.27,.49-.28,1.05-.43,1.62-.43,1.79,0,3.25,1.46,3.25,3.25v4c0,1.79-1.46,3.25-3.25,3.25s-3.25-1.46-3.25-3.25v-4c0-.41-.34-.75-.75-.75s-.75,.34-.75,.75v4c0,2.62,2.13,4.75,4.75,4.75s4.75-2.13,4.75-4.75v-4c0-2.62-2.13-4.75-4.75-4.75Z"/><path class="v" d="M13,14.75c.41,0,.75-.34,.75-.75v-3c0-.96-.79-1.75-1.75-1.75s-1.75,.79-1.75,1.75v4c0,.96,.79,1.75,1.75,1.75,.41,0,.75-.34,.75-.75s-.34-.75-.75-.75c-.14,0-.25-.11-.25-.25v-4c0-.28,.5-.28,.5,0v3c0,.41,.34,.75,.75,.75Z"/></g></g><g id="l"/><g id="m"/><g id="n"/><g id="o"/><g id="p"/><g id="q"/><g id="r"/><g id="s"/><g id="t"/><g id="u"/></svg>