<?xml version="1.0" encoding="UTF-8"?><svg xmlns="http://www.w3.org/2000/svg" viewBox="0 0 24 24"><defs><style>.v{fill:#231f20;}</style></defs><g id="a"/><g id="b"/><g id="c"/><g id="d"><g><path class="v" d="M14,16.25c-.41,0-.75,.34-.75,.75v1c0,1.24-1.01,2.25-2.25,2.25H7c-1.24,0-2.25-1.01-2.25-2.25V6c0-1.24,1.01-2.25,2.25-2.25h4c1.24,0,2.25,1.01,2.25,2.25,0,.41,.34,.75,.75,.75s.75-.34,.75-.75c0-2.07-1.68-3.75-3.75-3.75H7c-2.07,0-3.75,1.68-3.75,3.75v12c0,2.07,1.68,3.75,3.75,3.75h4c2.07,0,3.75-1.68,3.75-3.75v-1c0-.41-.34-.75-.75-.75Z"/><path class="v" d="M19,7.25h-6c-1.52,0-2.75,1.23-2.75,2.75v3c0,1.52,1.23,2.75,2.75,2.75h6c1.52,0,2.75-1.23,2.75-2.75v-3c0-1.52-1.23-2.75-2.75-2.75Zm-6,1.5h6c.69,0,1.25,.56,1.25,1.25v.25H11.75v-.25c0-.69,.56-1.25,1.25-1.25Zm6,5.5h-6c-.69,0-1.25-.56-1.25-1.25v-1.25h8.5v1.25c0,.69-.56,1.25-1.25,1.25Z"/><path class="v" d="M7.25,18c0,.41,.34,.75,.75,.75h2c.41,0,.75-.34,.75-.75s-.34-.75-.75-.75h-2c-.41,0-.75,.34-.75,.75Z"/></g></g><g id="e"/><g id="f"/><g id="g"/><g id="h"/><g id="i"/><g id="j"/><g id="k"/><g id="l"/><g id="m"/><g id="n"/><g id="o"/><g id="p"/><g id="q"/><g id="r"/><g id="s"/><g id="t"/><g id="u"/></svg>