<?xml version="1.0" encoding="UTF-8"?><svg xmlns="http://www.w3.org/2000/svg" viewBox="0 0 24 24"><defs><style>.v{fill:#231f20;}</style></defs><g id="a"/><g id="b"/><g id="c"/><g id="d"/><g id="e"/><g id="f"/><g id="g"/><g id="h"><g><path class="v" d="M19,10.25h-4.36l2.08-2.08c.68-.68,.68-1.79,0-2.47l-1.41-1.41c-.68-.68-1.79-.68-2.47,0l-5.66,5.66c-.09,.09-.14,.2-.18,.32h-2c-1.52,0-2.75,1.23-2.75,2.75v5c0,1.52,1.23,2.75,2.75,2.75h14c1.52,0,2.75-1.23,2.75-2.75v-5c0-1.52-1.23-2.75-2.75-2.75Zm-5.11-4.91c.1-.1,.26-.1,.35,0l1.41,1.41c.1,.1,.1,.26,0,.35l-.88,.88-1.77-1.77,.88-.88Zm-5.5,5.5l3.55-3.55,1.77,1.77-3.55,3.55-2.21,.44,.44-2.21Zm11.85,7.17c0,.69-.56,1.25-1.25,1.25H5c-.69,0-1.25-.56-1.25-1.25v-5c0-.69,.56-1.25,1.25-1.25h1.69l-.42,2.1c-.05,.25,.03,.5,.21,.68,.14,.14,.33,.22,.53,.22,.05,0,.1,0,.15-.01l3.54-.71c.14-.03,.28-.1,.38-.21l2.07-2.07h5.86c.69,0,1.25,.56,1.25,1.25v5Z"/><path class="v" d="M18,13.25h-4c-.41,0-.75,.34-.75,.75s.34,.75,.75,.75h4c.41,0,.75-.34,.75-.75s-.34-.75-.75-.75Z"/><path class="v" d="M18,16.25H6c-.41,0-.75,.34-.75,.75s.34,.75,.75,.75h12c.41,0,.75-.34,.75-.75s-.34-.75-.75-.75Z"/></g></g><g id="i"/><g id="j"/><g id="k"/><g id="l"/><g id="m"/><g id="n"/><g id="o"/><g id="p"/><g id="q"/><g id="r"/><g id="s"/><g id="t"/><g id="u"/></svg>