<?xml version="1.0" encoding="UTF-8"?><svg xmlns="http://www.w3.org/2000/svg" viewBox="0 0 24 24"><defs><style>.v{fill:#231f20;}</style></defs><g id="a"/><g id="b"/><g id="c"/><g id="d"/><g id="e"><g><path class="v" d="M18,2.25h-7c-2.07,0-3.75,1.68-3.75,3.75v1c0,.41,.34,.75,.75,.75s.75-.34,.75-.75v-1c0-1.24,1.01-2.25,2.25-2.25h7c1.24,0,2.25,1.01,2.25,2.25v12c0,1.24-1.01,2.25-2.25,2.25h-7c-.95,0-1.81-.6-2.12-1.5-.14-.39-.57-.6-.96-.46-.39,.14-.6,.57-.46,.96,.53,1.5,1.95,2.5,3.54,2.5h7c2.07,0,3.75-1.68,3.75-3.75V6c0-2.07-1.68-3.75-3.75-3.75Z"/><path class="v" d="M15.75,15v-4c0-1.52-1.23-2.75-2.75-2.75H5c-1.52,0-2.75,1.23-2.75,2.75v4c0,1.52,1.23,2.75,2.75,2.75H13c1.52,0,2.75-1.23,2.75-2.75ZM5,9.75H13c.69,0,1.25,.56,1.25,1.25v.25H3.75v-.25c0-.69,.56-1.25,1.25-1.25Zm-1.25,5.25v-2.25H14.25v2.25c0,.69-.56,1.25-1.25,1.25H5c-.69,0-1.25-.56-1.25-1.25Z"/><path class="v" d="M17,11.25c-.41,0-.75,.34-.75,.75s.34,.75,.75,.75c.96,0,1.75-.79,1.75-1.75V7c0-.96-.79-1.75-1.75-1.75h-5c-.96,0-1.75,.79-1.75,1.75,0,.41,.34,.75,.75,.75s.75-.34,.75-.75c0-.14,.11-.25,.25-.25h5c.14,0,.25,.11,.25,.25v4c0,.14-.11,.25-.25,.25Z"/></g></g><g id="f"/><g id="g"/><g id="h"/><g id="i"/><g id="j"/><g id="k"/><g id="l"/><g id="m"/><g id="n"/><g id="o"/><g id="p"/><g id="q"/><g id="r"/><g id="s"/><g id="t"/><g id="u"/></svg>