<?xml version="1.0" encoding="UTF-8"?><svg xmlns="http://www.w3.org/2000/svg" viewBox="0 0 24 24"><defs><style>.v{fill:#231f20;}</style></defs><g id="a"/><g id="b"/><g id="c"/><g id="d"/><g id="e"/><g id="f"/><g id="g"/><g id="h"/><g id="i"/><g id="j"/><g id="k"/><g id="l"/><g id="m"/><g id="n"/><g id="o"/><g id="p"><g><path class="v" d="M19.57,4.45l-.27-.55c-.25-.5-.73-.85-1.29-.94-.55-.09-1.12,.09-1.52,.49l-.31,.31c-.13,.13-.23,.13-.35,0l-.59-.59c-.68-.68-1.79-.68-2.47,0l-.59,.59c-.13,.13-.23,.13-.35,0l-.59-.59c-.68-.68-1.79-.68-2.47,0l-.59,.59c-.13,.13-.23,.13-.35,0l-.31-.31c-.4-.4-.97-.58-1.52-.49-.55,.09-1.03,.44-1.29,.94l-.27,.55c-.12,.24-.18,.51-.18,.78v13.53c0,.27,.06,.54,.18,.78l.27,.55c.25,.5,.73,.85,1.29,.94,.55,.09,1.12-.09,1.52-.49l.31-.31c.13-.13,.23-.13,.35,0l.59,.59c.68,.68,1.79,.68,2.47,0l.59-.59c.13-.13,.23-.13,.35,0l.59,.59c.34,.34,.79,.51,1.24,.51s.9-.17,1.24-.51l.59-.59c.13-.13,.23-.13,.35,0l.31,.31c.4,.4,.96,.58,1.52,.49,.55-.09,1.03-.44,1.29-.94l.27-.55c.12-.24,.18-.51,.18-.78V5.24c0-.27-.06-.54-.18-.78Zm-1.32,14.31s0,.08-.03,.11l-.27,.55c-.05,.1-.14,.13-.18,.13-.05,0-.14,0-.22-.07l-.31-.31c-.68-.68-1.79-.68-2.47,0l-.59,.59c-.1,.1-.26,.1-.35,0l-.59-.59c-.33-.33-.77-.51-1.24-.51s-.91,.18-1.24,.51l-.59,.59c-.1,.1-.26,.1-.35,0l-.59-.59c-.68-.68-1.79-.68-2.47,0l-.31,.31c-.08,.08-.17,.08-.22,.07-.05,0-.13-.04-.18-.13l-.27-.55s-.03-.07-.03-.11V5.24s0-.08,.03-.11h0l.27-.55c.05-.1,.14-.13,.18-.13,.04,0,.14,0,.22,.07l.31,.31c.68,.68,1.79,.68,2.47,0l.59-.59c.1-.1,.26-.1,.35,0l.59,.59c.66,.66,1.81,.66,2.47,0l.59-.59c.1-.1,.26-.1,.35,0l.59,.59c.68,.68,1.79,.68,2.47,0l.31-.31c.08-.08,.17-.08,.22-.07,.05,0,.13,.04,.18,.13l.27,.55s.03,.07,.03,.11v13.53Z"/><path class="v" d="M16,7.25H8c-.41,0-.75,.34-.75,.75s.34,.75,.75,.75h8c.41,0,.75-.34,.75-.75s-.34-.75-.75-.75Z"/><path class="v" d="M12,11.25h-4c-.41,0-.75,.34-.75,.75s.34,.75,.75,.75h4c.41,0,.75-.34,.75-.75s-.34-.75-.75-.75Z"/><path class="v" d="M12,15.25h-4c-.41,0-.75,.34-.75,.75s.34,.75,.75,.75h4c.41,0,.75-.34,.75-.75s-.34-.75-.75-.75Z"/><path class="v" d="M16,11.25h-1c-.41,0-.75,.34-.75,.75s.34,.75,.75,.75h1c.41,0,.75-.34,.75-.75s-.34-.75-.75-.75Z"/><path class="v" d="M16,15.25h-1c-.41,0-.75,.34-.75,.75s.34,.75,.75,.75h1c.41,0,.75-.34,.75-.75s-.34-.75-.75-.75Z"/></g></g><g id="q"/><g id="r"/><g id="s"/><g id="t"/><g id="u"/></svg>