<?xml version="1.0" encoding="UTF-8"?><svg xmlns="http://www.w3.org/2000/svg" viewBox="0 0 24 24"><defs><style>.v{fill:#231f20;}</style></defs><g id="a"/><g id="b"/><g id="c"/><g id="d"/><g id="e"/><g id="f"/><g id="g"/><g id="h"/><g id="i"/><g id="j"/><g id="k"/><g id="l"><g><path class="v" d="M13.75,11v-3c0-.96-.79-1.75-1.75-1.75h-4c-.96,0-1.75,.79-1.75,1.75v3c0,.96,.79,1.75,1.75,1.75h4c.96,0,1.75-.79,1.75-1.75Zm-1.5,0c0,.14-.11,.25-.25,.25h-4c-.14,0-.25-.11-.25-.25v-3c0-.14,.11-.25,.25-.25h4c.14,0,.25,.11,.25,.25v3Z"/><path class="v" d="M10.02,14.25h0c-.41,0-.75,.34-.75,.75s.34,.75,.75,.75,.75-.34,.75-.75-.33-.75-.75-.75Z"/><path class="v" d="M10.02,17.25h0c-.41,0-.75,.34-.75,.75s.34,.75,.75,.75,.75-.34,.75-.75-.33-.75-.75-.75Z"/><path class="v" d="M13.02,14.25h0c-.41,0-.75,.34-.75,.75s.34,.75,.75,.75,.75-.34,.75-.75-.33-.75-.75-.75Z"/><path class="v" d="M13.02,17.25h0c-.41,0-.75,.34-.75,.75s.34,.75,.75,.75,.75-.34,.75-.75-.33-.75-.75-.75Z"/><path class="v" d="M7.02,14.25h0c-.41,0-.75,.34-.75,.75s.34,.75,.75,.75,.75-.34,.75-.75-.33-.75-.75-.75Z"/><path class="v" d="M7.02,17.25h0c-.41,0-.75,.34-.75,.75s.34,.75,.75,.75,.75-.34,.75-.75-.33-.75-.75-.75Z"/><path class="v" d="M18,6.25h-1.33c-.35-1.71-1.86-3-3.67-3H7c-2.07,0-3.75,1.68-3.75,3.75v11c0,2.07,1.68,3.75,3.75,3.75h6c1.81,0,3.33-1.29,3.67-3h1.33c1.52,0,2.75-1.23,2.75-2.75v-7c0-1.52-1.23-2.75-2.75-2.75Zm-5,14H7c-1.24,0-2.25-1.01-2.25-2.25V7c0-1.24,1.01-2.25,2.25-2.25h6c1.24,0,2.25,1.01,2.25,2.25v11c0,1.24-1.01,2.25-2.25,2.25Zm6.25-4.25c0,.69-.56,1.25-1.25,1.25h-1.25V7.75h1.25c.69,0,1.25,.56,1.25,1.25v7Z"/></g></g><g id="m"/><g id="n"/><g id="o"/><g id="p"/><g id="q"/><g id="r"/><g id="s"/><g id="t"/><g id="u"/></svg>