<?xml version="1.0" encoding="UTF-8"?><svg xmlns="http://www.w3.org/2000/svg" viewBox="0 0 24 24"><defs><style>.v{fill:#231f20;}</style></defs><g id="a"/><g id="b"/><g id="c"/><g id="d"/><g id="e"/><g id="f"><g><path class="v" d="M15,2.25h-6c-2.07,0-3.75,1.68-3.75,3.75v5c0,1.81,1.29,3.33,3,3.67v4.33c0,1.52,1.23,2.75,2.75,2.75h2c1.52,0,2.75-1.23,2.75-2.75v-4.33c1.71-.35,3-1.86,3-3.67V6c0-2.07-1.68-3.75-3.75-3.75Zm-.75,16.75c0,.69-.56,1.25-1.25,1.25h-2c-.69,0-1.25-.56-1.25-1.25v-5c0-.69,.56-1.25,1.25-1.25h2c.69,0,1.25,.56,1.25,1.25v5Zm3-8c0,1.03-.7,1.89-1.65,2.16-.36-1.1-1.38-1.91-2.6-1.91h-2c-1.22,0-2.25,.8-2.6,1.91-.95-.27-1.65-1.13-1.65-2.16V6c0-1.24,1.01-2.25,2.25-2.25h6c1.24,0,2.25,1.01,2.25,2.25v5Z"/><path class="v" d="M12,5.25c-1.55,0-3.01,.76-3.9,2.04-.24,.34-.15,.81,.19,1.04,.13,.09,.28,.13,.43,.13,.24,0,.47-.11,.62-.32,.61-.87,1.61-1.4,2.67-1.4s2.06,.52,2.67,1.39c.24,.34,.71,.42,1.04,.19,.34-.24,.42-.7,.19-1.04-.89-1.28-2.35-2.04-3.9-2.04Z"/><path class="v" d="M12,7.25c-1.08,0-2.06,.64-2.51,1.62-.17,.38,0,.82,.38,.99,.1,.04,.21,.07,.31,.07,.29,0,.56-.16,.68-.44,.2-.45,.65-.74,1.14-.74s.94,.29,1.14,.74c.17,.38,.62,.54,.99,.38,.38-.17,.54-.62,.37-.99-.44-.98-1.43-1.62-2.51-1.62Z"/></g></g><g id="g"/><g id="h"/><g id="i"/><g id="j"/><g id="k"/><g id="l"/><g id="m"/><g id="n"/><g id="o"/><g id="p"/><g id="q"/><g id="r"/><g id="s"/><g id="t"/><g id="u"/></svg>