<?xml version="1.0" encoding="UTF-8"?><svg xmlns="http://www.w3.org/2000/svg" viewBox="0 0 24 24"><defs><style>.v{fill:#231f20;}</style></defs><g id="a"/><g id="b"/><g id="c"/><g id="d"/><g id="e"/><g id="f"/><g id="g"/><g id="h"/><g id="i"/><g id="j"/><g id="k"/><g id="l"/><g id="m"/><g id="n"/><g id="o"/><g id="p"/><g id="q"/><g id="r"><g><path class="v" d="M19,13.25h-1.71c-.97,0-1.86,.5-2.34,1.31-.61,1.04-1.74,1.69-2.94,1.69s-2.33-.65-2.94-1.69c-.48-.81-1.38-1.31-2.34-1.31h-1.71c-1.52,0-2.75,1.23-2.75,2.75v2c0,1.52,1.23,2.75,2.75,2.75h14c1.52,0,2.75-1.23,2.75-2.75v-2c0-1.52-1.23-2.75-2.75-2.75Z"/><path class="v" d="M11.47,13.53c.07,.07,.16,.13,.24,.16,.09,.04,.19,.06,.29,.06s.2-.02,.29-.06c.09-.04,.17-.09,.24-.16l3-3c.29-.29,.29-.77,0-1.06s-.77-.29-1.06,0l-1.72,1.72V5c0-.41-.34-.75-.75-.75s-.75,.34-.75,.75v6.19l-1.72-1.72c-.29-.29-.77-.29-1.06,0s-.29,.77,0,1.06l3,3Z"/></g></g><g id="s"/><g id="t"/><g id="u"/></svg>