<?xml version="1.0" encoding="UTF-8"?><svg xmlns="http://www.w3.org/2000/svg" viewBox="0 0 24 24"><defs><style>.v{fill:#231f20;}</style></defs><g id="a"/><g id="b"/><g id="c"/><g id="d"/><g id="e"><g><path class="v" d="M6,5.25c-.41,0-.75,.34-.75,.75v12c0,.41,.34,.75,.75,.75h12c.41,0,.75-.34,.75-.75V6c0-.41-.34-.75-.75-.75H6ZM15,14.75h-6c-.41,0-.75-.34-.75-.75s.34-.75,.75-.75h6c.41,0,.75,.34,.75,.75s-.34,.75-.75,.75Zm0-4h-6c-.41,0-.75-.34-.75-.75s.34-.75,.75-.75h6c.41,0,.75,.34,.75,.75s-.34,.75-.75,.75Z"/><path class="v" d="M6,3.75h12c1.21,0,2.19,.96,2.24,2.15,.31-.39,.51-.87,.51-1.4,0-1.24-1.01-2.25-2.25-2.25H5.5c-1.24,0-2.25,1.01-2.25,2.25,0,.53,.2,1.02,.51,1.4,.05-1.19,1.03-2.15,2.24-2.15Z"/><path class="v" d="M18,20.25H6c-1.21,0-2.19-.96-2.24-2.15-.31,.39-.51,.87-.51,1.4,0,1.24,1.01,2.25,2.25,2.25h13c1.24,0,2.25-1.01,2.25-2.25,0-.53-.2-1.02-.51-1.4-.05,1.2-1.03,2.15-2.24,2.15Z"/></g></g><g id="f"/><g id="g"/><g id="h"/><g id="i"/><g id="j"/><g id="k"/><g id="l"/><g id="m"/><g id="n"/><g id="o"/><g id="p"/><g id="q"/><g id="r"/><g id="s"/><g id="t"/><g id="u"/></svg>