<?xml version="1.0" encoding="UTF-8"?><svg xmlns="http://www.w3.org/2000/svg" viewBox="0 0 24 24"><defs><style>.v{fill:#231f20;}</style></defs><g id="a"/><g id="b"/><g id="c"><g><path class="v" d="M14,9.75h-4c-.69,0-1.25,.56-1.25,1.25v1c0,.69,.56,1.25,1.25,1.25h.39c.54,0,1.07,.16,1.53,.46l1.37,.91c.17-.79,.87-1.38,1.71-1.38,.14,0,.25-.11,.25-.25v-2c0-.69-.56-1.25-1.25-1.25Z"/><path class="v" d="M17,3.25H7c-2.62,0-4.75,2.13-4.75,4.75v8c0,2.62,2.13,4.75,4.75,4.75h10c2.62,0,4.75-2.13,4.75-4.75V8c0-2.62-2.13-4.75-4.75-4.75Zm-.25,9.75c0,.96-.79,1.75-1.75,1.75-.14,0-.25,.11-.25,.25v1c0,.28-.15,.53-.4,.66-.11,.06-.23,.09-.35,.09-.15,0-.29-.04-.42-.13l-2.5-1.66c-.21-.14-.45-.21-.69-.21h-.39c-1.52,0-2.75-1.23-2.75-2.75v-1c0-1.52,1.23-2.75,2.75-2.75h4c1.52,0,2.75,1.23,2.75,2.75v2Z"/></g></g><g id="d"/><g id="e"/><g id="f"/><g id="g"/><g id="h"/><g id="i"/><g id="j"/><g id="k"/><g id="l"/><g id="m"/><g id="n"/><g id="o"/><g id="p"/><g id="q"/><g id="r"/><g id="s"/><g id="t"/><g id="u"/></svg>