<?xml version="1.0" encoding="UTF-8"?><svg xmlns="http://www.w3.org/2000/svg" viewBox="0 0 24 24"><defs><style>.v{fill:#231f20;}</style></defs><g id="a"/><g id="b"/><g id="c"/><g id="d"/><g id="e"/><g id="f"/><g id="g"/><g id="h"/><g id="i"/><g id="j"/><g id="k"/><g id="l"/><g id="m"><g><polygon class="v" points="10.01 11.36 9.85 12.38 10.87 12.21 14.16 8.91 13.31 8.06 10.01 11.36"/><path class="v" d="M18,3.25H6c-2.07,0-3.75,1.68-3.75,3.75v6c0,2.07,1.68,3.75,3.75,3.75h1.5c.7,0,1.38,.34,1.8,.9l1.3,1.73c.33,.45,.84,.7,1.4,.7s1.07-.26,1.4-.7l1.3-1.73c.42-.56,1.1-.9,1.8-.9h1.5c2.07,0,3.75-1.68,3.75-3.75V7c0-2.07-1.68-3.75-3.75-3.75Zm-2.58,6.53l-3.66,3.66c-.11,.11-.25,.18-.41,.21l-2.29,.38s-.08,0-.12,0c-.2,0-.39-.08-.53-.22-.17-.17-.25-.41-.21-.65l.38-2.29c.03-.16,.1-.3,.21-.41l3.66-3.66c.25-.25,.58-.39,.9-.39h0c.28,0,.54,.11,.73,.3l1.43,1.43c.19,.19,.3,.45,.3,.73,0,.32-.14,.65-.39,.9Z"/></g></g><g id="n"/><g id="o"/><g id="p"/><g id="q"/><g id="r"/><g id="s"/><g id="t"/><g id="u"/></svg>