<?xml version="1.0" encoding="UTF-8"?><svg xmlns="http://www.w3.org/2000/svg" viewBox="0 0 24 24"><g id="a"/><g id="b"/><g id="c"/><g id="d"/><g id="e"/><g id="f"/><g id="g"/><g id="h"><path d="M16.75,9.33v-2.33c0-2.62-2.13-4.75-4.75-4.75s-4.75,2.13-4.75,4.75v2.33c-1.71,.35-3,1.86-3,3.67v5c0,2.07,1.68,3.75,3.75,3.75h8c2.07,0,3.75-1.68,3.75-3.75v-5c0-1.81-1.29-3.33-3-3.67ZM12,3.75c1.79,0,3.25,1.46,3.25,3.25v2.25h-6.5v-2.25c0-1.79,1.46-3.25,3.25-3.25Zm.75,13.25c0,.41-.34,.75-.75,.75s-.75-.34-.75-.75v-3c0-.41,.34-.75,.75-.75s.75,.34,.75,.75v3Z"/></g><g id="i"/><g id="j"/><g id="k"/><g id="l"/><g id="m"/><g id="n"/><g id="o"/><g id="p"/><g id="q"/><g id="r"/><g id="s"/><g id="t"/><g id="u"/></svg>