<?xml version="1.0" encoding="UTF-8"?><svg xmlns="http://www.w3.org/2000/svg" viewBox="0 0 24 24"><g id="a"/><g id="b"/><g id="c"/><g id="d"/><g id="e"/><g id="f"/><g id="g"/><g id="h"/><g id="i"/><g id="j"><g><circle cx="12" cy="12" r="3.25"/><path d="M20.36,6.3l-2.66-2.66c-.88-.88-2.11-1.39-3.36-1.39h-4.69c-1.25,0-2.47,.51-3.36,1.39l-2.66,2.66c-.9,.9-1.39,2.09-1.39,3.36v4.69c0,1.27,.49,2.46,1.39,3.36l2.66,2.66c.88,.88,2.11,1.39,3.36,1.39h4.69c1.25,0,2.47-.51,3.36-1.39l2.66-2.66c.9-.9,1.39-2.09,1.39-3.36v-4.69c0-1.27-.49-2.46-1.39-3.36Zm-8.36,10.45c-2.62,0-4.75-2.13-4.75-4.75s2.13-4.75,4.75-4.75,4.75,2.13,4.75,4.75-2.13,4.75-4.75,4.75Z"/></g></g><g id="k"/><g id="l"/><g id="m"/><g id="n"/><g id="o"/><g id="p"/><g id="q"/><g id="r"/><g id="s"/><g id="t"/><g id="u"/></svg>