<svg xmlns="http://www.w3.org/2000/svg" viewBox="0 0 32 32"><title>13-Box</title><g id="_13-Box" data-name="13-Box"><path d="M21,1V7H11V1Z" style="fill:#f2f2f2"/><path d="M21,7V9a2.938,2.938,0,0,1-3,3H14a2.938,2.938,0,0,1-3-3V7Z" style="fill:#f2f2f2"/><path d="M31,6V28a2.938,2.938,0,0,1-3,3H4a2.938,2.938,0,0,1-3-3V6A5,5,0,0,1,6,1h5V9a2.938,2.938,0,0,0,3,3h4a2.938,2.938,0,0,0,3-3V1h5A5,5,0,0,1,31,6Z" style="fill:#c1c5c8"/><circle cx="23" cy="23" r="8" style="fill:#f2f2f2"/><circle cx="23" cy="23" r="5" style="fill:#f2f2f2"/><path d="M31,13V6a5,5,0,0,0-5-5H6A5,5,0,0,0,1,6V28a2.938,2.938,0,0,0,3,3h9" style="fill:none;stroke:#6f7a7b;stroke-linecap:round;stroke-linejoin:round;stroke-width:2px"/><path d="M11,1V9a2.938,2.938,0,0,0,3,3h4a2.938,2.938,0,0,0,3-3V1" style="fill:none;stroke:#6f7a7b;stroke-linecap:round;stroke-linejoin:round;stroke-width:2px"/><line x1="11" y1="7" x2="21" y2="7" style="fill:none;stroke:#6f7a7b;stroke-linecap:round;stroke-linejoin:round;stroke-width:2px"/><circle cx="23" cy="23" r="8" style="fill:none;stroke:#6f7a7b;stroke-linecap:round;stroke-linejoin:round;stroke-width:2px"/><polyline points="23 21 23 24 20 24" style="fill:none;stroke:#6f7a7b;stroke-linecap:round;stroke-linejoin:round;stroke-width:2px"/></g></svg>