<svg xmlns="http://www.w3.org/2000/svg" viewBox="0 0 32 32"><title>16-Delivery</title><g id="_16-Delivery" data-name="16-Delivery"><path d="M21,1V7H11V1Z" style="fill:#f2f2f2"/><path d="M21,7V9a2.938,2.938,0,0,1-3,3H14a2.938,2.938,0,0,1-3-3V7Z" style="fill:#f2f2f2"/><path d="M31,6V28a2.938,2.938,0,0,1-3,3H4a2.938,2.938,0,0,1-3-3V6A5,5,0,0,1,6,1h5V9a2.938,2.938,0,0,0,3,3h4a2.938,2.938,0,0,0,3-3V1h5A5,5,0,0,1,31,6Z" style="fill:#c1c5c8"/><path d="M31,15V6a5,5,0,0,0-5-5H6A5,5,0,0,0,1,6V28a2.938,2.938,0,0,0,3,3h8" style="fill:none;stroke:#6f7a7b;stroke-linecap:round;stroke-linejoin:round;stroke-width:2px"/><path d="M11,1V9a2.938,2.938,0,0,0,3,3h4a2.938,2.938,0,0,0,3-3V1" style="fill:none;stroke:#6f7a7b;stroke-linecap:round;stroke-linejoin:round;stroke-width:2px"/><line x1="11" y1="7" x2="21" y2="7" style="fill:none;stroke:#6f7a7b;stroke-linecap:round;stroke-linejoin:round;stroke-width:2px"/><polyline points="29 19 31 21 29 23" style="fill:none;stroke:#6f7a7b;stroke-linecap:round;stroke-linejoin:round;stroke-width:2px"/><line x1="31" y1="21" x2="19" y2="21" style="fill:none;stroke:#6f7a7b;stroke-linecap:round;stroke-linejoin:round;stroke-width:2px"/><line x1="15" y1="21" x2="15" y2="21" style="fill:none;stroke:#6f7a7b;stroke-linecap:round;stroke-linejoin:round;stroke-width:2px"/><polyline points="17 30 15 28 17 26" style="fill:none;stroke:#6f7a7b;stroke-linecap:round;stroke-linejoin:round;stroke-width:2px"/><line x1="15" y1="28" x2="27" y2="28" style="fill:none;stroke:#6f7a7b;stroke-linecap:round;stroke-linejoin:round;stroke-width:2px"/><line x1="31" y1="28" x2="31" y2="28" style="fill:none;stroke:#6f7a7b;stroke-linecap:round;stroke-linejoin:round;stroke-width:2px"/></g></svg>