<svg xmlns="http://www.w3.org/2000/svg" viewBox="0 0 32 32"><title>2-Box</title><g id="_2-Box" data-name="2-Box"><path d="M31,6V28a2.938,2.938,0,0,1-3,3H4a2.938,2.938,0,0,1-3-3V6A5,5,0,0,1,6,1h5V11a2.938,2.938,0,0,0,3,3h4a2.938,2.938,0,0,0,3-3V1h5A5,5,0,0,1,31,6Z" style="fill:#c1c5c8"/><path d="M21,9v2a2.938,2.938,0,0,1-3,3H14a2.938,2.938,0,0,1-3-3V9Z" style="fill:#f2f2f2"/><path d="M21,1V9H11V1Z" style="fill:#f2f2f2"/><path d="M19,21a2,2,0,0,1,0,4H13a2,2,0,0,1,0-4Z" style="fill:#f2f2f2"/><path d="M24,1H6A5,5,0,0,0,1,6V28a2.938,2.938,0,0,0,3,3H28a2.938,2.938,0,0,0,3-3V20" style="fill:none;stroke:#6f7a7b;stroke-linecap:round;stroke-linejoin:round;stroke-width:2px"/><path d="M11,1V11a2.938,2.938,0,0,0,3,3h4a2.938,2.938,0,0,0,3-3V1" style="fill:none;stroke:#6f7a7b;stroke-linecap:round;stroke-linejoin:round;stroke-width:2px"/><line x1="11" y1="9" x2="21" y2="9" style="fill:none;stroke:#6f7a7b;stroke-linecap:round;stroke-linejoin:round;stroke-width:2px"/><polyline points="25 13 28 16 31 13" style="fill:none;stroke:#6f7a7b;stroke-linecap:round;stroke-linejoin:round;stroke-width:2px"/><line x1="28" y1="16" x2="28" y2="4" style="fill:none;stroke:#6f7a7b;stroke-linecap:round;stroke-linejoin:round;stroke-width:2px"/><path d="M11,23a2,2,0,0,0,2,2h6a2,2,0,0,0,0-4H13a2,2,0,0,0-2,2" style="fill:none;stroke:#6f7a7b;stroke-linecap:round;stroke-linejoin:round;stroke-width:2px"/></g></svg>