<svg xmlns="http://www.w3.org/2000/svg" viewBox="0 0 32 32"><title>26-Delivery</title><g id="_26-Delivery" data-name="26-Delivery"><path d="M27,13c.02.31,0,.68,0,1a12.99,12.99,0,0,1-9.82,12.59L14,31l-3.18-4.41A12.99,12.99,0,0,1,1,14c0-.32-.02-.69,0-1a13.042,13.042,0,0,1,26,0Z" style="fill:#f2f2f2"/><circle cx="14" cy="14" r="4" style="fill:#c1c5c8"/><path d="M27,25c0,1-1.33,1-1.33,1H24.33C23,26,23,25,23,25V21h4Z" style="fill:#f2f2f2"/><path d="M31,23v6a2.006,2.006,0,0,1-2,2H21a2.006,2.006,0,0,1-2-2V23a2.006,2.006,0,0,1,2-2h2v4s0,1,1.33,1h1.34S27,26,27,25V21h2A2.006,2.006,0,0,1,31,23Z" style="fill:#c1c5c8"/><path d="M27,15c0,1-1.33,1-1.33,1H24.33C23,16,23,15,23,15V11h4Z" style="fill:#f2f2f2"/><path d="M31,13v6a2.006,2.006,0,0,1-2,2H21a2.006,2.006,0,0,1-2-2V13a2.006,2.006,0,0,1,2-2h2v4s0,1,1.33,1h1.34S27,16,27,15V11h2A2.006,2.006,0,0,1,31,13Z" style="fill:#c1c5c8"/><path d="M1,13c-.022.31,0,.684,0,1a12.994,12.994,0,0,0,9.816,12.591L14,31l1.444-2" style="fill:none;stroke:#6f7a7b;stroke-linecap:round;stroke-linejoin:round;stroke-width:2px"/><path d="M23.4,5A13.043,13.043,0,0,0,1,13" style="fill:none;stroke:#6f7a7b;stroke-linecap:round;stroke-linejoin:round;stroke-width:2px"/><path d="M16,17.465a4,4,0,1,1,0-6.93" style="fill:none;stroke:#6f7a7b;stroke-linecap:round;stroke-linejoin:round;stroke-width:2px"/><rect x="19" y="21" width="12" height="10" rx="2" style="fill:none;stroke:#6f7a7b;stroke-linecap:round;stroke-linejoin:round;stroke-width:2px"/><path d="M23,21v4s0,1,1.333,1h1.334S27,26,27,25V21" style="fill:none;stroke:#6f7a7b;stroke-linecap:round;stroke-linejoin:round;stroke-width:2px"/><rect x="19" y="11" width="12" height="10" rx="2" style="fill:none;stroke:#6f7a7b;stroke-linecap:round;stroke-linejoin:round;stroke-width:2px"/><path d="M23,11v4s0,1,1.333,1h1.334S27,16,27,15V11" style="fill:none;stroke:#6f7a7b;stroke-linecap:round;stroke-linejoin:round;stroke-width:2px"/></g></svg>