<svg xmlns="http://www.w3.org/2000/svg" viewBox="0 0 32 32"><title>32-Store</title><g id="_32-Store" data-name="32-Store"><path d="M9,13c0,1-1.33,1-1.33,1H6.33C5,14,5,13,5,13V9H9Z" style="fill:#f2f2f2"/><path d="M13,11v6a2.006,2.006,0,0,1-2,2H3a2.006,2.006,0,0,1-2-2V11A2.006,2.006,0,0,1,3,9H5v4s0,1,1.33,1H7.67S9,14,9,13V9h2A2.006,2.006,0,0,1,13,11Z" style="fill:#c1c5c8"/><path d="M9,23c0,1-1.33,1-1.33,1H6.33C5,24,5,23,5,23V19H9Z" style="fill:#f2f2f2"/><path d="M13,21v6a2.006,2.006,0,0,1-2,2H3a2.006,2.006,0,0,1-2-2V21a2.006,2.006,0,0,1,2-2H5v4s0,1,1.33,1H7.67S9,24,9,23V19h2A2.006,2.006,0,0,1,13,21Z" style="fill:#c1c5c8"/><path d="M21,23c0,1-1.33,1-1.33,1H18.33C17,24,17,23,17,23V19h4Z" style="fill:#f2f2f2"/><path d="M25,21v6a2.006,2.006,0,0,1-2,2H15a2.006,2.006,0,0,1-2-2V21a2.006,2.006,0,0,1,2-2h2v4s0,1,1.33,1h1.34S21,24,21,23V19h2A2.006,2.006,0,0,1,25,21Z" style="fill:#c1c5c8"/><path d="M31,3v9c-2.5,0-2.5,2-5,2s-2.5-2-5-2H19V3h2c2.5,0,2.5,2,5,2S28.5,3,31,3Z" style="fill:#f2f2f2"/><line x1="19" y1="12" x2="19" y2="19" style="fill:none;stroke:#6f7a7b;stroke-linecap:round;stroke-linejoin:round;stroke-width:2px"/><path d="M19,12h2c2.5,0,2.5,2,5,2s2.5-2,5-2V3c-2.5,0-2.5,2-5,2s-2.5-2-5-2H19Z" style="fill:none;stroke:#6f7a7b;stroke-linecap:round;stroke-linejoin:round;stroke-width:2px"/><line x1="27" y1="9" x2="27" y2="9" style="fill:none;stroke:#6f7a7b;stroke-linecap:round;stroke-linejoin:round;stroke-width:2px"/><line x1="23" y1="8" x2="23" y2="8" style="fill:none;stroke:#6f7a7b;stroke-linecap:round;stroke-linejoin:round;stroke-width:2px"/><rect x="1" y="19" width="12" height="10" rx="2" style="fill:none;stroke:#6f7a7b;stroke-linecap:round;stroke-linejoin:round;stroke-width:2px"/><path d="M5,19v4s0,1,1.333,1H7.667S9,24,9,23V19" style="fill:none;stroke:#6f7a7b;stroke-linecap:round;stroke-linejoin:round;stroke-width:2px"/><rect x="1" y="9" width="12" height="10" rx="2" style="fill:none;stroke:#6f7a7b;stroke-linecap:round;stroke-linejoin:round;stroke-width:2px"/><path d="M5,9v4s0,1,1.333,1H7.667S9,14,9,13V9" style="fill:none;stroke:#6f7a7b;stroke-linecap:round;stroke-linejoin:round;stroke-width:2px"/><rect x="13" y="19" width="12" height="10" rx="2" style="fill:none;stroke:#6f7a7b;stroke-linecap:round;stroke-linejoin:round;stroke-width:2px"/><path d="M17,19v4s0,1,1.333,1h1.334S21,24,21,23V19" style="fill:none;stroke:#6f7a7b;stroke-linecap:round;stroke-linejoin:round;stroke-width:2px"/></g></svg>