<svg xmlns="http://www.w3.org/2000/svg" viewBox="0 0 32 32"><title>34-Box</title><g id="_34-Box" data-name="34-Box"><path d="M21,1V7H11V1Z" style="fill:#f2f2f2"/><path d="M21,7V9a2.938,2.938,0,0,1-3,3H14a2.938,2.938,0,0,1-3-3V7Z" style="fill:#f2f2f2"/><path d="M31,6V28a2.938,2.938,0,0,1-3,3H4a2.938,2.938,0,0,1-3-3V6A5,5,0,0,1,6,1h5V9a2.938,2.938,0,0,0,3,3h4a2.938,2.938,0,0,0,3-3V1h5A5,5,0,0,1,31,6Z" style="fill:#c1c5c8"/><path d="M31,28V6a5,5,0,0,0-5-5H6A5,5,0,0,0,1,6V28a2.938,2.938,0,0,0,3,3H28A2.938,2.938,0,0,0,31,28Z" style="fill:none;stroke:#6f7a7b;stroke-linecap:round;stroke-linejoin:round;stroke-width:2px"/><path d="M11,1V9a2.938,2.938,0,0,0,3,3h4a2.938,2.938,0,0,0,3-3V1" style="fill:none;stroke:#6f7a7b;stroke-linecap:round;stroke-linejoin:round;stroke-width:2px"/><line x1="11" y1="7" x2="21" y2="7" style="fill:none;stroke:#6f7a7b;stroke-linecap:round;stroke-linejoin:round;stroke-width:2px"/><path d="M22,22l-1,1H11l-1-1c0-2.76,3.24-5,6-5S22,19.24,22,22Z" style="fill:#f2f2f2"/><path d="M16,23H11l-1-1c0-2.76,3.24-5,6-5s6,2.24,6,5l-1,1H16Z" style="fill:none;stroke:#6f7a7b;stroke-linecap:round;stroke-linejoin:round;stroke-width:2px"/><line x1="16" y1="27" x2="16" y2="23" style="fill:none;stroke:#6f7a7b;stroke-linecap:round;stroke-linejoin:round;stroke-width:2px"/><line x1="16" y1="17" x2="16" y2="16" style="fill:none;stroke:#6f7a7b;stroke-linecap:round;stroke-linejoin:round;stroke-width:2px"/></g></svg>