<svg xmlns="http://www.w3.org/2000/svg" viewBox="0 0 32 32"><title>35-Box</title><g id="_35-Box" data-name="35-Box"><path d="M31,6V7H23V1h3A5,5,0,0,1,31,6Z" style="fill:#f2f2f2"/><path d="M31,7v5H26a2.938,2.938,0,0,1-3-3V7Z" style="fill:#f2f2f2"/><rect x="14" y="22" width="4" height="4" rx="1" style="fill:#f2f2f2"/><path d="M31,12V28a2.938,2.938,0,0,1-3,3H4a2.938,2.938,0,0,1-3-3V6A5,5,0,0,1,6,1H23V9a2.938,2.938,0,0,0,3,3ZM18,25V23a1,1,0,0,0-1-1H15a1,1,0,0,0-1,1v2a1,1,0,0,0,1,1h2A1,1,0,0,0,18,25Z" style="fill:#c1c5c8"/><path d="M23,1H6A5,5,0,0,0,1,6V28a2.938,2.938,0,0,0,3,3H28a2.938,2.938,0,0,0,3-3V6a5,5,0,0,0-5-5Z" style="fill:none;stroke:#6f7a7b;stroke-linecap:round;stroke-linejoin:round;stroke-width:2px"/><path d="M23,1V9a2.938,2.938,0,0,0,3,3h5" style="fill:none;stroke:#6f7a7b;stroke-linecap:round;stroke-linejoin:round;stroke-width:2px"/><line x1="23" y1="7" x2="31" y2="7" style="fill:none;stroke:#6f7a7b;stroke-linecap:round;stroke-linejoin:round;stroke-width:2px"/><rect x="14" y="22" width="4" height="4" rx="1" style="fill:none;stroke:#6f7a7b;stroke-linecap:round;stroke-linejoin:round;stroke-width:2px"/><line x1="22" y1="22" x2="27" y2="22" style="fill:none;stroke:#6f7a7b;stroke-linecap:round;stroke-linejoin:round;stroke-width:2px"/><line x1="22" y1="26" x2="24" y2="26" style="fill:none;stroke:#6f7a7b;stroke-linecap:round;stroke-linejoin:round;stroke-width:2px"/><path d="M18,12l-1,1H7L6,12c0-2.76,3.24-5,6-5S18,9.24,18,12Z" style="fill:#f2f2f2"/><path d="M12,17V13H7L6,12c0-2.761,3.239-5,6-5s6,2.239,6,5l-1,1H12" style="fill:none;stroke:#6f7a7b;stroke-linecap:round;stroke-linejoin:round;stroke-width:2px"/><line x1="12" y1="7" x2="12" y2="6" style="fill:none;stroke:#6f7a7b;stroke-linecap:round;stroke-linejoin:round;stroke-width:2px"/></g></svg>