<svg xmlns="http://www.w3.org/2000/svg" viewBox="0 0 32 32"><title>36-World wide shipping</title><g id="_36-World_wide_shipping" data-name="36-World wide shipping"><path d="M31,6V7H23V1h3A5,5,0,0,1,31,6Z" style="fill:#f2f2f2"/><path d="M31,7v5H26a2.938,2.938,0,0,1-3-3V7Z" style="fill:#f2f2f2"/><rect x="14" y="22" width="4" height="4" rx="1" style="fill:#f2f2f2"/><path d="M31,12V28a2.938,2.938,0,0,1-3,3H4a2.938,2.938,0,0,1-3-3V6A5,5,0,0,1,6,1H23V9a2.938,2.938,0,0,0,3,3ZM18,25V23a1,1,0,0,0-1-1H15a1,1,0,0,0-1,1v2a1,1,0,0,0,1,1h2A1,1,0,0,0,18,25Z" style="fill:#c1c5c8"/><path d="M10,13c4-1,6-1,7,2l.21.38A9,9,0,0,1,1,10a8.885,8.885,0,0,1,.95-4.02L2,6S6,7,6,9,6,14,10,13Z" style="fill:#f2f2f2"/><path d="M18.05,5.98a8.98,8.98,0,0,1-.84,9.4L17,15c-1-3-3-3-7-2S6,11,6,9,2,6,2,6l-.05-.02A8.973,8.973,0,0,1,8.99,1.06C8.88,1.56,8.22,5.07,11,6c3,1,4-1,7,0Z" style="fill:#f2f2f2"/><path d="M10,1a9,9,0,0,1,8.05,4.98L18,6c-3-1-4,1-7,0C8.22,5.07,8.88,1.56,8.99,1.06A8.428,8.428,0,0,1,10,1Z" style="fill:#f2f2f2"/><path d="M1,19v9a2.938,2.938,0,0,0,3,3H28a2.938,2.938,0,0,0,3-3V6a5,5,0,0,0-5-5H20" style="fill:none;stroke:#6f7a7b;stroke-linecap:round;stroke-linejoin:round;stroke-width:2px"/><path d="M23,1V9a2.938,2.938,0,0,0,3,3h5" style="fill:none;stroke:#6f7a7b;stroke-linecap:round;stroke-linejoin:round;stroke-width:2px"/><line x1="23" y1="7" x2="31" y2="7" style="fill:none;stroke:#6f7a7b;stroke-linecap:round;stroke-linejoin:round;stroke-width:2px"/><rect x="14" y="22" width="4" height="4" rx="1" style="fill:none;stroke:#6f7a7b;stroke-linecap:round;stroke-linejoin:round;stroke-width:2px"/><line x1="22" y1="22" x2="27" y2="22" style="fill:none;stroke:#6f7a7b;stroke-linecap:round;stroke-linejoin:round;stroke-width:2px"/><line x1="22" y1="26" x2="24" y2="26" style="fill:none;stroke:#6f7a7b;stroke-linecap:round;stroke-linejoin:round;stroke-width:2px"/><path d="M18.05,5.98A9,9,0,1,1,1,10,9,9,0,0,1,8.99,1.06,8.428,8.428,0,0,1,10,1,9,9,0,0,1,18.05,5.98Z" style="fill:none;stroke:#6f7a7b;stroke-linecap:round;stroke-linejoin:round;stroke-width:2px"/><path d="M2,6S6,7,6,9s0,5,4,4,6-1,7,2" style="fill:none;stroke:#6f7a7b;stroke-linecap:round;stroke-linejoin:round;stroke-width:2px"/><path d="M9,1a.145.145,0,0,0-.01.06C8.88,1.56,8.22,5.07,11,6c3,1,4-1,7,0" style="fill:none;stroke:#6f7a7b;stroke-linecap:round;stroke-linejoin:round;stroke-width:2px"/></g></svg>