<svg xmlns="http://www.w3.org/2000/svg" viewBox="0 0 32 32"><title>38-Navigation</title><g id="_38-Navigation" data-name="38-Navigation"><path d="M27,18v4a2.006,2.006,0,0,1-2,2H10L5,20l5-4H25A2.006,2.006,0,0,1,27,18Z" style="fill:#c1c5c8"/><path d="M27,8l-5,4H7a2.006,2.006,0,0,1-2-2V6A2.006,2.006,0,0,1,7,4H22Z" style="fill:#f2f2f2"/><path d="M22,4H7A2.006,2.006,0,0,0,5,6v4a2.006,2.006,0,0,0,2,2H22l5-4Z" style="fill:none;stroke:#6f7a7b;stroke-linecap:round;stroke-linejoin:round;stroke-width:2px"/><path d="M10,24H25a2.006,2.006,0,0,0,2-2V18a2.006,2.006,0,0,0-2-2H10L5,20Z" style="fill:none;stroke:#6f7a7b;stroke-linecap:round;stroke-linejoin:round;stroke-width:2px"/><line x1="16" y1="12" x2="16" y2="16" style="fill:none;stroke:#6f7a7b;stroke-linecap:round;stroke-linejoin:round;stroke-width:2px"/><line x1="16" y1="4" x2="16" y2="1" style="fill:none;stroke:#6f7a7b;stroke-linecap:round;stroke-linejoin:round;stroke-width:2px"/><line x1="16" y1="24" x2="16" y2="31" style="fill:none;stroke:#6f7a7b;stroke-linecap:round;stroke-linejoin:round;stroke-width:2px"/><line x1="14" y1="20" x2="17" y2="20" style="fill:none;stroke:#6f7a7b;stroke-linecap:round;stroke-linejoin:round;stroke-width:2px"/><line x1="21" y1="20" x2="21" y2="20" style="fill:none;stroke:#6f7a7b;stroke-linecap:round;stroke-linejoin:round;stroke-width:2px"/><line x1="18" y1="8" x2="15" y2="8" style="fill:none;stroke:#6f7a7b;stroke-linecap:round;stroke-linejoin:round;stroke-width:2px"/><line x1="11" y1="8" x2="11" y2="8" style="fill:none;stroke:#6f7a7b;stroke-linecap:round;stroke-linejoin:round;stroke-width:2px"/></g></svg>