<svg xmlns="http://www.w3.org/2000/svg" viewBox="0 0 32 32"><title>47-Delivery</title><g id="_47-Delivery" data-name="47-Delivery"><path d="M17,2V7a2.006,2.006,0,0,1-2,2H13a2.006,2.006,0,0,1-2-2V2Z" style="fill:#f2f2f2"/><path d="M23,2V18a2.006,2.006,0,0,1-2,2H7a2.006,2.006,0,0,1-2-2V4A2.006,2.006,0,0,1,7,2h4V7a2.006,2.006,0,0,0,2,2h2a2.006,2.006,0,0,0,2-2V2h6Z" style="fill:#c1c5c8"/><path d="M31,4V18a2.006,2.006,0,0,1-2,2H21a2.006,2.006,0,0,0,2-2V2h6A2.006,2.006,0,0,1,31,4Z" style="fill:#c1c5c8"/><circle cx="8" cy="16" r="3" style="fill:#c1c5c8"/><path d="M8,9a7,7,0,0,1,7,7c0,6-7,10-7,10S1,22,1,16A7,7,0,0,1,8,9Zm3,7a3,3,0,1,0-3,3A3,3,0,0,0,11,16Z" style="fill:#f2f2f2"/><path d="M18,20h3a2,2,0,0,0,2-2V2" style="fill:none;stroke:#6f7a7b;stroke-linecap:round;stroke-linejoin:round;stroke-width:2px"/><path d="M21,2H7A2,2,0,0,0,5,4V6" style="fill:none;stroke:#6f7a7b;stroke-linecap:round;stroke-linejoin:round;stroke-width:2px"/><path d="M20,20h9a2,2,0,0,0,2-2V4a2,2,0,0,0-2-2H19" style="fill:none;stroke:#6f7a7b;stroke-linecap:round;stroke-linejoin:round;stroke-width:2px"/><path d="M16,8.732A2,2,0,0,0,17,7V2" style="fill:none;stroke:#6f7a7b;stroke-linecap:round;stroke-linejoin:round;stroke-width:2px"/><line x1="11" y1="2" x2="11" y2="6" style="fill:none;stroke:#6f7a7b;stroke-linecap:round;stroke-linejoin:round;stroke-width:2px"/><line x1="27" y1="16" x2="27" y2="16" style="fill:none;stroke:#6f7a7b;stroke-linecap:round;stroke-linejoin:round;stroke-width:2px"/><line x1="27" y1="6" x2="27" y2="8" style="fill:none;stroke:#6f7a7b;stroke-linecap:round;stroke-linejoin:round;stroke-width:2px"/><circle cx="8" cy="16" r="3" style="fill:none;stroke:#6f7a7b;stroke-linecap:round;stroke-linejoin:round;stroke-width:2px"/><path d="M15,16A7,7,0,0,0,1,16c0,6,7,10,7,10S15,22,15,16Z" style="fill:none;stroke:#6f7a7b;stroke-linecap:round;stroke-linejoin:round;stroke-width:2px"/><path d="M14,27c0,1.657-2.686,3-6,3s-6-1.343-6-3" style="fill:none;stroke:#6f7a7b;stroke-linecap:round;stroke-linejoin:round;stroke-width:2px"/></g></svg>