<svg xmlns="http://www.w3.org/2000/svg" viewBox="0 0 32 32"><title>49-Shopping</title><g id="_49-Shopping" data-name="49-Shopping"><rect x="1" y="1" width="20" height="30" rx="3" style="fill:#f2f2f2"/><path d="M21,4a3,3,0,0,0-3-3H4A3,3,0,0,0,1,4V8H21Z" style="fill:#c1c5c8"/><path d="M1,28a3,3,0,0,0,3,3H18a3,3,0,0,0,3-3V24H1Z" style="fill:#f2f2f2"/><path d="M17,13v5a2.006,2.006,0,0,1-2,2H13a2.006,2.006,0,0,1-2-2V13Z" style="fill:#f2f2f2"/><path d="M23,13V29a2.006,2.006,0,0,1-2,2H7a2.006,2.006,0,0,1-2-2V15a2.006,2.006,0,0,1,2-2h4v5a2.006,2.006,0,0,0,2,2h2a2.006,2.006,0,0,0,2-2V13h6Z" style="fill:#c1c5c8"/><path d="M31,15V29a2.006,2.006,0,0,1-2,2H21a2.006,2.006,0,0,0,2-2V13h6A2.006,2.006,0,0,1,31,15Z" style="fill:#f2f2f2"/><path d="M21,13H7a2,2,0,0,0-2,2V29a2,2,0,0,0,2,2H21a2,2,0,0,0,2-2V13" style="fill:none;stroke:#6f7a7b;stroke-linecap:round;stroke-linejoin:round;stroke-width:2px"/><path d="M20,31h9a2,2,0,0,0,2-2V15a2,2,0,0,0-2-2H19" style="fill:none;stroke:#6f7a7b;stroke-linecap:round;stroke-linejoin:round;stroke-width:2px"/><path d="M11,13v5a2,2,0,0,0,2,2h2a2,2,0,0,0,2-2V13" style="fill:none;stroke:#6f7a7b;stroke-linecap:round;stroke-linejoin:round;stroke-width:2px"/><line x1="27" y1="27" x2="27" y2="27" style="fill:none;stroke:#6f7a7b;stroke-linecap:round;stroke-linejoin:round;stroke-width:2px"/><line x1="27" y1="17" x2="27" y2="19" style="fill:none;stroke:#6f7a7b;stroke-linecap:round;stroke-linejoin:round;stroke-width:2px"/><path d="M21,9V4a3,3,0,0,0-3-3H4A3,3,0,0,0,1,4V28a3,3,0,0,0,3,3H7" style="fill:none;stroke:#6f7a7b;stroke-linecap:round;stroke-linejoin:round;stroke-width:2px"/><line x1="7" y1="5" x2="11" y2="5" style="fill:none;stroke:#6f7a7b;stroke-linecap:round;stroke-linejoin:round;stroke-width:2px"/><line x1="15" y1="5" x2="15" y2="5" style="fill:none;stroke:#6f7a7b;stroke-linecap:round;stroke-linejoin:round;stroke-width:2px"/></g></svg>