<svg xmlns="http://www.w3.org/2000/svg" viewBox="0 0 32 32"><title>50-Box</title><g id="_50-Box" data-name="50-Box"><path d="M15,1V6a2.006,2.006,0,0,1-2,2H11A2.006,2.006,0,0,1,9,6V1Z" style="fill:#f2f2f2"/><path d="M21,1V17a2.006,2.006,0,0,1-2,2H5a2.006,2.006,0,0,1-2-2V3A2.006,2.006,0,0,1,5,1H9V6a2.006,2.006,0,0,0,2,2h2a2.006,2.006,0,0,0,2-2V1h6Z" style="fill:#c1c5c8"/><path d="M29,3V17a2.006,2.006,0,0,1-2,2H19a2.006,2.006,0,0,0,2-2V1h6A2.006,2.006,0,0,1,29,3Z" style="fill:#c1c5c8"/><path d="M19,1H5A2,2,0,0,0,3,3V17a2,2,0,0,0,2,2H19a2,2,0,0,0,2-2V1" style="fill:none;stroke:#6f7a7b;stroke-linecap:round;stroke-linejoin:round;stroke-width:2px"/><path d="M18,19h9a2,2,0,0,0,2-2V3a2,2,0,0,0-2-2H17" style="fill:none;stroke:#6f7a7b;stroke-linecap:round;stroke-linejoin:round;stroke-width:2px"/><path d="M9,1V6a2,2,0,0,0,2,2h2a2,2,0,0,0,2-2V1" style="fill:none;stroke:#6f7a7b;stroke-linecap:round;stroke-linejoin:round;stroke-width:2px"/><line x1="25" y1="15" x2="25" y2="15" style="fill:none;stroke:#6f7a7b;stroke-linecap:round;stroke-linejoin:round;stroke-width:2px"/><line x1="25" y1="5" x2="25" y2="7" style="fill:none;stroke:#6f7a7b;stroke-linecap:round;stroke-linejoin:round;stroke-width:2px"/><polyline points="14 29 16 31 18 29" style="fill:none;stroke:#6f7a7b;stroke-linecap:round;stroke-linejoin:round;stroke-width:2px"/><line x1="16" y1="22" x2="16" y2="31" style="fill:none;stroke:#6f7a7b;stroke-linecap:round;stroke-linejoin:round;stroke-width:2px"/><path d="M16,23a1.959,1.959,0,0,0,2,2h7" style="fill:none;stroke:#6f7a7b;stroke-linecap:round;stroke-linejoin:round;stroke-width:2px"/><path d="M16,23a1.959,1.959,0,0,1-2,2H7" style="fill:none;stroke:#6f7a7b;stroke-linecap:round;stroke-linejoin:round;stroke-width:2px"/><polyline points="23 27 25 25 23 23" style="fill:none;stroke:#6f7a7b;stroke-linecap:round;stroke-linejoin:round;stroke-width:2px"/><polyline points="9 23 7 25 9 27" style="fill:none;stroke:#6f7a7b;stroke-linecap:round;stroke-linejoin:round;stroke-width:2px"/></g></svg>