<svg xmlns="http://www.w3.org/2000/svg" viewBox="0 0 32 32"><title>51-Shipping</title><g id="_51-Shipping" data-name="51-Shipping"><path d="M23,12c0,1-1.33,1-1.33,1H20.33C19,13,19,12,19,12V8h4Z" style="fill:#f2f2f2"/><path d="M27,10v6a2.006,2.006,0,0,1-2,2H17a2.006,2.006,0,0,1-2-2V10a2.006,2.006,0,0,1,2-2h2v4s0,1,1.33,1h1.34S23,13,23,12V8h2A2.006,2.006,0,0,1,27,10Z" style="fill:#c1c5c8"/><rect x="15" y="8" width="12" height="10" rx="2" style="fill:none;stroke:#6f7a7b;stroke-linecap:round;stroke-linejoin:round;stroke-width:2px"/><path d="M19,8v4s0,1,1.333,1h1.334S23,13,23,12V8" style="fill:none;stroke:#6f7a7b;stroke-linecap:round;stroke-linejoin:round;stroke-width:2px"/><path d="M1,22H31s-2,9-9,9H1Z" style="fill:#c1c5c8"/><path d="M7,3V7H1V1H5A1.959,1.959,0,0,1,7,3Z" style="fill:#f2f2f2"/><path d="M9,9v6H1V7H7A1.959,1.959,0,0,1,9,9Z" style="fill:#c1c5c8"/><path d="M31,15v7H1V15H11s1,3,3,3H25s2,0,2-3Z" style="fill:#f2f2f2"/><path d="M9,15V9A1.959,1.959,0,0,0,7,7H1" style="fill:none;stroke:#6f7a7b;stroke-linecap:round;stroke-linejoin:round;stroke-width:2px"/><path d="M1,31H22c7,0,9-9,9-9V15H27c0,3-2,3-2,3H14c-2,0-3-3-3-3H1" style="fill:none;stroke:#6f7a7b;stroke-linecap:round;stroke-linejoin:round;stroke-width:2px"/><path d="M7,7V3A1.959,1.959,0,0,0,5,1H1" style="fill:none;stroke:#6f7a7b;stroke-linecap:round;stroke-linejoin:round;stroke-width:2px"/><line x1="31" y1="22" x2="1" y2="22" style="fill:none;stroke:#6f7a7b;stroke-linecap:round;stroke-linejoin:round;stroke-width:2px"/><line x1="1" y1="11" x2="5" y2="11" style="fill:none;stroke:#6f7a7b;stroke-linecap:round;stroke-linejoin:round;stroke-width:2px"/><line x1="3" y1="26" x2="3" y2="26" style="fill:none;stroke:#6f7a7b;stroke-linecap:round;stroke-linejoin:round;stroke-width:2px"/><line x1="9" y1="26" x2="9" y2="26" style="fill:none;stroke:#6f7a7b;stroke-linecap:round;stroke-linejoin:round;stroke-width:2px"/><line x1="15" y1="26" x2="15" y2="26" style="fill:none;stroke:#6f7a7b;stroke-linecap:round;stroke-linejoin:round;stroke-width:2px"/><line x1="21" y1="26" x2="21" y2="26" style="fill:none;stroke:#6f7a7b;stroke-linecap:round;stroke-linejoin:round;stroke-width:2px"/></g></svg>