<svg xmlns="http://www.w3.org/2000/svg" viewBox="0 0 32 32"><title>52-Service</title><g id="_52-Service" data-name="52-Service"><path d="M31,15c0,6.63-5.72,12-14,12l-5,2V26C5.66,25.6,1,20.52,1,15,1,8.37,7.72,3,16,3S31,8.37,31,15Z" style="fill:#c1c5c8"/><path d="M17,14c0,1-1.33,1-1.33,1H14.33C13,15,13,14,13,14V10h4Z" style="fill:#f2f2f2"/><path d="M21,12v6a2.006,2.006,0,0,1-2,2H11a2.006,2.006,0,0,1-2-2V12a2.006,2.006,0,0,1,2-2h2v4s0,1,1.33,1h1.34S17,15,17,14V10h2A2.006,2.006,0,0,1,21,12Z" style="fill:#f2f2f2"/><path d="M16,3C7.716,3,1,8.373,1,15c0,5.517,4.661,10.6,11,11v3l5-2c8.284,0,14-5.373,14-12S24.284,3,16,3Z" style="fill:none;stroke:#6f7a7b;stroke-linecap:round;stroke-linejoin:round;stroke-width:2px"/><path d="M21,16V12a2,2,0,0,0-2-2H11a2,2,0,0,0-2,2v6a2,2,0,0,0,2,2h4" style="fill:none;stroke:#6f7a7b;stroke-linecap:round;stroke-linejoin:round;stroke-width:2px"/><path d="M13,10v4s0,1,1.333,1h1.334S17,15,17,14V10" style="fill:none;stroke:#6f7a7b;stroke-linecap:round;stroke-linejoin:round;stroke-width:2px"/><line x1="19" y1="20" x2="19" y2="20" style="fill:none;stroke:#6f7a7b;stroke-linecap:round;stroke-linejoin:round;stroke-width:2px"/><line x1="23" y1="20" x2="23" y2="20" style="fill:none;stroke:#6f7a7b;stroke-linecap:round;stroke-linejoin:round;stroke-width:2px"/></g></svg>