<svg xmlns="http://www.w3.org/2000/svg" viewBox="0 0 32 32"><title>53-Service</title><g id="_53-Service" data-name="53-Service"><path d="M31,17c0,6.63-5.72,12-14,12l-5,2V28C5.66,27.6,1,22.52,1,17,1,10.37,7.72,5,16,5S31,10.37,31,17Z" style="fill:#f2f2f2"/><circle cx="22" cy="8" r="7" style="fill:#c1c5c8"/><path d="M17,17c0,1-1.33,1-1.33,1H14.33C13,18,13,17,13,17V13h4Z" style="fill:#f2f2f2"/><path d="M21,15v6a2.006,2.006,0,0,1-2,2H11a2.006,2.006,0,0,1-2-2V15a2.006,2.006,0,0,1,2-2h2v4s0,1,1.33,1h1.34S17,18,17,17V13h2A2.006,2.006,0,0,1,21,15Z" style="fill:#c1c5c8"/><path d="M15,5.026C7.182,5.438,1,10.641,1,17c0,5.517,4.661,10.6,11,11v3l5-2c8.284,0,14-5.373,14-12a9.751,9.751,0,0,0-.473-3" style="fill:none;stroke:#6f7a7b;stroke-linecap:round;stroke-linejoin:round;stroke-width:2px"/><circle cx="22" cy="8" r="7" style="fill:none;stroke:#6f7a7b;stroke-linecap:round;stroke-linejoin:round;stroke-width:2px"/><line x1="22" y1="5" x2="22" y2="8" style="fill:none;stroke:#6f7a7b;stroke-linecap:round;stroke-linejoin:round;stroke-width:2px"/><line x1="22" y1="11" x2="22" y2="11" style="fill:none;stroke:#6f7a7b;stroke-linecap:round;stroke-linejoin:round;stroke-width:2px"/><path d="M13,13H11a2,2,0,0,0-2,2v6a2,2,0,0,0,2,2h8a2,2,0,0,0,2-2V19" style="fill:none;stroke:#6f7a7b;stroke-linecap:round;stroke-linejoin:round;stroke-width:2px"/><path d="M13,13v4s0,1,1.333,1H16" style="fill:none;stroke:#6f7a7b;stroke-linecap:round;stroke-linejoin:round;stroke-width:2px"/></g></svg>