<svg xmlns="http://www.w3.org/2000/svg" viewBox="0 0 32 32"><title>55-Boxes</title><g id="_55-Boxes" data-name="55-Boxes"><path d="M18,5c0,1-1.33,1-1.33,1H15.33C14,6,14,5,14,5V1h4Z" style="fill:#f2f2f2"/><path d="M22,3V9a2.006,2.006,0,0,1-2,2H12a2.006,2.006,0,0,1-2-2V3a2.006,2.006,0,0,1,2-2h2V5s0,1,1.33,1h1.34S18,6,18,5V1h2A2.006,2.006,0,0,1,22,3Z" style="fill:#c1c5c8"/><path d="M24,15c0,1-1.33,1-1.33,1H21.33C20,16,20,15,20,15V11h4Z" style="fill:#f2f2f2"/><path d="M28,13v6a2.006,2.006,0,0,1-2,2H18a2.006,2.006,0,0,1-2-2V13a2.006,2.006,0,0,1,2-2h2v4s0,1,1.33,1h1.34S24,16,24,15V11h2A2.006,2.006,0,0,1,28,13Z" style="fill:#c1c5c8"/><path d="M12,15c0,1-1.33,1-1.33,1H9.33C8,16,8,15,8,15V11h4Z" style="fill:#f2f2f2"/><path d="M16,13v6a2.006,2.006,0,0,1-2,2H6a2.006,2.006,0,0,1-2-2V13a2.006,2.006,0,0,1,2-2H8v4s0,1,1.33,1h1.34S12,16,12,15V11h2A2.006,2.006,0,0,1,16,13Z" style="fill:#c1c5c8"/><path d="M12,25c0,1-1.33,1-1.33,1H9.33C8,26,8,25,8,25V21h4Z" style="fill:#f2f2f2"/><path d="M16,23v6a2.006,2.006,0,0,1-2,2H6a2.006,2.006,0,0,1-2-2V23a2.006,2.006,0,0,1,2-2H8v4s0,1,1.33,1h1.34S12,26,12,25V21h2A2.006,2.006,0,0,1,16,23Z" style="fill:#c1c5c8"/><path d="M24,25c0,1-1.33,1-1.33,1H21.33C20,26,20,25,20,25V21h4Z" style="fill:#f2f2f2"/><path d="M28,23v6a2.006,2.006,0,0,1-2,2H18a2.006,2.006,0,0,1-2-2V23a2.006,2.006,0,0,1,2-2h2v4s0,1,1.33,1h1.34S24,26,24,25V21h2A2.006,2.006,0,0,1,28,23Z" style="fill:#c1c5c8"/><rect x="4" y="21" width="12" height="10" rx="2" style="fill:none;stroke:#6f7a7b;stroke-linecap:round;stroke-linejoin:round;stroke-width:2px"/><path d="M8,21v4s0,1,1.333,1h1.334S12,26,12,25V21" style="fill:none;stroke:#6f7a7b;stroke-linecap:round;stroke-linejoin:round;stroke-width:2px"/><rect x="16" y="21" width="12" height="10" rx="2" style="fill:none;stroke:#6f7a7b;stroke-linecap:round;stroke-linejoin:round;stroke-width:2px"/><path d="M20,21v4s0,1,1.333,1h1.334S24,26,24,25V21" style="fill:none;stroke:#6f7a7b;stroke-linecap:round;stroke-linejoin:round;stroke-width:2px"/><rect x="4" y="11" width="12" height="10" rx="2" style="fill:none;stroke:#6f7a7b;stroke-linecap:round;stroke-linejoin:round;stroke-width:2px"/><path d="M8,11v4s0,1,1.333,1h1.334S12,16,12,15V11" style="fill:none;stroke:#6f7a7b;stroke-linecap:round;stroke-linejoin:round;stroke-width:2px"/><rect x="16" y="11" width="12" height="10" rx="2" style="fill:none;stroke:#6f7a7b;stroke-linecap:round;stroke-linejoin:round;stroke-width:2px"/><path d="M20,11v4s0,1,1.333,1h1.334S24,16,24,15V11" style="fill:none;stroke:#6f7a7b;stroke-linecap:round;stroke-linejoin:round;stroke-width:2px"/><rect x="10" y="1" width="12" height="10" rx="2" style="fill:none;stroke:#6f7a7b;stroke-linecap:round;stroke-linejoin:round;stroke-width:2px"/><path d="M14,1V5s0,1,1.333,1h1.334S18,6,18,5V1" style="fill:none;stroke:#6f7a7b;stroke-linecap:round;stroke-linejoin:round;stroke-width:2px"/></g></svg>