<svg xmlns="http://www.w3.org/2000/svg" viewBox="0 0 32 32"><title>57-Calendar</title><g id="_57-Calendar" data-name="57-Calendar"><rect x="1" y="5" width="30" height="22" rx="3" style="fill:#f2f2f2"/><path d="M31,8a3,3,0,0,0-3-3H4A3,3,0,0,0,1,8v2H31Z" style="fill:#c1c5c8"/><rect x="1" y="5" width="30" height="22" rx="3" style="fill:none;stroke:#6f7a7b;stroke-linecap:round;stroke-linejoin:round;stroke-width:2px"/><line x1="16" y1="3" x2="16" y2="7" style="fill:none;stroke:#6f7a7b;stroke-linecap:round;stroke-linejoin:round;stroke-width:2px"/><line x1="21" y1="3" x2="21" y2="7" style="fill:none;stroke:#6f7a7b;stroke-linecap:round;stroke-linejoin:round;stroke-width:2px"/><line x1="26" y1="3" x2="26" y2="7" style="fill:none;stroke:#6f7a7b;stroke-linecap:round;stroke-linejoin:round;stroke-width:2px"/><line x1="11" y1="3" x2="11" y2="7" style="fill:none;stroke:#6f7a7b;stroke-linecap:round;stroke-linejoin:round;stroke-width:2px"/><line x1="6" y1="3" x2="6" y2="7" style="fill:none;stroke:#6f7a7b;stroke-linecap:round;stroke-linejoin:round;stroke-width:2px"/><path d="M18,16c0,1-1.33,1-1.33,1H15.33C14,17,14,16,14,16V12h4Z" style="fill:#f2f2f2"/><path d="M22,14v6a2.006,2.006,0,0,1-2,2H12a2.006,2.006,0,0,1-2-2V14a2.006,2.006,0,0,1,2-2h2v4s0,1,1.33,1h1.34S18,17,18,16V12h2A2.006,2.006,0,0,1,22,14Z" style="fill:#c1c5c8"/><rect x="10" y="12" width="12" height="10" rx="2" style="fill:none;stroke:#6f7a7b;stroke-linecap:round;stroke-linejoin:round;stroke-width:2px"/><path d="M14,12v4s0,1,1.333,1h1.334S18,17,18,16V12" style="fill:none;stroke:#6f7a7b;stroke-linecap:round;stroke-linejoin:round;stroke-width:2px"/><line x1="26" y1="13" x2="27" y2="13" style="fill:none;stroke:#6f7a7b;stroke-linecap:round;stroke-linejoin:round;stroke-width:2px"/><line x1="26" y1="17" x2="27" y2="17" style="fill:none;stroke:#6f7a7b;stroke-linecap:round;stroke-linejoin:round;stroke-width:2px"/><line x1="26" y1="21" x2="27" y2="21" style="fill:none;stroke:#6f7a7b;stroke-linecap:round;stroke-linejoin:round;stroke-width:2px"/><line x1="5" y1="13" x2="6" y2="13" style="fill:none;stroke:#6f7a7b;stroke-linecap:round;stroke-linejoin:round;stroke-width:2px"/><line x1="5" y1="17" x2="6" y2="17" style="fill:none;stroke:#6f7a7b;stroke-linecap:round;stroke-linejoin:round;stroke-width:2px"/><line x1="5" y1="21" x2="6" y2="21" style="fill:none;stroke:#6f7a7b;stroke-linecap:round;stroke-linejoin:round;stroke-width:2px"/></g></svg>