<svg xmlns="http://www.w3.org/2000/svg" viewBox="0 0 32 32"><title>59-Logistics</title><g id="_59-Logistics" data-name="59-Logistics"><path d="M12.84,24.06A2.653,2.653,0,0,1,13,25a3,3,0,0,1-6,0,2.653,2.653,0,0,1,.16-.94,2.988,2.988,0,0,1,5.68,0Z" style="fill:#c1c5c8"/><path d="M24.84,24.06A2.653,2.653,0,0,1,25,25a3,3,0,0,1-6,0,2.653,2.653,0,0,1,.16-.94,2.988,2.988,0,0,1,5.68,0Z" style="fill:#c1c5c8"/><path d="M27,12l1,5c-4,0-5-2-5-2V12Z" style="fill:#c1c5c8"/><path d="M30,17a3.491,3.491,0,0,1,1,2v5H25l-.16.06a2.988,2.988,0,0,0-5.68,0L19,24H13l-.16.06a2.988,2.988,0,0,0-5.68,0L7,24H5a4,4,0,0,1-4-4V8A4,4,0,0,1,5,4H19a4,4,0,0,1,4,4v7s1,2,5,2Z" style="fill:#f2f2f2"/><path d="M14,12c0,1-1.33,1-1.33,1H11.33C10,13,10,12,10,12V8h4Z" style="fill:#f2f2f2"/><path d="M18,10v6a2.006,2.006,0,0,1-2,2H8a2.006,2.006,0,0,1-2-2V10A2.006,2.006,0,0,1,8,8h2v4s0,1,1.33,1h1.34S14,13,14,12V8h2A2.006,2.006,0,0,1,18,10Z" style="fill:#c1c5c8"/><rect x="6" y="8" width="12" height="10" rx="2" style="fill:none;stroke:#6f7a7b;stroke-linecap:round;stroke-linejoin:round;stroke-width:2px"/><path d="M10,8v4s0,1,1.333,1h1.334S14,13,14,12V8" style="fill:none;stroke:#6f7a7b;stroke-linecap:round;stroke-linejoin:round;stroke-width:2px"/><path d="M7,24H5a4,4,0,0,1-4-4V8A4,4,0,0,1,5,4H19a4,4,0,0,1,4,4v4h4l1,5h2a3.491,3.491,0,0,1,1,2v5H25" style="fill:none;stroke:#6f7a7b;stroke-linecap:round;stroke-linejoin:round;stroke-width:2px"/><path d="M12.84,24.06A2.653,2.653,0,0,1,13,25a3,3,0,0,1-6,0,2.653,2.653,0,0,1,.16-.94,2.988,2.988,0,0,1,5.68,0Z" style="fill:none;stroke:#6f7a7b;stroke-linecap:round;stroke-linejoin:round;stroke-width:2px"/><path d="M24.84,24.06A2.653,2.653,0,0,1,25,25a3,3,0,0,1-6,0,2.653,2.653,0,0,1,.16-.94,2.988,2.988,0,0,1,5.68,0Z" style="fill:none;stroke:#6f7a7b;stroke-linecap:round;stroke-linejoin:round;stroke-width:2px"/><line x1="13" y1="24" x2="19" y2="24" style="fill:none;stroke:#6f7a7b;stroke-linecap:round;stroke-linejoin:round;stroke-width:2px"/><path d="M23,12v3s1,2,5,2" style="fill:none;stroke:#6f7a7b;stroke-linecap:round;stroke-linejoin:round;stroke-width:2px"/></g></svg>