<svg xmlns="http://www.w3.org/2000/svg" viewBox="0 0 32 32"><title>8-Box</title><g id="_8-Box" data-name="8-Box"><path d="M21,1V7H11V1Z" style="fill:#f2f2f2"/><path d="M21,7V9a2.938,2.938,0,0,1-3,3H14a2.938,2.938,0,0,1-3-3V7Z" style="fill:#f2f2f2"/><path d="M31,6V28a2.938,2.938,0,0,1-3,3H4a2.938,2.938,0,0,1-3-3V6A5,5,0,0,1,6,1h5V9a2.938,2.938,0,0,0,3,3h4a2.938,2.938,0,0,0,3-3V1h5A5,5,0,0,1,31,6Z" style="fill:#c1c5c8"/><path d="M11,1H6A5,5,0,0,0,1,6V28a2.938,2.938,0,0,0,3,3H28a2.938,2.938,0,0,0,3-3V6a5,5,0,0,0-5-5H11Z" style="fill:none;stroke:#6f7a7b;stroke-linecap:round;stroke-linejoin:round;stroke-width:2px"/><path d="M11,1V9a2.938,2.938,0,0,0,3,3h4a2.938,2.938,0,0,0,3-3V1" style="fill:none;stroke:#6f7a7b;stroke-linecap:round;stroke-linejoin:round;stroke-width:2px"/><line x1="11" y1="7" x2="21" y2="7" style="fill:none;stroke:#6f7a7b;stroke-linecap:round;stroke-linejoin:round;stroke-width:2px"/><path d="M12,17h8a4.38,4.38,0,0,0-1,3,1.959,1.959,0,0,1-2,2H15a1.959,1.959,0,0,1-2-2A4.38,4.38,0,0,0,12,17Z" style="fill:#f2f2f2"/><path d="M20,17a4.38,4.38,0,0,0-1,3,1.959,1.959,0,0,1-2,2H15a1.959,1.959,0,0,1-2-2,4.38,4.38,0,0,0-1-3Z" style="fill:none;stroke:#6f7a7b;stroke-linecap:round;stroke-linejoin:round;stroke-width:2px"/><line x1="16" y1="22" x2="16" y2="27" style="fill:none;stroke:#6f7a7b;stroke-linecap:round;stroke-linejoin:round;stroke-width:2px"/><line x1="14" y1="27" x2="18" y2="27" style="fill:none;stroke:#6f7a7b;stroke-linecap:round;stroke-linejoin:round;stroke-width:2px"/></g></svg>