<?xml version="1.0" encoding="UTF-8"?><svg xmlns="http://www.w3.org/2000/svg" viewBox="0 0 24 24"><g id="a"/><g id="b"><g><path d="M20.79,10.83l-5.74-4.92c-.5-.43-1.13-.66-1.79-.66h-3.51v-.75c0-1.24-1.01-2.25-2.25-2.25s-2.25,1.01-2.25,2.25v.75h-.25c-1.52,0-2.75,1.23-2.75,2.75v8c0,1.52,1.23,2.75,2.75,2.75h.37c.33,1.15,1.38,2,2.63,2s2.3-.85,2.63-2h2.73c.33,1.15,1.38,2,2.63,2s2.3-.85,2.63-2h.37c1.52,0,2.75-1.23,2.75-2.75v-3.08c0-.8-.35-1.57-.96-2.09ZM6.75,4.5c0-.41,.34-.75,.75-.75s.75,.34,.75,.75v.75h-1.5v-.75Zm1.25,14.75c-.69,0-1.25-.56-1.25-1.25s.56-1.25,1.25-1.25,1.25,.56,1.25,1.25-.56,1.25-1.25,1.25Zm8,0c-.69,0-1.25-.56-1.25-1.25s.56-1.25,1.25-1.25,1.25,.56,1.25,1.25-.56,1.25-1.25,1.25Zm4.25-3.25c0,.69-.56,1.25-1.25,1.25h-.37c-.33-1.15-1.38-2-2.63-2s-2.3,.85-2.63,2h-2.73c-.33-1.15-1.38-2-2.63-2s-2.3,.85-2.63,2h-.37c-.69,0-1.25-.56-1.25-1.25V8c0-.69,.56-1.25,1.25-1.25H13.26c.3,0,.59,.11,.81,.3l5.74,4.92c.28,.24,.44,.58,.44,.95v3.08Z"/><path d="M10,10.25h-1.25v-1.25c0-.41-.34-.75-.75-.75s-.75,.34-.75,.75v1.25h-1.25c-.41,0-.75,.34-.75,.75s.34,.75,.75,.75h1.25v1.25c0,.41,.34,.75,.75,.75s.75-.34,.75-.75v-1.25h1.25c.41,0,.75-.34,.75-.75s-.34-.75-.75-.75Z"/></g></g><g id="c"/><g id="d"/><g id="e"/><g id="f"/><g id="g"/><g id="h"/><g id="i"/><g id="j"/><g id="k"/><g id="l"/><g id="m"/><g id="n"/><g id="o"/><g id="p"/><g id="q"/><g id="r"/><g id="s"/><g id="t"/><g id="u"/></svg>