<?xml version="1.0" encoding="UTF-8"?><svg xmlns="http://www.w3.org/2000/svg" viewBox="0 0 24 24"><g id="a"/><g id="b"/><g id="c"/><g id="d"/><g id="e"/><g id="f"/><g id="g"><path d="M15.75,8.37v-.37c0-1.52-1.23-2.75-2.75-2.75h-.25v-1.5h1.42c.33,0,.65,.13,.88,.37l.41,.41c.15,.15,.34,.22,.53,.22s.38-.07,.53-.22c.29-.29,.29-.77,0-1.06l-.41-.41c-.52-.52-1.21-.81-1.94-.81h-4.17c-.41,0-.75,.34-.75,.75s.34,.75,.75,.75h1.25v1.5h-.25c-1.52,0-2.75,1.23-2.75,2.75v.37c-1.15,.33-2,1.38-2,2.63v8c0,1.52,1.23,2.75,2.75,2.75h6c1.52,0,2.75-1.23,2.75-2.75V11c0-1.25-.85-2.3-2-2.63Zm-6-.37c0-.69,.56-1.25,1.25-1.25h2c.69,0,1.25,.56,1.25,1.25v.25h-4.5v-.25Zm6.5,11c0,.69-.56,1.25-1.25,1.25h-6c-.69,0-1.25-.56-1.25-1.25V11c0-.69,.56-1.25,1.25-1.25h6c.69,0,1.25,.56,1.25,1.25v8Z"/></g><g id="h"/><g id="i"/><g id="j"/><g id="k"/><g id="l"/><g id="m"/><g id="n"/><g id="o"/><g id="p"/><g id="q"/><g id="r"/><g id="s"/><g id="t"/><g id="u"/></svg>