<?xml version="1.0" encoding="UTF-8"?><svg xmlns="http://www.w3.org/2000/svg" viewBox="0 0 24 24"><g id="a"/><g id="b"/><g id="c"/><g id="d"/><g id="e"/><g id="f"/><g id="g"/><g id="h"/><g id="i"><path d="M21,7.25c-.41,0-.75,.34-.75,.75v2.25H11.75v-.25c0-1.52-1.23-2.75-2.75-2.75h-2c-1.52,0-2.75,1.23-2.75,2.75v.25h-.5V5c0-.41-.34-.75-.75-.75s-.75,.34-.75,.75V14c0,.96,.79,1.75,1.75,1.75h1.25v1.68c-.59,.28-1,.88-1,1.57,0,.96,.79,1.75,1.75,1.75s1.75-.79,1.75-1.75c0-.7-.41-1.29-1-1.57v-1.68h10.5v1.68c-.59,.28-1,.88-1,1.57,0,.96,.79,1.75,1.75,1.75s1.75-.79,1.75-1.75c0-.7-.41-1.29-1-1.57v-1.68h1.25c.96,0,1.75-.79,1.75-1.75v-6c0-.41-.34-.75-.75-.75ZM5.75,19c0-.14,.11-.25,.25-.25s.25,.11,.25,.25c0,.28-.5,.28-.5,0Zm12,0c0-.14,.11-.25,.25-.25s.25,.11,.25,.25c0,.28-.5,.28-.5,0ZM5.75,10c0-.69,.56-1.25,1.25-1.25h2c.69,0,1.25,.56,1.25,1.25v.25H5.75v-.25Zm14.5,4c0,.14-.11,.25-.25,.25H4c-.14,0-.25-.11-.25-.25v-2.25H20.25v2.25Z"/></g><g id="j"/><g id="k"/><g id="l"/><g id="m"/><g id="n"/><g id="o"/><g id="p"/><g id="q"/><g id="r"/><g id="s"/><g id="t"/><g id="u"/></svg>