<?xml version="1.0" encoding="UTF-8"?><svg xmlns="http://www.w3.org/2000/svg" viewBox="0 0 24 24"><g id="a"/><g id="b"/><g id="c"/><g id="d"/><g id="e"/><g id="f"/><g id="g"/><g id="h"/><g id="i"/><g id="j"/><g id="k"><g><path d="M20.43,11.95c1.47-.98,2.05-2.88,1.38-4.51l-.36-.87c-.58-1.41-1.93-2.32-3.47-2.32h0c-.14,0-.26,.01-.37,.02-.21,.02-.31,.02-.45,0-.37-.08-.73-.36-1.06-.84-.51-.74-1.33-1.17-2.2-1.17-.75,0-1.42,.31-1.9,.81-.48-.5-1.15-.81-1.9-.81-.87,0-1.69,.44-2.2,1.17-.33,.48-.69,.76-1.06,.84-.14,.03-.24,.02-.45,0-.11,0-.23-.02-.39-.02-1.52,0-2.87,.91-3.44,2.33l-.37,.92c-.65,1.62-.06,3.49,1.38,4.55-1.45,.97-2.03,2.84-1.38,4.46l.37,.92c.57,1.42,1.92,2.33,3.46,2.33h0c.14,0,.26-.01,.37-.02,.21-.02,.31-.02,.45,0,.37,.08,.73,.36,1.06,.84,.51,.74,1.33,1.17,2.2,1.17,.75,0,1.42-.31,1.9-.81,.48,.5,1.15,.81,1.9,.81,.87,0,1.69-.44,2.2-1.17,.33-.48,.69-.76,1.06-.84,.14-.03,.24-.02,.45,0,.11,0,.23,.02,.39,.02,1.52,0,2.88-.91,3.45-2.32l.36-.87c.67-1.63,.09-3.53-1.38-4.61Zm-10.33,8.3c-.38,0-.74-.2-.96-.53-.56-.8-1.22-1.29-1.98-1.46-.19-.04-.36-.05-.52-.05-.14,0-.26,.01-.38,.02-.09,0-.18,.01-.27,.02-.91,0-1.71-.54-2.05-1.39l-.37-.92c-.38-.96-.04-2.08,.86-2.68,.43-.28,.68-.76,.68-1.27s-.25-.99-.72-1.29c-.86-.57-1.21-1.69-.82-2.65l.37-.92c.34-.84,1.14-1.39,2.02-1.39,.11,0,.2,.01,.29,.02,.25,.02,.53,.04,.89-.03,.76-.16,1.42-.65,1.98-1.46,.23-.33,.59-.53,.96-.53,.63,0,1.15,.52,1.15,1.15v14.2c0,.63-.52,1.15-1.15,1.15Zm10.32-4.26l-.36,.87c-.34,.84-1.15,1.38-2.04,1.38-.11,0-.2-.01-.29-.02-.25-.02-.53-.04-.89,.03-.76,.16-1.42,.65-1.98,1.46-.23,.33-.59,.53-.96,.53-.63,0-1.15-.52-1.15-1.15V4.9c0-.63,.52-1.15,1.15-1.15,.38,0,.74,.2,.96,.53,.56,.8,1.22,1.29,1.98,1.46,.37,.08,.65,.05,.89,.03,.09,0,.18-.01,.27-.02,.91,0,1.72,.54,2.06,1.39l.36,.87c.4,.98,.05,2.11-.87,2.73-.42,.28-.68,.76-.68,1.27s.25,.98,.72,1.3c.88,.59,1.22,1.72,.83,2.7Z"/><path d="M17.94,8.25c-.23,.02-.83,.02-1.4-.38-.52-.36-.74-.85-.83-1.11-.13-.39-.55-.61-.95-.48-.39,.13-.61,.55-.48,.95,.14,.44,.52,1.27,1.4,1.88,.78,.54,1.57,.65,2.09,.65,.1,0,.2,0,.28,0,.41-.03,.72-.39,.69-.81-.03-.41-.39-.71-.81-.69Z"/><path d="M18.06,14.25c-.49-.04-1.44,0-2.37,.63-.88,.61-1.26,1.44-1.4,1.88-.13,.39,.09,.82,.48,.95,.08,.03,.16,.04,.23,.04,.32,0,.61-.2,.71-.52,.09-.26,.31-.75,.83-1.11,.57-.39,1.17-.4,1.4-.37,.42,.01,.77-.28,.81-.69,.03-.41-.28-.77-.69-.81Z"/><path d="M9.23,6.29c-.39-.13-.82,.08-.95,.48-.09,.26-.31,.75-.83,1.11-.57,.39-1.17,.39-1.4,.37-.43-.03-.77,.28-.81,.69-.03,.41,.28,.77,.69,.81,.08,0,.17,0,.28,0,.52,0,1.32-.11,2.09-.64,.88-.61,1.26-1.44,1.4-1.88,.13-.39-.09-.82-.48-.95Z"/><path d="M8.31,14.89c-.93-.64-1.88-.67-2.37-.64-.41,.03-.72,.39-.69,.81,.03,.41,.4,.71,.81,.69,.23-.02,.83-.02,1.4,.38,.52,.36,.74,.85,.83,1.11,.1,.32,.4,.52,.71,.52,.08,0,.16-.01,.23-.04,.39-.13,.61-.55,.48-.95-.14-.44-.52-1.27-1.4-1.88Z"/><path d="M15.12,10.26c-.41-.07-.79,.21-.86,.62-.03,.19-.14,1.15,.61,1.89,.4,.39,.94,.6,1.5,.6,.28,0,.56-.05,.83-.16,.38-.15,.57-.59,.42-.97-.15-.38-.59-.57-.98-.42-.26,.1-.54,.06-.72-.12-.22-.22-.18-.56-.18-.58,.07-.41-.21-.79-.62-.86Z"/><path d="M7.26,11.82c-.38-.16-.82,.03-.98,.42-.15,.38,.03,.82,.42,.97,.27,.11,.55,.16,.83,.16,.55,0,1.09-.21,1.5-.6,.75-.73,.64-1.7,.61-1.89-.07-.41-.45-.69-.85-.62-.41,.06-.69,.45-.63,.85,0,.01,.05,.36-.18,.58-.18,.18-.47,.22-.73,.12Z"/></g></g><g id="l"/><g id="m"/><g id="n"/><g id="o"/><g id="p"/><g id="q"/><g id="r"/><g id="s"/><g id="t"/><g id="u"/></svg>