<?xml version="1.0" encoding="UTF-8"?><svg xmlns="http://www.w3.org/2000/svg" viewBox="0 0 24 24"><g id="a"/><g id="b"/><g id="c"/><g id="d"/><g id="e"/><g id="f"/><g id="g"/><g id="h"/><g id="i"/><g id="j"/><g id="k"/><g id="l"/><g id="m"/><g id="n"/><g id="o"><g><path d="M19.35,10.03l-1.16-2.32c.32-.09,.56-.37,.56-.71v-3c0-.96-.79-1.75-1.75-1.75H7c-.96,0-1.75,.79-1.75,1.75v3c0,.35,.24,.62,.56,.71l-1.16,2.32c-.26,.52-.4,1.1-.4,1.68v6.29c0,2.07,1.68,3.75,3.75,3.75h8c2.07,0,3.75-1.68,3.75-3.75v-6.29c0-.58-.14-1.16-.4-1.68ZM6.75,4c0-.14,.11-.25,.25-.25h10c.14,0,.25,.11,.25,.25v2.25H6.75v-2.25Zm11.5,14c0,1.24-1.01,2.25-2.25,2.25H8c-1.24,0-2.25-1.01-2.25-2.25v-6.29c0-.35,.08-.7,.24-1.01l1.48-2.95h9.07l1.48,2.95c.16,.31,.24,.66,.24,1.01v6.29Z"/><path d="M14,13.25h-1.25v-1.25c0-.41-.34-.75-.75-.75s-.75,.34-.75,.75v1.25h-1.25c-.41,0-.75,.34-.75,.75s.34,.75,.75,.75h1.25v1.25c0,.41,.34,.75,.75,.75s.75-.34,.75-.75v-1.25h1.25c.41,0,.75-.34,.75-.75s-.34-.75-.75-.75Z"/></g></g><g id="p"/><g id="q"/><g id="r"/><g id="s"/><g id="t"/><g id="u"/></svg>