<?xml version="1.0" encoding="UTF-8"?><svg xmlns="http://www.w3.org/2000/svg" viewBox="0 0 24 24"><g id="a"/><g id="b"/><g id="c"/><g id="d"/><g id="e"/><g id="f"/><g id="g"/><g id="h"/><g id="i"/><g id="j"><path d="M21.43,8.37c-.22-.76-.94-2.68-2.84-4.13-.71-.54-1.7-.46-2.32,.18l-4.72,4.86c-.56,.09-1.08,.34-1.49,.75-.49,.48-.76,1.11-.8,1.78l-4.84,1.09c-.13,.03-.25-.04-.3-.17-.32-.94-.59-2.4-.08-4.06,.19-.61,.8-2.17,2.36-3.32,.1-.07,.25-.06,.34,.04l2.73,2.89c.29,.3,.76,.32,1.06,.03,.3-.28,.32-.76,.03-1.06l-2.73-2.89c-.61-.65-1.61-.74-2.32-.21-1.92,1.42-2.67,3.33-2.9,4.09-.63,2.04-.29,3.84,.1,4.98,.25,.73,.92,1.2,1.66,1.2,.13,0,.26-.01,.38-.04l4.83-1.08c.12,.23,.27,.45,.46,.64,.52,.52,1.2,.81,1.94,.82h.02c.53,0,1.02-.16,1.44-.42l2.44,4.34c.06,.11,.03,.25-.08,.33-.81,.57-2.12,1.22-3.86,1.24-.64,0-2.31-.14-3.86-1.31-.1-.07-.13-.22-.06-.33l1.3-2.24c.21-.36,.09-.82-.27-1.03-.36-.21-.82-.09-1.03,.27l-1.3,2.24c-.45,.77-.25,1.75,.46,2.28,1.91,1.43,3.95,1.6,4.75,1.6h.06c2.11,0,3.71-.83,4.69-1.52,.73-.52,.96-1.51,.52-2.29l-2.7-4.8c.16-.34,.25-.72,.25-1.12,0-.73-.28-1.43-.79-1.95-.18-.19-.4-.33-.62-.46l4.02-4.14c.09-.09,.24-.11,.33-.03,1.54,1.17,2.13,2.74,2.31,3.35,.49,1.66,.19,3.12-.14,4.06-.05,.13-.17,.2-.3,.17l-2.38-.57c-.41-.1-.81,.15-.9,.55s.15,.81,.55,.9l2.38,.57c.14,.03,.27,.05,.41,.05,.73,0,1.4-.46,1.65-1.17,.41-1.14,.77-2.93,.17-4.98Zm-9.45,4.88h0c-.33,0-.65-.13-.88-.37-.23-.24-.36-.55-.36-.89h0c0-.69,.56-1.24,1.25-1.24h0c.69,0,1.25,.57,1.24,1.26,0,.69-.57,1.24-1.25,1.24Z"/></g><g id="k"/><g id="l"/><g id="m"/><g id="n"/><g id="o"/><g id="p"/><g id="q"/><g id="r"/><g id="s"/><g id="t"/><g id="u"/></svg>