<?xml version="1.0" encoding="UTF-8"?><svg xmlns="http://www.w3.org/2000/svg" viewBox="0 0 24 24"><g id="a"/><g id="b"/><g id="c"/><g id="d"/><g id="e"/><g id="f"/><g id="g"/><g id="h"/><g id="i"/><g id="j"/><g id="k"/><g id="l"/><g id="m"/><g id="n"/><g id="o"/><g id="p"><path d="M21,8.75c.41,0,.75-.34,.75-.75v-1c0-2.62-2.13-4.75-4.75-4.75H7c-2.62,0-4.75,2.13-4.75,4.75v5c0,.41,.34,.75,.75,.75H7c.28,0,.54-.16,.67-.41l1.29-2.58,3.35,7.55c.12,.27,.39,.45,.69,.45h0c.3,0,.57-.18,.68-.45l2.36-5.51,.28,.55c.13,.25,.39,.41,.67,.41h3.25v4.25c0,1.79-1.46,3.25-3.25,3.25H7c-1.79,0-3.25-1.46-3.25-3.25v-1c0-.41-.34-.75-.75-.75s-.75,.34-.75,.75v1c0,2.62,2.13,4.75,4.75,4.75h10c2.62,0,4.75-2.13,4.75-4.75v-5c0-.41-.34-.75-.75-.75h-3.54l-.79-1.59c-.13-.26-.42-.43-.69-.41-.29,0-.55,.19-.67,.45l-2.32,5.42-3.3-7.43c-.12-.27-.38-.44-.67-.45-.3,0-.56,.15-.69,.41l-1.79,3.59H3.75V7c0-1.79,1.46-3.25,3.25-3.25h10c1.79,0,3.25,1.46,3.25,3.25v1c0,.41,.34,.75,.75,.75Z"/></g><g id="q"/><g id="r"/><g id="s"/><g id="t"/><g id="u"/></svg>