<?xml version="1.0" encoding="UTF-8"?><svg xmlns="http://www.w3.org/2000/svg" viewBox="0 0 24 24"><g id="a"/><g id="b"/><g id="c"><g><path d="M15.01,6.06c-.76,.75-.98,1.9-.54,2.85,.07,.15,.14,.3,.23,.45,.18,.32,.41,.61,.65,.89h-.48c-.88,0-1.63,.66-1.74,1.53l-.89,7.12c-.05,.41,.24,.79,.65,.84,.03,0,.06,0,.09,0,.37,0,.7-.28,.74-.66l.89-7.12c.02-.13,.12-.22,.25-.22h.86c-.04,.19-.12,.36-.21,.48-.54,.73-.71,1.66-.47,2.48,.29,.97,1.14,1.7,2.29,1.96,.25,.06,.48,.08,.71,.08,1.16,0,2.03-.63,2.22-.78,1.82-1.43,1.49-4.1,1.38-4.97-.26-2.08-1.33-3.49-1.95-4.15-.42-.45-.89-.84-1.41-1.18-1.01-.65-2.36-.51-3.22,.34m4.28,8.79c-.08,.06-.8,.61-1.67,.42-.23-.05-1-.28-1.19-.93-.11-.37-.02-.81,.24-1.16,.36-.48,.54-1.03,.54-1.57v-.42c0-.66-.24-1.28-.69-1.74-.23-.23-.42-.5-.59-.78-.06-.11-.12-.22-.17-.33-.17-.38-.08-.85,.23-1.16l.06-.06h0c.21-.21,.49-.32,.76-.32,.2,0,.4,.06,.58,.17,.42,.27,.8,.59,1.13,.94,.49,.53,1.35,1.66,1.56,3.31,.08,.67,.34,2.7-.82,3.61Z"/><path d="M9.12,10.25h-.48c.24-.28,.47-.57,.65-.89,.09-.15,.17-.3,.23-.45,.44-.95,.22-2.1-.54-2.85l-.06-.06c-.85-.85-2.21-.99-3.22-.34-.52,.34-1,.73-1.41,1.18-.62,.66-1.69,2.08-1.95,4.15-.11,.88-.45,3.54,1.37,4.97,.19,.15,1.06,.78,2.22,.78,.23,0,.46-.02,.71-.08,1.15-.26,2-1,2.29-1.96,.24-.82,.07-1.75-.47-2.48-.09-.12-.16-.29-.21-.48h.86c.13,0,.23,.09,.25,.22l.89,7.12c.05,.38,.37,.66,.74,.66,.03,0,.06,0,.09,0,.41-.05,.7-.43,.65-.84l-.89-7.12c-.11-.87-.86-1.53-1.74-1.53Zm-1.61,4.03c-.19,.65-.96,.88-1.19,.93-.86,.2-1.59-.35-1.67-.42-1.15-.91-.9-2.94-.81-3.61,.21-1.66,1.06-2.79,1.56-3.31,.33-.36,.71-.67,1.13-.94,.18-.11,.38-.17,.58-.17,.28,0,.56,.11,.76,.31l.06,.06c.31,.31,.41,.78,.23,1.16-.05,.1-.1,.21-.17,.32-.16,.28-.36,.54-.59,.78-.44,.46-.69,1.08-.69,1.74v.42c0,.54,.19,1.08,.54,1.57,.26,.35,.35,.79,.24,1.16Z"/></g></g><g id="d"/><g id="e"/><g id="f"/><g id="g"/><g id="h"/><g id="i"/><g id="j"/><g id="k"/><g id="l"/><g id="m"/><g id="n"/><g id="o"/><g id="p"/><g id="q"/><g id="r"/><g id="s"/><g id="t"/><g id="u"/></svg>