<?xml version="1.0" encoding="UTF-8"?><svg xmlns="http://www.w3.org/2000/svg" viewBox="0 0 24 24"><g id="a"/><g id="b"/><g id="c"/><g id="d"/><g id="e"/><g id="f"/><g id="g"/><g id="h"/><g id="i"/><g id="j"/><g id="k"/><g id="l"/><g id="m"/><g id="n"/><g id="o"/><g id="p"/><g id="q"/><g id="r"><g><path d="M10,15.75c-.41,0-.75,.34-.75,.75,0,1.52-1.23,2.75-2.75,2.75s-2.75-1.23-2.75-2.75v-4.5c0-1.13,.37-2.25,1.05-3.15,.99-1.31,2.56-2.1,4.2-2.1h.25v1.63c0,.1-.05,.18-.14,.22l-1.45,.72c-.37,.19-.52,.64-.34,1.01,.13,.26,.4,.41,.67,.41,.11,0,.23-.03,.33-.08l1.45-.72c.6-.3,.97-.9,.97-1.57V3c0-.41-.34-.75-.75-.75s-.75,.34-.75,.75v2.25h-.25c-2.11,0-4.13,1.01-5.4,2.7-.87,1.16-1.35,2.6-1.35,4.05v4.5c0,2.34,1.91,4.25,4.25,4.25s4.25-1.91,4.25-4.25c0-.41-.34-.75-.75-.75Z"/><path d="M20.4,7.95c-1.27-1.69-3.29-2.7-5.4-2.7h-.25V3c0-.41-.34-.75-.75-.75s-.75,.34-.75,.75v5.38c0,.67,.37,1.27,.97,1.57l1.45,.72c.11,.05,.22,.08,.33,.08,.28,0,.54-.15,.67-.41,.19-.37,.04-.82-.34-1.01l-1.45-.72c-.08-.04-.14-.13-.14-.22v-1.63h.25c1.64,0,3.21,.79,4.2,2.1,.68,.9,1.05,2.02,1.05,3.15v4.5c0,1.52-1.23,2.75-2.75,2.75s-2.75-1.23-2.75-2.75c0-.41-.34-.75-.75-.75s-.75,.34-.75,.75c0,2.34,1.91,4.25,4.25,4.25s4.25-1.91,4.25-4.25v-4.5c0-1.45-.48-2.89-1.35-4.05Z"/><path d="M14.67,14.26c.11,.05,.22,.08,.33,.08,.28,0,.54-.15,.67-.42,.18-.37,.03-.82-.34-1-.31-.15-.62-.33-.9-.53-.23-.16-.44-.33-.63-.49-1.02-.89-2.57-.89-3.59,0-.19,.17-.4,.33-.63,.49-.29,.2-.59,.38-.9,.53-.37,.18-.52,.63-.34,1,.18,.37,.63,.53,1,.34,.38-.19,.75-.4,1.1-.64,.28-.19,.53-.39,.76-.6,.47-.41,1.15-.41,1.62,0,.23,.2,.48,.4,.76,.6,.35,.24,.72,.46,1.1,.65Z"/></g></g><g id="s"/><g id="t"/><g id="u"/></svg>