<?xml version="1.0" encoding="UTF-8"?><svg xmlns="http://www.w3.org/2000/svg" viewBox="0 0 24 24"><g id="a"/><g id="b"/><g id="c"/><g id="d"><g><path d="M21,20.25h-2.47c1.36-1.05,2.22-2.57,2.22-4.25,0-2.16-1.39-4.07-3.56-5.06l2.81-2.81c.88-.88,.88-2.31,0-3.18l-1.41-1.41c-.88-.88-2.3-.88-3.18,0l-6.36,6.36c-.55,.55-.75,1.32-.61,2.03l-1.15,1.15c-.68,.68-.68,1.79,0,2.47l.71,.71c.33,.33,.77,.51,1.24,.51s.91-.18,1.24-.51l1.15-1.15c.14,.03,.29,.04,.44,.04,.6,0,1.17-.23,1.59-.66l2.39-2.39c1.93,.66,3.21,2.18,3.21,3.9,0,2.34-2.36,4.25-5.25,4.25H3c-.41,0-.75,.34-.75,.75s.34,.75,.75,.75H21c.41,0,.75-.34,.75-.75s-.34-.75-.75-.75Zm-11.96-5.05l-.71-.71c-.1-.1-.1-.26,0-.35l.88-.88,1.06,1.06-.88,.88c-.13,.13-.23,.13-.35,0Zm3.54-1.77c-.28,.28-.78,.28-1.06,0l-1.41-1.41c-.29-.29-.29-.77,0-1.06l6.36-6.36c.15-.15,.34-.22,.53-.22s.38,.07,.53,.22l1.41,1.41c.29,.29,.29,.77,0,1.06l-6.36,6.36Z"/><path d="M5,19.75h6c.41,0,.75-.34,.75-.75s-.34-.75-.75-.75H5c-.41,0-.75,.34-.75,.75s.34,.75,.75,.75Z"/></g></g><g id="e"/><g id="f"/><g id="g"/><g id="h"/><g id="i"/><g id="j"/><g id="k"/><g id="l"/><g id="m"/><g id="n"/><g id="o"/><g id="p"/><g id="q"/><g id="r"/><g id="s"/><g id="t"/><g id="u"/></svg>