<?xml version="1.0" encoding="UTF-8"?><svg xmlns="http://www.w3.org/2000/svg" viewBox="0 0 24 24"><g id="a"/><g id="b"/><g id="c"/><g id="d"/><g id="e"/><g id="f"><g><path d="M8,8.25c-1.52,0-2.75,1.23-2.75,2.75s1.23,2.75,2.75,2.75,2.75-1.23,2.75-2.75-1.23-2.75-2.75-2.75Zm0,4c-.69,0-1.25-.56-1.25-1.25s.56-1.25,1.25-1.25,1.25,.56,1.25,1.25-.56,1.25-1.25,1.25Z"/><path d="M16,8.25c-1.52,0-2.75,1.23-2.75,2.75s1.23,2.75,2.75,2.75,2.75-1.23,2.75-2.75-1.23-2.75-2.75-2.75Zm0,4c-.69,0-1.25-.56-1.25-1.25s.56-1.25,1.25-1.25,1.25,.56,1.25,1.25-.56,1.25-1.25,1.25Z"/><path d="M12.53,13.47c-.29-.29-.77-.29-1.06,0l-1,1c-.29,.29-.29,.77,0,1.06s.77,.29,1.06,0l.47-.47,.47,.47c.15,.15,.34,.22,.53,.22s.38-.07,.53-.22c.29-.29,.29-.77,0-1.06l-1-1Z"/><path d="M12,2.25C6.62,2.25,2.25,6.17,2.25,11c0,2.77,1.41,5.31,3.87,6.98,.08,.06,.13,.14,.13,.22v1.8c0,.96,.79,1.75,1.75,1.75h8c.96,0,1.75-.79,1.75-1.75v-1.8c0-.11,.09-.19,.13-.22,2.46-1.67,3.87-4.21,3.87-6.98,0-4.83-4.37-8.75-9.75-8.75Zm5.04,14.49c-.49,.33-.79,.88-.79,1.46v1.8c0,.14-.11,.25-.25,.25h-1.25v-2.25c0-.41-.34-.75-.75-.75s-.75,.34-.75,.75v2.25h-2.5v-2.25c0-.41-.34-.75-.75-.75s-.75,.34-.75,.75v2.25h-1.25c-.14,0-.25-.11-.25-.25v-1.8c0-.58-.29-1.12-.79-1.46-2.04-1.39-3.21-3.48-3.21-5.74,0-4,3.7-7.25,8.25-7.25s8.25,3.25,8.25,7.25c0,2.26-1.17,4.35-3.21,5.74Z"/></g></g><g id="g"/><g id="h"/><g id="i"/><g id="j"/><g id="k"/><g id="l"/><g id="m"/><g id="n"/><g id="o"/><g id="p"/><g id="q"/><g id="r"/><g id="s"/><g id="t"/><g id="u"/></svg>