<?xml version="1.0" encoding="UTF-8"?><svg xmlns="http://www.w3.org/2000/svg" viewBox="0 0 24 24"><g id="a"/><g id="b"/><g id="c"/><g id="d"/><g id="e"/><g id="f"/><g id="g"/><g id="h"><path d="M21,19.25H4c-.14,0-.25-.11-.25-.25v-7c0-.69,.56-1.25,1.25-1.25h1.25v4.25c0,1.52,1.23,2.75,2.75,2.75s2.75-1.23,2.75-2.75v-4.25h2.5v4.25c0,1.52,1.23,2.75,2.75,2.75s2.75-1.23,2.75-2.75v-4.25h1.25c.41,0,.75-.34,.75-.75s-.34-.75-.75-.75h-1.25V4.75h.25c.41,0,.75-.34,.75-.75s-.34-.75-.75-.75h-6c-.41,0-.75,.34-.75,.75s.34,.75,.75,.75h.25v4.5h-2.5V4.75h.25c.41,0,.75-.34,.75-.75s-.34-.75-.75-.75H6c-.41,0-.75,.34-.75,.75s.34,.75,.75,.75h.25v4.5h-1.25c-1.52,0-2.75,1.23-2.75,2.75v7c0,.96,.79,1.75,1.75,1.75H21c.41,0,.75-.34,.75-.75s-.34-.75-.75-.75Zm-2.75-4.25c0,.69-.56,1.25-1.25,1.25s-1.25-.56-1.25-1.25v-4.25h2.5v4.25Zm-2.5-10.25h2.5v4.5h-2.5V4.75Zm-5.5,10.25c0,.69-.56,1.25-1.25,1.25s-1.25-.56-1.25-1.25v-4.25h2.5v4.25ZM7.75,4.75h2.5v4.5h-2.5V4.75Z"/></g><g id="i"/><g id="j"/><g id="k"/><g id="l"/><g id="m"/><g id="n"/><g id="o"/><g id="p"/><g id="q"/><g id="r"/><g id="s"/><g id="t"/><g id="u"/></svg>