<?xml version="1.0" encoding="UTF-8"?><svg xmlns="http://www.w3.org/2000/svg" viewBox="0 0 24 24"><g id="a"/><g id="b"/><g id="c"/><g id="d"/><g id="e"/><g id="f"/><g id="g"/><g id="h"/><g id="i"/><g id="j"/><g id="k"/><g id="l"/><g id="m"/><g id="n"/><g id="o"/><g id="p"/><g id="q"><path d="M14.11,5.26c-.34-.05-1-.22-1.58-.79-.2-.2-.48-.54-.65-1.03-.26-.71-.92-1.19-1.66-1.19h-1.34c-.96,0-1.75,.78-1.75,1.75,0,.41,.05,.81,.15,1.19,.32,1.2,1.03,1.83,1.61,2.34,.44,.39,.78,.69,.92,1.18,.21,.73-.03,1.81-.59,2.62-.38,.55-.85,.89-1.27,.92-.38,.02-.77-.21-1.02-.41-.48-.38-1.1-.59-1.76-.59-1.61,0-2.92,1.31-2.92,2.92v5.33c0,1.24,1.01,2.25,2.25,2.25s2.25-1.01,2.25-2.25v-.77c1.26,.99,3.47,2.27,6.32,2.02,3.4-.3,7.13-2.68,7.68-6.65,.55-4-2.34-7.88-6.64-8.84Zm5.15,8.64c-.43,3.15-3.58,5.11-6.32,5.35-2.64,.23-4.65-1.16-5.62-2-.37-.32-.88-.4-1.33-.19-.45,.21-.73,.64-.73,1.14v1.3c0,.41-.34,.75-.75,.75s-.75-.34-.75-.75v-5.33c0-.78,.63-1.42,1.42-1.42,.32,0,.61,.09,.82,.26,.67,.53,1.38,.78,2.06,.73,.89-.06,1.74-.62,2.39-1.57,.83-1.2,1.14-2.72,.8-3.9-.26-.9-.85-1.42-1.37-1.88-.51-.45-.95-.84-1.15-1.6-.07-.26-.1-.53-.1-.8,0-.15,.11-.26,.25-.26h1.34c.13,0,.21,.11,.25,.2,.27,.74,.69,1.27,1,1.58,.88,.88,1.9,1.14,2.37,1.2,3.48,.78,5.87,3.93,5.42,7.17Z"/></g><g id="r"/><g id="s"/><g id="t"/><g id="u"/></svg>