<?xml version="1.0" encoding="UTF-8"?><svg xmlns="http://www.w3.org/2000/svg" viewBox="0 0 24 24"><g id="a"/><g id="b"/><g id="c"/><g id="d"/><g id="e"/><g id="f"/><g id="g"/><g id="h"/><g id="i"/><g id="j"/><g id="k"/><g id="l"/><g id="m"/><g id="n"/><g id="o"/><g id="p"/><g id="q"/><g id="r"/><g id="s"><path d="M20.77,6.05c-.4-1.53-1.4-2.77-2.74-3.39-1.2-.56-2.51-.55-3.71,.02-.12,.06-.24,.12-.37,.19-.34,.18-.67,.39-.98,.62-.52,.38-1.22,.37-1.74,0-.31-.23-.65-.43-.98-.62-.12-.07-.24-.13-.37-.19-1.41-.67-2.98-.56-4.31,.31-1.53,1.01-2.4,2.8-2.32,4.88,.05,1.07,.29,2.1,.7,3.07,.12,.27,.27,.6,.48,.96,.15,.26,.2,.55,.16,.82-.16,.98-.27,2.5,.16,4.22,.48,1.94,1.43,3.31,2.14,4.11,.23,.26,.5,.45,.82,.56,.22,.08,.44,.12,.67,.12,.4,0,.79-.13,1.13-.37,.57-.41,.9-1.1,.88-1.83-.03-.98,.08-2.31,.79-3.07,.18-.2,.53-.57,.92-.57s.74,.37,.92,.57c.7,.76,.81,2.09,.79,3.07-.02,.73,.31,1.42,.88,1.83,.53,.38,1.19,.48,1.8,.25,.32-.12,.59-.31,.82-.56,.71-.8,1.66-2.17,2.14-4.11,.43-1.72,.32-3.24,.16-4.22-.05-.28,0-.56,.16-.83,.54-.95,.92-2.03,1.08-3.13,0-.01,0-.03,0-.04,.03-.31,.04-.65,.04-1.01,0-.53-.04-1.07-.14-1.68Zm-1.4,2.53c-.17,1.14-.58,2.03-.9,2.58-.33,.57-.44,1.2-.34,1.82,.14,.83,.23,2.14-.13,3.61-.41,1.65-1.21,2.8-1.81,3.48-.06,.07-.13,.12-.21,.15-.18,.07-.32,0-.41-.06-.17-.12-.27-.33-.26-.57,.05-1.84-.35-3.23-1.18-4.14-.27-.29-.97-1.05-2.02-1.05s-1.76,.76-2.02,1.05c-.84,.91-1.24,2.3-1.18,4.14,0,.24-.09,.45-.26,.57-.09,.06-.23,.13-.41,.06-.08-.03-.15-.08-.21-.15-.6-.68-1.4-1.83-1.81-3.48-.37-1.47-.28-2.78-.13-3.61,.1-.62-.02-1.26-.34-1.82-.17-.3-.3-.57-.39-.79-.34-.81-.54-1.67-.59-2.64-.06-1.46,.56-2.76,1.65-3.48,.5-.33,1.05-.49,1.6-.49,.42,0,.83,.09,1.23,.28,.1,.05,.2,.1,.3,.15,.28,.15,.55,.32,.82,.51,1.04,.75,2.45,.75,3.49,0,.26-.19,.54-.36,.81-.51,.1-.05,.2-.11,.3-.15,.79-.38,1.65-.38,2.43-.02,.93,.43,1.63,1.31,1.9,2.33,.07,.46,.1,.92,.1,1.38,0,.3-.01,.59-.04,.85Z"/></g><g id="t"/><g id="u"/></svg>