<?xml version="1.0" encoding="UTF-8"?><svg xmlns="http://www.w3.org/2000/svg" viewBox="0 0 24 24"><g id="a"/><g id="b"/><g id="c"/><g id="d"/><g id="e"/><g id="f"/><g id="g"/><g id="h"/><g id="i"/><g id="j"/><g id="k"/><g id="l"/><g id="m"/><g id="n"/><g id="o"/><g id="p"/><g id="q"/><g id="r"/><g id="s"/><g id="t"><path d="M20.53,4.47c-.79-.79-2.12-.84-2.99-.16l-1.61-1.61c-.68-.68-1.79-.68-2.47,0l-4.24,4.24c-.68,.68-.68,1.79,0,2.48l1.59,1.59-6.89,6.89c-.42,.42-.66,.99-.66,1.59s.23,1.17,.66,1.59h0c.42,.43,.99,.66,1.59,.66s1.17-.23,1.59-.66L20.53,7.66c.42-.42,.66-.99,.66-1.59s-.23-1.17-.66-1.59Zm-8.66,5.48l-1.59-1.59c-.1-.1-.1-.26,0-.35L14.52,3.77s.11-.07,.18-.07,.13,.02,.18,.07l1.59,1.59-.46,.46-4.14,4.14Zm7.6-3.36L6.03,20.03c-.28,.28-.78,.28-1.06,0h0c-.14-.14-.22-.33-.22-.53s.08-.39,.22-.53L18.41,5.53c.14-.14,.33-.22,.53-.22s.39,.08,.53,.22,.22,.33,.22,.53-.08,.39-.22,.53Z"/></g><g id="u"/></svg>