<?xml version="1.0" encoding="utf-8"?>
<!-- Generator: Adobe Illustrator 27.0.1, SVG Export Plug-In . SVG Version: 6.00 Build 0)  -->
<svg version="1.1" id="Camada_1" xmlns="http://www.w3.org/2000/svg" xmlns:xlink="http://www.w3.org/1999/xlink" x="0px" y="0px"
	 viewBox="0 0 32 32" style="enable-background:new 0 0 32 32;" xml:space="preserve">
<style type="text/css">
	.st0{fill:#FFFFFF;}
</style>
<path class="st0" d="M16.2,6.7c-1.8,0-3.6,0.5-5.2,1.6s-2.7,2.5-3.4,4.2C6.9,14.1,6.7,16,7,17.8c0.4,1.8,1.2,3.5,2.6,4.8
	c1.3,1.3,3,2.2,4.8,2.6c1.8,0.4,3.7,0.2,5.4-0.5c1.7-0.7,3.2-1.9,4.2-3.4c1-1.5,1.6-3.3,1.6-5.2c0-2.5-1-4.8-2.7-6.6
	C21,7.7,18.7,6.7,16.2,6.7z M16.2,22.9c-1.4,0-2.7-0.4-3.8-1.2c-1.1-0.8-2-1.8-2.5-3.1c-0.5-1.3-0.7-2.6-0.4-4
	c0.3-1.3,0.9-2.6,1.9-3.5c1-1,2.2-1.6,3.5-1.9c1.3-0.3,2.7-0.1,4,0.4c1.3,0.5,2.3,1.4,3.1,2.5c0.8,1.1,1.2,2.5,1.2,3.8
	c0,1.8-0.7,3.6-2,4.9C19.8,22.2,18,22.9,16.2,22.9z M16.2,5.9c0.3,0,0.6-0.1,0.9-0.4c0.2-0.2,0.4-0.5,0.4-0.9V1.4
	c0-0.3-0.1-0.6-0.4-0.9c-0.2-0.2-0.5-0.4-0.9-0.4c-0.3,0-0.6,0.1-0.9,0.4C15.1,0.8,15,1.1,15,1.4v3.2c0,0.3,0.1,0.6,0.4,0.9
	C15.6,5.7,15.9,5.9,16.2,5.9z M16.2,26.1c-0.3,0-0.6,0.1-0.9,0.4C15.1,26.7,15,27,15,27.4v3.2c0,0.3,0.1,0.6,0.4,0.9
	c0.2,0.2,0.5,0.4,0.9,0.4c0.3,0,0.6-0.1,0.9-0.4c0.2-0.2,0.4-0.5,0.4-0.9v-3.2c0-0.3-0.1-0.6-0.4-0.9S16.5,26.1,16.2,26.1z
	 M30.8,14.8h-3.2c-0.3,0-0.6,0.1-0.9,0.4c-0.2,0.2-0.4,0.5-0.4,0.9c0,0.3,0.1,0.6,0.4,0.9c0.2,0.2,0.5,0.4,0.9,0.4h3.2
	c0.3,0,0.6-0.1,0.9-0.4c0.2-0.2,0.4-0.5,0.4-0.9c0-0.3-0.1-0.6-0.4-0.9C31.4,14.9,31.1,14.8,30.8,14.8z M6,16c0-0.3-0.1-0.6-0.4-0.9
	c-0.2-0.2-0.5-0.4-0.9-0.4H1.6c-0.3,0-0.6,0.1-0.9,0.4c-0.2,0.2-0.4,0.5-0.4,0.9c0,0.3,0.1,0.6,0.4,0.9c0.2,0.2,0.5,0.4,0.9,0.4h3.2
	c0.3,0,0.6-0.1,0.9-0.4C5.9,16.6,6,16.3,6,16z M5.6,8.7C5.8,9,6.1,9.1,6.4,9.1S7.1,9,7.3,8.7c0.2-0.2,0.4-0.5,0.4-0.9S7.5,7.3,7.3,7
	L5,4.7C4.8,4.5,4.5,4.4,4.2,4.4c-0.3,0-0.6,0.1-0.8,0.4C3.1,5,3,5.3,3,5.6c0,0.3,0.1,0.6,0.3,0.9L5.6,8.7z M25.9,9.1
	c0.2,0,0.3,0,0.5-0.1s0.3-0.2,0.4-0.3l2.3-2.3c0.2-0.2,0.3-0.5,0.3-0.9c0-0.3-0.1-0.6-0.4-0.8s-0.5-0.4-0.8-0.4
	c-0.3,0-0.6,0.1-0.9,0.3L25.1,7c-0.2,0.2-0.4,0.5-0.4,0.9s0.1,0.6,0.4,0.9C25.2,8.9,25.3,9,25.4,9C25.6,9.1,25.8,9.1,25.9,9.1z
	 M5.6,23.3l-2.3,2.3c-0.1,0.1-0.2,0.2-0.3,0.4c-0.1,0.1-0.1,0.3-0.1,0.5c0,0.2,0,0.3,0.1,0.5c0.1,0.1,0.2,0.3,0.3,0.4
	c0.1,0.1,0.2,0.2,0.4,0.3c0.1,0.1,0.3,0.1,0.5,0.1c0.2,0,0.3,0,0.5-0.1c0.1-0.1,0.3-0.2,0.4-0.3L7.3,25c0.2-0.2,0.3-0.5,0.3-0.9
	c0-0.3-0.1-0.6-0.4-0.8c-0.2-0.2-0.5-0.4-0.8-0.4C6.1,22.9,5.8,23,5.6,23.3z M26.8,23.3c-0.2-0.2-0.5-0.3-0.9-0.3
	c-0.3,0-0.6,0.1-0.8,0.4c-0.2,0.2-0.4,0.5-0.4,0.8c0,0.3,0.1,0.6,0.3,0.9l2.3,2.3c0.1,0.1,0.2,0.2,0.4,0.3c0.1,0.1,0.3,0.1,0.5,0.1
	c0.2,0,0.3,0,0.5-0.1c0.1-0.1,0.3-0.2,0.4-0.3c0.1-0.1,0.2-0.2,0.3-0.4c0.1-0.1,0.1-0.3,0.1-0.5c0-0.2,0-0.3-0.1-0.5
	c-0.1-0.1-0.2-0.3-0.3-0.4L26.8,23.3z"/>
</svg>
