<?xml version="1.0" encoding="utf-8"?>
<!-- Generator: Adobe Illustrator 27.0.1, SVG Export Plug-In . SVG Version: 6.00 Build 0)  -->
<svg version="1.1" id="Camada_1" xmlns="http://www.w3.org/2000/svg" xmlns:xlink="http://www.w3.org/1999/xlink" x="0px" y="0px"
	 viewBox="0 0 32 32" style="enable-background:new 0 0 32 32;" xml:space="preserve">
<style type="text/css">
	.st0{fill:#353230;}
</style>
<path class="st0" d="M16,6.6c-1.9,0-3.7,0.6-5.2,1.6c-1.6,1-2.8,2.5-3.5,4.2c-0.7,1.7-0.9,3.6-0.5,5.5c0.4,1.8,1.3,3.5,2.6,4.8
	c1.3,1.3,3,2.2,4.8,2.6c1.8,0.4,3.7,0.2,5.5-0.5c1.7-0.7,3.2-1.9,4.2-3.5c1-1.6,1.6-3.4,1.6-5.2c0-2.5-1-4.9-2.8-6.7
	C20.9,7.6,18.5,6.6,16,6.6z M16,23c-1.4,0-2.7-0.4-3.9-1.2c-1.1-0.8-2-1.9-2.6-3.1c-0.5-1.3-0.7-2.7-0.4-4c0.3-1.4,0.9-2.6,1.9-3.6
	c1-1,2.2-1.6,3.6-1.9c1.4-0.3,2.8-0.1,4,0.4c1.3,0.5,2.4,1.4,3.1,2.6c0.8,1.1,1.2,2.5,1.2,3.9c0,1.8-0.7,3.6-2,4.9
	C19.6,22.2,17.8,23,16,23z M16,5.7c0.3,0,0.6-0.1,0.9-0.4c0.2-0.2,0.4-0.5,0.4-0.9V1.2c0-0.3-0.1-0.6-0.4-0.9C16.6,0.1,16.3,0,16,0
	s-0.6,0.1-0.9,0.4c-0.2,0.2-0.4,0.5-0.4,0.9v3.3c0,0.3,0.1,0.6,0.4,0.9C15.4,5.6,15.7,5.7,16,5.7z M16,26.3c-0.3,0-0.6,0.1-0.9,0.4
	c-0.2,0.2-0.4,0.5-0.4,0.9v3.3c0,0.3,0.1,0.6,0.4,0.9c0.2,0.2,0.5,0.4,0.9,0.4s0.6-0.1,0.9-0.4c0.2-0.2,0.4-0.5,0.4-0.9v-3.3
	c0-0.3-0.1-0.6-0.4-0.9S16.3,26.3,16,26.3z M30.8,14.8h-3.3c-0.3,0-0.6,0.1-0.9,0.4c-0.2,0.2-0.4,0.5-0.4,0.9s0.1,0.6,0.4,0.9
	c0.2,0.2,0.5,0.4,0.9,0.4h3.3c0.3,0,0.6-0.1,0.9-0.4c0.2-0.2,0.4-0.5,0.4-0.9s-0.1-0.6-0.4-0.9C31.4,14.9,31.1,14.8,30.8,14.8z
	 M5.7,16c0-0.3-0.1-0.6-0.4-0.9c-0.2-0.2-0.5-0.4-0.9-0.4H1.2c-0.3,0-0.6,0.1-0.9,0.4C0.1,15.4,0,15.7,0,16s0.1,0.6,0.4,0.9
	c0.2,0.2,0.5,0.4,0.9,0.4h3.3c0.3,0,0.6-0.1,0.9-0.4C5.6,16.6,5.7,16.3,5.7,16z M5.3,8.7C5.5,8.9,5.8,9,6.2,9S6.8,8.9,7,8.7
	c0.2-0.2,0.4-0.5,0.4-0.9c0-0.3-0.1-0.6-0.4-0.9L4.7,4.6C4.5,4.4,4.2,4.3,3.8,4.3C3.5,4.3,3.2,4.4,3,4.6S2.6,5.2,2.6,5.5
	c0,0.3,0.1,0.6,0.3,0.9L5.3,8.7z M25.8,9c0.2,0,0.3,0,0.5-0.1s0.3-0.2,0.4-0.3L29,6.4c0.2-0.2,0.3-0.5,0.3-0.9
	c0-0.3-0.1-0.6-0.4-0.8c-0.2-0.2-0.5-0.4-0.8-0.4c-0.3,0-0.6,0.1-0.9,0.3L25,6.9c-0.2,0.2-0.4,0.5-0.4,0.9c0,0.3,0.1,0.6,0.4,0.9
	c0.1,0.1,0.2,0.2,0.4,0.3S25.7,9,25.8,9z M5.3,23.3L3,25.6c-0.1,0.1-0.2,0.2-0.3,0.4c-0.1,0.1-0.1,0.3-0.1,0.5s0,0.3,0.1,0.5
	c0.1,0.1,0.2,0.3,0.3,0.4c0.1,0.1,0.2,0.2,0.4,0.3c0.1,0.1,0.3,0.1,0.5,0.1c0.2,0,0.3,0,0.5-0.1c0.1-0.1,0.3-0.2,0.4-0.3L7,25.1
	c0.2-0.2,0.3-0.5,0.3-0.9c0-0.3-0.1-0.6-0.4-0.8S6.5,23,6.1,23C5.8,23,5.5,23.1,5.3,23.3z M26.7,23.3c-0.2-0.2-0.5-0.3-0.9-0.3
	c-0.3,0-0.6,0.1-0.8,0.4s-0.4,0.5-0.4,0.8c0,0.3,0.1,0.6,0.3,0.9l2.3,2.3c0.1,0.1,0.2,0.2,0.4,0.3c0.1,0.1,0.3,0.1,0.5,0.1
	c0.2,0,0.3,0,0.5-0.1c0.1-0.1,0.3-0.2,0.4-0.3c0.1-0.1,0.2-0.2,0.3-0.4c0.1-0.1,0.1-0.3,0.1-0.5s0-0.3-0.1-0.5
	c-0.1-0.1-0.2-0.3-0.3-0.4L26.7,23.3z"/>
</svg>
