<?xml version="1.0" encoding="utf-8"?>
<!-- Generator: Adobe Illustrator 27.0.1, SVG Export Plug-In . SVG Version: 6.00 Build 0)  -->
<svg version="1.1" id="Camada_1" xmlns="http://www.w3.org/2000/svg" xmlns:xlink="http://www.w3.org/1999/xlink" x="0px" y="0px"
	 viewBox="0 0 32 32" style="enable-background:new 0 0 32 32;" xml:space="preserve">
<style type="text/css">
	.st0{fill:#ED6B33;}
</style>
<path class="st0" d="M0,13.54c0,3.59,1.43,7.03,3.97,9.57c2.54,2.54,5.98,3.97,9.57,3.97c3.17,0,6.23-1.11,8.66-3.13l7.7,7.7
	c0.11,0.12,0.25,0.21,0.4,0.27c0.15,0.06,0.31,0.09,0.47,0.09c0.16,0,0.32-0.03,0.47-0.09c0.15-0.06,0.28-0.15,0.4-0.27
	C31.87,31.41,32,31.1,32,30.77c0-0.33-0.13-0.64-0.36-0.87l-7.7-7.75c2.02-2.43,3.13-5.5,3.13-8.66c-0.02-3.58-1.45-7.01-3.99-9.54
	C20.55,1.43,17.12,0,13.54,0C9.95,0,6.51,1.43,3.97,3.97C1.43,6.51,0,9.95,0,13.54z M2.46,13.54c0-2.94,1.17-5.75,3.25-7.83
	c2.08-2.08,4.89-3.24,7.83-3.25c2.94,0,5.75,1.17,7.83,3.25s3.24,4.89,3.25,7.83c0,2.94-1.17,5.75-3.25,7.83s-4.89,3.24-7.83,3.25
	c-2.94,0-5.75-1.17-7.83-3.25C3.63,19.29,2.47,16.47,2.46,13.54z"/>
</svg>
