<?xml version="1.0" encoding="UTF-8"?><svg xmlns="http://www.w3.org/2000/svg" viewBox="0 0 24 24"><defs><style>.v{fill:#231f20;}</style></defs><g id="a"/><g id="b"/><g id="c"/><g id="d"/><g id="e"/><g id="f"/><g id="g"/><g id="h"/><g id="i"/><g id="j"/><g id="k"/><g id="l"/><g id="m"/><g id="n"/><g id="o"/><g id="p"><g><path class="v" d="M21,15.25h-.25v-6.25c0-2.62-2.13-4.75-4.75-4.75H8c-2.62,0-4.75,2.13-4.75,4.75v6.25h-.25c-.41,0-.75,.34-.75,.75v1c0,1.52,1.23,2.75,2.75,2.75h14c1.52,0,2.75-1.23,2.75-2.75v-1c0-.41-.34-.75-.75-.75ZM4.75,9c0-1.79,1.46-3.25,3.25-3.25h8c1.79,0,3.25,1.46,3.25,3.25v6.25h-3.84c-.47,0-.91,.18-1.24,.51l-.41,.41s-.11,.07-.18,.07h-3.17c-.07,0-.13-.03-.18-.07l-.41-.41c-.33-.33-.77-.51-1.24-.51h-3.84v-6.25Zm15.5,8c0,.69-.56,1.25-1.25,1.25H5c-.69,0-1.25-.56-1.25-1.25v-.25h4.84c.07,0,.13,.03,.18,.07l.41,.41c.33,.33,.77,.51,1.24,.51h3.17c.47,0,.91-.18,1.24-.51l.41-.41s.11-.07,.18-.07h4.84v.25Z"/><path class="v" d="M12,13.75c.41,0,.75-.34,.75-.75v-2c0-.41-.34-.75-.75-.75s-.75,.34-.75,.75v2c0,.41,.34,.75,.75,.75Z"/><path class="v" d="M9.75,13v-1c0-.41-.34-.75-.75-.75s-.75,.34-.75,.75v1c0,.41,.34,.75,.75,.75s.75-.34,.75-.75Z"/><path class="v" d="M15,13.75c.41,0,.75-.34,.75-.75v-4c0-.41-.34-.75-.75-.75s-.75,.34-.75,.75v4c0,.41,.34,.75,.75,.75Z"/></g></g><g id="q"/><g id="r"/><g id="s"/><g id="t"/><g id="u"/></svg>