<?xml version="1.0" encoding="UTF-8"?><svg xmlns="http://www.w3.org/2000/svg" viewBox="0 0 24 24"><defs><style>.v{fill:#231f20;}</style></defs><g id="a"/><g id="b"/><g id="c"/><g id="d"/><g id="e"/><g id="f"/><g id="g"/><g id="h"/><g id="i"/><g id="j"/><g id="k"/><g id="l"/><g id="m"/><g id="n"/><g id="o"/><g id="p"/><g id="q"/><g id="r"/><g id="s"/><g id="t"/><g id="u"><g><rect class="v" x="6.25" y="2.25" width="11.5" height="4.5" rx="1.75" ry="1.75"/><path class="v" d="M19.2,3.46c.03,.18,.05,.35,.05,.54v1c0,1.79-1.46,3.25-3.25,3.25H8c-1.79,0-3.25-1.46-3.25-3.25v-1c0-.18,.02-.36,.05-.54-1.48,.5-2.55,1.89-2.55,3.54v7c0,2.07,1.68,3.75,3.75,3.75h1.79l-1.46,2.91c-.19,.37-.04,.82,.34,1.01,.11,.05,.22,.08,.33,.08,.27,0,.54-.15,.67-.41l1.79-3.59h5.07l1.79,3.59c.13,.26,.4,.41,.67,.41,.11,0,.23-.03,.33-.08,.37-.19,.52-.64,.34-1.01l-1.46-2.91h1.79c2.07,0,3.75-1.68,3.75-3.75V7c0-1.65-1.07-3.03-2.55-3.54Zm-6.45,12.79h-1.5v-1.25c0-.14-.11-.25-.25-.25h-3c-.14,0-.25,.11-.25,.25v1.25h-1.5v-1.25c0-.96,.79-1.75,1.75-1.75h3c.96,0,1.75,.79,1.75,1.75v1.25Z"/></g></g></svg>