<?xml version="1.0" encoding="UTF-8"?><svg xmlns="http://www.w3.org/2000/svg" viewBox="0 0 24 24"><defs><style>.v{fill:#231f20;}</style></defs><g id="a"/><g id="b"/><g id="c"/><g id="d"/><g id="e"/><g id="f"/><g id="g"/><g id="h"/><g id="i"/><g id="j"/><g id="k"/><g id="l"/><g id="m"/><g id="n"/><g id="o"/><g id="p"/><g id="q"><g><rect class="v" x="8.25" y="2.25" width="7.5" height="4.5" rx="1.75" ry="1.75"/><path class="v" d="M14,8.25h-4c-.26,0-.51-.04-.75-.1v1.77c0,.46-.09,.9-.23,1.32h5.96c-.14-.42-.23-.86-.23-1.32v-1.77c-.24,.06-.49,.1-.75,.1Z"/><path class="v" d="M18.7,15.64l-2.71-2.71c-.06-.06-.1-.12-.15-.18h-7.69c-.05,.06-.09,.13-.15,.18l-2.71,2.71c-.68,.68-1.05,1.57-1.05,2.53,0,1.97,1.61,3.58,3.58,3.58h8.34c1.97,0,3.58-1.61,3.58-3.58,0-.96-.37-1.85-1.05-2.53Z"/></g></g><g id="r"/><g id="s"/><g id="t"/><g id="u"/></svg>