<?xml version="1.0" encoding="UTF-8"?><svg xmlns="http://www.w3.org/2000/svg" viewBox="0 0 24 24"><defs><style>.v{fill:#231f20;}</style></defs><g id="a"/><g id="b"/><g id="c"/><g id="d"/><g id="e"/><g id="f"/><g id="g"><g><path class="v" d="M20,15.25h-.25V6c0-.41-.34-.75-.75-.75H5c-.41,0-.75,.34-.75,.75V15.25h-.25c-.41,0-.75,.34-.75,.75s.34,.75,.75,.75h7.25v1.68c-.59,.28-1,.88-1,1.57,0,.96,.79,1.75,1.75,1.75s1.75-.79,1.75-1.75c0-.7-.41-1.29-1-1.57v-1.68h7.25c.41,0,.75-.34,.75-.75s-.34-.75-.75-.75Z"/><path class="v" d="M19,2.25H5c-.96,0-1.75,.79-1.75,1.75v.6c.41-.52,1.04-.85,1.75-.85h14c.71,0,1.34,.34,1.75,.85v-.6c0-.96-.79-1.75-1.75-1.75Z"/></g></g><g id="h"/><g id="i"/><g id="j"/><g id="k"/><g id="l"/><g id="m"/><g id="n"/><g id="o"/><g id="p"/><g id="q"/><g id="r"/><g id="s"/><g id="t"/><g id="u"/></svg>