<svg xmlns="http://www.w3.org/2000/svg" viewBox="0 0 32 32"><defs><style>.cls-1{fill:#38004d;}.cls-2{fill:#9f85ec;}</style></defs><title>Adjustment</title><g id="Adjustment"><path class="cls-1" d="M29,8H12.46a1,1,0,0,1,0-2H29a1,1,0,0,0,0-2H12.46a1,1,0,0,1,0-2H29a3,3,0,0,1,0,6Z"/><path class="cls-1" d="M5.54,8H3A3,3,0,0,1,3,2H5.54a1,1,0,0,1,0,2H3A1,1,0,0,0,3,6H5.54a1,1,0,0,1,0,2Z"/><path class="cls-2" d="M9,10a5,5,0,1,1,5-5A5,5,0,0,1,9,10ZM9,2a3,3,0,1,0,3,3A3,3,0,0,0,9,2Z"/><path class="cls-1" d="M29,30H18.46a1,1,0,0,1,0-2H29a1,1,0,0,0,0-2H18.46a1,1,0,0,1,0-2H29a3,3,0,0,1,0,6Z"/><path class="cls-1" d="M11.54,30H3a3,3,0,0,1,0-6h8.54a1,1,0,0,1,0,2H3a1,1,0,0,0,0,2h8.54a1,1,0,0,1,0,2Z"/><path class="cls-2" d="M15,32a5,5,0,1,1,5-5A5,5,0,0,1,15,32Zm0-8a3,3,0,1,0,3,3A3,3,0,0,0,15,24Z"/><path class="cls-1" d="M29,19H26.46a1,1,0,0,1,0-2H29a1,1,0,0,0,0-2H26.46a1,1,0,0,1,0-2H29a3,3,0,0,1,0,6Z"/><path class="cls-1" d="M15,19H3a3,3,0,0,1,0-6H19.54a1,1,0,0,1,0,2H3a1,1,0,0,0,0,2H15a1,1,0,0,1,0,2Z"/><path class="cls-2" d="M23,21a5,5,0,1,1,5-5A5,5,0,0,1,23,21Zm0-8a3,3,0,1,0,3,3A3,3,0,0,0,23,13Z"/></g></svg>