<svg xmlns="http://www.w3.org/2000/svg" viewBox="0 0 32 32"><defs><style>.cls-1{fill:#38004d;}.cls-2{fill:#9f85ec;}</style></defs><title>Chat</title><g id="Chat"><path class="cls-1" d="M30,6.37V2a1,1,0,0,0-1.27-1L25,2.09A12,12,0,0,0,9.45,7.27a12,12,0,0,0-6.18,3.49,1,1,0,0,0,0,1.41,1,1,0,0,0,1.42,0A10,10,0,1,1,7.52,28c-.45-.23-.49-.14-3.52.72,0-3.56.07-3.58-.18-3.93a10,10,0,0,1-1.14-9.38,1,1,0,1,0-1.86-.72A12,12,0,0,0,2,25.63V30a1,1,0,0,0,1.27,1L7,29.91a12,12,0,0,0,15.57-5.19A12,12,0,0,0,30,6.37Zm-6.49,16A12,12,0,0,0,12,7,10,10,0,0,1,24.48,4.05c.45.23.49.14,3.52-.72,0,3.56-.07,3.58.18,3.93A10,10,0,0,1,23.51,22.37Z"/><path class="cls-2" d="M19,20H17a1,1,0,0,1,0-2h2a1,1,0,0,1,0,2Z"/><path class="cls-2" d="M13,20H11a1,1,0,0,1,0-2h2a1,1,0,0,1,0,2Z"/><path class="cls-2" d="M7,20H5a1,1,0,0,1,0-2H7a1,1,0,0,1,0,2Z"/></g></svg>