<svg xmlns="http://www.w3.org/2000/svg" viewBox="0 0 32 32"><defs><style>.cls-1{fill:#9f85ec;}.cls-2{fill:#38004d;}</style></defs><title>Download</title><g id="Download"><path class="cls-1" d="M15.22,23.62l-8-10A1,1,0,0,1,8,12h4V1a1,1,0,0,1,1-1h6a1,1,0,0,1,1,1V12h4a1,1,0,0,1,.78,1.62l-8,10A1,1,0,0,1,15.22,23.62ZM10.08,14,16,21.4,21.92,14H19a1,1,0,0,1-1-1V2H14V13a1,1,0,0,1-1,1Z"/><path class="cls-2" d="M28,32H10a1,1,0,0,1,0-2H28a1,1,0,0,0,1-1V21H27v6a1,1,0,0,1-1,1H6a1,1,0,0,1-1-1V21H3v8a1,1,0,0,0,1,1H6a1,1,0,0,1,0,2H4a3,3,0,0,1-3-3V20a1,1,0,0,1,1-1H6a1,1,0,0,1,1,1v6H25V20a1,1,0,0,1,1-1h4a1,1,0,0,1,1,1v9A3,3,0,0,1,28,32Z"/></g></svg>