<svg xmlns="http://www.w3.org/2000/svg" viewBox="0 0 32 32"><defs><style>.cls-1{fill:#38004d;}.cls-2{fill:#9f85ec;}</style></defs><title>Folder</title><g id="Folder"><path class="cls-1" d="M31,20a1,1,0,0,1-1-1V8a1,1,0,0,0-1-1H16.24a3,3,0,0,1-2.69-1.66l-.89-1.79a1,1,0,0,0-.9-.55H3A1,1,0,0,0,2,4v9a1,1,0,0,1-2,0V4A3,3,0,0,1,3,1h8.76a3,3,0,0,1,2.69,1.66l.89,1.79a1,1,0,0,0,.9.55H29a3,3,0,0,1,3,3V19A1,1,0,0,1,31,20Z"/><path class="cls-2" d="M29,31H3a3,3,0,0,1-3-3V19a3,3,0,0,1,3-3H16.76a1,1,0,0,0,.9-.55l.89-1.79A3,3,0,0,1,21.24,12H29a3,3,0,0,1,3,3V28A3,3,0,0,1,29,31ZM3,18a1,1,0,0,0-1,1v9a1,1,0,0,0,1,1H29a1,1,0,0,0,1-1V15a1,1,0,0,0-1-1H21.24a1,1,0,0,0-.9.55l-.89,1.79A3,3,0,0,1,16.76,18Z"/></g></svg>