<svg xmlns="http://www.w3.org/2000/svg" viewBox="0 0 32 32"><defs><style>.cls-1{fill:#38004d;}.cls-2{fill:#9f85ec;}</style></defs><title>Layout</title><g id="Layout"><path class="cls-1" d="M12,12H4A3,3,0,0,1,1,9V3A3,3,0,0,1,4,0h8a3,3,0,0,1,3,3V9A3,3,0,0,1,12,12ZM4,2A1,1,0,0,0,3,3V9a1,1,0,0,0,1,1h8a1,1,0,0,0,1-1V3a1,1,0,0,0-1-1Z"/><path class="cls-1" d="M28,32H20a3,3,0,0,1-3-3V23a3,3,0,0,1,3-3h8a3,3,0,0,1,3,3v6A3,3,0,0,1,28,32ZM20,22a1,1,0,0,0-1,1v6a1,1,0,0,0,1,1h8a1,1,0,0,0,1-1V23a1,1,0,0,0-1-1Z"/><path class="cls-2" d="M12,32H4a3,3,0,0,1-3-3V17a3,3,0,0,1,3-3h8a3,3,0,0,1,3,3V29A3,3,0,0,1,12,32ZM4,16a1,1,0,0,0-1,1V29a1,1,0,0,0,1,1h8a1,1,0,0,0,1-1V17a1,1,0,0,0-1-1Z"/><path class="cls-1" d="M28,18H20a3,3,0,0,1-3-3V3a3,3,0,0,1,3-3h8a3,3,0,0,1,3,3V7a1,1,0,0,1-2,0V3a1,1,0,0,0-1-1H20a1,1,0,0,0-1,1V15a1,1,0,0,0,1,1h8a1,1,0,0,0,1-1V11a1,1,0,0,1,2,0v4A3,3,0,0,1,28,18Z"/></g></svg>