<svg xmlns="http://www.w3.org/2000/svg" viewBox="0 0 32 32"><defs><style>.cls-1{fill:#9f85ec;}.cls-2{fill:#38004d;}</style></defs><title>Memory external</title><g id="Memory_external" data-name="Memory external"><path class="cls-1" d="M23,26H9a1,1,0,0,1-1-1V17a1,1,0,0,1,1-1H23a1,1,0,0,1,1,1v8A1,1,0,0,1,23,26ZM10,24H22V18H10Z"/><path class="cls-2" d="M28,23a1,1,0,0,0,1-1V7.83a3,3,0,0,0-.88-2.12L23.29.88A3,3,0,0,0,21.17,0H6A3,3,0,0,0,3,3V29a3,3,0,0,0,3,3H26a3,3,0,0,0,3-3V26a1,1,0,0,0-2,0v3a1,1,0,0,1-1,1H6a1,1,0,0,1-1-1V3A1,1,0,0,1,6,2H7V7A1,1,0,0,0,8,8H22a1,1,0,0,0,1-1V3.41l3.71,3.71a1,1,0,0,1,.29.71V22A1,1,0,0,0,28,23ZM9,2h2V6H9Zm4,4V2h2V6Zm8,0H17V2h4Z"/></g></svg>