<svg xmlns="http://www.w3.org/2000/svg" viewBox="0 0 32 32"><defs><style>.cls-1{fill:#9f85ec;}.cls-2{fill:#38004d;}</style></defs><title>Message</title><g id="Message"><path class="cls-1" d="M31.07,25.69l-10.86-10L31,6.31a1,1,0,0,0-1.32-1.52L16.65,16.11a1,1,0,0,1-1.3,0L2.28,4.79A1,1,0,1,0,1,6.31l10.81,9.36L.93,25.69a1,1,0,0,0,1.36,1.48L13.31,17l.73.63a3,3,0,0,0,3.92,0l.73-.63,11,10.17a1,1,0,0,0,1.41-.05A1,1,0,0,0,31.07,25.69Z"/><path class="cls-2" d="M29,28H12a1,1,0,0,1,0-2H29a1,1,0,0,0,1-1V7a1,1,0,0,0-1-1H3A1,1,0,0,0,2,7V25a1,1,0,0,0,1,1H8a1,1,0,0,1,0,2H3a3,3,0,0,1-3-3V7A3,3,0,0,1,3,4H29a3,3,0,0,1,3,3V25A3,3,0,0,1,29,28Z"/></g></svg>