<svg xmlns="http://www.w3.org/2000/svg" viewBox="0 0 32 32"><defs><style>.cls-1{fill:#9f85ec;}.cls-2{fill:#38004d;}</style></defs><title>Notification</title><g id="Notification"><path class="cls-1" d="M16,32a5,5,0,0,1-5-5,1,1,0,0,1,2,0,3,3,0,0,0,6,0,1,1,0,0,1,2,0A5,5,0,0,1,16,32Z"/><path class="cls-2" d="M27.39,21.39A3.12,3.12,0,0,1,26,18.79V14a10,10,0,0,0-6-9.16V4a4,4,0,0,0-8,0v.84A10.26,10.26,0,0,0,9.71,6.22,1,1,0,0,0,11,7.78,8,8,0,0,1,24,14v4.79a5.13,5.13,0,0,0,2.28,4.27A1.6,1.6,0,0,1,25.39,26H6.61a1.61,1.61,0,0,1-.9-2.94A5.11,5.11,0,0,0,8,18.79c0-4.79-.22-6.23.83-8.35A1,1,0,1,0,7,9.56c-1.3,2.6-1,4.36-1,9.23a3.1,3.1,0,0,1-1.4,2.6,3.61,3.61,0,0,0,2,6.61H25.39A3.61,3.61,0,0,0,27.39,21.39ZM14,4.21V4a2,2,0,1,1,4,.2A9.79,9.79,0,0,0,14,4.21Z"/></g></svg>