<svg xmlns="http://www.w3.org/2000/svg" viewBox="0 0 32 32"><defs><style>.cls-1{fill:#38004d;}.cls-2{fill:#9f85ec;}</style></defs><title>Plus</title><g id="Plus"><path class="cls-1" d="M12.8,31.68a1,1,0,1,1,.4-2,14,14,0,1,0-3.73-1.33,1,1,0,1,1-.94,1.76,16,16,0,1,1,4.27,1.53Z"/><path class="cls-2" d="M16,26a3,3,0,0,1-3-3V19H9a3,3,0,0,1,0-6h4V9a3,3,0,0,1,6,0v4h4a3,3,0,0,1,0,6H19v4A3,3,0,0,1,16,26ZM9,15a1,1,0,0,0,0,2h5a1,1,0,0,1,1,1v5a1,1,0,0,0,2,0V18a1,1,0,0,1,1-1h5a1,1,0,0,0,0-2H18a1,1,0,0,1-1-1V9a1,1,0,0,0-2,0v5a1,1,0,0,1-1,1Z"/></g></svg>