<svg xmlns="http://www.w3.org/2000/svg" viewBox="0 0 32 32"><defs><style>.cls-1{fill:#9f85ec;}.cls-2{fill:#38004d;}</style></defs><title>Search</title><g id="Search"><path class="cls-1" d="M12,20a8,8,0,1,1,8-8A8,8,0,0,1,12,20ZM12,6a6,6,0,1,0,6,6A6,6,0,0,0,12,6Z"/><path class="cls-2" d="M31.09,26.67,25.41,21a2,2,0,0,0-2.82,0l-.09.09-1.35-1.35A12,12,0,1,0,7.64,23.18a1,1,0,1,0,.72-1.86A10,10,0,1,1,12,22a1,1,0,0,0,0,2,11.89,11.89,0,0,0,7.74-2.85l1.35,1.35-.09.09a2,2,0,0,0,0,2.82l5.67,5.68a3.09,3.09,0,0,0,2.21.91A3.13,3.13,0,0,0,31.09,26.67ZM28.88,30a1.11,1.11,0,0,1-.79-.33L22.41,24,24,22.41l5.67,5.68A1.12,1.12,0,0,1,28.88,30Z"/></g></svg>