<svg xmlns="http://www.w3.org/2000/svg" viewBox="0 0 32 32"><defs><style>.cls-1{fill:#38004d;}.cls-2{fill:#9f85ec;}</style></defs><title>Signal</title><g id="Signal"><path class="cls-1" d="M7,32H5a3,3,0,0,1-3-3V20a3,3,0,0,1,3-3H7a3,3,0,0,1,3,3v9A3,3,0,0,1,7,32ZM5,19a1,1,0,0,0-1,1v9a1,1,0,0,0,1,1H7a1,1,0,0,0,1-1V20a1,1,0,0,0-1-1Z"/><path class="cls-1" d="M17,32H15a3,3,0,0,1-3-3V15a3,3,0,0,1,3-3h2a3,3,0,0,1,3,3v7a1,1,0,0,1-2,0V15a1,1,0,0,0-1-1H15a1,1,0,0,0-1,1V29a1,1,0,0,0,1,1h2a1,1,0,0,0,1-1V26a1,1,0,0,1,2,0v3A3,3,0,0,1,17,32Z"/><path class="cls-1" d="M27,32H25a3,3,0,0,1-3-3V10a3,3,0,0,1,3-3h2a3,3,0,0,1,3,3V29A3,3,0,0,1,27,32ZM25,9a1,1,0,0,0-1,1V29a1,1,0,0,0,1,1h2a1,1,0,0,0,1-1V10a1,1,0,0,0-1-1Z"/><path class="cls-2" d="M5,10A1,1,0,0,1,4,9V3.41l-.29.3A1,1,0,0,1,2.29,2.29l2-2A1,1,0,0,1,6,1V9A1,1,0,0,1,5,10Z"/><path class="cls-2" d="M9,10A1,1,0,0,1,8,9V1a1,1,0,0,1,2,0V6.59l.29-.3a1,1,0,1,1,1.42,1.42C9.53,9.89,9.54,10,9,10Z"/></g></svg>