<svg xmlns="http://www.w3.org/2000/svg" viewBox="0 0 32 32"><defs><style>.cls-1{fill:#38004d;}.cls-2{fill:#9f85ec;}</style></defs><title>Sound</title><g id="Sound"><path class="cls-1" d="M17.41,2.19,6.67,10H3a3,3,0,0,0-3,3v6a3,3,0,0,0,3,3H7a1,1,0,0,0,1-1V11.51L17,5V27l-6.41-4.67A1,1,0,1,0,9.41,24c8.68,6.31,8.13,6,8.59,6a1,1,0,0,0,1-1V3A1,1,0,0,0,17.41,2.19ZM6,20H3a1,1,0,0,1-1-1V13a1,1,0,0,1,1-1H6Z"/><path class="cls-2" d="M22,22a1,1,0,0,1,0-2,4,4,0,0,0,0-8,1,1,0,0,1,0-2,6,6,0,0,1,0,12Z"/><path class="cls-2" d="M22,26a1,1,0,0,1,0-2A8,8,0,0,0,22,8a1,1,0,0,1,0-2,10,10,0,0,1,0,20Z"/><path class="cls-2" d="M21,17a1,1,0,0,1,1-1,1,1,0,0,1-1-1c0-1.7,3-1.14,3,1S21,18.71,21,17Z"/></g></svg>