<svg xmlns="http://www.w3.org/2000/svg" viewBox="0 0 32 32"><defs><style>.cls-1{fill:#38004d;}.cls-2{fill:#9f85ec;}</style></defs><title>Time</title><g id="Time"><path class="cls-1" d="M12.8,31.68a1,1,0,1,1,.4-2,14,14,0,1,0-3.73-1.33,1,1,0,1,1-.94,1.76,16,16,0,1,1,4.27,1.53Z"/><path class="cls-1" d="M16,6a1,1,0,1,1,1-1A1,1,0,0,1,16,6Z"/><path class="cls-1" d="M23.8,9.22a1,1,0,1,1,1-1A1,1,0,0,1,23.8,9.22Z"/><path class="cls-1" d="M27,17a1,1,0,1,1,1-1A1,1,0,0,1,27,17Z"/><path class="cls-1" d="M23.8,24.78a1,1,0,1,1,1-1A1,1,0,0,1,23.8,24.78Z"/><path class="cls-1" d="M16,28a1,1,0,1,1,1-1A1,1,0,0,1,16,28Z"/><path class="cls-1" d="M8.24,24.78a1,1,0,1,1,1-1A1,1,0,0,1,8.24,24.78Z"/><path class="cls-1" d="M5,17a1,1,0,1,1,1-1A1,1,0,0,1,5,17Z"/><path class="cls-1" d="M8.24,9.22a1,1,0,1,1,1-1A1,1,0,0,1,8.24,9.22Z"/><path class="cls-2" d="M12.5,20.5a1,1,0,0,1-.71-1.71L15,15.59V9a1,1,0,0,1,2,0v7a1,1,0,0,1-.29.71l-3.5,3.5A1,1,0,0,1,12.5,20.5Z"/></g></svg>