<svg xmlns="http://www.w3.org/2000/svg" viewBox="0 0 32 32"><defs><style>.cls-1{fill:#38004d;}.cls-2{fill:#9f85ec;}</style></defs><title>Video</title><g id="Video"><path class="cls-1" d="M28.66,7.76l-6.66,6V9a3,3,0,0,0-3-3H3A3,3,0,0,0,0,9V23a3,3,0,0,0,3,3H5a1,1,0,0,0,0-2H3a1,1,0,0,1-1-1V9A1,1,0,0,1,3,8H19a1,1,0,0,1,1,1V23a1,1,0,0,1-1,1H9a1,1,0,0,0,0,2H19a3,3,0,0,0,3-3V18.25l6.66,6A2,2,0,0,0,32,22.75V9.25A2,2,0,0,0,28.66,7.76Zm1.34,15L22.49,16,30,9.25Z"/><path class="cls-2" d="M11,21a5,5,0,1,1,5-5A5,5,0,0,1,11,21Zm0-8a3,3,0,1,0,3,3A3,3,0,0,0,11,13Z"/></g></svg>