<svg xmlns="http://www.w3.org/2000/svg" viewBox="0 0 32 32"><defs><style>.cls-1{fill:#38004d;}.cls-2{fill:#9f85ec;}</style></defs><title>Vision</title><g id="Vision"><path class="cls-1" d="M10.72,24.26a1,1,0,0,1,.56-1.92A17,17,0,0,0,29.78,16,17.07,17.07,0,0,0,2.22,16,17,17,0,0,0,7.5,20.73a1,1,0,1,1-1,1.74A19.15,19.15,0,0,1,.17,16.56a1,1,0,0,1,0-1.12,19.07,19.07,0,0,1,31.66,0,1,1,0,0,1,0,1.12A19.06,19.06,0,0,1,10.72,24.26Z"/><path class="cls-2" d="M16,21a5,5,0,1,1,5-5A5,5,0,0,1,16,21Zm0-8a3,3,0,1,0,3,3A3,3,0,0,0,16,13Z"/><path class="cls-2" d="M16,17a1,1,0,1,1,1-1A1,1,0,0,1,16,17Z"/></g></svg>