<svg xmlns="http://www.w3.org/2000/svg" viewBox="0 0 32 32"><defs><style>.cls-1{fill:#9f85ec;}.cls-2{fill:#38004d;}</style></defs><title>World</title><g id="World"><path class="cls-1" d="M29.75,21H22.46a23.41,23.41,0,0,0,0-10h7.29a1,1,0,0,0,0-2H21.93A21,21,0,0,0,16.71.29a1,1,0,0,0-1.42,0A21,21,0,0,0,10.07,9H2.25a1,1,0,0,0,0,2H9.54a23.41,23.41,0,0,0,0,10H2.25a1,1,0,0,0,0,2h7.82a21,21,0,0,0,5.22,8.71,1,1,0,0,0,1.42,0A21,21,0,0,0,21.93,23h7.82a1,1,0,0,0,0-2ZM16,2.45A19.1,19.1,0,0,1,19.83,9H12.17A19.1,19.1,0,0,1,16,2.45ZM11.59,11h8.82a21.52,21.52,0,0,1,0,10H11.59A21.52,21.52,0,0,1,11.59,11ZM16,29.55A19.1,19.1,0,0,1,12.17,23h7.66A19.1,19.1,0,0,1,16,29.55Z"/><path class="cls-2" d="M10.24,30.93A1,1,0,0,1,11,29.07,14,14,0,1,0,7.6,27.2a1,1,0,1,1-1.2,1.6,16,16,0,1,1,3.84,2.13Z"/></g></svg>