<svg id="_1-Camera" data-name="1-Camera" xmlns="http://www.w3.org/2000/svg" viewBox="0 0 32 32"><title>1-Camera</title><circle cx="16" cy="16" r="15" style="fill:#c1c5c8"/><circle cx="16" cy="17" r="3" style="fill:#c1c5c8"/><path d="M24,11V21a3,3,0,0,1-3,3H11a3,3,0,0,1-3-3V11a3,3,0,0,1,3-3H21A3,3,0,0,1,24,11Zm-5,6a3,3,0,1,0-3,3A3,3,0,0,0,19,17Z" style="fill:#f2f2f2"/><path d="M21,25H11a4,4,0,0,1-4-4V11a4,4,0,0,1,4-4H21a4,4,0,0,1,4,4V21A4,4,0,0,1,21,25ZM11,9a2,2,0,0,0-2,2V21a2,2,0,0,0,2,2H21a2,2,0,0,0,2-2V11a2,2,0,0,0-2-2Z" style="fill:#6f7a7b"/><path d="M16,21a4,4,0,1,1,4-4A4,4,0,0,1,16,21Zm0-6a2,2,0,1,0,2,2A2,2,0,0,0,16,15Z" style="fill:#6f7a7b"/><path d="M16,32A16,16,0,1,1,32,16,16.019,16.019,0,0,1,16,32ZM16,2A14,14,0,1,0,30,16,14.015,14.015,0,0,0,16,2Z" style="fill:#6f7a7b"/><path d="M20,13a1,1,0,0,1-.38-.08.9.9,0,0,1-.54-.54.943.943,0,0,1,0-.76.933.933,0,0,1,.21-.33,1.032,1.032,0,0,1,.33-.21,1,1,0,0,1,1.09.21,1.032,1.032,0,0,1,.21.33A1,1,0,0,1,21,12a1.052,1.052,0,0,1-.29.71A1.033,1.033,0,0,1,20,13Z" style="fill:#6f7a7b"/></svg>