<svg xmlns="http://www.w3.org/2000/svg" viewBox="0 0 32 32"><title>10-Video</title><g id="_10-Video" data-name="10-Video"><circle cx="16" cy="16" r="15" style="fill:#f2f2f2"/><path d="M16,32A16,16,0,1,1,32,16,16.019,16.019,0,0,1,16,32ZM16,2A14,14,0,1,0,30,16,14.015,14.015,0,0,0,16,2Z" style="fill:#6f7a7b"/><path d="M24,11V21l-4-3v1a3,3,0,0,1-3,3H11a3,3,0,0,1-3-3V13a3,3,0,0,1,3-3h6a3,3,0,0,1,3,3v1Z" style="fill:#c1c5c8"/><path d="M17,23H11a4,4,0,0,1-4-4V13a4,4,0,0,1,4-4h6a4.008,4.008,0,0,1,3.894,3.08L23.4,10.2A1,1,0,0,1,25,11V21a1,1,0,0,1-1.6.8l-2.506-1.88A4.008,4.008,0,0,1,17,23ZM11,11a2,2,0,0,0-2,2v6a2,2,0,0,0,2,2h6a2,2,0,0,0,2-2V18a1,1,0,0,1,1.6-.8L23,19V13l-2.4,1.8A1,1,0,0,1,19,14V13a2,2,0,0,0-2-2Z" style="fill:#6f7a7b"/><path d="M16,15a1,1,0,1,1,.71-1.71c.04.05.08.1.12.16a.578.578,0,0,1,.09.17.6.6,0,0,1,.059.18A1.234,1.234,0,0,1,17,14a.99.99,0,0,1-1,1Z" style="fill:#6f7a7b"/></g></svg>