<svg xmlns="http://www.w3.org/2000/svg" viewBox="0 0 32 32"><title>11-Area</title><g id="_11-Area" data-name="11-Area"><circle cx="16" cy="16" r="15" style="fill:#c1c5c8"/><circle cx="16" cy="16" r="8" style="fill:#f2f2f2"/><path d="M16,0A16,16,0,1,0,32,16,16.019,16.019,0,0,0,16,0Zm0,30A14,14,0,1,1,30,16,14.015,14.015,0,0,1,16,30Z" style="fill:#6f7a7b"/><path d="M23.382,8.077A1.01,1.01,0,0,0,23,8H19a1,1,0,0,0,0,2h1.586l-3.293,3.293a1,1,0,1,0,1.414,1.414L22,11.414V13a1,1,0,0,0,2,0V9a1,1,0,0,0-.618-.923Z" style="fill:#6f7a7b"/><path d="M11.414,10H13a1,1,0,0,0,0-2H9a1.01,1.01,0,0,0-.382.077,1,1,0,0,0-.541.541A1.01,1.01,0,0,0,8,9v4a1,1,0,0,0,2,0V11.414l3.293,3.293a1,1,0,0,0,1.414-1.414Z" style="fill:#6f7a7b"/><path d="M13.293,17.293,10,20.586V19a1,1,0,0,0-2,0v4a1.01,1.01,0,0,0,.077.382,1,1,0,0,0,.541.541A1.01,1.01,0,0,0,9,24h4a1,1,0,0,0,0-2H11.414l3.293-3.293a1,1,0,0,0-1.414-1.414Z" style="fill:#6f7a7b"/><path d="M23,18a1,1,0,0,0-1,1v1.586l-3.293-3.293a1,1,0,0,0-1.414,1.414L20.586,22H19a1,1,0,0,0,0,2h4a1.01,1.01,0,0,0,.382-.077A1,1,0,0,0,24,23V19A1,1,0,0,0,23,18Z" style="fill:#6f7a7b"/></g></svg>