<svg xmlns="http://www.w3.org/2000/svg" viewBox="0 0 32 32"><title>13-Time</title><g id="_13-Time" data-name="13-Time"><circle cx="16" cy="16" r="15" style="fill:#c1c5c8"/><circle cx="16" cy="16" r="9" style="fill:#f2f2f2"/><circle cx="16" cy="16" r="6" style="fill:#c1c5c8"/><path d="M16,0A16,16,0,1,0,32,16,16.019,16.019,0,0,0,16,0Zm0,30A14,14,0,1,1,30,16,14.015,14.015,0,0,1,16,30Z" style="fill:#6f7a7b"/><path d="M16,6A10,10,0,1,0,26,16,10.011,10.011,0,0,0,16,6Zm0,18a8,8,0,1,1,8-8A8.009,8.009,0,0,1,16,24Z" style="fill:#6f7a7b"/><path d="M17,15.586V12a1,1,0,0,0-2,0v4a1,1,0,0,0,.293.707l3,3a1,1,0,0,0,1.414-1.414Z" style="fill:#6f7a7b"/></g></svg>