<svg xmlns="http://www.w3.org/2000/svg" viewBox="0 0 32 32"><title>19-Computer</title><g id="_19-Computer" data-name="19-Computer"><circle cx="16" cy="16" r="15" style="fill:#c1c5c8"/><polygon points="18 20 19 24 13 24 14 20 18 20" style="fill:#f2f2f2"/><path d="M24,10v8a2.006,2.006,0,0,1-2,2H10a2.006,2.006,0,0,1-2-2V10a2.006,2.006,0,0,1,2-2H22A2.006,2.006,0,0,1,24,10Z" style="fill:#f2f2f2"/><path d="M16,0A16,16,0,1,0,32,16,16.019,16.019,0,0,0,16,0Zm0,30A14,14,0,1,1,30,16,14.015,14.015,0,0,1,16,30Z" style="fill:#6f7a7b"/><path d="M22,7H10a3,3,0,0,0-3,3v8a3,3,0,0,0,3,3h2.719l-.5,2H12a1,1,0,0,0,0,2h8a1,1,0,0,0,0-2h-.219l-.5-2H22a3,3,0,0,0,3-3V10A3,3,0,0,0,22,7ZM14.281,23l.5-2h2.438l.5,2ZM23,18a1,1,0,0,1-1,1H10a1,1,0,0,1-1-1V10a1,1,0,0,1,1-1H22a1,1,0,0,1,1,1Z" style="fill:#6f7a7b"/><path d="M16.38,15.08a1,1,0,0,0-.76,0,.9.9,0,0,0-.54.54.942.942,0,0,0,0,.76,1.032,1.032,0,0,0,.21.33,1,1,0,0,0,1.42-1.42A1.155,1.155,0,0,0,16.38,15.08Z" style="fill:#6f7a7b"/></g></svg>