<svg xmlns="http://www.w3.org/2000/svg" viewBox="0 0 32 32"><title>20-Computer</title><g id="_20-Computer" data-name="20-Computer"><circle cx="16" cy="16" r="15" style="fill:#f2f2f2"/><polygon points="18 20 19 24 13 24 14 20 18 20" style="fill:#f2f2f2"/><path d="M24,16v2a2.006,2.006,0,0,1-2,2H10a2.006,2.006,0,0,1-2-2V16Z" style="fill:#f2f2f2"/><path d="M24,10v6H8V10a2.006,2.006,0,0,1,2-2H22A2.006,2.006,0,0,1,24,10Z" style="fill:#c1c5c8"/><path d="M16,0A16,16,0,1,0,32,16,16.019,16.019,0,0,0,16,0Zm0,30A14,14,0,1,1,30,16,14.015,14.015,0,0,1,16,30Z" style="fill:#6f7a7b"/><path d="M22,7H10a3,3,0,0,0-3,3v8a3,3,0,0,0,3,3h2.719l-.5,2H12a1,1,0,0,0,0,2h8a1,1,0,0,0,0-2h-.219l-.5-2H22a3,3,0,0,0,3-3V10A3,3,0,0,0,22,7ZM10,9H22a1,1,0,0,1,1,1v5H9V10A1,1,0,0,1,10,9Zm4.281,14,.5-2h2.438l.5,2ZM22,19H10a1,1,0,0,1-1-1V17H23v1A1,1,0,0,1,22,19Z" style="fill:#6f7a7b"/></g></svg>