<svg xmlns="http://www.w3.org/2000/svg" viewBox="0 0 32 32"><title>23-Music</title><g id="_23-Music" data-name="23-Music"><circle cx="16" cy="16" r="15" style="fill:#c1c5c8"/><circle cx="19.5" cy="19.5" r="2.5" style="fill:#f2f2f2"/><circle cx="10" cy="22" r="2" style="fill:#f2f2f2"/><path d="M16,0A16,16,0,1,0,32,16,16.019,16.019,0,0,0,16,0Zm0,30A14,14,0,1,1,30,16,14.015,14.015,0,0,1,16,30Z" style="fill:#6f7a7b"/><path d="M21.713,6.042l-10,3A1,1,0,0,0,11,10v9.184A2.966,2.966,0,0,0,10,19a3,3,0,1,0,3,3V10.744l8-2.4v8.007A3.464,3.464,0,0,0,19.5,16,3.5,3.5,0,1,0,23,19.5a3.323,3.323,0,0,0-.034-.333A.933.933,0,0,0,23,19V7a1,1,0,0,0-1.287-.958ZM10,23a1,1,0,1,1,1-1A1,1,0,0,1,10,23Zm9.5-2A1.5,1.5,0,1,1,21,19.5,1.5,1.5,0,0,1,19.5,21Z" style="fill:#6f7a7b"/></g></svg>