<svg xmlns="http://www.w3.org/2000/svg" viewBox="0 0 32 32"><title>27-Search</title><g id="_27-Search" data-name="27-Search"><circle cx="16" cy="16" r="15" style="fill:#c1c5c8"/><circle cx="14" cy="14" r="7" style="fill:#f2f2f2"/><path d="M16,0A16,16,0,1,0,32,16,16.019,16.019,0,0,0,16,0Zm0,30A14,14,0,1,1,30,16,14.015,14.015,0,0,1,16,30Z" style="fill:#6f7a7b"/><path d="M20.312,18.9A8.026,8.026,0,1,0,18.9,20.312l3.395,3.395a1,1,0,0,0,1.414-1.414ZM8,14a6,6,0,1,1,6,6A6.006,6.006,0,0,1,8,14Z" style="fill:#6f7a7b"/><path d="M14,10a4,4,0,0,0-4,4,1,1,0,0,0,2,0,2,2,0,0,1,2-2,1,1,0,0,0,0-2Z" style="fill:#6f7a7b"/><path d="M12.62,16.08a1.032,1.032,0,0,0-.33.21A1.052,1.052,0,0,0,12,17a1.355,1.355,0,0,0,.02.2.636.636,0,0,0,.06.18.757.757,0,0,0,.09.18,1.576,1.576,0,0,0,.12.15,1.032,1.032,0,0,0,.33.21A1,1,0,0,0,13,18a1.052,1.052,0,0,0,.71-.29,1.576,1.576,0,0,0,.12-.15.757.757,0,0,0,.09-.18.636.636,0,0,0,.06-.18A1.355,1.355,0,0,0,14,17a1.052,1.052,0,0,0-.29-.71A1,1,0,0,0,12.62,16.08Z" style="fill:#6f7a7b"/></g></svg>