<svg xmlns="http://www.w3.org/2000/svg" viewBox="0 0 32 32"><title>29-Arrow up</title><g id="_29-Arrow_up" data-name="29-Arrow up"><circle cx="16" cy="16" r="15" style="fill:#c1c5c8"/><circle cx="16" cy="10" r="5" style="fill:#f2f2f2"/><path d="M16,0A16,16,0,1,0,32,16,16.019,16.019,0,0,0,16,0Zm0,30A14,14,0,1,1,30,16,14.015,14.015,0,0,1,16,30Z" style="fill:#6f7a7b"/><path d="M16.708,7.294a.99.99,0,0,0-.326-.217,1,1,0,0,0-.764,0,.99.99,0,0,0-.326.217l-4,4a1,1,0,0,0,1.414,1.414L15,10.414V20a1,1,0,0,0,2,0V10.414l2.293,2.293a1,1,0,0,0,1.414-1.414Z" style="fill:#6f7a7b"/><path d="M15.29,23.29a1.014,1.014,0,0,0,0,1.42,1.7,1.7,0,0,0,.149.12.782.782,0,0,0,.181.09.636.636,0,0,0,.18.06A1.355,1.355,0,0,0,16,25a1,1,0,0,0,.7-1.71A1.034,1.034,0,0,0,15.29,23.29Z" style="fill:#6f7a7b"/></g></svg>