<svg xmlns="http://www.w3.org/2000/svg" viewBox="0 0 32 32"><title>31-Exchange</title><g id="_31-Exchange" data-name="31-Exchange"><circle cx="16" cy="16" r="15" style="fill:#c1c5c8"/><circle cx="16" cy="16" r="10" style="fill:#f2f2f2"/><path d="M16,0A16,16,0,1,0,32,16,16.019,16.019,0,0,0,16,0Zm0,30A14,14,0,1,1,30,16,14.015,14.015,0,0,1,16,30Z" style="fill:#6f7a7b"/><path d="M26.707,12.293a1,1,0,0,0-1.414,0l-1.331,1.331a9.376,9.376,0,0,0-2.11-5.274A7.483,7.483,0,0,0,16,6H13a1,1,0,0,0,0,2h3a5.575,5.575,0,0,1,4.355,1.677,7.171,7.171,0,0,1,1.579,3.843l-1.227-1.227a1,1,0,0,0-1.414,1.414l3,3a.941.941,0,0,0,.114.076.9.9,0,0,0,.163.108.931.931,0,0,0,.206.065.783.783,0,0,0,.116.037c.034,0,.067.005.1.006H23c.028,0,.055-.014.083-.016a.98.98,0,0,0,.283-.055c.031-.012.056-.037.086-.052a.98.98,0,0,0,.232-.155c.007-.006.016-.008.023-.015l3-3A1,1,0,0,0,26.707,12.293Z" style="fill:#6f7a7b"/><path d="M19,24H16a5.575,5.575,0,0,1-4.355-1.677,7.171,7.171,0,0,1-1.579-3.843l1.227,1.227a1,1,0,0,0,1.414-1.414l-3-3a.82.82,0,0,0-.113-.075.9.9,0,0,0-.164-.109.931.931,0,0,0-.206-.065.783.783,0,0,0-.116-.037.391.391,0,0,0-.048.005.946.946,0,0,0-.243.024.858.858,0,0,0-.134.026.933.933,0,0,0-.2.1.961.961,0,0,0-.141.094c-.016.014-.036.019-.051.034l-3,3a1,1,0,0,0,1.414,1.414l1.331-1.331a9.376,9.376,0,0,0,2.11,5.274A7.483,7.483,0,0,0,16,26h3a1,1,0,0,0,0-2Z" style="fill:#6f7a7b"/><path d="M15.29,16.71a1.155,1.155,0,0,0,.33.21A.99.99,0,0,0,17,16a.838.838,0,0,0-.08-.38,1.032,1.032,0,0,0-.21-.33,1.155,1.155,0,0,0-.33-.21,1,1,0,0,0-1.09.21,1.155,1.155,0,0,0-.21.33.99.99,0,0,0,.21,1.09Z" style="fill:#6f7a7b"/><path d="M16,13a1,1,0,0,0,.38-.08,1.155,1.155,0,0,0,.33-.21.99.99,0,0,0,.21-1.09,1.155,1.155,0,0,0-.21-.33,1.017,1.017,0,0,0-1.09-.21,1.155,1.155,0,0,0-.33.21,1.032,1.032,0,0,0-.21.33A.99.99,0,0,0,16,13Z" style="fill:#6f7a7b"/><path d="M15.29,20.71a1.155,1.155,0,0,0,.33.21A.99.99,0,0,0,17,20a1,1,0,1,0-2,0A.99.99,0,0,0,15.29,20.71Z" style="fill:#6f7a7b"/></g></svg>