<svg xmlns="http://www.w3.org/2000/svg" viewBox="0 0 32 32"><title>34-File</title><g id="_34-File" data-name="34-File"><circle cx="16" cy="16" r="15" style="fill:#f2f2f2"/><path d="M24,13H21a2.006,2.006,0,0,1-2-2V8Z" style="fill:#f2f2f2"/><path d="M19,8v3a2.006,2.006,0,0,0,2,2h3v9a2.006,2.006,0,0,1-2,2H12a2.006,2.006,0,0,1-2-2V10a2.006,2.006,0,0,1,2-2Z" style="fill:#c1c5c8"/><path d="M16,0A16,16,0,1,0,32,16,16.019,16.019,0,0,0,16,0Zm0,30A14,14,0,1,1,30,16,14.015,14.015,0,0,1,16,30Z" style="fill:#6f7a7b"/><path d="M24.706,12.292l-5-5a.975.975,0,0,0-.323-.216A.988.988,0,0,0,19,7H12a3,3,0,0,0-3,3v3a1,1,0,0,0,2,0V10a1,1,0,0,1,1-1h6v2a3,3,0,0,0,3,3h2v8a1,1,0,0,1-1,1H15a1,1,0,0,0,0,2h7a3,3,0,0,0,3-3V13a.988.988,0,0,0-.078-.385A.975.975,0,0,0,24.706,12.292ZM20,11v-.586L21.586,12H21A1,1,0,0,1,20,11Z" style="fill:#6f7a7b"/><path d="M13.707,20.293,12.414,19l1.293-1.293a1,1,0,0,0-1.414-1.414L11,17.586,9.707,16.293a1,1,0,0,0-1.414,1.414L9.586,19,8.293,20.293a1,1,0,1,0,1.414,1.414L11,20.414l1.293,1.293a1,1,0,0,0,1.414-1.414Z" style="fill:#6f7a7b"/></g></svg>