<svg xmlns="http://www.w3.org/2000/svg" viewBox="0 0 32 32"><title>37-Arrow Right</title><g id="_37-Arrow_Right" data-name="37-Arrow Right"><circle cx="16" cy="16" r="15" style="fill:#c1c5c8"/><circle cx="22" cy="16" r="5" style="fill:#f2f2f2"/><path d="M16,0A16,16,0,1,0,32,16,16.019,16.019,0,0,0,16,0Zm0,30A14,14,0,1,1,30,16,14.015,14.015,0,0,1,16,30Z" style="fill:#6f7a7b"/><path d="M24.923,15.618a.99.99,0,0,0-.217-.326l-4-4a1,1,0,0,0-1.414,1.414L21.586,15H12a1,1,0,0,0,0,2h9.586l-2.293,2.293a1,1,0,1,0,1.414,1.414l4-4a.99.99,0,0,0,.217-.326A1,1,0,0,0,24.923,15.618Z" style="fill:#6f7a7b"/><path d="M8.71,15.29a1.047,1.047,0,0,0-1.42,0,1.155,1.155,0,0,0-.21.33A1,1,0,0,0,7,16a.951.951,0,0,0,.29.7.99.99,0,0,0,1.42,0A.951.951,0,0,0,9,16a1,1,0,0,0-.08-.38A1.155,1.155,0,0,0,8.71,15.29Z" style="fill:#6f7a7b"/></g></svg>