<svg xmlns="http://www.w3.org/2000/svg" viewBox="0 0 32 32"><title>38-Power</title><g id="_38-Power" data-name="38-Power"><circle cx="16" cy="16" r="15" style="fill:#f2f2f2"/><circle cx="16" cy="16" r="9" style="fill:#f2f2f2"/><circle cx="16" cy="16" r="6" style="fill:#c1c5c8"/><path d="M16,32A16,16,0,1,1,32,16,16.019,16.019,0,0,1,16,32ZM16,2A14,14,0,1,0,30,16,14.015,14.015,0,0,0,16,2Z" style="fill:#6f7a7b"/><path d="M16,26A10,10,0,0,1,9.714,8.223a1,1,0,1,1,1.258,1.554,8,8,0,1,0,10.056,0,1,1,0,1,1,1.258-1.554A10,10,0,0,1,16,26Z" style="fill:#6f7a7b"/><path d="M16,15a1,1,0,0,1-1-1V7a1,1,0,0,1,2,0v7A1,1,0,0,1,16,15Z" style="fill:#6f7a7b"/><path d="M16,19a.99.99,0,0,1-.92-1.38,1.032,1.032,0,0,1,.21-.33A1,1,0,0,1,17,18a.99.99,0,0,1-1,1Z" style="fill:#6f7a7b"/></g></svg>