<svg xmlns="http://www.w3.org/2000/svg" viewBox="0 0 32 32"><title>39-Message</title><g id="_39-Message" data-name="39-Message"><circle cx="16" cy="16" r="15" style="fill:#c1c5c8"/><path d="M16,32A16,16,0,1,1,32,16,16.019,16.019,0,0,1,16,32ZM16,2A14,14,0,1,0,30,16,14.015,14.015,0,0,0,16,2Z" style="fill:#6f7a7b"/><path d="M13.31,23.59A7.194,7.194,0,0,0,11,26V22.48A9,9,0,1,1,16,24,8.851,8.851,0,0,1,13.31,23.59Z" style="fill:#f2f2f2"/><path d="M11,27a1,1,0,0,1-1-1V23a9.915,9.915,0,1,1,3.5,1.689,6.128,6.128,0,0,0-1.61,1.77A1.006,1.006,0,0,1,11,27ZM16,7a8,8,0,0,0-4.444,14.649A1,1,0,0,1,12,22.48v.844a9.121,9.121,0,0,1,.751-.563,1.008,1.008,0,0,1,.862-.124A7.861,7.861,0,0,0,16,23,8,8,0,0,0,16,7Z" style="fill:#6f7a7b"/><path d="M16,16a.99.99,0,0,1-.92-1.38,1.032,1.032,0,0,1,.21-.33,1.047,1.047,0,0,1,1.42,0,1.032,1.032,0,0,1,.21.33A.99.99,0,0,1,16,16Z" style="fill:#6f7a7b"/><path d="M20,16a.99.99,0,0,1-1-1,1,1,0,1,1,2,0,.99.99,0,0,1-1,1Z" style="fill:#6f7a7b"/><path d="M12,16a.99.99,0,0,1-1-1,1,1,0,1,1,2,0,.99.99,0,0,1-1,1Z" style="fill:#6f7a7b"/></g></svg>