<svg xmlns="http://www.w3.org/2000/svg" viewBox="0 0 32 32"><title>40-User</title><g id="_40-User" data-name="40-User"><circle cx="16" cy="16" r="15" style="fill:#f2f2f2"/><path d="M25,22H13c0-2.76,2.69-5,6-5S25,19.24,25,22Z" style="fill:#f2f2f2"/><ellipse cx="19" cy="12.5" rx="4" ry="4.5" style="fill:#f2f2f2"/><path d="M19,22H7c0-2.76,2.69-5,6-5S19,19.24,19,22Z" style="fill:#c1c5c8"/><ellipse cx="13" cy="12.5" rx="4" ry="4.5" style="fill:#c1c5c8"/><path d="M16,0A16,16,0,1,0,32,16,16.019,16.019,0,0,0,16,0Zm0,30A14,14,0,1,1,30,16,14.015,14.015,0,0,1,16,30Z" style="fill:#6f7a7b"/><path d="M16.236,16.685A5.726,5.726,0,0,0,18,12.5,5.274,5.274,0,0,0,13,7a5.274,5.274,0,0,0-5,5.5,5.726,5.726,0,0,0,1.764,4.185A5.966,5.966,0,0,0,6,22a1,1,0,0,0,2,0c0-2.206,2.243-4,5-4s5,1.794,5,4a1,1,0,0,0,2,0A5.966,5.966,0,0,0,16.236,16.685ZM10,12.5A3.283,3.283,0,0,1,13,9a3.283,3.283,0,0,1,3,3.5A3.283,3.283,0,0,1,13,16,3.283,3.283,0,0,1,10,12.5Z" style="fill:#6f7a7b"/><path d="M22.236,16.685A5.726,5.726,0,0,0,24,12.5,5.274,5.274,0,0,0,19,7a1,1,0,0,0,0,2,3.283,3.283,0,0,1,3,3.5A3.283,3.283,0,0,1,19,16a1,1,0,0,0,0,2c2.757,0,5,1.794,5,4a1,1,0,0,0,2,0A5.966,5.966,0,0,0,22.236,16.685Z" style="fill:#6f7a7b"/></g></svg>