<svg xmlns="http://www.w3.org/2000/svg" viewBox="0 0 32 32"><title>41-Upload</title><g id="_41-Upload" data-name="41-Upload"><circle cx="16" cy="16" r="15" style="fill:#c1c5c8"/><circle cx="16" cy="9" r="5" style="fill:#f2f2f2"/><path d="M16,0A16,16,0,1,0,32,16,16.019,16.019,0,0,0,16,0Zm0,30A14,14,0,1,1,30,16,14.015,14.015,0,0,1,16,30Z" style="fill:#6f7a7b"/><path d="M22,20a1,1,0,0,0-1,1,2,2,0,0,1-2,2H13a2,2,0,0,1-2-2,1,1,0,0,0-2,0,4,4,0,0,0,4,4h6a4,4,0,0,0,4-4A1,1,0,0,0,22,20Z" style="fill:#6f7a7b"/><path d="M13.707,10.707,15,9.414V16a1,1,0,0,0,2,0V9.414l1.293,1.293a1,1,0,0,0,1.414-1.414l-3-3a.99.99,0,0,0-.326-.217,1,1,0,0,0-.764,0,.99.99,0,0,0-.326.217l-3,3a1,1,0,0,0,1.414,1.414Z" style="fill:#6f7a7b"/><path d="M15.62,19.08a1.032,1.032,0,0,0-.33.21,1.155,1.155,0,0,0-.21.33.99.99,0,0,0,1.3,1.3,1.169,1.169,0,0,0,.33-.21.99.99,0,0,0,.21-1.09,1.032,1.032,0,0,0-.21-.33A1,1,0,0,0,15.62,19.08Z" style="fill:#6f7a7b"/></g></svg>