<svg xmlns="http://www.w3.org/2000/svg" viewBox="0 0 32 32"><title>42-Download</title><g id="_42-Download" data-name="42-Download"><circle cx="16" cy="16" r="15" style="fill:#f2f2f2"/><circle cx="16" cy="17" r="5" style="fill:#c1c5c8"/><path d="M16,0A16,16,0,1,0,32,16,16.019,16.019,0,0,0,16,0Zm0,30A14,14,0,1,1,30,16,14.015,14.015,0,0,1,16,30Z" style="fill:#6f7a7b"/><path d="M22,20a1,1,0,0,0-1,1,2,2,0,0,1-2,2H13a2,2,0,0,1-2-2,1,1,0,0,0-2,0,4,4,0,0,0,4,4h6a4,4,0,0,0,4-4A1,1,0,0,0,22,20Z" style="fill:#6f7a7b"/><path d="M15.292,20.706a1,1,0,0,0,1.416,0l3-3a1,1,0,0,0-1.414-1.414L17,17.586V11a1,1,0,0,0-2,0v6.586l-1.293-1.293a1,1,0,0,0-1.414,1.414Z" style="fill:#6f7a7b"/><path d="M16,8a1.007,1.007,0,0,0,1-1,1,1,0,0,0-.08-.38.911.911,0,0,0-.22-.33,1.035,1.035,0,0,0-.15-.12.568.568,0,0,0-.17-.09.609.609,0,0,0-.191-.06,1,1,0,0,0-.9.27,1.032,1.032,0,0,0-.21.33A.99.99,0,0,0,16,8Z" style="fill:#6f7a7b"/></g></svg>