<svg xmlns="http://www.w3.org/2000/svg" viewBox="0 0 32 32"><title>45-Add</title><g id="_45-Add" data-name="45-Add"><circle cx="16" cy="16" r="15" style="fill:#c1c5c8"/><rect x="8" y="10" width="16" height="12" style="fill:#f2f2f2"/><circle cx="22" cy="20" r="4" style="fill:#f2f2f2"/><path d="M16,0A16,16,0,1,0,32,16,16.019,16.019,0,0,0,16,0Zm0,30A14,14,0,1,1,30,16,14.015,14.015,0,0,1,16,30Z" style="fill:#6f7a7b"/><path d="M24.71,13.29a1,1,0,0,0-1.09-.21.9.9,0,0,0-.54.54A1,1,0,0,0,23,14a.838.838,0,0,0,.08.38,1.169,1.169,0,0,0,.21.33,1.155,1.155,0,0,0,.33.21.942.942,0,0,0,.76,0,1.155,1.155,0,0,0,.33-.21A.99.99,0,0,0,25,14a.838.838,0,0,0-.08-.38A1.032,1.032,0,0,0,24.71,13.29Z" style="fill:#6f7a7b"/><path d="M23.8,9.02a.636.636,0,0,0-.18.06.757.757,0,0,0-.18.09,1.576,1.576,0,0,0-.15.12A1.05,1.05,0,0,0,23,10a.99.99,0,0,0,.29.71,1.155,1.155,0,0,0,.33.21A.99.99,0,0,0,25,10a1.05,1.05,0,0,0-.29-.71A1.018,1.018,0,0,0,23.8,9.02Z" style="fill:#6f7a7b"/><path d="M20,11a1,1,0,0,0,.38-.08,1.155,1.155,0,0,0,.33-.21A.99.99,0,0,0,21,10a1.05,1.05,0,0,0-.29-.71,1.576,1.576,0,0,0-.15-.12.757.757,0,0,0-.18-.09.6.6,0,0,0-.19-.06,1.006,1.006,0,0,0-.9.27A1.05,1.05,0,0,0,19,10a.99.99,0,0,0,1,1Z" style="fill:#6f7a7b"/><path d="M16.92,9.62a.782.782,0,0,0-.09-.181l-.12-.149a1,1,0,0,0-1.09-.21,1.032,1.032,0,0,0-.33.21A1.05,1.05,0,0,0,15,10a1,1,0,0,0,.08.38,1.169,1.169,0,0,0,.21.33,1.155,1.155,0,0,0,.33.21.942.942,0,0,0,.76,0,1.155,1.155,0,0,0,.33-.21A.99.99,0,0,0,17,10a1.213,1.213,0,0,0-.02-.19A.6.6,0,0,0,16.92,9.62Z" style="fill:#6f7a7b"/><path d="M12.56,9.17a.757.757,0,0,0-.18-.09.636.636,0,0,0-.18-.06.949.949,0,0,0-.58.06,1.155,1.155,0,0,0-.33.21A1.05,1.05,0,0,0,11,10a.99.99,0,0,0,.29.71,1.155,1.155,0,0,0,.33.21.943.943,0,0,0,.76,0,1.155,1.155,0,0,0,.33-.21,1.169,1.169,0,0,0,.21-.33A1,1,0,0,0,13,10a1.05,1.05,0,0,0-.29-.71A1.576,1.576,0,0,0,12.56,9.17Z" style="fill:#6f7a7b"/><path d="M8.92,9.62a.782.782,0,0,0-.09-.181L8.71,9.29a1,1,0,0,0-1.09-.21,1.155,1.155,0,0,0-.33.21A1.05,1.05,0,0,0,7,10a1,1,0,0,0,.08.38,1.169,1.169,0,0,0,.21.33.99.99,0,0,0,1.09.21,1.155,1.155,0,0,0,.33-.21,1.169,1.169,0,0,0,.21-.33A.838.838,0,0,0,9,10a1.213,1.213,0,0,0-.02-.19A.6.6,0,0,0,8.92,9.62Z" style="fill:#6f7a7b"/><path d="M8.71,13.29a1.576,1.576,0,0,0-.15-.12.757.757,0,0,0-.18-.09.636.636,0,0,0-.18-.06,1.018,1.018,0,0,0-.91.27,1.155,1.155,0,0,0-.21.33.99.99,0,0,0,.21,1.09,1.155,1.155,0,0,0,.33.21.942.942,0,0,0,.76,0,1.155,1.155,0,0,0,.33-.21.99.99,0,0,0,.21-1.09A1.032,1.032,0,0,0,8.71,13.29Z" style="fill:#6f7a7b"/><path d="M8.92,17.62a.782.782,0,0,0-.09-.181l-.12-.149a1.032,1.032,0,0,0-.33-.21.991.991,0,0,0-.76,0,1.032,1.032,0,0,0-.33.21A1.05,1.05,0,0,0,7,18a.99.99,0,0,0,.29.71,1.155,1.155,0,0,0,.33.21A.99.99,0,0,0,9,18a1.487,1.487,0,0,0-.02-.2A.636.636,0,0,0,8.92,17.62Z" style="fill:#6f7a7b"/><path d="M7.29,21.29A1.05,1.05,0,0,0,7,22a1.039,1.039,0,0,0,.29.7.99.99,0,0,0,1.42,0A1.039,1.039,0,0,0,9,22a1,1,0,0,0-1.71-.71Z" style="fill:#6f7a7b"/><path d="M11.29,21.29A1.05,1.05,0,0,0,11,22a.951.951,0,0,0,.29.7.99.99,0,0,0,1.42,0A1.039,1.039,0,0,0,13,22a1,1,0,0,0-1.71-.71Z" style="fill:#6f7a7b"/><path d="M15.81,21.02a.6.6,0,0,0-.19.06.757.757,0,0,0-.18.09,1.576,1.576,0,0,0-.15.12A1.05,1.05,0,0,0,15,22a.838.838,0,0,0,.08.38,1,1,0,0,0,.21.32.99.99,0,0,0,1.42,0,1,1,0,0,0,.21-.32A.838.838,0,0,0,17,22a1.05,1.05,0,0,0-.29-.71A1,1,0,0,0,15.81,21.02Z" style="fill:#6f7a7b"/><path d="M24,19H23V18a1,1,0,0,0-2,0v1H20a1,1,0,0,0,0,2h1v1a1,1,0,0,0,2,0V21h1a1,1,0,0,0,0-2Z" style="fill:#6f7a7b"/></g></svg>