<svg xmlns="http://www.w3.org/2000/svg" viewBox="0 0 32 32"><title>47-Smartphone</title><g id="_47-Smartphone" data-name="47-Smartphone"><circle cx="16" cy="16" r="15" style="fill:#c1c5c8"/><path d="M16,32A16,16,0,1,1,32,16,16.019,16.019,0,0,1,16,32ZM16,2A14,14,0,1,0,30,16,14.015,14.015,0,0,0,16,2Z" style="fill:#6f7a7b"/><rect x="10" y="7" width="12" height="18" rx="2" style="fill:#c1c5c8"/><path d="M22,9a2.006,2.006,0,0,0-2-2H12a2.006,2.006,0,0,0-2,2v2H22Z" style="fill:#f2f2f2"/><path d="M10,23a2.006,2.006,0,0,0,2,2h8a2.006,2.006,0,0,0,2-2V21H10Z" style="fill:#f2f2f2"/><path d="M20,26H12a3,3,0,0,1-3-3V9a3,3,0,0,1,3-3h8a3,3,0,0,1,3,3V23A3,3,0,0,1,20,26ZM12,8a1,1,0,0,0-1,1V23a1,1,0,0,0,1,1h8a1,1,0,0,0,1-1V9a1,1,0,0,0-1-1Z" style="fill:#6f7a7b"/><path d="M18,12H14a1,1,0,0,1,0-2h4a1,1,0,0,1,0,2Z" style="fill:#6f7a7b"/><path d="M16,22a.99.99,0,0,1-.92-1.38.9.9,0,0,1,.54-.54,1,1,0,0,1,1.09.21,1.032,1.032,0,0,1,.21.33A.99.99,0,0,1,16,22Z" style="fill:#6f7a7b"/></g></svg>