<svg xmlns="http://www.w3.org/2000/svg" viewBox="0 0 32 32"><title>48-Compass</title><g id="_48-Compass" data-name="48-Compass"><circle cx="16" cy="16" r="15" style="fill:#f2f2f2"/><polygon points="19 16 16 22 13 16 19 16" style="fill:#f2f2f2"/><polygon points="16 10 19 16 13 16 16 10" style="fill:#c1c5c8"/><path d="M16,7a1.025,1.025,0,0,0,1-1,1,1,0,0,0-.08-.38.911.911,0,0,0-.22-.33,1.035,1.035,0,0,0-.15-.12.568.568,0,0,0-.17-.09.609.609,0,0,0-.191-.06,1,1,0,0,0-.9.27A1.045,1.045,0,0,0,15,6a.951.951,0,0,0,.29.7A.96.96,0,0,0,16,7Z" style="fill:#6f7a7b"/><path d="M16.71,25.29a1.021,1.021,0,0,0-1.09-.21.933.933,0,0,0-.33.21,1.155,1.155,0,0,0-.21.33A.838.838,0,0,0,15,26a1,1,0,0,0,.069.38,1.257,1.257,0,0,0,.221.32.99.99,0,0,0,1.42,0,.974.974,0,0,0,.21-1.08A1.155,1.155,0,0,0,16.71,25.29Z" style="fill:#6f7a7b"/><path d="M26.92,15.62a.911.911,0,0,0-.22-.33.628.628,0,0,0-.15-.12.568.568,0,0,0-.17-.09.609.609,0,0,0-.191-.06.852.852,0,0,0-.389,0,.636.636,0,0,0-.18.06.782.782,0,0,0-.181.09,1.7,1.7,0,0,0-.149.12,1.032,1.032,0,0,0-.21.33A.99.99,0,0,0,26,17a1.007,1.007,0,0,0,1-1A1,1,0,0,0,26.92,15.62Z" style="fill:#6f7a7b"/><path d="M6.7,15.29a1.035,1.035,0,0,0-.15-.12.568.568,0,0,0-.17-.09.609.609,0,0,0-.191-.06,1,1,0,0,0-.9.27A1.045,1.045,0,0,0,5,16a.951.951,0,0,0,.29.7A.96.96,0,0,0,6,17a1.025,1.025,0,0,0,1-1,1,1,0,0,0-.08-.38A.911.911,0,0,0,6.7,15.29Z" style="fill:#6f7a7b"/><path d="M16,0A16,16,0,1,0,32,16,16.019,16.019,0,0,0,16,0Zm0,30A14,14,0,1,1,30,16,14.015,14.015,0,0,1,16,30Z" style="fill:#6f7a7b"/><path d="M19.9,15.58c0-.009,0-.019-.006-.027l-3-6a1.042,1.042,0,0,0-1.79,0l-3,6c0,.008,0,.018-.006.027a.94.94,0,0,0,0,.84c0,.008,0,.019.006.027l3,6a1,1,0,0,0,1.79,0l3-6c0-.008,0-.018.006-.027a.94.94,0,0,0,0-.84ZM16,12.236,17.382,15H14.618Zm0,7.528L14.618,17h2.764Z" style="fill:#6f7a7b"/></g></svg>