<svg xmlns="http://www.w3.org/2000/svg" viewBox="0 0 32 32"><title>49-Message</title><g id="_49-Message" data-name="49-Message"><circle cx="16" cy="16" r="15" style="fill:#c1c5c8"/><path d="M16,32A16,16,0,1,1,32,16,16.019,16.019,0,0,1,16,32ZM16,2A14,14,0,1,0,30,16,14.015,14.015,0,0,0,16,2Z" style="fill:#6f7a7b"/><path d="M24,11v8a2.006,2.006,0,0,1-2,2H19l-3,2-3-2H10a2.006,2.006,0,0,1-2-2V11a2.006,2.006,0,0,1,2-2H22A2.006,2.006,0,0,1,24,11Z" style="fill:#f2f2f2"/><path d="M16,24a1,1,0,0,1-.555-.168L12.7,22H10a3,3,0,0,1-3-3V11a3,3,0,0,1,3-3H22a3,3,0,0,1,3,3v8a3,3,0,0,1-3,3H19.3l-2.748,1.832A1,1,0,0,1,16,24ZM10,10a1,1,0,0,0-1,1v8a1,1,0,0,0,1,1h3a1.006,1.006,0,0,1,.555.168L16,21.8l2.445-1.63A1.006,1.006,0,0,1,19,20h3a1,1,0,0,0,1-1V11a1,1,0,0,0-1-1Z" style="fill:#6f7a7b"/><path d="M16,16a.852.852,0,0,1-.38-.08,1.155,1.155,0,0,1-.33-.21,1.169,1.169,0,0,1-.21-.33A.838.838,0,0,1,15,15a1.05,1.05,0,0,1,.29-.71.955.955,0,0,1,.16-.12.556.556,0,0,1,.17-.09.636.636,0,0,1,.18-.06.9.9,0,0,1,.4,0,.636.636,0,0,1,.18.06.757.757,0,0,1,.18.09,1.576,1.576,0,0,1,.15.12A1.05,1.05,0,0,1,17,15a.838.838,0,0,1-.08.38,1.169,1.169,0,0,1-.21.33,1.155,1.155,0,0,1-.33.21A.852.852,0,0,1,16,16Z" style="fill:#6f7a7b"/><path d="M20,16a.852.852,0,0,1-.38-.08,1.155,1.155,0,0,1-.33-.21,1.169,1.169,0,0,1-.21-.33A1,1,0,0,1,19,15a1.05,1.05,0,0,1,.29-.71,1.155,1.155,0,0,1,.33-.21.916.916,0,0,1,.76,0,1.155,1.155,0,0,1,.33.21A1.05,1.05,0,0,1,21,15a1,1,0,0,1-.08.38,1.169,1.169,0,0,1-.21.33A.994.994,0,0,1,20,16Z" style="fill:#6f7a7b"/><path d="M12,16a.852.852,0,0,1-.38-.08,1.155,1.155,0,0,1-.33-.21,1.169,1.169,0,0,1-.21-.33.943.943,0,0,1,0-.76,1.032,1.032,0,0,1,.21-.33,1,1,0,0,1,1.09-.21,1.032,1.032,0,0,1,.33.21A1.05,1.05,0,0,1,13,15a1,1,0,0,1-.08.38,1.169,1.169,0,0,1-.21.33A.994.994,0,0,1,12,16Z" style="fill:#6f7a7b"/></g></svg>