<svg xmlns="http://www.w3.org/2000/svg" viewBox="0 0 32 32"><title>50-Trash</title><g id="_50-Trash" data-name="50-Trash"><circle cx="16" cy="16" r="15" style="fill:#f2f2f2"/><path d="M22,11v1l-1,9a3,3,0,0,1-3,3H14a3,3,0,0,1-3-3l-1-9V11Z" style="fill:#c1c5c8"/><path d="M16,0A16,16,0,1,0,32,16,16.019,16.019,0,0,0,16,0Zm0,30A14,14,0,1,1,30,16,14.015,14.015,0,0,1,16,30Z" style="fill:#6f7a7b"/><path d="M24,10H8a1,1,0,0,0,0,2H9.016a1.022,1.022,0,0,0-.01.11L10,21.06A4.005,4.005,0,0,0,14,25h4a4.005,4.005,0,0,0,4-3.94l.994-8.95a1.022,1.022,0,0,0-.01-.11H24a1,1,0,0,0,0-2ZM20.006,20.89A1,1,0,0,0,20,21a2,2,0,0,1-2,2H14a2,2,0,0,1-2-2,1,1,0,0,0-.006-.11L11.006,12h9.988Z" style="fill:#6f7a7b"/><path d="M15,9h2a1,1,0,0,0,0-2H15a1,1,0,0,0,0,2Z" style="fill:#6f7a7b"/><path d="M16,21a1,1,0,0,0,1-1V15a1,1,0,0,0-2,0v5A1,1,0,0,0,16,21Z" style="fill:#6f7a7b"/></g></svg>