<?xml version="1.0" encoding="UTF-8"?><svg xmlns="http://www.w3.org/2000/svg" viewBox="0 0 24 24"><g id="a"/><g id="b"/><g id="c"/><g id="d"/><g id="e"/><g id="f"/><g id="g"/><g id="h"/><g id="i"/><g id="j"/><g id="k"/><g id="l"/><g id="m"/><g id="n"/><g id="o"/><g id="p"/><g id="q"/><g id="r"/><g id="s"><path d="M18,6.25h-3.75l2.2-1.65c.33-.25,.4-.72,.15-1.05-.25-.33-.72-.4-1.05-.15l-3.55,2.66-3.55-2.66c-.33-.25-.8-.18-1.05,.15-.25,.33-.18,.8,.15,1.05l2.2,1.65h-3.75c-2.07,0-3.75,1.68-3.75,3.75v6c0,2.07,1.68,3.75,3.75,3.75h12c2.07,0,3.75-1.68,3.75-3.75v-6c0-2.07-1.68-3.75-3.75-3.75Zm-2.25,10.75c0,.41-.34,.75-.75,.75s-.75-.34-.75-.75V9c0-.41,.34-.75,.75-.75s.75,.34,.75,.75v8Zm2.27-.25c-.41,0-.75-.34-.75-.75s.33-.75,.75-.75h0c.42,0,.75,.34,.75,.75s-.33,.75-.75,.75Zm0-3c-.41,0-.75-.34-.75-.75s.33-.75,.75-.75h0c.42,0,.75,.34,.75,.75s-.33,.75-.75,.75Zm0-3c-.41,0-.75-.34-.75-.75s.33-.75,.75-.75h0c.42,0,.75,.34,.75,.75s-.33,.75-.75,.75Z"/></g><g id="t"/><g id="u"/></svg>