<?xml version="1.0" encoding="UTF-8"?><svg xmlns="http://www.w3.org/2000/svg" viewBox="0 0 24 24"><defs><style>.v{fill:#231f20;}</style></defs><g id="a"/><g id="b"/><g id="c"/><g id="d"/><g id="e"/><g id="f"/><g id="g"/><g id="h"/><g id="i"/><g id="j"/><g id="k"/><g id="l"/><g id="m"><g><path class="v" d="M16,10.75c-.41,0-.75-.34-.75-.75V6c0-.69-.56-1.25-1.25-1.25h-4c-.69,0-1.25,.56-1.25,1.25v4c0,.41-.34,.75-.75,.75s-.75-.34-.75-.75V6c0-1.52,1.23-2.75,2.75-2.75h4c1.52,0,2.75,1.23,2.75,2.75v4c0,.41-.34,.75-.75,.75Z"/><path class="v" d="M18.25,7.28v2.72c0,1.24-1.01,2.25-2.25,2.25s-2.25-1.01-2.25-2.25v-2.75h-3.5v2.75c0,1.24-1.01,2.25-2.25,2.25s-2.25-1.01-2.25-2.25v-2.72c-1.95,.13-3.5,1.74-3.5,3.72v5c0,3.17,2.58,5.75,5.75,5.75h8c3.17,0,5.75-2.58,5.75-5.75v-5c0-1.98-1.55-3.59-3.5-3.72Z"/></g></g><g id="n"/><g id="o"/><g id="p"/><g id="q"/><g id="r"/><g id="s"/><g id="t"/><g id="u"/></svg>