<?xml version="1.0" encoding="UTF-8"?><svg xmlns="http://www.w3.org/2000/svg" viewBox="0 0 24 24"><defs><style>.v{fill:#231f20;}</style></defs><g id="a"/><g id="b"/><g id="c"/><g id="d"/><g id="e"><g><path class="v" d="M18.88,8.8c-.1-1.43-1.31-2.55-2.74-2.55H7.86c-1.44,0-2.64,1.12-2.74,2.55l-.56,7.86c-.09,1.31,.37,2.61,1.26,3.58,.9,.96,2.16,1.51,3.48,1.51h5.41c1.31,0,2.58-.55,3.48-1.51,.9-.96,1.35-2.26,1.26-3.58l-.56-7.86Z"/><path class="v" d="M12,3.75c.78,0,1.46,.4,1.87,1h1.65c-.52-1.45-1.89-2.5-3.52-2.5s-3,1.05-3.52,2.5h1.65c.4-.6,1.09-1,1.87-1Z"/></g></g><g id="f"/><g id="g"/><g id="h"/><g id="i"/><g id="j"/><g id="k"/><g id="l"/><g id="m"/><g id="n"/><g id="o"/><g id="p"/><g id="q"/><g id="r"/><g id="s"/><g id="t"/><g id="u"/></svg>