<?xml version="1.0" encoding="UTF-8"?><svg xmlns="http://www.w3.org/2000/svg" viewBox="0 0 24 24"><defs><style>.v{fill:#231f20;}</style></defs><g id="a"/><g id="b"/><g id="c"/><g id="d"/><g id="e"/><g id="f"/><g id="g"/><g id="h"/><g id="i"/><g id="j"/><g id="k"/><g id="l"/><g id="m"/><g id="n"/><g id="o"/><g id="p"/><g id="q"/><g id="r"/><g id="s"/><g id="t"/><g id="u"><path class="v" d="M15,2.25h-6c-3.72,0-6.75,3.03-6.75,6.75v6c0,3.72,3.03,6.75,6.75,6.75h6c3.72,0,6.75-3.03,6.75-6.75v-6c0-3.72-3.03-6.75-6.75-6.75Zm-3,7.5c-2.07,0-3.75-1.68-3.75-3.75,0-.41,.34-.75,.75-.75s.75,.34,.75,.75c0,1.24,1.01,2.25,2.25,2.25s2.25-1.01,2.25-2.25c0-.41,.34-.75,.75-.75s.75,.34,.75,.75c0,2.07-1.68,3.75-3.75,3.75Z"/></g></svg>