<svg xmlns="http://www.w3.org/2000/svg" viewBox="0 0 32 32"><g id="banana"><path d="M27.93,8.09a2,2,0,0,0-1.23-1L25.16,3.21a1.5,1.5,0,0,0-2.24-.69l-2.1,1.4a1.51,1.51,0,0,0-.51,1.93l1.32,2.64A2.08,2.08,0,0,0,20.86,10a12.18,12.18,0,0,1-1.42,5.14c-2.54,4.67-8.39,7.49-15.3,7.39a2.11,2.11,0,0,0-1.52.61A2,2,0,0,0,2,24.58v1.27a2.1,2.1,0,0,0,1.37,2,27.69,27.69,0,0,0,9.41,1.72c7.94,0,14.2-3.84,16.32-8.83C31.15,15.91,29.25,10.75,27.93,8.09Zm-4.4-3.57,1.12,2.8-1.18.39L22.29,5.34Zm3.73,15.4c-2.57,6-12.51,9.9-23.21,6a.09.09,0,0,1,0-.09V24.58l.11-.08c7.65.11,14.19-3.11,17.08-8.43A15,15,0,0,0,22.9,10l3.24-1C27.3,11.33,29,15.86,27.26,19.92Z"/><path d="M25,16.76a9.46,9.46,0,0,1-1.81,3.61,9.35,9.35,0,0,1-3.61,2.71A1,1,0,0,0,20,25a1.09,1.09,0,0,0,.39-.08A11.28,11.28,0,0,0,27,17.24,1,1,0,0,0,26.24,16,1,1,0,0,0,25,16.76Z"/></g></svg>