<svg xmlns="http://www.w3.org/2000/svg" viewBox="0 0 32 32"><g id="bikini"><path d="M5.91,13.77A6.09,6.09,0,0,0,10.16,16,8.52,8.52,0,0,0,16,14.43,8.59,8.59,0,0,0,20.92,16c.31,0,.62,0,.92-.05a6.09,6.09,0,0,0,4.25-2.18A5.7,5.7,0,0,0,26,7.45a7.6,7.6,0,0,0-1.09-3,7.46,7.46,0,0,0-2.31-2.3,1,1,0,1,0-1.07,1.68,5.59,5.59,0,0,1,1.69,1.7,3.47,3.47,0,0,1,.25.46A11.8,11.8,0,0,0,19,6.88a11.24,11.24,0,0,0-3,1.85,11.24,11.24,0,0,0-3-1.85A11.83,11.83,0,0,0,8.59,6a5.2,5.2,0,0,1,.25-.46,5.63,5.63,0,0,1,1.7-1.7A1,1,0,0,0,9.46,2.16a7.53,7.53,0,0,0-2.3,2.3A7.42,7.42,0,0,0,6.08,7.38,5.7,5.7,0,0,0,5.91,13.77Zm9.37-3a1,1,0,0,0,1.44,0,9,9,0,0,1,3-2.07A9.78,9.78,0,0,1,23.94,8c1.17,1.54,1.41,3.41.55,4.56A4.18,4.18,0,0,1,21.62,14a6.58,6.58,0,0,1-5-1.55,1,1,0,0,0-1.3,0,6.58,6.58,0,0,1-5,1.55,4.18,4.18,0,0,1-2.87-1.39c-.86-1.15-.62-3,.55-4.56a9.78,9.78,0,0,1,4.18.72A9,9,0,0,1,15.28,10.8Z"/><path d="M28,21.91c-.3-.89-.6-1.56-.88-2.2a19.48,19.48,0,0,1-.81-2,1,1,0,0,0-.52-.58,1,1,0,0,0-.78,0A25.59,25.59,0,0,1,7,17.06a1,1,0,0,0-.78,0,1,1,0,0,0-.52.58,19.48,19.48,0,0,1-.81,2c-.28.64-.58,1.31-.88,2.2a1,1,0,0,0,1,1.32,7.69,7.69,0,0,1,5.23,1.49,7.75,7.75,0,0,1,2.87,4.49,1,1,0,0,0,1,.79h3.66a1,1,0,0,0,1-.79,7.6,7.6,0,0,1,8.1-6,1,1,0,0,0,1-1.32Zm-7.47,1.21A9.77,9.77,0,0,0,17.07,28H14.93a9.77,9.77,0,0,0-3.41-4.88,9.68,9.68,0,0,0-5.07-1.89c.1-.24.2-.47.31-.71s.35-.79.53-1.25a27.47,27.47,0,0,0,17.42,0c.18.46.36.86.53,1.25s.21.47.31.71A9.68,9.68,0,0,0,20.48,23.12Z"/></g></svg>