<svg xmlns="http://www.w3.org/2000/svg" viewBox="0 0 32 32"><g id="coconut"><path d="M27.77,14.87,25,11.21A3,3,0,0,0,22.54,10H17.29l1.25-4.4A2.22,2.22,0,0,1,20.66,4h1.72a1,1,0,0,0,0-2H20.66a4.22,4.22,0,0,0-4,3.05l-1.41,5H9.44A3,3,0,0,0,7,11.21l-2.8,3.66A6,6,0,0,0,3,18.4a15.22,15.22,0,0,0,1.31,6.52A8.5,8.5,0,0,0,12,30h8.09a8.42,8.42,0,0,0,7.62-5.09A15.14,15.14,0,0,0,29,18.4,6,6,0,0,0,27.77,14.87ZM8.6,12.43A1.06,1.06,0,0,1,9.44,12h13.1a1.08,1.08,0,0,1,.84.43l2.8,3.66c.08.1.14.21.21.31a1.08,1.08,0,0,0-.19.08,6.14,6.14,0,0,1-3.72,1.24,5.16,5.16,0,0,1-2.72-1A6.67,6.67,0,0,0,16,15.48a6.67,6.67,0,0,0-3.77,1.25,5.2,5.2,0,0,1-2.73,1,6.24,6.24,0,0,1-3.71-1.24,1.54,1.54,0,0,0-.19-.08l.2-.31ZM25.83,24.16A6.38,6.38,0,0,1,20.07,28H12a6.5,6.5,0,0,1-5.87-3.91A13.2,13.2,0,0,1,5,18.43s0-.06,0-.1a8,8,0,0,0,4.57,1.39,6.92,6.92,0,0,0,3.7-1.29A4.81,4.81,0,0,1,16,17.48a4.81,4.81,0,0,1,2.73.95,6.92,6.92,0,0,0,3.7,1.29h.22A8.21,8.21,0,0,0,27,18.34s0,.06,0,.09A13.31,13.31,0,0,1,25.83,24.16Z"/></g></svg>