<svg xmlns="http://www.w3.org/2000/svg" viewBox="0 0 32 32"><g id="djembe"><path d="M27,6H26V4.36A2.36,2.36,0,0,0,23.64,2H8.36A2.36,2.36,0,0,0,6,4.36V6H5A1,1,0,0,0,5,8H6v.6a14.25,14.25,0,0,0,4.85,10.74L8.26,28H7a1,1,0,0,0,0,2H25a1,1,0,0,0,0-2H23.74l-2.59-8.66A14.25,14.25,0,0,0,26,8.6V8h1a1,1,0,0,0,0-2ZM8,4.36A.36.36,0,0,1,8.36,4H23.64a.36.36,0,0,1,.36.36V6H8ZM8.49,12h2.35A10.23,10.23,0,0,0,11,15.22a10,10,0,0,0,.85,2.32A12.33,12.33,0,0,1,8.49,12Zm10.66,0a8.15,8.15,0,0,1-1.64,6H17V12Zm-6.41,8h6.52l1.5,5H11.24ZM15,18h-.51a8.15,8.15,0,0,1-1.64-6H15ZM10.34,28l.3-1H21.36l.3,1Zm9.79-10.46A10,10,0,0,0,21,15.22,10.23,10.23,0,0,0,21.16,12h2.35A12.33,12.33,0,0,1,20.13,17.54ZM24,8.6a13,13,0,0,1-.08,1.4H8.08A13,13,0,0,1,8,8.6V8H24Z"/></g></svg>