<svg xmlns="http://www.w3.org/2000/svg" viewBox="0 0 32 32"><g id="fish"><path d="M29.4,14.63a14.12,14.12,0,0,0-4.52-3.35,7.51,7.51,0,0,0-4.47-3.94,8,8,0,0,0-4.58,0,1,1,0,0,0-.71,1v2.25a18.44,18.44,0,0,0-6.57,3.37,4.92,4.92,0,0,0-1-1.36A5.69,5.69,0,0,0,3,11a1,1,0,0,0-.86.78,6.85,6.85,0,0,0,0,2.92,6.73,6.73,0,0,0,1,2.27,6.73,6.73,0,0,0-1,2.27,6.85,6.85,0,0,0,0,2.92A1,1,0,0,0,3,23c.14,0,.35,0,.61,0a5.52,5.52,0,0,0,3.94-1.56,5.23,5.23,0,0,0,1.21-1.91c.39.18.84.38,1.33.58V23a1,1,0,0,0,.54.89A10.65,10.65,0,0,0,15.36,25L16,25a9.84,9.84,0,0,0,6.76-3.34.13.13,0,0,0,0-.05,15.3,15.3,0,0,0,3.82-1.38A16.12,16.12,0,0,0,29,18.71a2.89,2.89,0,0,0,1.11-2A2.67,2.67,0,0,0,29.4,14.63ZM17.12,9.09a5.83,5.83,0,0,1,2.7.16,5.2,5.2,0,0,1,1.76,1,14.18,14.18,0,0,0-4.46-.07ZM4,21a4.91,4.91,0,0,1,.1-1.28,4.76,4.76,0,0,1,1-2.05,1,1,0,0,0,0-1.3,4.76,4.76,0,0,1-1-2.05A4.91,4.91,0,0,1,4,13a3.33,3.33,0,0,1,3.1,2.83v2.27a3.43,3.43,0,0,1-1,1.9A3.42,3.42,0,0,1,4,21ZM9.11,16c4.35-3.77,9.78-5,14.29-3.25l.07,0a5,5,0,0,0-1.38,1.76,5.46,5.46,0,0,0,.4,5c-5.53,1.27-11-1-13.38-2.13ZM15.89,23a8.45,8.45,0,0,1-3.78-.63V20.83a23,23,0,0,0,7,1.16h.15A7.66,7.66,0,0,1,15.89,23Zm12.22-6.45a.88.88,0,0,1-.34.6,15.26,15.26,0,0,1-2.06,1.31,13.39,13.39,0,0,1-1.23.56,3.58,3.58,0,0,1-.57-3.59,3.29,3.29,0,0,1,1.53-1.51l0,0A13.05,13.05,0,0,1,27.92,16,.73.73,0,0,1,28.11,16.53Z"/></g></svg>