<svg xmlns="http://www.w3.org/2000/svg" viewBox="0 0 32 32"><g id="flippers"><path d="M26,18.85c-.5-3.38-1.16-6.78-1.94-10.08l0,0a6,6,0,0,0,0-.74c0-3.31-2.24-6-5-6a4.41,4.41,0,0,0-2.86,1.09A4.39,4.39,0,0,0,13.37,2c-2.76,0-5,2.69-5,6a5.85,5.85,0,0,0,0,.73h0A87.29,87.29,0,0,0,6.3,18.86C4.79,29.35,6.36,29.77,7.11,30a1.53,1.53,0,0,0,.36,0c.74,0,1.26-.63,1.66-1.1S9.92,28,10.25,28s.49.27.85.69a4.37,4.37,0,0,0,1.19,1,1.29,1.29,0,0,0,.53.24,1.43,1.43,0,0,0,.5,0h.06l.08,0h0a1,1,0,0,0,.65-.34,4.43,4.43,0,0,0,.71-.73c.36-.44.78-.93,1.13-.91s.48.27.85.69A3,3,0,0,0,19.05,30h0a2.92,2.92,0,0,0,2.19-1.33c.34-.41.56-.66.8-.67s.82.49,1.19.92A2.46,2.46,0,0,0,25,30a1.43,1.43,0,0,0,.39-.06C26.22,29.71,27.54,29.33,26,18.85ZM19.07,4c1.66,0,3,1.79,3,4s-1.34,4-3,4-3-1.79-3-4S17.42,4,19.07,4Zm-5.7,0A2.46,2.46,0,0,1,15,4.62,6.82,6.82,0,0,0,14.07,8c0,.25,0,.49,0,.73h0c-.29,1.07-.56,2.16-.81,3.25-1.62-.05-2.93-1.81-2.93-4S11.71,4,13.37,4Zm-3,22a3.24,3.24,0,0,0-2.6,1.45,38.18,38.18,0,0,1,.54-8.31c.35-2.4.81-4.79,1.37-7.15a4.74,4.74,0,0,0,3.22,2c-.33,1.62-.62,3.25-.86,4.89a48,48,0,0,0-.63,7.43A2.43,2.43,0,0,0,10.34,26Zm14.33,1.48A3.42,3.42,0,0,0,21.92,26a3.14,3.14,0,0,0-2.17,1.39c-.31.37-.52.61-.69.61h0c-.17,0-.4-.25-.73-.63A3.22,3.22,0,0,0,16,26a3.22,3.22,0,0,0-2.59,1.45A37.51,37.51,0,0,1,14,19.14c.35-2.4.81-4.79,1.36-7.15a4.67,4.67,0,0,0,3.72,2,4.68,4.68,0,0,0,3.65-1.9c.49,2.33.94,4.68,1.29,7A40.14,40.14,0,0,1,24.67,27.48Z"/><path d="M17.47,20.47a4.36,4.36,0,0,1,.51-2,1,1,0,0,0-1.76-.94,6.25,6.25,0,0,0,0,5.94A1,1,0,0,0,18,22.53,4.44,4.44,0,0,1,17.47,20.47Z"/><path d="M20.58,17.12a1,1,0,0,0-.41,1.35,4.39,4.39,0,0,1,.51,2,4.24,4.24,0,0,1-.51,2.06,1,1,0,0,0,.41,1.35,1,1,0,0,0,.47.12,1,1,0,0,0,.89-.53,6.33,6.33,0,0,0,0-5.94A1,1,0,0,0,20.58,17.12Z"/></g></svg>