<svg xmlns="http://www.w3.org/2000/svg" viewBox="0 0 32 32"><g id="leaf"><path d="M30,5.94a1,1,0,0,0-.43-.76,1,1,0,0,0-.87-.13,35.12,35.12,0,0,1-5,1.21c-.85.14-1.57.23-2.2.3-1.72.21-3,.36-4,1.37a5.51,5.51,0,0,0-1.39,4.14,5,5,0,0,1-2.16-1.76A5.9,5.9,0,0,1,13,7.75a1,1,0,1,0-2,.18,7.94,7.94,0,0,0,1.15,3.44c1.22,2,3.62,2.85,4.88,3.23a9.79,9.79,0,0,0,2,.85,8.76,8.76,0,0,0,2.54.39A7.84,7.84,0,0,0,24,15.48a8,8,0,0,0,3.16-1.92,9.1,9.1,0,0,0,2.2-3.36h0a10.65,10.65,0,0,0,.54-2A9.62,9.62,0,0,0,30,5.94ZM27.9,7.84a8.08,8.08,0,0,1-.44,1.64,6.93,6.93,0,0,1-1.71,2.63,6,6,0,0,1-2.39,1.46,6.15,6.15,0,0,1-3.7,0l-.47-.16,4.41-2.8a1,1,0,0,0,.32-1.37,1,1,0,0,0-1.38-.32l-4.48,2.83a3.45,3.45,0,0,1,.79-2.36c.52-.52,1.21-.62,2.84-.81.65-.08,1.4-.17,2.28-.32a35.42,35.42,0,0,0,4-.88Z"/><path d="M18.26,22.07a35.93,35.93,0,0,1-4.41-2.7c-.7-.5-1.27-.95-1.77-1.34C10.72,17,9.73,16.18,8.29,16.17a5.64,5.64,0,0,0-3.92,1.95,5.18,5.18,0,0,1-.28-2.78A5.88,5.88,0,0,1,5.3,12.92a1,1,0,1,0-1.54-1.27,7.75,7.75,0,0,0-1.62,3.24c-.52,2.25.55,4.58,1.17,5.74a10.24,10.24,0,0,0,.81,2,8,8,0,0,0,7,4.36h.21a9,9,0,0,0,3.72-.83h0a10.36,10.36,0,0,0,3.47-2.54,1,1,0,0,0-.29-1.56Zm-2.52,1.42a8.46,8.46,0,0,1-1.47.85A6.52,6.52,0,0,1,11.2,25a6.07,6.07,0,0,1-2.72-.66,6.13,6.13,0,0,1-2.6-2.65,4.28,4.28,0,0,1-.2-.44l5.08,1.15.22,0a1,1,0,0,0,.22-2L6,19.28a3.55,3.55,0,0,1,2.23-1.11c.73,0,1.28.42,2.58,1.43.51.41,1.11.87,1.83,1.4a37.82,37.82,0,0,0,3.45,2.19Z"/></g></svg>