<svg xmlns="http://www.w3.org/2000/svg" viewBox="0 0 32 32"><g id="palm_tree" data-name="palm tree"><path d="M28.8,10.4,27.6,8.8a7,7,0,0,0-3.29-2.4L26.4,4.94a1,1,0,0,0,.42-1,1,1,0,0,0-.68-.8l-1.9-.62a7,7,0,0,0-6.19.91A7.14,7.14,0,0,0,16,5.72,7.14,7.14,0,0,0,14,3.46a7,7,0,0,0-6.19-.91l-1.9.62a1,1,0,0,0-.68.8,1,1,0,0,0,.42,1L7.69,6.4A7,7,0,0,0,4.4,8.8L3.2,10.4a1,1,0,0,0-.09,1A1,1,0,0,0,4,12H8a7.06,7.06,0,0,0-1.72,5.65l.28,2a1,1,0,0,0,.68.8.85.85,0,0,0,.31.06,1,1,0,0,0,.71-.3L13,15.41V28H11a1,1,0,0,0,0,2H21a1,1,0,0,0,0-2H19V15.41l4.78,4.78a1,1,0,0,0,.71.3.85.85,0,0,0,.31-.06,1,1,0,0,0,.68-.8l.28-2A7.06,7.06,0,0,0,24,12h4a1,1,0,0,0,.89-.55A1,1,0,0,0,28.8,10.4ZM19.19,5.1a5.06,5.06,0,0,1,2.88-.9,4.88,4.88,0,0,1,1.55.25L17.06,9A5.06,5.06,0,0,1,19.19,5.1Zm-6.38,0A5.06,5.06,0,0,1,14.94,9L8.38,4.45A5,5,0,0,1,12.81,5.1ZM10,8l2.86,2H6A5,5,0,0,1,10,8Zm-.33,5.12A5,5,0,0,1,11.35,12h2.24L8.22,17.36A5,5,0,0,1,9.64,13.12ZM15,21h2v2H15Zm2-2H15V17h2Zm-2,9V25h2v3Zm2-13H15V13.41l1-1,1,1Zm5.36-1.88a5,5,0,0,1,1.42,4.24L18.41,12h2.24A5,5,0,0,1,22.36,13.12ZM19.17,10,22,8a5,5,0,0,1,4,2Z"/></g></svg>