<svg xmlns="http://www.w3.org/2000/svg" viewBox="0 0 32 32"><g id="palm_leaf" data-name="palm leaf"><path d="M29.88,12.53A1,1,0,0,0,28.8,12l-3.31.66L26,11.32a1,1,0,0,0-.26-1.05,1,1,0,0,0-1.06-.2L21,11.52V8a1,1,0,0,0-.47-.85,1,1,0,0,0-1,0l-1,.51-1.59-4a1,1,0,0,0-1.86,0l-1.59,4-1-.51A1,1,0,0,0,11,8v3.52L7.37,10.07a1,1,0,0,0-1.06.2,1,1,0,0,0-.26,1.05l.46,1.36L3.2,12a1,1,0,0,0-.91,1.69l3.14,3.13-2,1.33a1,1,0,0,0-.43,1,1,1,0,0,0,.82.78l4.08.68L6.29,22.29A1,1,0,0,0,6.68,24a9.06,9.06,0,0,0,5.64,0A9.13,9.13,0,0,0,15,22.5V28a1,1,0,0,0,2,0V22.48A8.83,8.83,0,0,0,19.68,24a9.06,9.06,0,0,0,5.64,0,1,1,0,0,0,.65-.72,1,1,0,0,0-.26-.94l-1.63-1.62L28.16,20a1,1,0,0,0,.82-.78,1,1,0,0,0-.43-1l-2-1.33,3.14-3.13A1,1,0,0,0,29.88,12.53Zm-5.43,5.3.89.6-3.5.58a1,1,0,0,0-.55,1.7L23,22.39a6.84,6.84,0,0,1-2.65-.34A7,7,0,0,1,17,19.67V18a1,1,0,0,0-2,0v1.66a7,7,0,0,1-3.32,2.39A6.8,6.8,0,0,1,9,22.39l1.68-1.68a1,1,0,0,0-.55-1.7l-3.5-.58.89-.6A1,1,0,0,0,8,17.1a1,1,0,0,0-.29-.81L6,14.63,7.8,15A1,1,0,0,0,9,13.68l-.32-.95,3,1.2A1,1,0,0,0,13,13V9.62l.55.27a1,1,0,0,0,.81,0,1,1,0,0,0,.57-.56L16,6.69l1.07,2.68a1,1,0,0,0,.57.56,1,1,0,0,0,.81,0L19,9.62V13a1,1,0,0,0,1.37.93l3-1.2-.32.95A1,1,0,0,0,24.2,15L26,14.63l-1.67,1.66a1,1,0,0,0-.29.81A1,1,0,0,0,24.45,17.83Z"/></g></svg>