<svg xmlns="http://www.w3.org/2000/svg" viewBox="0 0 32 32"><g id="sand_castle" data-name="sand castle"><path d="M29,28H27.92L27,16.92A1,1,0,0,0,26,16h-.5L25,9.92A1,1,0,0,0,24,9H21a1,1,0,0,0-1,1v1H19V10a1,1,0,0,0-1-1H17V7.62l3.45-1.73a1,1,0,0,0,0-1.78l-4-2A1,1,0,0,0,15,3V9H14a1,1,0,0,0-1,1v1H12V10a1,1,0,0,0-1-1H8a1,1,0,0,0-1,.92L6.5,16H6a1,1,0,0,0-1,.92L4.08,28H3a1,1,0,0,0,0,2H29a1,1,0,0,0,0-2ZM17,4.62l.76.38L17,5.38ZM8.92,11H10v1a1,1,0,0,0,1,1h3a1,1,0,0,0,1-1V11h2v1a1,1,0,0,0,1,1h3a1,1,0,0,0,1-1V11h1.08l.42,5H22a1,1,0,0,0-1,1v2H19V17a1,1,0,0,0-1-1H14a1,1,0,0,0-1,1v2H11V17a1,1,0,0,0-1-1H8.5ZM18,28H14V26.43A2.25,2.25,0,0,1,16,24a2.25,2.25,0,0,1,2,2.43Zm2,0V26.43A4.24,4.24,0,0,0,16,22a4.24,4.24,0,0,0-4,4.43V28H6.09l.83-10H9v2a1,1,0,0,0,1,1h4a1,1,0,0,0,1-1V18h2v2a1,1,0,0,0,1,1h4a1,1,0,0,0,1-1V18h2.08l.83,10Z"/></g></svg>