<svg xmlns="http://www.w3.org/2000/svg" viewBox="0 0 32 32"><g id="starfish"><path d="M29.92,12a3,3,0,0,0-2.44-2l-6-.86-2.7-5.44A3,3,0,0,0,16,2h0A3,3,0,0,0,13.31,3.7L10.62,9.17l-6,.89a3,3,0,0,0-1.67,5.16l4.37,4.23-1,6a3,3,0,0,0,1.21,2.95,3,3,0,0,0,3.19.22l5.39-2.85,5.4,2.82a3,3,0,0,0,4.38-3.2l-1-6,4.36-4.26A3,3,0,0,0,29.92,12ZM23,18.33a1,1,0,0,0-.29.88l1.11,6.37-3.63-5.12a1,1,0,0,0-1.39-.24,1,1,0,0,0-.24,1.4l3.6,5.08-5.67-2.95a1,1,0,0,0-.93,0l-5.48,2.89,3.37-4.88a1,1,0,1,0-1.64-1.13l-3.6,5.2s0,0,0,0l1.1-6.52a1,1,0,0,0-.29-.88L4.37,13.84l6,1.72a1.35,1.35,0,0,0,.28,0,1,1,0,0,0,1-.73,1,1,0,0,0-.69-1.23L5.2,12l6.23-.92a1,1,0,0,0,.76-.55L15,4.8V11a1,1,0,0,0,2,0V4.69l2.88,5.8a1,1,0,0,0,.76.55l6.36.9-5,1.63a1,1,0,0,0-.64,1.27,1,1,0,0,0,.95.68.84.84,0,0,0,.31,0l5-1.63Z"/><path d="M16,14a3,3,0,1,0,3,3A3,3,0,0,0,16,14Zm0,4a1,1,0,1,1,1-1A1,1,0,0,1,16,18Z"/></g></svg>