<svg xmlns="http://www.w3.org/2000/svg" viewBox="0 0 32 32"><g id="sun"><path d="M16,7a9,9,0,1,0,9,9A9,9,0,0,0,16,7Zm0,16a7,7,0,1,1,7-7A7,7,0,0,1,16,23Z"/><path d="M16,6a1,1,0,0,0,1-1V3a1,1,0,0,0-2,0V5A1,1,0,0,0,16,6Z"/><path d="M29,15H27a1,1,0,0,0,0,2h2a1,1,0,0,0,0-2Z"/><path d="M6,16a1,1,0,0,0-1-1H3a1,1,0,0,0,0,2H5A1,1,0,0,0,6,16Z"/><path d="M16,26a1,1,0,0,0-1,1v2a1,1,0,0,0,2,0V27A1,1,0,0,0,16,26Z"/><path d="M24.71,23.29a1,1,0,0,0-1.42,1.42l2,2a1,1,0,0,0,1.42,0,1,1,0,0,0,0-1.42Z"/><path d="M24,9a1,1,0,0,0,.71-.29l2-2a1,1,0,1,0-1.42-1.42l-2,2a1,1,0,0,0,0,1.42A1,1,0,0,0,24,9Z"/><path d="M7.29,8.71a1,1,0,0,0,1.42,0,1,1,0,0,0,0-1.42l-2-2A1,1,0,0,0,5.29,6.71Z"/><path d="M7.29,23.29l-2,2a1,1,0,0,0,0,1.42,1,1,0,0,0,1.42,0l2-2a1,1,0,0,0-1.42-1.42Z"/></g></svg>