<svg xmlns="http://www.w3.org/2000/svg" viewBox="0 0 32 32"><g id="sunglasses"><path d="M29.45,17.11l-1.78-.89A5,5,0,0,0,28,15.13a3.65,3.65,0,0,0-.82-3A3.32,3.32,0,0,0,24.6,11H20.4a3.3,3.3,0,0,0-2.35,1H14a3.3,3.3,0,0,0-2.35-1H7.4a3.32,3.32,0,0,0-2.53,1.18,3.65,3.65,0,0,0-.82,3,5,5,0,0,0,.28,1.09l-1.78.89a1,1,0,0,0-.44,1.34A1,1,0,0,0,3,19a.93.93,0,0,0,.45-.11L5.3,18a5.41,5.41,0,0,0,4.2,2A5.59,5.59,0,0,0,15,15.13a3.89,3.89,0,0,0,0-1.13h2.12a3.89,3.89,0,0,0,0,1.13A5.59,5.59,0,0,0,22.5,20a5.41,5.41,0,0,0,4.2-2l1.85.92A.93.93,0,0,0,29,19a1,1,0,0,0,.89-.55A1,1,0,0,0,29.45,17.11ZM13,14.82A3.61,3.61,0,0,1,9.5,18,3.61,3.61,0,0,1,6,14.82a1.65,1.65,0,0,1,.37-1.34,1.3,1.3,0,0,1,1-.48h4.2a1.3,1.3,0,0,1,1,.48A1.65,1.65,0,0,1,13,14.82Zm13,0a3.49,3.49,0,0,1-7,0,1.65,1.65,0,0,1,.37-1.34,1.3,1.3,0,0,1,1-.48h4.2a1.3,1.3,0,0,1,1,.48A1.65,1.65,0,0,1,26,14.82Z"/></g></svg>