<svg xmlns="http://www.w3.org/2000/svg" viewBox="0 0 32 32"><g id="sunset"><path d="M16,7a1,1,0,0,0,1-1V3a1,1,0,0,0-2,0V6A1,1,0,0,0,16,7Z"/><path d="M24,11a1,1,0,0,0,.71-.29l2-2a1,1,0,1,0-1.42-1.42l-2,2a1,1,0,0,0,0,1.42A1,1,0,0,0,24,11Z"/><path d="M7.29,10.71a1,1,0,0,0,1.42,0,1,1,0,0,0,0-1.42l-2-2A1,1,0,1,0,5.29,8.71Z"/><path d="M25,16a1,1,0,0,0,1,1h2a1,1,0,0,0,0-2H26A1,1,0,0,0,25,16Z"/><path d="M4,17H6a1,1,0,0,0,0-2H4a1,1,0,0,0,0,2Z"/><path d="M29,20H23.39A7.88,7.88,0,0,0,24,17,8,8,0,0,0,8,17a7.88,7.88,0,0,0,.61,3H3a1,1,0,0,0,0,2H29a1,1,0,0,0,0-2ZM10,17a6,6,0,0,1,12,0,5.93,5.93,0,0,1-.82,3H10.82A5.93,5.93,0,0,1,10,17Z"/><path d="M25,24H7a1,1,0,0,0,0,2H25a1,1,0,0,0,0-2Z"/><path d="M22,28H10a1,1,0,0,0,0,2H22a1,1,0,0,0,0-2Z"/></g></svg>