<svg xmlns="http://www.w3.org/2000/svg" viewBox="0 0 32 32"><g id="toucan"><path d="M16,8a1,1,0,0,0,0-2h0a1,1,0,1,0,0,2Z"/><path d="M29,21H19.57A3.59,3.59,0,0,0,20,19.31V11h9a1,1,0,0,0,1-1,8,8,0,0,0-8-8H16.23A8.24,8.24,0,0,0,8,10.23v2.85A7,7,0,0,0,2,20v2a1,1,0,0,0,1,1H8v2a5,5,0,0,0,5,5,1,1,0,0,0,1-1V27.9A5,5,0,0,0,18,23h6.59l2.7,2.71a1,1,0,0,0,1.42,0,1,1,0,0,0,0-1.42L27.41,23H29a1,1,0,0,0,0-2ZM13,21h0a4.92,4.92,0,0,0,1-3,5,5,0,0,0-4-4.9V10.23a6.13,6.13,0,0,1,.05-.74,12.44,12.44,0,0,0,3.54,2.42A12.61,12.61,0,0,0,18,13v6.34A1.69,1.69,0,0,1,16.31,21ZM27.92,9H20V4h2A6,6,0,0,1,27.92,9ZM16.23,4H18v7a10.34,10.34,0,0,1-3.59-.88,10.49,10.49,0,0,1-3.65-2.74l0,0A6.24,6.24,0,0,1,16.23,4ZM4,20a5,5,0,0,1,5-5,3,3,0,0,1,0,6H4Zm8,7.83A3,3,0,0,1,10,25V23h2v4.83Zm2-2V23h2A3,3,0,0,1,14,25.83Z"/></g></svg>