<svg xmlns="http://www.w3.org/2000/svg" viewBox="0 0 32 32"><g id="turtle"><path d="M27.29,10.76,25.54,8.87a3.12,3.12,0,0,0-3.67-.66l-1,.48A8.23,8.23,0,0,0,20,8.07S20,8,20,8V6a4,4,0,0,0-8,0V8s0,.05,0,.07a8.23,8.23,0,0,0-.92.62l-1-.48a3.12,3.12,0,0,0-3.67.66L4.71,10.76a3.2,3.2,0,0,0-.81,2.78A3.26,3.26,0,0,0,5.67,15.9a1,1,0,0,0,1.17-.22L8,14.41A5.83,5.83,0,0,0,8,15v3a7.91,7.91,0,0,0,1.08,4,6.1,6.1,0,0,0,2,7.84,1,1,0,0,0,.56.17,1.12,1.12,0,0,0,.31-.05,1,1,0,0,0,.63-.62l1.26-3.64a7.71,7.71,0,0,0,1.18.24V26a1,1,0,0,0,2,0v-.07a7.71,7.71,0,0,0,1.18-.24l1.26,3.64a1,1,0,0,0,.63.62,1.12,1.12,0,0,0,.31.05,1,1,0,0,0,.56-.17,6.1,6.1,0,0,0,2-7.84A7.91,7.91,0,0,0,24,18V15a5.83,5.83,0,0,0,0-.59l1.19,1.27a1,1,0,0,0,1.17.22,3.26,3.26,0,0,0,1.77-2.36A3.2,3.2,0,0,0,27.29,10.76ZM16,24a5.93,5.93,0,0,1-3.53-1.16l2-2.84h3l2.09,2.79A5.9,5.9,0,0,1,16,24ZM19,9.82,17.48,12h-3l-1.18-1.61-.41-.53A5.91,5.91,0,0,1,16,9,6,6,0,0,1,19,9.82ZM22,17v1a5.91,5.91,0,0,1-1,3.32l-2.12-2.83L19.62,17Zm-7.88-1,1-2h1.76l1,2-1,2H15.12Zm-1-2.49L12.38,15H10a6,6,0,0,1,1.39-3.84ZM12.38,17l.75,1.5-2.08,2.88A6,6,0,0,1,10,18V17Zm7.24-2-.75-1.5,1.69-2.4A6,6,0,0,1,22,15ZM14,7V6a2.19,2.19,0,0,1,.11-.67A2,2,0,0,1,18,6V7ZM6,13.62a1.29,1.29,0,0,1-.16-.44,1.23,1.23,0,0,1,.3-1.06l1.75-1.88a1.11,1.11,0,0,1,.81-.35,1.16,1.16,0,0,1,.51.12l.11.05Zm5.15,13.59a4.11,4.11,0,0,1-.66-3.4A7.82,7.82,0,0,0,12,24.9Zm9.64,0L20,24.9a8,8,0,0,0,1.33-1l.14-.07A4.11,4.11,0,0,1,20.82,27.21Zm5.31-14a1.29,1.29,0,0,1-.16.44l-3.32-3.56.11-.05a1.11,1.11,0,0,1,1.32.23l1.75,1.88A1.23,1.23,0,0,1,26.13,13.18Z"/></g></svg>