<svg xmlns="http://www.w3.org/2000/svg" viewBox="0 0 32 32"><g id="ukulele"><path d="M28,3.94,26.73,2.79A3.06,3.06,0,0,0,22.42,3L21.2,4.35a1,1,0,0,0-.22.4l-.52,1.86-4.38,4.84a.63.63,0,0,0-.12-.11,4.58,4.58,0,0,0-6.91,2.95,1.8,1.8,0,0,1-1.47,1.36A6.58,6.58,0,0,0,3.3,18.36c-2,3-.6,7.15,1.93,9.44A8.88,8.88,0,0,0,11,30.09a5.85,5.85,0,0,0,3.8-1.3,6.58,6.58,0,0,0,2.29-4.53,1.77,1.77,0,0,1,1.2-1.59,4.62,4.62,0,0,0,2.51-2,4.69,4.69,0,0,0-.25-5.23l-.12-.1,4.38-4.84,1.8-.7A1,1,0,0,0,27,9.59l1.22-1.35A3,3,0,0,0,28,3.94ZM19.1,19.67a2.6,2.6,0,0,1-1.42,1.09,3.83,3.83,0,0,0-2.59,3.31,4.61,4.61,0,0,1-1.56,3.18c-2.12,1.74-5.41.47-7-.94S3.43,21.76,5,19.48a4.6,4.6,0,0,1,3-1.87,3.8,3.8,0,0,0,3-2.9A2.61,2.61,0,0,1,12,13.19,2.64,2.64,0,0,1,14.72,13l-3.66,4a3.39,3.39,0,0,0-2.4,3.42,3.41,3.41,0,0,0,3.41,3.25,3.37,3.37,0,0,0,3.34-2.73l3.66-4A2.65,2.65,0,0,1,19.1,19.67Zm-6,1.52a1.42,1.42,0,0,1-2.47-.88,1.46,1.46,0,0,1,.37-1,1.41,1.41,0,0,1,1-.47h.07a1.42,1.42,0,0,1,1,.37,1.4,1.4,0,0,1,.46,1A1.38,1.38,0,0,1,13.12,21.19ZM15,18.44a3.15,3.15,0,0,0-.59-.73,3.37,3.37,0,0,0-.79-.52l7.85-8.67,1.39,1.26ZM26.73,6.9,25.66,8.08l-1.22.47-2-1.77.35-1.26,1.07-1.18a1.05,1.05,0,0,1,1.48-.07l1.27,1.15a1.07,1.07,0,0,1,.34.73A1.05,1.05,0,0,1,26.73,6.9Z"/><path d="M8.24,23A1,1,0,0,0,6.82,23a1,1,0,0,0,.07,1.41l1.44,1.3A1,1,0,0,0,9,26a1,1,0,0,0,.67-1.74Z"/></g></svg>