<svg xmlns="http://www.w3.org/2000/svg" viewBox="0 0 32 32"><g id="umbrella"><path d="M29.71,27.33a1,1,0,0,0-1.41,0,2.6,2.6,0,0,1-1.44.72,2.78,2.78,0,0,1-2.16-.72,4.59,4.59,0,0,0-2.14-1.18c-.69-.7-1.15-1.2-1.48-1.57a7.35,7.35,0,0,0-1.53-1.41A6.78,6.78,0,0,0,17,22.1V18h1.26A2.73,2.73,0,0,0,20,17.36a2.73,2.73,0,0,0,1.74.64h3.52A2.74,2.74,0,0,0,28,15.26V14A12,12,0,0,0,4,14v1.26A2.74,2.74,0,0,0,6.74,18h3.52A2.73,2.73,0,0,0,12,17.36a2.73,2.73,0,0,0,1.74.64H15v4.1a6.78,6.78,0,0,0-2.55,1.06,7.35,7.35,0,0,0-1.53,1.41c-.34.37-.8.87-1.49,1.58A5.22,5.22,0,0,0,7.3,27.32,2.6,2.6,0,0,1,5.86,28a2.72,2.72,0,0,1-2.17-.74,1,1,0,0,0-1.42.05,1,1,0,0,0,0,1.41A4.78,4.78,0,0,0,6.14,30a4.58,4.58,0,0,0,2.55-1.26A2.81,2.81,0,0,1,10.86,28a2.6,2.6,0,0,1,1.44.73l.1.08a6,6,0,0,0,7.2,0l.09-.07A2.81,2.81,0,0,1,21.86,28a2.61,2.61,0,0,1,1.45.74,4.85,4.85,0,0,0,3.22,1.31,4.42,4.42,0,0,0,.61-.05,4.59,4.59,0,0,0,2.56-1.27A1,1,0,0,0,29.71,27.33ZM16,4.58a14.54,14.54,0,0,1,2.06,3.77A14.84,14.84,0,0,1,19,13H13a14.84,14.84,0,0,1,.92-4.65A14.54,14.54,0,0,1,16,4.58ZM26,15.26a.74.74,0,0,1-.74.74H21.74a.74.74,0,0,1-.74-.74V15h5ZM26,13H21a16.88,16.88,0,0,0-1-5.35,17.35,17.35,0,0,0-1.75-3.4A10,10,0,0,1,26,13ZM13.81,4.25a17.35,17.35,0,0,0-1.75,3.4A16.88,16.88,0,0,0,11,13h-5A10,10,0,0,1,13.81,4.25ZM10.26,16H6.74A.74.74,0,0,1,6,15.26V15h5v.26A.74.74,0,0,1,10.26,16ZM13,15.26V15h6v.26a.74.74,0,0,1-.74.74H13.74A.74.74,0,0,1,13,15.26Zm5.36,12a4,4,0,0,1-4.71,0,4.54,4.54,0,0,0-1.59-1l.34-.37a5.32,5.32,0,0,1,1.15-1.08A4.44,4.44,0,0,1,16,24a4.44,4.44,0,0,1,2.45.84,5.32,5.32,0,0,1,1.15,1.08l.35.38A5,5,0,0,0,18.36,27.26Z"/></g></svg>