<svg xmlns="http://www.w3.org/2000/svg" viewBox="0 0 32 32"><g id="watermelon"><path d="M30.08,9.89a1,1,0,0,0-1-.89h-6a1,1,0,0,0-1,.89,2.08,2.08,0,0,1-.65,1.34,2.39,2.39,0,0,1-2.81-.07,1,1,0,0,0-1.34.24,1.66,1.66,0,0,1-1.21.6,1.59,1.59,0,0,1-1.19-.6A1,1,0,0,0,14,11a1,1,0,0,0-.81.48,2,2,0,0,1-.65.66,1.86,1.86,0,0,1-1.92,0,1.74,1.74,0,0,1-.61-1.9,1,1,0,0,0-.17-.88,1,1,0,0,0-.8-.4h-6a1,1,0,0,0-1,.89A14.65,14.65,0,0,0,5.68,21.18,14.09,14.09,0,0,0,16.08,26h0A14,14,0,0,0,26,21.7a14.61,14.61,0,0,0,4-8.06h0A14.27,14.27,0,0,0,30.08,9.89ZM9.51,13.82a3.82,3.82,0,0,0,4.09,0,4,4,0,0,0,.58-.43,3.76,3.76,0,0,0,1.9.57,3.48,3.48,0,0,0,2.18-.77,4.3,4.3,0,0,0,4.47-.46A3.85,3.85,0,0,0,23.89,11h1.27a9.79,9.79,0,0,1-2.43,6.85A8.94,8.94,0,0,1,16.08,21a9,9,0,0,1-7-3.61A9.7,9.7,0,0,1,7,11H8A3.63,3.63,0,0,0,9.51,13.82ZM28,13.34a12.75,12.75,0,0,1-3.46,7,12,12,0,0,1-8.5,3.7h0a12.3,12.3,0,0,1-8.9-4.14A12.67,12.67,0,0,1,4,11H5a11.5,11.5,0,0,0,.67,4.34,11.74,11.74,0,0,0,1.8,3.27A11.06,11.06,0,0,0,16.08,23a11,11,0,0,0,8.15-3.83A11.75,11.75,0,0,0,27.16,11h1A13,13,0,0,1,28,13.34Z"/><path d="M12.1,18a1,1,0,1,0,0-2h0a1,1,0,0,0,0,2Z"/><path d="M17.1,17a1,1,0,0,0,0-2h0a1,1,0,0,0,0,2Z"/><path d="M21.1,17a1,1,0,0,0,0-2h0a1,1,0,0,0,0,2Z"/><path d="M16.1,20a1,1,0,0,0,0-2h0a1,1,0,0,0,0,2Z"/></g></svg>