<svg xmlns="http://www.w3.org/2000/svg" viewBox="0 0 32 32"><g id="wave"><path d="M29.34,23A17.77,17.77,0,0,0,24,22a15.26,15.26,0,0,0-4.76.53,12.65,12.65,0,0,1-4.22.47,10.35,10.35,0,0,1-2.66-.48A11.7,11.7,0,0,0,9,22,17.9,17.9,0,0,0,2.67,23a1,1,0,0,0,.66,1.89A15.93,15.93,0,0,1,9,24a9.7,9.7,0,0,1,2.87.44,12.25,12.25,0,0,0,3.09.55l.9,0a15.26,15.26,0,0,0,3.9-.54A13.69,13.69,0,0,1,24,24a16.11,16.11,0,0,1,4.7,1,1,1,0,0,0,1.28-.61A1,1,0,0,0,29.34,23Z"/><path d="M3,18.93l.54,0a7,7,0,0,0,4.08-1.17c1.77-1.23,2.17-2.89,2.56-4.49a7.94,7.94,0,0,1,1.62-3.67c2.16-2.46,6.46-3.37,8.68-1.84a4.68,4.68,0,0,1,1.88,3.36L21.75,11a4,4,0,0,0-3.27.11,4.05,4.05,0,0,0-1.72,2.54,3.67,3.67,0,0,0,.4,2.86,4.21,4.21,0,0,0,3.5,1.7,3.12,3.12,0,0,0,.73-.1,7,7,0,0,1,.74-.12A10.47,10.47,0,0,1,24,17.93h.16a13.15,13.15,0,0,1,2.87.37,9.93,9.93,0,0,1,1.62.54,1,1,0,0,0,1.31-.52A1,1,0,0,0,29.39,17a12.24,12.24,0,0,0-1.91-.64,15.5,15.5,0,0,0-3.27-.43H24A12.17,12.17,0,0,0,21.9,16a8,8,0,0,0-1,.16,1,1,0,0,1-.32.05,2.1,2.1,0,0,1-1.77-.77,1.73,1.73,0,0,1-.14-1.33,2.15,2.15,0,0,1,.81-1.29c.4-.24.92-.12,1.67.1a2.41,2.41,0,0,0,2.52-.24,2.41,2.41,0,0,0,.55-2,6.66,6.66,0,0,0-2.69-4.55c-3-2.09-8.52-1-11.32,2.16a9.69,9.69,0,0,0-2.06,4.51c-.35,1.42-.62,2.53-1.76,3.33a5.34,5.34,0,0,1-3.38.8,1,1,0,1,0-.1,2Z"/><path d="M16.62,11.75a1,1,0,1,0-1.24-1.58,6.75,6.75,0,0,0-2.35,7A1,1,0,0,0,14,18a1.15,1.15,0,0,0,.26,0A1,1,0,0,0,15,16.7a4.65,4.65,0,0,1,1.65-4.95Z"/><path d="M11.13,16a1,1,0,0,0-1.12.86,4.5,4.5,0,0,0,0,1.27,5.53,5.53,0,0,0,2.42,3.68,1,1,0,0,0,1.39-.25,1,1,0,0,0-.25-1.39A3.58,3.58,0,0,1,12,17.82a3,3,0,0,1,0-.73A1,1,0,0,0,11.13,16Z"/><path d="M18.86,20.91a4.48,4.48,0,0,0,.64.05,4.72,4.72,0,0,0,.64-.05A1,1,0,0,0,21,19.79a1,1,0,0,0-1.13-.86,2.17,2.17,0,0,1-.72,0,2.64,2.64,0,0,1-1.45-.73,1,1,0,0,0-1.41,0,1,1,0,0,0,0,1.42A4.7,4.7,0,0,0,18.86,20.91Z"/></g></svg>