<svg xmlns="http://www.w3.org/2000/svg" viewBox="0 0 32 32"><g id="yacht"><path d="M29.71,25.33a1,1,0,0,0-1.41,0,2.6,2.6,0,0,1-1.44.72,2,2,0,0,1-.42,0A12,12,0,0,0,30,20.27a1,1,0,0,0-.16-.88A1,1,0,0,0,29,19H17V5a1,1,0,0,0-2,0V19H3a1,1,0,0,0-.8.39,1,1,0,0,0-.16.88,12.39,12.39,0,0,0,2.17,4.34,11.54,11.54,0,0,0,1.35,1.45,2.87,2.87,0,0,1-1.87-.75,1,1,0,1,0-1.38,1.45A4.86,4.86,0,0,0,6.14,28a4.58,4.58,0,0,0,2.55-1.26A2.74,2.74,0,0,1,10.86,26a2.6,2.6,0,0,1,1.44.73.39.39,0,0,0,.1.08,6,6,0,0,0,7.2,0l.09-.07A2.74,2.74,0,0,1,21.86,26a2.61,2.61,0,0,1,1.45.74,5,5,0,0,0,3.23,1.3,4.22,4.22,0,0,0,.6,0,4.59,4.59,0,0,0,2.56-1.27A1,1,0,0,0,29.71,25.33ZM22.14,24a4.82,4.82,0,0,0-3.78,1.22,4,4,0,0,1-4.71,0A4.59,4.59,0,0,0,11.14,24a4.75,4.75,0,0,0-3.62,1.09,11,11,0,0,1-1.73-1.74A10.37,10.37,0,0,1,4.4,21H27.6a10.37,10.37,0,0,1-1.39,2.39,10.55,10.55,0,0,1-1.73,1.74A4.6,4.6,0,0,0,22.14,24Z"/><path d="M19,18h7a1,1,0,0,0,1-.89,12.83,12.83,0,0,0-2.17-8.68,12.52,12.52,0,0,0-5.43-4.35,1,1,0,0,0-.94.09A1,1,0,0,0,18,5V17A1,1,0,0,0,19,18ZM20,6.62a10.43,10.43,0,0,1,3.18,3A10.73,10.73,0,0,1,25.06,16H20Z"/><path d="M7,18h6a1,1,0,0,0,1-1V8a1,1,0,0,0-.52-.88,1,1,0,0,0-1,0,15,15,0,0,0-4.29,4.29A14.67,14.67,0,0,0,6,16.82a1,1,0,0,0,.21.82A1,1,0,0,0,7,18Zm2.84-5.45A12.37,12.37,0,0,1,12,10v6H8.26A12.68,12.68,0,0,1,9.84,12.55Z"/></g></svg>