<svg xmlns="http://www.w3.org/2000/svg" viewBox="0 0 32 32"><g id="banner"><path d="M16,5a8,8,0,0,0-8,7.28.58.58,0,0,0,0,.18s0,.07,0,.11,0,.28,0,.43a8,8,0,1,0,8-8Zm4.49,4a6,6,0,0,1,1.42,3H20.85a1.87,1.87,0,0,0-1.12-1.7ZM13.72,7.45l.55,1.1a1.11,1.11,0,0,1,0,1.21.67.67,0,0,1-.29.09,2.55,2.55,0,0,0-1.79.73l-.72.73a.51.51,0,0,1-.37.15h-.85A6,6,0,0,1,13.72,7.45Zm2.41,10.28A1.91,1.91,0,0,0,15.82,19a6,6,0,0,1-3.16-1l1.17-.19a2.06,2.06,0,0,0,.68-.25l1.62-1,.35.63Zm1.77,1,.25-.38a1.93,1.93,0,0,0,.12-1.93l-.39-.78a1.93,1.93,0,0,0-1.18-1,2,2,0,0,0-1.54.2l-1.65,1L11,16.24A6,6,0,0,1,10,13.46h1a2.52,2.52,0,0,0,1.79-.74l.72-.72a.53.53,0,0,1,.39-.15,2.56,2.56,0,0,0,1.52-.53,3,3,0,0,0,.61-3.61L15.74,7H16a6,6,0,0,1,2.92.76l-1,1.65a1.84,1.84,0,0,0-.15,1.6,1.8,1.8,0,0,0,1.07,1.09v0A1.87,1.87,0,0,0,20.71,14h1.2A6,6,0,0,1,17.9,18.69Z"/><path d="M26.51,2h-21A2.5,2.5,0,0,0,3,4.49v17A2.5,2.5,0,0,0,5.49,24H12v4H8a1,1,0,0,0,0,2H24a1,1,0,0,0,0-2H20V24h6.51A2.5,2.5,0,0,0,29,21.51v-17A2.5,2.5,0,0,0,26.51,2ZM18,28H14V24h4Zm9-6.49a.49.49,0,0,1-.49.49h-21A.49.49,0,0,1,5,21.51v-17A.49.49,0,0,1,5.49,4h21a.49.49,0,0,1,.49.49Z"/></g></svg>