<svg xmlns="http://www.w3.org/2000/svg" viewBox="0 0 32 32"><g id="battery"><path d="M19.88,11H17V8.94A5.52,5.52,0,0,0,18,9a4.89,4.89,0,0,0,2.86-.87A5.19,5.19,0,0,0,22.92,3a1,1,0,0,0-.71-.78,5.3,5.3,0,0,0-2.37-.15,4.8,4.8,0,0,0-1.24.37A4.83,4.83,0,0,0,16,5.17a5,5,0,0,0-1.78-2.3,5.28,5.28,0,0,0-4.44-.64A1,1,0,0,0,9.09,3a5.28,5.28,0,0,0,1.13,4.34A5.06,5.06,0,0,0,14.05,9,6.22,6.22,0,0,0,15,8.94V11H12.12A2.12,2.12,0,0,0,10,13.12V27.88A2.12,2.12,0,0,0,12.12,30h7.76A2.12,2.12,0,0,0,22,27.88V13.12A2.12,2.12,0,0,0,19.88,11ZM11.72,6A3.07,3.07,0,0,1,11,4a3,3,0,0,1,2.06.49A3.12,3.12,0,0,1,14.35,7,3.12,3.12,0,0,1,11.72,6Zm6.65-1a2.86,2.86,0,0,1,1-.75A3.34,3.34,0,0,1,20.16,4,3.94,3.94,0,0,1,21,4a3.12,3.12,0,0,1-1.29,2.51A3,3,0,0,1,17.65,7,3.07,3.07,0,0,1,18.37,5ZM20,27.88a.12.12,0,0,1-.12.12H12.12a.12.12,0,0,1-.12-.12V13.12a.12.12,0,0,1,.12-.12h7.76a.12.12,0,0,1,.12.12Z"/><path d="M18,15H14a1,1,0,0,0-1,1v9a1,1,0,0,0,1,1h4a1,1,0,0,0,1-1V16A1,1,0,0,0,18,15Zm-1,9H15V17h2Z"/></g></svg>