<svg xmlns="http://www.w3.org/2000/svg" viewBox="0 0 32 32"><g id="earth_day_2" data-name="earth day 2"><path d="M28.2,21l1.63-2.44A1,1,0,0,0,29,17H24.48a9,9,0,1,0-17,0H3a1,1,0,0,0-.83,1.56L3.8,21,2.17,23.45a1,1,0,0,0,0,1A1,1,0,0,0,3,25H7a1,1,0,0,0,1,1H24a1,1,0,0,0,1-1h4a1,1,0,0,0,.88-.53,1,1,0,0,0-.05-1Zm-7-11.67-1,.68-.09-.12A1.94,1.94,0,0,0,18,9.12l-.13-1.86A6.85,6.85,0,0,1,21.2,9.33ZM15.83,7,16,9.25a2,2,0,0,0,.84,1.5,1.93,1.93,0,0,0,1.69.27l.08.12a2,2,0,0,0,1.64.86,2.06,2.06,0,0,0,1.13-.35l.95-.66a7,7,0,0,1-.85,7.39.43.43,0,0,0-.12-.05V17.6a2.07,2.07,0,0,0-1.07-1.78l-.87-.47a2,2,0,0,0-1.64-.15,2.07,2.07,0,0,0-1.23,1.11l-.92,2s-.07.17-.13.34-.08.2-.12.31H11.12a7.2,7.2,0,0,1-.64-.71l1.1-.76a2.72,2.72,0,0,0,1.13-1.76l.21-1.15a.75.75,0,0,1,.33-.49,2.7,2.7,0,0,0,1-1.4A3.33,3.33,0,0,0,12.57,9.1l-1-.54c.14-.1.27-.21.42-.31A6.91,6.91,0,0,1,15.83,7Zm3.63,12H17.53l.9-1.9.9.53v.73A2.2,2.2,0,0,0,19.46,19Zm-9.25-8.92,1.35.74c.63.4.91,1,.8,1.33a.7.7,0,0,1-.27.35A2.7,2.7,0,0,0,11,14.26l-.21,1.15a.76.76,0,0,1-.31.47l-.95.67A7,7,0,0,1,10.21,10.08ZM4.87,23l1-1.44a1,1,0,0,0,0-1.11L4.87,19H8a1,1,0,0,0-1,1v3ZM9,24V21H23v3Zm17.17-2.44,1,1.44H25V20a1,1,0,0,0-1-1h3.13l-1,1.45A1,1,0,0,0,26.17,21.56Z"/></g></svg>