<svg xmlns="http://www.w3.org/2000/svg" viewBox="0 0 32 32"><g id="earth_plant" data-name="earth plant"><path d="M30,16a1,1,0,0,0-1-1H22.31a6.36,6.36,0,0,0-5.25-3.32V8a5.18,5.18,0,0,0,1.81.33,4.76,4.76,0,0,0,2-.44,5.06,5.06,0,0,0,2.9-4.49,1,1,0,0,0-.56-.92,5.06,5.06,0,0,0-5.32.53,4.09,4.09,0,0,0-.82.85V3a1,1,0,1,0-2,0V7a4.24,4.24,0,0,0-.76-.77,4.62,4.62,0,0,0-4.72-.53A1,1,0,0,0,9,6.64a4.61,4.61,0,0,0,2.64,4,4.29,4.29,0,0,0,1.85.41,5,5,0,0,0,1.57-.27v.94A6.41,6.41,0,0,0,9.69,15H3a1,1,0,0,0-1,1A14,14,0,0,0,16,30h0A14,14,0,0,0,30,16ZM19.11,4.62a3,3,0,0,1,2.56-.53,3,3,0,0,1-1.65,2,3,3,0,0,1-1.93.15A3,3,0,0,1,19.11,4.62ZM12.49,8.78a2.6,2.6,0,0,1-1.35-1.49,2.65,2.65,0,0,1,1.94.51A2.52,2.52,0,0,1,13.9,9,2.44,2.44,0,0,1,12.49,8.78ZM4.05,17H9a17.31,17.31,0,0,0,1,5,18.32,18.32,0,0,0-3.35,1.6A12,12,0,0,1,4.05,17Zm16,4.46a17.62,17.62,0,0,0-8,0A15.45,15.45,0,0,1,11,17H21A15.45,15.45,0,0,1,20,21.46Zm-4,6.18a17.48,17.48,0,0,1-3.17-4.31,15.39,15.39,0,0,1,6.34,0A17.48,17.48,0,0,1,16,27.64Zm-5.14-3.77a19.59,19.59,0,0,0,2.49,3.82,12.06,12.06,0,0,1-5.17-2.6A16.43,16.43,0,0,1,10.86,23.87Zm10.28,0a16.43,16.43,0,0,1,2.68,1.22,12.06,12.06,0,0,1-5.17,2.6A19.59,19.59,0,0,0,21.14,23.87ZM21.92,22a17.31,17.31,0,0,0,1-5h5a12,12,0,0,1-2.68,6.62A19,19,0,0,0,21.92,22ZM16,13.61A5.73,5.73,0,0,1,19.92,15H12.08A5.73,5.73,0,0,1,16,13.61Z"/></g></svg>