<svg xmlns="http://www.w3.org/2000/svg" viewBox="0 0 32 32"><g id="earth"><path d="M16,2A14,14,0,0,0,2.07,14.67.88.88,0,0,0,2,15a1.42,1.42,0,0,0,0,.2c0,.27,0,.53,0,.8A14,14,0,1,0,16,2Zm9.3,6.44A11.9,11.9,0,0,1,28,15H26.61a.61.61,0,0,1-.61-.61v-.23a2.59,2.59,0,0,0-1.78-2.47.65.65,0,0,1-.38-.37.59.59,0,0,1,.05-.52ZM12.2,4.63l1.38,2.76a2.84,2.84,0,0,1-.33,3.26,1.79,1.79,0,0,1-1.08.35,3.84,3.84,0,0,0-2.71,1.12L8.12,13.46A1.78,1.78,0,0,1,6.83,14H4.18A12,12,0,0,1,12.2,4.63Zm5.41,19.65-.66,1A2.73,2.73,0,0,0,16.77,28c-.26,0-.51,0-.77,0a11.94,11.94,0,0,1-8.22-3.28L11.84,24a2.78,2.78,0,0,0,1-.35l3.12-1.87a.68.68,0,0,1,.57-.08.73.73,0,0,1,.45.37l.72,1.44A.73.73,0,0,1,17.61,24.28Zm1.32,3.34a1.19,1.19,0,0,0-.22-.33.71.71,0,0,1-.09-.91l.66-1a2.75,2.75,0,0,0,.17-2.73l-.72-1.44a2.73,2.73,0,0,0-3.84-1.12L11.77,22a.82.82,0,0,1-.26.1L6.23,23A12,12,0,0,1,4,16H6.83a3.84,3.84,0,0,0,2.71-1.12l1.34-1.34A1.8,1.8,0,0,1,12.2,13a3.76,3.76,0,0,0,2.29-.78c1.47-1.17,1.85-3.48.9-5.67l-1.2-2.4A11.77,11.77,0,0,1,23.86,7L22.17,9.77a2.6,2.6,0,0,0,1.41,3.81.62.62,0,0,1,.42.58v.23A2.61,2.61,0,0,0,26.61,17H28A12,12,0,0,1,18.93,27.62Z"/></g></svg>