<svg xmlns="http://www.w3.org/2000/svg" viewBox="0 0 32 32"><g id="earth_2" data-name="earth 2"><path d="M16,25a9,9,0,1,0-9-9.82,1.42,1.42,0,0,0,0,.2s0,.09,0,.13,0,.32,0,.49A9,9,0,0,0,16,25Zm.27-3.51A2,2,0,0,0,16,23a7,7,0,0,1-4.13-1.39l1.67-.28a2,2,0,0,0,.73-.27l2-1.13.44.95ZM23,15.54H21.54v-.14a2,2,0,0,0-1.36-1.88l1.2-2A7,7,0,0,1,23,15.54Zm-3.05-5.33a1,1,0,0,0-.25.28l-1.21,2a2,2,0,0,0-.16,1.72,2,2,0,0,0,1.23,1.19v.14a2,2,0,0,0,2,2h1.29A7,7,0,0,1,18,22.71a1.05,1.05,0,0,0-.07-.11l.41-.61a2,2,0,0,0,.12-2.07L18,19A2,2,0,0,0,16.76,18a2.09,2.09,0,0,0-1.64.21l-1.94,1.16-3,.51A7.05,7.05,0,0,1,9,16.38h1.34a2.68,2.68,0,0,0,1.93-.8l.83-.82a.76.76,0,0,1,.55-.22A2.69,2.69,0,0,0,15.31,14,3.32,3.32,0,0,0,16,10l-.49-1A4.41,4.41,0,0,1,16,9,7,7,0,0,1,19.93,10.21Zm-6.46-.73.69,1.38a1.41,1.41,0,0,1-.1,1.55.71.71,0,0,1-.42.13,2.68,2.68,0,0,0-1.93.8l-.83.83a.73.73,0,0,1-.52.21H9.2A7,7,0,0,1,13.47,9.48Z"/><path d="M16,2A13.88,13.88,0,0,0,7,5.28V5A1,1,0,0,0,5,5V8A1,1,0,0,0,6,9H9A1,1,0,0,0,9,7H8.07A12,12,0,0,1,28,16a12.2,12.2,0,0,1-.32,2.77,1,1,0,0,0,.74,1.2l.23,0a1,1,0,0,0,1-.77A14.54,14.54,0,0,0,30,16,14,14,0,0,0,16,2Z"/><path d="M26,23H23a1,1,0,0,0,0,2h.93A12,12,0,0,1,4,16a12.2,12.2,0,0,1,.32-2.77,1,1,0,0,0-1.95-.46A14.54,14.54,0,0,0,2,16,14,14,0,0,0,25,26.72V27a1,1,0,0,0,2,0V24A1,1,0,0,0,26,23Z"/></g></svg>