<svg xmlns="http://www.w3.org/2000/svg" viewBox="0 0 32 32"><g id="ecology"><path d="M17,15.05v-5a8.19,8.19,0,0,0,3.77.94,7.25,7.25,0,0,0,3.39-.82,7.92,7.92,0,0,0,3.81-5A1,1,0,0,0,27.47,4a10,10,0,0,0-8.6,0,8.75,8.75,0,0,0-3,2.54,8.79,8.79,0,0,0-2.51-2.29,9.94,9.94,0,0,0-8.58-.51,1,1,0,0,0-.61,1.1,7.91,7.91,0,0,0,3.51,5.26,7.33,7.33,0,0,0,3.79,1A8.32,8.32,0,0,0,15,10.31v4.74A14,14,0,0,0,2.12,27.61,1,1,0,0,0,3,29H29a1,1,0,0,0,1-1.08A14,14,0,0,0,17,15.05Zm5,10a2.6,2.6,0,0,0,1.62,1.57A.61.61,0,0,1,24,27H10.45l.47-.46A1.8,1.8,0,0,1,12.23,26a3.79,3.79,0,0,0,2.3-.78c1.46-1.17,1.84-3.48.9-5.67l-1.2-2.4A11.75,11.75,0,0,1,23.9,20l-1.69,2.81A2.6,2.6,0,0,0,22,25ZM19.81,5.78a7.6,7.6,0,0,1,6-.31A5.55,5.55,0,0,1,23.27,8.4a5.83,5.83,0,0,1-5.9-.46A6.9,6.9,0,0,1,19.81,5.78ZM8.76,8.4A5.69,5.69,0,0,1,6.4,5.33a7.62,7.62,0,0,1,6,.64,7,7,0,0,1,2.3,2.3A5.87,5.87,0,0,1,8.76,8.4ZM4.2,27a12.11,12.11,0,0,1,8-9.37l1.38,2.76c.55,1.3.41,2.67-.34,3.26a1.78,1.78,0,0,1-1.07.35A3.84,3.84,0,0,0,9.5,25.12L8.16,26.46A1.84,1.84,0,0,1,6.87,27ZM26,27a2.59,2.59,0,0,0-1.78-2.31.6.6,0,0,1-.37-.37.59.59,0,0,1,.05-.52l1.41-2.35A11.88,11.88,0,0,1,27.87,27Z"/></g></svg>