<svg xmlns="http://www.w3.org/2000/svg" viewBox="0 0 32 32"><g id="ecology_2" data-name="ecology 2"><path d="M11.75,18.58A2.68,2.68,0,0,0,8.16,18a2.48,2.48,0,0,0-.37.29c-.08-.29-.15-.58-.2-.87l-.38-2.26A2.62,2.62,0,0,0,2,15.62v5a5.07,5.07,0,0,0,1.11,3.16L5.24,26.4A3.47,3.47,0,0,1,6,28.57,1.43,1.43,0,0,0,7.43,30H14a1,1,0,0,0,1-1V25.71a8.78,8.78,0,0,0-1.91-5.45ZM13,28H8A5.54,5.54,0,0,0,6.8,25.15L4.67,22.49A3.08,3.08,0,0,1,4,20.58v-5a.62.62,0,0,1,1.24-.1l.38,2.26a8.54,8.54,0,0,0,1.83,4,2.52,2.52,0,0,0,.3.35l1.54,1.55a1,1,0,0,0,1.42-1.42L9.42,21a4.59,4.59,0,0,1-.37-.39A.82.82,0,0,1,9,20.19a.7.7,0,0,1,.31-.5.69.69,0,0,1,.92.14l1.33,1.68A6.7,6.7,0,0,1,13,25.71Z"/><path d="M27.38,13a2.61,2.61,0,0,0-2.59,2.19l-.38,2.26c-.05.29-.12.58-.2.87a2.48,2.48,0,0,0-.37-.29,2.68,2.68,0,0,0-3.59.55l-1.34,1.68A8.78,8.78,0,0,0,17,25.71V29a1,1,0,0,0,1,1h6.57A1.43,1.43,0,0,0,26,28.57a3.47,3.47,0,0,1,.76-2.17l2.13-2.66A5.07,5.07,0,0,0,30,20.58v-5A2.63,2.63,0,0,0,27.38,13ZM28,20.58a3.08,3.08,0,0,1-.67,1.91L25.2,25.15A5.54,5.54,0,0,0,24,28H19V25.71a6.7,6.7,0,0,1,1.48-4.2l1.33-1.68a.69.69,0,0,1,.92-.14.7.7,0,0,1,.31.5.82.82,0,0,1-.09.42,4.59,4.59,0,0,1-.37.39l-1.29,1.29a1,1,0,0,0,1.42,1.42l1.54-1.55a2.52,2.52,0,0,0,.3-.35,8.54,8.54,0,0,0,1.83-4l.38-2.26a.62.62,0,0,1,1.24.1Z"/><path d="M24,10A8,8,0,0,0,8,9.28a.58.58,0,0,0,0,.18s0,.07,0,.11S8,9.85,8,10a8,8,0,0,0,16,0ZM21.89,8.85h-1a1.89,1.89,0,0,0-1.12-1.71L20.43,6A6,6,0,0,1,21.89,8.85Zm-8.17-4.4.55,1.1a1.11,1.11,0,0,1,0,1.21.67.67,0,0,1-.29.09,2.55,2.55,0,0,0-1.79.73l-.72.73a.51.51,0,0,1-.37.15h-.85A6,6,0,0,1,13.72,4.45Zm2.41,10.29A1.88,1.88,0,0,0,15.82,16a5.93,5.93,0,0,1-3.16-1l1.17-.19a2.06,2.06,0,0,0,.68-.25l1.62-1,.35.63Zm1.77.95.25-.38a1.93,1.93,0,0,0,.12-1.93l-.39-.78a2,2,0,0,0-1.18-1,2,2,0,0,0-1.54.2l-1.65,1L11,13.24A6,6,0,0,1,10,10.46h1a2.52,2.52,0,0,0,1.79-.74L13.57,9A.53.53,0,0,1,14,8.85a2.56,2.56,0,0,0,1.52-.53,3,3,0,0,0,.61-3.61L15.74,4H16a6,6,0,0,1,2.85.72l-.92,1.53A1.87,1.87,0,0,0,18.85,9V9a1.87,1.87,0,0,0,1.86,1.87h1.22A6,6,0,0,1,17.9,15.69Z"/></g></svg>