<svg xmlns="http://www.w3.org/2000/svg" viewBox="0 0 32 32"><g id="flower"><path d="M19,9a3,3,0,1,0-3,3A3,3,0,0,0,19,9ZM15,9a1,1,0,1,1,1,1A1,1,0,0,1,15,9Z"/><path d="M24,28H17V24.94A5.52,5.52,0,0,0,18,25a4.89,4.89,0,0,0,2.86-.87A5.19,5.19,0,0,0,22.92,19a1,1,0,0,0-.71-.78,5.29,5.29,0,0,0-2.37-.15,4.8,4.8,0,0,0-1.24.37A4.68,4.68,0,0,0,17,19.58v-4.8l.36.12a3.22,3.22,0,0,0,2.94-.46A2.93,2.93,0,0,0,21.52,12l0-1a.89.89,0,0,1,.22-.62l.62-.78a2.92,2.92,0,0,0,.53-2.74,3.08,3.08,0,0,0-2.12-2l-1-.27a1.11,1.11,0,0,1-.61-.42l-.59-.8a3.19,3.19,0,0,0-5.12,0l-.59.8a1.11,1.11,0,0,1-.61.42l-1,.27a3.08,3.08,0,0,0-2.12,2A2.92,2.92,0,0,0,9.67,9.6l.62.77a.93.93,0,0,1,.22.63l0,1a2.93,2.93,0,0,0,1.22,2.47,3.21,3.21,0,0,0,1.9.63,3.38,3.38,0,0,0,1-.17l.36-.12v4.8a5.34,5.34,0,0,0-.79-.71,5.28,5.28,0,0,0-4.44-.64,1,1,0,0,0-.68.76,5.28,5.28,0,0,0,1.13,4.34A5.06,5.06,0,0,0,14.05,25a6.22,6.22,0,0,0,.95-.09V28H8a1,1,0,0,0,0,2H24a1,1,0,0,0,0-2Zm-5.63-7a2.86,2.86,0,0,1,1-.75,3.34,3.34,0,0,1,.76-.23A3.94,3.94,0,0,1,21,20a3.12,3.12,0,0,1-1.29,2.51,3,3,0,0,1-2.06.49A3.07,3.07,0,0,1,18.37,21Zm-6.65,1A3.07,3.07,0,0,1,11,20a3,3,0,0,1,2.06.49A3.12,3.12,0,0,1,14.35,23,3.12,3.12,0,0,1,11.72,22ZM14,13a1.21,1.21,0,0,1-1.11-.16,1,1,0,0,1-.41-.81l0-1a3,3,0,0,0-.66-2l-.63-.77A.93.93,0,0,1,11,7.47a1,1,0,0,1,.75-.69l1-.28a3.1,3.1,0,0,0,1.7-1.17l.58-.8a1.19,1.19,0,0,1,1.88,0l.58.8a3.1,3.1,0,0,0,1.7,1.17l1,.28a1,1,0,0,1,.75.69.93.93,0,0,1-.18.87l-.63.77a3,3,0,0,0-.66,2l0,1a1,1,0,0,1-.41.81A1.21,1.21,0,0,1,18,13l-1-.32a3.16,3.16,0,0,0-2.06,0Z"/></g></svg>