<svg xmlns="http://www.w3.org/2000/svg" viewBox="0 0 32 32"><g id="forest"><path d="M29,28H26V23.87l1.45,1a1,1,0,0,0,1.12,0,1,1,0,0,0,.4-1.05c-1.4-6.07-3.09-12.16-5-18.08-.33-1-.66-2-1-3a1,1,0,0,0-1.9,0c-.34,1-.67,2-1,3S19.34,7.91,19,9C18.65,7.91,18.31,6.8,18,5.69s-.66-2-1-3a1,1,0,0,0-1.9,0c-.34,1-.67,2-1,3S13.35,7.91,13,9c-.34-1.12-.69-2.24-1.05-3.34s-.66-2-1-3a1,1,0,0,0-1.9,0c-.34,1-.67,2-1,3-1.93,5.92-3.62,12-5,18.08a1,1,0,0,0,.4,1.05,1,1,0,0,0,1.12,0l1.45-1V28H3a1,1,0,0,0,0,2H29a1,1,0,0,0,0-2ZM20.11,12.28c.58-2,1.2-4,1.84-6L22,6.16l.05.15c1.65,5.06,3.12,10.25,4.39,15.45l-.89-.59a1,1,0,0,0-1.1,0l-1.82,1.21C21.84,19.06,21,15.74,20,12.45A.69.69,0,0,0,20.11,12.28ZM20,23.87V28H19V23.2ZM16,6.31s0-.1.05-.15l.05.15c1.65,5.06,3.12,10.25,4.39,15.45l-.89-.59a1,1,0,0,0-1.1,0L16,22.8l-2.45-1.63a1,1,0,0,0-1.1,0l-.89.59C12.83,16.56,14.3,11.37,16,6.31ZM13,28H12V23.87l1-.67ZM10,6.31s0-.1.05-.15,0,.1.05.15c.64,2,1.26,4,1.84,6a.69.69,0,0,0,.1.17c-1,3.29-1.83,6.61-2.62,9.93L7.55,21.17a1,1,0,0,0-1.1,0l-.89.59C6.83,16.56,8.3,11.37,10,6.31ZM8,28V23.87l1.45,1a.61.61,0,0,0,.14.07l.12.05a.78.78,0,0,0,.21,0H10v3Zm7,0V24.54l.45.29a1,1,0,0,0,1.1,0l.45-.29V28Zm7,0V25h0a1.35,1.35,0,0,0,.29,0l.09-.05a.53.53,0,0,0,.17-.08l1.45-1V28Z"/></g></svg>