<svg xmlns="http://www.w3.org/2000/svg" viewBox="0 0 32 32"><g id="globe"><path d="M24.41,2.24a1,1,0,0,0-1.39.1L20.9,4.73a8.68,8.68,0,0,0-3.06-1.28A8.94,8.94,0,0,0,9.37,18.21L7.45,20.68a1,1,0,0,0,.14,1.38A12.92,12.92,0,0,0,15,25.11V28H12a1,1,0,0,0,0,2h8a1,1,0,0,0,0-2H17V25.11h.06A13,13,0,0,0,24.41,2.24Zm-7.7,3.05,0,.06L16.37,7l-.14,0a1.86,1.86,0,0,0-2.09,1l-1.7-1.68h0a6.9,6.9,0,0,1,3.59-1C16.24,5.26,16.47,5.27,16.71,5.29ZM10.89,7.51a.9.9,0,0,0,.14.2l1.7,1.68a1.89,1.89,0,0,0,1.35.56,1.32,1.32,0,0,0,.28,0,1.93,1.93,0,0,0,1.46-1l.14,0A2,2,0,0,0,18.32,7.3l.32-1.52a7,7,0,0,1,4.29,5.85s-.07,0-.1,0l-.51-.52a2,2,0,0,0-2-.55l-1,.25a2.06,2.06,0,0,0-1.29,1A2,2,0,0,0,18,13.52l.73,2.13-.13,3a6.92,6.92,0,0,1-3.6.4l.27-1.29a2.76,2.76,0,0,0-.38-2.06l-.64-1a.77.77,0,0,1-.1-.58,2.67,2.67,0,0,0-.21-1.71A3.34,3.34,0,0,0,10.17,11l-1.05.28a4,4,0,0,1,.08-.5A6.83,6.83,0,0,1,10.89,7.51ZM20.57,15l-.69-2.18,1-.23.51.52a2,2,0,0,0,1.4.6,6.9,6.9,0,0,1-2.18,3.73l.07-1.68A2,2,0,0,0,20.57,15ZM9.15,13.35,10.62,13a1.4,1.4,0,0,1,1.49.4.77.77,0,0,1,0,.44,2.7,2.7,0,0,0,.39,2l.63,1a.75.75,0,0,1,.11.56L13,18.5A7,7,0,0,1,9.15,13.35Zm15.24,5.92A11,11,0,0,1,9.64,21.13l1.23-1.58a9,9,0,0,0,2.51,1.22.64.64,0,0,0,.19.08.68.68,0,0,0,.2,0l.4.11A9,9,0,0,0,22.45,6l1.39-1.57A11,11,0,0,1,24.39,19.27Z"/></g></svg>