<svg xmlns="http://www.w3.org/2000/svg" viewBox="0 0 32 32"><g id="heart"><path d="M29.36,18a3.76,3.76,0,0,0-3.22-1.93,3.23,3.23,0,0,0-.82.1,11.78,11.78,0,1,0-6.41,9.09,17.53,17.53,0,0,0,3.8,3.56,1,1,0,0,0,.56.17,1,1,0,0,0,.56-.17,17.68,17.68,0,0,0,4.71-4.77c.32-.47.62-1,.89-1.46A4.64,4.64,0,0,0,29.36,18Zm-8.95-1.93h-.1a3.36,3.36,0,0,0-.58-1,.91.91,0,0,1-.27-.77s0-.12.21-.16l3.59-1a9.62,9.62,0,0,1-.19,4.16A3.63,3.63,0,0,0,20.41,16.08ZM12.21,5.24a9.69,9.69,0,0,1,2.28-.07l-.44,2.65C13.78,9,13,9.66,12.41,9.68a1.41,1.41,0,0,1-.77-.26,3.37,3.37,0,0,0-2.48-.6l-1.54.24a1.3,1.3,0,0,1-1-.23.79.79,0,0,0-.4-.17A9.61,9.61,0,0,1,12.21,5.24ZM4.25,17,7,18.31a2.48,2.48,0,0,0,.87.25l3,.27a.39.39,0,0,1,.29.16.4.4,0,0,1,.08.32L11,20.62a.4.4,0,0,1-.27.32l-.92.34A2.41,2.41,0,0,0,8.3,22.86L8,22.66A9.58,9.58,0,0,1,4.25,17Zm5.93,6.89a.81.81,0,0,0,0-.22.42.42,0,0,1,.27-.46l.92-.34A2.42,2.42,0,0,0,12.93,21l.22-1.3a2.43,2.43,0,0,0-.47-1.88A2.48,2.48,0,0,0,11,16.83l-3-.27a.28.28,0,0,1-.15,0L4,14.59A9.52,9.52,0,0,1,5.2,10.17a1.27,1.27,0,0,0,.25.27,3.32,3.32,0,0,0,2.48.6l1.54-.24a1.38,1.38,0,0,1,1,.25,3.27,3.27,0,0,0,1.89.63h.12A4.11,4.11,0,0,0,16,8.21l.45-2.67a9.62,9.62,0,0,1,6.25,5.68l-3.57,1a2.27,2.27,0,0,0-1.59,1.49,2.87,2.87,0,0,0,.64,2.65,1.29,1.29,0,0,1,.22.37A4,4,0,0,0,17.19,18a4.64,4.64,0,0,0-.07,4.59c.19.35.4.68.62,1A9.69,9.69,0,0,1,10.18,23.84Zm17.5-2.2a14.65,14.65,0,0,1-.8,1.3,15.73,15.73,0,0,1-3.61,3.83,15.5,15.5,0,0,1-3.6-3.83c-.29-.41-.55-.86-.8-1.3a2.69,2.69,0,0,1,0-2.61,1.79,1.79,0,0,1,1.5-1A1.83,1.83,0,0,1,22,19.29l.33.75a1,1,0,0,0,.91.61,1,1,0,0,0,.92-.61l.32-.75a1.84,1.84,0,0,1,1.63-1.21,1.77,1.77,0,0,1,1.49,1A2.67,2.67,0,0,1,27.68,21.64Z"/></g></svg>