<svg xmlns="http://www.w3.org/2000/svg" viewBox="0 0 32 32"><g id="house"><path d="M29.65,14.24,18.78,5a4.3,4.3,0,0,0-5.56,0L2.35,14.24a1,1,0,1,0,1.3,1.52L5,14.62v9.85A3.53,3.53,0,0,0,8.53,28H23.47A3.53,3.53,0,0,0,27,24.47V14.62l1.35,1.14A1,1,0,0,0,29,16a1,1,0,0,0,.65-1.76ZM25,13V24.47A1.54,1.54,0,0,1,23.47,26H8.53A1.54,1.54,0,0,1,7,24.47V13s0,0,0-.06l7.52-6.37a2.3,2.3,0,0,1,3,0L25,12.94S25,13,25,13Z"/><path d="M14.77,15.17a4.24,4.24,0,0,0-2.91,1.34,2.75,2.75,0,0,1-.1-1.33,3.63,3.63,0,0,1,.73-1.55,1,1,0,0,0-1.56-1.26A5.79,5.79,0,0,0,9.8,14.79a6.42,6.42,0,0,0,1,4.21,7,7,0,0,0,3.43,4.3,6.53,6.53,0,0,0,3,.67,8.24,8.24,0,0,0,4.51-1.55h0a7.78,7.78,0,0,0,1.3-1.2,1,1,0,0,0-.31-1.55,27.6,27.6,0,0,1-3.41-2c-.54-.38-1-.72-1.37-1-1.1-.84-1.89-1.45-3.08-1.45Zm3.31,4.11c.78.54,1.59,1,2.41,1.51l0,0A6.31,6.31,0,0,1,17.09,22a4.36,4.36,0,0,1-2-.46,4.5,4.5,0,0,1-1.73-1.6l1.66.62a1.12,1.12,0,0,0,.35.06,1,1,0,0,0,.35-1.93l-2.3-.87a2.2,2.2,0,0,1,1.35-.62h0c.49,0,.9.3,1.87,1C17.05,18.52,17.52,18.88,18.08,19.28Z"/></g></svg>