<svg xmlns="http://www.w3.org/2000/svg" viewBox="0 0 32 32"><g id="love_earth" data-name="love earth"><path d="M29,8.2A7.3,7.3,0,0,0,16,8.35,7.3,7.3,0,0,0,3.05,8.2a8.07,8.07,0,0,0,.1,8.12c.61,1,1.28,2,2,2.94a37.18,37.18,0,0,0,10.35,9.59,1,1,0,0,0,1.06,0,37.33,37.33,0,0,0,10.35-9.59c.69-.94,1.36-1.93,2-2.94A8.05,8.05,0,0,0,29,8.2Zm-24.16,1a5.39,5.39,0,0,1,4.7-2.84h.17s0,.09,0,.13l.37.67A.6.6,0,0,1,9.82,8l-.2.12a2.61,2.61,0,0,0-1.33,2.74.62.62,0,0,1-.14.51.56.56,0,0,1-.48.2l-3.61-.15A6.07,6.07,0,0,1,4.79,9.18ZM16,26.82a35.3,35.3,0,0,1-6.07-5A2.62,2.62,0,0,1,12.61,21a1.8,1.8,0,0,1,.82.78,3.78,3.78,0,0,0,2.27,1.84l1.82.54a1.8,1.8,0,0,1,1.06.85C17.75,25.63,16.89,26.24,16,26.82Zm4.12-3.13a3.78,3.78,0,0,0-2-1.47l-1.82-.54a1.89,1.89,0,0,1-1.1-.91,3.8,3.8,0,0,0-1.78-1.64,4.53,4.53,0,0,0-4.81,1.24c-.64-.74-1.26-1.5-1.85-2.29s-1.29-1.84-1.86-2.8a6,6,0,0,1-.73-1.89l3.44.15h.11a2.6,2.6,0,0,0,2.57-3.06.61.61,0,0,1,.31-.64l.21-.11A2.6,2.6,0,0,0,12.1,7.06a5.65,5.65,0,0,1,2.26,2.49l.74,1.55a1,1,0,0,0,1.8,0l.74-1.55a5.4,5.4,0,0,1,4.87-3.21A5.24,5.24,0,0,1,25.9,7.6a.6.6,0,0,0-.06.11.73.73,0,0,1-.76.52l-1.19-.11a2.73,2.73,0,0,0-2.48,1.15l-.92,1.32a2.73,2.73,0,0,0,.85,3.91l3.13,1.85a.7.7,0,0,1,.2.18l.85,1.08,0,0-.29.43A35.74,35.74,0,0,1,20.12,23.69Zm7-8.41c-.13.22-.27.42-.4.64l-.48-.62a2.72,2.72,0,0,0-.76-.67l-3.14-1.85a.78.78,0,0,1-.34-.47.73.73,0,0,1,.12-.57l.92-1.32a.74.74,0,0,1,.66-.31l1.19.11a2.71,2.71,0,0,0,2.34-1A6.06,6.06,0,0,1,27.13,15.28Z"/></g></svg>