<svg xmlns="http://www.w3.org/2000/svg" viewBox="0 0 32 32"><g id="mountain"><path d="M30,24.68l-5-15a1,1,0,0,0-1.82-.18l-3,5.3L16.93,6.64a1,1,0,0,0-1.86,0L11.89,14.8l-3-5.3a1,1,0,0,0-1.82.18l-5,15a1,1,0,0,0,.14.9A1,1,0,0,0,3,26H29a1,1,0,0,0,.81-.42A1,1,0,0,0,30,24.68ZM23.76,12.44l1.07,3.21a2.46,2.46,0,0,1-1,.36A2.67,2.67,0,0,1,22,15.52ZM16,9.76l1.35,3.47a.85.85,0,0,0-.17.16,1.45,1.45,0,0,1-2.36,0,.85.85,0,0,0-.17-.16ZM8.24,12.44,10,15.53A2.5,2.5,0,0,1,8.86,16a2.58,2.58,0,0,1-1.68-.38ZM6.53,17.56a4.57,4.57,0,0,0,2,.47,4.25,4.25,0,0,0,2.38-.71L8.32,24H4.39ZM10.46,24l3.41-8.76A3.35,3.35,0,0,0,16,16a3.64,3.64,0,0,0,2.13-.75L21.54,24Zm13.22,0-2.6-6.69a4.65,4.65,0,0,0,2.45.72,4.35,4.35,0,0,0,.61,0,4.46,4.46,0,0,0,1.33-.41L27.61,24Z"/></g></svg>