<svg xmlns="http://www.w3.org/2000/svg" viewBox="0 0 32 32"><g id="plant"><path d="M29,27H26.55c-1.13-3.26-4.92-5.63-9.55-6V12.16c.2,0,.43,0,.67,0a5.88,5.88,0,0,0,3.38-1A6.13,6.13,0,0,0,23.48,5a1,1,0,0,0-.7-.78A6.19,6.19,0,0,0,17,5.46V5a1,1,0,0,0-2,0v6.62a6.2,6.2,0,0,0-5.78-1.21,1,1,0,0,0-.7.79A6.12,6.12,0,0,0,11,17.31a5.82,5.82,0,0,0,3.38,1c.24,0,.46,0,.67,0V21c-4.72.27-8.61,2.66-9.76,6H3a1,1,0,0,0,0,2H29a1,1,0,0,0,0-2ZM17.94,7.33A4.08,4.08,0,0,1,21.58,6,4.08,4.08,0,0,1,19.9,9.52a4.1,4.1,0,0,1-2.9.63A4.12,4.12,0,0,1,17.94,7.33ZM12.1,15.67a4.05,4.05,0,0,1-1.68-3.47,4.08,4.08,0,0,1,3.64,1.28A4.12,4.12,0,0,1,15,16.3,4.05,4.05,0,0,1,12.1,15.67ZM7.42,27c1.25-2.35,4.63-4,8.48-4s7.22,1.65,8.48,4Z"/></g></svg>