<svg xmlns="http://www.w3.org/2000/svg" viewBox="0 0 32 32"><g id="plant_2" data-name="plant 2"><path d="M24,28H17V26.34a5.46,5.46,0,0,0,1.71.28,5.08,5.08,0,0,0,1.3-.16,5.54,5.54,0,0,0,4-4.15,1,1,0,0,0-.39-1,5.54,5.54,0,0,0-2.25-.94,5.57,5.57,0,0,0-3.5.53,5.06,5.06,0,0,0-.87.58V19.94A9,9,0,1,0,7,10.18a1.42,1.42,0,0,0,0,.2s0,.09,0,.13,0,.32,0,.49a9,9,0,0,0,8,8.94v1.51a5.52,5.52,0,0,0-2.18-1.05,5.57,5.57,0,0,0-4.52,1,1,1,0,0,0-.35,1,5.56,5.56,0,0,0,2.92,3.6,5.49,5.49,0,0,0,2.35.53A5.67,5.67,0,0,0,15,26.3V28H8a1,1,0,0,0,0,2H24a1,1,0,0,0,0-2Zm-5.21-5.36a3.47,3.47,0,0,1,1.37-.38,3.52,3.52,0,0,1,.86,0,3.3,3.3,0,0,1,.81.25,3.53,3.53,0,0,1-2.32,2,3.35,3.35,0,0,1-2.25-.22A3.43,3.43,0,0,1,18.79,22.64Zm-7.06,1.62a3.44,3.44,0,0,1-1.59-1.62,3.39,3.39,0,0,1,2.24-.29,3.54,3.54,0,0,1,2.39,1.89A3.56,3.56,0,0,1,11.73,24.26Zm4.54-7.77A2,2,0,0,0,16,18a7,7,0,0,1-4.13-1.39l1.67-.28a2,2,0,0,0,.73-.27l2-1.13.44,1ZM23,10.54H21.54v-.14a2,2,0,0,0-1.36-1.88l1.2-2A7,7,0,0,1,23,10.54ZM19.93,5.21a1,1,0,0,0-.25.28l-1.21,2a2,2,0,0,0-.16,1.72,2,2,0,0,0,1.23,1.19v.14a2,2,0,0,0,2,2h1.29A7,7,0,0,1,18,17.71a1.05,1.05,0,0,0-.07-.11l.41-.61a2,2,0,0,0,.12-2.07L18,14A2,2,0,0,0,16.76,13a2.09,2.09,0,0,0-1.64.21l-1.94,1.16-3,.51A7.05,7.05,0,0,1,9,11.38h1.34a2.68,2.68,0,0,0,1.93-.8l.83-.82a.76.76,0,0,1,.55-.22A2.69,2.69,0,0,0,15.31,9,3.32,3.32,0,0,0,16,5l-.49-1A4.41,4.41,0,0,1,16,4,7,7,0,0,1,19.93,5.21Zm-6.46-.73.69,1.38a1.41,1.41,0,0,1-.1,1.55.71.71,0,0,1-.42.13,2.68,2.68,0,0,0-1.93.8l-.83.83a.73.73,0,0,1-.52.21H9.2A7,7,0,0,1,13.47,4.48Z"/></g></svg>