<svg xmlns="http://www.w3.org/2000/svg" viewBox="0 0 32 32"><g id="save_water" data-name="save water"><path d="M29.27,19.11a2.53,2.53,0,0,0-3.11-.3l-4,2.59A4.09,4.09,0,0,0,18.41,19H17.05a1.2,1.2,0,0,1-.69-.22L13.93,17a5.36,5.36,0,0,0-3.15-1H3a1,1,0,0,0,0,2h7.78a3.48,3.48,0,0,1,2,.63l2.43,1.77a3.15,3.15,0,0,0,1.86.6h1.36a2.11,2.11,0,0,1,1.79,1H14.75a5.59,5.59,0,0,1-2.44-.56l-.7-.34a1,1,0,1,0-.87,1.8l.7.34a7.61,7.61,0,0,0,3.31.76h5.83a4.09,4.09,0,0,0,2.25-.67l4.41-2.84a.53.53,0,0,1,.63.06.43.43,0,0,1,.13.32.41.41,0,0,1-.17.31l-6,4.33a2.55,2.55,0,0,1-1.51.49h-9a2.55,2.55,0,0,1-1.51-.49L7.63,23.94A5,5,0,0,0,4.72,23H3a1,1,0,0,0,0,2H4.72a2.88,2.88,0,0,1,1.73.56l2.16,1.57A4.57,4.57,0,0,0,11.3,28h9.05A4.52,4.52,0,0,0,23,27.13l6-4.33a2.43,2.43,0,0,0,.27-3.69Z"/><path d="M20.93,17h.14a5.39,5.39,0,0,0,4.77-3,6.23,6.23,0,0,0-.36-6.46l-.06-.09a22.81,22.81,0,0,0-3.77-4.19,1,1,0,0,0-1.3,0,22.81,22.81,0,0,0-3.77,4.19l-.06.09A6.23,6.23,0,0,0,16.16,14,5.39,5.39,0,0,0,20.93,17ZM18.16,8.66l.06-.09A20.88,20.88,0,0,1,21,5.35a20.88,20.88,0,0,1,2.78,3.22l.06.09a4.26,4.26,0,0,1,.23,4.39,3.43,3.43,0,0,1-3,1.95h-.14a3.43,3.43,0,0,1-3-1.95A4.26,4.26,0,0,1,18.16,8.66Z"/></g></svg>