<svg xmlns="http://www.w3.org/2000/svg" viewBox="0 0 32 32"><g id="soil"><path d="M16,2A14,14,0,1,0,30,16,14,14,0,0,0,16,2ZM11.06,26.93A4.85,4.85,0,0,1,16,23a4.85,4.85,0,0,1,4.94,3.93,11.94,11.94,0,0,1-9.88,0Zm6-12s0-.07,0-.1v-.34a4.06,4.06,0,0,1,4-3.61,4.34,4.34,0,0,1-.85,2.45A4.38,4.38,0,0,1,17,15Zm-2.07,0a4.4,4.4,0,0,1-3.15-1.6A4.34,4.34,0,0,1,11,10.92a4.26,4.26,0,0,1,2.44.85A4.34,4.34,0,0,1,15,14.65C15,14.76,15,14.87,14.94,15ZM22.78,25.9A6.87,6.87,0,0,0,17,21.07V17a6.4,6.4,0,0,0,4.74-2.4,6.43,6.43,0,0,0,1.2-4.75A1,1,0,0,0,22.09,9a6.45,6.45,0,0,0-4.75,1.2A5.77,5.77,0,0,0,16,11.67a5.9,5.9,0,0,0-1.36-1.49A6.45,6.45,0,0,0,9.86,9,1,1,0,0,0,9,9.83a6.35,6.35,0,0,0,1.2,4.75A6.43,6.43,0,0,0,15,17v4.09A6.87,6.87,0,0,0,9.22,25.9a12,12,0,1,1,13.56,0Z"/></g></svg>