<svg xmlns="http://www.w3.org/2000/svg" viewBox="0 0 32 32"><g id="solar_panel" data-name="solar panel"><path d="M27.33,21a2.66,2.66,0,0,0,2.05-1,2.78,2.78,0,0,0,.56-2.33L27.57,6.17A2.7,2.7,0,0,0,25,4H7.05A2.7,2.7,0,0,0,4.43,6.17L2.06,17.69A2.78,2.78,0,0,0,2.62,20a2.66,2.66,0,0,0,2.05,1H13v3H11.05a4.84,4.84,0,0,0-4,2.15L6.47,27H4a1,1,0,0,0,0,2H28a1,1,0,0,0,0-2H25.53L25,26.15A4.84,4.84,0,0,0,21,24H19V21ZM14,19H10.15l.43-3H15v3ZM5.48,11h3.8l-.43,3h-4Zm5.82,0H15v3H10.87Zm15.84,3h-4l-.43-3h3.8Zm-6,0H17V11h3.7ZM17,16h4.42l.43,3H17Zm10.83,2.75a.63.63,0,0,1-.5.25H23.87l-.43-3h4.11L28,18.1A.79.79,0,0,1,27.83,18.75ZM25.61,6.58,26.11,9H22.44L22,6H25A.7.7,0,0,1,25.61,6.58ZM20,6a.66.66,0,0,0,0,.14L20.42,9H17V6ZM15,9H11.58L12,6.14A.66.66,0,0,0,12,6h3ZM7.05,6H10L9.56,9H5.89l.5-2.42A.7.7,0,0,1,7.05,6ZM4.17,18.75A.79.79,0,0,1,4,18.1L4.45,16H8.56l-.43,3H4.67A.63.63,0,0,1,4.17,18.75ZM23.11,27H8.89a2.84,2.84,0,0,1,2.16-1H21A2.84,2.84,0,0,1,23.11,27ZM17,24H15V21h2Z"/></g></svg>