<svg xmlns="http://www.w3.org/2000/svg" viewBox="0 0 32 32"><g id="sprout"><path d="M29.26,19.11a2.55,2.55,0,0,0-3.11-.3L25,19.54a8.51,8.51,0,0,0-6-4.39V11.89A5.49,5.49,0,0,0,20,12a6.06,6.06,0,0,0,3.29-1A6.7,6.7,0,0,0,26,6.28a1,1,0,0,0-.64-1,5.73,5.73,0,0,0-5.14.7A6.29,6.29,0,0,0,18,8.84,6.29,6.29,0,0,0,15.78,6a5.7,5.7,0,0,0-5.14-.7,1,1,0,0,0-.64,1A6.7,6.7,0,0,0,12.67,11,6.06,6.06,0,0,0,16,12a5.49,5.49,0,0,0,1-.11V15a8.39,8.39,0,0,0-4.17,1.39A5.34,5.34,0,0,0,10.78,16H3a1,1,0,0,0,0,2h7.78a3.36,3.36,0,0,1,2,.64l2.43,1.76a3.2,3.2,0,0,0,1.87.6H18.4a2.13,2.13,0,0,1,1.8,1H14.75a5.56,5.56,0,0,1-2.44-.56l-.71-.34a1,1,0,0,0-.87,1.8l.71.34a7.57,7.57,0,0,0,3.31.76h5.82a4.1,4.1,0,0,0,2.26-.67l4.41-2.84a.51.51,0,0,1,.63.06.38.38,0,0,1,.12.32.39.39,0,0,1-.16.31l-6,4.33a2.54,2.54,0,0,1-1.5.49H11.29a2.54,2.54,0,0,1-1.5-.49L7.62,23.94A5,5,0,0,0,4.72,23H3a1,1,0,0,0,0,2H4.72a2.91,2.91,0,0,1,1.73.56l2.16,1.57a4.54,4.54,0,0,0,2.68.87h9.06A4.54,4.54,0,0,0,23,27.13l6-4.33A2.4,2.4,0,0,0,30,21,2.43,2.43,0,0,0,29.26,19.11ZM21.37,7.59a3.81,3.81,0,0,1,2.46-.66,4.38,4.38,0,0,1-1.66,2.39,3.83,3.83,0,0,1-2.46.66A4.44,4.44,0,0,1,21.37,7.59ZM13.82,9.32a4.41,4.41,0,0,1-1.65-2.39,3.9,3.9,0,0,1,2.46.66A4.44,4.44,0,0,1,16.29,10,3.92,3.92,0,0,1,13.82,9.32ZM22.15,21.4A4.11,4.11,0,0,0,18.4,19H17.05a1.18,1.18,0,0,1-.69-.22l-1.6-1.16A6.43,6.43,0,0,1,17.5,17a6.5,6.5,0,0,1,5.82,3.64Z"/></g></svg>