<svg xmlns="http://www.w3.org/2000/svg" viewBox="0 0 32 32"><g id="tree"><path d="M26,28H19V24.59a1.14,1.14,0,0,0,.26,0A11.62,11.62,0,0,0,28,13.5,11.77,11.77,0,0,0,16,2,11.77,11.77,0,0,0,4,13.5a11.59,11.59,0,0,0,9,11.13V28H6a1,1,0,0,0,0,2H26a1,1,0,0,0,0-2ZM6,13.5A9.77,9.77,0,0,1,16,4a9.77,9.77,0,0,1,10,9.5,9.61,9.61,0,0,1-7,9.06V19.48l4.63-3.7a1,1,0,0,0,.2-1.33l-2-3a1,1,0,0,0-1.38-.28l-1.45,1V9a1,1,0,0,0-1-1H14a1,1,0,0,0-1,1v3.13l-1.45-1a1,1,0,0,0-1.38.28l-2,3a1,1,0,0,0,.21,1.33L13,19.48v3.08A9.57,9.57,0,0,1,6,13.5Zm8.63,4.72-4.29-3.43.94-1.4,2.17,1.44a1,1,0,0,0,1,.05A1,1,0,0,0,15,14V10h2v4a1,1,0,0,0,.53.88,1,1,0,0,0,1-.05l2.17-1.44.94,1.4-4.28,3.43A1,1,0,0,0,17,19v9H15V19A1,1,0,0,0,14.63,18.22Z"/></g></svg>