<svg xmlns="http://www.w3.org/2000/svg" viewBox="0 0 32 32"><g id="battery"><path d="M27.15,11H26a2.25,2.25,0,0,0-2.23-2H4.26A2.26,2.26,0,0,0,2,11.26v9.48A2.26,2.26,0,0,0,4.26,23H23.74A2.25,2.25,0,0,0,26,21h1.18A2.86,2.86,0,0,0,30,18.15v-4.3A2.86,2.86,0,0,0,27.15,11ZM24,20.74a.26.26,0,0,1-.26.26H4.26A.26.26,0,0,1,4,20.74V11.26A.26.26,0,0,1,4.26,11H23.74a.26.26,0,0,1,.26.26v9.48Zm4-2.59a.85.85,0,0,1-.85.85H26V13h1.15a.85.85,0,0,1,.85.85Z"/><path d="M8,12a1,1,0,0,0-1,1v6a1,1,0,0,0,2,0V13A1,1,0,0,0,8,12Z"/><path d="M14,12a1,1,0,0,0-1,1v6a1,1,0,0,0,2,0V13A1,1,0,0,0,14,12Z"/><path d="M20,12a1,1,0,0,0-1,1v6a1,1,0,0,0,2,0V13A1,1,0,0,0,20,12Z"/></g></svg>