<svg xmlns="http://www.w3.org/2000/svg" viewBox="0 0 32 32"><g id="bell"><path d="M25.81,22.37l-.94-1.88A8.15,8.15,0,0,1,24,16.83V13a8,8,0,0,0-7-7.93V3a1,1,0,0,0-2,0V5.07A8,8,0,0,0,8,13v3.83a8.15,8.15,0,0,1-.87,3.66l-.94,1.88A2.51,2.51,0,0,0,8.44,26h2.62A4.82,4.82,0,0,0,16,30a4.82,4.82,0,0,0,4.94-4h2.62a2.51,2.51,0,0,0,2.25-3.63ZM16,28a2.92,2.92,0,0,1-2.94-2h5.88A2.92,2.92,0,0,1,16,28Zm8-4.24a.49.49,0,0,1-.43.24H8.44A.51.51,0,0,1,8,23.27l.94-1.88A10.19,10.19,0,0,0,10,16.83V13a6,6,0,0,1,12,0v3.83a10.19,10.19,0,0,0,1.08,4.56L24,23.27A.48.48,0,0,1,24,23.76Z"/></g></svg>