<svg xmlns="http://www.w3.org/2000/svg" viewBox="0 0 32 32"><g id="command_prompt" data-name="command prompt"><path d="M27.18,5H4.82A2.83,2.83,0,0,0,2,7.82V24.18A2.83,2.83,0,0,0,4.82,27H27.18A2.83,2.83,0,0,0,30,24.18V7.82A2.83,2.83,0,0,0,27.18,5ZM28,24.18a.82.82,0,0,1-.82.82H4.82A.82.82,0,0,1,4,24.18V7.82A.82.82,0,0,1,4.82,7H27.18a.82.82,0,0,1,.82.82Z"/><path d="M13.71,15.29l-5-5a1,1,0,1,0-1.42,1.42L11.59,16l-4.3,4.29a1,1,0,0,0,0,1.42,1,1,0,0,0,1.42,0l5-5A1,1,0,0,0,13.71,15.29Z"/><path d="M24,20H15a1,1,0,0,0,0,2h9a1,1,0,0,0,0-2Z"/></g></svg>