<svg xmlns="http://www.w3.org/2000/svg" viewBox="0 0 32 32"><g id="network"><path d="M30,16A14,14,0,0,0,17.31,2.07a1,1,0,0,0-.53,0c-.26,0-.52,0-.78,0s-.52,0-.78,0a1,1,0,0,0-.54,0,14,14,0,0,0,0,27.86A.88.88,0,0,0,15,30a.85.85,0,0,0,.22,0c.26,0,.52,0,.78,0s.52,0,.78,0A.85.85,0,0,0,17,30a.88.88,0,0,0,.32-.07A14,14,0,0,0,30,16Zm-4,6.64A20.31,20.31,0,0,0,22.34,21,20.85,20.85,0,0,0,23,16,19.86,19.86,0,0,0,22.35,11,20.88,20.88,0,0,0,26,9.36a12,12,0,0,1,0,13.28ZM11,16a18.06,18.06,0,0,1,.57-4.51A19.73,19.73,0,0,0,16,12a21,21,0,0,0,4.43-.5A18,18,0,0,1,21,16a19,19,0,0,1-.58,4.5A20.94,20.94,0,0,0,16,20a20.25,20.25,0,0,0-4.42.5A19,19,0,0,1,11,16ZM24.72,7.78a19.82,19.82,0,0,1-3,1.27,20.77,20.77,0,0,0-2.33-4.54A11.93,11.93,0,0,1,24.72,7.78ZM16.57,4a18.92,18.92,0,0,1,3.25,5.55A18.94,18.94,0,0,1,16,10a18.16,18.16,0,0,1-3.82-.42A18.92,18.92,0,0,1,15.43,4L16,4Zm-4,.48a20.77,20.77,0,0,0-2.33,4.54,20.37,20.37,0,0,1-3-1.27A11.93,11.93,0,0,1,12.57,4.51ZM6,9.36A20.59,20.59,0,0,0,9.65,11,19.72,19.72,0,0,0,9,16a20.85,20.85,0,0,0,.66,5A20.71,20.71,0,0,0,6,22.64,12,12,0,0,1,6,9.36ZM7.28,24.22a19.33,19.33,0,0,1,3-1.27,20.5,20.5,0,0,0,2.31,4.54A12,12,0,0,1,7.28,24.22ZM15.44,28a18.06,18.06,0,0,1-3.26-5.55A18.16,18.16,0,0,1,16,22a18.94,18.94,0,0,1,3.82.42A18.06,18.06,0,0,1,16.56,28c-.19,0-.37,0-.56,0S15.63,28,15.44,28Zm4-.48A20,20,0,0,0,21.75,23a18.52,18.52,0,0,1,3,1.27A12,12,0,0,1,19.45,27.49Z"/></g></svg>