<svg xmlns="http://www.w3.org/2000/svg" viewBox="0 0 32 32"><g id="shopping_bag" data-name="shopping bag"><path d="M25.11,9.14A2.35,2.35,0,0,0,22.76,7H21A5,5,0,0,0,11,7H9.24A2.35,2.35,0,0,0,6.89,9.14L5.29,25.86A3.79,3.79,0,0,0,9.06,30H22.94a3.79,3.79,0,0,0,3.77-4.14ZM16,4a3,3,0,0,1,3,3H13A3,3,0,0,1,16,4Zm8.26,23.42a1.78,1.78,0,0,1-1.32.58H9.06a1.77,1.77,0,0,1-1.77-1.95L8.88,9.33A.36.36,0,0,1,9.24,9H11v2a1,1,0,0,0,2,0V9h6v2a1,1,0,0,0,2,0V9h1.76a.36.36,0,0,1,.36.33l1.59,16.72A1.76,1.76,0,0,1,24.26,27.42Z"/></g></svg>