<svg xmlns="http://www.w3.org/2000/svg" viewBox="0 0 32 32"><g id="wifi"><path d="M16,2A14,14,0,1,0,30,16,14,14,0,0,0,16,2Zm0,26A12,12,0,1,1,28,16,12,12,0,0,1,16,28Z"/><path d="M16,19a6,6,0,0,0-3.6,1.2,1,1,0,0,0,1.2,1.6,4,4,0,0,1,4.8,0,1,1,0,0,0,.6.2,1,1,0,0,0,.8-.4,1,1,0,0,0-.2-1.4A6.07,6.07,0,0,0,16,19Z"/><path d="M16,15a11.11,11.11,0,0,0-6.6,2.2,1,1,0,0,0-.2,1.4,1,1,0,0,0,.8.4,1,1,0,0,0,.6-.2,9,9,0,0,1,10.8,0,1,1,0,1,0,1.2-1.6A11.11,11.11,0,0,0,16,15Z"/><path d="M24.66,14.25A13.38,13.38,0,0,0,16,11a13.38,13.38,0,0,0-8.66,3.25,1,1,0,0,0,1.32,1.5A11.4,11.4,0,0,1,16,13a11.4,11.4,0,0,1,7.34,2.75,1,1,0,1,0,1.32-1.5Z"/></g></svg>