<?xml version="1.0" encoding="UTF-8"?>
<svg id="plane" xmlns="http://www.w3.org/2000/svg" viewBox="0 0 34 34">
  <defs>
    <style>
      .cls-1 {
        fill: #392e44;
      }

      .cls-2 {
        fill: #fef0e9;
      }

      .cls-3 {
        fill: #d60014;
      }
    </style>
  </defs>
  <circle class="cls-2" cx="17" cy="17" r="17"/>
  <g>
    <path class="cls-1" d="m27.09,15.06l-8.03-6.8c-1.19-1.01-2.92-1.01-4.11,0l-8.03,6.8c-.31.26-.35.73-.09,1.04.26.31.73.35,1.04.09l1-.85v7.28c0,1.44,1.17,2.61,2.61,2.61h11.04c1.44,0,2.61-1.17,2.61-2.61v-7.28l1,.85c.14.12.31.18.48.18.21,0,.42-.09.57-.26.26-.31.22-.78-.09-1.04Zm-3.43-.91v8.48c0,.62-.51,1.13-1.13,1.13h-11.04c-.62,0-1.13-.51-1.13-1.13v-8.48s0-.03,0-.05l5.56-4.71c.64-.54,1.57-.54,2.2,0l5.56,4.71s0,.03,0,.05Z"/>
    <path class="cls-3" d="m16.09,15.75c-.74,0-1.46.34-2.15,1-.09-.33-.14-.67-.07-.98.09-.42.27-.81.54-1.15.26-.32.21-.78-.11-1.04-.32-.25-.78-.2-1.04.11-.42.52-.71,1.14-.84,1.79-.25,1.23.35,2.48.71,3.12.24.81.9,2.35,2.54,3.18.66.33,1.38.5,2.18.5.87-.04,2.15-.27,3.34-1.15h0c.35-.26.67-.56.96-.89.15-.17.21-.41.17-.63s-.19-.41-.39-.52c-.86-.43-1.71-.94-2.52-1.5-.4-.28-.73-.53-1.01-.75-.81-.62-1.4-1.08-2.28-1.08h0Zm2.45,3.04c.58.4,1.17.78,1.78,1.12h-.02c-.9.67-1.87.84-2.5.87-.53,0-1.03-.12-1.48-.34-.59-.3-.99-.74-1.28-1.18l1.23.46c.09.03.17.05.26.05.3,0,.58-.18.69-.48.14-.38-.05-.81-.43-.95l-1.71-.64c.31-.27.66-.46,1-.46h0c.36,0,.67.22,1.38.77.3.23.64.49,1.06.79Z"/>
  </g>
</svg>