<?xml version="1.0" encoding="UTF-8"?>
<svg id="plane" xmlns="http://www.w3.org/2000/svg" viewBox="0 0 34 34">
  <defs>
    <style>
      .cls-1 {
        fill: #392e44;
      }

      .cls-2 {
        fill: #fef0e9;
      }

      .cls-3 {
        fill: #d60014;
      }
    </style>
  </defs>
  <circle class="cls-2" cx="17" cy="17" r="17"/>
  <g>
    <path class="cls-1" d="m26.68,19.76l-7.32-11.32c-.51-.79-1.37-1.26-2.31-1.26s-1.8.47-2.31,1.26l-7.32,11.32c-.56.86-.6,1.91-.11,2.81.49.9,1.39,1.44,2.42,1.44h14.65c1.02,0,1.93-.54,2.42-1.44.49-.9.45-1.95-.11-2.81Zm-1.21,2.09c-.22.41-.63.65-1.1.65h-14.65c-.47,0-.88-.24-1.1-.65-.22-.41-.2-.89.05-1.28l7.32-11.32c.23-.36.62-.57,1.05-.57s.81.21,1.05.57l7.32,11.32c.25.39.27.87.05,1.28Z"/>
    <path class="cls-3" d="m17.05,18c.41,0,.75-.34.75-.75v-5c0-.41-.34-.75-.75-.75s-.75.34-.75.75v5c0,.41.34.75.75.75Z"/>
    <path class="cls-3" d="m17.06,19.5h0c-.41,0-.75.34-.75.75s.34.75.75.75.75-.34.75-.75-.33-.75-.75-.75Z"/>
  </g>
</svg>