<?xml version="1.0" encoding="utf-8"?>
<!-- Generator: Adobe Illustrator 27.3.1, SVG Export Plug-In . SVG Version: 6.00 Build 0)  -->
<svg version="1.1" id="Camada_1" xmlns="http://www.w3.org/2000/svg" xmlns:xlink="http://www.w3.org/1999/xlink" x="0px" y="0px"
	 viewBox="0 0 500 188.5" style="enable-background:new 0 0 500 188.5;" xml:space="preserve">
<style type="text/css">
	.st0{display:none;fill:#848484;}
	.st1{fill:#FFFFFF;}
	.st2{fill:#FF850A;}
	.st3{fill:#FFE0C2;}
</style>
<g>
	<path class="st0" d="M142.4,72.1c-3.4,7.2-6.6,14.5-10.3,21.6c-1.9,3.7-3.9,8.5-9.2,7.9c-3.8-0.4-5.6-4.1-7.4-7.3
		c-4.9-8.8-7.1-19.1-14.2-26.7c-0.4-1.2-0.8-3.5-1.1-3.4c-3,0.2-1.9,2.2-1.5,3.9c0,17.8,0,35.6-0.1,53.5c0,4.4-0.1,8.9-0.8,13.3
		c-0.3,1.9-2,3.6-4.6,3.8c-2.7,0.2-4.6-1.2-5.3-3c-1-2.7-1.1-5.8-1.1-8.7c-0.1-29.7-0.1-59.4,0-89.1c0-2.9,0.7-5.8,1.3-8.7
		c0.4-2,6.3-3.5,7.6-1.9c2.3,2.9,4.6,5.8,6.2,9c6.8,13.8,13.4,27.7,19.9,41.3c7.7-1.1,7.6-7.7,9.9-11.8c6.5-11.6,12-23.8,18.1-35.6
		c1.4-2.7,4-4.2,7.4-3.3c3.5,0.9,4.4,3.7,4.4,6.7c0.1,32.7,0.1,65.3,0,98c0,1.4-0.2,3.4-1.1,4.2c-1.5,1.3-3.5,2.4-5.5,2.7
		c-2.5,0.4-4.2-1.8-4.5-3.8c-0.6-3.6-0.7-7.4-0.7-11.1c-0.1-17.1,0-34.2,0-51.2c0.4-1.4,1-2.8,1-4.2c0-1.4-0.2-3.5-1.1-4
		c-2-1.2-4.1,0-5.1,1.9C143.6,68,143.1,70.1,142.4,72.1z"/>
</g>
<g>
	<g>
		<g>
			<path class="st1" d="M13.3,124.6c0.3,0.3,0.5,0.7,0.5,1.1v16.5c0,0.5-0.2,0.9-0.5,1.2s-0.7,0.4-1.2,0.4s-0.9-0.1-1.2-0.4
				c-0.3-0.3-0.5-0.7-0.5-1.2v-0.7c-0.4,0.7-1,1.3-1.7,1.7s-1.6,0.6-2.6,0.6c-1.1,0-2.2-0.3-3.1-0.9s-1.6-1.4-2.1-2.5S0,138,0,136.6
				s0.2-2.6,0.8-3.6c0.5-1,1.2-1.8,2.1-2.4c0.9-0.6,1.9-0.8,3.1-0.8c1,0,1.8,0.2,2.6,0.6c0.7,0.4,1.3,1,1.7,1.7v-6.6
				c0-0.5,0.2-0.8,0.5-1.1s0.7-0.4,1.2-0.4C12.6,124.1,13,124.3,13.3,124.6z M9.5,140.1c0.6-0.7,0.9-1.8,0.9-3.2s-0.3-2.4-0.9-3.2
				c-0.6-0.7-1.4-1.1-2.5-1.1s-1.9,0.4-2.5,1.1c-0.6,0.7-0.9,1.8-0.9,3.1c0,1.4,0.3,2.5,0.9,3.2c0.6,0.8,1.4,1.1,2.5,1.1
				C8.1,141.3,8.9,140.9,9.5,140.1z"/>
			<path class="st1" d="M28.8,140.4c0.2,0.2,0.3,0.6,0.3,1c0,0.6-0.3,1-1,1.4c-0.6,0.3-1.3,0.6-2.1,0.8c-0.8,0.2-1.5,0.3-2.2,0.3
				c-2.1,0-3.9-0.6-5.2-1.9c-1.3-1.2-1.9-2.9-1.9-5.2c0-1.4,0.3-2.6,0.8-3.6c0.5-1.1,1.3-1.9,2.3-2.5s2.1-0.9,3.4-0.9
				c1.2,0,2.2,0.3,3.1,0.8s1.6,1.3,2.1,2.2c0.5,1,0.7,2.1,0.7,3.4c0,0.8-0.3,1.2-1,1.2H20c0.1,1.3,0.5,2.2,1.1,2.8s1.5,0.9,2.6,0.9
				c0.6,0,1.1-0.1,1.5-0.2s1-0.3,1.5-0.6s0.9-0.4,1.2-0.4C28.4,140,28.7,140.1,28.8,140.4z M21,133.2c-0.6,0.6-0.9,1.4-1,2.5h6.3
				c0-1.1-0.3-2-0.8-2.5c-0.5-0.6-1.2-0.9-2.1-0.9C22.3,132.4,21.6,132.6,21,133.2z"/>
			<path class="st1" d="M32.2,142.8c-0.6-0.3-0.9-0.8-0.9-1.5c0-0.4,0.1-0.7,0.3-0.9s0.4-0.3,0.7-0.3s0.7,0.1,1.3,0.4
				c0.6,0.3,1.1,0.5,1.6,0.6s1.1,0.2,1.8,0.2c0.8,0,1.4-0.1,1.8-0.4c0.4-0.3,0.6-0.6,0.6-1.1c0-0.3-0.1-0.6-0.3-0.7
				c-0.2-0.2-0.5-0.4-0.9-0.5c-0.4-0.2-1.1-0.3-2-0.5c-1.6-0.3-2.8-0.8-3.5-1.4c-0.7-0.6-1.1-1.4-1.1-2.5c0-0.8,0.2-1.5,0.7-2.2
				c0.5-0.6,1.1-1.1,2-1.5c0.8-0.4,1.8-0.5,2.8-0.5c0.8,0,1.5,0.1,2.2,0.3s1.3,0.5,1.9,0.8c0.6,0.4,0.9,0.8,0.9,1.4
				c0,0.4-0.1,0.7-0.3,0.9s-0.4,0.4-0.7,0.4c-0.2,0-0.4,0-0.6-0.1c-0.2-0.1-0.4-0.2-0.7-0.4c-0.5-0.3-1-0.5-1.4-0.6
				s-0.9-0.2-1.4-0.2c-0.7,0-1.2,0.1-1.6,0.4c-0.4,0.3-0.6,0.6-0.6,1.1s0.2,0.8,0.6,1c0.4,0.2,1.2,0.5,2.3,0.7
				c1.2,0.3,2.2,0.5,2.9,0.9s1.2,0.7,1.5,1.2s0.5,1.1,0.5,1.9c0,1.2-0.5,2.2-1.5,3c-1,0.7-2.4,1.1-4.1,1.1
				C35,144,33.4,143.6,32.2,142.8z"/>
			<path class="st1" d="M45.7,127c-0.4-0.3-0.5-0.8-0.5-1.3s0.2-1,0.5-1.3c0.4-0.3,0.9-0.5,1.5-0.5s1.1,0.2,1.5,0.5s0.6,0.8,0.6,1.3
				s-0.2,1-0.5,1.3c-0.4,0.3-0.9,0.5-1.5,0.5C46.6,127.5,46.1,127.3,45.7,127z M46,143.5c-0.3-0.3-0.5-0.7-0.5-1.2v-10.6
				c0-0.5,0.2-0.9,0.5-1.2s0.7-0.4,1.2-0.4s0.9,0.1,1.2,0.4c0.3,0.3,0.5,0.7,0.5,1.2v10.6c0,0.5-0.2,0.9-0.5,1.2s-0.7,0.4-1.2,0.4
				S46.3,143.8,46,143.5z"/>
			<path class="st1" d="M65.2,130.3c0.3,0.3,0.5,0.7,0.5,1.2v10.9c0,2.1-0.6,3.7-1.7,4.9c-1.2,1.1-2.9,1.6-5.3,1.6
				c-2,0-3.6-0.4-5.1-1.1c-0.7-0.4-1-0.9-1-1.4c0-0.4,0.1-0.7,0.3-1c0.2-0.2,0.4-0.4,0.8-0.4c0.2,0,0.4,0,0.6,0.1
				c0.2,0.1,0.5,0.2,0.7,0.3c0.7,0.3,1.2,0.5,1.8,0.6c0.5,0.1,1.1,0.2,1.8,0.2c2.4,0,3.6-1.2,3.6-3.5V141c-0.4,0.7-1,1.3-1.7,1.7
				c-0.8,0.4-1.6,0.6-2.6,0.6c-1.2,0-2.2-0.3-3.1-0.8c-0.9-0.5-1.6-1.3-2.1-2.3s-0.8-2.2-0.8-3.5s0.2-2.5,0.8-3.5
				c0.5-1,1.2-1.8,2.1-2.3c0.9-0.6,1.9-0.8,3.1-0.8c1,0,1.9,0.2,2.6,0.6c0.7,0.4,1.3,1,1.7,1.7v-0.7c0-0.5,0.2-0.9,0.5-1.1
				c0.3-0.3,0.7-0.4,1.2-0.4C64.4,129.9,64.9,130.1,65.2,130.3z M61.3,139.5c0.6-0.7,0.9-1.7,0.9-2.9c0-1.3-0.3-2.2-0.9-3
				c-0.6-0.7-1.5-1.1-2.6-1.1s-1.9,0.4-2.5,1.1c-0.6,0.7-0.9,1.7-0.9,3c0,1.2,0.3,2.2,0.9,2.9c0.6,0.7,1.5,1.1,2.5,1.1
				C59.9,140.7,60.7,140.4,61.3,139.5z"/>
			<path class="st1" d="M80.7,131.2c0.8,0.9,1.2,2.3,1.2,4.1v6.8c0,0.5-0.2,0.9-0.5,1.2s-0.7,0.4-1.2,0.4s-0.9-0.1-1.3-0.4
				c-0.3-0.3-0.5-0.7-0.5-1.2v-6.6c0-1-0.2-1.8-0.6-2.3s-1-0.7-1.8-0.7c-1,0-1.8,0.3-2.4,0.9c-0.6,0.6-0.9,1.4-0.9,2.5v6.2
				c0,0.5-0.2,0.9-0.5,1.2s-0.7,0.4-1.3,0.4c-0.5,0-0.9-0.1-1.2-0.4c-0.3-0.3-0.5-0.7-0.5-1.2v-10.7c0-0.5,0.2-0.9,0.5-1.1
				c0.3-0.3,0.7-0.4,1.3-0.4c0.5,0,0.9,0.1,1.2,0.4c0.3,0.3,0.5,0.7,0.5,1.1v0.7c0.5-0.7,1.1-1.3,1.8-1.7c0.8-0.4,1.6-0.6,2.6-0.6
				C78.7,129.8,79.9,130.3,80.7,131.2z"/>
			<path class="st1" d="M92.9,142.8c-0.6-0.3-0.9-0.8-0.9-1.5c0-0.4,0.1-0.7,0.3-0.9c0.2-0.2,0.4-0.3,0.7-0.3s0.7,0.1,1.3,0.4
				s1.1,0.5,1.6,0.6s1.1,0.2,1.8,0.2c0.8,0,1.4-0.1,1.8-0.4s0.6-0.6,0.6-1.1c0-0.3-0.1-0.6-0.3-0.7c-0.2-0.2-0.5-0.4-0.9-0.5
				c-0.4-0.2-1.1-0.3-2-0.5c-1.6-0.3-2.8-0.8-3.5-1.4c-0.7-0.6-1.1-1.4-1.1-2.5c0-0.8,0.2-1.5,0.7-2.2c0.5-0.6,1.1-1.1,2-1.5
				c0.8-0.4,1.8-0.5,2.8-0.5c0.8,0,1.5,0.1,2.2,0.3s1.3,0.5,1.9,0.8c0.6,0.4,0.9,0.8,0.9,1.4c0,0.4-0.1,0.7-0.3,0.9
				s-0.4,0.4-0.7,0.4c-0.2,0-0.4,0-0.6-0.1s-0.4-0.2-0.7-0.4c-0.5-0.3-1-0.5-1.4-0.6s-0.9-0.2-1.4-0.2c-0.7,0-1.2,0.1-1.6,0.4
				c-0.4,0.3-0.6,0.6-0.6,1.1s0.2,0.8,0.6,1s1.2,0.5,2.3,0.7c1.2,0.3,2.2,0.5,2.9,0.9c0.7,0.4,1.2,0.7,1.5,1.2s0.5,1.1,0.5,1.9
				c0,1.2-0.5,2.2-1.5,3c-1,0.7-2.4,1.1-4.1,1.1C95.8,144,94.1,143.6,92.9,142.8z"/>
			<path class="st1" d="M116.1,130.2c0.2-0.2,0.5-0.2,0.8-0.2c0.4,0,0.8,0.1,1.1,0.4c0.3,0.3,0.5,0.6,0.5,1.1c0,0.2-0.1,0.4-0.2,0.6
				l-7.6,15.8c-0.3,0.6-0.8,0.9-1.4,0.9c-0.4,0-0.8-0.1-1.1-0.4c-0.3-0.3-0.5-0.6-0.5-1c0-0.2,0.1-0.4,0.2-0.7l1.9-3.9l-5.2-10.7
				c-0.1-0.2-0.1-0.4-0.1-0.6c0-0.4,0.2-0.8,0.5-1.1c0.4-0.3,0.8-0.4,1.2-0.4c0.3,0,0.6,0.1,0.8,0.2c0.3,0.2,0.5,0.4,0.6,0.7
				l3.8,8.5l3.8-8.5C115.7,130.6,115.9,130.3,116.1,130.2z"/>
			<path class="st1" d="M120.4,142.8c-0.6-0.3-0.9-0.8-0.9-1.5c0-0.4,0.1-0.7,0.3-0.9c0.2-0.2,0.4-0.3,0.7-0.3s0.7,0.1,1.3,0.4
				c0.6,0.3,1.1,0.5,1.6,0.6s1.1,0.2,1.8,0.2c0.8,0,1.4-0.1,1.8-0.4c0.4-0.3,0.6-0.6,0.6-1.1c0-0.3-0.1-0.6-0.3-0.7
				c-0.2-0.2-0.5-0.4-0.9-0.5c-0.4-0.2-1.1-0.3-2-0.5c-1.6-0.3-2.8-0.8-3.5-1.4c-0.7-0.6-1.1-1.4-1.1-2.5c0-0.8,0.2-1.5,0.7-2.2
				c0.5-0.6,1.1-1.1,2-1.5c0.8-0.4,1.8-0.5,2.8-0.5c0.8,0,1.5,0.1,2.2,0.3s1.3,0.5,1.9,0.8c0.6,0.4,0.9,0.8,0.9,1.4
				c0,0.4-0.1,0.7-0.3,0.9s-0.4,0.4-0.7,0.4c-0.2,0-0.4,0-0.6-0.1c-0.2-0.1-0.4-0.2-0.7-0.4c-0.5-0.3-1-0.5-1.4-0.6
				s-0.9-0.2-1.4-0.2c-0.7,0-1.2,0.1-1.6,0.4c-0.4,0.3-0.6,0.6-0.6,1.1s0.2,0.8,0.6,1s1.2,0.5,2.3,0.7c1.2,0.3,2.2,0.5,2.9,0.9
				s1.2,0.7,1.5,1.2s0.5,1.1,0.5,1.9c0,1.2-0.5,2.2-1.5,3c-1,0.7-2.4,1.1-4.1,1.1C123.3,144,121.7,143.6,120.4,142.8z"/>
			<path class="st1" d="M142.1,142.6c0,0.4-0.2,0.8-0.5,1s-0.9,0.3-1.5,0.3l-0.7-0.1c-3.1-0.2-4.7-1.9-4.7-5v-6.1h-1.4
				c-0.5,0-0.9-0.1-1.1-0.3c-0.3-0.2-0.4-0.5-0.4-1c0-0.4,0.1-0.7,0.4-1c0.3-0.2,0.6-0.3,1.1-0.3h1.4v-2.5c0-0.5,0.2-0.9,0.5-1.2
				c0.3-0.3,0.7-0.4,1.3-0.4c0.5,0,0.9,0.1,1.2,0.4s0.5,0.7,0.5,1.2v2.5h2.3c0.5,0,0.9,0.1,1.1,0.3c0.2,0.2,0.4,0.5,0.4,1
				c0,0.4-0.1,0.7-0.4,1c-0.3,0.3-0.6,0.3-1.1,0.3h-2.3v6.3c0,1.3,0.6,2.1,1.9,2.2l0.7,0.1C141.7,141.4,142.1,141.8,142.1,142.6z"/>
			<path class="st1" d="M155.3,140.4c0.2,0.2,0.3,0.6,0.3,1c0,0.6-0.3,1-1,1.4c-0.6,0.3-1.3,0.6-2.1,0.8s-1.5,0.3-2.2,0.3
				c-2.1,0-3.9-0.6-5.2-1.9c-1.3-1.2-1.9-2.9-1.9-5.2c0-1.4,0.3-2.6,0.8-3.6c0.5-1.1,1.3-1.9,2.3-2.5s2.1-0.9,3.4-0.9
				c1.2,0,2.2,0.3,3.1,0.8c0.9,0.5,1.6,1.3,2.1,2.2c0.5,1,0.7,2.1,0.7,3.4c0,0.8-0.3,1.2-1,1.2h-8.2c0.1,1.3,0.5,2.2,1.1,2.8
				s1.5,0.9,2.6,0.9c0.6,0,1.1-0.1,1.5-0.2c0.4-0.1,1-0.3,1.5-0.6s0.9-0.4,1.2-0.4C154.9,140,155.1,140.1,155.3,140.4z M147.5,133.2
				c-0.6,0.6-0.9,1.4-1,2.5h6.3c0-1.1-0.3-2-0.8-2.5c-0.5-0.6-1.2-0.9-2.1-0.9C148.9,132.4,148.2,132.6,147.5,133.2z"/>
			<path class="st1" d="M178,131.1c0.8,0.9,1.2,2.3,1.2,4.2v6.8c0,0.5-0.2,0.9-0.5,1.2s-0.7,0.4-1.2,0.4s-0.9-0.1-1.2-0.4
				c-0.3-0.3-0.5-0.7-0.5-1.2v-6.8c0-1-0.2-1.7-0.5-2.1c-0.4-0.4-0.9-0.6-1.6-0.6c-0.9,0-1.6,0.3-2.1,0.9s-0.8,1.4-0.8,2.5v6.2
				c0,0.5-0.2,0.9-0.5,1.2s-0.7,0.4-1.2,0.4s-0.9-0.1-1.2-0.4c-0.3-0.3-0.5-0.7-0.5-1.2v-6.8c0-1-0.2-1.7-0.5-2.1
				c-0.4-0.4-0.9-0.6-1.6-0.6c-0.9,0-1.6,0.3-2.1,0.9c-0.5,0.6-0.8,1.4-0.8,2.5v6.2c0,0.5-0.2,0.9-0.5,1.2s-0.7,0.4-1.2,0.4
				s-0.9-0.1-1.2-0.4c-0.3-0.3-0.5-0.7-0.5-1.2v-10.7c0-0.5,0.2-0.9,0.5-1.2s0.7-0.4,1.2-0.4s0.9,0.1,1.2,0.4
				c0.3,0.3,0.5,0.6,0.5,1.1v0.7c0.4-0.7,1-1.3,1.7-1.7s1.5-0.6,2.4-0.6c2,0,3.3,0.8,4,2.5c0.4-0.8,1-1.4,1.8-1.8
				c0.8-0.4,1.7-0.7,2.7-0.7C176.1,129.8,177.3,130.3,178,131.1z"/>
		</g>
	</g>
	<g>
		<g>
			<g>
				<path class="st2" d="M325.3,24.7c1.9,1.8,2.9,4.2,2.9,7.2v41.7c0,3-1,5.5-2.9,7.3s-4.6,2.6-7.8,2.6c-3,0-5.5-0.8-7.4-2.3
					c-1.9-1.6-2.9-3.7-3.2-6.5c-1.7,2.8-4.1,5.1-7.5,6.7c-3.2,1.6-6.9,2.4-10.8,2.4c-5.2,0-9.7-1.2-13.8-3.7
					c-4-2.5-7.1-6.1-9.3-10.7c-2.2-4.7-3.3-10-3.3-16.2s1.1-11.6,3.4-16.4c2.2-4.8,5.4-8.5,9.4-11.1s8.6-3.9,13.7-3.9
					c3.9,0,7.6,0.8,10.8,2.4c3.2,1.6,5.8,3.8,7.5,6.7c0.2-2.7,1.2-5,3.1-6.5c1.9-1.6,4.3-2.3,7.5-2.3
					C320.8,22,323.4,22.9,325.3,24.7z M304,63.9c2-2.5,3-6.2,3-10.9c0-4.9-1-8.6-3-11.1c-2-2.6-5-3.8-8.7-3.8c-3.6,0-6.5,1.3-8.6,4
					c-2,2.6-3.1,6.5-3.1,11.2s1,8.3,3,10.8c2,2.5,4.9,3.7,8.6,3.7C299,67.7,302,66.5,304,63.9z"/>
			</g>
		</g>
		<g>
			<g>
				<path class="st2" d="M497.3,54.6c1.9,1.8,2.9,4.2,2.9,7.2v41.7c0,3-1,5.5-2.9,7.3s-4.6,2.6-7.8,2.6c-3,0-5.5-0.8-7.4-2.3
					c-1.9-1.6-2.9-3.7-3.2-6.5c-1.7,2.8-4.1,5.1-7.5,6.7c-3.2,1.6-6.9,2.4-10.8,2.4c-5.2,0-9.7-1.2-13.8-3.7
					c-4-2.5-7.1-6.1-9.3-10.7c-2.2-4.7-3.3-10-3.3-16.2s1.1-11.6,3.4-16.4c2.2-4.8,5.4-8.5,9.4-11.1s8.6-3.9,13.7-3.9
					c3.9,0,7.6,0.8,10.8,2.4c3.2,1.6,5.8,3.8,7.5,6.7c0.2-2.7,1.2-5,3.1-6.5c1.9-1.6,4.3-2.3,7.5-2.3
					C492.9,51.9,495.4,52.8,497.3,54.6z M476,93.7c2-2.5,3-6.2,3-10.9c0-4.9-1-8.6-3-11.1c-2-2.6-5-3.8-8.7-3.8
					c-3.6,0-6.5,1.3-8.6,4c-2,2.6-3.1,6.5-3.1,11.2s1,8.3,3,10.8s4.9,3.7,8.6,3.7C471.1,97.6,474,96.3,476,93.7z"/>
			</g>
		</g>
		<path class="st2" d="M3.5,109.4c-1.8-1.8-2.6-4.3-2.6-7.7V36.9c0-3.3,0.9-5.9,2.6-7.7c1.8-1.8,4.3-2.6,7.7-2.6h42
			c3.4,0,6.1,0.7,7.9,2.2c1.8,1.4,2.6,3.5,2.6,6.3c0,5.9-3.5,8.7-10.5,8.7H22.6v16.3h28.1c7.1,0,10.5,2.8,10.5,8.6
			c0,2.7-0.9,4.9-2.6,6.3c-1.8,1.4-4.4,2.2-7.9,2.2H22.6v17.7h30.5c7.1,0,10.5,2.9,10.5,8.7c0,2.7-0.9,4.9-2.6,6.3
			c-1.8,1.4-4.4,2.2-7.9,2.2H11.2C7.9,112,5.4,111.1,3.5,109.4z"/>
		<path class="st2" d="M168.2,56.8c3.5,3.9,5.4,10.5,5.4,19.8v26.2c0,3.3-1,5.8-3.1,7.5c-2,1.6-4.7,2.5-7.7,2.5s-5.7-0.8-7.7-2.5
			c-2-1.6-3.1-4.1-3.1-7.5V76.1c0-3.2-0.6-5.5-1.7-6.8c-1.1-1.3-2.8-1.9-5-1.9c-2.8,0-5.1,1-6.8,3s-2.5,4.9-2.5,8.4v24
			c0,3.3-1,5.8-3,7.5c-2,1.6-4.7,2.5-7.8,2.5c-3,0-5.7-0.8-7.7-2.5c-2-1.6-3.1-4.1-3.1-7.5V76.1c0-3.2-0.6-5.5-1.7-6.8
			s-2.8-1.9-5-1.9c-2.8,0-5.1,1-6.8,3c-1.6,2-2.5,4.9-2.5,8.4v24c0,3.3-1,5.8-3.1,7.5c-2,1.6-4.7,2.5-7.7,2.5s-5.7-0.8-7.7-2.5
			c-2-1.6-3.1-4.1-3.1-7.5v-42c0-3.1,1.1-5.6,3.2-7.2c2.1-1.6,4.8-2.5,7.7-2.5c2.8,0,5.2,0.7,7.1,2.2s2.9,3.6,2.9,6.5
			c3.9-6,10-9,18.2-9c8.6,0,14.5,3.5,17.3,10.5c2-3.2,4.8-5.8,8.1-7.7c3.4-1.9,7.3-2.8,11.5-2.8C159.6,51,164.6,52.9,168.2,56.8z"/>
		<path class="st2" d="M240.6,54.9c4,2.6,7.1,6.4,9.3,11.1c2.2,4.8,3.3,10.2,3.3,16.4c0,6.2-1.1,11.5-3.3,16.2
			c-2.2,4.7-5.4,8.2-9.3,10.7c-3.9,2.5-8.5,3.7-13.7,3.7c-3.8,0-7.3-0.8-10.5-2.3s-5.7-3.6-7.5-6.2v20.6c0,2.8-1,5.1-2.9,6.8
			s-4.4,2.5-7.7,2.5s-6-0.9-8-2.7s-3-4.1-3-7V61.2c0-3,0.9-5.4,2.8-7.2s4.4-2.7,7.7-2.7c3,0,5.6,0.8,7.5,2.4
			c1.9,1.6,2.9,3.7,3.2,6.5c1.7-2.8,4.1-5.1,7.5-6.7c3.2-1.6,6.9-2.4,10.8-2.4C232,51,236.5,52.3,240.6,54.9z M228.9,93.1
			c2-2.5,2.9-6.1,2.9-10.8c0-5-1-8.7-3-11.3s-4.8-4-8.5-4s-6.6,1.3-8.6,3.8c-2,2.6-3,6.3-3,11.1c0,4.8,1,8.4,3,10.9s5,3.8,8.7,3.8
			C224.1,96.9,226.9,95.7,228.9,93.1z"/>
		<path class="st2" d="M388,104.7c0,2.8-1.1,5-3.2,6.3c-2.2,1.4-5.3,1.9-9.3,1.7l-3.4-0.2c-7.3-0.6-12.7-2.7-16.6-6.6
			c-3.7-3.8-5.7-9.2-5.7-16.1V44.1h-3.5c-6.5,0-9.7-2.6-9.7-8c0-5.3,3.2-7.9,9.7-7.9h3.5v-7.9c0-3,1-5.6,2.9-7.4s4.6-2.7,7.9-2.7
			s6,0.9,7.9,2.7s2.9,4.2,2.9,7.4v7.9h6.7c6.5,0,9.7,2.6,9.7,7.9c0,5.4-3.2,8-9.7,8h-6.7v47.5c0,1.5,0.5,2.8,1.4,3.8
			s2.1,1.6,3.5,1.7l3.5,0.2C385.3,97.7,388,100.1,388,104.7z"/>
	</g>
	<g>
		<g>
			<path class="st3" d="M400.1,110.3c-2-1.6-3.1-4.1-3.1-7.5V61.2c0-3.3,1-5.8,3.1-7.5c2-1.6,4.7-2.5,7.7-2.5s5.7,0.8,7.7,2.5
				c2,1.6,3.1,4.1,3.1,7.5v41.7c0,3.3-1,5.8-3.1,7.5c-2,1.6-4.7,2.5-7.7,2.5C404.7,112.7,402.1,111.9,400.1,110.3z"/>
			<path class="st3" d="M368,171.9c-18.8,0-37.7-7.5-54-21.6c-4.6-3.9-5.1-10.9-1.1-15.6c3.9-4.7,10.9-5.1,15.6-1.1
				c14.1,12.1,30.2,17.8,45.5,15.9c15.2-1.9,29-11.3,40.2-27.3c3.4-5,10.3-6.2,15.4-2.7c5,3.4,6.2,10.3,2.7,15.4
				c-14.9,21.2-34.1,33.9-55.6,36.5C373.7,171.7,370.9,171.9,368,171.9z"/>
		</g>
		<path class="st3" d="M327.5,111.8c-1.6,2-4.1,3.1-7.5,3.1h-41.7c-3.3,0-5.8-1-7.5-3.1c-1.6-2-2.5-4.7-2.5-7.7s0.8-5.7,2.5-7.7
			c1.6-2,4.1-3.1,7.5-3.1H320c3.3,0,5.8,1,7.5,3.1c1.6,2,2.5,4.7,2.5,7.7C330,107.2,329.2,109.8,327.5,111.8z"/>
	</g>
</g>
</svg>
