<?xml version="1.0" encoding="utf-8"?>
<!-- Generator: Adobe Illustrator 27.1.1, SVG Export Plug-In . SVG Version: 6.00 Build 0)  -->
<svg version="1.1" id="Camada_1" xmlns="http://www.w3.org/2000/svg" xmlns:xlink="http://www.w3.org/1999/xlink" x="0px" y="0px"
	 viewBox="0 0 500 188.5" style="enable-background:new 0 0 500 188.5;" xml:space="preserve">
<style type="text/css">
	.st0{display:none;fill:#848484;}
	.st1{fill:#B3B9C4;}
	.st2{fill:#DCDFE4;}
</style>
<g>
	<path class="st0" d="M142.4,72.1c-3.4,7.2-6.6,14.5-10.3,21.6c-1.9,3.7-3.9,8.5-9.2,7.9c-3.8-0.4-5.6-4.1-7.4-7.3
		c-4.9-8.8-7.1-19.1-14.2-26.7c-0.4-1.2-0.8-3.5-1.1-3.4c-3,0.2-1.9,2.2-1.5,3.9c0,17.8,0,35.6-0.1,53.5c0,4.4-0.1,8.9-0.8,13.3
		c-0.3,1.9-2,3.6-4.6,3.8c-2.7,0.2-4.6-1.2-5.3-3c-1-2.7-1.1-5.8-1.1-8.7c-0.1-29.7-0.1-59.4,0-89.1c0-2.9,0.7-5.8,1.3-8.7
		c0.4-2,6.3-3.5,7.6-1.9c2.3,2.9,4.6,5.8,6.2,9c6.8,13.8,13.4,27.7,19.9,41.3c7.7-1.1,7.6-7.7,9.9-11.8c6.5-11.6,12-23.8,18.1-35.6
		c1.4-2.7,4-4.2,7.4-3.3c3.5,0.9,4.4,3.7,4.4,6.7c0.1,32.7,0.1,65.3,0,98c0,1.4-0.2,3.4-1.1,4.2c-1.5,1.3-3.5,2.4-5.5,2.7
		c-2.5,0.4-4.2-1.8-4.5-3.8c-0.6-3.6-0.7-7.4-0.7-11.1c-0.1-17.1,0-34.2,0-51.2c0.4-1.4,1-2.8,1-4.2c0-1.4-0.2-3.5-1.1-4
		c-2-1.2-4.1,0-5.1,1.9C143.6,68,143.1,70.1,142.4,72.1z"/>
</g>
<g>
	<g>
		<path class="st1" d="M16.6,118.5c0.3,0.3,0.5,0.7,0.5,1.1v16.3c0,0.5-0.2,0.9-0.5,1.2s-0.7,0.4-1.2,0.4s-0.9-0.1-1.2-0.4
			c-0.3-0.3-0.5-0.7-0.5-1.2v-0.7c-0.4,0.7-1,1.3-1.7,1.7s-1.6,0.6-2.6,0.6c-1.1,0-2.2-0.3-3.1-0.9c-0.9-0.6-1.6-1.4-2.1-2.5
			s-0.8-2.3-0.8-3.7s0.2-2.6,0.8-3.6c0.5-1,1.2-1.8,2.1-2.4s1.9-0.8,3.1-0.8c1,0,1.8,0.2,2.6,0.6c0.7,0.4,1.3,1,1.7,1.7v-6.5
			c0-0.5,0.2-0.8,0.5-1.1s0.7-0.4,1.2-0.4C15.9,118,16.3,118.2,16.6,118.5z M12.8,133.9c0.6-0.7,0.9-1.8,0.9-3.2s-0.3-2.4-0.9-3.2
			c-0.6-0.7-1.4-1.1-2.5-1.1s-1.9,0.4-2.5,1.1c-0.6,0.7-0.9,1.8-0.9,3.1c0,1.4,0.3,2.5,0.9,3.2c0.6,0.8,1.4,1.1,2.5,1.1
			C11.4,135,12.2,134.6,12.8,133.9z"/>
		<path class="st1" d="M31.9,134.1c0.2,0.2,0.3,0.6,0.3,1c0,0.6-0.3,1-1,1.4c-0.6,0.3-1.3,0.6-2.1,0.8s-1.5,0.3-2.2,0.3
			c-2.1,0-3.9-0.6-5.1-1.9c-1.3-1.2-1.9-2.9-1.9-5.1c0-1.4,0.3-2.6,0.8-3.6c0.5-1.1,1.3-1.9,2.3-2.5s2.1-0.9,3.4-0.9
			c1.2,0,2.2,0.3,3.1,0.8c0.9,0.5,1.6,1.3,2.1,2.2c0.5,1,0.7,2.1,0.7,3.4c0,0.8-0.3,1.2-1,1.2h-8.1c0.1,1.3,0.5,2.2,1.1,2.8
			s1.5,0.9,2.6,0.9c0.6,0,1.1-0.1,1.5-0.2s1-0.3,1.5-0.6s0.9-0.4,1.2-0.4C31.5,133.8,31.8,133.9,31.9,134.1z M24.2,127
			c-0.6,0.6-0.9,1.4-1,2.5h6.2c0-1.1-0.3-2-0.8-2.5c-0.5-0.6-1.2-0.9-2.1-0.9C25.5,126.2,24.8,126.4,24.2,127z"/>
		<path class="st1" d="M35.2,136.5c-0.6-0.3-0.9-0.8-0.9-1.5c0-0.4,0.1-0.7,0.3-0.9s0.4-0.3,0.7-0.3s0.7,0.1,1.3,0.4
			c0.6,0.3,1.1,0.5,1.6,0.6s1.1,0.2,1.8,0.2c0.8,0,1.4-0.1,1.8-0.4c0.4-0.3,0.6-0.6,0.6-1.1c0-0.3-0.1-0.6-0.3-0.7
			c-0.2-0.2-0.5-0.4-0.9-0.5c-0.4-0.2-1.1-0.3-2-0.5c-1.6-0.3-2.8-0.8-3.5-1.4c-0.7-0.6-1.1-1.4-1.1-2.5c0-0.8,0.2-1.5,0.7-2.2
			c0.5-0.6,1.1-1.1,2-1.5c0.8-0.4,1.8-0.5,2.8-0.5c0.8,0,1.5,0.1,2.2,0.3s1.3,0.5,1.9,0.8c0.6,0.4,0.9,0.8,0.9,1.4
			c0,0.4-0.1,0.7-0.3,0.9s-0.4,0.4-0.7,0.4c-0.2,0-0.4,0-0.6-0.1c-0.2-0.1-0.4-0.2-0.7-0.4c-0.5-0.3-1-0.5-1.4-0.6s-0.9-0.2-1.4-0.2
			c-0.7,0-1.2,0.1-1.6,0.4c-0.4,0.3-0.6,0.6-0.6,1.1s0.2,0.8,0.6,1c0.4,0.2,1.2,0.5,2.3,0.7c1.2,0.3,2.2,0.5,2.9,0.9
			s1.2,0.7,1.5,1.2s0.5,1.1,0.5,1.9c0,1.2-0.5,2.2-1.5,3c-1,0.7-2.4,1.1-4.1,1.1C38,137.7,36.4,137.3,35.2,136.5z"/>
		<path class="st1" d="M48.6,120.9c-0.4-0.3-0.5-0.8-0.5-1.3s0.2-1,0.5-1.3c0.4-0.3,0.9-0.5,1.5-0.5s1.1,0.2,1.5,0.5
			s0.6,0.8,0.6,1.3s-0.2,1-0.5,1.3c-0.4,0.3-0.9,0.5-1.5,0.5C49.5,121.4,49,121.2,48.6,120.9z M48.9,137.2c-0.3-0.3-0.5-0.7-0.5-1.2
			v-10.5c0-0.5,0.2-0.9,0.5-1.2s0.7-0.4,1.2-0.4s0.9,0.1,1.2,0.4c0.3,0.3,0.5,0.7,0.5,1.2V136c0,0.5-0.2,0.9-0.5,1.2
			s-0.7,0.4-1.2,0.4C49.6,137.6,49.2,137.5,48.9,137.2z"/>
		<path class="st1" d="M67.9,124.2c0.3,0.3,0.5,0.7,0.5,1.2v10.8c0,2.1-0.6,3.7-1.7,4.8c-1.2,1.1-2.9,1.6-5.2,1.6
			c-2,0-3.6-0.4-5-1.1c-0.7-0.4-1-0.9-1-1.4c0-0.4,0.1-0.7,0.3-1c0.2-0.2,0.4-0.4,0.8-0.4c0.2,0,0.4,0,0.6,0.1
			c0.2,0.1,0.5,0.2,0.7,0.3c0.7,0.3,1.2,0.5,1.8,0.6c0.5,0.1,1.1,0.2,1.8,0.2c2.4,0,3.6-1.2,3.6-3.5v-1.7c-0.4,0.7-1,1.3-1.7,1.7
			c-0.8,0.4-1.6,0.6-2.6,0.6c-1.2,0-2.2-0.3-3.1-0.8s-1.6-1.3-2.1-2.3s-0.8-2.2-0.8-3.5s0.2-2.5,0.8-3.5c0.5-1,1.2-1.8,2.1-2.3
			c0.9-0.6,1.9-0.8,3.1-0.8c1,0,1.9,0.2,2.6,0.6s1.3,1,1.7,1.7v-0.7c0-0.5,0.2-0.9,0.5-1.1c0.3-0.3,0.7-0.4,1.2-0.4
			C67.1,123.8,67.6,124,67.9,124.2z M64,133.3c0.6-0.7,0.9-1.7,0.9-2.9c0-1.3-0.3-2.2-0.9-3c-0.6-0.7-1.5-1.1-2.6-1.1
			s-1.9,0.4-2.5,1.1c-0.6,0.7-0.9,1.7-0.9,3c0,1.2,0.3,2.2,0.9,2.9c0.6,0.7,1.5,1.1,2.5,1.1C62.6,134.4,63.4,134.1,64,133.3z"/>
		<path class="st1" d="M83.2,125.1c0.8,0.9,1.2,2.3,1.2,4.1v6.7c0,0.5-0.2,0.9-0.5,1.2s-0.7,0.4-1.2,0.4s-0.9-0.1-1.3-0.4
			c-0.3-0.3-0.5-0.7-0.5-1.2v-6.5c0-1-0.2-1.8-0.6-2.3c-0.4-0.5-1-0.7-1.8-0.7c-1,0-1.8,0.3-2.4,0.9c-0.6,0.6-0.9,1.4-0.9,2.5v6.1
			c0,0.5-0.2,0.9-0.5,1.2s-0.7,0.4-1.3,0.4c-0.5,0-0.9-0.1-1.2-0.4c-0.3-0.3-0.5-0.7-0.5-1.2v-10.6c0-0.5,0.2-0.9,0.5-1.1
			c0.3-0.3,0.7-0.4,1.3-0.4c0.5,0,0.9,0.1,1.2,0.4c0.3,0.3,0.5,0.7,0.5,1.1v0.7c0.5-0.7,1.1-1.3,1.8-1.7c0.8-0.4,1.6-0.6,2.6-0.6
			C81.2,123.7,82.4,124.2,83.2,125.1z"/>
		<path class="st1" d="M95.3,136.5c-0.6-0.3-0.9-0.8-0.9-1.5c0-0.4,0.1-0.7,0.3-0.9s0.4-0.3,0.7-0.3s0.7,0.1,1.3,0.4
			c0.6,0.3,1.1,0.5,1.6,0.6s1.1,0.2,1.8,0.2c0.8,0,1.4-0.1,1.8-0.4c0.4-0.3,0.6-0.6,0.6-1.1c0-0.3-0.1-0.6-0.3-0.7
			c-0.2-0.2-0.5-0.4-0.9-0.5c-0.4-0.2-1.1-0.3-2-0.5c-1.6-0.3-2.8-0.8-3.5-1.4c-0.7-0.6-1.1-1.4-1.1-2.5c0-0.8,0.2-1.5,0.7-2.2
			c0.5-0.6,1.1-1.1,2-1.5c0.8-0.4,1.8-0.5,2.8-0.5c0.8,0,1.5,0.1,2.2,0.3s1.3,0.5,1.9,0.8c0.6,0.4,0.9,0.8,0.9,1.4
			c0,0.4-0.1,0.7-0.3,0.9s-0.4,0.4-0.7,0.4c-0.2,0-0.4,0-0.6-0.1c-0.2-0.1-0.4-0.2-0.7-0.4c-0.5-0.3-1-0.5-1.4-0.6s-0.9-0.2-1.4-0.2
			c-0.7,0-1.2,0.1-1.6,0.4c-0.4,0.3-0.6,0.6-0.6,1.1s0.2,0.8,0.6,1c0.4,0.2,1.2,0.5,2.3,0.7c1.2,0.3,2.2,0.5,2.9,0.9
			s1.2,0.7,1.5,1.2s0.5,1.1,0.5,1.9c0,1.2-0.5,2.2-1.5,3c-1,0.7-2.4,1.1-4.1,1.1C98.1,137.7,96.5,137.3,95.3,136.5z"/>
		<path class="st1" d="M118.2,124.1c0.2-0.2,0.5-0.2,0.8-0.2c0.4,0,0.8,0.1,1.1,0.4s0.5,0.6,0.5,1.1c0,0.2-0.1,0.4-0.2,0.6
			l-7.5,15.6c-0.3,0.6-0.8,0.9-1.4,0.9c-0.4,0-0.8-0.1-1.1-0.4s-0.5-0.6-0.5-1c0-0.2,0.1-0.4,0.2-0.7l1.9-3.9l-5.1-10.6
			c-0.1-0.2-0.1-0.4-0.1-0.6c0-0.4,0.2-0.8,0.5-1.1c0.4-0.3,0.8-0.4,1.2-0.4c0.3,0,0.6,0.1,0.8,0.2c0.3,0.2,0.5,0.4,0.6,0.7l3.8,8.4
			l3.8-8.4C117.8,124.5,118,124.2,118.2,124.1z"/>
		<path class="st1" d="M122.5,136.5c-0.6-0.3-0.9-0.8-0.9-1.5c0-0.4,0.1-0.7,0.3-0.9s0.4-0.3,0.7-0.3s0.7,0.1,1.3,0.4
			c0.6,0.3,1.1,0.5,1.6,0.6s1.1,0.2,1.8,0.2c0.8,0,1.4-0.1,1.8-0.4c0.4-0.3,0.6-0.6,0.6-1.1c0-0.3-0.1-0.6-0.3-0.7
			c-0.2-0.2-0.5-0.4-0.9-0.5c-0.4-0.2-1.1-0.3-2-0.5c-1.6-0.3-2.8-0.8-3.5-1.4c-0.7-0.6-1.1-1.4-1.1-2.5c0-0.8,0.2-1.5,0.7-2.2
			c0.5-0.6,1.1-1.1,2-1.5c0.8-0.4,1.8-0.5,2.8-0.5c0.8,0,1.5,0.1,2.2,0.3s1.3,0.5,1.9,0.8c0.6,0.4,0.9,0.8,0.9,1.4
			c0,0.4-0.1,0.7-0.3,0.9s-0.4,0.4-0.7,0.4c-0.2,0-0.4,0-0.6-0.1c-0.2-0.1-0.4-0.2-0.7-0.4c-0.5-0.3-1-0.5-1.4-0.6s-0.9-0.2-1.4-0.2
			c-0.7,0-1.2,0.1-1.6,0.4c-0.4,0.3-0.6,0.6-0.6,1.1s0.2,0.8,0.6,1c0.4,0.2,1.2,0.5,2.3,0.7c1.2,0.3,2.2,0.5,2.9,0.9
			s1.2,0.7,1.5,1.2s0.5,1.1,0.5,1.9c0,1.2-0.5,2.2-1.5,3c-1,0.7-2.4,1.1-4.1,1.1C125.3,137.7,123.7,137.3,122.5,136.5z"/>
		<path class="st1" d="M143.9,136.3c0,0.4-0.2,0.8-0.5,1s-0.9,0.3-1.5,0.3l-0.7-0.1c-3.1-0.2-4.6-1.9-4.6-4.9v-6h-1.4
			c-0.5,0-0.9-0.1-1.1-0.3c-0.3-0.2-0.4-0.5-0.4-1c0-0.4,0.1-0.7,0.4-1c0.3-0.2,0.6-0.3,1.1-0.3h1.4v-2.5c0-0.5,0.2-0.9,0.5-1.2
			s0.7-0.4,1.3-0.4c0.5,0,0.9,0.1,1.2,0.4c0.3,0.3,0.5,0.7,0.5,1.2v2.5h2.3c0.5,0,0.9,0.1,1.1,0.3s0.4,0.5,0.4,1
			c0,0.4-0.1,0.7-0.4,1s-0.6,0.3-1.1,0.3h-2.3v6.2c0,1.3,0.6,2.1,1.9,2.2l0.7,0.1C143.5,135.1,143.9,135.5,143.9,136.3z"/>
		<path class="st1" d="M157,134.1c0.2,0.2,0.3,0.6,0.3,1c0,0.6-0.3,1-1,1.4c-0.6,0.3-1.3,0.6-2.1,0.8c-0.8,0.2-1.5,0.3-2.2,0.3
			c-2.1,0-3.9-0.6-5.1-1.9c-1.3-1.2-1.9-2.9-1.9-5.1c0-1.4,0.3-2.6,0.8-3.6c0.5-1.1,1.3-1.9,2.3-2.5s2.1-0.9,3.4-0.9
			c1.2,0,2.2,0.3,3.1,0.8s1.6,1.3,2.1,2.2c0.5,1,0.7,2.1,0.7,3.4c0,0.8-0.3,1.2-1,1.2h-8.1c0.1,1.3,0.5,2.2,1.1,2.8s1.5,0.9,2.6,0.9
			c0.6,0,1.1-0.1,1.5-0.2s1-0.3,1.5-0.6s0.9-0.4,1.2-0.4C156.6,133.8,156.8,133.9,157,134.1z M149.3,127c-0.6,0.6-0.9,1.4-1,2.5h6.2
			c0-1.1-0.3-2-0.8-2.5c-0.5-0.6-1.2-0.9-2.1-0.9C150.6,126.2,149.9,126.4,149.3,127z"/>
		<path class="st1" d="M179.4,125c0.8,0.9,1.2,2.3,1.2,4.2v6.7c0,0.5-0.2,0.9-0.5,1.2s-0.7,0.4-1.2,0.4s-0.9-0.1-1.2-0.4
			s-0.5-0.7-0.5-1.2v-6.7c0-1-0.2-1.7-0.5-2.1c-0.4-0.4-0.9-0.6-1.6-0.6c-0.9,0-1.6,0.3-2.1,0.9s-0.8,1.4-0.8,2.5v6.1
			c0,0.5-0.2,0.9-0.5,1.2s-0.7,0.4-1.2,0.4s-0.9-0.1-1.2-0.4c-0.3-0.3-0.5-0.7-0.5-1.2v-6.7c0-1-0.2-1.7-0.5-2.1
			c-0.4-0.4-0.9-0.6-1.6-0.6c-0.9,0-1.6,0.3-2.1,0.9c-0.5,0.6-0.8,1.4-0.8,2.5v6.1c0,0.5-0.2,0.9-0.5,1.2s-0.7,0.4-1.2,0.4
			s-0.9-0.1-1.2-0.4c-0.3-0.3-0.5-0.7-0.5-1.2v-10.6c0-0.5,0.2-0.9,0.5-1.2s0.7-0.4,1.2-0.4s0.9,0.1,1.2,0.4
			c0.3,0.3,0.5,0.6,0.5,1.1v0.7c0.4-0.7,1-1.3,1.7-1.7s1.5-0.6,2.4-0.6c2,0,3.3,0.8,4,2.5c0.4-0.8,1-1.4,1.8-1.8s1.7-0.7,2.7-0.7
			C177.5,123.7,178.7,124.2,179.4,125z"/>
	</g>
</g>
<g>
	<g>
		<g>
			<path class="st1" d="M325.1,24c1.9,1.8,2.9,4.2,2.9,7.1v41.2c0,3-1,5.4-2.9,7.2c-1.9,1.8-4.5,2.6-7.7,2.6c-3,0-5.4-0.8-7.3-2.3
				c-1.9-1.6-2.9-3.7-3.2-6.4c-1.7,2.8-4.1,5-7.4,6.6c-3.2,1.6-6.8,2.4-10.7,2.4c-5.1,0-9.6-1.2-13.6-3.7c-4-2.5-7-6-9.2-10.6
				c-2.2-4.6-3.3-9.9-3.3-16c0-6.1,1.1-11.5,3.4-16.2c2.2-4.7,5.3-8.4,9.3-11c4-2.6,8.5-3.9,13.5-3.9c3.9,0,7.5,0.8,10.7,2.4
				c3.2,1.6,5.7,3.8,7.4,6.6c0.2-2.7,1.2-4.9,3.1-6.4c1.9-1.6,4.3-2.3,7.4-2.3C320.6,21.3,323.2,22.2,325.1,24z M304,62.7
				c2-2.5,3-6.1,3-10.8c0-4.8-1-8.5-3-11c-2-2.6-4.9-3.8-8.6-3.8c-3.6,0-6.4,1.3-8.5,4c-2,2.6-3.1,6.4-3.1,11.1c0,4.6,1,8.2,3,10.7
				c2,2.5,4.8,3.7,8.5,3.7C299.1,66.5,302,65.3,304,62.7z"/>
		</g>
	</g>
	<g>
		<g>
			<path class="st1" d="M495.2,49.3c1.9,1.8,2.9,4.2,2.9,7.1v41.2c0,3-1,5.4-2.9,7.2c-1.9,1.8-4.5,2.6-7.7,2.6c-3,0-5.4-0.8-7.3-2.3
				c-1.9-1.6-2.9-3.7-3.2-6.4c-1.7,2.8-4.1,5-7.4,6.6c-3.2,1.6-6.8,2.4-10.7,2.4c-5.1,0-9.6-1.2-13.6-3.7c-4-2.5-7-6-9.2-10.6
				c-2.2-4.6-3.3-9.9-3.3-16c0-6.1,1.1-11.5,3.4-16.2c2.2-4.7,5.3-8.4,9.3-11c4-2.6,8.5-3.9,13.5-3.9c3.9,0,7.5,0.8,10.7,2.4
				c3.2,1.6,5.7,3.8,7.4,6.6c0.2-2.7,1.2-4.9,3.1-6.4c1.9-1.6,4.3-2.3,7.4-2.3C490.8,46.6,493.3,47.5,495.2,49.3z M474.1,88
				c2-2.5,3-6.1,3-10.8c0-4.8-1-8.5-3-11c-2-2.6-4.9-3.8-8.6-3.8c-3.6,0-6.4,1.3-8.5,4c-2,2.6-3.1,6.4-3.1,11.1c0,4.6,1,8.2,3,10.7
				c2,2.5,4.8,3.7,8.5,3.7C469.3,91.8,472.1,90.5,474.1,88z"/>
		</g>
	</g>
	<g>
		<path class="st2" d="M270.9,92.9c1.2-1.4,3-2.1,5.3-2.1h46.3c2.3,0,4.1,0.7,5.3,2.1c1.2,1.4,1.8,3.2,1.8,5.3c0,2.2-0.6,4-1.8,5.4
			c-1.2,1.4-3,2.2-5.3,2.2h-46.3c-2.3,0-4.1-0.7-5.3-2.2c-1.2-1.4-1.9-3.2-1.9-5.4C269,96.1,269.6,94.3,270.9,92.9z"/>
	</g>
	<g>
		<path class="st1" d="M6.9,103.5c-1.8-1.8-2.6-4.3-2.6-7.6V31.8c0-3.3,0.9-5.8,2.6-7.6c1.8-1.8,4.3-2.6,7.6-2.6h41.5
			c3.4,0,6,0.7,7.8,2.2c1.8,1.4,2.6,3.5,2.6,6.2c0,5.8-3.5,8.6-10.4,8.6H25.7v16.1h27.8c7,0,10.4,2.8,10.4,8.5
			c0,2.7-0.9,4.8-2.6,6.2c-1.8,1.4-4.4,2.2-7.8,2.2H25.7v17.5h30.2c7,0,10.4,2.9,10.4,8.6c0,2.7-0.9,4.8-2.6,6.2
			c-1.8,1.4-4.4,2.2-7.8,2.2H14.5C11.2,106.1,8.7,105.2,6.9,103.5z"/>
		<path class="st1" d="M169.7,51.5c3.5,3.9,5.3,10.4,5.3,19.6V97c0,3.3-1,5.7-3.1,7.4c-2,1.6-4.6,2.5-7.6,2.5c-3,0-5.6-0.8-7.6-2.5
			c-2-1.6-3.1-4.1-3.1-7.4V70.6c0-3.2-0.6-5.4-1.7-6.7c-1.1-1.3-2.8-1.9-4.9-1.9c-2.8,0-5,1-6.7,3c-1.7,2-2.5,4.8-2.5,8.3V97
			c0,3.3-1,5.7-3,7.4c-2,1.6-4.6,2.5-7.7,2.5c-3,0-5.6-0.8-7.6-2.5c-2-1.6-3.1-4.1-3.1-7.4V70.6c0-3.2-0.6-5.4-1.7-6.7
			c-1.1-1.3-2.8-1.9-4.9-1.9c-2.8,0-5,1-6.7,3c-1.6,2-2.5,4.8-2.5,8.3V97c0,3.3-1,5.7-3.1,7.4c-2,1.6-4.6,2.5-7.6,2.5
			c-3,0-5.6-0.8-7.6-2.5c-2-1.6-3.1-4.1-3.1-7.4V55.5c0-3.1,1.1-5.5,3.2-7.1c2.1-1.6,4.7-2.5,7.6-2.5c2.8,0,5.1,0.7,7,2.2
			c1.9,1.5,2.9,3.6,2.9,6.4c3.9-5.9,9.9-8.9,18-8.9c8.5,0,14.3,3.5,17.1,10.4c2-3.2,4.7-5.7,8-7.6c3.4-1.9,7.2-2.8,11.4-2.8
			C161.2,45.7,166.2,47.6,169.7,51.5z"/>
		<path class="st1" d="M241.3,49.6c4,2.6,7,6.3,9.2,11c2.2,4.7,3.3,10.1,3.3,16.2c0,6.1-1.1,11.4-3.3,16c-2.2,4.6-5.3,8.1-9.2,10.6
			c-3.9,2.5-8.4,3.7-13.5,3.7c-3.8,0-7.2-0.8-10.4-2.3c-3.2-1.5-5.6-3.6-7.4-6.1v20.4c0,2.8-1,5-2.9,6.7c-1.9,1.7-4.4,2.5-7.6,2.5
			c-3.3,0-5.9-0.9-7.9-2.7c-2-1.8-3-4.1-3-6.9V55.8c0-3,0.9-5.3,2.8-7.1c1.9-1.8,4.4-2.7,7.6-2.7c3,0,5.5,0.8,7.4,2.4
			c1.9,1.6,2.9,3.7,3.2,6.4c1.7-2.8,4.1-5,7.4-6.6c3.2-1.6,6.8-2.4,10.7-2.4C232.8,45.7,237.3,47,241.3,49.6z M229.8,87.4
			c2-2.5,2.9-6,2.9-10.7c0-4.9-1-8.6-3-11.2c-2-2.6-4.8-3.9-8.5-3.9c-3.7,0-6.5,1.3-8.5,3.8c-2,2.6-3,6.2-3,11c0,4.7,1,8.3,3,10.8
			c2,2.5,4.9,3.8,8.6,3.8C225,91.1,227.8,89.9,229.8,87.4z"/>
		<path class="st1" d="M385,98.8c0,2.8-1.1,4.9-3.2,6.2c-2.2,1.4-5.2,1.9-9.2,1.7l-3.4-0.2c-7.2-0.6-12.6-2.7-16.4-6.5
			c-3.7-3.8-5.6-9.1-5.6-15.9V38.9h-3.5c-6.4,0-9.6-2.6-9.6-7.9c0-5.2,3.2-7.8,9.6-7.8h3.5v-7.8c0-3,1-5.5,2.9-7.3
			c1.9-1.8,4.5-2.7,7.8-2.7c3.3,0,5.9,0.9,7.8,2.7c1.9,1.8,2.9,4.2,2.9,7.3v7.8h6.6c6.4,0,9.6,2.6,9.6,7.8c0,5.3-3.2,7.9-9.6,7.9
			h-6.6v47c0,1.5,0.5,2.8,1.4,3.8c0.9,1,2.1,1.6,3.5,1.7l3.5,0.2C382.3,91.9,385,94.3,385,98.8z"/>
		<path class="st2" d="M399,104.4c-2-1.6-3.1-4.1-3.1-7.4V55.8c0-3.3,1-5.7,3.1-7.4c2-1.6,4.6-2.5,7.6-2.5c3,0,5.6,0.8,7.6,2.5
			c2,1.6,3.1,4.1,3.1,7.4V97c0,3.3-1,5.7-3.1,7.4c-2,1.6-4.6,2.5-7.6,2.5C403.6,106.8,401,106,399,104.4z"/>
	</g>
	<path class="st2" d="M375.8,165.3c-18.6,0-37.3-7.4-53.4-21.4c-4.5-3.9-5-10.8-1.1-15.4c3.9-4.6,10.8-5,15.4-1.1
		c13.9,12,29.9,17.6,45,15.7c15-1.9,28.7-11.2,39.8-27c3.4-4.9,10.2-6.1,15.2-2.7c4.9,3.4,6.1,10.2,2.7,15.2
		c-14.7,21-33.7,33.5-55,36.1C381.5,165.1,378.7,165.3,375.8,165.3z"/>
</g>
</svg>
