<?xml version="1.0" encoding="utf-8"?>
<!-- Generator: Adobe Illustrator 27.1.1, SVG Export Plug-In . SVG Version: 6.00 Build 0)  -->
<svg version="1.1" id="Camada_1" xmlns="http://www.w3.org/2000/svg" xmlns:xlink="http://www.w3.org/1999/xlink" x="0px" y="0px"
	 viewBox="0 0 500 188.5" style="enable-background:new 0 0 500 188.5;" xml:space="preserve">
<style type="text/css">
	.st0{display:none;fill:#848484;}
	.st1{fill:#474747;}
	.st2{fill:#FF850A;}
	.st3{fill:#FFE0C2;}
</style>
<g>
	<path class="st0" d="M142.4,72.1c-3.4,7.2-6.6,14.5-10.3,21.6c-1.9,3.7-3.9,8.5-9.2,7.9c-3.8-0.4-5.6-4.1-7.4-7.3
		c-4.9-8.8-7.1-19.1-14.2-26.7c-0.4-1.2-0.8-3.5-1.1-3.4c-3,0.2-1.9,2.2-1.5,3.9c0,17.8,0,35.6-0.1,53.5c0,4.4-0.1,8.9-0.8,13.3
		c-0.3,1.9-2,3.6-4.6,3.8c-2.7,0.2-4.6-1.2-5.3-3c-1-2.7-1.1-5.8-1.1-8.7c-0.1-29.7-0.1-59.4,0-89.1c0-2.9,0.7-5.8,1.3-8.7
		c0.4-2,6.3-3.5,7.6-1.9c2.3,2.9,4.6,5.8,6.2,9c6.8,13.8,13.4,27.7,19.9,41.3c7.7-1.1,7.6-7.7,9.9-11.8c6.5-11.6,12-23.8,18.1-35.6
		c1.4-2.7,4-4.2,7.4-3.3c3.5,0.9,4.4,3.7,4.4,6.7c0.1,32.7,0.1,65.3,0,98c0,1.4-0.2,3.4-1.1,4.2c-1.5,1.3-3.5,2.4-5.5,2.7
		c-2.5,0.4-4.2-1.8-4.5-3.8c-0.6-3.6-0.7-7.4-0.7-11.1c-0.1-17.1,0-34.2,0-51.2c0.4-1.4,1-2.8,1-4.2c0-1.4-0.2-3.5-1.1-4
		c-2-1.2-4.1,0-5.1,1.9C143.6,68,143.1,70.1,142.4,72.1z"/>
</g>
<g>
	<g>
		<g>
			<path class="st1" d="M13.3,124.3c0.3,0.3,0.5,0.7,0.5,1.1v16.5c0,0.5-0.2,0.9-0.5,1.2c-0.3,0.3-0.7,0.4-1.2,0.4s-0.9-0.1-1.2-0.4
				c-0.3-0.3-0.5-0.7-0.5-1.2v-0.7c-0.4,0.7-1,1.3-1.7,1.7s-1.6,0.6-2.6,0.6c-1.1,0-2.2-0.3-3.1-0.9c-0.9-0.6-1.6-1.4-2.1-2.5
				C0.3,139,0,137.7,0,136.3s0.2-2.6,0.8-3.6c0.5-1,1.2-1.8,2.1-2.4s1.9-0.8,3.1-0.8c1,0,1.8,0.2,2.6,0.6c0.7,0.4,1.3,1,1.7,1.7
				v-6.6c0-0.5,0.2-0.8,0.5-1.1c0.3-0.3,0.7-0.4,1.2-0.4C12.6,123.8,13,124,13.3,124.3z M9.5,139.9c0.6-0.7,0.9-1.8,0.9-3.2
				s-0.3-2.4-0.9-3.2c-0.6-0.7-1.4-1.1-2.5-1.1s-1.9,0.4-2.5,1.1c-0.6,0.7-0.9,1.8-0.9,3.1c0,1.4,0.3,2.5,0.9,3.2
				c0.6,0.8,1.4,1.1,2.5,1.1C8.1,141,8.9,140.6,9.5,139.9z"/>
			<path class="st1" d="M28.8,140.1c0.2,0.2,0.3,0.6,0.3,1c0,0.6-0.3,1-1,1.4c-0.6,0.3-1.3,0.6-2.1,0.8c-0.8,0.2-1.5,0.3-2.2,0.3
				c-2.1,0-3.9-0.6-5.2-1.9c-1.3-1.2-1.9-2.9-1.9-5.2c0-1.4,0.3-2.6,0.8-3.6c0.5-1.1,1.3-1.9,2.3-2.5s2.1-0.9,3.4-0.9
				c1.2,0,2.2,0.3,3.1,0.8c0.9,0.5,1.6,1.3,2.1,2.2c0.5,1,0.7,2.1,0.7,3.4c0,0.8-0.3,1.2-1,1.2H20c0.1,1.3,0.5,2.2,1.1,2.8
				c0.6,0.6,1.5,0.9,2.6,0.9c0.6,0,1.1-0.1,1.5-0.2c0.4-0.1,1-0.3,1.5-0.6c0.5-0.3,0.9-0.4,1.2-0.4
				C28.4,139.8,28.7,139.9,28.8,140.1z M21,132.9c-0.6,0.6-0.9,1.4-1,2.5h6.3c0-1.1-0.3-2-0.8-2.5c-0.5-0.6-1.2-0.9-2.1-0.9
				C22.3,132.1,21.6,132.3,21,132.9z"/>
			<path class="st1" d="M32.1,142.5c-0.6-0.3-0.9-0.8-0.9-1.5c0-0.4,0.1-0.7,0.3-0.9c0.2-0.2,0.4-0.3,0.7-0.3c0.3,0,0.7,0.1,1.3,0.4
				c0.6,0.3,1.1,0.5,1.6,0.6c0.5,0.1,1.1,0.2,1.8,0.2c0.8,0,1.4-0.1,1.8-0.4c0.4-0.3,0.6-0.6,0.6-1.1c0-0.3-0.1-0.6-0.3-0.7
				c-0.2-0.2-0.5-0.4-0.9-0.5c-0.4-0.2-1.1-0.3-2-0.5c-1.6-0.3-2.8-0.8-3.5-1.4c-0.7-0.6-1.1-1.4-1.1-2.5c0-0.8,0.2-1.5,0.7-2.2
				c0.5-0.6,1.1-1.1,2-1.5c0.8-0.4,1.8-0.5,2.8-0.5c0.8,0,1.5,0.1,2.2,0.3s1.3,0.5,1.9,0.8c0.6,0.4,0.9,0.8,0.9,1.4
				c0,0.4-0.1,0.7-0.3,0.9c-0.2,0.2-0.4,0.4-0.7,0.4c-0.2,0-0.4,0-0.6-0.1c-0.2-0.1-0.4-0.2-0.7-0.4c-0.5-0.3-1-0.5-1.4-0.6
				c-0.4-0.1-0.9-0.2-1.4-0.2c-0.7,0-1.2,0.1-1.6,0.4c-0.4,0.3-0.6,0.6-0.6,1.1s0.2,0.8,0.6,1c0.4,0.2,1.2,0.5,2.3,0.7
				c1.2,0.3,2.2,0.5,2.9,0.9s1.2,0.7,1.5,1.2c0.3,0.5,0.5,1.1,0.5,1.9c0,1.2-0.5,2.2-1.5,3c-1,0.7-2.4,1.1-4.1,1.1
				C35,143.7,33.4,143.3,32.1,142.5z"/>
			<path class="st1" d="M45.7,126.7c-0.4-0.3-0.5-0.8-0.5-1.3s0.2-1,0.5-1.3c0.4-0.3,0.9-0.5,1.5-0.5s1.1,0.2,1.5,0.5
				c0.4,0.3,0.6,0.8,0.6,1.3s-0.2,1-0.5,1.3c-0.4,0.3-0.9,0.5-1.5,0.5C46.6,127.2,46.1,127,45.7,126.7z M46,143.2
				c-0.3-0.3-0.5-0.7-0.5-1.2v-10.6c0-0.5,0.2-0.9,0.5-1.2c0.3-0.3,0.7-0.4,1.2-0.4c0.5,0,0.9,0.1,1.2,0.4c0.3,0.3,0.5,0.7,0.5,1.2
				V142c0,0.5-0.2,0.9-0.5,1.2c-0.3,0.3-0.7,0.4-1.2,0.4C46.7,143.6,46.3,143.5,46,143.2z"/>
			<path class="st1" d="M65.2,130.1c0.3,0.3,0.5,0.7,0.5,1.2v10.9c0,2.1-0.6,3.7-1.7,4.9c-1.2,1.1-2.9,1.6-5.3,1.6
				c-2,0-3.6-0.4-5.1-1.1c-0.7-0.4-1-0.9-1-1.4c0-0.4,0.1-0.7,0.3-1c0.2-0.2,0.4-0.4,0.8-0.4c0.2,0,0.4,0,0.6,0.1
				c0.2,0.1,0.5,0.2,0.7,0.3c0.7,0.3,1.2,0.5,1.8,0.6c0.5,0.1,1.1,0.2,1.8,0.2c2.4,0,3.6-1.2,3.6-3.5v-1.7c-0.4,0.7-1,1.3-1.7,1.7
				c-0.8,0.4-1.6,0.6-2.6,0.6c-1.2,0-2.2-0.3-3.1-0.8c-0.9-0.5-1.6-1.3-2.1-2.3c-0.5-1-0.8-2.2-0.8-3.5s0.2-2.5,0.8-3.5
				c0.5-1,1.2-1.8,2.1-2.3c0.9-0.6,1.9-0.8,3.1-0.8c1,0,1.9,0.2,2.6,0.6c0.7,0.4,1.3,1,1.7,1.7v-0.7c0-0.5,0.2-0.9,0.5-1.1
				c0.3-0.3,0.7-0.4,1.2-0.4C64.4,129.7,64.9,129.9,65.2,130.1z M61.2,139.3c0.6-0.7,0.9-1.7,0.9-2.9c0-1.3-0.3-2.2-0.9-3
				c-0.6-0.7-1.5-1.1-2.6-1.1c-1.1,0-1.9,0.4-2.5,1.1c-0.6,0.7-0.9,1.7-0.9,3c0,1.2,0.3,2.2,0.9,2.9c0.6,0.7,1.5,1.1,2.5,1.1
				C59.8,140.4,60.6,140.1,61.2,139.3z"/>
			<path class="st1" d="M80.7,131c0.8,0.9,1.2,2.3,1.2,4.1v6.8c0,0.5-0.2,0.9-0.5,1.2c-0.3,0.3-0.7,0.4-1.2,0.4s-0.9-0.1-1.3-0.4
				c-0.3-0.3-0.5-0.7-0.5-1.2v-6.6c0-1-0.2-1.8-0.6-2.3c-0.4-0.5-1-0.7-1.8-0.7c-1,0-1.8,0.3-2.4,0.9c-0.6,0.6-0.9,1.4-0.9,2.5v6.2
				c0,0.5-0.2,0.9-0.5,1.2c-0.3,0.3-0.7,0.4-1.3,0.4c-0.5,0-0.9-0.1-1.2-0.4c-0.3-0.3-0.5-0.7-0.5-1.2v-10.7c0-0.5,0.2-0.9,0.5-1.1
				c0.3-0.3,0.7-0.4,1.3-0.4c0.5,0,0.9,0.1,1.2,0.4c0.3,0.3,0.5,0.7,0.5,1.1v0.7c0.5-0.7,1.1-1.3,1.8-1.7c0.8-0.4,1.6-0.6,2.6-0.6
				C78.6,129.6,79.8,130.1,80.7,131z"/>
			<path class="st1" d="M92.9,142.5c-0.6-0.3-0.9-0.8-0.9-1.5c0-0.4,0.1-0.7,0.3-0.9c0.2-0.2,0.4-0.3,0.7-0.3c0.3,0,0.7,0.1,1.3,0.4
				c0.6,0.3,1.1,0.5,1.6,0.6c0.5,0.1,1.1,0.2,1.8,0.2c0.8,0,1.4-0.1,1.8-0.4c0.4-0.3,0.6-0.6,0.6-1.1c0-0.3-0.1-0.6-0.3-0.7
				c-0.2-0.2-0.5-0.4-0.9-0.5c-0.4-0.2-1.1-0.3-2-0.5c-1.6-0.3-2.8-0.8-3.5-1.4c-0.7-0.6-1.1-1.4-1.1-2.5c0-0.8,0.2-1.5,0.7-2.2
				c0.5-0.6,1.1-1.1,2-1.5c0.8-0.4,1.8-0.5,2.8-0.5c0.8,0,1.5,0.1,2.2,0.3s1.3,0.5,1.9,0.8c0.6,0.4,0.9,0.8,0.9,1.4
				c0,0.4-0.1,0.7-0.3,0.9s-0.4,0.4-0.7,0.4c-0.2,0-0.4,0-0.6-0.1c-0.2-0.1-0.4-0.2-0.7-0.4c-0.5-0.3-1-0.5-1.4-0.6
				c-0.4-0.1-0.9-0.2-1.4-0.2c-0.7,0-1.2,0.1-1.6,0.4c-0.4,0.3-0.6,0.6-0.6,1.1s0.2,0.8,0.6,1c0.4,0.2,1.2,0.5,2.3,0.7
				c1.2,0.3,2.2,0.5,2.9,0.9s1.2,0.7,1.5,1.2c0.3,0.5,0.5,1.1,0.5,1.9c0,1.2-0.5,2.2-1.5,3c-1,0.7-2.4,1.1-4.1,1.1
				C95.7,143.7,94.1,143.3,92.9,142.5z"/>
			<path class="st1" d="M116,130c0.2-0.2,0.5-0.2,0.8-0.2c0.4,0,0.8,0.1,1.1,0.4c0.3,0.3,0.5,0.6,0.5,1.1c0,0.2-0.1,0.4-0.2,0.6
				l-7.6,15.8c-0.3,0.6-0.8,0.9-1.4,0.9c-0.4,0-0.8-0.1-1.1-0.4c-0.3-0.3-0.5-0.6-0.5-1c0-0.2,0.1-0.4,0.2-0.7l1.9-3.9l-5.2-10.7
				c-0.1-0.2-0.1-0.4-0.1-0.6c0-0.4,0.2-0.8,0.5-1.1c0.4-0.3,0.8-0.4,1.2-0.4c0.3,0,0.6,0.1,0.8,0.2c0.3,0.2,0.5,0.4,0.6,0.7
				l3.8,8.5l3.8-8.5C115.6,130.4,115.8,130.1,116,130z"/>
			<path class="st1" d="M120.4,142.5c-0.6-0.3-0.9-0.8-0.9-1.5c0-0.4,0.1-0.7,0.3-0.9c0.2-0.2,0.4-0.3,0.7-0.3s0.7,0.1,1.3,0.4
				c0.6,0.3,1.1,0.5,1.6,0.6c0.5,0.1,1.1,0.2,1.8,0.2c0.8,0,1.4-0.1,1.8-0.4c0.4-0.3,0.6-0.6,0.6-1.1c0-0.3-0.1-0.6-0.3-0.7
				c-0.2-0.2-0.5-0.4-0.9-0.5c-0.4-0.2-1.1-0.3-2-0.5c-1.6-0.3-2.8-0.8-3.5-1.4c-0.7-0.6-1.1-1.4-1.1-2.5c0-0.8,0.2-1.5,0.7-2.2
				c0.5-0.6,1.1-1.1,2-1.5c0.8-0.4,1.8-0.5,2.8-0.5c0.8,0,1.5,0.1,2.2,0.3s1.3,0.5,1.9,0.8c0.6,0.4,0.9,0.8,0.9,1.4
				c0,0.4-0.1,0.7-0.3,0.9c-0.2,0.2-0.4,0.4-0.7,0.4c-0.2,0-0.4,0-0.6-0.1c-0.2-0.1-0.4-0.2-0.7-0.4c-0.5-0.3-1-0.5-1.4-0.6
				c-0.4-0.1-0.9-0.2-1.4-0.2c-0.7,0-1.2,0.1-1.6,0.4c-0.4,0.3-0.6,0.6-0.6,1.1s0.2,0.8,0.6,1c0.4,0.2,1.2,0.5,2.3,0.7
				c1.2,0.3,2.2,0.5,2.9,0.9c0.7,0.4,1.2,0.7,1.5,1.2c0.3,0.5,0.5,1.1,0.5,1.9c0,1.2-0.5,2.2-1.5,3c-1,0.7-2.4,1.1-4.1,1.1
				C123.2,143.7,121.6,143.3,120.4,142.5z"/>
			<path class="st1" d="M142,142.3c0,0.4-0.2,0.8-0.5,1c-0.3,0.2-0.9,0.3-1.5,0.3l-0.7-0.1c-3.1-0.2-4.6-1.9-4.6-5v-6.1h-1.4
				c-0.5,0-0.9-0.1-1.1-0.3c-0.3-0.2-0.4-0.5-0.4-1c0-0.4,0.1-0.7,0.4-1c0.3-0.2,0.6-0.3,1.1-0.3h1.4v-2.5c0-0.5,0.2-0.9,0.5-1.2
				c0.3-0.3,0.7-0.4,1.3-0.4c0.5,0,0.9,0.1,1.2,0.4c0.3,0.3,0.5,0.7,0.5,1.2v2.5h2.3c0.5,0,0.9,0.1,1.1,0.3s0.4,0.5,0.4,1
				c0,0.4-0.1,0.7-0.4,1c-0.3,0.3-0.6,0.3-1.1,0.3h-2.3v6.3c0,1.3,0.6,2.1,1.9,2.2l0.7,0.1C141.6,141.1,142,141.5,142,142.3z"/>
			<path class="st1" d="M155.2,140.1c0.2,0.2,0.3,0.6,0.3,1c0,0.6-0.3,1-1,1.4c-0.6,0.3-1.3,0.6-2.1,0.8c-0.8,0.2-1.5,0.3-2.2,0.3
				c-2.1,0-3.9-0.6-5.2-1.9c-1.3-1.2-1.9-2.9-1.9-5.2c0-1.4,0.3-2.6,0.8-3.6c0.5-1.1,1.3-1.9,2.3-2.5s2.1-0.9,3.4-0.9
				c1.2,0,2.2,0.3,3.1,0.8c0.9,0.5,1.6,1.3,2.1,2.2c0.5,1,0.7,2.1,0.7,3.4c0,0.8-0.3,1.2-1,1.2h-8.2c0.1,1.3,0.5,2.2,1.1,2.8
				c0.6,0.6,1.5,0.9,2.6,0.9c0.6,0,1.1-0.1,1.5-0.2s1-0.3,1.5-0.6c0.5-0.3,0.9-0.4,1.2-0.4C154.8,139.8,155,139.9,155.2,140.1z
				 M147.5,132.9c-0.6,0.6-0.9,1.4-1,2.5h6.3c0-1.1-0.3-2-0.8-2.5c-0.5-0.6-1.2-0.9-2.1-0.9C148.8,132.1,148.1,132.3,147.5,132.9z"
				/>
			<path class="st1" d="M177.9,130.9c0.8,0.9,1.2,2.3,1.2,4.2v6.8c0,0.5-0.2,0.9-0.5,1.2c-0.3,0.3-0.7,0.4-1.2,0.4s-0.9-0.1-1.2-0.4
				c-0.3-0.3-0.5-0.7-0.5-1.2v-6.8c0-1-0.2-1.7-0.5-2.1c-0.4-0.4-0.9-0.6-1.6-0.6c-0.9,0-1.6,0.3-2.1,0.9s-0.8,1.4-0.8,2.5v6.2
				c0,0.5-0.2,0.9-0.5,1.2c-0.3,0.3-0.7,0.4-1.2,0.4s-0.9-0.1-1.2-0.4c-0.3-0.3-0.5-0.7-0.5-1.2v-6.8c0-1-0.2-1.7-0.5-2.1
				c-0.4-0.4-0.9-0.6-1.6-0.6c-0.9,0-1.6,0.3-2.1,0.9c-0.5,0.6-0.8,1.4-0.8,2.5v6.2c0,0.5-0.2,0.9-0.5,1.2c-0.3,0.3-0.7,0.4-1.2,0.4
				c-0.5,0-0.9-0.1-1.2-0.4c-0.3-0.3-0.5-0.7-0.5-1.2v-10.7c0-0.5,0.2-0.9,0.5-1.2c0.3-0.3,0.7-0.4,1.2-0.4c0.5,0,0.9,0.1,1.2,0.4
				c0.3,0.3,0.5,0.6,0.5,1.1v0.7c0.4-0.7,1-1.3,1.7-1.7c0.7-0.4,1.5-0.6,2.4-0.6c2,0,3.3,0.8,4,2.5c0.4-0.8,1-1.4,1.8-1.8
				s1.7-0.7,2.7-0.7C176,129.6,177.2,130.1,177.9,130.9z"/>
		</g>
	</g>
	<g>
		<g>
			<g>
				<path class="st2" d="M325.1,28.8c1.9,1.8,2.9,4.2,2.9,7.2v41.6c0,3-1,5.5-2.9,7.3s-4.5,2.6-7.8,2.6c-3,0-5.5-0.8-7.4-2.3
					c-1.9-1.6-2.9-3.7-3.2-6.5c-1.7,2.8-4.1,5.1-7.5,6.7c-3.2,1.6-6.9,2.4-10.8,2.4c-5.2,0-9.7-1.2-13.7-3.7
					c-4-2.5-7.1-6.1-9.3-10.7c-2.2-4.6-3.3-10-3.3-16.2s1.1-11.6,3.4-16.4c2.2-4.8,5.4-8.5,9.4-11.1c4-2.6,8.6-3.9,13.6-3.9
					c3.9,0,7.6,0.8,10.8,2.4c3.2,1.6,5.8,3.8,7.5,6.7c0.2-2.7,1.2-5,3.1-6.5c1.9-1.6,4.3-2.3,7.5-2.3
					C320.6,26.1,323.2,27,325.1,28.8z M303.8,67.9c2-2.5,3-6.2,3-10.9c0-4.9-1-8.6-3-11.1c-2-2.6-5-3.8-8.7-3.8
					c-3.6,0-6.5,1.3-8.6,4c-2,2.6-3.1,6.5-3.1,11.2c0,4.6,1,8.3,3,10.8s4.9,3.7,8.6,3.7C298.9,71.7,301.8,70.5,303.8,67.9z"/>
			</g>
		</g>
		<g>
			<g>
				<path class="st2" d="M497.1,54.4c1.9,1.8,2.9,4.2,2.9,7.2v41.6c0,3-1,5.5-2.9,7.3c-1.9,1.8-4.5,2.6-7.8,2.6
					c-3,0-5.5-0.8-7.4-2.3c-1.9-1.6-2.9-3.7-3.2-6.5c-1.7,2.8-4.1,5.1-7.5,6.7c-3.2,1.6-6.9,2.4-10.8,2.4c-5.2,0-9.7-1.2-13.7-3.7
					c-4-2.5-7.1-6.1-9.3-10.7c-2.2-4.6-3.3-10-3.3-16.2s1.1-11.6,3.4-16.4c2.2-4.8,5.4-8.5,9.4-11.1s8.6-3.9,13.6-3.9
					c3.9,0,7.6,0.8,10.8,2.4c3.2,1.6,5.8,3.8,7.5,6.7c0.2-2.7,1.2-5,3.1-6.5c1.9-1.6,4.3-2.3,7.5-2.3
					C492.6,51.6,495.1,52.5,497.1,54.4z M475.7,93.5c2-2.5,3-6.2,3-10.9c0-4.9-1-8.6-3-11.1c-2-2.6-5-3.8-8.7-3.8
					c-3.6,0-6.5,1.3-8.6,4c-2,2.6-3.1,6.5-3.1,11.2c0,4.6,1,8.3,3,10.8c2,2.5,4.9,3.7,8.6,3.7C470.9,97.3,473.7,96,475.7,93.5z"/>
			</g>
		</g>
		<path class="st2" d="M3.5,109.1c-1.8-1.8-2.6-4.3-2.6-7.7V36.7c0-3.3,0.9-5.9,2.6-7.7c1.8-1.8,4.3-2.6,7.7-2.6h41.9
			c3.4,0,6.1,0.7,7.9,2.2c1.8,1.4,2.6,3.5,2.6,6.3c0,5.9-3.5,8.7-10.5,8.7H22.5v16.3h28.1c7.1,0,10.5,2.8,10.5,8.6
			c0,2.7-0.9,4.9-2.6,6.3c-1.8,1.4-4.4,2.2-7.9,2.2H22.5v17.7h30.5c7.1,0,10.5,2.9,10.5,8.7c0,2.7-0.9,4.9-2.6,6.3
			c-1.8,1.4-4.4,2.2-7.9,2.2H11.2C7.9,111.8,5.4,110.9,3.5,109.1z"/>
		<path class="st2" d="M168.1,56.6c3.5,3.9,5.4,10.5,5.4,19.8v26.2c0,3.3-1,5.8-3.1,7.5c-2,1.6-4.6,2.5-7.7,2.5
			c-3,0-5.7-0.8-7.7-2.5c-2-1.6-3.1-4.1-3.1-7.5V75.9c0-3.2-0.6-5.5-1.7-6.8c-1.1-1.3-2.8-1.9-5-1.9c-2.8,0-5.1,1-6.8,3
			c-1.7,2-2.5,4.9-2.5,8.4v24c0,3.3-1,5.8-3,7.5c-2,1.6-4.6,2.5-7.8,2.5c-3,0-5.7-0.8-7.7-2.5c-2-1.6-3.1-4.1-3.1-7.5V75.9
			c0-3.2-0.6-5.5-1.7-6.8c-1.1-1.3-2.8-1.9-5-1.9c-2.8,0-5.1,1-6.8,3c-1.6,2-2.5,4.9-2.5,8.4v24c0,3.3-1,5.8-3.1,7.5
			c-2,1.6-4.6,2.5-7.7,2.5c-3,0-5.7-0.8-7.7-2.5c-2-1.6-3.1-4.1-3.1-7.5V60.6c0-3.1,1.1-5.6,3.2-7.2c2.1-1.6,4.8-2.5,7.7-2.5
			c2.8,0,5.2,0.7,7.1,2.2c1.9,1.5,2.9,3.6,2.9,6.5c3.9-6,10-9,18.2-9c8.6,0,14.5,3.5,17.3,10.5c2-3.2,4.8-5.8,8.1-7.7
			c3.4-1.9,7.3-2.8,11.5-2.8C159.5,50.7,164.5,52.6,168.1,56.6z"/>
		<path class="st2" d="M240.4,54.7c4,2.6,7.1,6.4,9.3,11.1c2.2,4.8,3.3,10.2,3.3,16.4c0,6.2-1.1,11.5-3.3,16.2
			c-2.2,4.6-5.4,8.2-9.3,10.7c-3.9,2.5-8.5,3.7-13.6,3.7c-3.8,0-7.3-0.8-10.5-2.3c-3.2-1.5-5.7-3.6-7.5-6.2v20.6
			c0,2.8-1,5.1-2.9,6.8c-1.9,1.7-4.4,2.5-7.7,2.5c-3.3,0-6-0.9-8-2.7c-2-1.8-3-4.1-3-7V60.9c0-3,0.9-5.4,2.8-7.2
			c1.9-1.8,4.4-2.7,7.7-2.7c3,0,5.6,0.8,7.5,2.4s2.9,3.7,3.2,6.5c1.7-2.8,4.1-5.1,7.5-6.7c3.2-1.6,6.9-2.4,10.8-2.4
			C231.9,50.7,236.4,52,240.4,54.7z M228.8,92.9c2-2.5,2.9-6.1,2.9-10.8c0-5-1-8.7-3-11.3s-4.9-3.9-8.6-3.9s-6.6,1.3-8.6,3.8
			c-2,2.6-3,6.3-3,11.1c0,4.8,1,8.4,3,10.9c2,2.5,5,3.8,8.7,3.8C224,96.6,226.8,95.4,228.8,92.9z"/>
		<path class="st2" d="M385.7,104.4c0,2.8-1.1,5-3.2,6.3c-2.2,1.4-5.3,1.9-9.3,1.7l-3.4-0.2c-7.3-0.6-12.7-2.7-16.6-6.6
			c-3.7-3.8-5.7-9.2-5.7-16.1V43.9h-3.5c-6.5,0-9.7-2.6-9.7-8c0-5.3,3.2-7.9,9.7-7.9h3.5v-7.9c0-3,1-5.6,2.9-7.4s4.5-2.7,7.9-2.7
			c3.3,0,6,0.9,7.9,2.7s2.9,4.2,2.9,7.4V28h6.7c6.5,0,9.7,2.6,9.7,7.9c0,5.4-3.2,8-9.7,8h-6.7v47.5c0,1.5,0.5,2.8,1.4,3.8
			s2.1,1.6,3.5,1.7l3.5,0.2C383,97.4,385.7,99.8,385.7,104.4z"/>
	</g>
	<g>
		<g>
			<path class="st3" d="M270.4,98.4c1.2-1.4,3-2.1,5.4-2.1h46.8c2.3,0,4.1,0.7,5.4,2.1c1.2,1.4,1.8,3.2,1.8,5.4c0,2.2-0.6,4-1.8,5.5
				c-1.2,1.4-3,2.2-5.4,2.2h-46.8c-2.3,0-4.1-0.7-5.4-2.2c-1.2-1.4-1.9-3.2-1.9-5.5C268.4,101.7,269.1,99.8,270.4,98.4z"/>
		</g>
		<path class="st3" d="M399.8,110.1c-2-1.6-3.1-4.1-3.1-7.5V60.9c0-3.3,1-5.8,3.1-7.5c2-1.6,4.6-2.5,7.7-2.5s5.7,0.8,7.7,2.5
			c2,1.6,3.1,4.1,3.1,7.5v41.6c0,3.3-1,5.8-3.1,7.5c-2,1.6-4.6,2.5-7.7,2.5C404.5,112.5,401.9,111.7,399.8,110.1z"/>
		<path class="st3" d="M376.4,171.6c-18.8,0-37.7-7.5-54-21.6c-4.5-3.9-5.1-10.9-1.1-15.6s10.9-5.1,15.6-1.1
			c14,12.1,30.2,17.8,45.5,15.9c15.2-1.9,29-11.3,40.2-27.3c3.4-5,10.3-6.2,15.4-2.7c5,3.4,6.2,10.3,2.7,15.4
			c-14.9,21.2-34.1,33.9-55.6,36.5C382.2,171.4,379.3,171.6,376.4,171.6z"/>
	</g>
</g>
</svg>
