<?xml version="1.0" encoding="utf-8"?>
<!-- Generator: Adobe Illustrator 27.1.1, SVG Export Plug-In . SVG Version: 6.00 Build 0)  -->
<svg version="1.1" id="Camada_1" xmlns="http://www.w3.org/2000/svg" xmlns:xlink="http://www.w3.org/1999/xlink" x="0px" y="0px"
	 viewBox="0 0 500 188.5" style="enable-background:new 0 0 500 188.5;" xml:space="preserve">
<style type="text/css">
	.st0{fill:#E94F53;}
	.st1{fill:#F6B294;}
	.st2{display:none;fill:#E94F53;}
</style>
<g>
	<g>
		<path class="st0" d="M245.8,58c-9.5-29.1-28.3-39.3-56.3-30.5c-3,1.4-4.1,3.9-4.1,7.1c0,31-0.1,61.9-0.1,92.9
			c0,2.2,0.2,4.5,0.9,6.5c1,3,3.3,4.7,6.6,4.8c3.4,0.1,5.4-1.3,6-4.7c1.9-6.9-1.7-14.7,3-21.3c3.8-0.3,7.5-0.3,11.1-1
			c16.5-3.5,27.8-12.5,31.3-29.8c0.6-2.9,1.3-5.7,2-8.6l0,0C247.2,68.6,247.5,63.5,245.8,58z M200.2,98.2c0-21.3,0-40.8,0-60.4
			c24.1,0,34.3,9.3,33.8,30C233.5,90,224.5,98.3,200.2,98.2z"/>
		<path class="st0" d="M72.8,90.7c-6-13.6-22.5-17.1-32.6-6.8c-3.1,3.2-5.8,7.6-2.7,11.8c3.8,5.2,7.4,1.9,10.5-1.6
			c0.9-1.1,2.1-2.1,3.4-2.8c3-1.6,5.8-0.5,7.9,1.8c3.8,4.1,4.7,9,2.8,14.4c-4.2,12-17.9,19.4-30.2,16.2c-12.9-3.4-17.4-10.5-18-28.4
			c0.3-2.2,0.8-3.8,1.4-5.2c3.1-7.4,9.2-10.4,16.4-13c9.6-3.4,9.9-8,2-14.9c-2.2-1.9-4.7-3.5-6.7-5.6c-3.9-4.3-3.7-9.4-1.1-14.2
			c2.3-4.2,6.1-6,10.9-5.6c3.8,0.3,7,1.7,9.3,4.8c5.3,6.7,8.2,6.5,12.4-0.9c-0.1-4-2.5-6.8-5-9.4c-6.7-7-15-9.3-24.1-6.7
			c-10,2.9-15.6,10.6-17.9,20.5c-1.4,6,0.1,11.7,3.6,16.8c2.6,3.7,1.8,7.1-1.2,9.7C7.6,77,3.2,83.3,1.7,91.8
			c-3.6,20.2,2.5,33.8,22.5,42.6c9.5,3.2,18.3,3.2,26.6,0c5.6-1.9,10.7-4.8,14.9-9.1C74.8,116.1,77.7,101.8,72.8,90.7z"/>
		<g>
			<path class="st1" d="M314.2,126c-0.2-1.9-1.4-4-2.6-5.5c-0.8-1-2.6-1.5-3.9-1.5c-14.7-0.1-29.4-0.1-44.1,0.1
				c-4.4,0.1-6,3.4-6.8,7.3l0,0h0c-1.2,3.5,0.1,4.9,3.4,4.6c0,0,0,0,0,0s0,0,0,0c8.8,0.2,17.6,0.5,26.4,0.5c8,0,16.1-0.3,24.1-0.8
				C313.1,130.6,314.5,128.2,314.2,126z"/>
			<path class="st0" d="M311.3,76c-1.2-6.5-1.9-13-3.6-19.3c-2-7.7-4.5-15.4-9.9-21.7c-7.8-9-18.6-8.8-26.2,0.4
				c-4.2,5.1-6.4,11.2-8.4,17.6c-4.9,16.2-5.1,33-6.6,49.7l0,0c0,2.8,0.9,4.3,3.1,5.1c5.7,1.6,9.3,0.3,9.2-6.6
				c0-3.4,0.4-6.8,0.6-10.2l0,0c9.8-2.3,19.7-2.3,29.6-0.6c0.7,5,0.7,10.3,2.2,15c0.8,2.6,4.5,3.4,7.5,2.6c2.2-0.6,3.8-1.9,3.8-4.5
				c-0.2-7.3-0.5-14.6-0.7-21.8C311.9,80.5,311.7,77.7,311.3,76z M293.8,75c-1.5,0.1-2.9,0.2-4.4,0.2c-17.8-0.2-19.7-2.5-14.5-18.4
				c1.8-5.4,2.6-13.6,8.7-14.3c8.5-1,8.3,8.5,11,14.1C295.6,58.5,300.9,75.3,293.8,75z"/>
		</g>
		<path class="st2" d="M197.7,6.6c-13.2-8.9-24.7-7.8-34.9,3.8c-4.3,4.9-8.2,10.3-11.2,16.1c-1.3,2.4-2.5,4.8-3.8,7.2
			c-0.8,1.2-1.5,2.3-2.1,3.5c-3.8,7.4-7.4,14.8-11.1,22.2c-2.6,5.2-5.3,10.4-7.9,15.6c0,0,0,0,0,0.1c-1,1.2-2.3,2.1-4.3,2.3
			c-0.2-0.2-0.4-0.4-0.6-0.6c-2.3-4.1-4.7-8.2-6.8-12.4c-3.2-6.8-6.4-13.7-9.7-20.5c-0.3-0.7-0.7-1.4-1.1-2.2
			c-0.4-0.8-0.7-1.5-1.1-2.3c-1.6-3.3-3.2-6.6-5.2-9.7c-1-1.5-2.3-2.4-3.9-2.8c-0.1,0-0.2,0-0.2,0c-1.1-0.2-2.2-0.3-3.5,0
			c-2.8,0.7-3.3,3-3.3,5c0,0.9,0,1.8,0,2.7c-0.3,3.6-0.3,7.3-0.3,11c0,25,0.1,50-0.1,75c0,7.3-0.5,14.7-1.4,22
			c-1.4,11.7-5.6,21.2-19.1,23.5c-1.9,0.3-3.5,1.4-4,3.3c-0.4,1.4-0.5,3.1-0.1,4.4c0.4,1.4,1.7,2.2,3,2.7c3.5,1.4,7.3,0.2,10.8-0.5
			c8.7-1.8,13.3-8.1,17.2-15.3c4.5-8.4,5.3-17.4,5.4-26.6c1.1-1.9,0.7-4.5,0.7-6.7c0.2-19.1,0.4-38.2,0.5-57.3
			c0-1.3,0.3-2.1,0.9-2.1c1.6,0,1.8,1.5,2.9,2.8c2.3,3.2,4.2,6.6,5.8,10.1c0,0,0,0.1,0.1,0.1c1.9,4.3,3.7,8.7,5.9,12.8
			c1.4,2.6,2.8,5.3,5.3,6.5c0.1,0.1,0.2,0.1,0.3,0.1c0.2,0.1,0.4,0.2,0.6,0.3c1.4,0.5,3,0.5,4.3-0.1c3.2-1.1,4.8-4.5,6.3-7.5
			c3.3-6.3,6.3-12.7,9.4-19.1c1.4-2.5,3.3-4.8,6.5-6.7c1.7,6.8,0.9,12.4,1,18c0.2,15.4,0,30.8,0.2,46.2c0,2.5,0.7,4.1,1.8,5
			c0.9,1.4,2.6,2.3,4.9,2.1c1.4-0.1,2.4-0.8,3.1-1.7c3.7-1.4,4-4.8,4.1-8.2c0.1-13.1,0.4-26.2,0-39.3c-0.4-16.7,1.7-33.5-1.4-50.1
			c0.2-4.4,0.9-8.6,3.4-12.5c3.2-4.9,6.3-9.9,11.8-12.5c5.1-2.4,9.8-0.6,14.5,1.9c1.1,0.6,3.1,0.5,4.1-0.2c1.8-1.1,3.9-2.6,4.4-4.3
			C200.3,10.4,199.1,7.5,197.7,6.6z"/>
		<path class="st1" d="M477.7,25.3c-10.2,2.7-18.5,8.7-24.7,17.4c-5.1,7.3-8.5,15.3-11,23.9c-1.8,6.2-3.9,12.9-12,15.6
			c-5,1.7-10,3.9-13.6,8.7c-2.6,3.4-5.1,7.3-2.2,12c1.8,2.4,5.3,1.6,9.1-2.8c0.5-0.5,4-3.5,4.5-4c1.6-1.5,3.3-1.9,5.2-0.5
			c0.9,0.6,1.4,2.7,1.2,3.9c-4.4,23.9-14.8,44.5-34.3,59.6c-28.7,22.3-64.9,21.8-92.9-0.9c-2.6-2.3-6.9-2.1-7.5,1.2
			c-1.1,5.6,0.9,10.1,5.4,13.5c7,5.4,14.7,9.5,23.5,11.5c17.6,4.6,33.2,4.3,48.9-0.3c30.8-9.5,51.1-30.2,62.7-59.9
			c2.4-6.1,4.2-12.5,6.2-18.7c0.6-2.2,1.2-3.7,1.4-5.7c0.5-4.6,1.1-9.3,7.7-7.1c6.9,2.4,13.5,5.9,20.6,7.5c6.7,1.5,7.8,5.5,7.8,11.1
			c0,6.6,0,13.2,0.1,19.8c0,3.8,2.9,4.9,5.8,5.1c3.1,0.2,5.8-1.3,6.4-4.6c0.5-2.9,0.4-5.9,0.4-8.8c0.6-27.2,1.2-54.4,1.7-81.6
			C498.3,23.7,494.7,20.7,477.7,25.3z M483.3,86.9C483.3,86.9,483.3,86.9,483.3,86.9c-0.5,0.5-2.4,0.5-3,0.6c-1,0.1-2,0.1-3,0
			c-1.9-0.1-3.8-0.5-5.7-1.1c-3.7-1.2-7.1-3.1-10.6-4.8c-1.9-1-3.9-1.9-6-2.6c-1.1-0.4-2.2-2.2-2.3-3.5
			c-1.2-11.7,14.5-33.8,26.4-37.1c3.1-0.8,6.4,0.8,6.5,4c0,11.6-0.6,23.3-1,34.9c-0.4,3.1-0.5,6.2-1.2,9.2
			C483.4,86.7,483.4,86.8,483.3,86.9z"/>
		<g>
			<path class="st1" d="M399,95.6C398.9,95.6,398.9,95.6,399,95.6c0-12.4,0-24.9-0.1-37.3c0-3.2-1.8-5.9-5.1-6.1
				c-4.1-0.2-6.7,2.2-7.2,6.3c-0.3,2.9-0.3,5.8-0.3,8.8c0,16.1,0,32.2,0,48.3c0,5.1-0.1,10.3,0.5,15.3c0.4,3.2,3.4,4.8,6.3,4.8
				c3,0,5.8-1.5,5.9-5.1C399,119,399,107.3,399,95.6z"/>
			<path class="st0" d="M395.7,24.2c-0.7-0.1-1.5-0.1-2.2-0.1c-22.7,0-45.4,0-68.1,0c-2.2,0-4.3,0.4-6.4,0.9
				c-2.5,0.6-3.5,2.8-3.2,4.9c0.3,1.9,1.5,4.3,3,5.3c4.6,2.8,10,1.2,15,1.6c8.1,0.6,9.1,1.2,9.1,8.8c0.2,24.2,0,48.4,0.2,72.7
				c0.1,5.6-0.2,12.9,2.8,18.7c1.1,1.2,2.6,1.8,4.4,1.9c1.8,0,2.7-1,3.5-2.3c0.8-1.3,0.8-4.4,0.8-5.8c0-1.7,0-3.5,0.1-5.2
				c0-3.5,0.1-6.9,0.1-10.4c0.1-6.9,0.2-13.8,0.3-20.7c0.1-6.9,0.2-13.8,0.2-20.7c0.1-5.4,0.1-10.9,0.2-16.3
				c0.2-21.7-2.2-20.6,19.7-20.5c6.6,0,13.2,0,19.8-0.1c3.9-0.1,7.3-1.7,7.8-6C403.1,25.8,399.7,24.5,395.7,24.2z"/>
		</g>
	</g>
	<path class="st2" d="M142.4,72.1c-3.4,7.2-6.6,14.5-10.3,21.6c-1.9,3.7-3.9,8.5-9.2,7.9c-3.8-0.4-5.6-4.1-7.4-7.3
		c-4.9-8.8-7.1-19.1-14.2-26.7c-0.4-1.2-0.8-3.5-1.1-3.4c-3,0.2-1.9,2.2-1.5,3.9c0,17.8,0,35.6-0.1,53.5c0,4.4-0.1,8.9-0.8,13.3
		c-0.3,1.9-2,3.6-4.6,3.8c-2.7,0.2-4.6-1.2-5.3-3c-1-2.7-1.1-5.8-1.1-8.7c-0.1-29.7-0.1-59.4,0-89.1c0-2.9,0.7-5.8,1.3-8.7
		c0.4-2,6.3-3.5,7.6-1.9c2.3,2.9,4.6,5.8,6.2,9c6.8,13.8,13.4,27.7,19.9,41.3c7.7-1.1,7.6-7.7,9.9-11.8c6.5-11.6,12-23.8,18.1-35.6
		c1.4-2.7,4-4.2,7.4-3.3c3.5,0.9,4.4,3.7,4.4,6.7c0.1,32.7,0.1,65.3,0,98c0,1.4-0.2,3.4-1.1,4.2c-1.5,1.3-3.5,2.4-5.5,2.7
		c-2.5,0.4-4.2-1.8-4.5-3.8c-0.6-3.6-0.7-7.4-0.7-11.1c-0.1-17.1,0-34.2,0-51.2c0.4-1.4,1-2.8,1-4.2c0-1.4-0.2-3.5-1.1-4
		c-2-1.2-4.1,0-5.1,1.9C143.6,68,143.1,70.1,142.4,72.1z"/>
	<g>
		<path class="st0" d="M166.9,32.6c-0.9-1.8-1.6-4.1-3.2-5.1c-3-2.1-5.9-0.1-7.3,2.4c-5.1,9.6-9.8,19.4-14.7,29.2
			c-2.3,4.6-4.4,9.2-6.8,13.7c-2.3,4.3-5.8,4.6-7.8,0.6C121.9,62.9,117,52.4,111.7,42c-2.3-4.5-5-8.8-7.7-13
			c-1.2-1.9-3.4-2.3-5.7-1.8c-2.5,0.6-3.7,2.6-3.9,4.7c-0.4,5.1-0.5,10.2-0.5,15.3c0,24,0.1,48.1-0.1,72.1c0,7.3-0.5,14.5-1.3,21.8
			c-1.3,11.7-5.6,21-18.9,23.3c-4.5,0.8-4.7,4.7-3.7,8.6c0,0.1,0,0.1,0.1,0.2c2,2.8,4.5,3.2,13.3,1.1c14.6-4.4,18.7-16.7,21.2-29.6
			c1.3-7,0.9-14.3,1-21.5c0.2-19.3,0.1-38.7,0.2-58c0-0.5,0.3-0.9,1.2-0.9c0.9,0.1,2.7,3.4,2.7,3.4c4.3,8.3,8.6,16.6,13,24.9
			c2,3.8,4,8.3,9.3,7.8c3.9-0.4,5.7-3.8,7.5-7.1c1-1.9,1.9-3.9,2.8-5.8c0.9-2,1.7-4,2.6-6c0.9-2,1.8-4,2.8-5.9
			c1-1.9,2.2-3.8,3.5-5.5c0.3-0.4,2.1-3.6,2.3-3.9c0.1-0.1,0.5-0.6,0.9-0.7c1.6-0.2,1.4,4.1,1.4,4.1c0,18.2-0.1,36.4,0.1,54.5
			c0,3.6,0.4,7.2,1.4,10.7c0.6,2,2.8,3.4,5.2,2.6c1.2-0.4,2.7-1.3,3.2-2.3c0.9-1.9,1.6-4.1,1.6-6.2c0.1-31.3,0.1-62.6,0.1-93.9
			C167.1,34,167.2,33.2,166.9,32.6z"/>
	</g>
</g>
<g>
	<g>
		<path d="M124.4,152.7c0.3,0.3,0.5,0.7,0.5,1.1v16.3c0,0.5-0.2,0.9-0.5,1.2c-0.3,0.3-0.7,0.4-1.2,0.4c-0.5,0-0.9-0.1-1.2-0.4
			c-0.3-0.3-0.5-0.7-0.5-1.2v-0.7c-0.4,0.7-1,1.3-1.7,1.7s-1.6,0.6-2.6,0.6c-1.1,0-2.2-0.3-3.1-0.9c-0.9-0.6-1.6-1.4-2.1-2.5
			c-0.5-1.1-0.8-2.3-0.8-3.7c0-1.4,0.2-2.6,0.8-3.6c0.5-1,1.2-1.8,2.1-2.4s1.9-0.8,3.1-0.8c1,0,1.8,0.2,2.6,0.6
			c0.7,0.4,1.3,1,1.7,1.7v-6.5c0-0.5,0.2-0.8,0.5-1.1c0.3-0.3,0.7-0.4,1.2-0.4C123.7,152.2,124.1,152.4,124.4,152.7z M120.6,168.1
			c0.6-0.7,0.9-1.8,0.9-3.2c0-1.4-0.3-2.4-0.9-3.2c-0.6-0.7-1.4-1.1-2.5-1.1c-1.1,0-1.9,0.4-2.5,1.1c-0.6,0.7-0.9,1.8-0.9,3.1
			c0,1.4,0.3,2.5,0.9,3.2c0.6,0.8,1.4,1.1,2.5,1.1C119.2,169.2,120,168.8,120.6,168.1z"/>
		<path d="M139.7,168.3c0.2,0.2,0.3,0.6,0.3,1c0,0.6-0.3,1-1,1.4c-0.6,0.3-1.3,0.6-2.1,0.8s-1.5,0.3-2.2,0.3c-2.1,0-3.9-0.6-5.1-1.9
			c-1.3-1.2-1.9-2.9-1.9-5.1c0-1.4,0.3-2.6,0.8-3.6c0.5-1.1,1.3-1.9,2.3-2.5c1-0.6,2.1-0.9,3.4-0.9c1.2,0,2.2,0.3,3.1,0.8
			c0.9,0.5,1.6,1.3,2.1,2.2c0.5,1,0.7,2.1,0.7,3.4c0,0.8-0.3,1.2-1,1.2H131c0.1,1.3,0.5,2.2,1.1,2.8c0.6,0.6,1.5,0.9,2.6,0.9
			c0.6,0,1.1-0.1,1.5-0.2s1-0.3,1.5-0.6c0.5-0.3,0.9-0.4,1.2-0.4C139.3,168,139.6,168.1,139.7,168.3z M132,161.2
			c-0.6,0.6-0.9,1.4-1,2.5h6.2c0-1.1-0.3-2-0.8-2.5c-0.5-0.6-1.2-0.9-2.1-0.9C133.3,160.4,132.6,160.6,132,161.2z"/>
		<path d="M143,170.7c-0.6-0.3-0.9-0.8-0.9-1.5c0-0.4,0.1-0.7,0.3-0.9c0.2-0.2,0.4-0.3,0.7-0.3c0.3,0,0.7,0.1,1.3,0.4
			c0.6,0.3,1.1,0.5,1.6,0.6c0.5,0.1,1.1,0.2,1.8,0.2c0.8,0,1.4-0.1,1.8-0.4c0.4-0.3,0.6-0.6,0.6-1.1c0-0.3-0.1-0.6-0.3-0.7
			c-0.2-0.2-0.5-0.4-0.9-0.5c-0.4-0.2-1.1-0.3-2-0.5c-1.6-0.3-2.8-0.8-3.5-1.4c-0.7-0.6-1.1-1.4-1.1-2.5c0-0.8,0.2-1.5,0.7-2.2
			c0.5-0.6,1.1-1.1,2-1.5c0.8-0.4,1.8-0.5,2.8-0.5c0.8,0,1.5,0.1,2.2,0.3s1.3,0.5,1.9,0.8c0.6,0.4,0.9,0.8,0.9,1.4
			c0,0.4-0.1,0.7-0.3,0.9c-0.2,0.2-0.4,0.4-0.7,0.4c-0.2,0-0.4,0-0.6-0.1c-0.2-0.1-0.4-0.2-0.7-0.4c-0.5-0.3-1-0.5-1.4-0.6
			c-0.4-0.1-0.9-0.2-1.4-0.2c-0.7,0-1.2,0.1-1.6,0.4c-0.4,0.3-0.6,0.6-0.6,1.1c0,0.5,0.2,0.8,0.6,1c0.4,0.2,1.2,0.5,2.3,0.7
			c1.2,0.3,2.2,0.5,2.9,0.9s1.2,0.7,1.5,1.2c0.3,0.5,0.5,1.1,0.5,1.9c0,1.2-0.5,2.2-1.5,3c-1,0.7-2.4,1.1-4.1,1.1
			C145.8,171.9,144.2,171.5,143,170.7z"/>
		<path d="M156.4,155.1c-0.4-0.3-0.5-0.8-0.5-1.3s0.2-1,0.5-1.3c0.4-0.3,0.9-0.5,1.5-0.5c0.6,0,1.1,0.2,1.5,0.5
			c0.4,0.3,0.6,0.8,0.6,1.3s-0.2,1-0.5,1.3c-0.4,0.3-0.9,0.5-1.5,0.5C157.3,155.6,156.8,155.4,156.4,155.1z M156.7,171.4
			c-0.3-0.3-0.5-0.7-0.5-1.2v-10.5c0-0.5,0.2-0.9,0.5-1.2s0.7-0.4,1.2-0.4c0.5,0,0.9,0.1,1.2,0.4c0.3,0.3,0.5,0.7,0.5,1.2v10.5
			c0,0.5-0.2,0.9-0.5,1.2c-0.3,0.3-0.7,0.4-1.2,0.4C157.4,171.8,157,171.7,156.7,171.4z"/>
		<path d="M175.7,158.4c0.3,0.3,0.5,0.7,0.5,1.2v10.8c0,2.1-0.6,3.7-1.7,4.8c-1.2,1.1-2.9,1.6-5.2,1.6c-2,0-3.6-0.4-5-1.1
			c-0.7-0.4-1-0.9-1-1.4c0-0.4,0.1-0.7,0.3-1c0.2-0.2,0.4-0.4,0.8-0.4c0.2,0,0.4,0,0.6,0.1c0.2,0.1,0.5,0.2,0.7,0.3
			c0.7,0.3,1.2,0.5,1.8,0.6c0.5,0.1,1.1,0.2,1.8,0.2c2.4,0,3.6-1.2,3.6-3.5v-1.7c-0.4,0.7-1,1.3-1.7,1.7c-0.8,0.4-1.6,0.6-2.6,0.6
			c-1.2,0-2.2-0.3-3.1-0.8s-1.6-1.3-2.1-2.3c-0.5-1-0.8-2.2-0.8-3.5s0.2-2.5,0.8-3.5c0.5-1,1.2-1.8,2.1-2.3c0.9-0.6,1.9-0.8,3.1-0.8
			c1,0,1.9,0.2,2.6,0.6s1.3,1,1.7,1.7v-0.7c0-0.5,0.2-0.9,0.5-1.1c0.3-0.3,0.7-0.4,1.2-0.4C174.9,158,175.4,158.2,175.7,158.4z
			 M171.8,167.5c0.6-0.7,0.9-1.7,0.9-2.9c0-1.3-0.3-2.2-0.9-3c-0.6-0.7-1.5-1.1-2.6-1.1c-1.1,0-1.9,0.4-2.5,1.1
			c-0.6,0.7-0.9,1.7-0.9,3c0,1.2,0.3,2.2,0.9,2.9c0.6,0.7,1.5,1.1,2.5,1.1C170.4,168.6,171.2,168.3,171.8,167.5z"/>
		<path d="M191,159.3c0.8,0.9,1.2,2.3,1.2,4.1v6.7c0,0.5-0.2,0.9-0.5,1.2s-0.7,0.4-1.2,0.4c-0.5,0-0.9-0.1-1.3-0.4
			c-0.3-0.3-0.5-0.7-0.5-1.2v-6.5c0-1-0.2-1.8-0.6-2.3c-0.4-0.5-1-0.7-1.8-0.7c-1,0-1.8,0.3-2.4,0.9c-0.6,0.6-0.9,1.4-0.9,2.5v6.1
			c0,0.5-0.2,0.9-0.5,1.2c-0.3,0.3-0.7,0.4-1.3,0.4c-0.5,0-0.9-0.1-1.2-0.4c-0.3-0.3-0.5-0.7-0.5-1.2v-10.6c0-0.5,0.2-0.9,0.5-1.1
			c0.3-0.3,0.7-0.4,1.3-0.4c0.5,0,0.9,0.1,1.2,0.4c0.3,0.3,0.5,0.7,0.5,1.1v0.7c0.5-0.7,1.1-1.3,1.8-1.7c0.8-0.4,1.6-0.6,2.6-0.6
			C189,157.9,190.2,158.4,191,159.3z"/>
		<path d="M203.1,170.7c-0.6-0.3-0.9-0.8-0.9-1.5c0-0.4,0.1-0.7,0.3-0.9c0.2-0.2,0.4-0.3,0.7-0.3c0.3,0,0.7,0.1,1.3,0.4
			c0.6,0.3,1.1,0.5,1.6,0.6c0.5,0.1,1.1,0.2,1.8,0.2c0.8,0,1.4-0.1,1.8-0.4c0.4-0.3,0.6-0.6,0.6-1.1c0-0.3-0.1-0.6-0.3-0.7
			c-0.2-0.2-0.5-0.4-0.9-0.5c-0.4-0.2-1.1-0.3-2-0.5c-1.6-0.3-2.8-0.8-3.5-1.4c-0.7-0.6-1.1-1.4-1.1-2.5c0-0.8,0.2-1.5,0.7-2.2
			c0.5-0.6,1.1-1.1,2-1.5c0.8-0.4,1.8-0.5,2.8-0.5c0.8,0,1.5,0.1,2.2,0.3s1.3,0.5,1.9,0.8c0.6,0.4,0.9,0.8,0.9,1.4
			c0,0.4-0.1,0.7-0.3,0.9c-0.2,0.2-0.4,0.4-0.7,0.4c-0.2,0-0.4,0-0.6-0.1c-0.2-0.1-0.4-0.2-0.7-0.4c-0.5-0.3-1-0.5-1.4-0.6
			c-0.4-0.1-0.9-0.2-1.4-0.2c-0.7,0-1.2,0.1-1.6,0.4c-0.4,0.3-0.6,0.6-0.6,1.1c0,0.5,0.2,0.8,0.6,1c0.4,0.2,1.2,0.5,2.3,0.7
			c1.2,0.3,2.2,0.5,2.9,0.9s1.2,0.7,1.5,1.2c0.3,0.5,0.5,1.1,0.5,1.9c0,1.2-0.5,2.2-1.5,3c-1,0.7-2.4,1.1-4.1,1.1
			C205.9,171.9,204.3,171.5,203.1,170.7z"/>
		<path d="M226,158.3c0.2-0.2,0.5-0.2,0.8-0.2c0.4,0,0.8,0.1,1.1,0.4s0.5,0.6,0.5,1.1c0,0.2-0.1,0.4-0.2,0.6l-7.5,15.6
			c-0.3,0.6-0.8,0.9-1.4,0.9c-0.4,0-0.8-0.1-1.1-0.4s-0.5-0.6-0.5-1c0-0.2,0.1-0.4,0.2-0.7l1.9-3.9l-5.1-10.6
			c-0.1-0.2-0.1-0.4-0.1-0.6c0-0.4,0.2-0.8,0.5-1.1c0.4-0.3,0.8-0.4,1.2-0.4c0.3,0,0.6,0.1,0.8,0.2c0.3,0.2,0.5,0.4,0.6,0.7l3.8,8.4
			l3.8-8.4C225.6,158.7,225.8,158.4,226,158.3z"/>
		<path d="M230.3,170.7c-0.6-0.3-0.9-0.8-0.9-1.5c0-0.4,0.1-0.7,0.3-0.9c0.2-0.2,0.4-0.3,0.7-0.3c0.3,0,0.7,0.1,1.3,0.4
			c0.6,0.3,1.1,0.5,1.6,0.6c0.5,0.1,1.1,0.2,1.8,0.2c0.8,0,1.4-0.1,1.8-0.4c0.4-0.3,0.6-0.6,0.6-1.1c0-0.3-0.1-0.6-0.3-0.7
			c-0.2-0.2-0.5-0.4-0.9-0.5c-0.4-0.2-1.1-0.3-2-0.5c-1.6-0.3-2.8-0.8-3.5-1.4c-0.7-0.6-1.1-1.4-1.1-2.5c0-0.8,0.2-1.5,0.7-2.2
			c0.5-0.6,1.1-1.1,2-1.5c0.8-0.4,1.8-0.5,2.8-0.5c0.8,0,1.5,0.1,2.2,0.3s1.3,0.5,1.9,0.8c0.6,0.4,0.9,0.8,0.9,1.4
			c0,0.4-0.1,0.7-0.3,0.9c-0.2,0.2-0.4,0.4-0.7,0.4c-0.2,0-0.4,0-0.6-0.1c-0.2-0.1-0.4-0.2-0.7-0.4c-0.5-0.3-1-0.5-1.4-0.6
			c-0.4-0.1-0.9-0.2-1.4-0.2c-0.7,0-1.2,0.1-1.6,0.4c-0.4,0.3-0.6,0.6-0.6,1.1c0,0.5,0.2,0.8,0.6,1c0.4,0.2,1.2,0.5,2.3,0.7
			c1.2,0.3,2.2,0.5,2.9,0.9s1.2,0.7,1.5,1.2c0.3,0.5,0.5,1.1,0.5,1.9c0,1.2-0.5,2.2-1.5,3c-1,0.7-2.4,1.1-4.1,1.1
			C233.1,171.9,231.5,171.5,230.3,170.7z"/>
		<path d="M251.7,170.5c0,0.4-0.2,0.8-0.5,1s-0.9,0.3-1.5,0.3l-0.7-0.1c-3.1-0.2-4.6-1.9-4.6-4.9v-6H243c-0.5,0-0.9-0.1-1.1-0.3
			c-0.3-0.2-0.4-0.5-0.4-1c0-0.4,0.1-0.7,0.4-1c0.3-0.2,0.6-0.3,1.1-0.3h1.4v-2.5c0-0.5,0.2-0.9,0.5-1.2c0.3-0.3,0.7-0.4,1.3-0.4
			c0.5,0,0.9,0.1,1.2,0.4c0.3,0.3,0.5,0.7,0.5,1.2v2.5h2.3c0.5,0,0.9,0.1,1.1,0.3s0.4,0.5,0.4,1c0,0.4-0.1,0.7-0.4,1
			s-0.6,0.3-1.1,0.3h-2.3v6.2c0,1.3,0.6,2.1,1.9,2.2l0.7,0.1C251.3,169.3,251.7,169.7,251.7,170.5z"/>
		<path d="M264.8,168.3c0.2,0.2,0.3,0.6,0.3,1c0,0.6-0.3,1-1,1.4c-0.6,0.3-1.3,0.6-2.1,0.8c-0.8,0.2-1.5,0.3-2.2,0.3
			c-2.1,0-3.9-0.6-5.1-1.9c-1.3-1.2-1.9-2.9-1.9-5.1c0-1.4,0.3-2.6,0.8-3.6c0.5-1.1,1.3-1.9,2.3-2.5s2.1-0.9,3.4-0.9
			c1.2,0,2.2,0.3,3.1,0.8s1.6,1.3,2.1,2.2c0.5,1,0.7,2.1,0.7,3.4c0,0.8-0.3,1.2-1,1.2h-8.1c0.1,1.3,0.5,2.2,1.1,2.8
			c0.6,0.6,1.5,0.9,2.6,0.9c0.6,0,1.1-0.1,1.5-0.2s1-0.3,1.5-0.6c0.5-0.3,0.9-0.4,1.2-0.4C264.4,168,264.6,168.1,264.8,168.3z
			 M257.1,161.2c-0.6,0.6-0.9,1.4-1,2.5h6.2c0-1.1-0.3-2-0.8-2.5c-0.5-0.6-1.2-0.9-2.1-0.9C258.4,160.4,257.7,160.6,257.1,161.2z"/>
		<path d="M287.2,159.2c0.8,0.9,1.2,2.3,1.2,4.2v6.7c0,0.5-0.2,0.9-0.5,1.2c-0.3,0.3-0.7,0.4-1.2,0.4c-0.5,0-0.9-0.1-1.2-0.4
			s-0.5-0.7-0.5-1.2v-6.7c0-1-0.2-1.7-0.5-2.1c-0.4-0.4-0.9-0.6-1.6-0.6c-0.9,0-1.6,0.3-2.1,0.9s-0.8,1.4-0.8,2.5v6.1
			c0,0.5-0.2,0.9-0.5,1.2c-0.3,0.3-0.7,0.4-1.2,0.4c-0.5,0-0.9-0.1-1.2-0.4c-0.3-0.3-0.5-0.7-0.5-1.2v-6.7c0-1-0.2-1.7-0.5-2.1
			c-0.4-0.4-0.9-0.6-1.6-0.6c-0.9,0-1.6,0.3-2.1,0.9c-0.5,0.6-0.8,1.4-0.8,2.5v6.1c0,0.5-0.2,0.9-0.5,1.2s-0.7,0.4-1.2,0.4
			s-0.9-0.1-1.2-0.4c-0.3-0.3-0.5-0.7-0.5-1.2v-10.6c0-0.5,0.2-0.9,0.5-1.2c0.3-0.3,0.7-0.4,1.2-0.4c0.5,0,0.9,0.1,1.2,0.4
			c0.3,0.3,0.5,0.6,0.5,1.1v0.7c0.4-0.7,1-1.3,1.7-1.7c0.7-0.4,1.5-0.6,2.4-0.6c2,0,3.3,0.8,4,2.5c0.4-0.8,1-1.4,1.8-1.8
			s1.7-0.7,2.7-0.7C285.3,157.9,286.5,158.4,287.2,159.2z"/>
	</g>
</g>
</svg>
