<?xml version="1.0" encoding="utf-8"?>
<!-- Generator: Adobe Illustrator 27.2.0, SVG Export Plug-In . SVG Version: 6.00 Build 0)  -->
<svg version="1.1" id="Camada_1" xmlns="http://www.w3.org/2000/svg" xmlns:xlink="http://www.w3.org/1999/xlink" x="0px" y="0px"
	 viewBox="0 0 195 153" style="enable-background:new 0 0 195 153;" xml:space="preserve">
<style type="text/css">
	.st0{display:none;fill:#848484;}
	.st1{fill:#FFE0C2;}
</style>
<g>
	<path class="st0" d="M142.4,72.1c-3.4,7.2-6.6,14.5-10.3,21.6c-1.9,3.7-3.9,8.5-9.2,7.9c-3.8-0.4-5.6-4.1-7.4-7.3
		c-4.9-8.8-7.1-19.1-14.2-26.7c-0.4-1.2-0.8-3.5-1.1-3.4c-3,0.2-1.9,2.2-1.5,3.9c0,17.8,0,35.6-0.1,53.5c0,4.4-0.1,8.9-0.8,13.3
		c-0.3,1.9-2,3.6-4.6,3.8c-2.7,0.2-4.6-1.2-5.3-3c-1-2.7-1.1-5.8-1.1-8.7c-0.1-29.7-0.1-59.4,0-89.1c0-2.9,0.7-5.8,1.3-8.7
		c0.4-2,6.3-3.5,7.6-1.9c2.3,2.9,4.6,5.8,6.2,9c6.8,13.8,13.4,27.7,19.9,41.3c7.7-1.1,7.6-7.7,9.9-11.8c6.5-11.6,12-23.8,18.1-35.6
		c1.4-2.7,4-4.2,7.4-3.3c3.5,0.9,4.4,3.7,4.4,6.7c0.1,32.7,0.1,65.3,0,98c0,1.4-0.2,3.4-1.1,4.2c-1.5,1.3-3.5,2.4-5.5,2.7
		c-2.5,0.4-4.2-1.8-4.5-3.8c-0.6-3.6-0.7-7.4-0.7-11.1c-0.1-17.1,0-34.2,0-51.2c0.4-1.4,1-2.8,1-4.2c0-1.4-0.2-3.5-1.1-4
		c-2-1.2-4.1,0-5.1,1.9C143.6,68,143.1,70.1,142.4,72.1z"/>
</g>
<g>
	<g>
		<g>
			<path class="st1" d="M141.1,75.3c-2-1.6-3.1-4.1-3.1-7.5V26.2c0-3.3,1-5.8,3.1-7.5c2-1.6,4.7-2.5,7.7-2.5s5.7,0.8,7.7,2.5
				c2,1.6,3.1,4.1,3.1,7.5v41.7c0,3.3-1,5.8-3.1,7.5c-2,1.6-4.7,2.5-7.7,2.5C145.7,77.7,143.1,76.9,141.1,75.3z"/>
			<path class="st1" d="M109,136.9c-18.8,0-37.7-7.5-54-21.6c-4.6-3.9-5.1-10.9-1.1-15.6c3.9-4.7,10.9-5.1,15.6-1.1
				c14.1,12.1,30.2,17.8,45.5,15.9c15.2-1.9,29-11.3,40.2-27.3c3.4-5,10.3-6.2,15.4-2.7c5,3.4,6.2,10.3,2.7,15.4
				c-14.9,21.2-34.1,33.9-55.6,36.5C114.7,136.7,111.9,136.9,109,136.9z"/>
		</g>
		<path class="st1" d="M68.5,76.8c-1.6,2-4.1,3.1-7.5,3.1H19.3c-3.3,0-5.8-1-7.5-3.1c-1.6-2-2.5-4.7-2.5-7.7s0.8-5.7,2.5-7.7
			c1.6-2,4.1-3.1,7.5-3.1H61c3.3,0,5.8,1,7.5,3.1c1.6,2,2.5,4.7,2.5,7.7C71,72.2,70.2,74.8,68.5,76.8z"/>
	</g>
</g>
</svg>
