<?xml version="1.0" encoding="utf-8"?>
<!-- Generator: Adobe Illustrator 27.2.0, SVG Export Plug-In . SVG Version: 6.00 Build 0)  -->
<svg version="1.1" id="Camada_1" xmlns="http://www.w3.org/2000/svg" xmlns:xlink="http://www.w3.org/1999/xlink" x="0px" y="0px"
	 viewBox="0 0 500 188.5" style="enable-background:new 0 0 500 188.5;" xml:space="preserve">
<style type="text/css">
	.st0{display:none;fill:#848484;}
	.st1{fill:#B3B9C4;}
	.st2{fill:#DCDFE4;}
</style>
<g>
	<path class="st0" d="M142.4,72.1c-3.4,7.2-6.6,14.5-10.3,21.6c-1.9,3.7-3.9,8.5-9.2,7.9c-3.8-0.4-5.6-4.1-7.4-7.3
		c-4.9-8.8-7.1-19.1-14.2-26.7c-0.4-1.2-0.8-3.5-1.1-3.4c-3,0.2-1.9,2.2-1.5,3.9c0,17.8,0,35.6-0.1,53.5c0,4.4-0.1,8.9-0.8,13.3
		c-0.3,1.9-2,3.6-4.6,3.8c-2.7,0.2-4.6-1.2-5.3-3c-1-2.7-1.1-5.8-1.1-8.7c-0.1-29.7-0.1-59.4,0-89.1c0-2.9,0.7-5.8,1.3-8.7
		c0.4-2,6.3-3.5,7.6-1.9c2.3,2.9,4.6,5.8,6.2,9c6.8,13.8,13.4,27.7,19.9,41.3c7.7-1.1,7.6-7.7,9.9-11.8c6.5-11.6,12-23.8,18.1-35.6
		c1.4-2.7,4-4.2,7.4-3.3c3.5,0.9,4.4,3.7,4.4,6.7c0.1,32.7,0.1,65.3,0,98c0,1.4-0.2,3.4-1.1,4.2c-1.5,1.3-3.5,2.4-5.5,2.7
		c-2.5,0.4-4.2-1.8-4.5-3.8c-0.6-3.6-0.7-7.4-0.7-11.1c-0.1-17.1,0-34.2,0-51.2c0.4-1.4,1-2.8,1-4.2c0-1.4-0.2-3.5-1.1-4
		c-2-1.2-4.1,0-5.1,1.9C143.6,68,143.1,70.1,142.4,72.1z"/>
</g>
<g>
	<g>
		<g>
			<path class="st1" d="M13.2,127.8c0.3,0.3,0.5,0.7,0.5,1.1v16.5c0,0.5-0.2,0.9-0.5,1.2c-0.3,0.3-0.7,0.4-1.2,0.4s-0.9-0.1-1.2-0.4
				s-0.5-0.7-0.5-1.2v-0.7c-0.4,0.7-1,1.3-1.7,1.7c-0.7,0.4-1.6,0.6-2.6,0.6c-1.1,0-2.2-0.3-3.1-0.9c-0.9-0.6-1.6-1.4-2.1-2.5
				s-0.8-2.3-0.8-3.7c0-1.4,0.2-2.6,0.8-3.6c0.5-1,1.2-1.8,2.1-2.4c0.9-0.6,1.9-0.8,3.1-0.8c1,0,1.8,0.2,2.6,0.6
				c0.7,0.4,1.3,1,1.7,1.7v-6.6c0-0.5,0.2-0.8,0.5-1.1s0.7-0.4,1.2-0.4C12.5,127.3,12.9,127.5,13.2,127.8z M9.4,143.3
				c0.6-0.7,0.9-1.8,0.9-3.2s-0.3-2.4-0.9-3.2c-0.6-0.7-1.4-1.1-2.5-1.1s-1.9,0.4-2.5,1.1c-0.6,0.7-0.9,1.8-0.9,3.1
				c0,1.4,0.3,2.5,0.9,3.2c0.6,0.8,1.4,1.1,2.5,1.1C8,144.5,8.8,144.1,9.4,143.3z"/>
			<path class="st1" d="M28.7,143.5c0.2,0.2,0.3,0.6,0.3,1c0,0.6-0.3,1-1,1.4c-0.6,0.3-1.3,0.6-2.1,0.8c-0.8,0.2-1.5,0.3-2.2,0.3
				c-2.1,0-3.9-0.6-5.2-1.9c-1.3-1.2-1.9-2.9-1.9-5.2c0-1.4,0.3-2.6,0.8-3.6c0.5-1.1,1.3-1.9,2.3-2.5s2.1-0.9,3.4-0.9
				c1.2,0,2.2,0.3,3.1,0.8s1.6,1.3,2.1,2.2c0.5,1,0.7,2.1,0.7,3.4c0,0.8-0.3,1.2-1,1.2h-8.2c0.1,1.3,0.5,2.2,1.1,2.8
				s1.5,0.9,2.6,0.9c0.6,0,1.1-0.1,1.5-0.2c0.4-0.1,1-0.3,1.5-0.6c0.5-0.3,0.9-0.4,1.2-0.4C28.3,143.2,28.6,143.3,28.7,143.5z
				 M20.9,136.4c-0.6,0.6-0.9,1.4-1,2.5h6.3c0-1.1-0.3-2-0.8-2.5c-0.5-0.6-1.2-0.9-2.1-0.9C22.2,135.6,21.5,135.8,20.9,136.4z"/>
			<path class="st1" d="M32,146c-0.6-0.3-0.9-0.8-0.9-1.5c0-0.4,0.1-0.7,0.3-0.9c0.2-0.2,0.4-0.3,0.7-0.3s0.7,0.1,1.3,0.4
				c0.6,0.3,1.1,0.5,1.6,0.6c0.5,0.1,1.1,0.2,1.8,0.2c0.8,0,1.4-0.1,1.8-0.4c0.4-0.3,0.6-0.6,0.6-1.1c0-0.3-0.1-0.6-0.3-0.7
				c-0.2-0.2-0.5-0.4-0.9-0.5c-0.4-0.2-1.1-0.3-2-0.5c-1.6-0.3-2.8-0.8-3.5-1.4c-0.7-0.6-1.1-1.4-1.1-2.5c0-0.8,0.2-1.5,0.7-2.2
				c0.5-0.6,1.1-1.1,2-1.5C35,133.1,36,133,37,133c0.8,0,1.5,0.1,2.2,0.3c0.7,0.2,1.3,0.5,1.9,0.8c0.6,0.4,0.9,0.8,0.9,1.4
				c0,0.4-0.1,0.7-0.3,0.9c-0.2,0.2-0.4,0.4-0.7,0.4c-0.2,0-0.4,0-0.6-0.1c-0.2-0.1-0.4-0.2-0.7-0.4c-0.5-0.3-1-0.5-1.4-0.6
				s-0.9-0.2-1.4-0.2c-0.7,0-1.2,0.1-1.6,0.4c-0.4,0.3-0.6,0.6-0.6,1.1s0.2,0.8,0.6,1c0.4,0.2,1.2,0.5,2.3,0.7
				c1.2,0.3,2.2,0.5,2.9,0.9s1.2,0.7,1.5,1.2c0.3,0.5,0.5,1.1,0.5,1.9c0,1.2-0.5,2.2-1.5,3c-1,0.7-2.4,1.1-4.1,1.1
				C34.9,147.2,33.2,146.8,32,146z"/>
			<path class="st1" d="M45.6,130.2c-0.4-0.3-0.5-0.8-0.5-1.3s0.2-1,0.5-1.3c0.4-0.3,0.9-0.5,1.5-0.5c0.6,0,1.1,0.2,1.5,0.5
				s0.6,0.8,0.6,1.3s-0.2,1-0.5,1.3c-0.4,0.3-0.9,0.5-1.5,0.5C46.5,130.7,46,130.5,45.6,130.2z M45.9,146.7
				c-0.3-0.3-0.5-0.7-0.5-1.2v-10.6c0-0.5,0.2-0.9,0.5-1.2s0.7-0.4,1.2-0.4s0.9,0.1,1.2,0.4c0.3,0.3,0.5,0.7,0.5,1.2v10.6
				c0,0.5-0.2,0.9-0.5,1.2s-0.7,0.4-1.2,0.4C46.6,147.1,46.2,147,45.9,146.7z"/>
			<path class="st1" d="M65.1,133.5c0.3,0.3,0.5,0.7,0.5,1.2v10.9c0,2.1-0.6,3.7-1.7,4.9c-1.2,1.1-2.9,1.6-5.3,1.6
				c-2,0-3.6-0.4-5.1-1.1c-0.7-0.4-1-0.9-1-1.4c0-0.4,0.1-0.7,0.3-1c0.2-0.2,0.4-0.4,0.8-0.4c0.2,0,0.4,0,0.6,0.1
				c0.2,0.1,0.5,0.2,0.7,0.3c0.7,0.3,1.2,0.5,1.8,0.6c0.5,0.1,1.1,0.2,1.8,0.2c2.4,0,3.6-1.2,3.6-3.5v-1.7c-0.4,0.7-1,1.3-1.7,1.7
				c-0.8,0.4-1.6,0.6-2.6,0.6c-1.2,0-2.2-0.3-3.1-0.8c-0.9-0.5-1.6-1.3-2.1-2.3s-0.8-2.2-0.8-3.5c0-1.3,0.2-2.5,0.8-3.5
				c0.5-1,1.2-1.8,2.1-2.3c0.9-0.6,1.9-0.8,3.1-0.8c1,0,1.9,0.2,2.6,0.6c0.7,0.4,1.3,1,1.7,1.7v-0.7c0-0.5,0.2-0.9,0.5-1.1
				c0.3-0.3,0.7-0.4,1.2-0.4C64.3,133.1,64.8,133.3,65.1,133.5z M61.1,142.7c0.6-0.7,0.9-1.7,0.9-2.9c0-1.3-0.3-2.2-0.9-3
				c-0.6-0.7-1.5-1.1-2.6-1.1s-1.9,0.4-2.5,1.1c-0.6,0.7-0.9,1.7-0.9,3c0,1.2,0.3,2.2,0.9,2.9c0.6,0.7,1.5,1.1,2.5,1.1
				C59.7,143.9,60.5,143.5,61.1,142.7z"/>
			<path class="st1" d="M80.6,134.4c0.8,0.9,1.2,2.3,1.2,4.1v6.8c0,0.5-0.2,0.9-0.5,1.2c-0.3,0.3-0.7,0.4-1.2,0.4s-0.9-0.1-1.3-0.4
				c-0.3-0.3-0.5-0.7-0.5-1.2v-6.6c0-1-0.2-1.8-0.6-2.3c-0.4-0.5-1-0.7-1.8-0.7c-1,0-1.8,0.3-2.4,0.9c-0.6,0.6-0.9,1.4-0.9,2.5v6.2
				c0,0.5-0.2,0.9-0.5,1.2c-0.3,0.3-0.7,0.4-1.3,0.4c-0.5,0-0.9-0.1-1.2-0.4c-0.3-0.3-0.5-0.7-0.5-1.2v-10.7c0-0.5,0.2-0.9,0.5-1.1
				c0.3-0.3,0.7-0.4,1.3-0.4c0.5,0,0.9,0.1,1.2,0.4c0.3,0.3,0.5,0.7,0.5,1.1v0.7c0.5-0.7,1.1-1.3,1.8-1.7c0.8-0.4,1.6-0.6,2.6-0.6
				C78.5,133,79.8,133.5,80.6,134.4z"/>
			<path class="st1" d="M92.8,146c-0.6-0.3-0.9-0.8-0.9-1.5c0-0.4,0.1-0.7,0.3-0.9c0.2-0.2,0.4-0.3,0.7-0.3s0.7,0.1,1.3,0.4
				c0.6,0.3,1.1,0.5,1.6,0.6c0.5,0.1,1.1,0.2,1.8,0.2c0.8,0,1.4-0.1,1.8-0.4c0.4-0.3,0.6-0.6,0.6-1.1c0-0.3-0.1-0.6-0.3-0.7
				c-0.2-0.2-0.5-0.4-0.9-0.5c-0.4-0.2-1.1-0.3-2-0.5c-1.6-0.3-2.8-0.8-3.5-1.4c-0.7-0.6-1.1-1.4-1.1-2.5c0-0.8,0.2-1.5,0.7-2.2
				c0.5-0.6,1.1-1.1,2-1.5c0.8-0.4,1.8-0.5,2.8-0.5c0.8,0,1.5,0.1,2.2,0.3c0.7,0.2,1.3,0.5,1.9,0.8c0.6,0.4,0.9,0.8,0.9,1.4
				c0,0.4-0.1,0.7-0.3,0.9c-0.2,0.2-0.4,0.4-0.7,0.4c-0.2,0-0.4,0-0.6-0.1s-0.4-0.2-0.7-0.4c-0.5-0.3-1-0.5-1.4-0.6
				c-0.4-0.1-0.9-0.2-1.4-0.2c-0.7,0-1.2,0.1-1.6,0.4c-0.4,0.3-0.6,0.6-0.6,1.1s0.2,0.8,0.6,1c0.4,0.2,1.2,0.5,2.3,0.7
				c1.2,0.3,2.2,0.5,2.9,0.9c0.7,0.4,1.2,0.7,1.5,1.2c0.3,0.5,0.5,1.1,0.5,1.9c0,1.2-0.5,2.2-1.5,3c-1,0.7-2.4,1.1-4.1,1.1
				C95.6,147.2,94,146.8,92.8,146z"/>
			<path class="st1" d="M116,133.4c0.2-0.2,0.5-0.2,0.8-0.2c0.4,0,0.8,0.1,1.1,0.4c0.3,0.3,0.5,0.6,0.5,1.1c0,0.2-0.1,0.4-0.2,0.6
				l-7.6,15.8c-0.3,0.6-0.8,0.9-1.4,0.9c-0.4,0-0.8-0.1-1.1-0.4c-0.3-0.3-0.5-0.6-0.5-1c0-0.2,0.1-0.4,0.2-0.7l1.9-3.9l-5.2-10.7
				c-0.1-0.2-0.1-0.4-0.1-0.6c0-0.4,0.2-0.8,0.5-1.1c0.4-0.3,0.8-0.4,1.2-0.4c0.3,0,0.6,0.1,0.8,0.2c0.3,0.2,0.5,0.4,0.6,0.7
				l3.8,8.5l3.8-8.5C115.6,133.8,115.8,133.5,116,133.4z"/>
			<path class="st1" d="M120.3,146c-0.6-0.3-0.9-0.8-0.9-1.5c0-0.4,0.1-0.7,0.3-0.9c0.2-0.2,0.4-0.3,0.7-0.3c0.3,0,0.7,0.1,1.3,0.4
				c0.6,0.3,1.1,0.5,1.6,0.6c0.5,0.1,1.1,0.2,1.8,0.2c0.8,0,1.4-0.1,1.8-0.4c0.4-0.3,0.6-0.6,0.6-1.1c0-0.3-0.1-0.6-0.3-0.7
				c-0.2-0.2-0.5-0.4-0.9-0.5c-0.4-0.2-1.1-0.3-2-0.5c-1.6-0.3-2.8-0.8-3.5-1.4c-0.7-0.6-1.1-1.4-1.1-2.5c0-0.8,0.2-1.5,0.7-2.2
				c0.5-0.6,1.1-1.1,2-1.5c0.8-0.4,1.8-0.5,2.8-0.5c0.8,0,1.5,0.1,2.2,0.3c0.7,0.2,1.3,0.5,1.9,0.8c0.6,0.4,0.9,0.8,0.9,1.4
				c0,0.4-0.1,0.7-0.3,0.9c-0.2,0.2-0.4,0.4-0.7,0.4c-0.2,0-0.4,0-0.6-0.1s-0.4-0.2-0.7-0.4c-0.5-0.3-1-0.5-1.4-0.6
				c-0.4-0.1-0.9-0.2-1.4-0.2c-0.7,0-1.2,0.1-1.6,0.4c-0.4,0.3-0.6,0.6-0.6,1.1s0.2,0.8,0.6,1c0.4,0.2,1.2,0.5,2.3,0.7
				c1.2,0.3,2.2,0.5,2.9,0.9c0.7,0.4,1.2,0.7,1.5,1.2c0.3,0.5,0.5,1.1,0.5,1.9c0,1.2-0.5,2.2-1.5,3c-1,0.7-2.4,1.1-4.1,1.1
				C123.1,147.2,121.5,146.8,120.3,146z"/>
			<path class="st1" d="M141.9,145.8c0,0.4-0.2,0.8-0.5,1c-0.3,0.2-0.9,0.3-1.5,0.3l-0.7-0.1c-3.1-0.2-4.7-1.9-4.7-5V136h-1.4
				c-0.5,0-0.9-0.1-1.1-0.3c-0.3-0.2-0.4-0.5-0.4-1c0-0.4,0.1-0.7,0.4-1c0.3-0.2,0.6-0.3,1.1-0.3h1.4v-2.5c0-0.5,0.2-0.9,0.5-1.2
				c0.3-0.3,0.7-0.4,1.3-0.4c0.5,0,0.9,0.1,1.2,0.4c0.3,0.3,0.5,0.7,0.5,1.2v2.5h2.3c0.5,0,0.9,0.1,1.1,0.3s0.4,0.5,0.4,1
				c0,0.4-0.1,0.7-0.4,1c-0.3,0.3-0.6,0.3-1.1,0.3h-2.3v6.3c0,1.3,0.6,2.1,1.9,2.2l0.7,0.1C141.5,144.6,141.9,145,141.9,145.8z"/>
			<path class="st1" d="M155.2,143.5c0.2,0.2,0.3,0.6,0.3,1c0,0.6-0.3,1-1,1.4c-0.6,0.3-1.3,0.6-2.1,0.8c-0.8,0.2-1.5,0.3-2.2,0.3
				c-2.1,0-3.9-0.6-5.2-1.9c-1.3-1.2-1.9-2.9-1.9-5.2c0-1.4,0.3-2.6,0.8-3.6c0.5-1.1,1.3-1.9,2.3-2.5c1-0.6,2.1-0.9,3.4-0.9
				c1.2,0,2.2,0.3,3.1,0.8c0.9,0.5,1.6,1.3,2.1,2.2c0.5,1,0.7,2.1,0.7,3.4c0,0.8-0.3,1.2-1,1.2h-8.2c0.1,1.3,0.5,2.2,1.1,2.8
				s1.5,0.9,2.6,0.9c0.6,0,1.1-0.1,1.5-0.2c0.4-0.1,1-0.3,1.5-0.6c0.5-0.3,0.9-0.4,1.2-0.4C154.8,143.2,155,143.3,155.2,143.5z
				 M147.4,136.4c-0.6,0.6-0.9,1.4-1,2.5h6.3c0-1.1-0.3-2-0.8-2.5c-0.5-0.6-1.2-0.9-2.1-0.9C148.7,135.6,148,135.8,147.4,136.4z"/>
			<path class="st1" d="M177.8,134.3c0.8,0.9,1.2,2.3,1.2,4.2v6.8c0,0.5-0.2,0.9-0.5,1.2c-0.3,0.3-0.7,0.4-1.2,0.4s-0.9-0.1-1.2-0.4
				c-0.3-0.3-0.5-0.7-0.5-1.2v-6.8c0-1-0.2-1.7-0.5-2.1c-0.4-0.4-0.9-0.6-1.6-0.6c-0.9,0-1.6,0.3-2.1,0.9c-0.5,0.6-0.8,1.4-0.8,2.5
				v6.2c0,0.5-0.2,0.9-0.5,1.2c-0.3,0.3-0.7,0.4-1.2,0.4s-0.9-0.1-1.2-0.4c-0.3-0.3-0.5-0.7-0.5-1.2v-6.8c0-1-0.2-1.7-0.5-2.1
				c-0.4-0.4-0.9-0.6-1.6-0.6c-0.9,0-1.6,0.3-2.1,0.9c-0.5,0.6-0.8,1.4-0.8,2.5v6.2c0,0.5-0.2,0.9-0.5,1.2c-0.3,0.3-0.7,0.4-1.2,0.4
				s-0.9-0.1-1.2-0.4c-0.3-0.3-0.5-0.7-0.5-1.2v-10.7c0-0.5,0.2-0.9,0.5-1.2c0.3-0.3,0.7-0.4,1.2-0.4s0.9,0.1,1.2,0.4
				c0.3,0.3,0.5,0.6,0.5,1.1v0.7c0.4-0.7,1-1.3,1.7-1.7c0.7-0.4,1.5-0.6,2.4-0.6c2,0,3.3,0.8,4,2.5c0.4-0.8,1-1.4,1.8-1.8
				c0.8-0.4,1.7-0.7,2.7-0.7C175.9,133,177.1,133.5,177.8,134.3z"/>
		</g>
	</g>
	<g>
		<g>
			<g>
				<path class="st1" d="M325.2,27.9c1.9,1.8,2.9,4.2,2.9,7.2v41.7c0,3-1,5.5-2.9,7.3c-1.9,1.8-4.6,2.6-7.8,2.6
					c-3,0-5.5-0.8-7.4-2.3c-1.9-1.6-2.9-3.7-3.2-6.5c-1.7,2.8-4.1,5.1-7.5,6.7c-3.2,1.6-6.9,2.4-10.8,2.4c-5.2,0-9.7-1.2-13.8-3.7
					c-4-2.5-7.1-6.1-9.3-10.7s-3.3-10-3.3-16.2s1.1-11.6,3.4-16.4c2.2-4.8,5.4-8.5,9.4-11.1c4-2.6,8.6-3.9,13.7-3.9
					c3.9,0,7.6,0.8,10.8,2.4s5.8,3.8,7.5,6.7c0.2-2.7,1.2-5,3.1-6.5c1.9-1.6,4.3-2.3,7.5-2.3C320.6,25.2,323.3,26.1,325.2,27.9z
					 M303.8,67.1c2-2.5,3-6.2,3-10.9c0-4.9-1-8.6-3-11.1c-2-2.6-5-3.8-8.7-3.8c-3.6,0-6.5,1.3-8.6,4c-2,2.6-3.1,6.5-3.1,11.2
					c0,4.7,1,8.3,3,10.8s4.9,3.7,8.6,3.7C298.9,70.9,301.8,69.7,303.8,67.1z"/>
			</g>
		</g>
		<g>
			<g>
				<path class="st1" d="M497.2,57.8c1.9,1.8,2.9,4.2,2.9,7.2v41.7c0,3-1,5.5-2.9,7.3c-1.9,1.8-4.6,2.6-7.8,2.6
					c-3,0-5.5-0.8-7.4-2.3c-1.9-1.6-2.9-3.7-3.2-6.5c-1.7,2.8-4.1,5.1-7.5,6.7c-3.2,1.6-6.9,2.4-10.8,2.4c-5.2,0-9.7-1.2-13.8-3.7
					c-4-2.5-7.1-6.1-9.3-10.7s-3.3-10-3.3-16.2s1.1-11.6,3.4-16.4c2.2-4.8,5.4-8.5,9.4-11.1c4-2.6,8.6-3.9,13.7-3.9
					c3.9,0,7.6,0.8,10.8,2.4s5.8,3.8,7.5,6.7c0.2-2.7,1.2-5,3.1-6.5c1.9-1.6,4.3-2.3,7.5-2.3C492.8,55.1,495.3,56,497.2,57.8z
					 M475.9,96.9c2-2.5,3-6.2,3-10.9c0-4.9-1-8.6-3-11.1c-2-2.6-5-3.8-8.7-3.8c-3.6,0-6.5,1.3-8.6,4c-2,2.6-3.1,6.5-3.1,11.2
					c0,4.7,1,8.3,3,10.8s4.9,3.7,8.6,3.7C471,100.8,473.8,99.5,475.9,96.9z"/>
			</g>
		</g>
		<path class="st1" d="M3.4,112.6c-1.8-1.8-2.6-4.3-2.6-7.7V40.1c0-3.3,0.9-5.9,2.6-7.7c1.8-1.8,4.3-2.6,7.7-2.6h42
			c3.4,0,6.1,0.7,7.9,2.2c1.8,1.4,2.6,3.5,2.6,6.3c0,5.9-3.5,8.7-10.5,8.7H22.4v16.3h28.1c7.1,0,10.5,2.8,10.5,8.6
			c0,2.7-0.9,4.9-2.6,6.3c-1.8,1.4-4.4,2.2-7.9,2.2H22.4V98H53c7.1,0,10.5,2.9,10.5,8.7c0,2.7-0.9,4.9-2.6,6.3
			c-1.8,1.4-4.4,2.2-7.9,2.2H11.1C7.8,115.2,5.2,114.3,3.4,112.6z"/>
		<path class="st1" d="M168,60c3.5,3.9,5.4,10.5,5.4,19.8V106c0,3.3-1,5.8-3.1,7.5c-2,1.6-4.7,2.5-7.7,2.5c-3,0-5.7-0.8-7.7-2.5
			c-2-1.6-3.1-4.1-3.1-7.5V79.3c0-3.2-0.6-5.5-1.7-6.8c-1.1-1.3-2.8-1.9-5-1.9c-2.8,0-5.1,1-6.8,3s-2.5,4.9-2.5,8.4v24
			c0,3.3-1,5.8-3,7.5c-2,1.6-4.7,2.5-7.8,2.5c-3,0-5.7-0.8-7.7-2.5c-2-1.6-3.1-4.1-3.1-7.5V79.3c0-3.2-0.6-5.5-1.7-6.8
			c-1.1-1.3-2.8-1.9-5-1.9c-2.8,0-5.1,1-6.8,3c-1.6,2-2.5,4.9-2.5,8.4v24c0,3.3-1,5.8-3.1,7.5c-2,1.6-4.7,2.5-7.7,2.5
			s-5.7-0.8-7.7-2.5c-2-1.6-3.1-4.1-3.1-7.5v-42c0-3.1,1.1-5.6,3.2-7.2s4.8-2.5,7.7-2.5c2.8,0,5.2,0.7,7.1,2.2s2.9,3.6,2.9,6.5
			c3.9-6,10-9,18.2-9c8.6,0,14.5,3.5,17.3,10.5c2-3.2,4.8-5.8,8.1-7.7c3.4-1.9,7.3-2.8,11.5-2.8C159.4,54.2,164.5,56.1,168,60z"/>
		<path class="st1" d="M240.4,58.1c4,2.6,7.1,6.4,9.3,11.1c2.2,4.8,3.3,10.2,3.3,16.4s-1.1,11.5-3.3,16.2s-5.4,8.2-9.3,10.7
			c-3.9,2.5-8.5,3.7-13.7,3.7c-3.8,0-7.3-0.8-10.5-2.3c-3.2-1.5-5.7-3.6-7.5-6.2v20.6c0,2.8-1,5.1-2.9,6.8c-1.9,1.7-4.4,2.5-7.7,2.5
			c-3.3,0-6-0.9-8-2.7c-2-1.8-3-4.1-3-7V64.4c0-3,0.9-5.4,2.8-7.2c1.9-1.8,4.4-2.7,7.7-2.7c3,0,5.6,0.8,7.5,2.4
			c1.9,1.6,2.9,3.7,3.2,6.5c1.7-2.8,4.1-5.1,7.5-6.7c3.2-1.6,6.9-2.4,10.8-2.4C231.8,54.2,236.4,55.5,240.4,58.1z M228.8,96.3
			c2-2.5,2.9-6.1,2.9-10.8c0-5-1-8.7-3-11.3c-2-2.6-4.9-3.9-8.6-3.9s-6.6,1.3-8.6,3.8c-2,2.6-3,6.3-3,11.1c0,4.8,1,8.4,3,10.9
			c2,2.5,5,3.8,8.7,3.8C224,100.1,226.8,98.9,228.8,96.3z"/>
		<path class="st1" d="M387.9,107.9c0,2.8-1.1,5-3.2,6.3c-2.2,1.4-5.3,1.9-9.3,1.7l-3.4-0.2c-7.3-0.6-12.7-2.7-16.6-6.6
			c-3.7-3.8-5.7-9.2-5.7-16.1V47.3h-3.5c-6.5,0-9.7-2.6-9.7-8c0-5.3,3.2-7.9,9.7-7.9h3.5v-7.9c0-3,1-5.6,2.9-7.4
			c1.9-1.8,4.6-2.7,7.9-2.7c3.3,0,6,0.9,7.9,2.7c1.9,1.8,2.9,4.2,2.9,7.4v7.9h6.7c6.5,0,9.7,2.6,9.7,7.9c0,5.4-3.2,8-9.7,8h-6.7
			v47.5c0,1.5,0.5,2.8,1.4,3.8c0.9,1,2.1,1.6,3.5,1.7l3.5,0.2C385.2,100.9,387.9,103.3,387.9,107.9z"/>
	</g>
	<g>
		<g>
			<path class="st2" d="M399.9,113.5c-2-1.6-3.1-4.1-3.1-7.5V64.4c0-3.3,1-5.8,3.1-7.5c2-1.6,4.7-2.5,7.7-2.5c3,0,5.7,0.8,7.7,2.5
				c2,1.6,3.1,4.1,3.1,7.5V106c0,3.3-1,5.8-3.1,7.5c-2,1.6-4.7,2.5-7.7,2.5C404.6,115.9,401.9,115.1,399.9,113.5z"/>
			<path class="st2" d="M367.8,175.1c-18.8,0-37.7-7.5-54-21.6c-4.6-3.9-5.1-10.9-1.1-15.6c3.9-4.7,10.9-5.1,15.6-1.1
				c14.1,12.1,30.2,17.8,45.5,15.9c15.2-1.9,29-11.3,40.2-27.3c3.4-5,10.3-6.2,15.4-2.7c5,3.4,6.2,10.3,2.7,15.4
				c-14.9,21.2-34.1,33.9-55.6,36.5C373.6,174.9,370.8,175.1,367.8,175.1z"/>
		</g>
		<path class="st2" d="M327.4,115c-1.6,2-4.1,3.1-7.5,3.1h-41.7c-3.3,0-5.8-1-7.5-3.1c-1.6-2-2.5-4.7-2.5-7.7c0-3,0.8-5.7,2.5-7.7
			c1.6-2,4.1-3.1,7.5-3.1h41.7c3.3,0,5.8,1,7.5,3.1c1.6,2,2.5,4.7,2.5,7.7C329.8,110.4,329,113,327.4,115z"/>
	</g>
</g>
</svg>
