<?xml version="1.0" encoding="UTF-8"?>
<svg id="plane" xmlns="http://www.w3.org/2000/svg" viewBox="0 0 34 34">
  <defs>
    <style>
      .cls-1 {
        fill: #392e44;
      }

      .cls-2 {
        fill: #fef0e9;
      }

      .cls-3 {
        fill: #d60014;
      }
    </style>
  </defs>
  <circle class="cls-2" cx="17" cy="17" r="17"/>
  <g>
    <path class="cls-1" d="m25.66,16.7c-.67-.32-1.45-.23-2.03.23l-2,1.6c-.57.46-1.3.71-2.03.71h-1.85v-4.48h-1.5v4.48h-7.08c-1.06,0-1.92.86-1.92,1.92v.66c0,1.06.86,1.92,1.92,1.92h1.43l-1.22,1.83c-.23.34-.14.81.21,1.04.13.08.27.13.42.13.24,0,.48-.12.62-.33l1.78-2.67h7.2s0,0,0,0l1.78,2.67c.14.22.38.33.62.33.14,0,.29-.04.42-.13.34-.23.44-.7.21-1.04l-1.41-2.12c.49-.18.95-.43,1.35-.75l3.46-2.77c.46-.37.72-.91.72-1.5,0-.75-.42-1.41-1.09-1.73Zm-.57,2.06h0l-3.46,2.77c-.57.46-1.3.71-2.03.71h-10.43c-.23,0-.42-.19-.42-.42v-.66c0-.23.19-.42.42-.42h10.43c1.07,0,2.13-.37,2.97-1.04l2-1.6c.19-.15.37-.08.45-.05.07.03.24.14.24.38,0,.13-.06.25-.16.33Z"/>
    <path class="cls-3" d="m17.76,14.76h5.3c.94,0,1.7-.76,1.7-1.7,0-3.2-2.6-5.8-5.8-5.8h-3.89c-3.2,0-5.8,2.6-5.8,5.8,0,.94.76,1.7,1.7,1.7h6.8Zm5.5-1.7c0,.11-.09.2-.2.2h-2.3c-.04-.97-.28-2.32-1.12-3.65-.19-.3-.41-.57-.64-.84,2.35.03,4.26,1.94,4.26,4.3Zm-10.01.2h-2.3c-.11,0-.2-.09-.2-.2,0-2.36,1.91-4.27,4.26-4.3-.23.27-.45.55-.64.84-.84,1.33-1.08,2.68-1.12,3.65Zm1.5,0c.04-.77.24-1.82.89-2.85.36-.57.83-1.07,1.37-1.49.54.41,1.01.92,1.37,1.49.65,1.03.85,2.08.89,2.85h-4.51Z"/>
  </g>
</svg>