<?xml version="1.0" encoding="UTF-8"?>
<svg id="plane" xmlns="http://www.w3.org/2000/svg" viewBox="0 0 34 34">
  <defs>
    <style>
      .cls-1 {
        fill: #392e44;
      }

      .cls-2 {
        fill: #fef0e9;
      }

      .cls-3 {
        fill: #d60014;
      }
    </style>
  </defs>
  <circle class="cls-2" cx="17" cy="17" r="17"/>
  <g>
    <path class="cls-1" d="m27.35,14.62l-8.89-6.4c-.66-.47-1.54-.47-2.2,0l-8.89,6.4c-.33.24-.4.7-.17,1.03.24.33.7.4,1.03.17l1.04-.75v7.59c0,1.17.95,2.12,2.12,2.12h11.94c1.17,0,2.12-.95,2.12-2.12v-7.59l1.04.75c.13.09.28.14.43.14.23,0,.45-.11.6-.31.24-.33.16-.79-.17-1.03Zm-3.37,8.04c0,.36-.29.65-.65.65h-11.94c-.36,0-.65-.29-.65-.65v-8.65l6.38-4.59c.15-.1.34-.1.48,0l6.38,4.59v8.65Z"/>
    <path class="cls-3" d="m15.47,13.74c-.42,0-.79.08-1.13.25-.1.05-.3.16-.52.33-.04.03-.36.31-.6.72-.3.52-.51,1.9.16,3.4.86,1.92,2.68,2.91,3.69,3.33.09.04.19.06.28.06.1,0,.21-.02.31-.07.98-.45,2.76-1.48,3.63-3.38.61-1.34.57-2.7.21-3.34-.21-.37-.48-.62-.54-.67-.3-.27-.6-.41-.76-.46-.3-.11-.61-.17-.93-.17-.75-.03-1.44.3-1.92.81-.47-.51-1.16-.81-1.89-.81Zm2.54,2.56l.3-.55c.17-.32.55-.53.96-.53.13,0,.28.02.41.07.05.02.18.08.31.19.04.04.16.16.23.29.09.17.2,1-.26,2.01-.59,1.3-1.79,2.09-2.61,2.51-.83-.39-2.04-1.15-2.62-2.44-.45-1-.32-1.88-.22-2.07.09-.15.22-.28.26-.32.1-.08.19-.13.21-.14.18-.09.36-.1.49-.1h0c.4,0,.78.21.95.53l.3.55c.13.24.38.39.65.39h0c.27,0,.52-.15.65-.39Z"/>
  </g>
</svg>