<?xml version="1.0" encoding="UTF-8"?>
<svg id="plane" xmlns="http://www.w3.org/2000/svg" viewBox="0 0 34 34">
  <defs>
    <style>
      .cls-1 {
        fill: #392e44;
      }

      .cls-2 {
        fill: #fef0e9;
      }

      .cls-3 {
        fill: #d60014;
      }
    </style>
  </defs>
  <circle class="cls-2" cx="17" cy="17" r="17"/>
  <g>
    <path class="cls-3" d="m26.44,12.78h0c-.15-.17-.39-.24-.6-.16-1.08.36-2.28-.03-2.91-.96-.67-.99-.53-2.34.33-3.21.16-.16.21-.4.12-.61-.09-.21-.29-.35-.52-.35-2.26,0-4.09,1.84-4.09,4.09s1.84,4.09,4.09,4.09c1.57,0,2.97-.87,3.67-2.27.1-.2.07-.45-.08-.62Zm-4.79-3.91c-.46,1.12-.34,2.4.35,3.42.63.93,1.65,1.5,2.75,1.58-.53.44-1.19.68-1.9.68-1.64,0-2.97-1.33-2.97-2.97,0-1.18.71-2.24,1.76-2.71Z"/>
    <path class="cls-1" d="m23.69,17.45c-.58-2.93-3.13-5.06-6.18-5.06-2.63,0-4.97,1.67-5.89,4.1-.22-.04-.45-.06-.67-.06-2.09,0-3.79,1.7-3.79,3.79s1.7,3.79,3.79,3.79h12.62c1.81,0,3.28-1.47,3.28-3.28s-1.4-3.2-3.15-3.27Zm-.13,5.03h-12.62c-1.25,0-2.27-1.02-2.27-2.27s1.02-2.27,2.27-2.27c.26,0,.52.04.76.13.3.11.63,0,.82-.22.17-.09.31-.25.37-.46.58-2.05,2.48-3.49,4.61-3.49,2.5,0,4.55,1.87,4.77,4.36.04.39.37.69.75.69.02,0,.05,0,.07,0,.06,0,.12-.03.18-.05.09.03.18.06.28.06.97,0,1.77.79,1.77,1.77s-.79,1.77-1.77,1.77Z"/>
  </g>
</svg>