<?xml version="1.0" encoding="utf-8"?>
<!-- Generator: Adobe Illustrator 27.0.1, SVG Export Plug-In . SVG Version: 6.00 Build 0)  -->
<svg version="1.1" id="Camada_1" xmlns="http://www.w3.org/2000/svg" xmlns:xlink="http://www.w3.org/1999/xlink" x="0px" y="0px"
	 viewBox="0 0 182 17" style="enable-background:new 0 0 182 17;" xml:space="preserve">
<style type="text/css">
	.st0{fill:#363534;}
	.st1{fill:#EF8E2D;}
</style>
<path class="st0" d="M9.44,3.44H5.05c-1.02,0-1.38,0.35-1.38,1.5v1.98h5.61c0.11,0,0.22,0.05,0.3,0.13
	c0.08,0.08,0.13,0.19,0.13,0.31v2.09c0,0.12-0.05,0.23-0.13,0.31C9.51,9.85,9.4,9.89,9.29,9.89H3.67v6.43
	c0,0.12-0.05,0.23-0.13,0.31c-0.08,0.08-0.19,0.13-0.3,0.13H0.43c-0.11,0-0.22-0.05-0.31-0.13C0.05,16.56,0,16.44,0,16.33V4.94
	c0-4,2.49-4.71,5.28-4.71c1.4-0.03,2.79,0.07,4.17,0.29c0.3,0.04,0.43,0.15,0.43,0.44v2.04c0,0.06-0.01,0.12-0.03,0.17
	C9.83,3.21,9.8,3.26,9.76,3.31S9.67,3.38,9.61,3.4C9.56,3.43,9.5,3.44,9.44,3.44z"/>
<path class="st0" d="M18.44,16.97c-3.57,0-6.4-1.96-6.4-7.07V7.27c0-5.11,2.81-7.07,6.4-7.07c3.59,0,6.4,1.96,6.4,7.07v2.62
	C24.84,15,22.01,16.97,18.44,16.97z M21.13,7.25c0-2.65-0.86-3.77-2.68-3.77c-1.82,0-2.66,1.14-2.66,3.77v2.62
	c0,2.64,0.84,3.77,2.66,3.77c1.82,0,2.68-1.14,2.68-3.77V7.25z"/>
<path class="st0" d="M39.6,16.77h-3.31c-0.24,0-0.32-0.22-0.43-0.44l-2.9-5.58h-0.24c-0.45,0-1.12-0.05-1.54-0.05v5.6
	c0,0.12-0.05,0.23-0.13,0.31c-0.08,0.08-0.19,0.13-0.3,0.13h-2.81c-0.11,0-0.22-0.05-0.3-0.13c-0.08-0.08-0.13-0.19-0.13-0.31V1.54
	c0-0.75,0.3-0.95,0.98-1.06c1.46-0.19,2.92-0.29,4.39-0.29c3.68,0,6.51,1.25,6.51,5.15v0.29c0.05,0.94-0.19,1.88-0.69,2.67
	c-0.5,0.79-1.25,1.4-2.11,1.74l3.27,6.21c0.04,0.08,0.06,0.16,0.07,0.25C39.93,16.66,39.83,16.77,39.6,16.77z M35.7,5.33
	c0-1.34-1.02-1.96-2.81-1.96c-0.3,0-1.43,0.05-1.68,0.07v4.23c0.24,0,1.3,0.04,1.54,0.04c2.25,0,2.98-0.57,2.98-2.09L35.7,5.33z"/>
<path class="st0" d="M51.72,3.51h-3.5v12.82c0,0.12-0.05,0.23-0.13,0.31c-0.08,0.08-0.19,0.13-0.31,0.13h-2.84
	c-0.11,0-0.22-0.05-0.3-0.13c-0.08-0.08-0.13-0.19-0.13-0.31V3.51h-3.53c-0.06,0-0.11-0.01-0.16-0.03c-0.05-0.02-0.1-0.05-0.14-0.09
	c-0.04-0.04-0.07-0.09-0.09-0.14c-0.02-0.05-0.03-0.11-0.03-0.17V0.79c0-0.06,0.01-0.11,0.03-0.17c0.02-0.05,0.05-0.1,0.09-0.14
	s0.09-0.07,0.14-0.09c0.05-0.02,0.11-0.03,0.16-0.03h10.73c0.06,0,0.11,0.01,0.17,0.03c0.05,0.02,0.1,0.05,0.15,0.09
	s0.08,0.09,0.1,0.14c0.02,0.05,0.04,0.11,0.04,0.17v2.29c0,0.06-0.02,0.12-0.04,0.17c-0.02,0.05-0.06,0.1-0.1,0.14
	s-0.09,0.07-0.15,0.09C51.84,3.5,51.78,3.51,51.72,3.51z"/>
<path class="st0" d="M63.11,16.71c-1.39,0.21-2.79,0.31-4.2,0.29c-2.81,0-5.25-0.73-5.25-4.74V4.91c0-4,2.49-4.71,5.28-4.71
	c1.4-0.02,2.79,0.07,4.18,0.29c0.3,0.05,0.43,0.15,0.43,0.44v2.06c0,0.12-0.05,0.23-0.13,0.31c-0.08,0.08-0.19,0.13-0.31,0.13h-4.39
	c-1.02,0-1.39,0.35-1.39,1.5v2.01h5.61c0.11,0,0.22,0.05,0.3,0.13c0.08,0.08,0.13,0.19,0.13,0.31v2.09c0,0.12-0.05,0.23-0.13,0.31
	c-0.08,0.08-0.19,0.13-0.3,0.13h-5.61v2.33c0,1.14,0.36,1.5,1.39,1.5h4.39c0.11,0,0.22,0.05,0.3,0.13c0.08,0.08,0.13,0.19,0.13,0.31
	v2.05C63.54,16.51,63.41,16.64,63.11,16.71z"/>
<path class="st0" d="M70.65,16.97c-1.38,0.02-2.75-0.15-4.09-0.49c-0.22-0.07-0.43-0.2-0.43-0.44v-2.16c-0.01-0.05,0-0.11,0.01-0.16
	c0.02-0.05,0.04-0.1,0.08-0.14c0.04-0.04,0.08-0.07,0.13-0.09c0.05-0.02,0.11-0.03,0.16-0.02h0.07c0.89,0.09,3.27,0.26,4.11,0.26
	c1.49,0,1.93-0.48,1.93-1.54c0-0.64-0.3-1-1.43-1.68L68.21,8.7c-2.02-1.21-2.55-2.6-2.55-4.21c0-2.42,1.34-4.3,5.54-4.3
	c1.54,0.01,3.08,0.17,4.59,0.49c0.09,0.01,0.18,0.06,0.24,0.13c0.06,0.07,0.09,0.17,0.09,0.26v2.22c0.01,0.05,0,0.1-0.01,0.15
	c-0.02,0.05-0.04,0.09-0.08,0.13c-0.04,0.04-0.08,0.06-0.12,0.08c-0.05,0.02-0.1,0.02-0.15,0.02h-0.05
	c-0.61-0.05-3.12-0.25-4.59-0.25c-1.24,0-1.68,0.38-1.68,1.14c0,0.62,0.28,0.9,1.45,1.54l2.77,1.52c2.25,1.24,2.92,2.69,2.92,4.47
	C76.56,14.47,75.04,16.97,70.65,16.97z"/>
<path class="st1" d="M87.48,10.67c-0.56,0-1.43-0.07-1.92-0.09v5.75c0,0.06-0.01,0.11-0.03,0.17c-0.02,0.05-0.05,0.1-0.09,0.14
	c-0.04,0.04-0.08,0.07-0.14,0.1s-0.11,0.03-0.16,0.04h-2.16c-0.11,0-0.22-0.05-0.3-0.13c-0.08-0.08-0.13-0.19-0.13-0.31V1.17
	c0-0.44,0.26-0.57,0.69-0.66c1.4-0.2,2.82-0.29,4.24-0.29c3.33,0,6.23,1.19,6.23,5.09v0.19C93.71,9.41,90.81,10.67,87.48,10.67z
	 M90.72,5.31c0-1.85-1.08-2.56-3.24-2.56c-0.45,0-1.53,0.04-1.92,0.09v5.24c0.34,0,1.56,0.07,1.92,0.07c2.34,0,3.24-0.88,3.24-2.65
	V5.31z"/>
<path class="st1" d="M100.43,16.95c-3.37,0-5.17-2.33-5.17-5.48V9.67c0-3.15,1.77-5.48,5.17-5.48c3.4,0,5.17,2.34,5.17,5.48v1.79
	C105.62,14.61,103.83,16.95,100.43,16.95z M102.75,9.67c0-1.8-0.8-2.97-2.31-2.97c-1.52,0-2.31,1.14-2.31,2.97v1.79
	c0,1.81,0.8,2.97,2.31,2.97c1.52,0,2.31-1.14,2.31-2.97V9.67z"/>
<path class="st1" d="M117.61,16.77h-1.99c-0.12,0-0.23-0.06-0.31-0.14c-0.08-0.09-0.12-0.2-0.12-0.32V9.12
	c0-1.92-0.17-2.46-1.84-2.46c-0.86,0.07-1.7,0.34-2.44,0.79v8.86c0,0.12-0.04,0.23-0.12,0.32c-0.08,0.09-0.19,0.14-0.31,0.14h-1.99
	c-0.12-0.01-0.23-0.06-0.31-0.14c-0.08-0.09-0.12-0.2-0.12-0.32V4.78c0-0.12,0.05-0.23,0.13-0.31c0.08-0.08,0.19-0.13,0.3-0.13h1.88
	c0.11,0,0.23,0.05,0.31,0.13c0.08,0.08,0.13,0.19,0.13,0.31v0.49c1.02-0.74,2.25-1.12,3.5-1.06c3.11,0,3.74,2.14,3.74,4.94v7.18
	c-0.01,0.11-0.05,0.22-0.13,0.3C117.83,16.72,117.72,16.76,117.61,16.77z"/>
<path class="st1" d="M126.82,16.79c-0.49,0.09-0.98,0.14-1.47,0.15c-2.44,0-3.44-0.57-3.44-3.51V6.53l-2.03-0.31
	c-0.11-0.01-0.22-0.06-0.3-0.14c-0.08-0.08-0.13-0.19-0.14-0.3v-1c0-0.12,0.05-0.23,0.13-0.31c0.08-0.08,0.19-0.13,0.31-0.13h2.02
	V2.53c0.01-0.11,0.06-0.22,0.13-0.3c0.08-0.08,0.19-0.13,0.3-0.14l2.01-0.35h0.09c0.04,0,0.09,0,0.13,0.02s0.08,0.04,0.11,0.07
	c0.03,0.03,0.06,0.07,0.08,0.11s0.03,0.09,0.02,0.13v2.29h1.95c0.11,0,0.22,0.05,0.3,0.13c0.08,0.08,0.13,0.19,0.13,0.31v1.3
	c0,0.12-0.04,0.23-0.13,0.31c-0.08,0.08-0.19,0.13-0.31,0.13h-1.95v6.91c0,1.1,0.07,1.24,0.84,1.24h1.15c0.28,0,0.46,0.11,0.46,0.33
	v1.39C127.24,16.61,127.1,16.75,126.82,16.79z"/>
<path class="st1" d="M133.76,16.95c-3.37,0-5.17-2.33-5.17-5.48V9.67c0-3.15,1.77-5.48,5.17-5.48c3.4,0,5.17,2.34,5.17,5.48v1.79
	C138.93,14.61,137.16,16.95,133.76,16.95z M136.08,9.67c0-1.8-0.8-2.97-2.31-2.97c-1.52,0-2.31,1.14-2.31,2.97v1.79
	c0,1.81,0.8,2.97,2.31,2.97c1.51,0,2.31-1.14,2.31-2.97V9.67z"/>
<path class="st1" d="M158.1,0.77l-2.03,14.39c-0.2,1.39-0.82,1.78-1.95,1.78h-1.17c-0.97,0-1.49-0.49-1.79-1.76l-1.68-7.27
	c-0.05-0.19-0.05-0.24-0.13-0.24c-0.08,0-0.11,0.05-0.15,0.24l-1.68,7.27c-0.3,1.28-0.83,1.76-1.8,1.76h-1.17
	c-1.12,0-1.75-0.39-1.95-1.78l-2.03-14.39V0.7c0-0.04,0.02-0.09,0.04-0.13c0.02-0.04,0.05-0.08,0.08-0.1
	c0.03-0.03,0.07-0.05,0.11-0.06c0.04-0.01,0.09-0.02,0.13-0.01h2.3c0.1,0.01,0.19,0.05,0.26,0.13c0.07,0.07,0.11,0.17,0.11,0.27
	l1.56,13.15c0,0.2,0,0.33,0.11,0.33c0.11,0,0.09-0.13,0.13-0.33l1.86-7.73c0.05-0.31,0.23-0.59,0.48-0.78
	c0.25-0.19,0.57-0.26,0.88-0.22h1.49c0.31-0.05,0.63,0.03,0.88,0.21c0.26,0.19,0.43,0.47,0.48,0.78l1.86,7.73
	c0.04,0.2,0.04,0.33,0.13,0.33s0.09-0.13,0.11-0.33l1.55-13.15c0-0.1,0.04-0.2,0.11-0.27c0.07-0.07,0.16-0.12,0.26-0.13h2.3
	c0.04-0.01,0.09,0,0.13,0.01c0.04,0.01,0.08,0.03,0.12,0.06c0.03,0.03,0.06,0.06,0.08,0.11c0.02,0.04,0.03,0.08,0.03,0.13
	L158.1,0.77z"/>
<path class="st1" d="M169,11.56h-7.05v0.06c0,1.28,0.52,2.8,2.59,2.8c1.58,0,3.07-0.13,3.98-0.22h0.07c0.21,0,0.39,0.11,0.39,0.33
	v1.45c0,0.35-0.06,0.51-0.46,0.57c-1.38,0.28-2.79,0.41-4.19,0.38c-2.16,0-5.24-1.19-5.24-5.53V9.78c0-3.43,1.89-5.6,5.19-5.6
	c3.31,0,5.15,2.29,5.15,5.6v1.21C169.43,11.37,169.3,11.56,169,11.56z M166.56,9.4c0-1.72-0.93-2.71-2.25-2.71
	C163,6.69,162,7.66,162,9.4v0.09h4.59L166.56,9.4z"/>
<path class="st1" d="M176.81,16.95c-1.47-0.02-2.93-0.21-4.35-0.57c-0.49-0.13-0.56-0.26-0.56-0.57V0.44c0-0.12,0.05-0.23,0.13-0.31
	c0.08-0.08,0.19-0.13,0.3-0.13h1.99c0.11,0,0.22,0.05,0.3,0.13c0.08,0.08,0.13,0.19,0.13,0.31v3.9c0.69-0.1,1.38-0.15,2.08-0.15
	c3.48,0,5.17,2.09,5.17,5.53v1.72C181.97,14.85,180.28,16.95,176.81,16.95z M179.12,9.72c0-1.81-0.46-3.15-2.31-3.15
	c-0.7,0.01-1.39,0.06-2.08,0.15v7.7c0.69,0.11,1.38,0.16,2.08,0.15c1.86,0,2.31-1.34,2.31-3.15V9.72z"/>
</svg>
