<?xml version="1.0" encoding="utf-8"?>
<!-- Generator: Adobe Illustrator 27.1.1, SVG Export Plug-In . SVG Version: 6.00 Build 0)  -->
<svg version="1.1" id="Camada_1" xmlns="http://www.w3.org/2000/svg" xmlns:xlink="http://www.w3.org/1999/xlink" x="0px" y="0px"
	 viewBox="0 0 182 17" style="enable-background:new 0 0 182 17;" xml:space="preserve">
<style type="text/css">
	.st0{fill:#FFFFFF;}
	.st1{fill:#EF8E2D;}
</style>
<path class="st0" d="M9.4,3.4H5.1c-1,0-1.4,0.3-1.4,1.5v2h5.6c0.1,0,0.2,0.1,0.3,0.1s0.1,0.2,0.1,0.3v2.1c0,0.1-0.1,0.2-0.1,0.3
	C9.5,9.9,9.4,9.9,9.3,9.9H3.7v6.4c0,0.1,0,0.2-0.1,0.3c-0.1,0.1-0.2,0.1-0.3,0.1H0.4c-0.1,0-0.2,0-0.3-0.1C0.1,16.6,0,16.4,0,16.3
	V4.9c0-4,2.5-4.7,5.3-4.7c1.4,0,2.8,0.1,4.2,0.3c0.3,0,0.4,0.1,0.4,0.4v2c0,0.1,0,0.1,0,0.2c0,0-0.1,0.1-0.1,0.1S9.7,3.4,9.6,3.4
	C9.6,3.4,9.5,3.4,9.4,3.4z"/>
<path class="st0" d="M18.4,17c-3.6,0-6.4-2-6.4-7.1V7.3c0-5.1,2.8-7.1,6.4-7.1s6.4,2,6.4,7.1v2.6C24.8,15,22,17,18.4,17z M21.1,7.2
	c0-2.7-0.9-3.8-2.7-3.8s-2.7,1.1-2.7,3.8v2.6c0,2.6,0.8,3.8,2.7,3.8s2.7-1.1,2.7-3.8V7.2z"/>
<path class="st0" d="M39.6,16.8h-3.3c-0.2,0-0.3-0.2-0.4-0.4L33,10.8h-0.2c-0.5,0-1.1-0.1-1.5-0.1v5.6c0,0.1,0,0.2-0.1,0.3
	s-0.2,0.1-0.3,0.1h-2.8c-0.1,0-0.2,0-0.3-0.1s-0.1-0.2-0.1-0.3V1.5c0-0.8,0.3-0.9,1-1.1c1.5-0.2,2.9-0.3,4.4-0.3
	c3.7,0,6.5,1.2,6.5,5.2v0.3c0,0.9-0.2,1.9-0.7,2.7s-1.2,1.4-2.1,1.7l3.3,6.2c0,0.1,0.1,0.2,0.1,0.2C39.9,16.7,39.8,16.8,39.6,16.8z
	 M35.7,5.3c0-1.3-1-2-2.8-2c-0.3,0-1.4,0-1.7,0.1v4.2c0.2,0,1.3,0,1.5,0c2.2,0,3-0.6,3-2.1L35.7,5.3z"/>
<path class="st0" d="M51.7,3.5h-3.5v12.8c0,0.1,0,0.2-0.1,0.3s-0.2,0.1-0.3,0.1h-2.8c-0.1,0-0.2,0-0.3-0.1c-0.1-0.1-0.1-0.2-0.1-0.3
	V3.5H41c-0.1,0-0.1,0-0.2,0s-0.1,0-0.1-0.1s-0.1-0.1-0.1-0.1c0,0,0-0.1,0-0.2V0.8c0-0.1,0-0.1,0-0.2c0-0.1,0-0.1,0.1-0.1
	s0.1-0.1,0.1-0.1s0.1,0,0.2,0h10.7c0.1,0,0.1,0,0.2,0c0,0,0.1,0.1,0.2,0.1s0.1,0.1,0.1,0.1c0,0.1,0,0.1,0,0.2v2.3c0,0.1,0,0.1,0,0.2
	c0,0-0.1,0.1-0.1,0.1s-0.1,0.1-0.2,0.1C51.8,3.5,51.8,3.5,51.7,3.5z"/>
<path class="st0" d="M63.1,16.7c-1.4,0.2-2.8,0.3-4.2,0.3c-2.8,0-5.2-0.7-5.2-4.7V4.9c0-4,2.5-4.7,5.3-4.7c1.4,0,2.8,0.1,4.2,0.3
	c0.3,0,0.4,0.2,0.4,0.4V3c0,0.1,0,0.2-0.1,0.3s-0.2,0.1-0.3,0.1h-4.4c-1,0-1.4,0.3-1.4,1.5v2h5.6c0.1,0,0.2,0.1,0.3,0.1
	c0.1,0.1,0.1,0.2,0.1,0.3v2.1c0,0.1,0,0.2-0.1,0.3c-0.1,0.1-0.2,0.1-0.3,0.1h-5.6v2.3c0,1.1,0.4,1.5,1.4,1.5h4.4
	c0.1,0,0.2,0.1,0.3,0.1c0.1,0.1,0.1,0.2,0.1,0.3v2C63.5,16.5,63.4,16.6,63.1,16.7z"/>
<path class="st0" d="M70.7,17c-1.4,0-2.8-0.1-4.1-0.5c-0.2-0.1-0.4-0.2-0.4-0.4v-2.2c0-0.1,0-0.1,0-0.2c0-0.1,0-0.1,0.1-0.1
	s0.1-0.1,0.1-0.1c0.1,0,0.1,0,0.2,0h0.1c0.9,0.1,3.3,0.3,4.1,0.3c1.5,0,1.9-0.5,1.9-1.5c0-0.6-0.3-1-1.4-1.7l-3-1.8
	c-2-1.2-2.6-2.6-2.6-4.2c0-2.4,1.3-4.3,5.5-4.3c1.5,0,3.1,0.2,4.6,0.5c0.1,0,0.2,0.1,0.2,0.1s0.1,0.2,0.1,0.3v2.2c0,0,0,0.1,0,0.2
	c0,0,0,0.1-0.1,0.1c0,0-0.1,0.1-0.1,0.1c-0.1,0-0.1,0-0.2,0h-0.1c-0.6,0-3.1-0.2-4.6-0.2c-1.2,0-1.7,0.4-1.7,1.1
	c0,0.6,0.3,0.9,1.4,1.5l2.8,1.5c2.2,1.2,2.9,2.7,2.9,4.5C76.6,14.5,75,17,70.7,17z"/>
<path class="st1" d="M87.5,10.7c-0.6,0-1.4-0.1-1.9-0.1v5.8c0,0.1,0,0.1,0,0.2c0,0-0.1,0.1-0.1,0.1c0,0-0.1,0.1-0.1,0.1
	s-0.1,0-0.2,0H83c-0.1,0-0.2,0-0.3-0.1s-0.1-0.2-0.1-0.3V1.2c0-0.4,0.3-0.6,0.7-0.7c1.4-0.2,2.8-0.3,4.2-0.3c3.3,0,6.2,1.2,6.2,5.1
	v0.2C93.7,9.4,90.8,10.7,87.5,10.7z M90.7,5.3c0-1.8-1.1-2.6-3.2-2.6c-0.4,0-1.5,0-1.9,0.1v5.2c0.3,0,1.6,0.1,1.9,0.1
	c2.3,0,3.2-0.9,3.2-2.7V5.3z"/>
<path class="st1" d="M100.4,17c-3.4,0-5.2-2.3-5.2-5.5V9.7c0-3.2,1.8-5.5,5.2-5.5s5.2,2.3,5.2,5.5v1.8C105.6,14.6,103.8,17,100.4,17
	z M102.8,9.7c0-1.8-0.8-3-2.3-3c-1.5,0-2.3,1.1-2.3,3v1.8c0,1.8,0.8,3,2.3,3c1.5,0,2.3-1.1,2.3-3V9.7z"/>
<path class="st1" d="M117.6,16.8h-2c-0.1,0-0.2-0.1-0.3-0.1c-0.1-0.1-0.1-0.2-0.1-0.3V9.1c0-1.9-0.2-2.5-1.8-2.5
	c-0.9,0.1-1.7,0.3-2.4,0.8v8.9c0,0.1,0,0.2-0.1,0.3s-0.2,0.1-0.3,0.1h-2c-0.1,0-0.2-0.1-0.3-0.1c-0.1-0.1-0.1-0.2-0.1-0.3V4.8
	c0-0.1,0.1-0.2,0.1-0.3c0.1-0.1,0.2-0.1,0.3-0.1h1.9c0.1,0,0.2,0.1,0.3,0.1c0.1,0.1,0.1,0.2,0.1,0.3v0.5c1-0.7,2.2-1.1,3.5-1.1
	c3.1,0,3.7,2.1,3.7,4.9v7.2c0,0.1-0.1,0.2-0.1,0.3C117.8,16.7,117.7,16.8,117.6,16.8z"/>
<path class="st1" d="M126.8,16.8c-0.5,0.1-1,0.1-1.5,0.1c-2.4,0-3.4-0.6-3.4-3.5V6.5l-2-0.3c-0.1,0-0.2-0.1-0.3-0.1
	s-0.1-0.2-0.1-0.3v-1c0-0.1,0.1-0.2,0.1-0.3c0.1-0.1,0.2-0.1,0.3-0.1h2V2.5c0-0.1,0.1-0.2,0.1-0.3c0.1-0.1,0.2-0.1,0.3-0.1l2-0.4
	h0.1c0,0,0.1,0,0.1,0s0.1,0,0.1,0.1c0,0,0.1,0.1,0.1,0.1s0,0.1,0,0.1v2.3h1.9c0.1,0,0.2,0.1,0.3,0.1s0.1,0.2,0.1,0.3v1.3
	c0,0.1,0,0.2-0.1,0.3c-0.1,0.1-0.2,0.1-0.3,0.1h-1.9v6.9c0,1.1,0.1,1.2,0.8,1.2h1.2c0.3,0,0.5,0.1,0.5,0.3v1.4
	C127.2,16.6,127.1,16.8,126.8,16.8z"/>
<path class="st1" d="M133.8,17c-3.4,0-5.2-2.3-5.2-5.5V9.7c0-3.2,1.8-5.5,5.2-5.5s5.2,2.3,5.2,5.5v1.8C138.9,14.6,137.2,17,133.8,17
	z M136.1,9.7c0-1.8-0.8-3-2.3-3c-1.5,0-2.3,1.1-2.3,3v1.8c0,1.8,0.8,3,2.3,3s2.3-1.1,2.3-3V9.7z"/>
<path class="st1" d="M158.1,0.8l-2,14.4c-0.2,1.4-0.8,1.8-1.9,1.8H153c-1,0-1.5-0.5-1.8-1.8l-1.7-7.3c-0.1-0.2-0.1-0.2-0.1-0.2
	s-0.1,0.1-0.1,0.2l-1.7,7.3c-0.3,1.3-0.8,1.8-1.8,1.8h-1.2c-1.1,0-1.8-0.4-1.9-1.8l-2-14.4V0.7c0,0,0-0.1,0-0.1c0,0,0.1-0.1,0.1-0.1
	c0,0,0.1-0.1,0.1-0.1s0.1,0,0.1,0h2.3c0.1,0,0.2,0.1,0.3,0.1c0.1,0.1,0.1,0.2,0.1,0.3l1.6,13.1c0,0.2,0,0.3,0.1,0.3s0.1-0.1,0.1-0.3
	l1.9-7.7c0.1-0.3,0.2-0.6,0.5-0.8s0.6-0.3,0.9-0.2h1.5c0.3-0.1,0.6,0,0.9,0.2c0.3,0.2,0.4,0.5,0.5,0.8l1.9,7.7c0,0.2,0,0.3,0.1,0.3
	s0.1-0.1,0.1-0.3l1.6-13.1c0-0.1,0-0.2,0.1-0.3s0.2-0.1,0.3-0.1h2.3c0,0,0.1,0,0.1,0c0,0,0.1,0,0.1,0.1c0,0,0.1,0.1,0.1,0.1
	C158.1,0.6,158.2,0.7,158.1,0.8L158.1,0.8z"/>
<path class="st1" d="M169,11.6h-7.1v0.1c0,1.3,0.5,2.8,2.6,2.8c1.6,0,3.1-0.1,4-0.2h0.1c0.2,0,0.4,0.1,0.4,0.3V16
	c0,0.3-0.1,0.5-0.5,0.6c-1.4,0.3-2.8,0.4-4.2,0.4c-2.2,0-5.2-1.2-5.2-5.5V9.8c0-3.4,1.9-5.6,5.2-5.6c3.3,0,5.1,2.3,5.1,5.6V11
	C169.4,11.4,169.3,11.6,169,11.6z M166.6,9.4c0-1.7-0.9-2.7-2.2-2.7c-1.3,0-2.3,1-2.3,2.7v0.1L166.6,9.4L166.6,9.4z"/>
<path class="st1" d="M176.8,17c-1.5,0-2.9-0.2-4.4-0.6c-0.5-0.1-0.6-0.3-0.6-0.6V0.4c0-0.1,0.1-0.2,0.1-0.3s0.2-0.1,0.3-0.1h2
	c0.1,0,0.2,0.1,0.3,0.1s0.1,0.2,0.1,0.3v3.9c0.7-0.1,1.4-0.2,2.1-0.2c3.5,0,5.2,2.1,5.2,5.5v1.7C182,14.9,180.3,17,176.8,17z
	 M179.1,9.7c0-1.8-0.5-3.2-2.3-3.2c-0.7,0-1.4,0.1-2.1,0.2v7.7c0.7,0.1,1.4,0.2,2.1,0.1c1.9,0,2.3-1.3,2.3-3.1V9.7z"/>
</svg>
