<?xml version="1.0" encoding="utf-8"?>
<!-- Generator: Adobe Illustrator 27.2.0, SVG Export Plug-In . SVG Version: 6.00 Build 0)  -->
<svg version="1.1" id="Camada_1" xmlns="http://www.w3.org/2000/svg" xmlns:xlink="http://www.w3.org/1999/xlink" x="0px" y="0px"
	 viewBox="0 0 90.1 17" style="enable-background:new 0 0 90.1 17;" xml:space="preserve">
<style type="text/css">
	.st0{fill:#303030;}
	.st1{fill:#E6262B;}
	.st2{fill:#FFFFFF;}
</style>
<g>
	<g>
		<path class="st0" d="M26.8,14.9c-1.2,0-2.2-0.2-3.1-0.7c-0.9-0.5-1.6-1.2-2.1-2c-0.5-0.9-0.7-1.8-0.7-2.9c0-1.1,0.2-2,0.7-2.9
			c0.5-0.8,1.2-1.5,2-2c0.9-0.5,1.9-0.7,3-0.7c0.8,0,1.6,0.1,2.4,0.4c0.7,0.3,1.3,0.8,1.8,1.4c0.5,0.7,0.7,1.6,0.6,2.7h-2.4
			c0-0.7-0.2-1.3-0.6-1.7s-1-0.6-1.7-0.6c-0.6,0-1.1,0.1-1.6,0.4c-0.5,0.3-0.8,0.7-1.1,1.2c-0.3,0.5-0.4,1.1-0.4,1.8
			c0,1,0.3,1.9,0.9,2.5c0.6,0.6,1.4,0.9,2.5,0.9c1.2,0,2.3-0.4,3.4-1.2l1.2,1.9c-0.6,0.4-1.3,0.8-2,1.1
			C28.7,14.7,27.8,14.9,26.8,14.9z"/>
		<path class="st0" d="M32.5,10.8c0-2.3,1.4-3.9,4.4-3.9c3,0,4.4,1.6,4.4,3.9c0,2.3-1.4,3.9-4.4,3.9C33.9,14.7,32.5,13.1,32.5,10.8z
			 M36.9,12.8c1.2,0,1.8-0.8,1.8-2c0-1.2-0.6-2-1.8-2c-1.2,0-1.8,0.8-1.8,2C35.1,12,35.7,12.8,36.9,12.8z"/>
		<path class="st0" d="M42.6,3.6h2.6v11h-2.6V3.6z"/>
		<path class="st0" d="M46.6,11.3c0-2.9,2.1-4.4,4.9-4.4c1.2,0,2.4,0.2,3.2,0.6v7.1h-2.6V13c-0.5,1.2-1.4,1.8-2.6,1.8
			C47.8,14.7,46.6,13.5,46.6,11.3z M50.5,12.9c1.1,0,1.7-0.9,1.7-3.3V9c-0.3-0.1-0.6-0.1-0.9-0.1c-1.3,0-2.1,0.9-2.1,2.2
			C49.1,12.3,49.6,12.9,50.5,12.9z"/>
		<path class="st0" d="M56.4,14.2V3.6H59v5c0.5-1.2,1.4-1.8,2.7-1.8c1.8,0,3,1.3,3,3.5c0,2.9-2.1,4.4-4.9,4.4
			C58.4,14.7,57.3,14.5,56.4,14.2z M59.9,12.8c1.3,0,2.1-0.9,2.1-2.2c0-1.2-0.5-1.8-1.4-1.8c-1,0-1.7,1-1.7,3.3v0.6
			C59.3,12.7,59.6,12.8,59.9,12.8z"/>
		<path class="st0" d="M65.7,10.8c0-2.3,1.4-3.9,4.4-3.9c3,0,4.4,1.6,4.4,3.9c0,2.3-1.4,3.9-4.4,3.9C67.1,14.7,65.7,13.1,65.7,10.8z
			 M70.1,12.8c1.2,0,1.8-0.8,1.8-2c0-1.2-0.6-2-1.8-2s-1.8,0.8-1.8,2C68.3,12,68.9,12.8,70.1,12.8z"/>
		<path class="st0" d="M75.8,7h2.6v1.6c0.5-1.2,1.4-1.8,2.7-1.8v2.4c-2.3,0-2.7,0.5-2.7,1.9v3.4h-2.6V7z"/>
		<path class="st0" d="M81.8,10.9c0-2.5,1.8-4,4.4-4c1.9,0,3.2,0.8,3.3,2.4c0,1.2-0.7,2.5-3.6,2.5c-0.6,0-1.1-0.1-1.5-0.2
			c0.3,1,1.1,1.4,2.4,1.4c0.9,0,1.7-0.2,2.4-0.5l0,1.5c-0.9,0.6-2,0.9-3.1,0.9C83.4,14.7,81.8,13.4,81.8,10.9z M85.4,10.3
			c1.3,0,1.7-0.3,1.7-0.8c0-0.5-0.4-0.8-1.1-0.8c-0.8,0-1.6,0.4-1.8,1.4C84.6,10.2,85,10.3,85.4,10.3z"/>
	</g>
	<g>
		<path class="st1" d="M12.8,16.8c-0.2,0-0.4,0-0.7,0.1c-2.8,0.3-5.6,0.2-8.4-0.1c-2.6-0.3-3.4-2.6-3.6-4.9C0,10-0.1,8.3,0.1,6.5
			C0.2,5,0.2,2.9,1.3,1.7c0.6-0.7,1.5-1.2,2.5-1.4C6.4-0.1,9.2,0,11.9,0.2c1.3,0.1,2.6,0.2,3.6,1.1C16.9,2.6,17,4.6,17,6.4
			c0.1,1.3,0.1,2.5,0,3.8c0,1.1,0,2.4-0.3,3.5c-0.2,0.9-0.8,1.8-1.6,2.3C14.4,16.5,13.7,16.7,12.8,16.8z"/>
		<g>
			<g>
				<path class="st2" d="M6.6,12.5c-0.7-0.4-1.3-0.9-1.7-1.6c-0.4-0.7-0.6-1.5-0.6-2.4c0-0.9,0.2-1.7,0.6-2.3
					c0.4-0.7,0.9-1.2,1.7-1.6C7.2,4.1,8,4,9,4c0.7,0,1.3,0.1,1.9,0.3c0.6,0.2,1.1,0.6,1.4,1.1c0.4,0.5,0.5,1.1,0.5,1.9
					c0,0.1,0,0.1,0,0.2c0,0.2-0.1,0.3-0.3,0.3l-1.6,0c-0.2,0-0.3-0.1-0.3-0.3c-0.1-0.4-0.2-0.7-0.4-1C9.9,6.2,9.5,6.1,8.9,6.1
					c-0.6,0-1.1,0.2-1.5,0.7C7,7.2,6.8,7.7,6.8,8.5c0,0.7,0.2,1.3,0.7,1.8c0.4,0.4,1,0.6,1.8,0.6c0.8,0,1.6-0.2,2.4-0.7
					c0.2-0.1,0.4,0,0.4,0.1l0.7,1.3c0.1,0.2,0,0.3-0.1,0.4c-1.1,0.7-2.3,1.1-3.6,1.1C8.1,13,7.3,12.8,6.6,12.5z"/>
			</g>
		</g>
	</g>
</g>
</svg>
