<?xml version="1.0" encoding="UTF-8"?>
<svg id="plane" xmlns="http://www.w3.org/2000/svg" viewBox="0 0 34 34">
  <defs>
    <style>
      .cls-1 {
        fill: #392e44;
      }

      .cls-2 {
        fill: #fef0e9;
      }

      .cls-3 {
        fill: #d60014;
      }
    </style>
  </defs>
  <circle class="cls-2" cx="17" cy="17" r="17"/>
  <g>
    <path class="cls-1" d="m17,7.5c-5.24,0-9.5,4.26-9.5,9.5s4.26,9.5,9.5,9.5,9.5-4.26,9.5-9.5-4.26-9.5-9.5-9.5Zm0,17.64c-4.49,0-8.14-3.65-8.14-8.14s3.65-8.14,8.14-8.14,8.14,3.65,8.14,8.14-3.65,8.14-8.14,8.14Z"/>
    <path class="cls-3" d="m17,13.61c-.38,0-.68.3-.68.68v2.43l-1.84,1.84c-.27.27-.27.69,0,.96.13.13.31.2.48.2s.35-.07.48-.2l2.04-2.04c.13-.13.2-.3.2-.48v-2.71c0-.37-.3-.68-.68-.68Z"/>
    <path class="cls-3" d="m17,9.54c-.38,0-.68.3-.68.68v.68c0,.37.3.68.68.68s.68-.3.68-.68v-.68c0-.37-.3-.68-.68-.68Z"/>
    <path class="cls-3" d="m17,22.43c-.38,0-.68.3-.68.68v.68c0,.37.3.68.68.68s.68-.3.68-.68v-.68c0-.37-.3-.68-.68-.68Z"/>
    <path class="cls-3" d="m23.79,16.32h-.68c-.38,0-.68.3-.68.68s.3.68.68.68h.68c.38,0,.68-.3.68-.68s-.3-.68-.68-.68Z"/>
    <path class="cls-3" d="m10.89,16.32h-.68c-.38,0-.68.3-.68.68s.3.68.68.68h.68c.38,0,.68-.3.68-.68s-.3-.68-.68-.68Z"/>
  </g>
</svg>