<?xml version="1.0" encoding="UTF-8"?>
<svg id="plane" xmlns="http://www.w3.org/2000/svg" viewBox="0 0 34 34">
  <defs>
    <style>
      .cls-1 {
        fill: #392e44;
      }

      .cls-2 {
        fill: #fef0e9;
      }

      .cls-3 {
        fill: #d60014;
      }
    </style>
  </defs>
  <circle class="cls-2" cx="17" cy="17" r="17"/>
  <g>
    <path class="cls-1" d="m23.66,21.33l-.64-1.28c-.38-.77-.59-1.63-.59-2.49v-2.6c0-2.76-2.08-5.05-4.75-5.38v-1.4c0-.37-.3-.68-.68-.68s-.68.3-.68.68v1.4c-2.67.34-4.75,2.62-4.75,5.38v2.6c0,.86-.2,1.72-.59,2.49l-.64,1.28c-.27.53-.24,1.15.07,1.65.31.51.85.81,1.45.81h1.78s0,0,0,0h6.71s0,0,0,0h1.78c.59,0,1.13-.3,1.45-.81.31-.5.34-1.12.07-1.66Zm-1.23.94s-.12.16-.29.16h-10.27c-.17,0-.26-.11-.29-.16-.03-.05-.09-.18-.02-.33l.64-1.28c.48-.96.73-2.03.73-3.09v-2.6c0-2.25,1.83-4.07,4.07-4.07s4.07,1.83,4.07,4.07v2.6c0,1.07.25,2.14.73,3.09l.64,1.28c.08.15.02.29-.02.33Z"/>
    <path class="cls-3" d="m16.99,25.15c-.97,0-1.78-.56-1.98-1.31,0-.01,0-.03-.01-.04h-1.36c.19,1.52,1.61,2.71,3.36,2.71s3.17-1.19,3.36-2.71h-1.36c-.19.77-1.01,1.36-2,1.36Z"/>
  </g>
</svg>