<?xml version="1.0" encoding="UTF-8"?>
<svg id="plane" xmlns="http://www.w3.org/2000/svg" viewBox="0 0 34 34">
  <defs>
    <style>
      .cls-1 {
        fill: #392e44;
      }

      .cls-2 {
        fill: #fef0e9;
      }

      .cls-3 {
        fill: #d60014;
      }
    </style>
  </defs>
  <circle class="cls-2" cx="17" cy="17" r="17"/>
  <g>
    <path class="cls-1" d="m25.65,20.38l-1.46-8.05c-.33-1.78-1.88-3.08-3.69-3.08h-6.99c-1.81,0-3.37,1.29-3.69,3.08l-1.46,8.05c-.64.26-1.1.89-1.1,1.62v1c0,.96.79,1.75,1.75,1.75h16c.96,0,1.75-.79,1.75-1.75v-1c0-.73-.46-1.36-1.1-1.62Zm-14.36-7.78c.19-1.07,1.13-1.85,2.21-1.85h6.99c1.09,0,2.02.78,2.21,1.85l1.39,7.65h-14.2l1.39-7.65Zm13.96,10.4c0,.14-.11.25-.25.25H9c-.14,0-.25-.11-.25-.25v-1c0-.14.11-.25.25-.25h16c.14,0,.25.11.25.25v1Z"/>
    <path class="cls-3" d="m17,13.25c-.41,0-.75.34-.75.75v3c0,.41.34.75.75.75s.75-.34.75-.75v-3c0-.41-.34-.75-.75-.75Z"/>
  </g>
</svg>