<svg xmlns="http://www.w3.org/2000/svg" viewBox="0 0 24 24"><title>10.Timing</title><g id="_10.Timing" data-name="10.Timing"><path d="M8,19H7A7,7,0,0,1,5.275,5.223a6,6,0,0,1,11.646.8,6.45,6.45,0,0,1,2.351.218l-.544,1.924a4.481,4.481,0,0,0-2.473.01l-1.33.383.054-1.383a1.881,1.881,0,0,1,.02-.2A4,4,0,0,0,7.075,6.26l-.13.7-.7.106A5,5,0,0,0,7,17H8Z"/><path d="M17,23a7,7,0,1,1,7-7A7.008,7.008,0,0,1,17,23Zm0-12a5,5,0,1,0,5,5A5.006,5.006,0,0,0,17,11Z"/><polygon points="18.293 18.707 16 16.414 16 13 18 13 18 15.586 19.707 17.293 18.293 18.707"/></g></svg>