<svg xmlns="http://www.w3.org/2000/svg" viewBox="0 0 24 24"><title>14.Cloud</title><g id="_14.Cloud" data-name="14.Cloud"><path d="M13,20H7A7,7,0,0,1,5.276,6.223a6,6,0,0,1,11.645.8,6.47,6.47,0,0,1,6.37,3.518l-1.781.91a4.5,4.5,0,0,0-5.256-2.276l-1.339.385L15,7.979A4,4,0,0,0,7.076,7.26l-.131.7-.7.106A5,5,0,0,0,7,18h6Z"/><path d="M19,22.118l-.447-.223C18.367,21.8,14,19.577,14,16a3,3,0,0,1,5-2.234A3,3,0,0,1,24,16c0,3.577-4.367,5.8-4.553,5.9ZM17,15a1,1,0,0,0-1,1c0,1.807,2.076,3.282,3.006,3.852C20.128,19.171,22,17.684,22,16a1,1,0,0,0-2,0H18A1,1,0,0,0,17,15Z"/></g></svg>