<svg xmlns="http://www.w3.org/2000/svg" viewBox="0 0 24 24"><title>19.Media</title><g id="_19.Media" data-name="19.Media"><path d="M10,19H7A7,7,0,0,1,5.275,5.223a6,6,0,0,1,11.646.8,6.491,6.491,0,0,1,5.9,2.735L21.183,9.913a4.508,4.508,0,0,0-4.928-1.734l-1.33.383.054-1.383a1.881,1.881,0,0,1,.02-.2A4,4,0,0,0,7.075,6.26l-.13.7-.7.106A5,5,0,0,0,7,17h3Z"/><path d="M24,23H12V12H24ZM14,21h8V14H14Z"/><polygon points="13.707 22.707 12.293 21.293 18 15.586 20 17.586 22.293 15.293 23.707 16.707 20 20.414 18 18.414 13.707 22.707"/></g></svg>