<svg xmlns="http://www.w3.org/2000/svg" viewBox="0 0 24 24"><title>28.Database</title><g id="_28.Database" data-name="28.Database"><path d="M10,18H7A7,7,0,0,1,5.275,4.223a6,6,0,0,1,11.646.8,6.466,6.466,0,0,1,4.716,1.459L20.363,8.028a4.5,4.5,0,0,0-4.108-.849l-1.33.383.054-1.383a1.881,1.881,0,0,1,.02-.2A4,4,0,0,0,7.075,5.26l-.13.7-.7.106A5,5,0,0,0,7,16h3Z"/><path d="M24,16H12V10H24ZM14,14h8V12H14Z"/><path d="M24,24H12V18H24ZM14,22h8V20H14Z"/><rect x="13" y="15" width="2" height="4"/><rect x="21" y="15" width="2" height="4"/></g></svg>