<svg xmlns="http://www.w3.org/2000/svg" viewBox="0 0 24 24"><title>31.Search</title><g id="_31.Search" data-name="31.Search"><path d="M13,20H7A7,7,0,0,1,5.276,6.223a6,6,0,0,1,11.645.8,6.471,6.471,0,0,1,5.593,2.336l-1.542,1.274a4.492,4.492,0,0,0-4.718-1.458l-1.339.385L15,7.979A4,4,0,0,0,7.076,7.26l-.131.7-.7.106A5,5,0,0,0,7,18h6Z"/><path d="M18,20a4,4,0,1,1,4-4A4,4,0,0,1,18,20Zm0-6a2,2,0,1,0,2,2A2,2,0,0,0,18,14Z"/><rect x="20.5" y="17.379" width="2" height="4.243" transform="translate(-7.491 20.914) rotate(-45)"/></g></svg>