<svg xmlns="http://www.w3.org/2000/svg" viewBox="0 0 24 24"><title>6.Protect</title><g id="_6.Protect" data-name="6.Protect"><path d="M10,19H7A7,7,0,0,1,5.275,5.223a6,6,0,0,1,11.646.8,6.477,6.477,0,0,1,3.534.682l-.91,1.781a4.458,4.458,0,0,0-3.29-.311l-1.33.383.054-1.383a1.881,1.881,0,0,1,.02-.2A4,4,0,0,0,7.075,6.26l-.13.7-.7.106A5,5,0,0,0,7,17h3Z"/><path d="M24,15H12V10H24ZM14,13h8V12H14Z"/><path d="M18,23a8.646,8.646,0,0,1-5.707-2.293L12,20.414V16h2v3.543A6.657,6.657,0,0,0,18,21Z"/><path d="M18,23V21a6.579,6.579,0,0,0,4-1.454V16h2v4.414l-.293.293A8.646,8.646,0,0,1,18,23Z"/><rect x="17" y="17" width="2" height="5"/></g></svg>