<svg xmlns="http://www.w3.org/2000/svg" viewBox="0 0 24 24"><title>7.Upload</title><g id="_7.Upload" data-name="7.Upload"><path d="M17.5,20H14V18h3.5a4.5,4.5,0,1,0-1.245-8.821l-1.33.383.054-1.383a1.881,1.881,0,0,1,.02-.2A4,4,0,0,0,7.075,7.26l-.13.7-.7.106A5,5,0,0,0,7,18H8v2H7A7,7,0,0,1,5.275,6.223a6,6,0,0,1,11.646.8A6.5,6.5,0,1,1,17.5,20Z"/><polygon points="13.293 15.707 11 13.414 8.707 15.707 7.293 14.293 11 10.586 14.707 14.293 13.293 15.707"/><rect x="10" y="12" width="2" height="10"/></g></svg>