<?xml version="1.0" encoding="UTF-8"?><svg xmlns="http://www.w3.org/2000/svg" viewBox="0 0 24 24"><g id="a"/><g id="b"/><g id="c"/><g id="d"/><g id="e"/><g id="f"/><g id="g"/><g id="h"/><g id="i"/><g id="j"/><g id="k"/><g id="l"/><g id="m"/><g id="n"/><g id="o"/><g id="p"/><g id="q"/><g id="r"><path d="M17,2.25H7c-.96,0-1.75,.79-1.75,1.75V13c0,2.07,1.68,3.75,3.75,3.75h.25v2.25c0,1.52,1.23,2.75,2.75,2.75s2.75-1.23,2.75-2.75v-2.25h.25c2.07,0,3.75-1.68,3.75-3.75V4c0-.96-.79-1.75-1.75-1.75ZM7,3.75h10c.14,0,.25,.11,.25,.25v7.25H6.75V4c0-.14,.11-.25,.25-.25Zm6.25,15.25c0,.69-.56,1.25-1.25,1.25s-1.25-.56-1.25-1.25v-2.25h2.5v2.25Zm1.75-3.75h-6c-1.24,0-2.25-1.01-2.25-2.25v-.25h10.5v.25c0,1.24-1.01,2.25-2.25,2.25Z"/></g><g id="s"/><g id="t"/><g id="u"/></svg>