<?xml version="1.0" encoding="UTF-8"?><svg xmlns="http://www.w3.org/2000/svg" viewBox="0 0 24 24"><g id="a"/><g id="b"/><g id="c"/><g id="d"/><g id="e"><g><path d="M18,14.25h-2.95l2.08-2.08c.71-.71,1.1-1.65,1.1-2.65s-.39-1.94-1.1-2.65c-1.42-1.42-3.89-1.42-5.3,0l-2.08,2.08v-2.95c0-2.07-1.68-3.75-3.75-3.75s-3.75,1.68-3.75,3.75v12c0,2.07,1.68,3.75,3.75,3.75h12c2.07,0,3.75-1.68,3.75-3.75s-1.68-3.75-3.75-3.75Zm-5.11-6.33c.85-.85,2.33-.85,3.18,0,.43,.42,.66,.99,.66,1.59s-.23,1.17-.66,1.59l-6.33,6.33v-6.36l3.14-3.14ZM3.75,18V6c0-1.24,1.01-2.25,2.25-2.25s2.25,1.01,2.25,2.25v12c0,1.24-1.01,2.25-2.25,2.25s-2.25-1.01-2.25-2.25Zm14.25,2.25H9.05l4.53-4.53s.1,.03,.15,.03h4.27c1.24,0,2.25,1.01,2.25,2.25s-1.01,2.25-2.25,2.25Z"/><path d="M6.77,18c0-.41-.34-.75-.75-.75h-.01c-.41,0-.74,.34-.74,.75s.34,.75,.75,.75,.75-.34,.75-.75Z"/></g></g><g id="f"/><g id="g"/><g id="h"/><g id="i"/><g id="j"/><g id="k"/><g id="l"/><g id="m"/><g id="n"/><g id="o"/><g id="p"/><g id="q"/><g id="r"/><g id="s"/><g id="t"/><g id="u"/></svg>