<?xml version="1.0" encoding="UTF-8"?><svg xmlns="http://www.w3.org/2000/svg" viewBox="0 0 24 24"><g id="a"/><g id="b"/><g id="c"/><g id="d"/><g id="e"/><g id="f"/><g id="g"/><g id="h"/><g id="i"/><g id="j"/><g id="k"/><g id="l"/><g id="m"/><g id="n"><path d="M21.6,8.39c0-1-.39-1.94-1.1-2.65-1.46-1.46-3.84-1.46-5.3,0l-3.71,3.71-.18-.18c-.68-.68-1.79-.68-2.48,0l-.71,.71c-.33,.33-.51,.77-.51,1.24s.18,.91,.51,1.24l.18,.18-5.83,5.83c-.21,.21-.28,.54-.16,.82s.39,.46,.69,.46H11.49c.2,0,.39-.08,.53-.22l1.59-1.59,.18,.18h0c.34,.34,.79,.51,1.24,.51s.9-.17,1.24-.51l.71-.71c.68-.68,.68-1.79,0-2.48l-.18-.18,3.71-3.71c.71-.71,1.1-1.65,1.1-2.65Zm-10.42,9.86H4.81l4.55-4.55,3.18,3.18-1.37,1.37Zm4.73-1.9l-.71,.71c-.1,.1-.26,.1-.35,0l-5.66-5.66c-.06-.06-.07-.14-.07-.18s0-.11,.07-.18l.71-.71c.1-.1,.26-.1,.35,0l4.95,4.95h0l.71,.71c.06,.06,.07,.14,.07,.18s0,.11-.07,.18Zm3.54-6.36l-3.71,3.71-3.18-3.18,3.71-3.71c.88-.88,2.3-.88,3.18,0,.42,.43,.66,.99,.66,1.59s-.23,1.17-.66,1.59Z"/></g><g id="o"/><g id="p"/><g id="q"/><g id="r"/><g id="s"/><g id="t"/><g id="u"/></svg>