<?xml version="1.0" encoding="UTF-8"?><svg xmlns="http://www.w3.org/2000/svg" viewBox="0 0 24 24"><g id="a"/><g id="b"/><g id="c"/><g id="d"/><g id="e"/><g id="f"/><g id="g"/><g id="h"/><g id="i"/><g id="j"/><g id="k"/><g id="l"><path d="M21,19.25H12.88l1.11-1.11h0l5.66-5.66c.71-.71,1.1-1.65,1.1-2.65s-.39-1.94-1.1-2.65l-2.83-2.83c-1.46-1.46-3.84-1.46-5.3,0L3.74,12.13c-.71,.71-1.1,1.65-1.1,2.65s.39,1.94,1.1,2.65l1.82,1.82H3c-.41,0-.75,.34-.75,.75s.34,.75,.75,.75H21c.41,0,.75-.34,.75-.75s-.34-.75-.75-.75ZM12.58,5.41c.85-.85,2.33-.85,3.18,0l2.83,2.83c.42,.43,.66,.99,.66,1.59s-.23,1.17-.66,1.59l-5.13,5.13-6.01-6.01,5.13-5.13Zm-4.95,13.79l-2.83-2.83c-.42-.42-.66-.99-.66-1.59s.23-1.17,.66-1.59l1.59-1.59,6.01,6.01-1.59,1.59s-.02,.04-.03,.05h-3.11s-.02-.04-.03-.05Z"/></g><g id="m"/><g id="n"/><g id="o"/><g id="p"/><g id="q"/><g id="r"/><g id="s"/><g id="t"/><g id="u"/></svg>