<?xml version="1.0" encoding="UTF-8"?><svg xmlns="http://www.w3.org/2000/svg" viewBox="0 0 24 24"><g id="a"/><g id="b"/><g id="c"/><g id="d"/><g id="e"/><g id="f"/><g id="g"><path d="M21,17.25h-2.25V6.75h2.25c.41,0,.75-.34,.75-.75s-.34-.75-.75-.75h-2.25V3c0-.41-.34-.75-.75-.75s-.75,.34-.75,.75v2.25H6.75V3c0-.41-.34-.75-.75-.75s-.75,.34-.75,.75v2.25H3c-.41,0-.75,.34-.75,.75s.34,.75,.75,.75h2.25v10.5H3c-.41,0-.75,.34-.75,.75s.34,.75,.75,.75h2.25v2.25c0,.41,.34,.75,.75,.75s.75-.34,.75-.75v-2.25h10.5v2.25c0,.41,.34,.75,.75,.75s.75-.34,.75-.75v-2.25h2.25c.41,0,.75-.34,.75-.75s-.34-.75-.75-.75Zm-14.25,0V6.75h10.5v10.5H6.75Z"/></g><g id="h"/><g id="i"/><g id="j"/><g id="k"/><g id="l"/><g id="m"/><g id="n"/><g id="o"/><g id="p"/><g id="q"/><g id="r"/><g id="s"/><g id="t"/><g id="u"/></svg>