<?xml version="1.0" encoding="UTF-8"?><svg xmlns="http://www.w3.org/2000/svg" viewBox="0 0 24 24"><g id="a"/><g id="b"/><g id="c"/><g id="d"/><g id="e"/><g id="f"/><g id="g"/><g id="h"/><g id="i"/><g id="j"/><g id="k"><path d="M20.96,13.48l-2.4-1.48,2.4-1.48c.53-.33,.84-.89,.84-1.52s-.31-1.2-.84-1.52L12.91,2.51c-.56-.35-1.26-.34-1.82,0L3.04,7.48c-.53,.33-.84,.89-.84,1.52s.31,1.2,.84,1.52l2.4,1.48-2.4,1.48c-.53,.33-.84,.89-.84,1.52s.31,1.2,.84,1.52l8.06,4.97c.28,.17,.59,.26,.91,.26s.63-.09,.91-.26l8.06-4.97c.53-.33,.84-.89,.84-1.52s-.31-1.2-.84-1.52ZM3.69,9s.01-.17,.13-.24h0L11.88,3.79s.08-.04,.12-.04,.08,.01,.12,.04l8.06,4.97c.12,.07,.13,.19,.13,.24s-.01,.17-.13,.24l-8.06,4.97c-.08,.05-.17,.05-.24,0L3.82,9.24c-.12-.07-.13-.19-.13-.24Zm16.48,6.24l-8.06,4.97c-.08,.05-.17,.05-.24,0L3.82,15.24c-.12-.07-.13-.19-.13-.24s.01-.17,.13-.24l3.04-1.87,4.23,2.61c.28,.17,.59,.26,.91,.26s.63-.09,.91-.26l4.23-2.61,3.04,1.88c.12,.07,.13,.19,.13,.24s-.01,.17-.13,.24Z"/></g><g id="l"/><g id="m"/><g id="n"/><g id="o"/><g id="p"/><g id="q"/><g id="r"/><g id="s"/><g id="t"/><g id="u"/></svg>