<?xml version="1.0" encoding="UTF-8"?><svg xmlns="http://www.w3.org/2000/svg" viewBox="0 0 24 24"><g id="a"/><g id="b"/><g id="c"/><g id="d"/><g id="e"/><g id="f"/><g id="g"/><g id="h"/><g id="i"><path d="M21.74,17.47c-.38-2.13-1.57-3.44-2.24-4.03-.03-.03-.07-.04-.1-.06-.03-.04-.05-.09-.09-.13l-7.07-7.07c-.15-.14-.31-.25-.49-.34v-.84c0-1.52-1.23-2.75-2.75-2.75s-2.75,1.23-2.75,2.75v4.69l-2.85,2.85c-.71,.71-1.1,1.65-1.1,2.65s.39,1.94,1.1,2.65l3.54,3.54c.73,.73,1.69,1.1,2.65,1.1s1.92-.37,2.65-1.1l4.06-4.06c-.01,.06-.03,.12-.04,.18-.15,.85,.08,1.74,.62,2.38,.46,.55,1.12,.87,1.79,.87h.67c.67,0,1.32-.32,1.79-.87,.54-.64,.77-1.53,.62-2.41ZM7.75,5c0-.69,.56-1.25,1.25-1.25s1.25,.56,1.25,1.25v.84c-.18,.08-.34,.19-.49,.34l-2.01,2.01v-3.19Zm3.43,15.32c-.88,.88-2.31,.88-3.18,0l-3.54-3.54c-.42-.42-.66-.99-.66-1.59s.23-1.17,.66-1.59l5.79-5.79v3.19c0,.41,.34,.75,.75,.75s.75-.34,.75-.75v-3.19l5.97,5.97-6.54,6.54Zm8.8-1.4c-.11,.13-.33,.33-.64,.33h-.67c-.31,0-.53-.21-.64-.33-.26-.3-.37-.74-.29-1.18,.22-1.22,.77-2.1,1.26-2.67,.49,.57,1.04,1.45,1.27,2.7,.07,.42-.04,.85-.29,1.16Z"/></g><g id="j"/><g id="k"/><g id="l"/><g id="m"/><g id="n"/><g id="o"/><g id="p"/><g id="q"/><g id="r"/><g id="s"/><g id="t"/><g id="u"/></svg>