<?xml version="1.0" encoding="UTF-8"?><svg xmlns="http://www.w3.org/2000/svg" viewBox="0 0 24 24"><g id="a"/><g id="b"/><g id="c"/><g id="d"><path d="M20,2.25H7c-.96,0-1.75,.79-1.75,1.75v1.25h-.25c-1.52,0-2.75,1.23-2.75,2.75v1c0,1.52,1.23,2.75,2.75,2.75h7c.69,0,1.25,.56,1.25,1.25v.25h-.25c-.96,0-1.75,.79-1.75,1.75v4c0,1.52,1.23,2.75,2.75,2.75s2.75-1.23,2.75-2.75v-4c0-.96-.79-1.75-1.75-1.75h-.25v-.25c0-1.52-1.23-2.75-2.75-2.75H5c-.69,0-1.25-.56-1.25-1.25v-1c0-.69,.56-1.25,1.25-1.25h.25v.25c0,.96,.79,1.75,1.75,1.75h13c.96,0,1.75-.79,1.75-1.75v-3c0-.96-.79-1.75-1.75-1.75Zm-4.75,12.75v4c0,.69-.56,1.25-1.25,1.25s-1.25-.56-1.25-1.25v-4c0-.14,.11-.25,.25-.25h2c.14,0,.25,.11,.25,.25Zm5-8c0,.14-.11,.25-.25,.25H7c-.14,0-.25-.11-.25-.25v-3c0-.14,.11-.25,.25-.25h13c.14,0,.25,.11,.25,.25v3Z"/></g><g id="e"/><g id="f"/><g id="g"/><g id="h"/><g id="i"/><g id="j"/><g id="k"/><g id="l"/><g id="m"/><g id="n"/><g id="o"/><g id="p"/><g id="q"/><g id="r"/><g id="s"/><g id="t"/><g id="u"/></svg>