<?xml version="1.0" encoding="UTF-8"?><svg xmlns="http://www.w3.org/2000/svg" viewBox="0 0 24 24"><g id="a"/><g id="b"/><g id="c"/><g id="d"/><g id="e"/><g id="f"/><g id="g"/><g id="h"/><g id="i"/><g id="j"/><g id="k"/><g id="l"/><g id="m"><path d="M20.85,3.79c-1.14-1.14-2.99-1.21-4.21-.14L7.82,11.37c-.84,.73-1.21,1.87-.98,2.96-.36,.05-.71,.14-1.04,.29-.72,.33-1.33,.86-1.71,1.5-.37,.62-.45,1.17-.5,1.61-.06,.42-.09,.63-.28,.86-.18,.22-.44,.38-.79,.48-.26,.08-.45,.28-.51,.54s.02,.53,.21,.72c.52,.5,1.4,1.15,2.65,1.36,.17,.03,.48,.07,.86,.07,.87,0,2.13-.2,3.2-1.2,.39-.36,1.25-1.32,1.4-2.77,.21,.04,.41,.07,.62,.07,.88,0,1.74-.38,2.33-1.05l7.72-8.82c1.07-1.22,1-3.06-.14-4.21ZM7.9,19.47c-1.03,.96-2.39,.81-2.78,.75-.37-.06-.7-.18-.98-.33,.12-.11,.24-.22,.34-.35,.46-.57,.54-1.15,.6-1.61,.05-.37,.09-.68,.3-1.03,.31-.52,.79-.79,1.05-.91,.47-.21,1-.27,1.59-.15,.3,.06,.53,.25,.64,.51,.14,.34,.21,.7,.2,1.06-.01,1.08-.67,1.8-.95,2.07Zm2.62-3.16c-.11-.03-.22-.03-.33-.01-.05-.17-.08-.34-.15-.51-.29-.72-.92-1.24-1.7-1.41,0-.08,0-.17-.02-.25-.17-.59,.02-1.23,.48-1.63l.87-.76,3.23,3.23-.76,.87c-.41,.46-1.02,.65-1.62,.48ZM19.86,7.01l-5.97,6.82-3.08-3.08,6.82-5.97c.63-.55,1.57-.51,2.16,.07,.59,.59,.62,1.54,.07,2.16Z"/></g><g id="n"/><g id="o"/><g id="p"/><g id="q"/><g id="r"/><g id="s"/><g id="t"/><g id="u"/></svg>