<?xml version="1.0" encoding="UTF-8"?><svg xmlns="http://www.w3.org/2000/svg" viewBox="0 0 24 24"><g id="a"/><g id="b"/><g id="c"/><g id="d"/><g id="e"/><g id="f"/><g id="g"/><g id="h"/><g id="i"/><g id="j"/><g id="k"/><g id="l"/><g id="m"/><g id="n"/><g id="o"/><g id="p"/><g id="q"><g><path d="M12,2.25C6.62,2.25,2.25,6.62,2.25,12c0,5.95,5.77,9.75,9.75,9.75,.69,0,2.51,0,3.57-1.27,.72-.86,.7-1.83,.69-2.61-.01-.67,0-1.07,.26-1.34s.66-.28,1.34-.26c.78,.02,1.75,.03,2.61-.69,1.27-1.06,1.27-2.89,1.27-3.57h0c0-3.98-3.8-9.75-9.75-9.75Zm8.25,9.75c0,.54,0,1.81-.73,2.42-.43,.36-.99,.35-1.62,.34-.76-.02-1.69-.03-2.42,.7-.73,.73-.72,1.67-.7,2.42,.01,.64,.02,1.19-.34,1.62-.61,.73-1.88,.73-2.42,.73-3.28,0-8.25-3.29-8.25-8.25C3.75,7.45,7.45,3.75,12,3.75c4.96,0,8.25,4.97,8.25,8.25h0Z"/><path d="M10.75,9.5c0-1.24-1.01-2.25-2.25-2.25s-2.25,1.01-2.25,2.25,1.01,2.25,2.25,2.25,2.25-1.01,2.25-2.25Zm-3,0c0-.41,.34-.75,.75-.75s.75,.34,.75,.75-.34,.75-.75,.75-.75-.34-.75-.75Z"/><path d="M14.5,6.25c-1.24,0-2.25,1.01-2.25,2.25s1.01,2.25,2.25,2.25,2.25-1.01,2.25-2.25-1.01-2.25-2.25-2.25Zm0,3c-.41,0-.75-.34-.75-.75s.34-.75,.75-.75,.75,.34,.75,.75-.34,.75-.75,.75Z"/><path d="M9.5,13.25c-1.24,0-2.25,1.01-2.25,2.25s1.01,2.25,2.25,2.25,2.25-1.01,2.25-2.25-1.01-2.25-2.25-2.25Zm0,3c-.41,0-.75-.34-.75-.75s.34-.75,.75-.75,.75,.34,.75,.75-.34,.75-.75,.75Z"/></g></g><g id="r"/><g id="s"/><g id="t"/><g id="u"/></svg>