<?xml version="1.0" encoding="UTF-8"?><svg xmlns="http://www.w3.org/2000/svg" viewBox="0 0 24 24"><g id="a"/><g id="b"/><g id="c"/><g id="d"/><g id="e"/><g id="f"/><g id="g"/><g id="h"/><g id="i"/><g id="j"/><g id="k"/><g id="l"/><g id="m"/><g id="n"/><g id="o"/><g id="p"/><g id="q"/><g id="r"/><g id="s"/><g id="t"/><g id="u"><path d="M18.74,8.56L14.07,3.23c-1.04-1.19-3.09-1.19-4.14,0l-4.67,5.33c-.69,.79-.87,1.93-.46,2.89l2.36,5.51c-.56,.5-.92,1.23-.92,2.04,0,1.52,1.23,2.75,2.75,2.75h6c1.52,0,2.75-1.23,2.75-2.75,0-.81-.36-1.53-.92-2.04l2.36-5.51c.41-.97,.23-2.1-.46-2.89Zm-3.74,11.69h-6c-.69,0-1.25-.56-1.25-1.25s.56-1.25,1.25-1.25h6c.69,0,1.25,.56,1.25,1.25s-.56,1.25-1.25,1.25Zm2.81-9.39l-2.33,5.44c-.16-.03-.32-.05-.48-.05h-6c-.17,0-.33,.02-.48,.05l-2.33-5.44c-.19-.44-.11-.96,.21-1.32l4.67-5.33c.05-.06,.13-.09,.19-.14v5.92c0,.41,.34,.75,.75,.75s.75-.34,.75-.75V4.08c.06,.05,.14,.08,.19,.14l4.67,5.33c.31,.36,.4,.88,.21,1.32Z"/></g></svg>