<?xml version="1.0" encoding="UTF-8"?><svg xmlns="http://www.w3.org/2000/svg" viewBox="0 0 24 24"><g id="a"/><g id="b"/><g id="c"/><g id="d"/><g id="e"/><g id="f"/><g id="g"/><g id="h"/><g id="i"/><g id="j"/><g id="k"/><g id="l"/><g id="m"/><g id="n"/><g id="o"/><g id="p"><path d="M20.23,3.77c-.9-.9-2.09-1.39-3.36-1.39s-2.46,.49-3.36,1.39L4.04,13.24c-.39,.39-.65,.87-.75,1.41l-1,5.01c-.12,.58,.06,1.17,.48,1.58,.33,.33,.78,.51,1.24,.51,.11,0,.23-.01,.34-.03l5.01-1c.53-.11,1.02-.37,1.41-.75l9.47-9.47c.9-.9,1.39-2.09,1.39-3.36s-.49-2.46-1.39-3.36ZM4.05,20.24c-.11,.02-.19-.03-.23-.07s-.09-.11-.07-.23l.85-4.23,3.68,3.68-4.23,.85Zm15.12-10.81l-9.37,9.37-4.6-4.6L14.57,4.83c.63-.63,1.47-.95,2.3-.95s1.66,.32,2.3,.95c1.27,1.27,1.27,3.33,0,4.6Z"/></g><g id="q"/><g id="r"/><g id="s"/><g id="t"/><g id="u"/></svg>