<?xml version="1.0" encoding="UTF-8"?><svg xmlns="http://www.w3.org/2000/svg" viewBox="0 0 24 24"><g id="a"/><g id="b"/><g id="c"/><g id="d"/><g id="e"/><g id="f"/><g id="g"/><g id="h"/><g id="i"/><g id="j"/><g id="k"/><g id="l"/><g id="m"/><g id="n"/><g id="o"><path d="M21.96,6c0-1-.39-1.94-1.1-2.65-1.42-1.42-3.89-1.42-5.3,0l-.88,.88-.18-.18c-.68-.68-1.79-.68-2.48,0l-.71,.71c-.68,.68-.68,1.79,0,2.47l.18,.18-7.25,7.25c-.41,.41-.72,.92-.91,1.47l-1,2.98c-.21,.63-.05,1.32,.42,1.79l.54,.54c.33,.33,.78,.51,1.23,.51,.19,0,.37-.03,.56-.09l2.98-.99c.55-.18,1.06-.5,1.47-.91l7.25-7.25,.18,.18c.33,.33,.77,.51,1.24,.51s.91-.18,1.24-.51l.71-.71c.68-.68,.68-1.79,0-2.47l-.18-.18,.88-.88c.71-.71,1.1-1.65,1.1-2.65Zm-13.47,12.9c-.25,.25-.55,.43-.88,.54l-2.98,1c-.09,.03-.19,0-.26-.06l-.54-.54c-.07-.07-.09-.17-.06-.26l1-2.98c.11-.33,.3-.63,.54-.88l7.25-7.25,3.18,3.18-7.25,7.25ZM19.8,7.59l-1.41,1.41c-.29,.29-.29,.77,0,1.06l.71,.71c.1,.1,.1,.26,0,.35l-.71,.71c-.13,.13-.23,.13-.35,0h0l-5.66-5.66c-.1-.1-.1-.26,0-.35l.71-.71s.11-.07,.18-.07,.13,.02,.18,.07l.71,.71c.29,.29,.77,.29,1.06,0l1.41-1.41c.85-.85,2.33-.85,3.18,0,.43,.42,.66,.99,.66,1.59s-.23,1.17-.66,1.59Z"/></g><g id="p"/><g id="q"/><g id="r"/><g id="s"/><g id="t"/><g id="u"/></svg>