<?xml version="1.0" encoding="UTF-8"?><svg xmlns="http://www.w3.org/2000/svg" viewBox="0 0 24 24"><g id="a"/><g id="b"><g><path d="M20.82,18.76L5.24,3.18c-.5-.5-1.25-.65-1.91-.38-.66,.27-1.08,.91-1.08,1.62v15.59c0,.96,.79,1.75,1.75,1.75h15.59c.71,0,1.34-.42,1.62-1.08,.27-.66,.12-1.41-.38-1.91Zm-1.01,1.33c-.02,.06-.08,.15-.23,.15H4c-.14,0-.25-.11-.25-.25V4.41c0-.15,.1-.21,.15-.23,.03-.01,.06-.02,.1-.02,.05,0,.11,.02,.17,.08l15.59,15.59c.1,.1,.08,.21,.05,.27Z"/><path d="M9.24,12.18c-.5-.5-1.25-.65-1.91-.38-.66,.27-1.08,.91-1.08,1.62v2.59c0,.96,.79,1.75,1.75,1.75h2.59c.71,0,1.34-.42,1.62-1.08,.27-.66,.12-1.41-.38-1.91l-2.59-2.59Zm1.58,3.92c-.02,.06-.08,.15-.23,.15h-2.59c-.14,0-.25-.11-.25-.25v-2.59c0-.15,.1-.21,.15-.23,.03-.01,.06-.02,.1-.02,.05,0,.11,.02,.17,.08l2.59,2.59c.1,.1,.08,.21,.05,.27Z"/></g></g><g id="c"/><g id="d"/><g id="e"/><g id="f"/><g id="g"/><g id="h"/><g id="i"/><g id="j"/><g id="k"/><g id="l"/><g id="m"/><g id="n"/><g id="o"/><g id="p"/><g id="q"/><g id="r"/><g id="s"/><g id="t"/><g id="u"/></svg>