<?xml version="1.0" encoding="UTF-8"?><svg xmlns="http://www.w3.org/2000/svg" viewBox="0 0 24 24"><g id="a"/><g id="b"/><g id="c"><path d="M19.66,20.64l-5.8-10.63c.54-.5,.89-1.22,.89-2.01,0-1.25-.85-2.3-2-2.63V3c0-.41-.34-.75-.75-.75s-.75,.34-.75,.75v2.37c-1.15,.33-2,1.38-2,2.63,0,.8,.35,1.51,.89,2.01l-5.8,10.63c-.2,.36-.06,.82,.3,1.02,.11,.06,.24,.09,.36,.09,.27,0,.52-.14,.66-.39l2.7-4.94c.75,.61,1.99,1.33,3.65,1.33,.37,0,2.13-.07,3.65-1.32l2.69,4.93c.14,.25,.39,.39,.66,.39,.12,0,.24-.03,.36-.09,.36-.2,.5-.65,.3-1.02ZM12,6.75c.69,0,1.25,.56,1.25,1.25s-.56,1.25-1.25,1.25-1.25-.56-1.25-1.25,.56-1.25,1.25-1.25Zm0,9.5c-1.39,0-2.38-.7-2.91-1.18l2.39-4.37c.17,.03,.35,.05,.53,.05s.36-.02,.53-.05l2.39,4.38c-1.21,1.13-2.73,1.18-2.91,1.18Z"/></g><g id="d"/><g id="e"/><g id="f"/><g id="g"/><g id="h"/><g id="i"/><g id="j"/><g id="k"/><g id="l"/><g id="m"/><g id="n"/><g id="o"/><g id="p"/><g id="q"/><g id="r"/><g id="s"/><g id="t"/><g id="u"/></svg>