<?xml version="1.0" encoding="UTF-8"?><svg xmlns="http://www.w3.org/2000/svg" viewBox="0 0 24 24"><g id="a"/><g id="b"/><g id="c"/><g id="d"/><g id="e"/><g id="f"/><g id="g"/><g id="h"/><g id="i"/><g id="j"/><g id="k"/><g id="l"/><g id="m"/><g id="n"/><g id="o"/><g id="p"/><g id="q"/><g id="r"/><g id="s"/><g id="t"><path d="M19.62,16.26l-1.71-8.55c1.05-.19,1.84-1.11,1.84-2.21,0-1.24-1.01-2.25-2.25-2.25-1.16,0-2.1,.88-2.22,2h-6.55c-.13-1.12-1.07-2-2.22-2-1.24,0-2.25,1.01-2.25,2.25,0,1.1,.8,2.02,1.84,2.21l-1.71,8.55c-1.19,.06-2.13,1.04-2.13,2.24s1.01,2.25,2.25,2.25c1.16,0,2.1-.88,2.22-2h10.55c.13,1.12,1.07,2,2.22,2,1.24,0,2.25-1.01,2.25-2.25s-.95-2.18-2.13-2.24Zm-13.79,.43l1.86-9.29c.27-.17,.51-.39,.69-.66h7.26c.18,.27,.41,.49,.69,.66l1.86,9.29c-.21,.15-.4,.34-.54,.56H6.37c-.15-.22-.33-.4-.54-.56ZM17.5,4.75c.41,0,.75,.34,.75,.75s-.34,.75-.75,.75-.75-.34-.75-.75,.34-.75,.75-.75Zm-11.75,.75c0-.41,.34-.75,.75-.75s.75,.34,.75,.75-.34,.75-.75,.75-.75-.34-.75-.75Zm-1.25,13.75c-.41,0-.75-.34-.75-.75s.34-.75,.75-.75,.75,.34,.75,.75-.34,.75-.75,.75Zm15,0c-.41,0-.75-.34-.75-.75s.34-.75,.75-.75,.75,.34,.75,.75-.34,.75-.75,.75Z"/></g><g id="u"/></svg>