<?xml version="1.0" encoding="UTF-8"?><svg xmlns="http://www.w3.org/2000/svg" viewBox="0 0 24 24"><g id="a"/><g id="b"/><g id="c"/><g id="d"/><g id="e"/><g id="f"/><g id="g"/><g id="h"/><g id="i"/><g id="j"><path d="M20.5,13.25h-.81c-.29-2.9-2.22-5.42-4.96-6.47-.12-1.41-1.29-2.53-2.73-2.53s-2.61,1.12-2.73,2.53c-2.74,1.05-4.67,3.57-4.96,6.47h-.81c-.69,0-1.25,.56-1.25,1.25v3c0,.69,.56,1.25,1.25,1.25h3c.69,0,1.25-.56,1.25-1.25v-3c0-.69-.56-1.25-1.25-1.25h-.69c.27-2.2,1.71-4.11,3.76-4.98,.46,.88,1.37,1.48,2.43,1.48s1.97-.61,2.43-1.48c2.05,.88,3.49,2.79,3.76,4.98h-.69c-.69,0-1.25,.56-1.25,1.25v3c0,.69,.56,1.25,1.25,1.25h3c.69,0,1.25-.56,1.25-1.25v-3c0-.69-.56-1.25-1.25-1.25Zm-14.25,4H3.75v-2.5h2.5v2.5Zm5.75-9c-.69,0-1.25-.56-1.25-1.25s.56-1.25,1.25-1.25,1.25,.56,1.25,1.25-.56,1.25-1.25,1.25Zm8.25,9h-2.5v-2.5h2.5v2.5Z"/></g><g id="k"/><g id="l"/><g id="m"/><g id="n"/><g id="o"/><g id="p"/><g id="q"/><g id="r"/><g id="s"/><g id="t"/><g id="u"/></svg>