<?xml version="1.0" encoding="UTF-8"?><svg xmlns="http://www.w3.org/2000/svg" viewBox="0 0 24 24"><defs><style>.v{fill:#231f20;}</style></defs><g id="a"/><g id="b"/><g id="c"/><g id="d"/><g id="e"/><g id="f"/><g id="g"/><g id="h"/><g id="i"/><g id="j"/><g id="k"/><g id="l"/><g id="m"><g><path class="v" d="M15,2.25h-6c-2.62,0-4.75,2.13-4.75,4.75v10c0,2.62,2.13,4.75,4.75,4.75h6c2.62,0,4.75-2.13,4.75-4.75V7c0-2.62-2.13-4.75-4.75-4.75Zm3.25,14.75c0,1.79-1.46,3.25-3.25,3.25h-6c-1.79,0-3.25-1.46-3.25-3.25V7c0-1.79,1.46-3.25,3.25-3.25h6c1.79,0,3.25,1.46,3.25,3.25v10Z"/><path class="v" d="M16,7.25H8c-.41,0-.75,.34-.75,.75s.34,.75,.75,.75h8c.41,0,.75-.34,.75-.75s-.34-.75-.75-.75Z"/><path class="v" d="M16,11.25H8c-.41,0-.75,.34-.75,.75s.34,.75,.75,.75h8c.41,0,.75-.34,.75-.75s-.34-.75-.75-.75Z"/><path class="v" d="M13,15.25h-5c-.41,0-.75,.34-.75,.75s.34,.75,.75,.75h5c.41,0,.75-.34,.75-.75s-.34-.75-.75-.75Z"/></g></g><g id="n"/><g id="o"/><g id="p"/><g id="q"/><g id="r"/><g id="s"/><g id="t"/><g id="u"/></svg>