<?xml version="1.0" encoding="UTF-8"?><svg xmlns="http://www.w3.org/2000/svg" viewBox="0 0 24 24"><defs><style>.v{fill:#010101;}</style></defs><g id="a"/><g id="b"/><g id="c"/><g id="d"/><g id="e"/><g id="f"/><g id="g"/><g id="h"/><g id="i"/><g id="j"/><g id="k"><g><path class="v" d="M18,5.25H6c-2.07,0-3.75,1.68-3.75,3.75v6c0,2.07,1.68,3.75,3.75,3.75h12c2.07,0,3.75-1.68,3.75-3.75v-6c0-2.07-1.68-3.75-3.75-3.75Zm-12,1.5h12c1.24,0,2.25,1.01,2.25,2.25v.25H3.75v-.25c0-1.24,1.01-2.25,2.25-2.25Zm12,10.5H6c-1.24,0-2.25-1.01-2.25-2.25v-4.25H20.25v4.25c0,1.24-1.01,2.25-2.25,2.25Z"/><path class="v" d="M18,14.25h-3c-.41,0-.75,.34-.75,.75s.34,.75,.75,.75h3c.41,0,.75-.34,.75-.75s-.34-.75-.75-.75Z"/></g></g><g id="l"/><g id="m"/><g id="n"/><g id="o"/><g id="p"/><g id="q"/><g id="r"/><g id="s"/><g id="t"/><g id="u"/></svg>