<?xml version="1.0" encoding="UTF-8"?><svg xmlns="http://www.w3.org/2000/svg" viewBox="0 0 24 24"><defs><style>.v{fill:#010101;}</style></defs><g id="a"/><g id="b"/><g id="c"><g><path class="v" d="M19,3.25h-5c-1.52,0-2.75,1.23-2.75,2.75V14.25H4c-.96,0-1.75,.79-1.75,1.75v4c0,.96,.79,1.75,1.75,1.75h15c1.52,0,2.75-1.23,2.75-2.75V6c0-1.52-1.23-2.75-2.75-2.75Zm-1.67,17h-3.6c.01-.08,.03-.16,.03-.25v-4c0-.7-.41-1.29-1-1.57V7.67c1.47-.3,2.62-1.46,2.92-2.92h1.65c.3,1.47,1.46,2.62,2.92,2.92v9.65c-1.47,.3-2.62,1.46-2.92,2.92Zm2.92-14.25v.11c-.64-.23-1.13-.73-1.36-1.36h.11c.69,0,1.25,.56,1.25,1.25Zm-6.25-1.25h.11c-.23,.64-.73,1.14-1.36,1.36v-.11c0-.69,.56-1.25,1.25-1.25ZM4,15.75H12c.14,0,.25,.11,.25,.25v.25H3.75v-.25c0-.14,.11-.25,.25-.25Zm-.25,4.25v-2.25H12.25v2.25c0,.14-.11,.25-.25,.25H4c-.14,0-.25-.11-.25-.25Zm15.25,.25h-.11c.23-.64,.73-1.14,1.36-1.36v.11c0,.69-.56,1.25-1.25,1.25Z"/><path class="v" d="M16.5,10.25c-1.24,0-2.25,1.01-2.25,2.25s1.01,2.25,2.25,2.25,2.25-1.01,2.25-2.25-1.01-2.25-2.25-2.25Zm0,3c-.41,0-.75-.34-.75-.75s.34-.75,.75-.75,.75,.34,.75,.75-.34,.75-.75,.75Z"/></g></g><g id="d"/><g id="e"/><g id="f"/><g id="g"/><g id="h"/><g id="i"/><g id="j"/><g id="k"/><g id="l"/><g id="m"/><g id="n"/><g id="o"/><g id="p"/><g id="q"/><g id="r"/><g id="s"/><g id="t"/><g id="u"/></svg>