<?xml version="1.0" encoding="UTF-8"?><svg xmlns="http://www.w3.org/2000/svg" viewBox="0 0 24 24"><defs><style>.v{fill:#231f20;}</style></defs><g id="a"/><g id="b"/><g id="c"/><g id="d"/><g id="e"/><g id="f"/><g id="g"/><g id="h"/><g id="i"/><g id="j"/><g id="k"/><g id="l"/><g id="m"><path class="v" d="M18,7.25h-1.25v-1.25c0-1.52-1.23-2.75-2.75-2.75h-4c-1.52,0-2.75,1.23-2.75,2.75v1.25h-1.25c-2.07,0-3.75,1.68-3.75,3.75v5c0,3.17,2.58,5.75,5.75,5.75h8c3.17,0,5.75-2.58,5.75-5.75v-5c0-2.07-1.68-3.75-3.75-3.75Zm-9.25-1.25c0-.69,.56-1.25,1.25-1.25h4c.69,0,1.25,.56,1.25,1.25v1.25h-6.5v-1.25Zm11.5,10c0,2.34-1.91,4.25-4.25,4.25H8c-2.34,0-4.25-1.91-4.25-4.25v-5c0-1.24,1.01-2.25,2.25-2.25h1.25v1.25c0,.41,.34,.75,.75,.75s.75-.34,.75-.75v-1.25h6.5v1.25c0,.41,.34,.75,.75,.75s.75-.34,.75-.75v-1.25h1.25c1.24,0,2.25,1.01,2.25,2.25v5Z"/></g><g id="n"/><g id="o"/><g id="p"/><g id="q"/><g id="r"/><g id="s"/><g id="t"/><g id="u"/></svg>