<?xml version="1.0" encoding="UTF-8"?><svg xmlns="http://www.w3.org/2000/svg" viewBox="0 0 24 24"><defs><style>.v{fill:#231f20;}</style></defs><g id="a"/><g id="b"/><g id="c"/><g id="d"/><g id="e"/><g id="f"/><g id="g"/><g id="h"/><g id="i"/><g id="j"/><g id="k"/><g id="l"/><g id="m"/><g id="n"/><g id="o"/><g id="p"/><g id="q"/><g id="r"><g><path class="v" d="M3,8.75c.41,0,.75-.34,.75-.75v-2c0-1.24,1.01-2.25,2.25-2.25h2c.41,0,.75-.34,.75-.75s-.34-.75-.75-.75h-2c-2.07,0-3.75,1.68-3.75,3.75v2c0,.41,.34,.75,.75,.75Z"/><path class="v" d="M8,20.25h-2c-1.24,0-2.25-1.01-2.25-2.25v-2c0-.41-.34-.75-.75-.75s-.75,.34-.75,.75v2c0,2.07,1.68,3.75,3.75,3.75h2c.41,0,.75-.34,.75-.75s-.34-.75-.75-.75Z"/><path class="v" d="M21,15.25c-.41,0-.75,.34-.75,.75v2c0,1.24-1.01,2.25-2.25,2.25h-2c-.41,0-.75,.34-.75,.75s.34,.75,.75,.75h2c2.07,0,3.75-1.68,3.75-3.75v-2c0-.41-.34-.75-.75-.75Z"/><path class="v" d="M18,2.25h-2c-.41,0-.75,.34-.75,.75s.34,.75,.75,.75h2c1.24,0,2.25,1.01,2.25,2.25v2c0,.41,.34,.75,.75,.75s.75-.34,.75-.75v-2c0-2.07-1.68-3.75-3.75-3.75Z"/><path class="v" d="M17.75,14v-1c0-1.52-1.23-2.75-2.75-2.75h-6c-1.52,0-2.75,1.23-2.75,2.75v1c0,1.52,1.23,2.75,2.75,2.75h6c1.52,0,2.75-1.23,2.75-2.75Zm-1.5,0c0,.69-.56,1.25-1.25,1.25h-6c-.69,0-1.25-.56-1.25-1.25v-1c0-.69,.56-1.25,1.25-1.25h6c.69,0,1.25,.56,1.25,1.25v1Z"/><path class="v" d="M6.25,8c0,.41,.34,.75,.75,.75h10c.41,0,.75-.34,.75-.75s-.34-.75-.75-.75H7c-.41,0-.75,.34-.75,.75Z"/></g></g><g id="s"/><g id="t"/><g id="u"/></svg>