<?xml version="1.0" encoding="UTF-8"?><svg xmlns="http://www.w3.org/2000/svg" viewBox="0 0 24 24"><defs><style>.v{fill:#231f20;}</style></defs><g id="a"/><g id="b"/><g id="c"/><g id="d"/><g id="e"/><g id="f"/><g id="g"/><g id="h"/><g id="i"><g><path class="v" d="M7,2.25c-2.62,0-4.75,2.13-4.75,4.75s2.13,4.75,4.75,4.75h3c.96,0,1.75-.79,1.75-1.75v-3c0-2.62-2.13-4.75-4.75-4.75Zm3.25,7.75c0,.14-.11,.25-.25,.25h-3c-1.79,0-3.25-1.46-3.25-3.25s1.46-3.25,3.25-3.25,3.25,1.46,3.25,3.25v3Z"/><path class="v" d="M10,12.25H6c-2.07,0-3.75,1.68-3.75,3.75v1c0,2.62,2.13,4.75,4.75,4.75s4.75-2.13,4.75-4.75v-3c0-.96-.79-1.75-1.75-1.75Zm.25,4.75c0,1.79-1.46,3.25-3.25,3.25s-3.25-1.46-3.25-3.25v-1c0-1.24,1.01-2.25,2.25-2.25h4c.14,0,.25,.11,.25,.25v3Z"/><path class="v" d="M14,11.75h3c2.62,0,4.75-2.13,4.75-4.75s-2.13-4.75-4.75-4.75-4.75,2.13-4.75,4.75v3c0,.96,.79,1.75,1.75,1.75Zm-.25-4.75c0-1.79,1.46-3.25,3.25-3.25s3.25,1.46,3.25,3.25-1.46,3.25-3.25,3.25h-3c-.14,0-.25-.11-.25-.25v-3Z"/><path class="v" d="M17,12.25h-3c-.96,0-1.75,.79-1.75,1.75v3c0,2.62,2.13,4.75,4.75,4.75s4.75-2.13,4.75-4.75-2.13-4.75-4.75-4.75Zm0,8c-1.79,0-3.25-1.46-3.25-3.25v-3c0-.14,.11-.25,.25-.25h3c1.79,0,3.25,1.46,3.25,3.25s-1.46,3.25-3.25,3.25Z"/></g></g><g id="j"/><g id="k"/><g id="l"/><g id="m"/><g id="n"/><g id="o"/><g id="p"/><g id="q"/><g id="r"/><g id="s"/><g id="t"/><g id="u"/></svg>