<?xml version="1.0" encoding="UTF-8"?><svg xmlns="http://www.w3.org/2000/svg" viewBox="0 0 24 24"><defs><style>.v{fill:#231f20;}</style></defs><g id="a"/><g id="b"/><g id="c"/><g id="d"/><g id="e"/><g id="f"/><g id="g"/><g id="h"/><g id="i"/><g id="j"><g><path class="v" d="M16,13.25c-.41,0-.75,.34-.75,.75v4c0,1.24-1.01,2.25-2.25,2.25h-4c-1.24,0-2.25-1.01-2.25-2.25V6c0-1.24,1.01-2.25,2.25-2.25h6c.41,0,.75-.34,.75-.75s-.34-.75-.75-.75h-6c-2.07,0-3.75,1.68-3.75,3.75v12c0,2.07,1.68,3.75,3.75,3.75h4c2.07,0,3.75-1.68,3.75-3.75v-4c0-.41-.34-.75-.75-.75Z"/><path class="v" d="M19.59,6.54c-.14-.18-.36-.29-.59-.29h-.25v-1.25c0-.41-.34-.75-.75-.75s-.75,.34-.75,.75v1.25h-3.5v-1.25c0-.41-.34-.75-.75-.75s-.75,.34-.75,.75v1.25h-.25c-.23,0-.45,.11-.59,.29-.14,.18-.19,.42-.14,.64l.62,2.49c.31,1.23,1.4,2.08,2.67,2.08h1.88c1.26,0,2.36-.86,2.67-2.08l.62-2.49c.06-.22,0-.46-.14-.64Zm-1.94,2.77c-.14,.56-.64,.95-1.21,.95h-1.88c-.57,0-1.07-.39-1.21-.95l-.39-1.55h5.08l-.39,1.55Z"/><path class="v" d="M10,18.75h2c.41,0,.75-.34,.75-.75s-.34-.75-.75-.75h-2c-.41,0-.75,.34-.75,.75s.34,.75,.75,.75Z"/></g></g><g id="k"/><g id="l"/><g id="m"/><g id="n"/><g id="o"/><g id="p"/><g id="q"/><g id="r"/><g id="s"/><g id="t"/><g id="u"/></svg>