<?xml version="1.0" encoding="UTF-8"?><svg xmlns="http://www.w3.org/2000/svg" viewBox="0 0 24 24"><g id="a"/><g id="b"/><g id="c"/><g id="d"/><g id="e"/><g id="f"/><g id="g"/><g id="h"/><g id="i"/><g id="j"/><g id="k"/><g id="l"/><g id="m"/><g id="n"/><g id="o"/><g id="p"/><g id="q"/><g id="r"><g><path d="M17.75,16.37v-3.37c0-3.17-2.58-5.75-5.75-5.75s-5.75,2.58-5.75,5.75v3.37c-1.15,.33-2,1.38-2,2.63v2c0,.41,.34,.75,.75,.75h14c.41,0,.75-.34,.75-.75v-2c0-1.25-.85-2.3-2-2.63Zm-10-3.37c0-2.34,1.91-4.25,4.25-4.25s4.25,1.91,4.25,4.25v3.25H7.75v-3.25Zm10.5,7.25H5.75v-1.25c0-.69,.56-1.25,1.25-1.25h10c.69,0,1.25,.56,1.25,1.25v1.25Z"/><path d="M21,11.25h-2c-.41,0-.75,.34-.75,.75s.34,.75,.75,.75h2c.41,0,.75-.34,.75-.75s-.34-.75-.75-.75Z"/><path d="M5.75,12c0-.41-.34-.75-.75-.75H3c-.41,0-.75,.34-.75,.75s.34,.75,.75,.75h2c.41,0,.75-.34,.75-.75Z"/><path d="M12,6.75c.41,0,.75-.34,.75-.75v-2c0-.41-.34-.75-.75-.75s-.75,.34-.75,.75v2c0,.41,.34,.75,.75,.75Z"/><path d="M6.52,7.58c.15,.15,.34,.22,.53,.22s.38-.07,.53-.22c.29-.29,.29-.77,0-1.06l-1.41-1.41c-.29-.29-.77-.29-1.06,0s-.29,.77,0,1.06l1.41,1.41Z"/><path d="M16.95,7.8c.19,0,.38-.07,.53-.22l1.41-1.41c.29-.29,.29-.77,0-1.06s-.77-.29-1.06,0l-1.41,1.41c-.29,.29-.29,.77,0,1.06,.15,.15,.34,.22,.53,.22Z"/></g></g><g id="s"/><g id="t"/><g id="u"/></svg>