<?xml version="1.0" encoding="UTF-8"?><svg xmlns="http://www.w3.org/2000/svg" viewBox="0 0 24 24"><g id="a"/><g id="b"/><g id="c"/><g id="d"/><g id="e"/><g id="f"/><g id="g"/><g id="h"/><g id="i"/><g id="j"/><g id="k"><path d="M20.87,7.24c-.58-.58-1.41-.83-2.21-.67l-1.54,.31,.31-1.54c.16-.8-.09-1.63-.67-2.21-.71-.71-1.74-.92-2.67-.53-.93,.39-1.51,1.25-1.51,2.26v2.15c0,.33-.13,.65-.37,.88l-4.49,4.49c-.24,.24-.55,.37-.88,.37h-2.15c-1.01,0-1.87,.58-2.26,1.51-.39,.93-.18,1.95,.53,2.67,.58,.58,1.41,.83,2.21,.67l1.54-.31-.31,1.54c-.16,.8,.09,1.63,.67,2.21,.47,.47,1.08,.72,1.71,.72,.32,0,.64-.06,.95-.19,.93-.39,1.51-1.25,1.51-2.26v-2.15c0-.33,.13-.65,.37-.88l4.49-4.49c.23-.23,.55-.37,.88-.37h2.15c1.01,0,1.87-.58,2.26-1.51,.39-.93,.18-1.95-.53-2.66Zm-.86,2.09c-.06,.14-.29,.58-.87,.58h-2.15c-.73,0-1.42,.29-1.94,.81l-4.49,4.49c-.52,.52-.81,1.21-.81,1.94v2.15c0,.59-.45,.82-.58,.87-.14,.06-.62,.21-1.03-.21-.22-.22-.32-.54-.26-.85l.53-2.65c.05-.25-.03-.5-.21-.68-.14-.14-.33-.22-.53-.22-.05,0-.1,0-.15,.01l-2.65,.53c-.31,.06-.63-.04-.85-.26-.41-.42-.26-.89-.2-1.03,.06-.14,.29-.58,.87-.58h2.15c.73,0,1.43-.29,1.94-.8l4.49-4.49c.52-.52,.81-1.21,.81-1.94v-2.15c0-.59,.45-.82,.58-.87,.14-.06,.62-.21,1.03,.2,.22,.23,.32,.54,.26,.85l-.53,2.65c-.05,.25,.03,.5,.21,.68,.18,.18,.43,.25,.68,.21l2.65-.53c.31-.07,.63,.03,.85,.26,.41,.41,.26,.89,.21,1.03Z"/></g><g id="l"/><g id="m"/><g id="n"/><g id="o"/><g id="p"/><g id="q"/><g id="r"/><g id="s"/><g id="t"/><g id="u"/></svg>