<?xml version="1.0" encoding="UTF-8"?><svg xmlns="http://www.w3.org/2000/svg" viewBox="0 0 24 24"><g id="a"/><g id="b"/><g id="c"/><g id="d"/><g id="e"/><g id="f"><path d="M20.37,18.2l-5.24-7.86c-.25-.37-.38-.8-.38-1.25V3.75h.25c.41,0,.75-.34,.75-.75s-.34-.75-.75-.75h-6c-.41,0-.75,.34-.75,.75s.34,.75,.75,.75h.25v5.34c0,.45-.13,.88-.38,1.25l-5.24,7.86c-.25,.38-.38,.81-.38,1.27,0,1.26,1.02,2.29,2.29,2.29h12.93c1.26,0,2.29-1.03,2.29-2.29,0-.45-.13-.89-.38-1.27Zm-10.25-7.03c.41-.62,.63-1.34,.63-2.08V3.75h2.5v5.34c0,.74,.22,1.46,.63,2.08l1.39,2.08h-6.53l1.39-2.08Zm8.34,9.08H5.54c-.43,0-.79-.35-.79-.79,0-.16,.05-.31,.13-.44l2.85-4.28h8.53l2.85,4.28c.09,.13,.13,.28,.13,.44,0,.43-.35,.79-.79,.79Z"/></g><g id="g"/><g id="h"/><g id="i"/><g id="j"/><g id="k"/><g id="l"/><g id="m"/><g id="n"/><g id="o"/><g id="p"/><g id="q"/><g id="r"/><g id="s"/><g id="t"/><g id="u"/></svg>