<?xml version="1.0" encoding="UTF-8"?><svg xmlns="http://www.w3.org/2000/svg" viewBox="0 0 24 24"><g id="a"/><g id="b"/><g id="c"/><g id="d"/><g id="e"/><g id="f"/><g id="g"/><g id="h"/><g id="i"/><g id="j"/><g id="k"/><g id="l"/><g id="m"/><g id="n"/><g id="o"/><g id="p"/><g id="q"/><g id="r"/><g id="s"/><g id="t"><path d="M17.21,15.48l-4.06-3.48,4.06-3.48c1.61-1.38,2.54-3.4,2.54-5.52,0-.41-.34-.75-.75-.75s-.75,.34-.75,.75c0,.08,0,.17-.01,.25H5.76c0-.08-.01-.17-.01-.25,0-.41-.34-.75-.75-.75s-.75,.34-.75,.75c0,2.13,.93,4.14,2.54,5.52l4.06,3.48-4.06,3.48c-1.61,1.38-2.54,3.4-2.54,5.52,0,.41,.34,.75,.75,.75s.75-.34,.75-.75c0-.08,0-.17,.01-.25h12.47c0,.08,.01,.17,.01,.25,0,.41,.34,.75,.75,.75s.75-.34,.75-.75c0-2.13-.93-4.14-2.54-5.52ZM6.03,4.75h11.95c-.3,.95-.85,1.81-1.6,2.5H7.63c-.75-.69-1.3-1.55-1.6-2.5Zm3.34,4h5.28l-2.64,2.26-2.64-2.26Zm5.28,6.5h-5.28l2.64-2.26,2.64,2.26Zm-8.61,4c.31-.96,.86-1.84,1.63-2.53,.04,0,.08,.03,.13,.03h8.59c.75,.69,1.3,1.55,1.6,2.5H6.03Z"/></g><g id="u"/></svg>