<?xml version="1.0" encoding="UTF-8"?><svg xmlns="http://www.w3.org/2000/svg" viewBox="0 0 24 24"><g id="a"/><g id="b"/><g id="c"/><g id="d"/><g id="e"/><g id="f"/><g id="g"/><g id="h"/><g id="i"><g><path d="M19.05,10.89l.71-.71c.68-.68,.68-1.79,0-2.48L14.81,2.76c-.68-.68-1.79-.68-2.48,0l-.71,.71c-.49,.49-.62,1.2-.41,1.82L3.49,13.02c-1.66,1.66-1.66,4.35,0,6.01,.83,.83,1.92,1.24,3.01,1.24s2.18-.41,3.01-1.24l7.73-7.73c.19,.07,.39,.11,.58,.11,.45,0,.9-.17,1.24-.51Zm-6.36-6.36l.71-.71c.1-.1,.26-.1,.35,0l4.95,4.95c.1,.1,.1,.26,0,.35l-.71,.71c-.1,.1-.26,.1-.35,0l-4.95-4.95c-.1-.1-.1-.26,0-.35Zm1.59,7.6l-1.59-1.59c-.29-.29-.77-.29-1.06,0s-.29,.77,0,1.06l1.59,1.59-1.06,1.06-1.59-1.59c-.29-.29-.77-.29-1.06,0s-.29,.77,0,1.06l1.59,1.59-1.06,1.06-1.59-1.59c-.29-.29-.77-.29-1.06,0s-.29,.77,0,1.06l1.59,1.59-.53,.53c-1.07,1.07-2.82,1.07-3.89,0-1.07-1.07-1.07-2.82,0-3.89l7.6-7.6,1.94,1.94,1.94,1.94-1.77,1.77Z"/><path d="M21.95,16.86l-1.26-3.14c-.23-.57-1.16-.57-1.39,0l-1.26,3.14c-.26,.65-.18,1.38,.21,1.96,.39,.58,1.04,.92,1.74,.92s1.35-.35,1.74-.92c.39-.58,.47-1.31,.21-1.96Zm-1.45,1.12c-.23,.34-.77,.34-1,0-.11-.17-.14-.37-.06-.56l.56-1.4,.56,1.4c.08,.19,.05,.39-.06,.56Z"/></g></g><g id="j"/><g id="k"/><g id="l"/><g id="m"/><g id="n"/><g id="o"/><g id="p"/><g id="q"/><g id="r"/><g id="s"/><g id="t"/><g id="u"/></svg>