<?xml version="1.0" encoding="UTF-8"?><svg xmlns="http://www.w3.org/2000/svg" viewBox="0 0 24 24"><g id="a"/><g id="b"><g><path d="M16.84,4.29c-.11-.56-.48-1.03-1-1.25-3.69-1.58-7.9-.76-10.73,2.07S1.46,12.15,3.04,15.84c.22,.52,.69,.9,1.25,1,.11,.02,.23,.03,.34,.03,.46,0,.91-.18,1.25-.52L16.36,5.87c.41-.41,.59-1.01,.48-1.58Zm-1.54,.52L4.81,15.3c-.09,.09-.2,.08-.24,.07-.05-.01-.12-.04-.16-.12-1.33-3.12-.65-6.68,1.75-9.08,1.59-1.59,3.68-2.42,5.82-2.42,1.1,0,2.2,.22,3.26,.67,.08,.04,.11,.11,.12,.16,0,.04,.02,.15-.07,.24Z"/><path d="M20.96,8.16c-.22-.52-.69-.9-1.25-1-.58-.11-1.17,.07-1.58,.48L7.64,18.13c-.41,.41-.59,1.01-.48,1.58,.11,.56,.48,1.03,1,1.25,1.25,.53,2.56,.79,3.85,.79,2.53,0,5.01-.99,6.88-2.86,2.83-2.83,3.65-7.05,2.07-10.73Zm-3.13,9.67c-2.4,2.4-5.96,3.09-9.08,1.75-.08-.04-.11-.11-.12-.16,0-.04-.02-.15,.07-.24l10.49-10.49c.06-.06,.13-.08,.19-.08,.02,0,.04,0,.05,0,.05,.01,.12,.04,.16,.12,1.33,3.12,.65,6.68-1.75,9.08Z"/></g></g><g id="c"/><g id="d"/><g id="e"/><g id="f"/><g id="g"/><g id="h"/><g id="i"/><g id="j"/><g id="k"/><g id="l"/><g id="m"/><g id="n"/><g id="o"/><g id="p"/><g id="q"/><g id="r"/><g id="s"/><g id="t"/><g id="u"/></svg>