<?xml version="1.0" encoding="UTF-8"?><svg xmlns="http://www.w3.org/2000/svg" viewBox="0 0 24 24"><g id="a"/><g id="b"/><g id="c"/><g id="d"/><g id="e"/><g id="f"/><g id="g"/><g id="h"/><g id="i"/><g id="j"/><g id="k"/><g id="l"/><g id="m"/><g id="n"><g><path d="M21,11.25h-1.29c-.15-1.57-.78-3.01-1.73-4.17l.91-.91c.29-.29,.29-.77,0-1.06s-.77-.29-1.06,0l-.91,.91c-1.16-.95-2.6-1.58-4.17-1.73v-1.29c0-.41-.34-.75-.75-.75s-.75,.34-.75,.75v1.29c-1.57,.15-3.01,.78-4.17,1.73l-.91-.91c-.29-.29-.77-.29-1.06,0s-.29,.77,0,1.06l.91,.91c-.95,1.16-1.58,2.6-1.73,4.17h-1.29c-.41,0-.75,.34-.75,.75s.34,.75,.75,.75h1.29c.15,1.57,.78,3.01,1.73,4.17l-.91,.91c-.29,.29-.29,.77,0,1.06,.15,.15,.34,.22,.53,.22s.38-.07,.53-.22l.91-.91c1.16,.95,2.6,1.58,4.17,1.73v1.29c0,.41,.34,.75,.75,.75s.75-.34,.75-.75v-1.29c1.57-.15,3.01-.78,4.17-1.73l.91,.91c.15,.15,.34,.22,.53,.22s.38-.07,.53-.22c.29-.29,.29-.77,0-1.06l-.91-.91c.95-1.16,1.58-2.6,1.73-4.17h1.29c.41,0,.75-.34,.75-.75s-.34-.75-.75-.75Zm-9,7c-3.45,0-6.25-2.8-6.25-6.25s2.8-6.25,6.25-6.25,6.25,2.8,6.25,6.25-2.8,6.25-6.25,6.25Z"/><path d="M12,7.25c-2.62,0-4.75,2.13-4.75,4.75s2.13,4.75,4.75,4.75,4.75-2.13,4.75-4.75-2.13-4.75-4.75-4.75Zm0,8c-1.79,0-3.25-1.46-3.25-3.25s1.46-3.25,3.25-3.25,3.25,1.46,3.25,3.25-1.46,3.25-3.25,3.25Z"/></g></g><g id="o"/><g id="p"/><g id="q"/><g id="r"/><g id="s"/><g id="t"/><g id="u"/></svg>