<?xml version="1.0" encoding="UTF-8"?><svg xmlns="http://www.w3.org/2000/svg" viewBox="0 0 24 24"><g id="a"/><g id="b"/><g id="c"><path d="M20.8,3.2c-1.27-1.27-3.33-1.27-4.6,0l-1.94,1.94-.18-.18c-.33-.33-.77-.51-1.24-.51h0c-.47,0-.91,.18-1.24,.51l-.71,.71c-.68,.68-.68,1.79,0,2.47l.18,.18-5.83,5.83c-.41,.41-.72,.92-.91,1.47l-.26,.78c-.11,.33-.3,.63-.54,.88l-.56,.56c-.42,.42-.66,.99-.66,1.59s.23,1.17,.66,1.59,.99,.66,1.59,.66,1.17-.23,1.59-.66l.56-.56c.25-.25,.55-.43,.88-.54l.78-.26c.55-.18,1.06-.5,1.47-.91l5.83-5.83,.18,.18c.34,.34,.79,.51,1.24,.51s.9-.17,1.24-.51l.71-.71c.33-.33,.51-.77,.51-1.24s-.18-.91-.51-1.24l-.18-.18,1.94-1.94c1.27-1.27,1.27-3.33,0-4.6Zm-12.02,14.5c-.25,.25-.55,.43-.88,.54l-.78,.26c-.55,.18-1.06,.5-1.47,.91l-.56,.56c-.28,.28-.78,.28-1.06,0-.14-.14-.22-.33-.22-.53s.08-.39,.22-.53l.56-.56c.41-.41,.72-.92,.91-1.47l.26-.78c.11-.33,.3-.63,.54-.88l.51-.51c.06,.02,.12,.04,.19,.04h4.73l-2.95,2.95Zm4.45-4.45h-4.95l3.86-3.86,2.48,2.48-1.39,1.39Zm6.51-6.51l-2.47,2.47c-.29,.29-.29,.77,0,1.06l.71,.71c.06,.06,.07,.14,.07,.17s0,.11-.07,.18l-.71,.71c-.1,.1-.26,.1-.35,0l-.71-.71-3.54-3.54-.71-.71c-.1-.1-.1-.26,0-.35l.71-.71c.06-.06,.14-.07,.18-.07,0,0,.11,0,.18,.07l.71,.71c.29,.29,.77,.29,1.06,0l2.47-2.47c.68-.68,1.79-.68,2.47,0s.68,1.79,0,2.47Z"/></g><g id="d"/><g id="e"/><g id="f"/><g id="g"/><g id="h"/><g id="i"/><g id="j"/><g id="k"/><g id="l"/><g id="m"/><g id="n"/><g id="o"/><g id="p"/><g id="q"/><g id="r"/><g id="s"/><g id="t"/><g id="u"/></svg>