<?xml version="1.0" encoding="UTF-8"?><svg xmlns="http://www.w3.org/2000/svg" viewBox="0 0 24 24"><g id="a"/><g id="b"/><g id="c"/><g id="d"/><g id="e"/><g id="f"/><g id="g"/><g id="h"/><g id="i"/><g id="j"/><g id="k"/><g id="l"/><g id="m"><g><path d="M20.31,3.69c-2.24-2.24-5.89-2.24-8.13,0L3.69,12.18c-2.24,2.24-2.24,5.89,0,8.13,1.12,1.12,2.59,1.68,4.07,1.68s2.95-.56,4.07-1.68l8.49-8.49c2.24-2.24,2.24-5.89,0-8.13Zm-7.6,13.61l-6.01-6.01,4.6-4.6,6.01,6.01-4.6,4.6Zm-7.96,1.94c-1.66-1.66-1.66-4.35,0-6.01l.88-.88,6.01,6.01-.88,.88c-1.65,1.66-4.35,1.66-6.01,0Zm14.5-8.49l-.88,.88-6.01-6.01,.88-.88c1.66-1.66,4.35-1.66,6.01,0,1.66,1.66,1.66,4.35,0,6.01Z"/><path d="M12.02,11.25h0c-.41,0-.75,.34-.75,.75s.34,.75,.75,.75,.75-.34,.75-.75-.33-.75-.75-.75Z"/><path d="M14.85,11.25h0c-.41,0-.75,.34-.75,.75s.34,.75,.75,.75,.75-.34,.75-.75-.33-.75-.75-.75Z"/><path d="M9.19,11.25h0c-.41,0-.75,.34-.75,.75s.34,.75,.75,.75,.75-.34,.75-.75-.33-.75-.75-.75Z"/><path d="M12.02,14.08h0c-.41,0-.75,.34-.75,.75s.34,.75,.75,.75,.75-.34,.75-.75-.33-.75-.75-.75Z"/><path d="M12.02,8.5h0c-.41,0-.75,.34-.75,.75s.34,.75,.75,.75,.75-.34,.75-.75-.33-.75-.75-.75Z"/></g></g><g id="n"/><g id="o"/><g id="p"/><g id="q"/><g id="r"/><g id="s"/><g id="t"/><g id="u"/></svg>