<?xml version="1.0" encoding="UTF-8"?><svg xmlns="http://www.w3.org/2000/svg" viewBox="0 0 24 24"><g id="a"/><g id="b"/><g id="c"/><g id="d"/><g id="e"/><g id="f"/><g id="g"/><g id="h"/><g id="i"/><g id="j"/><g id="k"/><g id="l"/><g id="m"/><g id="n"/><g id="o"/><g id="p"/><g id="q"/><g id="r"/><g id="s"><path d="M21.38,6.86l-.71-.71h0l-1.41-1.41-2.12-2.12c-.29-.29-.77-.29-1.06,0s-.29,.77,0,1.06l.18,.18-1.06,1.06-.18-.18c-.68-.68-1.79-.68-2.47,0l-6.49,6.49c-.52,.52-.81,1.21-.81,1.94v4.52l-2.78,2.78c-.29,.29-.29,.77,0,1.06,.15,.15,.34,.22,.53,.22s.38-.07,.53-.22l2.78-2.78h4.52c.73,0,1.42-.29,1.94-.81l1.53-1.53h0l4.95-4.95c.33-.33,.51-.77,.51-1.24s-.18-.91-.51-1.24l-.18-.18,1.06-1.06,.18,.18c.15,.15,.34,.22,.53,.22s.38-.07,.53-.22c.29-.29,.29-.77,0-1.06Zm-3.18,3.54l-1.59,1.59-1.59-1.59c-.29-.29-.77-.29-1.06,0s-.29,.77,0,1.06l1.59,1.59-1.77,1.77-1.59-1.59c-.29-.29-.77-.29-1.06,0s-.29,.77,0,1.06l1.59,1.59-1.01,1.01c-.23,.23-.55,.37-.88,.37H6.75v-4.08c0-.33,.13-.65,.37-.88l6.49-6.49c.1-.1,.26-.1,.35,0l2.12,2.12,1.41,1.41h0l.71,.71c.06,.06,.07,.14,.07,.18s0,.11-.07,.18Zm-.18-2.65l-.88-.88-.88-.88,1.06-1.06,.88,.88,.88,.88-1.06,1.06Z"/></g><g id="t"/><g id="u"/></svg>