<?xml version="1.0" encoding="UTF-8"?><svg xmlns="http://www.w3.org/2000/svg" viewBox="0 0 24 24"><g id="a"/><g id="b"/><g id="c"/><g id="d"/><g id="e"/><g id="f"/><g id="g"/><g id="h"/><g id="i"/><g id="j"/><g id="k"/><g id="l"/><g id="m"/><g id="n"/><g id="o"/><g id="p"><g><path d="M17,2.25H7c-2.62,0-4.75,2.13-4.75,4.75v10c0,2.62,2.13,4.75,4.75,4.75h10c2.62,0,4.75-2.13,4.75-4.75V7c0-2.62-2.13-4.75-4.75-4.75Zm3.25,14.75c0,1.79-1.46,3.25-3.25,3.25H7c-1.79,0-3.25-1.46-3.25-3.25V7c0-1.79,1.46-3.25,3.25-3.25h10c1.79,0,3.25,1.46,3.25,3.25v10Z"/><path d="M17,9.25h-2c-.32,0-.61,.21-.71,.51l-.43,1.28-2.19-4.38c-.12-.24-.36-.4-.62-.41-.27-.01-.52,.11-.67,.33l-1.78,2.67h-1.6c-.41,0-.75,.34-.75,.75s.34,.75,.75,.75h2c.25,0,.48-.13,.62-.33l1.28-1.92,2.42,4.84c.13,.26,.39,.41,.67,.41,.02,0,.04,0,.05,0,.3-.02,.56-.22,.66-.51l.83-2.49h1.46c.41,0,.75-.34,.75-.75s-.34-.75-.75-.75Z"/><path d="M7.02,17.25h-.01c-.41,0-.74,.34-.74,.75s.34,.75,.75,.75,.75-.34,.75-.75-.34-.75-.75-.75Z"/><path d="M10.02,17.25h-.01c-.41,0-.74,.34-.74,.75s.34,.75,.75,.75,.75-.34,.75-.75-.34-.75-.75-.75Z"/></g></g><g id="q"/><g id="r"/><g id="s"/><g id="t"/><g id="u"/></svg>