<?xml version="1.0" encoding="UTF-8"?><svg xmlns="http://www.w3.org/2000/svg" viewBox="0 0 24 24"><g id="a"/><g id="b"/><g id="c"/><g id="d"/><g id="e"/><g id="f"/><g id="g"/><g id="h"/><g id="i"/><g id="j"/><g id="k"/><g id="l"/><g id="m"/><g id="n"/><g id="o"/><g id="p"/><g id="q"/><g id="r"/><g id="s"/><g id="t"/><g id="u"><path d="M20.31,3.69c-2.24-2.24-5.89-2.24-8.13,0L3.69,12.18c-2.24,2.24-2.24,5.89,0,8.13,1.12,1.12,2.59,1.68,4.07,1.68s2.94-.56,4.07-1.68l8.49-8.49c2.24-2.24,2.24-5.89,0-8.13Zm-9.55,15.56c-.8,.8-1.87,1.24-3.01,1.24s-2.2-.44-3.01-1.24-1.24-1.87-1.24-3.01,.44-2.2,1.24-3.01l3.71-3.71,6.01,6.01-3.71,3.71Zm8.49-8.49l-3.71,3.71-6.01-6.01,3.71-3.71c.8-.8,1.87-1.24,3.01-1.24s2.2,.44,3.01,1.24,1.24,1.87,1.24,3.01-.44,2.2-1.24,3.01Z"/></g></svg>