<?xml version="1.0" encoding="UTF-8"?><svg xmlns="http://www.w3.org/2000/svg" viewBox="0 0 24 24"><g id="a"/><g id="b"/><g id="c"/><g id="d"><path d="M21.09,3.91c-.88-.88-2.3-.88-3.18,0l-7.34,7.34H3.93c-.47,0-.91,.18-1.24,.51-.33,.33-.52,.78-.52,1.26,0,.36,.03,.73,.08,1.08,.28,1.89,1.21,3.29,1.94,4.12,.04,.04,.05,.09,.05,.15v.62c0,.96,.79,1.75,1.75,1.75h10c.96,0,1.75-.79,1.75-1.75v-.62c0-.06,.02-.11,.05-.15,.73-.84,1.66-2.24,1.94-4.12,.05-.35,.08-.72,.08-1.09,0-.48-.18-.93-.52-1.26s-.77-.51-1.24-.51h-1.14l4.16-4.16c.88-.88,.88-2.3,0-3.18Zm-2.85,8.91s.08,.1,.08,.2c0,.29-.02,.59-.06,.87-.22,1.53-.99,2.67-1.58,3.35-.27,.31-.42,.72-.42,1.14v.62c0,.14-.11,.25-.25,.25H6c-.14,0-.25-.11-.25-.25v-.62c0-.42-.15-.83-.42-1.14-.6-.69-1.36-1.83-1.58-3.35-.04-.29-.06-.58-.06-.87,0-.1,.05-.17,.08-.2,.03-.03,.09-.07,.17-.07h14.14c.08,0,.14,.04,.17,.07Zm1.79-6.79l-5.22,5.22h-2.12l6.28-6.28c.29-.29,.77-.29,1.06,0s.29,.77,0,1.06Z"/></g><g id="e"/><g id="f"/><g id="g"/><g id="h"/><g id="i"/><g id="j"/><g id="k"/><g id="l"/><g id="m"/><g id="n"/><g id="o"/><g id="p"/><g id="q"/><g id="r"/><g id="s"/><g id="t"/><g id="u"/></svg>