<?xml version="1.0" encoding="UTF-8"?><svg xmlns="http://www.w3.org/2000/svg" viewBox="0 0 24 24"><g id="a"/><g id="b"/><g id="c"/><g id="d"/><g id="e"/><g id="f"/><g id="g"/><g id="h"/><g id="i"/><g id="j"/><g id="k"/><g id="l"/><g id="m"/><g id="n"/><g id="o"><g><path d="M12.21,11.75c1.22,0,2.43-.46,3.36-1.39,1.85-1.85,1.85-4.87,0-6.72-1.85-1.85-4.87-1.85-6.72,0-1.52,1.52-1.77,3.8-.8,5.6-.52,.15-.97,.39-1.33,.73-.79,.76-.89,1.7-.97,2.54-.07,.66-.13,1.28-.52,1.79-.43,.58-1.22,.96-2.34,1.12-.41,.06-.69,.44-.63,.85,.05,.37,.38,.64,.74,.64,.04,0,.07,0,.11,0,1.52-.22,2.64-.8,3.32-1.71,.63-.85,.73-1.74,.81-2.54,.08-.77,.15-1.25,.52-1.62,.3-.29,.76-.45,1.35-.48,.89,.77,1.99,1.17,3.1,1.17Zm-2.3-7.05c1.27-1.27,3.33-1.27,4.6,0,1.27,1.27,1.27,3.33,0,4.6-1.27,1.27-3.33,1.27-4.6,0-1.27-1.27-1.27-3.33,0-4.6Z"/><path d="M20.65,11.98c-1.46-1.46-3.84-1.46-5.3,0-.71,.71-1.1,1.65-1.1,2.65,0,.88,.32,1.71,.87,2.38-.02,.49-.11,1.03-.42,1.29-.15,.12-.31,.15-.65,.21-.36,.06-.82,.14-1.35,.41-.69,.36-1.27,.93-1.72,1.7-.21,.36-.08,.82,.27,1.02,.12,.07,.25,.1,.38,.1,.26,0,.51-.13,.65-.37,.3-.52,.67-.9,1.11-1.12,.32-.17,.61-.22,.91-.27,.41-.07,.88-.15,1.34-.52,.41-.33,.67-.81,.83-1.41,.49,.22,1.01,.34,1.53,.34,.96,0,1.92-.37,2.65-1.1,.71-.71,1.1-1.65,1.1-2.65s-.39-1.94-1.1-2.65Zm-1.06,4.24c-.88,.88-2.3,.88-3.18,0-.43-.42-.66-.99-.66-1.59s.23-1.17,.66-1.59,1.01-.66,1.59-.66,1.15,.22,1.59,.66,.66,.99,.66,1.59-.23,1.17-.66,1.59Z"/></g></g><g id="p"/><g id="q"/><g id="r"/><g id="s"/><g id="t"/><g id="u"/></svg>