<?xml version="1.0" encoding="UTF-8"?><svg xmlns="http://www.w3.org/2000/svg" viewBox="0 0 24 24"><g id="a"/><g id="b"/><g id="c"/><g id="d"/><g id="e"/><g id="f"/><g id="g"/><g id="h"/><g id="i"/><g id="j"/><g id="k"/><g id="l"/><g id="m"/><g id="n"/><g id="o"/><g id="p"/><g id="q"><g><path d="M21.75,6c0-1-.39-1.94-1.1-2.65-.71-.71-1.65-1.1-2.65-1.1s-1.94,.39-2.65,1.1l-6.82,6.82c-2.03-.15-3.99,.78-5.18,2.49-1.31,1.89-1.35,4.44-.09,6.35,.97,1.48,2.52,2.43,4.25,2.61,.2,.02,.4,.03,.6,.03,1.52,0,2.97-.6,4.06-1.68,1.2-1.2,1.8-2.82,1.67-4.5l6.82-6.82c.71-.71,1.1-1.65,1.1-2.65Zm-2.16,1.59l-7.07,7.07c-.17,.17-.25,.4-.21,.64,.19,1.34-.25,2.65-1.2,3.61-.91,.91-2.16,1.36-3.44,1.22-1.28-.13-2.43-.84-3.15-1.94-.92-1.41-.89-3.28,.07-4.67,.82-1.18,2.13-1.86,3.52-1.86,.2,0,.4,.01,.6,.04,.23,.03,.47-.05,.64-.21l7.07-7.07c.42-.42,.99-.66,1.59-.66s1.17,.23,1.59,.66c.42,.42,.66,.99,.66,1.59s-.23,1.17-.66,1.59Z"/><path d="M17.47,5.47L9.43,13.51c-1.05-.58-2.39-.44-3.28,.45-.52,.52-.81,1.21-.81,1.94s.29,1.43,.81,1.94c.54,.54,1.24,.8,1.94,.8s1.41-.27,1.94-.8c.52-.52,.81-1.21,.81-1.94,0-.48-.13-.93-.36-1.33L18.53,6.53c.29-.29,.29-.77,0-1.06s-.77-.29-1.06,0Zm-8.49,11.31c-.49,.49-1.28,.49-1.77,0-.24-.24-.37-.55-.37-.88s.13-.65,.37-.88c.24-.24,.56-.37,.88-.37s.64,.12,.88,.37c.24,.24,.37,.55,.37,.88s-.13,.65-.37,.88Z"/></g></g><g id="r"/><g id="s"/><g id="t"/><g id="u"/></svg>