<?xml version="1.0" encoding="UTF-8"?><svg xmlns="http://www.w3.org/2000/svg" viewBox="0 0 24 24"><defs><style>.v{fill:#231f20;}</style></defs><g id="a"/><g id="b"/><g id="c"/><g id="d"/><g id="e"/><g id="f"/><g id="g"/><g id="h"/><g id="i"/><g id="j"/><g id="k"/><g id="l"/><g id="m"/><g id="n"/><g id="o"/><g id="p"/><g id="q"/><g id="r"><g><path class="v" d="M12,2.25C6.62,2.25,2.25,6.62,2.25,12s4.37,9.75,9.75,9.75,9.75-4.37,9.75-9.75S17.38,2.25,12,2.25Zm0,18c-4.55,0-8.25-3.7-8.25-8.25S7.45,3.75,12,3.75s8.25,3.7,8.25,8.25-3.7,8.25-8.25,8.25Z"/><path class="v" d="M16.12,8.25h-6.12c-.41,0-.75,.34-.75,.75s.34,.75,.75,.75h6.12c.06,0,.1,.03,.12,.12l-.99,2.87c-.31,.9-1.19,1.51-2.19,1.51h-5.06c-.41,0-.75,.34-.75,.75s.34,.75,.75,.75h5.06c1.64,0,3.09-1.01,3.61-2.52l.99-2.87c.17-.49,.09-1-.21-1.42-.3-.43-.8-.68-1.33-.68Z"/><path class="v" d="M10.75,12c0-.41-.34-.75-.75-.75h-3c-.41,0-.75,.34-.75,.75s.34,.75,.75,.75h3c.41,0,.75-.34,.75-.75Z"/></g></g><g id="s"/><g id="t"/><g id="u"/></svg>