<?xml version="1.0" encoding="UTF-8"?><svg xmlns="http://www.w3.org/2000/svg" viewBox="0 0 24 24"><defs><style>.v{fill:#231f20;}</style></defs><g id="a"/><g id="b"/><g id="c"/><g id="d"/><g id="e"/><g id="f"/><g id="g"/><g id="h"/><g id="i"><g><path class="v" d="M12,2.25C6.62,2.25,2.25,6.62,2.25,12s4.37,9.75,9.75,9.75,9.75-4.37,9.75-9.75S17.38,2.25,12,2.25Zm0,18c-4.55,0-8.25-3.7-8.25-8.25S7.45,3.75,12,3.75s8.25,3.7,8.25,8.25-3.7,8.25-8.25,8.25Z"/><path class="v" d="M12,9.25c-1.52,0-2.75,1.23-2.75,2.75s1.23,2.75,2.75,2.75,2.75-1.23,2.75-2.75-1.23-2.75-2.75-2.75Zm0,4c-.69,0-1.25-.56-1.25-1.25s.56-1.25,1.25-1.25,1.25,.56,1.25,1.25-.56,1.25-1.25,1.25Z"/><path class="v" d="M12.75,6c0-.41-.34-.75-.75-.75-3.72,0-6.75,3.03-6.75,6.75,0,.41,.34,.75,.75,.75s.75-.34,.75-.75c0-2.89,2.35-5.25,5.25-5.25,.41,0,.75-.34,.75-.75Z"/><path class="v" d="M18,11.25c-.41,0-.75,.34-.75,.75,0,1.49-.64,2.92-1.75,3.91-.31,.28-.33,.75-.06,1.06,.15,.17,.35,.25,.56,.25,.18,0,.36-.06,.5-.19,1.43-1.28,2.25-3.11,2.25-5.03,0-.41-.34-.75-.75-.75Z"/></g></g><g id="j"/><g id="k"/><g id="l"/><g id="m"/><g id="n"/><g id="o"/><g id="p"/><g id="q"/><g id="r"/><g id="s"/><g id="t"/><g id="u"/></svg>