<?xml version="1.0" encoding="UTF-8"?><svg xmlns="http://www.w3.org/2000/svg" viewBox="0 0 24 24"><defs><style>.v{fill:#231f20;}</style></defs><g id="a"/><g id="b"/><g id="c"/><g id="d"/><g id="e"/><g id="f"/><g id="g"/><g id="h"/><g id="i"/><g id="j"/><g id="k"/><g id="l"/><g id="m"><g><path class="v" d="M17,2.25H7c-1.52,0-2.75,1.23-2.75,2.75v14c0,1.52,1.23,2.75,2.75,2.75h10c1.52,0,2.75-1.23,2.75-2.75V5c0-1.52-1.23-2.75-2.75-2.75Zm1.25,16.75c0,.69-.56,1.25-1.25,1.25H7c-.69,0-1.25-.56-1.25-1.25V5c0-.69,.56-1.25,1.25-1.25h10c.69,0,1.25,.56,1.25,1.25v14Z"/><path class="v" d="M15,5.25h-6c-.96,0-1.75,.79-1.75,1.75v3c0,.96,.79,1.75,1.75,1.75h6c.96,0,1.75-.79,1.75-1.75v-3c0-.96-.79-1.75-1.75-1.75Zm.25,4.75c0,.14-.11,.25-.25,.25h-6c-.14,0-.25-.11-.25-.25v-3c0-.14,.11-.25,.25-.25h6c.14,0,.25,.11,.25,.25v3Z"/><path class="v" d="M12,13.25c-1.52,0-2.75,1.23-2.75,2.75s1.23,2.75,2.75,2.75,2.75-1.23,2.75-2.75-1.23-2.75-2.75-2.75Zm0,4c-.69,0-1.25-.56-1.25-1.25s.56-1.25,1.25-1.25,1.25,.56,1.25,1.25-.56,1.25-1.25,1.25Z"/></g></g><g id="n"/><g id="o"/><g id="p"/><g id="q"/><g id="r"/><g id="s"/><g id="t"/><g id="u"/></svg>