<?xml version="1.0" encoding="UTF-8"?><svg xmlns="http://www.w3.org/2000/svg" viewBox="0 0 24 24"><defs><style>.v{fill:#231f20;}</style></defs><g id="a"/><g id="b"/><g id="c"/><g id="d"/><g id="e"/><g id="f"/><g id="g"/><g id="h"/><g id="i"/><g id="j"/><g id="k"/><g id="l"/><g id="m"/><g id="n"/><g id="o"/><g id="p"/><g id="q"/><g id="r"/><g id="s"><g><path class="v" d="M18,6.25h-3.75l2.2-1.65c.33-.25,.4-.72,.15-1.05-.25-.33-.72-.4-1.05-.15l-3.55,2.66-3.55-2.66c-.33-.25-.8-.18-1.05,.15-.25,.33-.18,.8,.15,1.05l2.2,1.65h-3.75c-2.07,0-3.75,1.68-3.75,3.75v6c0,2.07,1.68,3.75,3.75,3.75h12c2.07,0,3.75-1.68,3.75-3.75v-6c0-2.07-1.68-3.75-3.75-3.75ZM3.75,16v-6c0-1.24,1.01-2.25,2.25-2.25H14.25v10.5H6c-1.24,0-2.25-1.01-2.25-2.25Zm16.5,0c0,1.24-1.01,2.25-2.25,2.25h-2.25V7.75h2.25c1.24,0,2.25,1.01,2.25,2.25v6Z"/><path class="v" d="M18.02,9.25h0c-.41,0-.75,.34-.75,.75s.34,.75,.75,.75,.75-.34,.75-.75-.33-.75-.75-.75Z"/><path class="v" d="M18.02,12.25h0c-.41,0-.75,.34-.75,.75s.34,.75,.75,.75,.75-.34,.75-.75-.33-.75-.75-.75Z"/><path class="v" d="M18.02,15.25h0c-.41,0-.75,.34-.75,.75s.34,.75,.75,.75,.75-.34,.75-.75-.33-.75-.75-.75Z"/></g></g><g id="t"/><g id="u"/></svg>