<?xml version="1.0" encoding="UTF-8"?><svg xmlns="http://www.w3.org/2000/svg" viewBox="0 0 24 24"><defs><style>.v{fill:#231f20;}</style></defs><g id="a"/><g id="b"/><g id="c"/><g id="d"/><g id="e"/><g id="f"/><g id="g"/><g id="h"><g><path class="v" d="M17,8.25h-.25V4c0-.96-.79-1.75-1.75-1.75h-6c-.96,0-1.75,.79-1.75,1.75v4.25h-.25c-.96,0-1.75,.79-1.75,1.75v7c0,2.62,2.13,4.75,4.75,4.75h4c2.62,0,4.75-2.13,4.75-4.75v-7c0-.96-.79-1.75-1.75-1.75ZM8.75,4c0-.14,.11-.25,.25-.25h6c.14,0,.25,.11,.25,.25v4.25h-6.5V4Zm8.5,13c0,1.79-1.46,3.25-3.25,3.25h-4c-1.79,0-3.25-1.46-3.25-3.25v-7c0-.14,.11-.25,.25-.25h10c.14,0,.25,.11,.25,.25v7Z"/><path class="v" d="M11,5.25h-1c-.41,0-.75,.34-.75,.75s.34,.75,.75,.75h1c.41,0,.75-.34,.75-.75s-.34-.75-.75-.75Z"/><path class="v" d="M14,5.25h-1c-.41,0-.75,.34-.75,.75s.34,.75,.75,.75h1c.41,0,.75-.34,.75-.75s-.34-.75-.75-.75Z"/><path class="v" d="M14,17.25h-4c-.41,0-.75,.34-.75,.75s.34,.75,.75,.75h4c.41,0,.75-.34,.75-.75s-.34-.75-.75-.75Z"/></g></g><g id="i"/><g id="j"/><g id="k"/><g id="l"/><g id="m"/><g id="n"/><g id="o"/><g id="p"/><g id="q"/><g id="r"/><g id="s"/><g id="t"/><g id="u"/></svg>