<?xml version="1.0" encoding="UTF-8"?><svg xmlns="http://www.w3.org/2000/svg" viewBox="0 0 24 24"><g id="a"/><g id="b"/><g id="c"/><g id="d"/><g id="e"><g><path d="M9.75,18V6c0-2.07-1.68-3.75-3.75-3.75s-3.75,1.68-3.75,3.75v12c0,2.07,1.68,3.75,3.75,3.75h.58s-.03-.04-.05-.05c1.82-.26,3.22-1.81,3.22-3.7Zm-3.73,.75c-.41,0-.75-.34-.75-.75s.33-.75,.74-.75h.01c.41,0,.75,.34,.75,.75s-.34,.75-.75,.75Z"/><path d="M18,14.25h-.83l-7.46,7.46s-.03,.02-.05,.04h8.33c2.07,0,3.75-1.68,3.75-3.75s-1.68-3.75-3.75-3.75Z"/><path d="M18.24,9.51c0-1-.39-1.94-1.1-2.65-1.42-1.42-3.89-1.42-5.3,0l-.58,.58v10.55s0,.04,0,.06l5.89-5.89c.71-.71,1.1-1.65,1.1-2.65Z"/></g></g><g id="f"/><g id="g"/><g id="h"/><g id="i"/><g id="j"/><g id="k"/><g id="l"/><g id="m"/><g id="n"/><g id="o"/><g id="p"/><g id="q"/><g id="r"/><g id="s"/><g id="t"/><g id="u"/></svg>