<?xml version="1.0" encoding="UTF-8"?><svg xmlns="http://www.w3.org/2000/svg" viewBox="0 0 24 24"><g id="a"/><g id="b"/><g id="c"/><g id="d"/><g id="e"/><g id="f"/><g id="g"/><g id="h"/><g id="i"/><g id="j"/><g id="k"/><g id="l"/><g id="m"/><g id="n"><g><path d="M11.31,9.28c-.68-.68-1.79-.68-2.48,0l-.71,.71c-.33,.33-.51,.77-.51,1.24s.18,.91,.51,1.24l5.66,5.66h0c.34,.34,.79,.51,1.24,.51s.9-.17,1.24-.51l.71-.71c.68-.68,.68-1.79,0-2.48l-5.66-5.66Z"/><path d="M20.5,5.74c-1.46-1.46-3.84-1.46-5.3,0l-2.65,2.65,5.3,5.3,2.65-2.65c.71-.71,1.1-1.65,1.1-2.65s-.39-1.94-1.1-2.65Z"/><path d="M2.47,18.47c-.21,.21-.28,.54-.16,.82s.39,.46,.69,.46H11.49c.2,0,.39-.08,.53-.22l.53-.53-5.3-5.3-4.77,4.77Z"/></g></g><g id="o"/><g id="p"/><g id="q"/><g id="r"/><g id="s"/><g id="t"/><g id="u"/></svg>