<?xml version="1.0" encoding="UTF-8"?><svg xmlns="http://www.w3.org/2000/svg" viewBox="0 0 24 24"><g id="a"/><g id="b"/><g id="c"/><g id="d"/><g id="e"/><g id="f"/><g id="g"/><g id="h"/><g id="i"/><g id="j"/><g id="k"/><g id="l"><g><path d="M14,17.08l.55,.51,5.1-5.1c.71-.71,1.1-1.65,1.1-2.65s-.39-1.94-1.1-2.65l-2.83-2.83c-1.46-1.46-3.84-1.46-5.3,0l-5.13,5.13,.53,.52,7.08,7.08Z"/><path d="M21,19.25H12.88l.6-.6-.53-.49-7.65-7.6-1.57,1.57c-.71,.71-1.1,1.65-1.1,2.65s.39,1.94,1.1,2.65l1.82,1.82H3c-.41,0-.75,.34-.75,.75s.34,.75,.75,.75H21c.41,0,.75-.34,.75-.75s-.34-.75-.75-.75Z"/></g></g><g id="m"/><g id="n"/><g id="o"/><g id="p"/><g id="q"/><g id="r"/><g id="s"/><g id="t"/><g id="u"/></svg>