<?xml version="1.0" encoding="UTF-8"?><svg xmlns="http://www.w3.org/2000/svg" viewBox="0 0 24 24"><g id="a"/><g id="b"/><g id="c"/><g id="d"/><g id="e"/><g id="f"/><g id="g"><path d="M21,16.5h-1.5V7.5h1.5c.83,0,1.5-.67,1.5-1.5s-.67-1.5-1.5-1.5h-1.5v-1.5c0-.83-.67-1.5-1.5-1.5s-1.5,.67-1.5,1.5v1.5H7.5v-1.5c0-.83-.67-1.5-1.5-1.5s-1.5,.67-1.5,1.5v1.5h-1.5c-.83,0-1.5,.67-1.5,1.5s.67,1.5,1.5,1.5h1.5v9h-1.5c-.83,0-1.5,.67-1.5,1.5s.67,1.5,1.5,1.5h1.5v1.5c0,.83,.67,1.5,1.5,1.5s1.5-.67,1.5-1.5v-1.5h9v1.5c0,.83,.67,1.5,1.5,1.5s1.5-.67,1.5-1.5v-1.5h1.5c.83,0,1.5-.67,1.5-1.5s-.67-1.5-1.5-1.5Zm-13.5,0V7.5h9v9H7.5Z"/></g><g id="h"/><g id="i"/><g id="j"/><g id="k"/><g id="l"/><g id="m"/><g id="n"/><g id="o"/><g id="p"/><g id="q"/><g id="r"/><g id="s"/><g id="t"/><g id="u"/></svg>