<?xml version="1.0" encoding="UTF-8"?><svg xmlns="http://www.w3.org/2000/svg" viewBox="0 0 24 24"><g id="a"/><g id="b"/><g id="c"/><g id="d"/><g id="e"/><g id="f"/><g id="g"/><g id="h"/><g id="i"/><g id="j"/><g id="k"><g><path d="M3.04,10.52l8.06,4.97c.28,.17,.59,.26,.91,.26s.63-.09,.91-.26l8.06-4.97c.53-.33,.84-.89,.84-1.52s-.31-1.2-.84-1.52L12.91,2.51c-.56-.35-1.26-.34-1.82,0L3.04,7.48c-.53,.33-.84,.89-.84,1.52s.31,1.2,.84,1.52Z"/><path d="M20.96,13.48l-.97-.6-6.3,3.89c-.52,.32-1.1,.48-1.7,.48s-1.18-.17-1.7-.48l-6.3-3.89-.97,.6c-.53,.33-.84,.89-.84,1.52s.31,1.2,.84,1.52l8.06,4.97c.28,.17,.59,.26,.91,.26s.63-.09,.91-.26l8.06-4.97c.53-.33,.84-.89,.84-1.52s-.31-1.2-.84-1.52Z"/></g></g><g id="l"/><g id="m"/><g id="n"/><g id="o"/><g id="p"/><g id="q"/><g id="r"/><g id="s"/><g id="t"/><g id="u"/></svg>