<?xml version="1.0" encoding="UTF-8"?><svg xmlns="http://www.w3.org/2000/svg" viewBox="0 0 24 24"><g id="a"/><g id="b"/><g id="c"/><g id="d"/><g id="e"/><g id="f"/><g id="g"/><g id="h"><path d="M12,6.25h5.75v-1.25c0-1.52-1.23-2.75-2.75-2.75h-6c-1.52,0-2.75,1.23-2.75,2.75v14c0,1.52,1.23,2.75,2.75,2.75h6c1.52,0,2.75-1.23,2.75-2.75v-1.25h-5.75c-.41,0-.75-.34-.75-.75s.34-.75,.75-.75h5.75v-3.5h-3.75c-.41,0-.75-.34-.75-.75s.34-.75,.75-.75h3.75v-3.5h-5.75c-.41,0-.75-.34-.75-.75s.34-.75,.75-.75Z"/></g><g id="i"/><g id="j"/><g id="k"/><g id="l"/><g id="m"/><g id="n"/><g id="o"/><g id="p"/><g id="q"/><g id="r"/><g id="s"/><g id="t"/><g id="u"/></svg>