<?xml version="1.0" encoding="UTF-8"?><svg xmlns="http://www.w3.org/2000/svg" viewBox="0 0 24 24"><g id="a"/><g id="b"/><g id="c"/><g id="d"/><g id="e"/><g id="f"><g><path d="M20,2.25h-3c-.96,0-1.75,.79-1.75,1.75v2.25h6.5v-2.25c0-.96-.79-1.75-1.75-1.75Z"/><path d="M15.25,11c0,1.79-1.46,3.25-3.25,3.25s-3.25-1.46-3.25-3.25v-3.25H2.25v4.25c0,5.38,4.37,9.75,9.75,9.75s9.75-4.37,9.75-9.75V7.75h-6.5v3.25Z"/><path d="M8.75,4c0-.96-.79-1.75-1.75-1.75h-3c-.96,0-1.75,.79-1.75,1.75v2.25h6.5v-2.25Z"/></g></g><g id="g"/><g id="h"/><g id="i"/><g id="j"/><g id="k"/><g id="l"/><g id="m"/><g id="n"/><g id="o"/><g id="p"/><g id="q"/><g id="r"/><g id="s"/><g id="t"/><g id="u"/></svg>