<?xml version="1.0" encoding="UTF-8"?><svg xmlns="http://www.w3.org/2000/svg" viewBox="0 0 24 24"><g id="a"/><g id="b"/><g id="c"/><g id="d"/><g id="e"/><g id="f"/><g id="g"/><g id="h"/><g id="i"><g><path d="M21.74,17.47c-.38-2.13-1.57-3.44-2.24-4.03-.28-.25-.71-.25-.99,0-.67,.59-1.86,1.9-2.25,4.06-.15,.85,.08,1.74,.62,2.38,.46,.55,1.12,.87,1.79,.87h.67c.67,0,1.32-.32,1.79-.87,.54-.64,.77-1.53,.62-2.41Z"/><path d="M14.78,17.24c.47-2.61,1.92-4.21,2.74-4.93,.16-.14,.34-.24,.52-.33l-5.8-5.8c-.15-.14-.31-.25-.49-.34v-.84c0-1.52-1.23-2.75-2.75-2.75s-2.75,1.23-2.75,2.75v4.69l-2.85,2.85c-.71,.71-1.1,1.65-1.1,2.65s.39,1.94,1.1,2.65l3.54,3.54c.73,.73,1.69,1.1,2.65,1.1s1.92-.37,2.65-1.1l2.57-2.57c-.09-.51-.12-1.04-.03-1.57ZM7.75,8.19v-3.19c0-.69,.56-1.25,1.25-1.25s1.25,.56,1.25,1.25v.84c-.18,.08-.34,.19-.49,.34l-2.01,2.01Z"/></g></g><g id="j"/><g id="k"/><g id="l"/><g id="m"/><g id="n"/><g id="o"/><g id="p"/><g id="q"/><g id="r"/><g id="s"/><g id="t"/><g id="u"/></svg>