<?xml version="1.0" encoding="UTF-8"?><svg xmlns="http://www.w3.org/2000/svg" viewBox="0 0 24 24"><g id="a"/><g id="b"/><g id="c"/><g id="d"/><g id="e"/><g id="f"/><g id="g"/><g id="h"/><g id="i"/><g id="j"/><g id="k"/><g id="l"/><g id="m"><g><path d="M8.31,14.36c-.89-.18-1.76-.09-2.51,.25-.72,.33-1.33,.86-1.71,1.5-.37,.62-.45,1.17-.5,1.61-.06,.42-.09,.63-.28,.86-.18,.22-.44,.38-.79,.48-.26,.08-.45,.28-.51,.54s.02,.53,.21,.72c.52,.5,1.4,1.15,2.65,1.36,.17,.03,.48,.07,.86,.07,.87,0,2.13-.2,3.2-1.2,.42-.39,1.41-1.49,1.43-3.15,0-.55-.1-1.1-.31-1.63-.29-.73-.94-1.26-1.73-1.42Z"/><path d="M9.47,11.53l-.83-.88-.82,.72c-.44,.39-.75,.89-.92,1.43,.17-.02,.34-.03,.52-.03,.39,0,.79,.04,1.19,.12,1.29,.26,2.35,1.14,2.83,2.34,.28,.71,.42,1.45,.41,2.21,0,.1-.02,.19-.02,.29,.55-.16,1.05-.47,1.44-.91l.7-.8-.73-.71-3.77-3.77Z"/><path d="M20.85,3.79c-1.14-1.14-2.99-1.21-4.21-.14l-6.87,6.01,.78,.82,4.43,4.39,6.02-6.88c1.07-1.22,1-3.06-.14-4.21Z"/></g></g><g id="n"/><g id="o"/><g id="p"/><g id="q"/><g id="r"/><g id="s"/><g id="t"/><g id="u"/></svg>