<?xml version="1.0" encoding="UTF-8"?><svg xmlns="http://www.w3.org/2000/svg" viewBox="0 0 24 24"><g id="a"/><g id="b"/><g id="c"/><g id="d"/><g id="e"/><g id="f"/><g id="g"/><g id="h"/><g id="i"/><g id="j"/><g id="k"/><g id="l"/><g id="m"/><g id="n"/><g id="o"/><g id="p"/><g id="q"><g><circle cx="8.5" cy="9.5" r=".75"/><circle cx="9.5" cy="15.5" r=".75"/><path d="M12,2.25C6.62,2.25,2.25,6.62,2.25,12c0,5.95,5.77,9.75,9.75,9.75,.69,0,2.51,0,3.57-1.27,.72-.86,.7-1.83,.69-2.61-.01-.67,0-1.07,.26-1.34s.66-.28,1.34-.26c.78,.02,1.75,.03,2.61-.69,1.27-1.06,1.27-2.89,1.27-3.57h0c0-3.98-3.8-9.75-9.75-9.75Zm-5.75,7.25c0-1.24,1.01-2.25,2.25-2.25s2.25,1.01,2.25,2.25-1.01,2.25-2.25,2.25-2.25-1.01-2.25-2.25Zm3.25,8.25c-1.24,0-2.25-1.01-2.25-2.25s1.01-2.25,2.25-2.25,2.25,1.01,2.25,2.25-1.01,2.25-2.25,2.25Zm5-7c-1.24,0-2.25-1.01-2.25-2.25s1.01-2.25,2.25-2.25,2.25,1.01,2.25,2.25-1.01,2.25-2.25,2.25Z"/><circle cx="14.5" cy="8.5" r=".75"/></g></g><g id="r"/><g id="s"/><g id="t"/><g id="u"/></svg>