<?xml version="1.0" encoding="UTF-8"?><svg xmlns="http://www.w3.org/2000/svg" viewBox="0 0 24 24"><g id="a"/><g id="b"/><g id="c"/><g id="d"/><g id="e"/><g id="f"/><g id="g"/><g id="h"/><g id="i"/><g id="j"/><g id="k"/><g id="l"/><g id="m"/><g id="n"/><g id="o"/><g id="p"/><g id="q"/><g id="r"/><g id="s"/><g id="t"/><g id="u"><g><path d="M18.74,8.56L14.07,3.23c-.35-.4-.82-.65-1.32-.79v7.56c0,.41-.34,.75-.75,.75s-.75-.34-.75-.75V2.44c-.5,.13-.97,.39-1.32,.79l-4.67,5.33c-.69,.79-.87,1.93-.46,2.89l2.5,5.84c.12,.28,.39,.45,.69,.45h8c.3,0,.57-.18,.69-.45l2.5-5.84c.41-.97,.23-2.1-.46-2.89Z"/><path d="M16,19.25h-8c-.66,0-1.28-.29-1.7-.78-.03,.17-.05,.35-.05,.53,0,1.52,1.23,2.75,2.75,2.75h6c1.52,0,2.75-1.23,2.75-2.75,0-.18-.02-.36-.05-.53-.42,.48-1.03,.78-1.7,.78Z"/></g></g></svg>