<?xml version="1.0" encoding="UTF-8"?><svg xmlns="http://www.w3.org/2000/svg" viewBox="0 0 24 24"><g id="a"/><g id="b"/><g id="c"/><g id="d"/><g id="e"/><g id="f"/><g id="g"/><g id="h"/><g id="i"/><g id="j"/><g id="k"/><g id="l"/><g id="m"/><g id="n"/><g id="o"/><g id="p"><g><path d="M3.29,14.65l-1,5.01c-.12,.58,.06,1.17,.48,1.58,.33,.33,.78,.51,1.24,.51,.11,0,.23-.01,.34-.03l5.01-1c.08-.02,.16-.04,.24-.07L3.35,14.41c-.02,.08-.05,.16-.07,.24Z"/><path d="M20.23,3.77c-.9-.9-2.09-1.39-3.36-1.39s-2.46,.49-3.36,1.39L4.17,13.11l6.72,6.72,9.34-9.34c.9-.9,1.39-2.09,1.39-3.36s-.49-2.46-1.39-3.36Z"/></g></g><g id="q"/><g id="r"/><g id="s"/><g id="t"/><g id="u"/></svg>