<?xml version="1.0" encoding="UTF-8"?><svg xmlns="http://www.w3.org/2000/svg" viewBox="0 0 24 24"><g id="a"/><g id="b"/><g id="c"/><g id="d"/><g id="e"/><g id="f"/><g id="g"/><g id="h"/><g id="i"/><g id="j"/><g id="k"/><g id="l"/><g id="m"/><g id="n"/><g id="o"><g><path d="M21.96,6c0-1-.39-1.94-1.1-2.65-1.42-1.42-3.89-1.42-5.3,0l-.88,.88-.18-.18c-.68-.68-1.79-.68-2.48,0l-.71,.71c-.68,.68-.68,1.79,0,2.47l5.66,5.66c.33,.33,.77,.51,1.24,.51s.91-.18,1.24-.51l.71-.71c.68-.68,.68-1.79,0-2.47l-.18-.18,.88-.88c.71-.71,1.1-1.65,1.1-2.65Z"/><path d="M4.24,14.66c-.41,.41-.72,.92-.91,1.47l-1,2.98c-.21,.63-.05,1.32,.42,1.79l.54,.54c.33,.33,.78,.51,1.23,.51,.19,0,.37-.03,.56-.09l2.98-.99c.55-.18,1.06-.5,1.47-.91l6.19-6.19-5.3-5.3-6.19,6.19Z"/></g></g><g id="p"/><g id="q"/><g id="r"/><g id="s"/><g id="t"/><g id="u"/></svg>