<?xml version="1.0" encoding="UTF-8"?><svg xmlns="http://www.w3.org/2000/svg" viewBox="0 0 24 24"><g id="a"/><g id="b"><g><path d="M8.18,13.24c-.06-.06-.12-.08-.17-.08-.04,0-.08,.01-.1,.02-.06,.02-.15,.08-.15,.23v2.59c0,.14,.11,.25,.25,.25h2.59c.15,0,.21-.1,.23-.15,.02-.06,.05-.17-.05-.27l-2.59-2.59Z"/><path d="M20.82,18.76L5.24,3.18c-.5-.5-1.25-.65-1.91-.38-.66,.27-1.08,.91-1.08,1.62v15.59c0,.96,.79,1.75,1.75,1.75h15.59c.71,0,1.34-.42,1.62-1.08,.27-.66,.12-1.41-.38-1.91Zm-8.62-2.09c-.27,.66-.91,1.08-1.62,1.08h-2.59c-.96,0-1.75-.79-1.75-1.75v-2.59c0-.71,.42-1.34,1.08-1.62,.66-.27,1.4-.12,1.91,.38l2.59,2.59c.5,.5,.65,1.25,.38,1.91Z"/></g></g><g id="c"/><g id="d"/><g id="e"/><g id="f"/><g id="g"/><g id="h"/><g id="i"/><g id="j"/><g id="k"/><g id="l"/><g id="m"/><g id="n"/><g id="o"/><g id="p"/><g id="q"/><g id="r"/><g id="s"/><g id="t"/><g id="u"/></svg>