<svg xmlns="http://www.w3.org/2000/svg" viewBox="0 0 32 32"><title>10-Trash</title><g id="_10-Trash" data-name="10-Trash"><path d="M22,31H10a4,4,0,0,1-4-4V10A1.959,1.959,0,0,1,8,8H24a1.959,1.959,0,0,1,2,2V27A4,4,0,0,1,22,31Zm-6-3a1,1,0,1,0-1-1A1,1,0,0,0,16,28Z" style="fill:#f2f2f2"/><path d="M8,8a1.959,1.959,0,0,0-2,2V27a4,4,0,0,0,4,4h1V8Z" style="fill:#c1c5c8"/><path d="M16,8V26a1,1,0,0,1,0,2v3h5V8Z" style="fill:#c1c5c8"/><path d="M24,7H8a2.916,2.916,0,0,0-3,3V27a5.006,5.006,0,0,0,5,5H22a5.006,5.006,0,0,0,5-5V10A2.916,2.916,0,0,0,24,7Zm1,20a3,3,0,0,1-3,3H10a3,3,0,0,1-3-3V10.012A.918.918,0,0,1,8,9H23.988A.919.919,0,0,1,25,10Z" style="fill:#6f7a7b"/><path d="M16,11a1,1,0,0,0-1,1V23a1,1,0,0,0,2,0V12A1,1,0,0,0,16,11Z" style="fill:#6f7a7b"/><path d="M6,5H26a1,1,0,0,0,0-2H17V1a1,1,0,0,0-2,0V3H6A1,1,0,0,0,6,5Z" style="fill:#6f7a7b"/><path d="M21,11a1,1,0,0,0-1,1V27a1,1,0,0,0,2,0V12A1,1,0,0,0,21,11Z" style="fill:#6f7a7b"/><path d="M11,11a1,1,0,0,0-1,1V27a1,1,0,0,0,2,0V12A1,1,0,0,0,11,11Z" style="fill:#6f7a7b"/><circle cx="16" cy="27" r="1" style="fill:#6f7a7b"/></g></svg>