<svg xmlns="http://www.w3.org/2000/svg" viewBox="0 0 32 32"><title>12-File</title><g id="_12-File" data-name="12-File"><path d="M28,4V28a3,3,0,0,1-3,3H7a3,3,0,0,1-3-3V7l6-6H25A3,3,0,0,1,28,4Z" style="fill:#c1c5c8"/><rect x="10" y="13" width="12" height="12" style="fill:#f2f2f2"/><path d="M25,0H10a1,1,0,0,0-.707.293l-6,6A1,1,0,0,0,3,7V28a4,4,0,0,0,4,4H25a4,4,0,0,0,4-4V4A4,4,0,0,0,25,0Zm2,28a2,2,0,0,1-2,2H7a2,2,0,0,1-2-2V7.414L10.414,2H25a2,2,0,0,1,2,2Z" style="fill:#6f7a7b"/><path d="M13,12H10a1,1,0,0,0-1,1v3a1,1,0,0,0,2,0V14h2a1,1,0,0,0,0-2Z" style="fill:#6f7a7b"/><path d="M22,12H19a1,1,0,0,0,0,2h2v2a1,1,0,0,0,2,0V13A1,1,0,0,0,22,12Z" style="fill:#6f7a7b"/><path d="M22,21a1,1,0,0,0-1,1v2H19a1,1,0,0,0,0,2h3a1,1,0,0,0,1-1V22A1,1,0,0,0,22,21Z" style="fill:#6f7a7b"/><path d="M13,24H11V22a1,1,0,0,0-2,0v3a1,1,0,0,0,1,1h3a1,1,0,0,0,0-2Z" style="fill:#6f7a7b"/><circle cx="16" cy="19" r="1" style="fill:#6f7a7b"/></g></svg>