<svg xmlns="http://www.w3.org/2000/svg" viewBox="0 0 32 32"><title>18-File</title><g id="_18-File" data-name="18-File"><path d="M28,4V28a3,3,0,0,1-3,3H7a3,3,0,0,1-3-3V7l6-6H25A3,3,0,0,1,28,4Z" style="fill:#c1c5c8"/><path d="M21,16v7H13a1.959,1.959,0,0,1-2-2V14h8A1.959,1.959,0,0,1,21,16Z" style="fill:#f2f2f2"/><path d="M25,0H10a1,1,0,0,0-.707.293l-6,6A1,1,0,0,0,3,7V28a4,4,0,0,0,4,4H25a4,4,0,0,0,4-4V4A4,4,0,0,0,25,0Zm2,28a2,2,0,0,1-2,2H7a2,2,0,0,1-2-2V7.414L10.414,2H25a2,2,0,0,1,2,2Z" style="fill:#6f7a7b"/><path d="M24,22H22V16a2.916,2.916,0,0,0-3-3H12V11a1,1,0,0,0-2,0v2H8a1,1,0,0,0,0,2h2v6a2.916,2.916,0,0,0,3,3h7v2a1,1,0,0,0,2,0V24h2a1,1,0,0,0,0-2ZM13.012,22A.919.919,0,0,1,12,21V15h6.988A.919.919,0,0,1,20,16v6Z" style="fill:#6f7a7b"/></g></svg>