<svg xmlns="http://www.w3.org/2000/svg" viewBox="0 0 32 32"><title>2-Pencil and Ruler</title><g id="_2-Pencil_and_Ruler" data-name="2-Pencil and Ruler"><path d="M18,3V6H14V3a2,2,0,0,1,4,0Z" style="fill:#c1c5c8"/><polygon points="18 24 18 27 16 31 14 27 14 24 14 16 14 6 18 6 18 16 18 24" style="fill:#f2f2f2"/><path d="M24,16h5a2.006,2.006,0,0,1,2,2v4a2.006,2.006,0,0,1-2,2H18V16Z" style="fill:#c1c5c8"/><path d="M8,16h6v8H3a2.006,2.006,0,0,1-2-2V18a2.006,2.006,0,0,1,2-2Z" style="fill:#c1c5c8"/><path d="M29,15H19V3a3,3,0,0,0-6,0V15H3a3,3,0,0,0-3,3v4a3,3,0,0,0,3,3H13v2a1,1,0,0,0,.105.447l2,4a1,1,0,0,0,1.79,0l2-4A1,1,0,0,0,19,27V25H29a3,3,0,0,0,3-3V18A3,3,0,0,0,29,15ZM16,2a1,1,0,0,1,1,1V5H15V3A1,1,0,0,1,16,2ZM3,23a1,1,0,0,1-1-1V18a1,1,0,0,1,1-1H7v3a1,1,0,0,0,2,0V17h4v6Zm14,3.764-1,2-1-2V7h2ZM30,22a1,1,0,0,1-1,1H19V17h4v3a1,1,0,0,0,2,0V17h4a1,1,0,0,1,1,1Z" style="fill:#6f7a7b"/></g></svg>