<svg xmlns="http://www.w3.org/2000/svg" viewBox="0 0 32 32"><title>22-Text Edit</title><g id="_22-Text_Edit" data-name="22-Text Edit"><rect x="25" y="1" width="6" height="6" rx="2" style="fill:#c1c5c8"/><rect x="1" y="25" width="6" height="6" rx="2" style="fill:#c1c5c8"/><rect x="25" y="25" width="6" height="6" rx="2" style="fill:#f2f2f2"/><rect x="1" y="1" width="6" height="6" rx="2" style="fill:#f2f2f2"/><circle cx="28" cy="12" r="1" style="fill:#6f7a7b"/><circle cx="28" cy="16" r="1" style="fill:#6f7a7b"/><circle cx="28" cy="20" r="1" style="fill:#6f7a7b"/><circle cx="20" cy="4" r="1" style="fill:#6f7a7b"/><circle cx="20" cy="29" r="1" style="fill:#6f7a7b"/><circle cx="16" cy="4" r="1" style="fill:#6f7a7b"/><circle cx="16" cy="29" r="1" style="fill:#6f7a7b"/><circle cx="12" cy="4" r="1" style="fill:#6f7a7b"/><circle cx="12" cy="29" r="1" style="fill:#6f7a7b"/><circle cx="4" cy="12" r="1" style="fill:#6f7a7b"/><circle cx="4" cy="16" r="1" style="fill:#6f7a7b"/><circle cx="4" cy="20" r="1" style="fill:#6f7a7b"/><path d="M5,0H3A3,3,0,0,0,0,3V5A3,3,0,0,0,3,8H5A3,3,0,0,0,8,5V3A3,3,0,0,0,5,0ZM6,5A1,1,0,0,1,5,6H3A1,1,0,0,1,2,5V3A1,1,0,0,1,3,2H5A1,1,0,0,1,6,3Z" style="fill:#6f7a7b"/><path d="M29,0H27a3,3,0,0,0-3,3V5a3,3,0,0,0,3,3h2a3,3,0,0,0,3-3V3A3,3,0,0,0,29,0Zm1,5a1,1,0,0,1-1,1H27a1,1,0,0,1-1-1V3a1,1,0,0,1,1-1h2a1,1,0,0,1,1,1Z" style="fill:#6f7a7b"/><path d="M29,24H27a3,3,0,0,0-3,3v2a3,3,0,0,0,3,3h2a3,3,0,0,0,3-3V27A3,3,0,0,0,29,24Zm1,5a1,1,0,0,1-1,1H27a1,1,0,0,1-1-1V27a1,1,0,0,1,1-1h2a1,1,0,0,1,1,1Z" style="fill:#6f7a7b"/><path d="M5,24H3a3,3,0,0,0-3,3v2a3,3,0,0,0,3,3H5a3,3,0,0,0,3-3V27A3,3,0,0,0,5,24Zm1,5a1,1,0,0,1-1,1H3a1,1,0,0,1-1-1V27a1,1,0,0,1,1-1H5a1,1,0,0,1,1,1Z" style="fill:#6f7a7b"/><path d="M22,10H10a1,1,0,0,0-1,1v2a1,1,0,0,0,2,0V12h4V23a1,1,0,0,0,2,0V12h4v1a1,1,0,0,0,2,0V11A1,1,0,0,0,22,10Z" style="fill:#6f7a7b"/></g></svg>