<svg xmlns="http://www.w3.org/2000/svg" viewBox="0 0 32 32"><title>23-Spray</title><g id="_23-Spray" data-name="23-Spray"><path d="M13,4V8H9V2a1,1,0,0,1,1-1h2a1,1,0,0,1,1,1Z" style="fill:#f2f2f2"/><polygon points="19 24 19 26 3 26 3 24 3 15 19 15 19 24" style="fill:#f2f2f2"/><polygon points="19 26 19 30 18 31 4 31 3 30 3 26 19 26" style="fill:#c1c5c8"/><path d="M19,14v1H3V14A6,6,0,0,1,9,8h4A6,6,0,0,1,19,14Z" style="fill:#c1c5c8"/><circle cx="29" cy="4" r="1" style="fill:#6f7a7b"/><circle cx="29" cy="8" r="1" style="fill:#6f7a7b"/><circle cx="29" cy="12" r="1" style="fill:#6f7a7b"/><circle cx="25" cy="2" r="1" style="fill:#6f7a7b"/><circle cx="25" cy="6" r="1" style="fill:#6f7a7b"/><circle cx="25" cy="10" r="1" style="fill:#6f7a7b"/><circle cx="25" cy="14" r="1" style="fill:#6f7a7b"/><circle cx="21" cy="4" r="1" style="fill:#6f7a7b"/><circle cx="21" cy="8" r="1" style="fill:#6f7a7b"/><path d="M14,7.08V5h3a1,1,0,0,0,0-2H14V2a2,2,0,0,0-2-2H10A2,2,0,0,0,8,2V7.08A7.006,7.006,0,0,0,2,14V30a1,1,0,0,0,.293.707l1,1A1,1,0,0,0,4,32H18a1,1,0,0,0,.707-.293l1-1A1,1,0,0,0,20,30V14A7.006,7.006,0,0,0,14,7.08ZM12,2V7H10V2Zm6,23H4V16H18Zm-.414,5H4.414L4,29.586V27H18v2.586ZM4,14A5.006,5.006,0,0,1,9,9h4a5.006,5.006,0,0,1,5,5Z" style="fill:#6f7a7b"/></g></svg>