<svg xmlns="http://www.w3.org/2000/svg" viewBox="0 0 32 32"><title>27-File</title><g id="_27-File" data-name="27-File"><path d="M28,4V28a3,3,0,0,1-3,3H7a3,3,0,0,1-3-3V7l6-6H25A3,3,0,0,1,28,4Z" style="fill:#c1c5c8"/><path d="M18,16a4,4,0,1,1-4,4h2a2.006,2.006,0,0,0,2-2Z" style="fill:#f2f2f2"/><path d="M18,16v2a2.006,2.006,0,0,1-2,2H14A4,4,0,0,1,18,16Z" style="fill:#f2f2f2"/><path d="M18,14v2a4,4,0,0,0-4,4H12a2.006,2.006,0,0,1-2-2V14a2.006,2.006,0,0,1,2-2h4A2.006,2.006,0,0,1,18,14Z" style="fill:#f2f2f2"/><path d="M25,0H10a1,1,0,0,0-.707.293l-6,6A1,1,0,0,0,3,7V28a4,4,0,0,0,4,4H25a4,4,0,0,0,4-4V4A4,4,0,0,0,25,0Zm2,28a2,2,0,0,1-2,2H7a2,2,0,0,1-2-2V7.414L10.414,2H25a2,2,0,0,1,2,2Z" style="fill:#6f7a7b"/><path d="M19,15.1V14a3,3,0,0,0-3-3H12a3,3,0,0,0-3,3v4a3,3,0,0,0,3,3h1.1A5,5,0,1,0,19,15.1ZM11,18V14a1,1,0,0,1,1-1h4a1,1,0,0,1,1,1v1.1A5.016,5.016,0,0,0,13.1,19H12A1,1,0,0,1,11,18Zm6-.816V18a1,1,0,0,1-1,1h-.816A3,3,0,0,1,17,17.184ZM18,23a3,3,0,0,1-2.816-2H16a3,3,0,0,0,3-3v-.816A2.993,2.993,0,0,1,18,23Z" style="fill:#6f7a7b"/></g></svg>