<svg xmlns="http://www.w3.org/2000/svg" viewBox="0 0 32 32"><title>28-File</title><g id="_28-File" data-name="28-File"><path d="M28,7V28a3,3,0,0,1-3,3H7a3,3,0,0,1-3-3V11l6-7h3V18l4-4,4,4V4h4A3,3,0,0,1,28,7Z" style="fill:#c1c5c8"/><polygon points="21 4 21 13 21 18 17 14 13 18 13 13 13 4 13 1 21 1 21 4" style="fill:#f2f2f2"/><path d="M25,3H22V1a1,1,0,0,0-1-1H13a1,1,0,0,0-1,1V3H10a1,1,0,0,0-.759.349l-6,7A1,1,0,0,0,3,11V28a4,4,0,0,0,4,4H25a4,4,0,0,0,4-4V7A4,4,0,0,0,25,3ZM14,2h6V15.586l-2.293-2.293a1,1,0,0,0-1.414,0L14,15.586ZM27,28a2,2,0,0,1-2,2H7a2,2,0,0,1-2-2V11.37L10.46,5H12V18a1,1,0,0,0,1.707.707L17,15.414l3.293,3.293A1,1,0,0,0,22,18V5h3a2,2,0,0,1,2,2Z" style="fill:#6f7a7b"/></g></svg>