<svg xmlns="http://www.w3.org/2000/svg" viewBox="0 0 32 32"><title>31-Layout</title><g id="_31-Layout" data-name="31-Layout"><path d="M28,19v9a3,3,0,0,1-3,3H12V19Z" style="fill:#f2f2f2"/><rect x="12" y="9" width="16" height="10" style="fill:#c1c5c8"/><path d="M12,19V31H7a3,3,0,0,1-3-3V9h8Z" style="fill:#c1c5c8"/><path d="M28,4V9H4V4A3,3,0,0,1,7,1H25A3,3,0,0,1,28,4Z" style="fill:#f2f2f2"/><path d="M25,0H7A4,4,0,0,0,3,4V28a4,4,0,0,0,4,4H25a4,4,0,0,0,4-4V4A4,4,0,0,0,25,0ZM13,10H27v8H13ZM7,2H25a2,2,0,0,1,2,2V8H5V4A2,2,0,0,1,7,2ZM5,28V10h6V30H7A2,2,0,0,1,5,28Zm20,2H13V20H27v8A2,2,0,0,1,25,30Z" style="fill:#6f7a7b"/></g></svg>