<svg xmlns="http://www.w3.org/2000/svg" viewBox="0 0 32 32"><title>33-Ink</title><g id="_33-Ink" data-name="33-Ink"><rect x="7" y="18" width="18" height="6" rx="1" style="fill:#f2f2f2"/><path d="M21,5V9H11V5a2.006,2.006,0,0,1,2-2h6A2.006,2.006,0,0,1,21,5Z" style="fill:#c1c5c8"/><path d="M24,10l1,3H7l1-3A1,1,0,0,1,9,9H23A1,1,0,0,1,24,10Z" style="fill:#f2f2f2"/><path d="M31,18v6a5,5,0,0,1-5,5H6a5,5,0,0,1-5-5V18a5,5,0,0,1,5-5H26A5,5,0,0,1,31,18Zm-6,5V19a1,1,0,0,0-1-1H8a1,1,0,0,0-1,1v4a1,1,0,0,0,1,1H24A1,1,0,0,0,25,23Z" style="fill:#c1c5c8"/><path d="M26,12h-.279l-.73-2.188A2,2,0,0,0,23,8H22V5a3,3,0,0,0-3-3H13a3,3,0,0,0-3,3V8H9A2,2,0,0,0,7.009,9.812L6.279,12H6a6.006,6.006,0,0,0-6,6v6a6.006,6.006,0,0,0,6,6H26a6.006,6.006,0,0,0,6-6V18A6.006,6.006,0,0,0,26,12ZM12,5a1,1,0,0,1,1-1h6a1,1,0,0,1,1,1V8H12ZM8.949,10.316A1,1,0,0,0,9,10H23a1,1,0,0,0,.051.316L23.612,12H8.388ZM30,24a4,4,0,0,1-4,4H6a4,4,0,0,1-4-4V18a4,4,0,0,1,4-4H26a4,4,0,0,1,4,4Z" style="fill:#6f7a7b"/><path d="M24,17H8a2,2,0,0,0-2,2v4a2,2,0,0,0,2,2H24a2,2,0,0,0,2-2V19A2,2,0,0,0,24,17Zm0,6L8,23V19H24Z" style="fill:#6f7a7b"/></g></svg>