<svg xmlns="http://www.w3.org/2000/svg" viewBox="0 0 32 32"><title>34-Marker</title><g id="_34-Marker" data-name="34-Marker"><polygon points="14 25 14 31 12 31 10 29 10 25 14 25" style="fill:#c1c5c8"/><polygon points="18 18 14 25 10 25 6 18 14 18 18 18" style="fill:#f2f2f2"/><rect x="10" y="4" width="4" height="10" style="fill:#f2f2f2"/><path d="M10,4V14h4V4ZM6,1H18V18H6Z" style="fill:#c1c5c8"/><circle cx="25" cy="31" r="1" style="fill:#6f7a7b"/><path d="M18.868,18.5A1,1,0,0,0,19,18V1a1,1,0,0,0-2,0V17.734L13.42,24H10.58L7.723,19H14a1,1,0,0,0,0-2H7V1A1,1,0,0,0,5,1V18a1.008,1.008,0,0,0,.069.343c.011.029.021.055.034.083s.016.048.029.07L9,25.265V29a1,1,0,0,0,.293.707l2,2A1,1,0,0,0,12,32h2a1,1,0,0,0,1-1V25.265ZM12.414,30,11,28.586V26h2v4Z" style="fill:#6f7a7b"/><path d="M10,15h4a1,1,0,0,0,1-1V4a1,1,0,0,0-1-1H10A1,1,0,0,0,9,4V14A1,1,0,0,0,10,15ZM11,5h2v8H11Z" style="fill:#6f7a7b"/><path d="M22,30H18a1,1,0,0,0,0,2h4a1,1,0,0,0,0-2Z" style="fill:#6f7a7b"/></g></svg>