<svg xmlns="http://www.w3.org/2000/svg" viewBox="0 0 32 32"><title>36-Idea</title><g id="_36-Idea" data-name="36-Idea"><path d="M27,12c0,4.88-3.61,8.56-8,10v4H13V22c-4.39-1.44-8-5.12-8-10a11,11,0,0,1,22,0Z" style="fill:#c1c5c8"/><path d="M19,28H13a1,1,0,0,0,0,2h2v1a1,1,0,0,0,2,0V30h2a1,1,0,0,0,0-2Z" style="fill:#6f7a7b"/><path d="M28,12A12,12,0,0,0,4,12c0,4.7,3.116,8.837,8,10.706V25H11a1,1,0,0,0,0,2H21a1,1,0,0,0,0-2H20V22.706C24.884,20.837,28,16.7,28,12ZM14,25V22a1,1,0,0,0-.688-.95C8.87,19.593,6,16.04,6,12a10,10,0,0,1,20,0c0,4.04-2.87,7.593-7.312,9.05A1,1,0,0,0,18,22v3Z" style="fill:#6f7a7b"/><path d="M16,5a7.009,7.009,0,0,0-7,7,1,1,0,0,0,2,0,5.006,5.006,0,0,1,5-5,1,1,0,0,0,0-2Z" style="fill:#6f7a7b"/><circle cx="11" cy="15" r="1" style="fill:#6f7a7b"/></g></svg>