<svg xmlns="http://www.w3.org/2000/svg" viewBox="0 0 32 32"><title>38-Folder</title><g id="_38-Folder" data-name="38-Folder"><path d="M31,10V27a4,4,0,0,1-4,4H5a4,4,0,0,1-4-4V10A4,4,0,0,1,5,6H4V3A1.959,1.959,0,0,1,6,1H18l5,5h4A4,4,0,0,1,31,10Z" style="fill:#c1c5c8"/><path d="M18,1H6A1.959,1.959,0,0,0,4,3V6H23Z" style="fill:#f2f2f2"/><path d="M18,17a4,4,0,1,1-4,4h2a2.006,2.006,0,0,0,2-2Z" style="fill:#f2f2f2"/><path d="M18,17v2a2.006,2.006,0,0,1-2,2H14A4,4,0,0,1,18,17Z" style="fill:#f2f2f2"/><path d="M18,15v2a4,4,0,0,0-4,4H12a2.006,2.006,0,0,1-2-2V15a2.006,2.006,0,0,1,2-2h4A2.006,2.006,0,0,1,18,15Z" style="fill:#f2f2f2"/><path d="M27,5H23.414L18.707.293A1,1,0,0,0,18,0H6A2.916,2.916,0,0,0,3,3V5.418A5,5,0,0,0,0,10V27a5.006,5.006,0,0,0,5,5H27a5.006,5.006,0,0,0,5-5V10A5.006,5.006,0,0,0,27,5Zm3,22a3,3,0,0,1-3,3H5a3,3,0,0,1-3-3V10A3,3,0,0,1,5,7H16a1,1,0,0,0,0-2H5V3.012A.919.919,0,0,1,6,2H17.586l4.707,4.707A1,1,0,0,0,23,7h4a3,3,0,0,1,3,3Z" style="fill:#6f7a7b"/><path d="M19,16.1V15a3,3,0,0,0-3-3H12a3,3,0,0,0-3,3v4a3,3,0,0,0,3,3h1.1A5,5,0,1,0,19,16.1ZM11,19V15a1,1,0,0,1,1-1h4a1,1,0,0,1,1,1v1.1A5.016,5.016,0,0,0,13.1,20H12A1,1,0,0,1,11,19Zm6-.816V19a1,1,0,0,1-1,1h-.816A3,3,0,0,1,17,18.184ZM18,24a3,3,0,0,1-2.816-2H16a3,3,0,0,0,3-3v-.816A2.993,2.993,0,0,1,18,24Z" style="fill:#6f7a7b"/></g></svg>