<svg xmlns="http://www.w3.org/2000/svg" viewBox="0 0 32 32"><title>40-Printer</title><g id="_40-Printer" data-name="40-Printer"><path d="M23,23v5a2.006,2.006,0,0,1-2,2H14L9,25V16H23Z" style="fill:#f2f2f2"/><path d="M23,4V8H9V4a.979.979,0,0,1,1-1H22A.979.979,0,0,1,23,4Z" style="fill:#f2f2f2"/><path d="M25,11a1,1,0,1,0,1,1A1,1,0,0,0,25,11ZM23,8h5a3,3,0,0,1,3,3v9a3,3,0,0,1-3,3H23V16H9v7H4a3,3,0,0,1-3-3V11A3,3,0,0,1,4,8H23Z" style="fill:#c1c5c8"/><circle cx="25" cy="12" r="1" style="fill:#6f7a7b"/><path d="M28,7H24V4a1.959,1.959,0,0,0-2-2H10A1.959,1.959,0,0,0,8,4V7H4a4,4,0,0,0-4,4v9a4,4,0,0,0,4,4H8v1a1,1,0,0,0,.293.707l5,5A1,1,0,0,0,14,31h7a3,3,0,0,0,3-3V24h4a4,4,0,0,0,4-4V11A4,4,0,0,0,28,7ZM10,4H22V7H10ZM22,28a1,1,0,0,1-1,1H14.414L10,24.586V17H22Zm8-8a2,2,0,0,1-2,2H24V17h1a1,1,0,0,0,0-2H7a1,1,0,0,0,0,2H8v5H4a2,2,0,0,1-2-2V11A2,2,0,0,1,4,9H28a2,2,0,0,1,2,2Z" style="fill:#6f7a7b"/><path d="M9,11H7a1,1,0,0,0,0,2H9a1,1,0,0,0,0-2Z" style="fill:#6f7a7b"/><path d="M19,19H13a1,1,0,0,0,0,2h6a1,1,0,0,0,0-2Z" style="fill:#6f7a7b"/><path d="M19,23H16a1,1,0,0,0,0,2h3a1,1,0,0,0,0-2Z" style="fill:#6f7a7b"/></g></svg>