<svg xmlns="http://www.w3.org/2000/svg" viewBox="0 0 32 32"><title>43-Area</title><g id="_43-Area" data-name="43-Area"><polygon points="23 17 19 19 17 23 14 14 23 17" style="fill:#c1c5c8"/><rect x="25" y="1" width="6" height="6" rx="2" style="fill:#f2f2f2"/><rect x="25" y="25" width="6" height="6" rx="2" style="fill:#c1c5c8"/><rect x="1" y="25" width="6" height="6" rx="2" style="fill:#f2f2f2"/><rect x="1" y="1" width="6" height="6" rx="2" style="fill:#c1c5c8"/><circle cx="28" cy="12" r="1" style="fill:#6f7a7b"/><circle cx="28" cy="16" r="1" style="fill:#6f7a7b"/><circle cx="28" cy="20" r="1" style="fill:#6f7a7b"/><circle cx="20" cy="4" r="1" style="fill:#6f7a7b"/><circle cx="20" cy="29" r="1" style="fill:#6f7a7b"/><circle cx="16" cy="4" r="1" style="fill:#6f7a7b"/><circle cx="16" cy="29" r="1" style="fill:#6f7a7b"/><circle cx="12" cy="4" r="1" style="fill:#6f7a7b"/><circle cx="12" cy="29" r="1" style="fill:#6f7a7b"/><circle cx="4" cy="12" r="1" style="fill:#6f7a7b"/><circle cx="4" cy="16" r="1" style="fill:#6f7a7b"/><circle cx="4" cy="20" r="1" style="fill:#6f7a7b"/><path d="M5,8H3A3,3,0,0,1,0,5V3A3,3,0,0,1,3,0H5A3,3,0,0,1,8,3V5A3,3,0,0,1,5,8ZM3,2A1,1,0,0,0,2,3V5A1,1,0,0,0,3,6H5A1,1,0,0,0,6,5V3A1,1,0,0,0,5,2Z" style="fill:#6f7a7b"/><path d="M29,8H27a3,3,0,0,1-3-3V3a3,3,0,0,1,3-3h2a3,3,0,0,1,3,3V5A3,3,0,0,1,29,8ZM27,2a1,1,0,0,0-1,1V5a1,1,0,0,0,1,1h2a1,1,0,0,0,1-1V3a1,1,0,0,0-1-1Z" style="fill:#6f7a7b"/><path d="M29,32H27a3,3,0,0,1-3-3V27a3,3,0,0,1,3-3h2a3,3,0,0,1,3,3v2A3,3,0,0,1,29,32Zm-2-6a1,1,0,0,0-1,1v2a1,1,0,0,0,1,1h2a1,1,0,0,0,1-1V27a1,1,0,0,0-1-1Z" style="fill:#6f7a7b"/><path d="M5,32H3a3,3,0,0,1-3-3V27a3,3,0,0,1,3-3H5a3,3,0,0,1,3,3v2A3,3,0,0,1,5,32ZM3,26a1,1,0,0,0-1,1v2a1,1,0,0,0,1,1H5a1,1,0,0,0,1-1V27a1,1,0,0,0-1-1Z" style="fill:#6f7a7b"/><path d="M17,24l-.071,0a1,1,0,0,1-.878-.681l-3-9a1,1,0,0,1,1.265-1.264l9,3a1,1,0,0,1,.131,1.843l-3.7,1.85-1.85,3.7A1,1,0,0,1,17,24Zm-1.419-8.419,1.6,4.813.92-1.841a1,1,0,0,1,.448-.448l1.841-.919Z" style="fill:#6f7a7b"/></g></svg>