<svg xmlns="http://www.w3.org/2000/svg" viewBox="0 0 32 32"><title>5-Picture</title><g id="_5-Picture" data-name="5-Picture"><circle cx="22" cy="9" r="3" style="fill:#f2f2f2"/><path d="M31,6V25l-6-6-4,4-9-9L1,25V6A5,5,0,0,1,6,1H26A5,5,0,0,1,31,6ZM25,9a3,3,0,1,0-3,3A3,3,0,0,0,25,9Z" style="fill:#c1c5c8"/><path d="M31,25v1a5,5,0,0,1-5,5H6a5,5,0,0,1-5-5V25L12,14l9,9,4-4Z" style="fill:#f2f2f2"/><path d="M26,0H6A6.006,6.006,0,0,0,0,6V26a6.006,6.006,0,0,0,6,6H26a6.006,6.006,0,0,0,6-6V6A6.006,6.006,0,0,0,26,0ZM6,2H26a4,4,0,0,1,4,4V22.586l-4.293-4.293a1,1,0,0,0-1.414,0L21,21.586l-8.293-8.293a1,1,0,0,0-1.414,0L2,22.586V6A4,4,0,0,1,6,2ZM26,30H6a4,4,0,0,1-4-4v-.586l10-10,8.293,8.293a1,1,0,0,0,1.414,0L25,20.414l5,5V26A4,4,0,0,1,26,30Z" style="fill:#6f7a7b"/><path d="M22,13a4,4,0,1,0-4-4A4,4,0,0,0,22,13Zm0-6a2,2,0,1,1-2,2A2,2,0,0,1,22,7Z" style="fill:#6f7a7b"/></g></svg>