<svg xmlns="http://www.w3.org/2000/svg" viewBox="0 0 32 32"><title>51-Editor</title><g id="_51-Editor" data-name="51-Editor"><path d="M15,24v4a3,3,0,0,1-3,3H8Z" style="fill:#f2f2f2"/><path d="M14.64,18.57,14,19,3,30l-.12.12A2.993,2.993,0,0,1,2,28V25l8-8h2A3,3,0,0,1,14.64,18.57Z" style="fill:#f2f2f2"/><path d="M15,20v4L8,31H5a2.993,2.993,0,0,1-2.12-.88L3,30,14,19l.64-.43A2.974,2.974,0,0,1,15,20Z" style="fill:#c1c5c8"/><path d="M10,17,2,25V20a3,3,0,0,1,3-3Z" style="fill:#c1c5c8"/><circle cx="30" cy="1" r="1" style="fill:#6f7a7b"/><circle cx="30" cy="5" r="1" style="fill:#6f7a7b"/><circle cx="30" cy="9" r="1" style="fill:#6f7a7b"/><circle cx="30" cy="13" r="1" style="fill:#6f7a7b"/><circle cx="30" cy="17" r="1" style="fill:#6f7a7b"/><circle cx="30" cy="21" r="1" style="fill:#6f7a7b"/><circle cx="30" cy="25" r="1" style="fill:#6f7a7b"/><circle cx="30" cy="29" r="1" style="fill:#6f7a7b"/><circle cx="26" cy="1" r="1" style="fill:#6f7a7b"/><circle cx="26" cy="29" r="1" style="fill:#6f7a7b"/><circle cx="22" cy="1" r="1" style="fill:#6f7a7b"/><circle cx="22" cy="29" r="1" style="fill:#6f7a7b"/><circle cx="18" cy="1" r="1" style="fill:#6f7a7b"/><circle cx="18" cy="29" r="1" style="fill:#6f7a7b"/><circle cx="14" cy="1" r="1" style="fill:#6f7a7b"/><circle cx="10" cy="1" r="1" style="fill:#6f7a7b"/><circle cx="6" cy="1" r="1" style="fill:#6f7a7b"/><circle cx="2" cy="1" r="1" style="fill:#6f7a7b"/><circle cx="2" cy="5" r="1" style="fill:#6f7a7b"/><circle cx="2" cy="9" r="1" style="fill:#6f7a7b"/><circle cx="2" cy="13" r="1" style="fill:#6f7a7b"/><path d="M12,16H5a4,4,0,0,0-4,4v8a4,4,0,0,0,4,4h7a4,4,0,0,0,4-4V20a3.994,3.994,0,0,0-4-4Zm1.181,2.405L3.075,28.511A1.985,1.985,0,0,1,3,28V25.414L10.414,18H12A1.989,1.989,0,0,1,13.181,18.405ZM5,18H7.586L3,22.586V20A2,2,0,0,1,5,18ZM4.489,29.925,14,20.414v3.172L7.586,30H5A1.979,1.979,0,0,1,4.489,29.925ZM12,30H10.414L14,26.414V28A2,2,0,0,1,12,30Z" style="fill:#6f7a7b"/><path d="M26,9V7a1.959,1.959,0,0,0-2-2H22a1,1,0,0,0,0,2h.586L18,11.586V11a1,1,0,0,0-2,0v2a1.959,1.959,0,0,0,2,2h2a1,1,0,0,0,0-2h-.586L24,8.414V9a1,1,0,0,0,2,0Z" style="fill:#6f7a7b"/></g></svg>