<svg xmlns="http://www.w3.org/2000/svg" viewBox="0 0 32 32"><title>54-Editor</title><g id="_54-Editor" data-name="54-Editor"><rect x="1" y="2" width="30" height="28" rx="3" style="fill:#f2f2f2"/><path d="M31,5a3,3,0,0,0-3-3H4A3,3,0,0,0,1,5V9H31Z" style="fill:#c1c5c8"/><path d="M28,1H4A4,4,0,0,0,0,5V27a4,4,0,0,0,4,4H28a4,4,0,0,0,4-4V5A4,4,0,0,0,28,1Zm2,26a2,2,0,0,1-2,2H4a2,2,0,0,1-2-2V5A2,2,0,0,1,4,3H28a2,2,0,0,1,2,2Z" style="fill:#6f7a7b"/><circle cx="5" cy="6" r="1" style="fill:#6f7a7b"/><circle cx="9" cy="6" r="1" style="fill:#6f7a7b"/><circle cx="27" cy="6" r="1" style="fill:#6f7a7b"/><path d="M8,13H18a1,1,0,0,0,0-2H8a1,1,0,0,0,0,2Z" style="fill:#6f7a7b"/><path d="M8,17h5a1,1,0,0,0,0-2H8a1,1,0,0,0,0,2Z" style="fill:#6f7a7b"/><path d="M8,21h5a1,1,0,0,0,0-2H8a1,1,0,0,0,0,2Z" style="fill:#6f7a7b"/><path d="M18,23H8a1,1,0,0,0,0,2H18a1,1,0,0,0,0-2Z" style="fill:#6f7a7b"/><path d="M24,17H19.414l.293-.293a1,1,0,0,0-1.414-1.414l-2,2a.99.99,0,0,0-.217.326,1,1,0,0,0,0,.764.99.99,0,0,0,.217.326l2,2a1,1,0,0,0,1.414-1.414L19.414,19H24a1,1,0,0,0,0-2Z" style="fill:#6f7a7b"/></g></svg>