<svg xmlns="http://www.w3.org/2000/svg" viewBox="0 0 32 32"><title>55-Image</title><g id="_55-Image" data-name="55-Image"><circle cx="15.5" cy="7.5" r="2.5" style="fill:#c1c5c8"/><path d="M23,5V19l-4-4-3,3-5-5L3,21l-1.32.23A3.992,3.992,0,0,1,1,19V5A4,4,0,0,1,5,1H19A4,4,0,0,1,23,5ZM18,7.5A2.5,2.5,0,1,0,15.5,10,2.5,2.5,0,0,0,18,7.5Z" style="fill:#f2f2f2"/><path d="M19,15l4,4a4,4,0,0,1-4,4H5a4,4,0,0,1-3.32-1.77L3,21l8-8,5,5Z" style="fill:#c1c5c8"/><path d="M19,0H5A5.006,5.006,0,0,0,0,5V19a5,5,0,0,0,5,5H19a5.006,5.006,0,0,0,5-5V5A5.006,5.006,0,0,0,19,0ZM2,5A3,3,0,0,1,5,2H19a3,3,0,0,1,3,3V16.586l-2.293-2.293a1,1,0,0,0-1.414,0L16,16.586l-4.293-4.293a1,1,0,0,0-1.414,0l-8,8A3,3,0,0,1,2,19ZM19,22H5a2.98,2.98,0,0,1-1.283-.3L11,14.414l4.293,4.293a1,1,0,0,0,1.414,0L19,16.414l2.962,2.962A2.994,2.994,0,0,1,19,22Z" style="fill:#6f7a7b"/><path d="M30.293,16.293,30,16.586V9.414l.293.293a1,1,0,0,0,1.414-1.414l-2-2a1,1,0,0,0-1.416,0l-2,2a1,1,0,0,0,1.414,1.414L28,9.414v7.172l-.293-.293a1,1,0,0,0-1.414,1.414l2,2a1,1,0,0,0,1.414,0l2-2a1,1,0,0,0-1.414-1.414Z" style="fill:#6f7a7b"/><path d="M18.923,28.618a.99.99,0,0,0-.217-.326l-2-2a1,1,0,0,0-1.414,1.414l.293.293H8.414l.293-.293a1,1,0,0,0-1.414-1.414l-2,2a1,1,0,0,0,0,1.414l2,2a1,1,0,0,0,1.414-1.414L8.414,30h7.172l-.293.293a1,1,0,1,0,1.414,1.414l2-2a.99.99,0,0,0,.217-.326A1,1,0,0,0,18.923,28.618Z" style="fill:#6f7a7b"/><path d="M15.5,11A3.5,3.5,0,1,0,12,7.5,3.5,3.5,0,0,0,15.5,11Zm0-5A1.5,1.5,0,1,1,14,7.5,1.5,1.5,0,0,1,15.5,6Z" style="fill:#6f7a7b"/></g></svg>