<svg xmlns="http://www.w3.org/2000/svg" viewBox="0 0 32 32"><title>56-Shadow</title><g id="_56-Shadow" data-name="56-Shadow"><path d="M16,22h7.99A9.957,9.957,0,0,1,16,26Z" style="fill:#f2f2f2"/><path d="M16,16H26a9.74,9.74,0,0,1-.52,3.16L25,19H16Z" style="fill:#f2f2f2"/><path d="M25.48,12.84,25,13H16V10h8A9.614,9.614,0,0,1,25.48,12.84Z" style="fill:#f2f2f2"/><path d="M16,22v4a9.957,9.957,0,0,0,7.99-4H24a9.614,9.614,0,0,0,1.48-2.84,9.862,9.862,0,0,0,0-6.32A9.614,9.614,0,0,0,24,10h-.01A9.957,9.957,0,0,0,16,6V22ZM16,1A15,15,0,1,1,1,16,15.005,15.005,0,0,1,16,1Z" style="fill:#f2f2f2"/><path d="M25,19l.48.16A9.614,9.614,0,0,1,24,22H16V19Z" style="fill:#c1c5c8"/><path d="M25,13l.48-.16A9.74,9.74,0,0,1,26,16H16V13Z" style="fill:#c1c5c8"/><path d="M23.99,10H16V6A9.957,9.957,0,0,1,23.99,10Z" style="fill:#c1c5c8"/><path d="M16,0A16,16,0,1,0,32,16,16.019,16.019,0,0,0,16,0Zm0,30A14,14,0,1,1,30,16,14.015,14.015,0,0,1,16,30Z" style="fill:#6f7a7b"/><path d="M26.432,12.535A10.573,10.573,0,0,0,24.8,9.4c-.011-.014-.028-.021-.04-.034A10.887,10.887,0,0,0,16,5a1,1,0,0,0,0,2,8.9,8.9,0,0,1,5.648,2H16a1,1,0,0,0,0,2h7.453a8.758,8.758,0,0,1,.6,1H16a1,1,0,0,0,0,2h8.769a8.768,8.768,0,0,1,.169,1H16a1,1,0,0,0,0,2h8.937a8.661,8.661,0,0,1-.169,1H16a1,1,0,0,0,0,2h8.058a8.806,8.806,0,0,1-.581,1H16a1,1,0,0,0,0,2h5.648A8.9,8.9,0,0,1,16,25a1,1,0,0,0,0,2,10.883,10.883,0,0,0,8.693-4.285.337.337,0,0,0,.03-.036c.014-.017.03-.033.043-.051s.024-.015.033-.026a10.548,10.548,0,0,0,1.627-3.118,10.857,10.857,0,0,0,.006-6.949Z" style="fill:#6f7a7b"/></g></svg>