<svg xmlns="http://www.w3.org/2000/svg" viewBox="0 0 32 32"><title>57-Folder</title><g id="_57-Folder" data-name="57-Folder"><path d="M22,15a2,2,0,0,1,0,4H20v6a2,2,0,0,1-4,0V19H14a2,2,0,0,1,0-4Z" style="fill:#f2f2f2"/><path d="M31,10v4a2.938,2.938,0,0,0-3-3H8a2.938,2.938,0,0,0-3,3V31a4,4,0,0,1-4-4V10A4,4,0,0,1,5,6H4V3A1.959,1.959,0,0,1,6,1H18l5,5h4A4,4,0,0,1,31,10Z" style="fill:#f2f2f2"/><path d="M31,14V27a4,4,0,0,1-4,4H5V14a2.938,2.938,0,0,1,3-3H28A2.938,2.938,0,0,1,31,14Zm-7,3a2.006,2.006,0,0,0-2-2H14a2,2,0,0,0,0,4h2v6a2,2,0,0,0,4,0V19h2A2.006,2.006,0,0,0,24,17Z" style="fill:#c1c5c8"/><path d="M18,1H6A1.959,1.959,0,0,0,4,3V6H23Z" style="fill:#c1c5c8"/><path d="M27,5H23.414L18.707.293A1,1,0,0,0,18,0H6A2.916,2.916,0,0,0,3,3V5.418A5,5,0,0,0,0,10V27a5.006,5.006,0,0,0,5,5H27a5.006,5.006,0,0,0,5-5V10A5.006,5.006,0,0,0,27,5ZM2,27V10A3,3,0,0,1,5,7H16a1,1,0,0,0,0-2H5V3.012A.919.919,0,0,1,6,2H17.586l4.707,4.707A1,1,0,0,0,23,7h4a3,3,0,0,1,3,3v.51A4.365,4.365,0,0,0,28,10H8a3.888,3.888,0,0,0-4,4V29.816A3,3,0,0,1,2,27Zm28,0a3,3,0,0,1-3,3H6V14a1.882,1.882,0,0,1,2-2H28a1.883,1.883,0,0,1,2,2Z" style="fill:#6f7a7b"/><path d="M22,14H14a3,3,0,0,0,0,6h1v5a3,3,0,0,0,6,0V20h1a3,3,0,0,0,0-6Zm0,4H20a1,1,0,0,0-1,1v6a1,1,0,0,1-2,0V19a1,1,0,0,0-1-1H14a1,1,0,0,1,0-2h8a1,1,0,0,1,0,2Z" style="fill:#6f7a7b"/></g></svg>