<svg xmlns="http://www.w3.org/2000/svg" viewBox="0 0 32 32"><title>59-Ink</title><g id="_59-Ink" data-name="59-Ink"><path d="M19,9V26a3,3,0,0,1-6,0V9Z" style="fill:#c1c5c8"/><path d="M18,3V5H14V3a2,2,0,0,1,4,0Z" style="fill:#c1c5c8"/><path d="M21,5a2,2,0,0,1,0,4H11a2,2,0,0,1,0-4H21Z" style="fill:#f2f2f2"/><path d="M21,4H19V3a3,3,0,0,0-6,0V4H11a3,3,0,0,0,0,6h1V26a4,4,0,0,0,3,3.858V31a1,1,0,0,0,2,0V29.858A4,4,0,0,0,20,26V10h1a3,3,0,0,0,0-6ZM15,3a1,1,0,0,1,2,0V4H15Zm3,23a2,2,0,0,1-4,0V10h4ZM21,8H11a1,1,0,0,1,0-2H21a1,1,0,0,1,0,2Z" style="fill:#6f7a7b"/></g></svg>