<svg xmlns="http://www.w3.org/2000/svg" viewBox="0 0 32 32"><title>6-File</title><g id="_6-File" data-name="6-File"><circle cx="20" cy="10" r="3" style="fill:#f2f2f2"/><path d="M28,4V25l-4-4-4,4-8-8L4,25V7l6-6H25A3,3,0,0,1,28,4Zm-5,6a3,3,0,1,0-3,3A3,3,0,0,0,23,10Z" style="fill:#c1c5c8"/><path d="M28,25v3a3,3,0,0,1-3,3H7a3,3,0,0,1-3-3V25l8-8,8,8,4-4Z" style="fill:#f2f2f2"/><path d="M25,0H10a1,1,0,0,0-.707.293l-6,6A1,1,0,0,0,3,7V28a4,4,0,0,0,4,4H25a4,4,0,0,0,4-4V4A4,4,0,0,0,25,0ZM10.414,2H25a2,2,0,0,1,2,2V22.586l-2.293-2.293a1,1,0,0,0-1.414,0L20,23.586l-7.293-7.293a1,1,0,0,0-1.414,0L5,22.586V7.414ZM25,30H7a2,2,0,0,1-2-2V25.414l7-7,7.293,7.293a1,1,0,0,0,1.414,0L24,22.414l3,3V28A2,2,0,0,1,25,30Z" style="fill:#6f7a7b"/><path d="M20,14a4,4,0,1,0-4-4A4,4,0,0,0,20,14Zm0-6a2,2,0,1,1-2,2A2,2,0,0,1,20,8Z" style="fill:#6f7a7b"/></g></svg>