<svg xmlns="http://www.w3.org/2000/svg" viewBox="0 0 32 32"><title>60-Edit</title><g id="_60-Edit" data-name="60-Edit"><rect x="18" y="2" width="12" height="28" style="fill:#f2f2f2"/><path d="M18,1V31H7a5,5,0,0,1-5-5V6A5,5,0,0,1,7,1Z" style="fill:#c1c5c8"/><path d="M14,32H7a6.006,6.006,0,0,1-6-6V6A6.006,6.006,0,0,1,7,0h7a1,1,0,0,1,0,2H7A4,4,0,0,0,3,6V26a4,4,0,0,0,4,4h7a1,1,0,0,1,0,2Z" style="fill:#6f7a7b"/><path d="M18,32a1,1,0,0,1-1-1V1a1,1,0,0,1,2,0V31A1,1,0,0,1,18,32Z" style="fill:#6f7a7b"/><circle cx="22" cy="2" r="1" style="fill:#6f7a7b"/><circle cx="26" cy="2" r="1" style="fill:#6f7a7b"/><circle cx="30" cy="2" r="1" style="fill:#6f7a7b"/><circle cx="30" cy="6" r="1" style="fill:#6f7a7b"/><circle cx="30" cy="10" r="1" style="fill:#6f7a7b"/><circle cx="30" cy="14" r="1" style="fill:#6f7a7b"/><circle cx="30" cy="18" r="1" style="fill:#6f7a7b"/><circle cx="30" cy="22" r="1" style="fill:#6f7a7b"/><circle cx="30" cy="26" r="1" style="fill:#6f7a7b"/><circle cx="30" cy="30" r="1" style="fill:#6f7a7b"/><circle cx="26" cy="30" r="1" style="fill:#6f7a7b"/><circle cx="22" cy="30" r="1" style="fill:#6f7a7b"/></g></svg>