<svg xmlns="http://www.w3.org/2000/svg" viewBox="0 0 32 32"><title>8-Artwork</title><g id="_8-Artwork" data-name="8-Artwork"><path d="M22,15l4,4a3,3,0,0,1-3,3H9a3,3,0,0,1-3-3l7-7,6,6Z" style="fill:#f2f2f2"/><circle cx="18" cy="8" r="2" style="fill:#f2f2f2"/><path d="M25,4l1,15-4-4-3,3-6-6L6,19,7,4a3,3,0,0,1,3-3H22A3,3,0,0,1,25,4ZM20,8a2,2,0,1,0-2,2A2.006,2.006,0,0,0,20,8Z" style="fill:#c1c5c8"/><path d="M9,23H23a4,4,0,0,0,3.982-3.908,1.024,1.024,0,0,0,.012-.123c0-.012,0-.023,0-.035L26,4a4,4,0,0,0-4-4H10A3.988,3.988,0,0,0,6,3.934l-1,15c0,.022,0,.044,0,.066A4,4,0,0,0,9,23Zm14-2H9a2,2,0,0,1-1.96-1.626L13,13.414l5.293,5.293a1,1,0,0,0,1.414,0L22,16.414l2.962,2.962A2,2,0,0,1,23,21ZM10,2H22a2.02,2.02,0,0,1,2,2.066l.825,12.347-2.12-2.12a1,1,0,0,0-1.414,0L19,16.586l-5.293-5.293a1,1,0,0,0-1.414,0L7.174,16.412,8,4A2,2,0,0,1,10,2Z" style="fill:#6f7a7b"/><path d="M26,25H6a1,1,0,0,0,0,2h4.586L7.293,30.293a1,1,0,1,0,1.414,1.414L13.414,27H15v4a1,1,0,0,0,2,0V27h1.586l4.707,4.707a1,1,0,0,0,1.414-1.414L21.414,27H26a1,1,0,0,0,0-2Z" style="fill:#6f7a7b"/><path d="M18,11a3,3,0,1,0-3-3A3,3,0,0,0,18,11Zm0-4a1,1,0,1,1-1,1A1,1,0,0,1,18,7Z" style="fill:#6f7a7b"/></g></svg>