<?xml version="1.0" encoding="UTF-8"?><svg xmlns="http://www.w3.org/2000/svg" viewBox="0 0 24 24"><g id="a"/><g id="b"/><g id="c"/><g id="d"/><g id="e"/><g id="f"/><g id="g"/><g id="h"/><g id="i"/><g id="j"/><g id="k"/><g id="l"/><g id="m"/><g id="n"/><g id="o"/><g id="p"/><g id="q"/><g id="r"/><g id="s"><path d="M16,2.25H8c-2.07,0-3.75,1.68-3.75,3.75v14.06c0,.66,.36,1.25,.95,1.56,.25,.13,.53,.2,.8,.2,.36,0,.71-.11,1.02-.33l4.26-3.04c.43-.31,1.02-.31,1.45,0l4.26,3.04c.54,.38,1.23,.43,1.82,.13,.59-.3,.95-.9,.95-1.56V6c0-2.07-1.68-3.75-3.75-3.75Zm2.25,17.81c0,.13-.08,.2-.14,.22-.05,.03-.15,.06-.26-.02l-4.26-3.04c-.96-.68-2.24-.68-3.2,0l-4.26,3.04c-.11,.08-.21,.04-.26,.02-.05-.03-.14-.09-.14-.22V6c0-1.24,1.01-2.25,2.25-2.25h8c1.24,0,2.25,1.01,2.25,2.25v14.06Z"/></g><g id="t"/><g id="u"/></svg>