<?xml version="1.0" encoding="UTF-8"?><svg xmlns="http://www.w3.org/2000/svg" viewBox="0 0 24 24"><g id="a"/><g id="b"/><g id="c"/><g id="d"/><g id="e"/><g id="f"/><g id="g"/><g id="h"/><g id="i"/><g id="j"/><g id="k"/><g id="l"/><g id="m"/><g id="n"/><g id="o"/><g id="p"><g><path d="M17,2.25H7c-2.62,0-4.75,2.13-4.75,4.75v10c0,2.62,2.13,4.75,4.75,4.75h10c2.62,0,4.75-2.13,4.75-4.75V7c0-2.62-2.13-4.75-4.75-4.75Zm3.25,4.75v4.25h-7.5V3.75h4.25c1.79,0,3.25,1.46,3.25,3.25ZM7,3.75h4.25v7.5H3.75V7c0-1.79,1.46-3.25,3.25-3.25Zm-3.25,13.25v-4.25h7.5v7.5H7c-1.79,0-3.25-1.46-3.25-3.25Zm13.25,3.25h-4.25v-7.5h7.5v4.25c0,1.79-1.46,3.25-3.25,3.25Z"/><path d="M5.5,8.25h1.25v1.25c0,.41,.34,.75,.75,.75s.75-.34,.75-.75v-1.25h1.25c.41,0,.75-.34,.75-.75s-.34-.75-.75-.75h-1.25v-1.25c0-.41-.34-.75-.75-.75s-.75,.34-.75,.75v1.25h-1.25c-.41,0-.75,.34-.75,.75s.34,.75,.75,.75Z"/><path d="M8.56,16.5l.88-.88c.29-.29,.29-.77,0-1.06s-.77-.29-1.06,0l-.88,.88-.88-.88c-.29-.29-.77-.29-1.06,0s-.29,.77,0,1.06l.88,.88-.88,.88c-.29,.29-.29,.77,0,1.06,.15,.15,.34,.22,.53,.22s.38-.07,.53-.22l.88-.88,.88,.88c.15,.15,.34,.22,.53,.22s.38-.07,.53-.22c.29-.29,.29-.77,0-1.06l-.88-.88Z"/><path d="M15,8.25h3c.41,0,.75-.34,.75-.75s-.34-.75-.75-.75h-3c-.41,0-.75,.34-.75,.75s.34,.75,.75,.75Z"/><path d="M18,14.25h-3c-.41,0-.75,.34-.75,.75s.34,.75,.75,.75h3c.41,0,.75-.34,.75-.75s-.34-.75-.75-.75Z"/><path d="M18,17.25h-3c-.41,0-.75,.34-.75,.75s.34,.75,.75,.75h3c.41,0,.75-.34,.75-.75s-.34-.75-.75-.75Z"/></g></g><g id="q"/><g id="r"/><g id="s"/><g id="t"/><g id="u"/></svg>