<?xml version="1.0" encoding="UTF-8"?><svg xmlns="http://www.w3.org/2000/svg" viewBox="0 0 24 24"><g id="a"/><g id="b"/><g id="c"/><g id="d"/><g id="e"/><g id="f"/><g id="g"/><g id="h"/><g id="i"/><g id="j"/><g id="k"/><g id="l"/><g id="m"/><g id="n"/><g id="o"/><g id="p"/><g id="q"/><g id="r"/><g id="s"/><g id="t"/><g id="u"><g><path d="M10.92,9.38c-.23-.15-.53-.17-.77-.04-.24,.13-.4,.38-.4,.66v1.6l-1.83-1.22c-.34-.23-.81-.14-1.04,.21-.23,.34-.14,.81,.21,1.04l3,2c.13,.08,.27,.13,.42,.13,.12,0,.24-.03,.35-.09,.24-.13,.4-.38,.4-.66v-1.6l1.83,1.22c.34,.23,.81,.14,1.04-.21,.23-.34,.14-.81-.21-1.04l-3-2Z"/><path d="M21,7.25c-.41,0-.75,.34-.75,.75v7c0,.41,.34,.75,.75,.75s.75-.34,.75-.75v-7c0-.41-.34-.75-.75-.75Z"/><path d="M16,5.25H5c-1.52,0-2.75,1.23-2.75,2.75v7c0,1.52,1.23,2.75,2.75,2.75h11c1.52,0,2.75-1.23,2.75-2.75v-7c0-1.52-1.23-2.75-2.75-2.75Zm1.25,9.75c0,.69-.56,1.25-1.25,1.25H5c-.69,0-1.25-.56-1.25-1.25v-7c0-.69,.56-1.25,1.25-1.25h11c.69,0,1.25,.56,1.25,1.25v7Z"/></g></g></svg>