<?xml version="1.0" encoding="UTF-8"?><svg xmlns="http://www.w3.org/2000/svg" viewBox="0 0 24 24"><g id="a"/><g id="b"/><g id="c"/><g id="d"/><g id="e"/><g id="f"/><g id="g"/><g id="h"/><g id="i"/><g id="j"/><g id="k"/><g id="l"/><g id="m"/><g id="n"/><g id="o"><g><path d="M18.89,5.11c-1.84-1.84-4.29-2.86-6.89-2.86s-5.05,1.01-6.89,2.86c-1.84,1.84-2.86,4.29-2.86,6.89s1.01,5.05,2.86,6.89c1.84,1.84,4.29,2.86,6.89,2.86s5.05-1.01,6.89-2.86c1.84-1.84,2.86-4.29,2.86-6.89s-1.01-5.05-2.86-6.89Zm-1.06,12.73c-1.56,1.56-3.63,2.42-5.83,2.42s-4.28-.86-5.83-2.42c-1.56-1.56-2.42-3.63-2.42-5.83s.86-4.28,2.42-5.83c1.56-1.56,3.63-2.42,5.83-2.42s4.28,.86,5.83,2.42c1.56,1.56,2.42,3.63,2.42,5.83s-.86,4.28-2.42,5.83Z"/><path d="M15.06,7.36l-5.18,1.73c-.37,.12-.67,.42-.79,.79l-1.73,5.18c-.15,.45-.04,.94,.3,1.28,.24,.24,.56,.37,.88,.37,.13,0,.27-.02,.4-.06l5.18-1.73c.37-.12,.67-.42,.79-.79l1.73-5.18c.15-.45,.04-.94-.3-1.28s-.83-.45-1.28-.3Zm-1.53,6.17l-4.58,1.53,1.53-4.58,4.58-1.53-1.53,4.58Z"/></g></g><g id="p"/><g id="q"/><g id="r"/><g id="s"/><g id="t"/><g id="u"/></svg>