<?xml version="1.0" encoding="UTF-8"?><svg xmlns="http://www.w3.org/2000/svg" viewBox="0 0 24 24"><g id="a"/><g id="b"/><g id="c"/><g id="d"/><g id="e"/><g id="f"/><g id="g"/><g id="h"/><g id="i"/><g id="j"/><g id="k"/><g id="l"/><g id="m"/><g id="n"><g><path d="M9,2.25c-.41,0-.75,.34-.75,.75v5c0,.14-.11,.25-.25,.25H3c-.41,0-.75,.34-.75,.75s.34,.75,.75,.75h5c.96,0,1.75-.79,1.75-1.75V3c0-.41-.34-.75-.75-.75Z"/><path d="M16,9.75h5c.41,0,.75-.34,.75-.75s-.34-.75-.75-.75h-5c-.14,0-.25-.11-.25-.25V3c0-.41-.34-.75-.75-.75s-.75,.34-.75,.75v5c0,.96,.79,1.75,1.75,1.75Z"/><path d="M8,14.25H3c-.41,0-.75,.34-.75,.75s.34,.75,.75,.75h5c.14,0,.25,.11,.25,.25v5c0,.41,.34,.75,.75,.75s.75-.34,.75-.75v-5c0-.96-.79-1.75-1.75-1.75Z"/><path d="M21,14.25h-5c-.96,0-1.75,.79-1.75,1.75v5c0,.41,.34,.75,.75,.75s.75-.34,.75-.75v-5c0-.14,.11-.25,.25-.25h5c.41,0,.75-.34,.75-.75s-.34-.75-.75-.75Z"/></g></g><g id="o"/><g id="p"/><g id="q"/><g id="r"/><g id="s"/><g id="t"/><g id="u"/></svg>