<?xml version="1.0" encoding="UTF-8"?><svg xmlns="http://www.w3.org/2000/svg" viewBox="0 0 24 24"><g id="a"/><g id="b"/><g id="c"/><g id="d"/><g id="e"/><g id="f"/><g id="g"><path d="M18,9.25h-2.23c-.56,0-1.02-.46-1.02-1.02,0-.23,.09-.46,.25-.65,.49-.58,.75-1.32,.75-2.08,0-1.03-.47-1.98-1.3-2.6-.83-.62-1.88-.81-2.9-.52-1.07,.31-1.94,1.2-2.2,2.28-.26,1.05-.02,2.11,.65,2.92,.16,.19,.24,.42,.24,.65,0,.56-.46,1.02-1.02,1.02h-2.23c-.96,0-1.75,.79-1.75,1.75v1.23c0,1.39,1.13,2.52,2.52,2.52,.58,0,1.16-.21,1.62-.6,.74-.62,1.93-.48,2.52,.3,.34,.45,.44,1.01,.28,1.58-.16,.56-.63,1.02-1.2,1.16-.59,.15-1.15,.02-1.59-.35-.46-.38-1.03-.59-1.61-.59-1.39,0-2.52,1.13-2.52,2.52v1.23c0,.96,.79,1.75,1.75,1.75h11c.96,0,1.75-.79,1.75-1.75V11c0-.96-.79-1.75-1.75-1.75Zm.25,10.75c0,.14-.11,.25-.25,.25H7c-.14,0-.25-.11-.25-.25v-1.23c0-.56,.46-1.02,1.02-1.02,.23,0,.46,.09,.65,.24,.81,.67,1.87,.91,2.92,.65,1.08-.27,1.98-1.13,2.28-2.2,.29-1.02,.1-2.07-.52-2.9-.62-.82-1.57-1.3-2.6-1.3-.76,0-1.5,.27-2.08,.75-.19,.16-.42,.25-.65,.25-.56,0-1.02-.46-1.02-1.02v-1.23c0-.14,.11-.25,.25-.25h2.23c1.39,0,2.52-1.13,2.52-2.52,0-.58-.21-1.16-.59-1.61-.37-.44-.49-1.01-.35-1.59,.14-.57,.6-1.04,1.16-1.2,.57-.16,1.13-.07,1.58,.27,.44,.33,.7,.84,.7,1.4,0,.42-.14,.8-.4,1.12-.38,.46-.6,1.03-.6,1.62,0,1.39,1.13,2.52,2.52,2.52h2.23c.14,0,.25,.11,.25,.25v9Z"/></g><g id="h"/><g id="i"/><g id="j"/><g id="k"/><g id="l"/><g id="m"/><g id="n"/><g id="o"/><g id="p"/><g id="q"/><g id="r"/><g id="s"/><g id="t"/><g id="u"/></svg>