<?xml version="1.0" encoding="UTF-8"?><svg xmlns="http://www.w3.org/2000/svg" viewBox="0 0 24 24"><g id="a"/><g id="b"/><g id="c"/><g id="d"><g><path d="M20.96,8.7L15.3,3.04c-.68-.68-1.79-.68-2.47,0l-1.83,1.83c-.07,.07-.12,.15-.18,.22-.04,.03-.08,.04-.11,.08-.08,.08-.13,.17-.17,.27-.49,.7-.76,1.52-.76,2.38,0,.71-.28,1.38-.78,1.88L3.63,15.07c-.71,.71-1.1,1.65-1.1,2.65s.39,1.94,1.1,2.65c.71,.71,1.65,1.1,2.65,1.1s1.94-.39,2.65-1.1l5.36-5.36c.5-.5,1.17-.78,1.88-.78,.87,0,1.69-.27,2.38-.76,.1-.04,.19-.09,.27-.17,.03-.03,.05-.08,.08-.11,.07-.06,.15-.11,.22-.18l1.83-1.83c.68-.68,.68-1.79,0-2.47Zm-7.72,5.24l-5.36,5.36c-.85,.85-2.33,.85-3.18,0-.42-.42-.66-.99-.66-1.59s.23-1.17,.66-1.59l5.36-5.36c.79-.79,1.22-1.83,1.22-2.94,0-.3,.06-.59,.15-.86l5.62,5.62c-.28,.09-.56,.15-.86,.15-1.11,0-2.16,.43-2.94,1.22Zm6.66-3.83l-1.59,1.59-6.01-6.01,1.59-1.59s.11-.07,.18-.07,.13,.02,.18,.07l5.66,5.66c.1,.1,.1,.26,0,.35Z"/><path d="M10.7,12.24l-2.83,2.83c-.29,.29-.29,.77,0,1.06,.15,.15,.34,.22,.53,.22s.38-.07,.53-.22l2.83-2.83c.29-.29,.29-.77,0-1.06s-.77-.29-1.06,0Z"/></g></g><g id="e"/><g id="f"/><g id="g"/><g id="h"/><g id="i"/><g id="j"/><g id="k"/><g id="l"/><g id="m"/><g id="n"/><g id="o"/><g id="p"/><g id="q"/><g id="r"/><g id="s"/><g id="t"/><g id="u"/></svg>