<?xml version="1.0" encoding="UTF-8"?><svg xmlns="http://www.w3.org/2000/svg" viewBox="0 0 24 24"><g id="a"/><g id="b"/><g id="c"><path d="M20.12,2.85c-.4-.33-.92-.47-1.43-.38l-9,1.64c-.83,.15-1.44,.88-1.44,1.72V15.77c-.51-.33-1.1-.52-1.75-.52-1.79,0-3.25,1.46-3.25,3.25s1.46,3.25,3.25,3.25,3.25-1.46,3.25-3.25V9.63l9.5-1.73v5.37c-.51-.33-1.1-.52-1.75-.52-1.79,0-3.25,1.46-3.25,3.25s1.46,3.25,3.25,3.25,3.25-1.46,3.25-3.25V4.2c0-.52-.23-1.01-.63-1.34ZM6.5,20.25c-.96,0-1.75-.79-1.75-1.75s.79-1.75,1.75-1.75,1.75,.79,1.75,1.75-.79,1.75-1.75,1.75Zm3.25-12.15v-2.27c0-.12,.09-.22,.21-.25l9-1.64c.11-.02,.17,.03,.21,.05,.03,.03,.09,.09,.09,.19v2.18l-9.5,1.73Zm7.75,9.65c-.96,0-1.75-.79-1.75-1.75s.79-1.75,1.75-1.75,1.75,.79,1.75,1.75-.79,1.75-1.75,1.75Z"/></g><g id="d"/><g id="e"/><g id="f"/><g id="g"/><g id="h"/><g id="i"/><g id="j"/><g id="k"/><g id="l"/><g id="m"/><g id="n"/><g id="o"/><g id="p"/><g id="q"/><g id="r"/><g id="s"/><g id="t"/><g id="u"/></svg>