<?xml version="1.0" encoding="UTF-8"?><svg xmlns="http://www.w3.org/2000/svg" viewBox="0 0 24 24"><g id="a"/><g id="b"/><g id="c"/><g id="d"/><g id="e"/><g id="f"/><g id="g"/><g id="h"/><g id="i"/><g id="j"/><g id="k"/><g id="l"><g><path d="M16,2.25H8c-2.07,0-3.75,1.68-3.75,3.75v1.25h-.25c-.41,0-.75,.34-.75,.75s.34,.75,.75,.75h.25v2.5h-.25c-.41,0-.75,.34-.75,.75s.34,.75,.75,.75h.25v2.5h-.25c-.41,0-.75,.34-.75,.75s.34,.75,.75,.75h.25v1.25c0,2.07,1.68,3.75,3.75,3.75h8c2.07,0,3.75-1.68,3.75-3.75V6c0-2.07-1.68-3.75-3.75-3.75Zm2.25,15.75c0,1.24-1.01,2.25-2.25,2.25H8c-1.24,0-2.25-1.01-2.25-2.25v-1.25h.25c.41,0,.75-.34,.75-.75s-.34-.75-.75-.75h-.25v-2.5h.25c.41,0,.75-.34,.75-.75s-.34-.75-.75-.75h-.25v-2.5h.25c.41,0,.75-.34,.75-.75s-.34-.75-.75-.75h-.25v-1.25c0-1.24,1.01-2.25,2.25-2.25h8c1.24,0,2.25,1.01,2.25,2.25v12Z"/><path d="M16,11.25h-6c-.41,0-.75,.34-.75,.75s.34,.75,.75,.75h6c.41,0,.75-.34,.75-.75s-.34-.75-.75-.75Z"/><path d="M16,7.25h-6c-.41,0-.75,.34-.75,.75s.34,.75,.75,.75h6c.41,0,.75-.34,.75-.75s-.34-.75-.75-.75Z"/><path d="M13,15.25h-3c-.41,0-.75,.34-.75,.75s.34,.75,.75,.75h3c.41,0,.75-.34,.75-.75s-.34-.75-.75-.75Z"/></g></g><g id="m"/><g id="n"/><g id="o"/><g id="p"/><g id="q"/><g id="r"/><g id="s"/><g id="t"/><g id="u"/></svg>