<?xml version="1.0" encoding="UTF-8"?><svg xmlns="http://www.w3.org/2000/svg" viewBox="0 0 24 24"><g id="a"/><g id="b"/><g id="c"/><g id="d"/><g id="e"/><g id="f"/><g id="g"/><g id="h"/><g id="i"/><g id="j"/><g id="k"/><g id="l"/><g id="m"/><g id="n"/><g id="o"/><g id="p"/><g id="q"/><g id="r"><path d="M20.5,4.91l-1.41-1.41c-1.46-1.46-3.84-1.46-5.3,0L3.78,13.5c-.5,.5-.84,1.12-1,1.8l-.97,4.18c-.18,.76,.05,1.55,.6,2.1,.43,.43,1,.66,1.58,.66,.17,0,.34-.02,.51-.06l4.18-.97h0c.68-.16,1.31-.5,1.8-1l10-10c.71-.71,1.1-1.65,1.1-2.65s-.39-1.94-1.1-2.65Zm-11.06,14.24c-.3,.3-.67,.51-1.08,.6l-4.18,.97c-.37,.08-.61-.11-.7-.2s-.29-.33-.2-.7l.97-4.18c.1-.41,.3-.78,.6-1.08L12.9,6.5l4.6,4.6-8.05,8.05Zm10-10l-.88,.88-4.6-4.6,.88-.88c.44-.44,1.01-.66,1.59-.66s1.15,.22,1.59,.66l1.41,1.41c.42,.42,.66,.99,.66,1.59s-.23,1.17-.66,1.59Z"/></g><g id="s"/><g id="t"/><g id="u"/></svg>