<?xml version="1.0" encoding="UTF-8"?><svg xmlns="http://www.w3.org/2000/svg" viewBox="0 0 24 24"><g id="a"/><g id="b"/><g id="c"/><g id="d"/><g id="e"><g><path d="M17,2.25H7c-2.62,0-4.75,2.13-4.75,4.75v10c0,2.62,2.13,4.75,4.75,4.75h10c2.62,0,4.75-2.13,4.75-4.75V7c0-2.62-2.13-4.75-4.75-4.75ZM7,3.75h10c1.79,0,3.25,1.46,3.25,3.25v6.5l-2.2-1.65c-.62-.46-1.48-.46-2.1,0l-3.07,2.3-2.57-2.83c-.33-.37-.8-.57-1.3-.57h-.02c-.5,0-.97,.22-1.3,.6l-3.95,4.51V7c0-1.79,1.46-3.25,3.25-3.25Zm-3.09,14.21l4.92-5.62c.06-.07,.14-.08,.19-.08,.03-.02,.12,0,.19,.08l7.2,7.92H7c-1.46,0-2.68-.97-3.09-2.29Zm14.3,2.06l-4.31-4.74,2.96-2.22c.09-.07,.21-.07,.3,0l3.1,2.32v1.63c0,1.37-.85,2.53-2.04,3.01Z"/><path d="M14.5,9.75c1.24,0,2.25-1.01,2.25-2.25s-1.01-2.25-2.25-2.25-2.25,1.01-2.25,2.25,1.01,2.25,2.25,2.25Zm0-3c.41,0,.75,.34,.75,.75s-.34,.75-.75,.75-.75-.34-.75-.75,.34-.75,.75-.75Z"/></g></g><g id="f"/><g id="g"/><g id="h"/><g id="i"/><g id="j"/><g id="k"/><g id="l"/><g id="m"/><g id="n"/><g id="o"/><g id="p"/><g id="q"/><g id="r"/><g id="s"/><g id="t"/><g id="u"/></svg>