<?xml version="1.0" encoding="UTF-8"?><svg xmlns="http://www.w3.org/2000/svg" viewBox="0 0 24 24"><g id="a"/><g id="b"/><g id="c"/><g id="d"/><g id="e"/><g id="f"/><g id="g"/><g id="h"><g><path d="M15.75,11c0-.41-.34-.75-.75-.75s-.75,.34-.75,.75c0,1.79-1.46,3.25-3.25,3.25H7c-1.79,0-3.25-1.46-3.25-3.25s1.46-3.25,3.25-3.25h2c.41,0,.75-.34,.75-.75s-.34-.75-.75-.75h-2c-2.62,0-4.75,2.13-4.75,4.75s2.13,4.75,4.75,4.75h4c2.62,0,4.75-2.13,4.75-4.75Z"/><path d="M17,7.25h-4c-2.62,0-4.75,2.13-4.75,4.75,0,.41,.34,.75,.75,.75s.75-.34,.75-.75c0-1.79,1.46-3.25,3.25-3.25h4c1.79,0,3.25,1.46,3.25,3.25s-1.46,3.25-3.25,3.25h-2c-.41,0-.75,.34-.75,.75s.34,.75,.75,.75h2c2.62,0,4.75-2.13,4.75-4.75s-2.13-4.75-4.75-4.75Z"/></g></g><g id="i"/><g id="j"/><g id="k"/><g id="l"/><g id="m"/><g id="n"/><g id="o"/><g id="p"/><g id="q"/><g id="r"/><g id="s"/><g id="t"/><g id="u"/></svg>