<?xml version="1.0" encoding="UTF-8"?><svg xmlns="http://www.w3.org/2000/svg" viewBox="0 0 24 24"><g id="a"/><g id="b"/><g id="c"/><g id="d"/><g id="e"/><g id="f"/><g id="g"/><g id="h"/><g id="i"/><g id="j"/><g id="k"/><g id="l"/><g id="m"/><g id="n"/><g id="o"/><g id="p"/><g id="q"><path d="M12,2.25C6.62,2.25,2.25,6.62,2.25,12s4.37,9.75,9.75,9.75,9.75-4.37,9.75-9.75S17.38,2.25,12,2.25Zm8.25,9.75c0,.78-.12,1.53-.32,2.25h-4.18V4.66c2.67,1.37,4.5,4.14,4.5,7.34Zm-10.5,2.25v-4.5h4.5v4.5h-4.5ZM12,3.75c.78,0,1.53,.12,2.25,.32v4.18H4.66c1.37-2.67,4.14-4.5,7.34-4.5ZM3.75,12c0-.78,.12-1.53,.32-2.25h4.18v9.59c-2.67-1.37-4.5-4.14-4.5-7.34Zm8.25,8.25c-.78,0-1.53-.12-2.25-.32v-4.18h9.59c-1.37,2.67-4.14,4.5-7.34,4.5Z"/></g><g id="r"/><g id="s"/><g id="t"/><g id="u"/></svg>