<?xml version="1.0" encoding="UTF-8"?><svg xmlns="http://www.w3.org/2000/svg" viewBox="0 0 24 24"><g id="a"/><g id="b"/><g id="c"/><g id="d"/><g id="e"/><g id="f"/><g id="g"/><g id="h"/><g id="i"/><g id="j"/><g id="k"><g><path d="M18,5.25H6c-2.07,0-3.75,1.68-3.75,3.75v6c0,2.07,1.68,3.75,3.75,3.75h12c2.07,0,3.75-1.68,3.75-3.75v-6c0-2.07-1.68-3.75-3.75-3.75ZM6,11.25h3c.41,0,.75,.34,.75,.75s-.34,.75-.75,.75h-3c-.41,0-.75-.34-.75-.75s.34-.75,.75-.75Zm5,4.5H6c-.41,0-.75-.34-.75-.75s.34-.75,.75-.75h5c.41,0,.75,.34,.75,.75s-.34,.75-.75,.75Zm7.75-4.75c0,.96-.79,1.75-1.75,1.75h-2c-.96,0-1.75-.79-1.75-1.75v-1c0-.96,.79-1.75,1.75-1.75h2c.96,0,1.75,.79,1.75,1.75v1Z"/><rect x="14.75" y="9.75" width="2.5" height="1.5" rx=".25" ry=".25"/></g></g><g id="l"/><g id="m"/><g id="n"/><g id="o"/><g id="p"/><g id="q"/><g id="r"/><g id="s"/><g id="t"/><g id="u"/></svg>