<?xml version="1.0" encoding="UTF-8"?><svg xmlns="http://www.w3.org/2000/svg" viewBox="0 0 24 24"><g id="a"/><g id="b"/><g id="c"/><g id="d"/><g id="e"/><g id="f"/><g id="g"/><g id="h"><g><path d="M19,10.75c-2.07,0-3.75-1.68-3.75-3.75,0-.26,.03-.51,.08-.75H7c-2.62,0-4.75,2.13-4.75,4.75v4c0,2.62,2.13,4.75,4.75,4.75h9c2.62,0,4.75-2.13,4.75-4.75v-4c0-.23-.04-.45-.07-.67-.51,.26-1.07,.42-1.68,.42Zm-2.53,1.84l-2.28,1.83c-.87,.69-1.92,1.03-2.96,1.03-1.18,0-2.36-.43-3.27-1.29l-1.7-1.61c-.3-.28-.31-.76-.03-1.06,.28-.3,.76-.31,1.06-.03l1.7,1.61c1.17,1.11,3,1.18,4.26,.18l2.28-1.83c.32-.26,.8-.21,1.05,.12,.26,.32,.21,.8-.12,1.05Z"/><circle cx="19" cy="7" r="2.75"/></g></g><g id="i"/><g id="j"/><g id="k"/><g id="l"/><g id="m"/><g id="n"/><g id="o"/><g id="p"/><g id="q"/><g id="r"/><g id="s"/><g id="t"/><g id="u"/></svg>