<?xml version="1.0" encoding="UTF-8"?><svg xmlns="http://www.w3.org/2000/svg" viewBox="0 0 24 24"><g id="a"/><g id="b"/><g id="c"/><g id="d"/><g id="e"/><g id="f"/><g id="g"/><g id="h"/><g id="i"/><g id="j"/><g id="k"/><g id="l"><g><path d="M10.4,17.77h-1.41c-1.52,0-2.75-1.23-2.75-2.75v-1.41c0-.74,.29-1.43,.81-1.94l5.41-5.41h-4.46c-3.17,0-5.75,2.58-5.75,5.75v4c0,3.17,2.58,5.75,5.75,5.75h4c3.17,0,5.75-2.58,5.75-5.75v-4.44l-5.4,5.4c-.51,.51-1.22,.81-1.95,.81Z"/><path d="M21.25,4.18l-1.41-1.41c-.68-.68-1.79-.68-2.48,0l-.87,.87,3.35,3.37,.51,.55,.9-.9c.33-.33,.51-.77,.51-1.24s-.18-.91-.51-1.24Z"/><path d="M15.43,4.69l-7.67,7.67c-.33,.33-.51,.77-.51,1.24v1.41c0,.96,.79,1.75,1.75,1.75h1.41c.46,0,.91-.19,1.24-.51l7.64-7.64-.53-.57-3.33-3.35Z"/></g></g><g id="m"/><g id="n"/><g id="o"/><g id="p"/><g id="q"/><g id="r"/><g id="s"/><g id="t"/><g id="u"/></svg>