<svg xmlns="http://www.w3.org/2000/svg" viewBox="0 0 32 32"><title>11-Text Edit</title><g id="_11-Text_Edit" data-name="11-Text Edit"><path d="M28,1a3,3,0,0,1,0,6H19V28a3,3,0,0,1-6,0V7H4A3,3,0,0,1,4,1Z" style="fill:#c1c5c8"/><path d="M19,23v5a3,3,0,0,1-6,0V23" style="fill:none;stroke:#6f7a7b;stroke-linecap:round;stroke-linejoin:round;stroke-width:2px"/><path d="M13,15V7H4A3,3,0,0,1,4,1H28a3,3,0,0,1,0,6H19v8" style="fill:none;stroke:#6f7a7b;stroke-linecap:round;stroke-linejoin:round;stroke-width:2px"/><circle cx="18" cy="19" r="1" style="fill:#6f7a7b"/><circle cx="14" cy="19" r="1" style="fill:#6f7a7b"/><circle cx="10" cy="19" r="1" style="fill:#6f7a7b"/><circle cx="22" cy="19" r="1" style="fill:#6f7a7b"/></g></svg>