<svg xmlns="http://www.w3.org/2000/svg" viewBox="0 0 32 32"><title>15-Image</title><g id="_15-Image" data-name="15-Image"><rect x="1" y="2" width="30" height="28" rx="3" style="fill:#f2f2f2"/><path d="M31,5a3,3,0,0,0-3-3H4A3,3,0,0,0,1,5V9H31Z" style="fill:#c1c5c8"/><circle cx="19" cy="12" r="3" style="fill:#f2f2f2"/><path d="M2,29,13,18l8,8,4-4,5.87,5.87A2.982,2.982,0,0,1,28,30H4a2.993,2.993,0,0,1-2.12-.88Z" style="fill:#c1c5c8"/><circle cx="27" cy="6" r="1" style="fill:#6f7a7b"/><circle cx="9" cy="6" r="1" style="fill:#6f7a7b"/><circle cx="5" cy="6" r="1" style="fill:#6f7a7b"/><path d="M30.87,27.87A3.1,3.1,0,0,0,31,27V5a3,3,0,0,0-3-3H4A3,3,0,0,0,1,5V27a3,3,0,0,0,3,3H28A2.982,2.982,0,0,0,30.87,27.87Z" style="fill:none;stroke:#6f7a7b;stroke-linecap:round;stroke-linejoin:round;stroke-width:2px"/><polyline points="2 29 13 18 21 26 25 22 30.87 27.87 31 28" style="fill:none;stroke:#6f7a7b;stroke-linecap:round;stroke-linejoin:round;stroke-width:2px"/><circle cx="19" cy="12" r="3" style="fill:none;stroke:#6f7a7b;stroke-linecap:round;stroke-linejoin:round;stroke-width:2px"/></g></svg>