<svg xmlns="http://www.w3.org/2000/svg" viewBox="0 0 32 32"><title>17-Editor</title><g id="_17-Editor" data-name="17-Editor"><path d="M28,4V28a3,3,0,0,1-3,3H7a3,3,0,0,1-3-3V7l6-6H25A3,3,0,0,1,28,4Z" style="fill:#c1c5c8"/><path d="M25,1H10L4,7V28a3,3,0,0,0,3,3H25a3,3,0,0,0,3-3V4A3,3,0,0,0,25,1Z" style="fill:none;stroke:#6f7a7b;stroke-linecap:round;stroke-linejoin:round;stroke-width:2px"/><polyline points="21 15 23 17 21 19" style="fill:none;stroke:#6f7a7b;stroke-linecap:round;stroke-linejoin:round;stroke-width:2px"/><polyline points="11 19 9 17 11 15" style="fill:none;stroke:#6f7a7b;stroke-linecap:round;stroke-linejoin:round;stroke-width:2px"/><circle cx="16" cy="17" r="1" style="fill:#6f7a7b"/><circle cx="16" cy="13" r="1" style="fill:#6f7a7b"/><circle cx="16" cy="9" r="1" style="fill:#6f7a7b"/><circle cx="16" cy="21" r="1" style="fill:#6f7a7b"/><circle cx="16" cy="25" r="1" style="fill:#6f7a7b"/></g></svg>