<svg xmlns="http://www.w3.org/2000/svg" viewBox="0 0 32 32"><title>21-Pencil</title><g id="_21-Pencil" data-name="21-Pencil"><path d="M22,18l-3.25,7.05-.1-.05a4.011,4.011,0,0,0-5.3,0l-.1.05L10,18l6-3Z" style="fill:#f2f2f2"/><path d="M16,24a4.026,4.026,0,0,1,2.65,1l.1.05L16,31l-2.75-5.95.1-.05A4.026,4.026,0,0,1,16,24Z" style="fill:#c1c5c8"/><polygon points="16 1 16 15 10 18 10 1 16 1" style="fill:#c1c5c8"/><polygon points="22 1 22 18 16 15 16 1 22 1" style="fill:#c1c5c8"/><polyline points="22 1 22 18 18.75 25.05 16 31 13.25 25.05 10 18 10 1" style="fill:none;stroke:#6f7a7b;stroke-linecap:round;stroke-linejoin:round;stroke-width:2px"/><polyline points="22 18 16 15 10 18" style="fill:none;stroke:#6f7a7b;stroke-linecap:round;stroke-linejoin:round;stroke-width:2px"/><line x1="16" y1="15" x2="16" y2="1" style="fill:none;stroke:#6f7a7b;stroke-linecap:round;stroke-linejoin:round;stroke-width:2px"/><path d="M13.35,25a4.011,4.011,0,0,1,5.3,0" style="fill:none;stroke:#6f7a7b;stroke-linecap:round;stroke-linejoin:round;stroke-width:2px"/></g></svg>