<svg xmlns="http://www.w3.org/2000/svg" viewBox="0 0 32 32"><title>24-Pen</title><g id="_24-Pen" data-name="24-Pen"><path d="M16,12a1,1,0,1,0,1,1A1,1,0,0,0,16,12ZM16,1l5,10a4.11,4.11,0,0,1-1,5l-1,3H13l-1-3a4.11,4.11,0,0,1-1-5Z" style="fill:#c1c5c8"/><rect x="13" y="19" width="6" height="4" style="fill:#f2f2f2"/><rect x="13" y="23" width="6" height="8" style="fill:#c1c5c8"/><circle cx="16" cy="13" r="1" style="fill:#6f7a7b"/><path d="M13,19l-1-3a4.11,4.11,0,0,1-1-5L16,1v9" style="fill:none;stroke:#6f7a7b;stroke-linecap:round;stroke-linejoin:round;stroke-width:2px"/><path d="M16,1l5,10a4.11,4.11,0,0,1-1,5l-1,3" style="fill:none;stroke:#6f7a7b;stroke-linecap:round;stroke-linejoin:round;stroke-width:2px"/><polygon points="13 23 13 31 19 31 19 23 19 19 13 19 13 23" style="fill:none;stroke:#6f7a7b;stroke-linecap:round;stroke-linejoin:round;stroke-width:2px"/><line x1="13" y1="23" x2="19" y2="23" style="fill:none;stroke:#6f7a7b;stroke-linecap:round;stroke-linejoin:round;stroke-width:2px"/></g></svg>