<svg xmlns="http://www.w3.org/2000/svg" viewBox="0 0 32 32"><title>26-File</title><g id="_26-File" data-name="26-File"><path d="M28,19v9a3,3,0,0,1-3,3H7a3,3,0,0,1-3-3V7l6-6h6V6a1.959,1.959,0,0,0,2,2h5v7a1.959,1.959,0,0,0,2,2A3.7,3.7,0,0,1,28,19Z" style="fill:#c1c5c8"/><circle cx="28" cy="2" r="1" style="fill:#6f7a7b"/><circle cx="28" cy="6" r="1" style="fill:#6f7a7b"/><circle cx="28" cy="10" r="1" style="fill:#6f7a7b"/><circle cx="28" cy="14" r="1" style="fill:#6f7a7b"/><circle cx="24" cy="1" r="1" style="fill:#6f7a7b"/><circle cx="20" cy="1" r="1" style="fill:#6f7a7b"/><path d="M23,15V8H18a1.959,1.959,0,0,1-2-2V1H10L4,7V28a3,3,0,0,0,3,3H25a3,3,0,0,0,3-3V19a3.7,3.7,0,0,0-3-2A1.959,1.959,0,0,1,23,15Z" style="fill:none;stroke:#6f7a7b;stroke-linecap:round;stroke-linejoin:round;stroke-width:2px"/></g></svg>