<svg xmlns="http://www.w3.org/2000/svg" viewBox="0 0 32 32"><title>3-Pencil and Ruler</title><g id="_3-Pencil_and_Ruler" data-name="3-Pencil and Ruler"><path d="M12,3V6H8V3a2,2,0,0,1,4,0Z" style="fill:#f2f2f2"/><polygon points="12 6 12 27 10 31 8 27 8 6 12 6" style="fill:#c1c5c8"/><path d="M16,24V3a2.006,2.006,0,0,1,2-2h4a2.006,2.006,0,0,1,2,2V29a2.006,2.006,0,0,1-2,2H18a2.006,2.006,0,0,1-2-2Z" style="fill:#c1c5c8"/><path d="M12,6V27l-2,4L8,27V3a2,2,0,0,1,4,0Z" style="fill:none;stroke:#6f7a7b;stroke-linecap:round;stroke-linejoin:round;stroke-width:2px"/><line x1="12" y1="6" x2="8" y2="6" style="fill:none;stroke:#6f7a7b;stroke-linecap:round;stroke-linejoin:round;stroke-width:2px"/><path d="M16,24v5a2.006,2.006,0,0,0,2,2h4a2.006,2.006,0,0,0,2-2V3a2.006,2.006,0,0,0-2-2H18a2.006,2.006,0,0,0-2,2V24Z" style="fill:none;stroke:#6f7a7b;stroke-linecap:round;stroke-linejoin:round;stroke-width:2px"/><line x1="16" y1="16" x2="19" y2="16" style="fill:none;stroke:#6f7a7b;stroke-linecap:round;stroke-linejoin:round;stroke-width:2px"/><line x1="16" y1="8" x2="20" y2="8" style="fill:none;stroke:#6f7a7b;stroke-linecap:round;stroke-linejoin:round;stroke-width:2px"/><line x1="16" y1="24" x2="20" y2="24" style="fill:none;stroke:#6f7a7b;stroke-linecap:round;stroke-linejoin:round;stroke-width:2px"/></g></svg>