<svg xmlns="http://www.w3.org/2000/svg" viewBox="0 0 32 32"><title>33-Ink</title><g id="_33-Ink" data-name="33-Ink"><rect x="7" y="18" width="18" height="6" rx="1" style="fill:#f2f2f2"/><path d="M21,5V9H11V5a2.006,2.006,0,0,1,2-2h6A2.006,2.006,0,0,1,21,5Z" style="fill:#c1c5c8"/><path d="M24,10l1,3H7l1-3A1,1,0,0,1,9,9H23A1,1,0,0,1,24,10Z" style="fill:#f2f2f2"/><path d="M31,18v6a5,5,0,0,1-5,5H6a5,5,0,0,1-5-5V18a5,5,0,0,1,5-5H26A5,5,0,0,1,31,18Zm-6,5V19a1,1,0,0,0-1-1H8a1,1,0,0,0-1,1v4a1,1,0,0,0,1,1H24A1,1,0,0,0,25,23Z" style="fill:#c1c5c8"/><path d="M7,13H6a5,5,0,0,0-5,5v6a5,5,0,0,0,5,5H26a5,5,0,0,0,5-5V18a5,5,0,0,0-5-5H7Z" style="fill:none;stroke:#6f7a7b;stroke-linecap:round;stroke-linejoin:round;stroke-width:2px"/><path d="M21,9V5a2.006,2.006,0,0,0-2-2H13a2.006,2.006,0,0,0-2,2V9" style="fill:none;stroke:#6f7a7b;stroke-linecap:round;stroke-linejoin:round;stroke-width:2px"/><path d="M25,13l-1-3a1,1,0,0,0-1-1H9a1,1,0,0,0-1,1L7,13" style="fill:none;stroke:#6f7a7b;stroke-linecap:round;stroke-linejoin:round;stroke-width:2px"/><rect x="7" y="18" width="18" height="6" rx="1" style="fill:none;stroke:#6f7a7b;stroke-linecap:round;stroke-linejoin:round;stroke-width:2px"/></g></svg>