<svg xmlns="http://www.w3.org/2000/svg" viewBox="0 0 32 32"><title>39-Text Edit</title><g id="_39-Text_Edit" data-name="39-Text Edit"><path d="M26,10a2,2,0,0,1,0,4H23V24a2,2,0,0,1-4,0V14H14V10H26Z" style="fill:#c1c5c8"/><path d="M9,7V24L4,25V9A7.651,7.651,0,0,1,9,7Z" style="fill:#c1c5c8"/><path d="M14,10V25L9,24V7a7.651,7.651,0,0,1,5,2Z" style="fill:#c1c5c8"/><polygon points="14 25 9 31 4 25 9 24 14 25" style="fill:#f2f2f2"/><path d="M14,5V9A7.651,7.651,0,0,0,9,7,7.651,7.651,0,0,0,4,9V5A4,4,0,0,1,8,1h2A4,4,0,0,1,14,5Z" style="fill:#f2f2f2"/><path d="M4,25V5A4,4,0,0,1,8,1h2a4,4,0,0,1,4,4V25L9,31Z" style="fill:none;stroke:#6f7a7b;stroke-linecap:round;stroke-linejoin:round;stroke-width:2px"/><path d="M14,9A7.651,7.651,0,0,0,9,7,7.651,7.651,0,0,0,4,9" style="fill:none;stroke:#6f7a7b;stroke-linecap:round;stroke-linejoin:round;stroke-width:2px"/><polyline points="14 25 9 24 4 25" style="fill:none;stroke:#6f7a7b;stroke-linecap:round;stroke-linejoin:round;stroke-width:2px"/><line x1="9" y1="24" x2="9" y2="7" style="fill:none;stroke:#6f7a7b;stroke-linecap:round;stroke-linejoin:round;stroke-width:2px"/><path d="M18,10h8a2,2,0,0,1,0,4H23V24a2,2,0,0,1-4,0V14H18" style="fill:none;stroke:#6f7a7b;stroke-linecap:round;stroke-linejoin:round;stroke-width:2px"/></g></svg>