<svg xmlns="http://www.w3.org/2000/svg" viewBox="0 0 32 32"><title>4-Roller</title><g id="_4-Roller" data-name="4-Roller"><path d="M15,22v8a1,1,0,0,1-1,1H12a1,1,0,0,1-1-1V22a1,1,0,0,1,1-1h2A1,1,0,0,1,15,22Z" style="fill:#f2f2f2"/><path d="M25,6V9a2.006,2.006,0,0,1-2,2H3A2.006,2.006,0,0,1,1,9V3A2.006,2.006,0,0,1,3,1H23a2.006,2.006,0,0,1,2,2Z" style="fill:#c1c5c8"/><path d="M1,9a2.006,2.006,0,0,0,2,2H23a2.006,2.006,0,0,0,2-2V3a2.006,2.006,0,0,0-2-2H3A2.006,2.006,0,0,0,1,3Z" style="fill:none;stroke:#6f7a7b;stroke-linecap:round;stroke-linejoin:round;stroke-width:2px"/><path d="M25,6s5,0,5,5c0,0,0,5-5,5H16a2.938,2.938,0,0,0-3,3v2" style="fill:none;stroke:#6f7a7b;stroke-linecap:round;stroke-linejoin:round;stroke-width:2px"/><path d="M11,30a1,1,0,0,0,1,1h2a1,1,0,0,0,1-1V22a1,1,0,0,0-1-1H12a1,1,0,0,0-1,1Z" style="fill:none;stroke:#6f7a7b;stroke-linecap:round;stroke-linejoin:round;stroke-width:2px"/></g></svg>