<svg xmlns="http://www.w3.org/2000/svg" viewBox="0 0 32 32"><title>41-File</title><g id="_41-File" data-name="41-File"><path d="M24,24H10a2.006,2.006,0,0,1-2-2V19a2.006,2.006,0,0,1,2-2H28a2.006,2.006,0,0,1,2,2v3a2.006,2.006,0,0,1-2,2H24Z" style="fill:#c1c5c8"/><path d="M26,24v4a3,3,0,0,1-3,3H5a3,3,0,0,1-3-3V7L8,1H23a3,3,0,0,1,3,3V17H10a2.006,2.006,0,0,0-2,2v3a2.006,2.006,0,0,0,2,2H26Z" style="fill:#f2f2f2"/><path d="M26,17V4a3,3,0,0,0-3-3H8L2,7V28a3,3,0,0,0,3,3H23a3,3,0,0,0,3-3V24" style="fill:none;stroke:#6f7a7b;stroke-linecap:round;stroke-linejoin:round;stroke-width:2px"/><path d="M26,17H10a2.006,2.006,0,0,0-2,2v3a2.006,2.006,0,0,0,2,2H28a2.006,2.006,0,0,0,2-2V19a2.006,2.006,0,0,0-2-2Z" style="fill:none;stroke:#6f7a7b;stroke-linecap:round;stroke-linejoin:round;stroke-width:2px"/><line x1="19" y1="24" x2="19" y2="21" style="fill:none;stroke:#6f7a7b;stroke-linecap:round;stroke-linejoin:round;stroke-width:2px"/><line x1="24" y1="24" x2="24" y2="21" style="fill:none;stroke:#6f7a7b;stroke-linecap:round;stroke-linejoin:round;stroke-width:2px"/><line x1="14" y1="24" x2="14" y2="21" style="fill:none;stroke:#6f7a7b;stroke-linecap:round;stroke-linejoin:round;stroke-width:2px"/></g></svg>