<svg xmlns="http://www.w3.org/2000/svg" viewBox="0 0 32 32"><title>43-Area</title><g id="_43-Area" data-name="43-Area"><polygon points="23 17 19 19 17 23 14 14 23 17" style="fill:#c1c5c8"/><rect x="25" y="1" width="6" height="6" rx="2" style="fill:#f2f2f2"/><rect x="25" y="25" width="6" height="6" rx="2" style="fill:#c1c5c8"/><rect x="1" y="25" width="6" height="6" rx="2" style="fill:#f2f2f2"/><rect x="1" y="1" width="6" height="6" rx="2" style="fill:#c1c5c8"/><circle cx="28" cy="12" r="1" style="fill:#6f7a7b"/><circle cx="28" cy="16" r="1" style="fill:#6f7a7b"/><circle cx="28" cy="20" r="1" style="fill:#6f7a7b"/><circle cx="20" cy="4" r="1" style="fill:#6f7a7b"/><circle cx="20" cy="29" r="1" style="fill:#6f7a7b"/><circle cx="16" cy="4" r="1" style="fill:#6f7a7b"/><circle cx="16" cy="29" r="1" style="fill:#6f7a7b"/><circle cx="12" cy="4" r="1" style="fill:#6f7a7b"/><circle cx="12" cy="29" r="1" style="fill:#6f7a7b"/><circle cx="4" cy="12" r="1" style="fill:#6f7a7b"/><circle cx="4" cy="16" r="1" style="fill:#6f7a7b"/><circle cx="4" cy="20" r="1" style="fill:#6f7a7b"/><rect x="1" y="1" width="6" height="6" rx="2" style="fill:none;stroke:#6f7a7b;stroke-linecap:round;stroke-linejoin:round;stroke-width:2px"/><rect x="25" y="1" width="6" height="6" rx="2" style="fill:none;stroke:#6f7a7b;stroke-linecap:round;stroke-linejoin:round;stroke-width:2px"/><rect x="25" y="25" width="6" height="6" rx="2" style="fill:none;stroke:#6f7a7b;stroke-linecap:round;stroke-linejoin:round;stroke-width:2px"/><rect x="1" y="25" width="6" height="6" rx="2" style="fill:none;stroke:#6f7a7b;stroke-linecap:round;stroke-linejoin:round;stroke-width:2px"/><polygon points="23 17 19 19 17 23 14 14 23 17" style="fill:none;stroke:#6f7a7b;stroke-linecap:round;stroke-linejoin:round;stroke-width:2px"/></g></svg>