<svg xmlns="http://www.w3.org/2000/svg" viewBox="0 0 32 32"><title>44-Color</title><g id="_44-Color" data-name="44-Color"><path d="M25,17h2a4,4,0,0,1,4,4v6a4,4,0,0,1-4,4H23V19Z" style="fill:#f2f2f2"/><path d="M23,19V31H11a4,4,0,0,0,4-4l6.71-6.71Z" style="fill:#c1c5c8"/><path d="M29,7a4.431,4.431,0,0,1,0,6l-2.34,2.34-.05-.05-9.9-9.9-.05-.05L19,3a4.431,4.431,0,0,1,6,0Z" style="fill:#f2f2f2"/><polygon points="26.61 15.29 26.66 15.34 25 17 23 19 21.71 20.29 21.66 20.24 15 13.59 15 8 15 7 16.66 5.34 16.71 5.39 26.61 15.29" style="fill:#c1c5c8"/><polygon points="21.71 20.29 15 27 15 22 15 15 15 13.59 21.66 20.24 21.71 20.29" style="fill:#f2f2f2"/><polygon points="15 13.59 15 15 1 15 1 8 15 8 15 13.59" style="fill:#f2f2f2"/><path d="M15,7V8H1V5A4,4,0,0,1,5,1h6a4,4,0,0,1,4,4Z" style="fill:#c1c5c8"/><polygon points="15 15 15 22 1 22 1 21 1 15 15 15" style="fill:#c1c5c8"/><path d="M8,25a1,1,0,1,0,1,1A1,1,0,0,0,8,25ZM1,22H15v5a4,4,0,0,1-4,4H5a4,4,0,0,1-4-4Z" style="fill:#f2f2f2"/><circle cx="8" cy="26" r="1" style="fill:#6f7a7b"/><path d="M11,31a4,4,0,0,0,4-4V5a4,4,0,0,0-4-4H5A4,4,0,0,0,1,5V21" style="fill:none;stroke:#6f7a7b;stroke-linecap:round;stroke-linejoin:round;stroke-width:2px"/><line x1="1" y1="22" x2="15" y2="22" style="fill:none;stroke:#6f7a7b;stroke-linecap:round;stroke-linejoin:round;stroke-width:2px"/><line x1="1" y1="15" x2="15" y2="15" style="fill:none;stroke:#6f7a7b;stroke-linecap:round;stroke-linejoin:round;stroke-width:2px"/><line x1="1" y1="8" x2="15" y2="8" style="fill:none;stroke:#6f7a7b;stroke-linecap:round;stroke-linejoin:round;stroke-width:2px"/><path d="M15,27l6.71-6.71L23,19l2-2,1.66-1.66L29,13a4.431,4.431,0,0,0,0-6L25,3a4.431,4.431,0,0,0-6,0L16.66,5.34,15,7" style="fill:none;stroke:#6f7a7b;stroke-linecap:round;stroke-linejoin:round;stroke-width:2px"/><line x1="15" y1="13.59" x2="21.66" y2="20.24" style="fill:none;stroke:#6f7a7b;stroke-linecap:round;stroke-linejoin:round;stroke-width:2px"/><line x1="16.71" y1="5.39" x2="26.61" y2="15.29" style="fill:none;stroke:#6f7a7b;stroke-linecap:round;stroke-linejoin:round;stroke-width:2px"/><path d="M1,21v6a4,4,0,0,0,4,4H27a4,4,0,0,0,4-4V21a4,4,0,0,0-4-4H25" style="fill:none;stroke:#6f7a7b;stroke-linecap:round;stroke-linejoin:round;stroke-width:2px"/><line x1="23" y1="19" x2="23" y2="31" style="fill:none;stroke:#6f7a7b;stroke-linecap:round;stroke-linejoin:round;stroke-width:2px"/></g></svg>