<svg xmlns="http://www.w3.org/2000/svg" viewBox="0 0 32 32"><title>51-Editor</title><g id="_51-Editor" data-name="51-Editor"><path d="M15,24v4a3,3,0,0,1-3,3H8Z" style="fill:#f2f2f2"/><path d="M14.64,18.57,14,19,3,30l-.12.12A2.993,2.993,0,0,1,2,28V25l8-8h2A3,3,0,0,1,14.64,18.57Z" style="fill:#f2f2f2"/><path d="M15,20v4L8,31H5a2.993,2.993,0,0,1-2.12-.88L3,30,14,19l.64-.43A2.974,2.974,0,0,1,15,20Z" style="fill:#c1c5c8"/><circle cx="30" cy="1" r="1" style="fill:#6f7a7b"/><circle cx="30" cy="5" r="1" style="fill:#6f7a7b"/><circle cx="30" cy="9" r="1" style="fill:#6f7a7b"/><circle cx="30" cy="13" r="1" style="fill:#6f7a7b"/><circle cx="30" cy="17" r="1" style="fill:#6f7a7b"/><circle cx="30" cy="21" r="1" style="fill:#6f7a7b"/><circle cx="30" cy="25" r="1" style="fill:#6f7a7b"/><circle cx="30" cy="29" r="1" style="fill:#6f7a7b"/><circle cx="26" cy="1" r="1" style="fill:#6f7a7b"/><circle cx="26" cy="29" r="1" style="fill:#6f7a7b"/><circle cx="22" cy="1" r="1" style="fill:#6f7a7b"/><circle cx="22" cy="29" r="1" style="fill:#6f7a7b"/><circle cx="18" cy="1" r="1" style="fill:#6f7a7b"/><circle cx="18" cy="29" r="1" style="fill:#6f7a7b"/><circle cx="14" cy="1" r="1" style="fill:#6f7a7b"/><circle cx="10" cy="1" r="1" style="fill:#6f7a7b"/><path d="M10,17,2,25V20a3,3,0,0,1,3-3Z" style="fill:#c1c5c8"/><circle cx="6" cy="1" r="1" style="fill:#6f7a7b"/><circle cx="2" cy="1" r="1" style="fill:#6f7a7b"/><circle cx="2" cy="5" r="1" style="fill:#6f7a7b"/><circle cx="2" cy="9" r="1" style="fill:#6f7a7b"/><circle cx="2" cy="13" r="1" style="fill:#6f7a7b"/><path d="M2,25v3a3,3,0,0,0,3,3h7a3,3,0,0,0,3-3V20a2.993,2.993,0,0,0-3-3H5a3,3,0,0,0-3,3Z" style="fill:none;stroke:#6f7a7b;stroke-linecap:round;stroke-linejoin:round;stroke-width:2px"/><path d="M22,6h2a.979.979,0,0,1,1,1V9" style="fill:none;stroke:#6f7a7b;stroke-linecap:round;stroke-linejoin:round;stroke-width:2px"/><line x1="18" y1="13" x2="24" y2="7" style="fill:none;stroke:#6f7a7b;stroke-linecap:round;stroke-linejoin:round;stroke-width:2px"/><path d="M20,14H18a.979.979,0,0,1-1-1V11" style="fill:none;stroke:#6f7a7b;stroke-linecap:round;stroke-linejoin:round;stroke-width:2px"/><line x1="2" y1="25" x2="10" y2="17" style="fill:none;stroke:#6f7a7b;stroke-linecap:round;stroke-linejoin:round;stroke-width:2px"/><line x1="3" y1="30" x2="14" y2="19" style="fill:none;stroke:#6f7a7b;stroke-linecap:round;stroke-linejoin:round;stroke-width:2px"/><line x1="8" y1="31" x2="15" y2="24" style="fill:none;stroke:#6f7a7b;stroke-linecap:round;stroke-linejoin:round;stroke-width:2px"/></g></svg>