<svg xmlns="http://www.w3.org/2000/svg" viewBox="0 0 32 32"><title>52-Editor</title><g id="_52-Editor" data-name="52-Editor"><rect x="1" y="2" width="30" height="28" rx="3" style="fill:#f2f2f2"/><path d="M31,5a3,3,0,0,0-3-3H4A3,3,0,0,0,1,5V9H31Z" style="fill:#c1c5c8"/><rect x="1" y="2" width="30" height="28" rx="3" style="fill:none;stroke:#6f7a7b;stroke-linecap:round;stroke-linejoin:round;stroke-width:2px"/><circle cx="5" cy="6" r="1" style="fill:#6f7a7b"/><circle cx="9" cy="6" r="1" style="fill:#6f7a7b"/><circle cx="27" cy="6" r="1" style="fill:#6f7a7b"/><path d="M8,14H18a1.959,1.959,0,0,1,2,2v9" style="fill:none;stroke:#6f7a7b;stroke-linecap:round;stroke-linejoin:round;stroke-width:2px"/><path d="M23,22H13a1.959,1.959,0,0,1-2-2V11" style="fill:none;stroke:#6f7a7b;stroke-linecap:round;stroke-linejoin:round;stroke-width:2px"/></g></svg>