<svg xmlns="http://www.w3.org/2000/svg" viewBox="0 0 32 32"><title>53-Editor</title><g id="_53-Editor" data-name="53-Editor"><rect x="1" y="2" width="30" height="28" rx="3" style="fill:#f2f2f2"/><path d="M31,5a3,3,0,0,0-3-3H4A3,3,0,0,0,1,5V9H31Z" style="fill:#c1c5c8"/><rect x="1" y="2" width="30" height="28" rx="3" style="fill:none;stroke:#6f7a7b;stroke-linecap:round;stroke-linejoin:round;stroke-width:2px"/><circle cx="5" cy="6" r="1" style="fill:#6f7a7b"/><circle cx="9" cy="6" r="1" style="fill:#6f7a7b"/><circle cx="27" cy="6" r="1" style="fill:#6f7a7b"/><line x1="13" y1="24" x2="23" y2="24" style="fill:none;stroke:#6f7a7b;stroke-linecap:round;stroke-linejoin:round;stroke-width:2px"/><line x1="18" y1="20" x2="23" y2="20" style="fill:none;stroke:#6f7a7b;stroke-linecap:round;stroke-linejoin:round;stroke-width:2px"/><line x1="18" y1="16" x2="23" y2="16" style="fill:none;stroke:#6f7a7b;stroke-linecap:round;stroke-linejoin:round;stroke-width:2px"/><line x1="13" y1="12" x2="23" y2="12" style="fill:none;stroke:#6f7a7b;stroke-linecap:round;stroke-linejoin:round;stroke-width:2px"/><polyline points="12 16 14 18 12 20" style="fill:none;stroke:#6f7a7b;stroke-linecap:round;stroke-linejoin:round;stroke-width:2px"/><path d="M14,18H7" style="fill:none;stroke:#6f7a7b;stroke-linecap:round;stroke-linejoin:round;stroke-width:2px"/></g></svg>