<svg xmlns="http://www.w3.org/2000/svg" viewBox="0 0 32 32"><title>58-Text Edit</title><g id="_58-Text_Edit" data-name="58-Text Edit"><rect x="1" y="6" width="30" height="20" rx="5" style="fill:#c1c5c8"/><rect x="1" y="6" width="30" height="20" rx="5" style="fill:none;stroke:#6f7a7b;stroke-linecap:round;stroke-linejoin:round;stroke-width:2px"/><path d="M7,10H7a1.959,1.959,0,0,1,2,2" style="fill:none;stroke:#6f7a7b;stroke-linecap:round;stroke-linejoin:round;stroke-width:2px"/><path d="M11,10h0a1.959,1.959,0,0,0-2,2v8" style="fill:none;stroke:#6f7a7b;stroke-linecap:round;stroke-linejoin:round;stroke-width:2px"/><path d="M11,22h0a1.959,1.959,0,0,1-2-2" style="fill:none;stroke:#6f7a7b;stroke-linecap:round;stroke-linejoin:round;stroke-width:2px"/><path d="M7,22H7a1.959,1.959,0,0,0,2-2" style="fill:none;stroke:#6f7a7b;stroke-linecap:round;stroke-linejoin:round;stroke-width:2px"/><circle cx="16" cy="22" r="1" style="fill:#6f7a7b"/><circle cx="20" cy="22" r="1" style="fill:#6f7a7b"/><circle cx="24" cy="22" r="1" style="fill:#6f7a7b"/></g></svg>