<svg xmlns="http://www.w3.org/2000/svg" viewBox="0 0 32 32"><title>6-File</title><g id="_6-File" data-name="6-File"><circle cx="20" cy="10" r="3" style="fill:#f2f2f2"/><path d="M28,4V25l-4-4-4,4-8-8L4,25V7l6-6H25A3,3,0,0,1,28,4Zm-5,6a3,3,0,1,0-3,3A3,3,0,0,0,23,10Z" style="fill:#c1c5c8"/><path d="M28,25v3a3,3,0,0,1-3,3H7a3,3,0,0,1-3-3V25l8-8,8,8,4-4Z" style="fill:#f2f2f2"/><path d="M28,25V4a3,3,0,0,0-3-3H10L4,7V28a3,3,0,0,0,3,3H25a3,3,0,0,0,3-3Z" style="fill:none;stroke:#6f7a7b;stroke-linecap:round;stroke-linejoin:round;stroke-width:2px"/><polyline points="4 25 12 17 20 25 24 21 28 25" style="fill:none;stroke:#6f7a7b;stroke-linecap:round;stroke-linejoin:round;stroke-width:2px"/><circle cx="20" cy="10" r="3" style="fill:none;stroke:#6f7a7b;stroke-linecap:round;stroke-linejoin:round;stroke-width:2px"/></g></svg>