<svg xmlns="http://www.w3.org/2000/svg" viewBox="0 0 32 32"><title>7-Graphic File</title><g id="_7-Graphic_File" data-name="7-Graphic File"><path d="M28,4V28a3,3,0,0,1-3,3H7a3,3,0,0,1-3-3V7l6-6H25A3,3,0,0,1,28,4Z" style="fill:#f2f2f2"/><path d="M18,22v3a.979.979,0,0,1-1,1H15a.979.979,0,0,1-1-1V22Z" style="fill:#f2f2f2"/><path d="M16,8l5,6s-3,3-3,6v2H14V20c0-3-3-6-3-6Z" style="fill:#c1c5c8"/><path d="M25,1H10L4,7V28a3,3,0,0,0,3,3H25a3,3,0,0,0,3-3V4A3,3,0,0,0,25,1Z" style="fill:none;stroke:#6f7a7b;stroke-linecap:round;stroke-linejoin:round;stroke-width:2px"/><path d="M18,22V20c0-3,3-6,3-6L16,8l-5,6s3,3,3,6v5a.979.979,0,0,0,1,1h2a.979.979,0,0,0,1-1Z" style="fill:none;stroke:#6f7a7b;stroke-linecap:round;stroke-linejoin:round;stroke-width:2px"/><line x1="16" y1="8" x2="16" y2="13" style="fill:none;stroke:#6f7a7b;stroke-linecap:round;stroke-linejoin:round;stroke-width:2px"/><line x1="14" y1="22" x2="18" y2="22" style="fill:none;stroke:#6f7a7b;stroke-linecap:round;stroke-linejoin:round;stroke-width:2px"/></g></svg>