<svg xmlns="http://www.w3.org/2000/svg" viewBox="0 0 32 32"><title>11-Speaker</title><g id="_11-Speaker" data-name="11-Speaker"><circle cx="16" cy="24" r="3" style="fill:#f2f2f2"/><circle cx="16" cy="11" r="6" style="fill:#f2f2f2"/><path d="M27,4V28a3,3,0,0,1-3,3H8a3,3,0,0,1-3-3V4A3,3,0,0,1,8,1H24A3,3,0,0,1,27,4Zm-5,7a6,6,0,1,0-6,6A6,6,0,0,0,22,11ZM19,24a3,3,0,1,0-3,3A3,3,0,0,0,19,24Z" style="fill:#c1c5c8"/><rect x="5" y="1" width="22" height="30" rx="3" style="fill:none;stroke:#6f7a7b;stroke-linecap:round;stroke-linejoin:round;stroke-width:2px"/><circle cx="16" cy="11" r="6" style="fill:none;stroke:#6f7a7b;stroke-linecap:round;stroke-linejoin:round;stroke-width:2px"/><circle cx="16" cy="24" r="3" style="fill:none;stroke:#6f7a7b;stroke-linecap:round;stroke-linejoin:round;stroke-width:2px"/><circle cx="16" cy="11" r="1" style="fill:#6f7a7b"/></g></svg>