<svg xmlns="http://www.w3.org/2000/svg" viewBox="0 0 32 32"><title>13-Control</title><g id="_13-Control" data-name="13-Control"><path d="M28,9v2a1,1,0,0,1-1,1H23a1,1,0,0,1-1-1V9a1,1,0,0,1,1-1h4A1,1,0,0,1,28,9Z" style="fill:#c1c5c8"/><path d="M19,21v2a1,1,0,0,1-1,1H14a1,1,0,0,1-1-1V21a1,1,0,0,1,1-1h4A1,1,0,0,1,19,21Z" style="fill:#c1c5c8"/><path d="M10,13v2a1,1,0,0,1-1,1H5a1,1,0,0,1-1-1V13a1,1,0,0,1,1-1H9A1,1,0,0,1,10,13Z" style="fill:#c1c5c8"/><rect x="4" y="12" width="6" height="4" rx="1" style="fill:none;stroke:#6f7a7b;stroke-linecap:round;stroke-linejoin:round;stroke-width:2px"/><rect x="13" y="20" width="6" height="4" rx="1" style="fill:none;stroke:#6f7a7b;stroke-linecap:round;stroke-linejoin:round;stroke-width:2px"/><line x1="7" y1="12" x2="7" y2="1" style="fill:none;stroke:#6f7a7b;stroke-linecap:round;stroke-linejoin:round;stroke-width:2px"/><line x1="7" y1="16" x2="7" y2="31" style="fill:none;stroke:#6f7a7b;stroke-linecap:round;stroke-linejoin:round;stroke-width:2px"/><line x1="16" y1="24" x2="16" y2="31" style="fill:none;stroke:#6f7a7b;stroke-linecap:round;stroke-linejoin:round;stroke-width:2px"/><line x1="16" y1="20" x2="16" y2="1" style="fill:none;stroke:#6f7a7b;stroke-linecap:round;stroke-linejoin:round;stroke-width:2px"/><rect x="22" y="8" width="6" height="4" rx="1" style="fill:none;stroke:#6f7a7b;stroke-linecap:round;stroke-linejoin:round;stroke-width:2px"/><line x1="25" y1="12" x2="25" y2="31" style="fill:none;stroke:#6f7a7b;stroke-linecap:round;stroke-linejoin:round;stroke-width:2px"/><line x1="25" y1="8" x2="25" y2="1" style="fill:none;stroke:#6f7a7b;stroke-linecap:round;stroke-linejoin:round;stroke-width:2px"/></g></svg>