<svg xmlns="http://www.w3.org/2000/svg" viewBox="0 0 32 32"><title>14-Pause</title><g id="_14-Pause" data-name="14-Pause"><circle cx="16" cy="16" r="15" style="fill:#c1c5c8"/><path d="M22,12v8a2,2,0,0,1-4,0V12a2,2,0,0,1,4,0Z" style="fill:#f2f2f2"/><path d="M14,12v8a2,2,0,0,1-4,0V12a2,2,0,0,1,4,0Z" style="fill:#f2f2f2"/><circle cx="16" cy="16" r="15" style="fill:none;stroke:#6f7a7b;stroke-linecap:round;stroke-linejoin:round;stroke-width:2px"/><path d="M10,20a2,2,0,0,0,4,0V12a2,2,0,0,0-4,0Z" style="fill:none;stroke:#6f7a7b;stroke-linecap:round;stroke-linejoin:round;stroke-width:2px"/><path d="M18,20a2,2,0,0,0,4,0V12a2,2,0,0,0-4,0Z" style="fill:none;stroke:#6f7a7b;stroke-linecap:round;stroke-linejoin:round;stroke-width:2px"/></g></svg>