<svg xmlns="http://www.w3.org/2000/svg" viewBox="0 0 32 32"><title>17-Tape</title><g id="_17-Tape" data-name="17-Tape"><path d="M26,22v5H6V22a1.959,1.959,0,0,1,2-2H24A1.959,1.959,0,0,1,26,22Z" style="fill:#f2f2f2"/><path d="M31,8V24a3,3,0,0,1-3,3H26V22a1.959,1.959,0,0,0-2-2H8a1.959,1.959,0,0,0-2,2v5H4a3,3,0,0,1-3-3V8A3,3,0,0,1,4,5H28A3,3,0,0,1,31,8Z" style="fill:#c1c5c8"/><circle cx="24" cy="12" r="2" style="fill:#f2f2f2"/><path d="M24,14H8a2,2,0,0,0,0-4H24a2,2,0,0,0,0,4Z" style="fill:#f2f2f2"/><circle cx="8" cy="12" r="2" style="fill:#f2f2f2"/><rect x="1" y="5" width="30" height="22" rx="3" style="fill:none;stroke:#6f7a7b;stroke-linecap:round;stroke-linejoin:round;stroke-width:2px"/><path d="M6,12a2,2,0,0,0,2,2H24a2,2,0,0,0,0-4H8a2,2,0,0,0-2,2" style="fill:none;stroke:#6f7a7b;stroke-linecap:round;stroke-linejoin:round;stroke-width:2px"/><circle cx="8" cy="12" r="2" style="fill:none;stroke:#6f7a7b;stroke-linecap:round;stroke-linejoin:round;stroke-width:2px"/><circle cx="24" cy="12" r="2" style="fill:none;stroke:#6f7a7b;stroke-linecap:round;stroke-linejoin:round;stroke-width:2px"/><path d="M6,27V22a1.959,1.959,0,0,1,2-2H24a1.959,1.959,0,0,1,2,2v5" style="fill:none;stroke:#6f7a7b;stroke-linecap:round;stroke-linejoin:round;stroke-width:2px"/></g></svg>