<svg xmlns="http://www.w3.org/2000/svg" viewBox="0 0 32 32"><title>23-Microphone</title><g id="_23-Microphone" data-name="23-Microphone"><path d="M23,8v8A7,7,0,0,1,9,16V8A7,7,0,0,1,23,8Z" style="fill:#c1c5c8"/><circle cx="19" cy="11" r="2" style="fill:#f2f2f2"/><path d="M16,1A7,7,0,0,0,9,8v8a7,7,0,0,0,14,0" style="fill:none;stroke:#6f7a7b;stroke-linecap:round;stroke-linejoin:round;stroke-width:2px"/><path d="M26,21s-2,6-10,6S6,21,6,21" style="fill:none;stroke:#6f7a7b;stroke-linecap:round;stroke-linejoin:round;stroke-width:2px"/><line x1="16" y1="31" x2="16" y2="27" style="fill:none;stroke:#6f7a7b;stroke-linecap:round;stroke-linejoin:round;stroke-width:2px"/><circle cx="19" cy="11" r="2" style="fill:none;stroke:#6f7a7b;stroke-linecap:round;stroke-linejoin:round;stroke-width:2px"/><path d="M21,11V1s5,0,5,5" style="fill:none;stroke:#6f7a7b;stroke-linecap:round;stroke-linejoin:round;stroke-width:2px"/></g></svg>