<svg xmlns="http://www.w3.org/2000/svg" viewBox="0 0 32 32"><title>25-Control</title><g id="_25-Control" data-name="25-Control"><circle cx="16" cy="16" r="7" style="fill:#f2f2f2"/><path d="M16,1A15,15,0,1,1,1,16,15.005,15.005,0,0,1,16,1Zm7,15a7,7,0,1,0-7,7A6.995,6.995,0,0,0,23,16Z" style="fill:#c1c5c8"/><circle cx="16" cy="16" r="15" style="fill:none;stroke:#6f7a7b;stroke-linecap:round;stroke-linejoin:round;stroke-width:2px"/><circle cx="16" cy="16" r="7" style="fill:none;stroke:#6f7a7b;stroke-linecap:round;stroke-linejoin:round;stroke-width:2px"/><line x1="12" y1="12" x2="15" y2="15" style="fill:none;stroke:#6f7a7b;stroke-linecap:round;stroke-linejoin:round;stroke-width:2px"/><circle cx="24" cy="8" r="1" style="fill:#6f7a7b"/><circle cx="24" cy="24" r="1" style="fill:#6f7a7b"/><circle cx="16" cy="27" r="1" style="fill:#6f7a7b"/><circle cx="8" cy="24" r="1" style="fill:#6f7a7b"/><circle cx="5" cy="16" r="1" style="fill:#6f7a7b"/><circle cx="8" cy="8" r="1" style="fill:#6f7a7b"/><circle cx="16" cy="5" r="1" style="fill:#6f7a7b"/><circle cx="27" cy="16" r="1" style="fill:#6f7a7b"/></g></svg>