<svg xmlns="http://www.w3.org/2000/svg" viewBox="0 0 32 32"><title>29-Tape</title><g id="_29-Tape" data-name="29-Tape"><path d="M26,24v5H6V24a1.959,1.959,0,0,1,2-2H24A1.959,1.959,0,0,1,26,24Z" style="fill:#ebeff3"/><path d="M31,10V26a3,3,0,0,1-3,3H26V24a1.959,1.959,0,0,0-2-2H8a1.959,1.959,0,0,0-2,2v5H4a3,3,0,0,1-3-3V10A3,3,0,0,1,4,7H28A3,3,0,0,1,31,10Z" style="fill:#c1c5c8"/><circle cx="24" cy="14" r="2" style="fill:#ebeff3"/><path d="M24,16H8a2,2,0,0,0,0-4H24a2,2,0,0,0,0,4Z" style="fill:#ebeff3"/><circle cx="8" cy="14" r="2" style="fill:#ebeff3"/><circle cx="17" cy="13" r="2" style="fill:#f2f2f2"/><path d="M28,7a3,3,0,0,1,3,3V26a3,3,0,0,1-3,3H4a3,3,0,0,1-3-3V10A3,3,0,0,1,4,7H15" style="fill:none;stroke:#6f7a7b;stroke-linecap:round;stroke-linejoin:round;stroke-width:2px"/><circle cx="8" cy="14" r="2" style="fill:none;stroke:#6f7a7b;stroke-linecap:round;stroke-linejoin:round;stroke-width:2px"/><path d="M23,12h1a2,2,0,0,1,0,4H23" style="fill:none;stroke:#6f7a7b;stroke-linecap:round;stroke-linejoin:round;stroke-width:2px"/><path d="M6,29V24a1.959,1.959,0,0,1,2-2H24a1.959,1.959,0,0,1,2,2v5" style="fill:none;stroke:#6f7a7b;stroke-linecap:round;stroke-linejoin:round;stroke-width:2px"/><circle cx="17" cy="13" r="2" style="fill:none;stroke:#6f7a7b;stroke-linecap:round;stroke-linejoin:round;stroke-width:2px"/><path d="M19,13V3s5,0,5,5" style="fill:none;stroke:#6f7a7b;stroke-linecap:round;stroke-linejoin:round;stroke-width:2px"/><line x1="8" y1="16" x2="12" y2="16" style="fill:none;stroke:#6f7a7b;stroke-linecap:round;stroke-linejoin:round;stroke-width:2px"/></g></svg>