<svg xmlns="http://www.w3.org/2000/svg" viewBox="0 0 32 32"><title>3-Smartphone</title><g id="_3-Smartphone" data-name="3-Smartphone"><rect x="6" y="1" width="20" height="30" rx="3" style="fill:#f2f2f2"/><path d="M26,4a3,3,0,0,0-3-3H9A3,3,0,0,0,6,4V8H26Z" style="fill:#c1c5c8"/><path d="M6,28a3,3,0,0,0,3,3H23a3,3,0,0,0,3-3V24H6Z" style="fill:#c1c5c8"/><circle cx="14" cy="20" r="2" style="fill:#f2f2f2"/><rect x="6" y="1" width="20" height="30" rx="3" style="fill:none;stroke:#6f7a7b;stroke-linecap:round;stroke-linejoin:round;stroke-width:2px"/><line x1="12" y1="5" x2="16" y2="5" style="fill:none;stroke:#6f7a7b;stroke-linecap:round;stroke-linejoin:round;stroke-width:2px"/><circle cx="14" cy="20" r="2" style="fill:none;stroke:#6f7a7b;stroke-linecap:round;stroke-linejoin:round;stroke-width:2px"/><path d="M16,20V10s5,0,5,5" style="fill:none;stroke:#6f7a7b;stroke-linecap:round;stroke-linejoin:round;stroke-width:2px"/><circle cx="20" cy="5" r="1" style="fill:#6f7a7b"/><circle cx="16" cy="27" r="1" style="fill:#6f7a7b"/></g></svg>