<svg xmlns="http://www.w3.org/2000/svg" viewBox="0 0 32 32"><title>30-File</title><g id="_30-File" data-name="30-File"><path d="M28,11H22a4,4,0,0,1-4-4V1Z" style="fill:#ebeff3"/><path d="M28,11V27a4,4,0,0,1-4,4H8a4,4,0,0,1-4-4V5A4,4,0,0,1,8,1H18V7a4,4,0,0,0,4,4Z" style="fill:#c1c5c8"/><circle cx="12" cy="24" r="2" style="fill:#f2f2f2"/><path d="M18,1H8A4,4,0,0,0,4,5V27a4,4,0,0,0,4,4H24a4,4,0,0,0,4-4V11Z" style="fill:none;stroke:#6f7a7b;stroke-linecap:round;stroke-linejoin:round;stroke-width:2px"/><path d="M18,1V7a4,4,0,0,0,4,4h6" style="fill:none;stroke:#6f7a7b;stroke-linecap:round;stroke-linejoin:round;stroke-width:2px"/><circle cx="12" cy="24" r="2" style="fill:none;stroke:#6f7a7b;stroke-linecap:round;stroke-linejoin:round;stroke-width:2px"/><path d="M14,24V14s5,0,5,5" style="fill:none;stroke:#6f7a7b;stroke-linecap:round;stroke-linejoin:round;stroke-width:2px"/><circle cx="17" cy="26" r="1" style="fill:#6f7a7b"/></g></svg>