<svg xmlns="http://www.w3.org/2000/svg" viewBox="0 0 32 32"><title>31-Music</title><g id="_31-Music" data-name="31-Music"><path d="M6,1V31H5a4,4,0,0,1-4-4V5A4,4,0,0,1,5,1Z" style="fill:#f2f2f2"/><path d="M31,5V27a4,4,0,0,1-4,4H6V1H27A4,4,0,0,1,31,5Z" style="fill:#c1c5c8"/><circle cx="15" cy="20" r="2" style="fill:#f2f2f2"/><rect x="1" y="1" width="30" height="30" rx="4" style="fill:none;stroke:#6f7a7b;stroke-linecap:round;stroke-linejoin:round;stroke-width:2px"/><line x1="6" y1="1" x2="6" y2="31" style="fill:none;stroke:#6f7a7b;stroke-linecap:round;stroke-linejoin:round;stroke-width:2px"/><circle cx="15" cy="20" r="2" style="fill:none;stroke:#6f7a7b;stroke-linecap:round;stroke-linejoin:round;stroke-width:2px"/><path d="M17,20V10s5,0,5,5" style="fill:none;stroke:#6f7a7b;stroke-linecap:round;stroke-linejoin:round;stroke-width:2px"/><circle cx="20" cy="22" r="1" style="fill:#6f7a7b"/></g></svg>