<svg xmlns="http://www.w3.org/2000/svg" viewBox="0 0 32 32"><title>35-Speaker</title><g id="_35-Speaker" data-name="35-Speaker"><path d="M27,16V31s-9,0-9-7H13A8,8,0,0,1,13,8h5c0-7,9-7,9-7Z" style="fill:#c1c5c8"/><path d="M18,8V24c0,7,9,7,9,7V1S18,1,18,8Z" style="fill:#f2f2f2"/><path d="M27,16V1s-9,0-9,7H13a8,8,0,0,0-8,8" style="fill:none;stroke:#6f7a7b;stroke-linecap:round;stroke-linejoin:round;stroke-width:2px"/><path d="M27,16V31s-9,0-9-7H13a8,8,0,0,1-8-8" style="fill:none;stroke:#6f7a7b;stroke-linecap:round;stroke-linejoin:round;stroke-width:2px"/><circle cx="18" cy="12" r="1" style="fill:#6f7a7b"/><circle cx="18" cy="16" r="1" style="fill:#6f7a7b"/><circle cx="18" cy="20" r="1" style="fill:#6f7a7b"/></g></svg>