<svg xmlns="http://www.w3.org/2000/svg" viewBox="0 0 32 32"><title>36-Speaker</title><g id="_36-Speaker" data-name="36-Speaker"><path d="M25,16V31s-9,0-9-7H11A8,8,0,0,1,11,8h5c0-7,9-7,9-7Z" style="fill:#c1c5c8"/><path d="M16,8V24c0,7,9,7,9,7V1S16,1,16,8Z" style="fill:#f2f2f2"/><path d="M3,16a8,8,0,0,1,8-8h5c0-7,9-7,9-7v9" style="fill:none;stroke:#6f7a7b;stroke-linecap:round;stroke-linejoin:round;stroke-width:2px"/><path d="M3,16a8,8,0,0,0,8,8h5c0,7,9,7,9,7V22" style="fill:none;stroke:#6f7a7b;stroke-linecap:round;stroke-linejoin:round;stroke-width:2px"/><line x1="23" y1="13" x2="29" y2="19" style="fill:none;stroke:#6f7a7b;stroke-linecap:round;stroke-linejoin:round;stroke-width:2px"/><line x1="29" y1="13" x2="23" y2="19" style="fill:none;stroke:#6f7a7b;stroke-linecap:round;stroke-linejoin:round;stroke-width:2px"/><circle cx="16" cy="12" r="1" style="fill:#6f7a7b"/><circle cx="16" cy="16" r="1" style="fill:#6f7a7b"/><circle cx="16" cy="20" r="1" style="fill:#6f7a7b"/></g></svg>