<svg xmlns="http://www.w3.org/2000/svg" viewBox="0 0 32 32"><title>40-Speaker</title><g id="_40-Speaker" data-name="40-Speaker"><path d="M25,16V31s-9,0-9-7H11A8,8,0,0,1,11,8h5c0-7,9-7,9-7Z" style="fill:#c1c5c8"/><path d="M16,8V24c0,7,9,7,9,7V1S16,1,16,8Z" style="fill:#f2f2f2"/><path d="M25,11V1s-9,0-9,7H11a8,8,0,0,0-8,8" style="fill:none;stroke:#6f7a7b;stroke-linecap:round;stroke-linejoin:round;stroke-width:2px"/><path d="M25,21V31s-9,0-9-7H11a8,8,0,0,1-8-8" style="fill:none;stroke:#6f7a7b;stroke-linecap:round;stroke-linejoin:round;stroke-width:2px"/><line x1="29" y1="16" x2="21" y2="16" style="fill:none;stroke:#6f7a7b;stroke-linecap:round;stroke-linejoin:round;stroke-width:2px"/><circle cx="16" cy="12" r="1" style="fill:#6f7a7b"/><circle cx="16" cy="16" r="1" style="fill:#6f7a7b"/><circle cx="16" cy="20" r="1" style="fill:#6f7a7b"/></g></svg>