<svg xmlns="http://www.w3.org/2000/svg" viewBox="0 0 32 32"><title>44-Headphone</title><g id="_44-Headphone" data-name="44-Headphone"><path d="M16,23v3H12V13H11C8,13,5,9,5,9V3A1.959,1.959,0,0,1,7,1h4c5,0,5,5,5,5Z" style="fill:#c1c5c8"/><path d="M16,26v2c0,3-4,3-4,3V26Z" style="fill:#f2f2f2"/><path d="M16,24v4c0,3-4,3-4,3V13H11C8,13,5,9,5,9V3A1.959,1.959,0,0,1,7,1h4c5,0,5,5,5,5V8" style="fill:none;stroke:#6f7a7b;stroke-linecap:round;stroke-linejoin:round;stroke-width:2px"/><line x1="12" y1="26" x2="16" y2="26" style="fill:none;stroke:#6f7a7b;stroke-linecap:round;stroke-linejoin:round;stroke-width:2px"/><polyline points="20 12 27 19 22 24 22 14" style="fill:none;stroke:#6f7a7b;stroke-linecap:round;stroke-linejoin:round;stroke-width:2px"/><polyline points="20 20 27 13 22 8 22 18" style="fill:none;stroke:#6f7a7b;stroke-linecap:round;stroke-linejoin:round;stroke-width:2px"/><circle cx="9" cy="6" r="1" style="fill:#6f7a7b"/><circle cx="16" cy="12" r="1" style="fill:#6f7a7b"/><circle cx="16" cy="16" r="1" style="fill:#6f7a7b"/><circle cx="16" cy="20" r="1" style="fill:#6f7a7b"/></g></svg>