<svg xmlns="http://www.w3.org/2000/svg" viewBox="0 0 32 32"><title>45-Tape</title><g id="_45-Tape" data-name="45-Tape"><path d="M26,22v5H6V22a1.959,1.959,0,0,1,2-2H24A1.959,1.959,0,0,1,26,22Z" style="fill:#f2f2f2"/><path d="M31,8V24a3,3,0,0,1-3,3H26V22a1.959,1.959,0,0,0-2-2H8a1.959,1.959,0,0,0-2,2v5H4a3,3,0,0,1-3-3V8A3,3,0,0,1,4,5H28A3,3,0,0,1,31,8Z" style="fill:#c1c5c8"/><circle cx="23" cy="14" r="2" style="fill:#ebeff3"/><path d="M21,14a2.006,2.006,0,0,0,2,2H9a2,2,0,0,0,0-4H23A2.006,2.006,0,0,0,21,14Z" style="fill:#ebeff3"/><circle cx="9" cy="14" r="2" style="fill:#ebeff3"/><rect x="1" y="5" width="30" height="22" rx="3" style="fill:none;stroke:#6f7a7b;stroke-linecap:round;stroke-linejoin:round;stroke-width:2px"/><path d="M6,27V22a1.959,1.959,0,0,1,2-2H24a1.959,1.959,0,0,1,2,2v5" style="fill:none;stroke:#6f7a7b;stroke-linecap:round;stroke-linejoin:round;stroke-width:2px"/><line x1="16" y1="5" x2="16" y2="8" style="fill:none;stroke:#6f7a7b;stroke-linecap:round;stroke-linejoin:round;stroke-width:2px"/><line x1="20" y1="5" x2="20" y2="8" style="fill:none;stroke:#6f7a7b;stroke-linecap:round;stroke-linejoin:round;stroke-width:2px"/><line x1="24" y1="5" x2="24" y2="8" style="fill:none;stroke:#6f7a7b;stroke-linecap:round;stroke-linejoin:round;stroke-width:2px"/><line x1="12" y1="5" x2="12" y2="8" style="fill:none;stroke:#6f7a7b;stroke-linecap:round;stroke-linejoin:round;stroke-width:2px"/><line x1="8" y1="5" x2="8" y2="8" style="fill:none;stroke:#6f7a7b;stroke-linecap:round;stroke-linejoin:round;stroke-width:2px"/><circle cx="9" cy="14" r="2" style="fill:none;stroke:#6f7a7b;stroke-linecap:round;stroke-linejoin:round;stroke-width:2px"/><circle cx="23" cy="14" r="2" style="fill:none;stroke:#6f7a7b;stroke-linecap:round;stroke-linejoin:round;stroke-width:2px"/><line x1="9" y1="12" x2="23" y2="12" style="fill:none;stroke:#6f7a7b;stroke-linecap:round;stroke-linejoin:round;stroke-width:2px"/><line x1="9" y1="16" x2="23" y2="16" style="fill:none;stroke:#6f7a7b;stroke-linecap:round;stroke-linejoin:round;stroke-width:2px"/></g></svg>