<svg xmlns="http://www.w3.org/2000/svg" viewBox="0 0 32 32"><title>46-Headphone</title><g id="_46-Headphone" data-name="46-Headphone"><path d="M14,23v3H10V13H9C6,13,3,9,3,9V3A1.959,1.959,0,0,1,5,1H9c5,0,5,5,5,5Z" style="fill:#c1c5c8"/><path d="M14,26v2c0,3-4,3-4,3V26Z" style="fill:#f2f2f2"/><path d="M22,26v5s-4,0-4-3V26Z" style="fill:#f2f2f2"/><path d="M29,3V9s-3,4-6,4H22V26H18V6s0-5,5-5h4A1.959,1.959,0,0,1,29,3Z" style="fill:#c1c5c8"/><path d="M14,21v7c0,3-4,3-4,3V13H9C6,13,3,9,3,9V3A1.959,1.959,0,0,1,5,1H9c5,0,5,5,5,5V9" style="fill:none;stroke:#6f7a7b;stroke-linecap:round;stroke-linejoin:round;stroke-width:2px"/><line x1="10" y1="26" x2="14" y2="26" style="fill:none;stroke:#6f7a7b;stroke-linecap:round;stroke-linejoin:round;stroke-width:2px"/><path d="M18,21v7c0,3,4,3,4,3V13h1c3,0,6-4,6-4V3a1.959,1.959,0,0,0-2-2H23c-5,0-5,5-5,5V9" style="fill:none;stroke:#6f7a7b;stroke-linecap:round;stroke-linejoin:round;stroke-width:2px"/><line x1="22" y1="26" x2="18" y2="26" style="fill:none;stroke:#6f7a7b;stroke-linecap:round;stroke-linejoin:round;stroke-width:2px"/><line x1="14" y1="13" x2="18" y2="17" style="fill:none;stroke:#6f7a7b;stroke-linecap:round;stroke-linejoin:round;stroke-width:2px"/><line x1="18" y1="13" x2="14" y2="17" style="fill:none;stroke:#6f7a7b;stroke-linecap:round;stroke-linejoin:round;stroke-width:2px"/><circle cx="7" cy="6" r="1" style="fill:#6f7a7b"/><circle cx="25" cy="6" r="1" style="fill:#6f7a7b"/></g></svg>