<svg xmlns="http://www.w3.org/2000/svg" viewBox="0 0 32 32"><title>50-Headphone</title><g id="_50-Headphone" data-name="50-Headphone"><path d="M12,23v3H8V13H7C4,13,1,9,1,9V3A1.959,1.959,0,0,1,3,1H7c5,0,5,5,5,5Z" style="fill:#c1c5c8"/><path d="M12,26v2c0,3-4,3-4,3V26Z" style="fill:#f2f2f2"/><path d="M22,23v3H18V13H17c-3,0-6-4-6-4V3a1.959,1.959,0,0,1,2-2h4c5,0,5,5,5,5Z" style="fill:#c1c5c8"/><path d="M22,26v2c0,3-4,3-4,3V26Z" style="fill:#f2f2f2"/><rect x="27" y="12" width="4" height="8" rx="1" style="fill:#f2f2f2"/><path d="M22,23V6s0-5-5-5H13a1.959,1.959,0,0,0-2,2V9s3,4,6,4h1V31s4,0,4-3Z" style="fill:none;stroke:#6f7a7b;stroke-linecap:round;stroke-linejoin:round;stroke-width:2px"/><line x1="18" y1="26" x2="22" y2="26" style="fill:none;stroke:#6f7a7b;stroke-linecap:round;stroke-linejoin:round;stroke-width:2px"/><path d="M7,1H3A1.959,1.959,0,0,0,1,3V9s3,4,6,4H8V31s4,0,4-3V15" style="fill:none;stroke:#6f7a7b;stroke-linecap:round;stroke-linejoin:round;stroke-width:2px"/><line x1="8" y1="26" x2="12" y2="26" style="fill:none;stroke:#6f7a7b;stroke-linecap:round;stroke-linejoin:round;stroke-width:2px"/><path d="M25,31s4,0,4-4V20" style="fill:none;stroke:#6f7a7b;stroke-linecap:round;stroke-linejoin:round;stroke-width:2px"/><rect x="27" y="12" width="4" height="8" rx="1" style="fill:none;stroke:#6f7a7b;stroke-linecap:round;stroke-linejoin:round;stroke-width:2px"/><line x1="29" y1="12" x2="29" y2="9" style="fill:none;stroke:#6f7a7b;stroke-linecap:round;stroke-linejoin:round;stroke-width:2px"/><circle cx="5" cy="6" r="1" style="fill:#6f7a7b"/><circle cx="15" cy="6" r="1" style="fill:#6f7a7b"/></g></svg>