<svg xmlns="http://www.w3.org/2000/svg" viewBox="0 0 32 32"><title>6-Cd</title><g id="_6-Cd" data-name="6-Cd"><circle cx="16" cy="16" r="3" style="fill:#ebeff3"/><path d="M16,1A15,15,0,1,1,1,16,15.005,15.005,0,0,1,16,1Zm3,15a3,3,0,1,0-3,3A3,3,0,0,0,19,16Z" style="fill:#c1c5c8"/><circle cx="24" cy="11" r="2" style="fill:#f2f2f2"/><path d="M30.146,11A14.988,14.988,0,1,1,22,2.248" style="fill:none;stroke:#6f7a7b;stroke-linecap:round;stroke-linejoin:round;stroke-width:2px"/><circle cx="16" cy="16" r="3" style="fill:none;stroke:#6f7a7b;stroke-linecap:round;stroke-linejoin:round;stroke-width:2px"/><path d="M16,26A10,10,0,0,1,6,16" style="fill:none;stroke:#6f7a7b;stroke-linecap:round;stroke-linejoin:round;stroke-width:2px"/><circle cx="24" cy="11" r="2" style="fill:none;stroke:#6f7a7b;stroke-linecap:round;stroke-linejoin:round;stroke-width:2px"/><path d="M26,11V1s5,0,5,5" style="fill:none;stroke:#6f7a7b;stroke-linecap:round;stroke-linejoin:round;stroke-width:2px"/></g></svg>