<svg xmlns="http://www.w3.org/2000/svg" viewBox="0 0 32 32"><title>8-Music</title><g id="_8-Music" data-name="8-Music"><path d="M31,15c0,6.63-5.72,12-14,12l-5,2V26C5.66,25.6,1,20.52,1,15,1,8.37,7.72,3,16,3S31,8.37,31,15Z" style="fill:#c1c5c8"/><circle cx="14" cy="18" r="2" style="fill:#f2f2f2"/><path d="M16,3C7.716,3,1,8.373,1,15c0,5.517,4.661,10.6,11,11v3l5-2c8.284,0,14-5.373,14-12S24.284,3,16,3Z" style="fill:none;stroke:#6f7a7b;stroke-linecap:round;stroke-linejoin:round;stroke-width:2px"/><circle cx="14" cy="18" r="2" style="fill:none;stroke:#6f7a7b;stroke-linecap:round;stroke-linejoin:round;stroke-width:2px"/><path d="M16,18V8s5,0,5,5" style="fill:none;stroke:#6f7a7b;stroke-linecap:round;stroke-linejoin:round;stroke-width:2px"/></g></svg>