<svg xmlns="http://www.w3.org/2000/svg" viewBox="0 0 32 32"><title>16-Speech bubble</title><g id="_16-Speech_bubble" data-name="16-Speech bubble"><path d="M31,17c0,6.63-5.72,12-14,12l-5,2V28C5.66,27.6,1,22.52,1,17,1,10.37,7.72,5,16,5S31,10.37,31,17Z" style="fill:#f2f2f2"/><path d="M27,3V13a2.006,2.006,0,0,1-2,2H18l-3,3-3-3H9a2.006,2.006,0,0,1-2-2V3A2.006,2.006,0,0,1,9,1H25A2.006,2.006,0,0,1,27,3Z" style="fill:#c1c5c8"/><path d="M7,7.4C3.357,9.588,1,13.074,1,17c0,5.517,4.661,10.6,11,11v3l5-2c8.284,0,14-5.373,14-12a9.889,9.889,0,0,0-1-4.317" style="fill:none;stroke:#6f7a7b;stroke-linecap:round;stroke-linejoin:round;stroke-width:2px"/><path d="M25,1H9A2,2,0,0,0,7,3V13a2,2,0,0,0,2,2h3l3,3,3-3h7a2,2,0,0,0,2-2V3A2,2,0,0,0,25,1Z" style="fill:none;stroke:#6f7a7b;stroke-linecap:round;stroke-linejoin:round;stroke-width:2px"/><line x1="17" y1="8" x2="17" y2="8" style="fill:none;stroke:#6f7a7b;stroke-linecap:round;stroke-linejoin:round;stroke-width:2px"/><line x1="21" y1="8" x2="21" y2="8" style="fill:none;stroke:#6f7a7b;stroke-linecap:round;stroke-linejoin:round;stroke-width:2px"/><line x1="13" y1="8" x2="13" y2="8" style="fill:none;stroke:#6f7a7b;stroke-linecap:round;stroke-linejoin:round;stroke-width:2px"/></g></svg>