<svg xmlns="http://www.w3.org/2000/svg" viewBox="0 0 32 32"><title>17-Speech bubble</title><g id="_17-Speech_bubble" data-name="17-Speech bubble"><path d="M31,15V25a1,1,0,0,1-1,1H27l-2,2-2-2H14a1,1,0,0,1-1-1V15a1,1,0,0,1,1-1H30A1,1,0,0,1,31,15Z" style="fill:#c1c5c8"/><path d="M17,6v8H14a1,1,0,0,0-1,1v5H8L6,22,4,20H3a2.006,2.006,0,0,1-2-2V6A2.006,2.006,0,0,1,3,4H15A2.006,2.006,0,0,1,17,6Z" style="fill:#f2f2f2"/><path d="M17,14V6a2.006,2.006,0,0,0-2-2H3A2.006,2.006,0,0,0,1,6V18a2.006,2.006,0,0,0,2,2H4l2,2,2-2h5" style="fill:none;stroke:#6f7a7b;stroke-linecap:round;stroke-linejoin:round;stroke-width:2px"/><path d="M13,20v5a1,1,0,0,0,1,1h9l2,2,2-2h3a1,1,0,0,0,1-1V15a1,1,0,0,0-1-1H14a1,1,0,0,0-1,1Z" style="fill:none;stroke:#6f7a7b;stroke-linecap:round;stroke-linejoin:round;stroke-width:2px"/><line x1="22" y1="20" x2="22" y2="20" style="fill:none;stroke:#6f7a7b;stroke-linecap:round;stroke-linejoin:round;stroke-width:2px"/><line x1="26" y1="20" x2="26" y2="20" style="fill:none;stroke:#6f7a7b;stroke-linecap:round;stroke-linejoin:round;stroke-width:2px"/><line x1="18" y1="20" x2="18" y2="20" style="fill:none;stroke:#6f7a7b;stroke-linecap:round;stroke-linejoin:round;stroke-width:2px"/><line x1="6" y1="9" x2="12" y2="9" style="fill:none;stroke:#6f7a7b;stroke-linecap:round;stroke-linejoin:round;stroke-width:2px"/><line x1="6" y1="13" x2="8" y2="13" style="fill:none;stroke:#6f7a7b;stroke-linecap:round;stroke-linejoin:round;stroke-width:2px"/></g></svg>