<svg xmlns="http://www.w3.org/2000/svg" viewBox="0 0 32 32"><title>19-Speech bubble</title><g id="_19-Speech_bubble" data-name="19-Speech bubble"><path d="M31,7V21a4,4,0,0,1-4,4H22l-4,4-4-4H5a4,4,0,0,1-4-4V7A4,4,0,0,1,5,3H27A4,4,0,0,1,31,7Z" style="fill:#c1c5c8"/><circle cx="12" cy="18" r="2" style="fill:#ebeff3"/><circle cx="12" cy="10" r="2" style="fill:#ebeff3"/><path d="M27,3H5A4,4,0,0,0,1,7V21a4,4,0,0,0,4,4h9l4,4,4-4h5a4,4,0,0,0,4-4V7A4,4,0,0,0,27,3Z" style="fill:none;stroke:#6f7a7b;stroke-linecap:round;stroke-linejoin:round;stroke-width:2px"/><circle cx="12" cy="10" r="2" style="fill:none;stroke:#6f7a7b;stroke-linecap:round;stroke-linejoin:round;stroke-width:2px"/><circle cx="12" cy="18" r="2" style="fill:none;stroke:#6f7a7b;stroke-linecap:round;stroke-linejoin:round;stroke-width:2px"/><path d="M23,19A5,5,0,0,1,23,9" style="fill:none;stroke:#6f7a7b;stroke-linecap:round;stroke-linejoin:round;stroke-width:2px"/></g></svg>