<svg xmlns="http://www.w3.org/2000/svg" viewBox="0 0 32 32"><title>21-Speech bubble</title><g id="_21-Speech_bubble" data-name="21-Speech bubble"><path d="M31,15c0,6.63-5.72,12-14,12l-5,2V26C5.66,25.6,1,20.52,1,15,1,8.37,7.72,3,16,3S31,8.37,31,15Z" style="fill:#c1c5c8"/><path d="M16,3C7.72,3,1,8.37,1,15c0,5.52,4.66,10.6,11,11v3l5-2c8.28,0,14-5.37,14-12S24.28,3,16,3Z" style="fill:none;stroke:#6f7a7b;stroke-linecap:round;stroke-linejoin:round;stroke-width:2px"/><line x1="16" y1="9" x2="16" y2="17" style="fill:none;stroke:#6f7a7b;stroke-linecap:round;stroke-linejoin:round;stroke-width:2px"/><line x1="16" y1="21" x2="16" y2="21" style="fill:none;stroke:#6f7a7b;stroke-linecap:round;stroke-linejoin:round;stroke-width:2px"/></g></svg>