<svg xmlns="http://www.w3.org/2000/svg" viewBox="0 0 32 32"><title>23-Post Card</title><g id="_23-Post_Card" data-name="23-Post Card"><rect x="19" y="9" width="7" height="6" rx="1" style="fill:#f2f2f2"/><path d="M31,6V26a2.006,2.006,0,0,1-2,2H3a2.006,2.006,0,0,1-2-2V6A2.006,2.006,0,0,1,3,4H29A2.006,2.006,0,0,1,31,6Zm-5,8V10a1,1,0,0,0-1-1H20a1,1,0,0,0-1,1v4a1,1,0,0,0,1,1h5A1,1,0,0,0,26,14Z" style="fill:#c1c5c8"/><rect x="19" y="9" width="7" height="6" rx="1" style="fill:none;stroke:#6f7a7b;stroke-linecap:round;stroke-linejoin:round;stroke-width:2px"/><path d="M3,4A2.006,2.006,0,0,0,1,6V26a2.006,2.006,0,0,0,2,2h7V4Z" style="fill:#f2f2f2"/><rect x="1" y="4" width="30" height="24" rx="2" style="fill:none;stroke:#6f7a7b;stroke-linecap:round;stroke-linejoin:round;stroke-width:2px"/><rect x="19" y="9" width="7" height="6" rx="1" style="fill:none;stroke:#6f7a7b;stroke-linecap:round;stroke-linejoin:round;stroke-width:2px"/><line x1="10" y1="9" x2="10" y2="23" style="fill:none;stroke:#6f7a7b;stroke-linecap:round;stroke-linejoin:round;stroke-width:2px"/><line x1="15" y1="19" x2="26" y2="19" style="fill:none;stroke:#6f7a7b;stroke-linecap:round;stroke-linejoin:round;stroke-width:2px"/><line x1="21" y1="23" x2="26" y2="23" style="fill:none;stroke:#6f7a7b;stroke-linecap:round;stroke-linejoin:round;stroke-width:2px"/></g></svg>