<svg xmlns="http://www.w3.org/2000/svg" viewBox="0 0 32 32"><title>24-Speech bubble</title><g id="_24-Speech_bubble" data-name="24-Speech bubble"><path d="M31,17c0,6.63-5.72,12-14,12l-5,2V28C5.66,27.6,1,22.52,1,17,1,10.37,7.72,5,16,5S31,10.37,31,17Z" style="fill:#c1c5c8"/><path d="M9,6.384C4.242,8.4,1,12.4,1,17c0,5.517,4.661,10.6,11,11v3l5-2c8.284,0,14-5.373,14-12a9.751,9.751,0,0,0-.473-3" style="fill:none;stroke:#6f7a7b;stroke-linecap:round;stroke-linejoin:round;stroke-width:2px"/><path d="M29,9c0,3.58-2.94,6.61-7,7.63V20l-3-3C13.48,17,9,13.42,9,9s4.48-8,10-8S29,4.58,29,9Z" style="fill:#f2f2f2"/><path d="M29,9c0-4.42-4.48-8-10-8S9,4.58,9,9s4.48,8,10,8l3,3V16.63C26.06,15.61,29,12.58,29,9Z" style="fill:none;stroke:#6f7a7b;stroke-linecap:round;stroke-linejoin:round;stroke-width:2px"/><line x1="19" y1="9" x2="19" y2="9" style="fill:none;stroke:#6f7a7b;stroke-linecap:round;stroke-linejoin:round;stroke-width:2px"/><line x1="23" y1="9" x2="23" y2="9" style="fill:none;stroke:#6f7a7b;stroke-linecap:round;stroke-linejoin:round;stroke-width:2px"/><line x1="15" y1="9" x2="15" y2="9" style="fill:none;stroke:#6f7a7b;stroke-linecap:round;stroke-linejoin:round;stroke-width:2px"/></g></svg>