<svg xmlns="http://www.w3.org/2000/svg" viewBox="0 0 32 32"><title>25-Speech bubble</title><g id="_25-Speech_bubble" data-name="25-Speech bubble"><path d="M31,9V23a4,4,0,0,1-4,4H22l-4,4-4-4H5a4,4,0,0,1-4-4V9A4,4,0,0,1,5,5H27A4,4,0,0,1,31,9Z" style="fill:#f2f2f2"/><path d="M29.646,6A3.991,3.991,0,0,1,31,9V23a4,4,0,0,1-4,4H22l-4,4-4-4H5a4,4,0,0,1-4-4V9A4,4,0,0,1,5,5H7" style="fill:none;stroke:#6f7a7b;stroke-linecap:round;stroke-linejoin:round;stroke-width:2px"/><path d="M26,9c0,3.58-2.94,6.61-7,7.63V20l-3-3C10.48,17,6,13.42,6,9s4.48-8,10-8S26,4.58,26,9Z" style="fill:#c1c5c8"/><path d="M26,9c0-4.42-4.48-8-10-8S6,4.58,6,9s4.48,8,10,8l3,3V16.63C23.06,15.61,26,12.58,26,9Z" style="fill:none;stroke:#6f7a7b;stroke-linecap:round;stroke-linejoin:round;stroke-width:2px"/><line x1="16" y1="9" x2="16" y2="9" style="fill:none;stroke:#6f7a7b;stroke-linecap:round;stroke-linejoin:round;stroke-width:2px"/><line x1="20" y1="9" x2="20" y2="9" style="fill:none;stroke:#6f7a7b;stroke-linecap:round;stroke-linejoin:round;stroke-width:2px"/><line x1="12" y1="9" x2="12" y2="9" style="fill:none;stroke:#6f7a7b;stroke-linecap:round;stroke-linejoin:round;stroke-width:2px"/></g></svg>