<svg xmlns="http://www.w3.org/2000/svg" viewBox="0 0 32 32"><title>26-Smartphone</title><g id="_26-Smartphone" data-name="26-Smartphone"><path d="M25,4a3,3,0,0,0-3-3H6A3,3,0,0,0,3,4V31H25Z" style="fill:#f2f2f2"/><path d="M25,4a3,3,0,0,0-3-3H6A3,3,0,0,0,3,4V8H25Z" style="fill:#c1c5c8"/><path d="M25,11V4a3,3,0,0,0-3-3H6A3,3,0,0,0,3,4V31" style="fill:none;stroke:#6f7a7b;stroke-linecap:round;stroke-linejoin:round;stroke-width:2px"/><line x1="10" y1="5" x2="14" y2="5" style="fill:none;stroke:#6f7a7b;stroke-linecap:round;stroke-linejoin:round;stroke-width:2px"/><line x1="18" y1="5" x2="18" y2="5" style="fill:none;stroke:#6f7a7b;stroke-linecap:round;stroke-linejoin:round;stroke-width:2px"/><path d="M29,13V23a2.006,2.006,0,0,1-2,2H20l-3,3-3-3H11a2.006,2.006,0,0,1-2-2V13a2.006,2.006,0,0,1,2-2H27A2.006,2.006,0,0,1,29,13Z" style="fill:#c1c5c8"/><path d="M27,11H11a2.006,2.006,0,0,0-2,2V23a2.006,2.006,0,0,0,2,2h3l3,3,3-3h7a2.006,2.006,0,0,0,2-2V13A2.006,2.006,0,0,0,27,11Z" style="fill:none;stroke:#6f7a7b;stroke-linecap:round;stroke-linejoin:round;stroke-width:2px"/><line x1="19" y1="18" x2="19" y2="18" style="fill:none;stroke:#6f7a7b;stroke-linecap:round;stroke-linejoin:round;stroke-width:2px"/><line x1="23" y1="18" x2="23" y2="18" style="fill:none;stroke:#6f7a7b;stroke-linecap:round;stroke-linejoin:round;stroke-width:2px"/><line x1="15" y1="18" x2="15" y2="18" style="fill:none;stroke:#6f7a7b;stroke-linecap:round;stroke-linejoin:round;stroke-width:2px"/><line x1="25" y1="25" x2="25" y2="31" style="fill:none;stroke:#6f7a7b;stroke-linecap:round;stroke-linejoin:round;stroke-width:2px"/></g></svg>