<svg xmlns="http://www.w3.org/2000/svg" viewBox="0 0 32 32"><title>28-Smartphone</title><g id="_28-Smartphone" data-name="28-Smartphone"><path d="M27,4a3,3,0,0,0-3-3H8A3,3,0,0,0,5,4V31H27Z" style="fill:#f2f2f2"/><path d="M27,4a3,3,0,0,0-3-3H8A3,3,0,0,0,5,4V8H27Z" style="fill:#c1c5c8"/><path d="M27,31V4a3,3,0,0,0-3-3H8A3,3,0,0,0,5,4V31" style="fill:none;stroke:#6f7a7b;stroke-linecap:round;stroke-linejoin:round;stroke-width:2px"/><line x1="12" y1="5" x2="16" y2="5" style="fill:none;stroke:#6f7a7b;stroke-linecap:round;stroke-linejoin:round;stroke-width:2px"/><line x1="20" y1="5" x2="20" y2="5" style="fill:none;stroke:#6f7a7b;stroke-linecap:round;stroke-linejoin:round;stroke-width:2px"/><rect x="9" y="9" width="14" height="22" style="fill:#f2f2f2"/><rect x="9" y="9" width="14" height="22" style="fill:none;stroke:#6f7a7b;stroke-linecap:round;stroke-linejoin:round;stroke-width:2px"/></g></svg>