<svg xmlns="http://www.w3.org/2000/svg" viewBox="0 0 32 32"><title>3-Smartphone</title><g id="_3-Smartphone" data-name="3-Smartphone"><rect x="4" y="1" width="20" height="30" rx="3" style="fill:#f2f2f2"/><path d="M24,4a3,3,0,0,0-3-3H7A3,3,0,0,0,4,4V8H24Z" style="fill:#c1c5c8"/><path d="M4,28a3,3,0,0,0,3,3H21a3,3,0,0,0,3-3V24H4Z" style="fill:#c1c5c8"/><path d="M24,6V4a3,3,0,0,0-3-3H7A3,3,0,0,0,4,4V28a3,3,0,0,0,3,3H21a3,3,0,0,0,3-3V23" style="fill:none;stroke:#6f7a7b;stroke-linecap:round;stroke-linejoin:round;stroke-width:2px"/><line x1="14" y1="27" x2="14" y2="27" style="fill:none;stroke:#6f7a7b;stroke-linecap:round;stroke-linejoin:round;stroke-width:2px"/><path d="M28,8V18a1,1,0,0,1-1,1H22l-3,3-3-3H13a1,1,0,0,1-1-1V8a1,1,0,0,1,1-1H27A1,1,0,0,1,28,8Z" style="fill:#f2f2f2"/><path d="M27,7H13a1,1,0,0,0-1,1V18a1,1,0,0,0,1,1h3l3,3,3-3h5a1,1,0,0,0,1-1V8A1,1,0,0,0,27,7Z" style="fill:none;stroke:#6f7a7b;stroke-linecap:round;stroke-linejoin:round;stroke-width:2px"/><line x1="17" y1="11" x2="23" y2="11" style="fill:none;stroke:#6f7a7b;stroke-linecap:round;stroke-linejoin:round;stroke-width:2px"/><line x1="17" y1="15" x2="23" y2="15" style="fill:none;stroke:#6f7a7b;stroke-linecap:round;stroke-linejoin:round;stroke-width:2px"/></g></svg>