<svg xmlns="http://www.w3.org/2000/svg" viewBox="0 0 32 32"><title>31-Mail box</title><g id="_31-Mail_box" data-name="31-Mail box"><path d="M31,22v6a3,3,0,0,1-3,3H4a3,3,0,0,1-3-3V22a3.037,3.037,0,0,1,2.01-2.87A3.655,3.655,0,0,1,4,19H9l1,4H22l1-4h5a4.453,4.453,0,0,1,.53.03A2.97,2.97,0,0,1,31,22Z" style="fill:#c1c5c8"/><path d="M29,19l-.47.03A4.453,4.453,0,0,0,28,19H23l-1,4H10L9,19H4a3.655,3.655,0,0,0-.99.13L3,19V16L4,7A1.959,1.959,0,0,1,6,5H26a1.959,1.959,0,0,1,2,2l1,9Z" style="fill:#f2f2f2"/><path d="M28,19H23l-1,4H10L9,19H4a2.938,2.938,0,0,0-3,3v6a3,3,0,0,0,3,3H28a3,3,0,0,0,3-3V22A2.938,2.938,0,0,0,28,19Z" style="fill:none;stroke:#6f7a7b;stroke-linecap:round;stroke-linejoin:round;stroke-width:2px"/><path d="M3,16,4,7A1.959,1.959,0,0,1,6,5H8" style="fill:none;stroke:#6f7a7b;stroke-linecap:round;stroke-linejoin:round;stroke-width:2px"/><path d="M29,16,28,7a1.959,1.959,0,0,0-2-2H24" style="fill:none;stroke:#6f7a7b;stroke-linecap:round;stroke-linejoin:round;stroke-width:2px"/><line x1="13" y1="27" x2="19" y2="27" style="fill:none;stroke:#6f7a7b;stroke-linecap:round;stroke-linejoin:round;stroke-width:2px"/><path d="M23.66,1.25,16,7,8.34,1.25A.985.985,0,0,1,9,1H23A.985.985,0,0,1,23.66,1.25Z" style="fill:#c1c5c8"/><path d="M24,2V12a1,1,0,0,1-1,1H9a1,1,0,0,1-1-1V2a.983.983,0,0,1,.34-.75L16,7l7.66-5.75A.983.983,0,0,1,24,2Z" style="fill:#f2f2f2"/><path d="M8.34,1.25A.983.983,0,0,0,8,2V12a1,1,0,0,0,1,1H23a1,1,0,0,0,1-1V2a1,1,0,0,0-1-1H9A.985.985,0,0,0,8.34,1.25Z" style="fill:none;stroke:#6f7a7b;stroke-linecap:round;stroke-linejoin:round;stroke-width:2px"/><polyline points="8.34 1.25 16 7 23.66 1.25" style="fill:none;stroke:#6f7a7b;stroke-linecap:round;stroke-linejoin:round;stroke-width:2px"/><line x1="16" y1="17" x2="16" y2="18" style="fill:none;stroke:#6f7a7b;stroke-linecap:round;stroke-linejoin:round;stroke-width:2px"/><line x1="20" y1="17" x2="20" y2="17" style="fill:none;stroke:#6f7a7b;stroke-linecap:round;stroke-linejoin:round;stroke-width:2px"/><line x1="12" y1="17" x2="12" y2="17" style="fill:none;stroke:#6f7a7b;stroke-linecap:round;stroke-linejoin:round;stroke-width:2px"/></g></svg>