<svg xmlns="http://www.w3.org/2000/svg" viewBox="0 0 32 32"><title>34-Telephone</title><g id="_34-Telephone" data-name="34-Telephone"><path d="M28,8v4a1,1,0,0,1-1,1H24l-2,2-2-2H11a1,1,0,0,1-1-1V2a1,1,0,0,1,1-1H27a1,1,0,0,1,1,1Z" style="fill:#c1c5c8"/><path d="M13,28v1a2.006,2.006,0,0,1-2,2H7a2.006,2.006,0,0,1-2-2V7A2.006,2.006,0,0,1,7,5h3v7a1,1,0,0,0,1,1h2Z" style="fill:#f2f2f2"/><path d="M31,10V26a2.006,2.006,0,0,1-2,2H13V13h7l2,2,2-2h3a1,1,0,0,0,1-1V8h1A2.006,2.006,0,0,1,31,10Z" style="fill:#f2f2f2"/><path d="M5,8V28H3a2.006,2.006,0,0,1-2-2V10A2.006,2.006,0,0,1,3,8Z" style="fill:#c1c5c8"/><path d="M10,5H7A2.006,2.006,0,0,0,5,7V29a2.006,2.006,0,0,0,2,2h4a2.006,2.006,0,0,0,2-2V13" style="fill:none;stroke:#6f7a7b;stroke-linecap:round;stroke-linejoin:round;stroke-width:2px"/><path d="M13,28H29a2.006,2.006,0,0,0,2-2V10a2.006,2.006,0,0,0-2-2H28" style="fill:none;stroke:#6f7a7b;stroke-linecap:round;stroke-linejoin:round;stroke-width:2px"/><path d="M5,8H3a2.006,2.006,0,0,0-2,2V26a2.006,2.006,0,0,0,2,2H5" style="fill:none;stroke:#6f7a7b;stroke-linecap:round;stroke-linejoin:round;stroke-width:2px"/><path d="M28,8V2a1,1,0,0,0-1-1H11a1,1,0,0,0-1,1V12a1,1,0,0,0,1,1h9l2,2,2-2h3a1,1,0,0,0,1-1Z" style="fill:none;stroke:#6f7a7b;stroke-linecap:round;stroke-linejoin:round;stroke-width:2px"/><line x1="18" y1="20" x2="18" y2="20" style="fill:none;stroke:#6f7a7b;stroke-linecap:round;stroke-linejoin:round;stroke-width:2px"/><line x1="22" y1="20" x2="22" y2="20" style="fill:none;stroke:#6f7a7b;stroke-linecap:round;stroke-linejoin:round;stroke-width:2px"/><line x1="26" y1="20" x2="26" y2="20" style="fill:none;stroke:#6f7a7b;stroke-linecap:round;stroke-linejoin:round;stroke-width:2px"/><line x1="18" y1="23" x2="18" y2="23" style="fill:none;stroke:#6f7a7b;stroke-linecap:round;stroke-linejoin:round;stroke-width:2px"/><line x1="22" y1="23" x2="22" y2="23" style="fill:none;stroke:#6f7a7b;stroke-linecap:round;stroke-linejoin:round;stroke-width:2px"/><line x1="26" y1="23" x2="26" y2="23" style="fill:none;stroke:#6f7a7b;stroke-linecap:round;stroke-linejoin:round;stroke-width:2px"/><line x1="15" y1="5" x2="23" y2="5" style="fill:none;stroke:#6f7a7b;stroke-linecap:round;stroke-linejoin:round;stroke-width:2px"/><line x1="15" y1="9" x2="21" y2="9" style="fill:none;stroke:#6f7a7b;stroke-linecap:round;stroke-linejoin:round;stroke-width:2px"/></g></svg>