<svg xmlns="http://www.w3.org/2000/svg" viewBox="0 0 32 32"><title>37-Communication</title><g id="_37-Communication" data-name="37-Communication"><path d="M2,1H14c0,2.76-2.69,5-6,5S2,3.76,2,1Z" style="fill:#f2f2f2"/><path d="M29,31H17c0-2.76,2.69-5,6-5S29,28.24,29,31Z" style="fill:#f2f2f2"/><path d="M17,31c0-2.761,2.686-5,6-5s6,2.239,6,5" style="fill:none;stroke:#6f7a7b;stroke-linecap:round;stroke-linejoin:round;stroke-width:2px"/><path d="M14,1c0,2.761-2.686,5-6,5S2,3.761,2,1" style="fill:none;stroke:#6f7a7b;stroke-linecap:round;stroke-linejoin:round;stroke-width:2px"/><path d="M27,21.5a4.907,4.907,0,0,1-.52,2.22,3.8,3.8,0,0,1-6.96,0A4.907,4.907,0,0,1,19,21.5,4.269,4.269,0,0,1,23,17,4.269,4.269,0,0,1,27,21.5Z" style="fill:#f2f2f2"/><path d="M12,10.5a4.8,4.8,0,0,1-.21,1.43A4.057,4.057,0,0,1,8,15a4.057,4.057,0,0,1-3.79-3.07A4.8,4.8,0,0,1,4,10.5,4.269,4.269,0,0,1,8,6,4.269,4.269,0,0,1,12,10.5Z" style="fill:#f2f2f2"/><path d="M26.48,23.72A4.907,4.907,0,0,0,27,21.5,4.269,4.269,0,0,0,23,17a4.269,4.269,0,0,0-4,4.5,4.907,4.907,0,0,0,.52,2.22L19,24H13L9,27V24H3a2.006,2.006,0,0,1-2-2V14a2.006,2.006,0,0,1,2-2H4l.21-.07A4.057,4.057,0,0,0,8,15a4.057,4.057,0,0,0,3.79-3.07L12,12h7l4-3v3h6a2.006,2.006,0,0,1,2,2v8a2.006,2.006,0,0,1-2,2H27Z" style="fill:#c1c5c8"/><path d="M19.52,23.72A4.907,4.907,0,0,1,19,21.5,4.269,4.269,0,0,1,23,17a4.269,4.269,0,0,1,4,4.5,4.907,4.907,0,0,1-.52,2.22,3.8,3.8,0,0,1-6.96,0Z" style="fill:none;stroke:#6f7a7b;stroke-linecap:round;stroke-linejoin:round;stroke-width:2px"/><path d="M4.21,11.93A4.8,4.8,0,0,1,4,10.5,4.269,4.269,0,0,1,8,6a4.269,4.269,0,0,1,4,4.5,4.8,4.8,0,0,1-.21,1.43A4.057,4.057,0,0,1,8,15,4.057,4.057,0,0,1,4.21,11.93Z" style="fill:none;stroke:#6f7a7b;stroke-linecap:round;stroke-linejoin:round;stroke-width:2px"/><path d="M27,24h2a2.006,2.006,0,0,0,2-2V14a2.006,2.006,0,0,0-2-2H23V9l-4,3H12" style="fill:none;stroke:#6f7a7b;stroke-linecap:round;stroke-linejoin:round;stroke-width:2px"/><path d="M4,12H3a2.006,2.006,0,0,0-2,2v8a2.006,2.006,0,0,0,2,2H9v3l4-3h6" style="fill:none;stroke:#6f7a7b;stroke-linecap:round;stroke-linejoin:round;stroke-width:2px"/><line x1="15" y1="18" x2="15" y2="18" style="fill:none;stroke:#6f7a7b;stroke-linecap:round;stroke-linejoin:round;stroke-width:2px"/><line x1="11" y1="18" x2="11" y2="18" style="fill:none;stroke:#6f7a7b;stroke-linecap:round;stroke-linejoin:round;stroke-width:2px"/></g></svg>