<svg xmlns="http://www.w3.org/2000/svg" viewBox="0 0 32 32"><title>4-Message</title><g id="_4-Message" data-name="4-Message"><path d="M31,10V22a4,4,0,0,1-4,4H5a4,4,0,0,1-4-4V10a3.992,3.992,0,0,1,.68-2.23L2,8l14,8L30,8l.32-.23A3.992,3.992,0,0,1,31,10Z" style="fill:#f2f2f2"/><path d="M30,8,16,16,2,8l-.32-.23A4,4,0,0,1,5,6H27a4,4,0,0,1,3.32,1.77Z" style="fill:#c1c5c8"/><line x1="13" y1="15" x2="6" y2="21" style="fill:none;stroke:#6f7a7b;stroke-linecap:round;stroke-linejoin:round;stroke-width:2px"/><line x1="18" y1="15" x2="26" y2="21" style="fill:none;stroke:#6f7a7b;stroke-linecap:round;stroke-linejoin:round;stroke-width:2px"/><path d="M1.68,7.77A3.992,3.992,0,0,0,1,10V22a4,4,0,0,0,4,4H27a4,4,0,0,0,4-4V10a4,4,0,0,0-4-4H5A4,4,0,0,0,1.68,7.77Z" style="fill:none;stroke:#6f7a7b;stroke-linecap:round;stroke-linejoin:round;stroke-width:2px"/><polyline points="2 8 16 16 30 8" style="fill:none;stroke:#6f7a7b;stroke-linecap:round;stroke-linejoin:round;stroke-width:2px"/></g></svg>