<svg xmlns="http://www.w3.org/2000/svg" viewBox="0 0 32 32"><title>42-Mail Box</title><g id="_42-Mail_Box" data-name="42-Mail Box"><polygon points="15 24 18 24 18 28 14 28 14 24 15 24" style="fill:#f2f2f2"/><polygon points="24 4 23.45 8.94 23 13 20 13 20 9 20 4 24 4" style="fill:#f2f2f2"/><path d="M20,13h3l.45-4.06L24,9h2a5,5,0,0,1,5,5V24H15V14c0-2.76-1.24-5-4-5h9Z" style="fill:#c1c5c8"/><path d="M15,14V24H1V14A5,5,0,0,1,6,9h5C13.76,9,15,11.24,15,14Z" style="fill:#f2f2f2"/><path d="M10,9H6a5,5,0,0,0-5,5V24H31V14a5,5,0,0,0-5-5H24" style="fill:none;stroke:#6f7a7b;stroke-linecap:round;stroke-linejoin:round;stroke-width:2px"/><path d="M15,24V14c0-2.76-1.24-5-4-5" style="fill:none;stroke:#6f7a7b;stroke-linecap:round;stroke-linejoin:round;stroke-width:2px"/><polyline points="20 17 20 13 20 9 20 4 24 4 23.45 8.94 23 13 20 13" style="fill:none;stroke:#6f7a7b;stroke-linecap:round;stroke-linejoin:round;stroke-width:2px"/><polyline points="20 9 11 9 10 9" style="fill:none;stroke:#6f7a7b;stroke-linecap:round;stroke-linejoin:round;stroke-width:2px"/><line x1="6" y1="14" x2="10" y2="14" style="fill:none;stroke:#6f7a7b;stroke-linecap:round;stroke-linejoin:round;stroke-width:2px"/><line x1="18" y1="28" x2="18" y2="24" style="fill:none;stroke:#6f7a7b;stroke-linecap:round;stroke-linejoin:round;stroke-width:2px"/><line x1="14" y1="24" x2="14" y2="28" style="fill:none;stroke:#6f7a7b;stroke-linecap:round;stroke-linejoin:round;stroke-width:2px"/></g></svg>