<svg xmlns="http://www.w3.org/2000/svg" viewBox="0 0 32 32"><title>43-Smartphone</title><g id="_43-Smartphone" data-name="43-Smartphone"><rect x="6" y="1" width="20" height="30" rx="3" style="fill:#f2f2f2"/><path d="M26,4a3,3,0,0,0-3-3H9A3,3,0,0,0,6,4V8H26Z" style="fill:#c1c5c8"/><path d="M6,28a3,3,0,0,0,3,3H23a3,3,0,0,0,3-3V24H6Z" style="fill:#c1c5c8"/><path d="M22,24H10c0-2.76,2.69-5,6-5S22,21.24,22,24Z" style="fill:#f2f2f2"/><ellipse cx="16" cy="14.5" rx="4" ry="4.5" style="fill:#f2f2f2"/><rect x="6" y="1" width="20" height="30" rx="3" style="fill:none;stroke:#6f7a7b;stroke-linecap:round;stroke-linejoin:round;stroke-width:2px"/><line x1="12" y1="5" x2="16" y2="5" style="fill:none;stroke:#6f7a7b;stroke-linecap:round;stroke-linejoin:round;stroke-width:2px"/><line x1="20" y1="5" x2="20" y2="5" style="fill:none;stroke:#6f7a7b;stroke-linecap:round;stroke-linejoin:round;stroke-width:2px"/><line x1="16" y1="27" x2="16" y2="27" style="fill:none;stroke:#6f7a7b;stroke-linecap:round;stroke-linejoin:round;stroke-width:2px"/><ellipse cx="16" cy="14.5" rx="4" ry="4.5" style="fill:none;stroke:#6f7a7b;stroke-linecap:round;stroke-linejoin:round;stroke-width:2px"/><path d="M10,24c0-2.761,2.686-5,6-5s6,2.239,6,5" style="fill:none;stroke:#6f7a7b;stroke-linecap:round;stroke-linejoin:round;stroke-width:2px"/></g></svg>