<svg xmlns="http://www.w3.org/2000/svg" viewBox="0 0 32 32"><title>44-User</title><g id="_44-User" data-name="44-User"><circle cx="16" cy="16" r="15" style="fill:#c1c5c8"/><path d="M22,22H10c0-2.76,2.69-5,6-5S22,19.24,22,22Z" style="fill:#f2f2f2"/><path d="M20,12.5a4.907,4.907,0,0,1-.52,2.22A3.938,3.938,0,0,1,16,17a3.938,3.938,0,0,1-3.48-2.28A4.907,4.907,0,0,1,12,12.5,4.269,4.269,0,0,1,16,8,4.269,4.269,0,0,1,20,12.5Z" style="fill:#f2f2f2"/><circle cx="16" cy="16" r="15" style="fill:none;stroke:#6f7a7b;stroke-linecap:round;stroke-linejoin:round;stroke-width:2px"/><ellipse cx="16" cy="12.5" rx="4" ry="4.5" style="fill:none;stroke:#6f7a7b;stroke-linecap:round;stroke-linejoin:round;stroke-width:2px"/><path d="M10,22c0-2.761,2.686-5,6-5s6,2.239,6,5" style="fill:none;stroke:#6f7a7b;stroke-linecap:round;stroke-linejoin:round;stroke-width:2px"/></g></svg>