<svg xmlns="http://www.w3.org/2000/svg" viewBox="0 0 32 32"><title>45-User</title><g id="_45-User" data-name="45-User"><path d="M31,15c0,6.63-5.72,12-14,12l-5,2V26C5.66,25.6,1,20.52,1,15,1,8.37,7.72,3,16,3S31,8.37,31,15Z" style="fill:#f2f2f2"/><path d="M22,21H10c0-2.76,2.69-5,6-5S22,18.24,22,21Z" style="fill:#c1c5c8"/><path d="M20,11.5a4.907,4.907,0,0,1-.52,2.22A3.938,3.938,0,0,1,16,16a3.938,3.938,0,0,1-3.48-2.28A4.907,4.907,0,0,1,12,11.5,4.269,4.269,0,0,1,16,7,4.269,4.269,0,0,1,20,11.5Z" style="fill:#f2f2f2"/><path d="M16,3C7.716,3,1,8.373,1,15c0,5.517,4.661,10.6,11,11v3l5-2c8.284,0,14-5.373,14-12S24.284,3,16,3Z" style="fill:none;stroke:#6f7a7b;stroke-linecap:round;stroke-linejoin:round;stroke-width:2px"/><ellipse cx="16" cy="11.5" rx="4" ry="4.5" style="fill:none;stroke:#6f7a7b;stroke-linecap:round;stroke-linejoin:round;stroke-width:2px"/><path d="M10,21c0-2.761,2.686-5,6-5s6,2.239,6,5" style="fill:none;stroke:#6f7a7b;stroke-linecap:round;stroke-linejoin:round;stroke-width:2px"/></g></svg>