<svg xmlns="http://www.w3.org/2000/svg" viewBox="0 0 32 32"><title>49-Speech bubble</title><g id="_49-Speech_bubble" data-name="49-Speech bubble"><path d="M31,17c0,6.63-5.72,12-14,12l-5,2V28C5.66,27.6,1,22.52,1,17,1,10.37,7.72,5,16,5S31,10.37,31,17Z" style="fill:#f2f2f2"/><path d="M15,5.026C7.182,5.438,1,10.641,1,17c0,5.517,4.661,10.6,11,11v3l5-2c8.284,0,14-5.373,14-12a9.751,9.751,0,0,0-.473-3" style="fill:none;stroke:#6f7a7b;stroke-linecap:round;stroke-linejoin:round;stroke-width:2px"/><line x1="16" y1="17" x2="16" y2="17" style="fill:none;stroke:#6f7a7b;stroke-linecap:round;stroke-linejoin:round;stroke-width:2px"/><line x1="11" y1="17" x2="11" y2="17" style="fill:none;stroke:#6f7a7b;stroke-linecap:round;stroke-linejoin:round;stroke-width:2px"/><circle cx="22" cy="8" r="7" style="fill:#c1c5c8"/><circle cx="22" cy="8" r="7" style="fill:none;stroke:#6f7a7b;stroke-linecap:round;stroke-linejoin:round;stroke-width:2px"/><line x1="22" y1="5" x2="22" y2="8" style="fill:none;stroke:#6f7a7b;stroke-linecap:round;stroke-linejoin:round;stroke-width:2px"/><line x1="22" y1="11" x2="22" y2="11" style="fill:none;stroke:#6f7a7b;stroke-linecap:round;stroke-linejoin:round;stroke-width:2px"/></g></svg>