<svg xmlns="http://www.w3.org/2000/svg" viewBox="0 0 32 32"><title>5-Message</title><g id="_5-Message" data-name="5-Message"><path d="M31,6V18a4,4,0,0,1-4,4H5a4,4,0,0,1-4-4V6a3.992,3.992,0,0,1,.68-2.23L2,4l14,8L30,4l.32-.23A3.992,3.992,0,0,1,31,6Z" style="fill:#f2f2f2"/><path d="M30,4,16,12,2,4l-.32-.23A4,4,0,0,1,5,2H27a4,4,0,0,1,3.32,1.77Z" style="fill:#c1c5c8"/><path d="M31,12V6a4,4,0,0,0-4-4H5A4,4,0,0,0,1,6V18a4,4,0,0,0,4,4H15" style="fill:none;stroke:#6f7a7b;stroke-linecap:round;stroke-linejoin:round;stroke-width:2px"/><polyline points="2 4 16 12 30 4" style="fill:none;stroke:#6f7a7b;stroke-linecap:round;stroke-linejoin:round;stroke-width:2px"/><line x1="13" y1="11" x2="6" y2="17" style="fill:none;stroke:#6f7a7b;stroke-linecap:round;stroke-linejoin:round;stroke-width:2px"/><circle cx="23" cy="22" r="8" style="fill:#c1c5c8"/><circle cx="23" cy="22" r="8" style="fill:none;stroke:#6f7a7b;stroke-linecap:round;stroke-linejoin:round;stroke-width:2px"/><line x1="23" y1="19" x2="23" y2="25" style="fill:none;stroke:#6f7a7b;stroke-linecap:round;stroke-linejoin:round;stroke-width:2px"/><line x1="26" y1="22" x2="20" y2="22" style="fill:none;stroke:#6f7a7b;stroke-linecap:round;stroke-linejoin:round;stroke-width:2px"/></g></svg>