<svg xmlns="http://www.w3.org/2000/svg" viewBox="0 0 32 32"><title>50-Communication</title><g id="_50-Communication" data-name="50-Communication"><path d="M31,12V22a1,1,0,0,1-1,1H27l-2,2-2-2H14a1,1,0,0,1-1-1V12a1,1,0,0,1,1-1H30A1,1,0,0,1,31,12Z" style="fill:#c1c5c8"/><path d="M17,3v8H14a1,1,0,0,0-1,1v5H8L6,19,4,17H3a2.006,2.006,0,0,1-2-2V3A2.006,2.006,0,0,1,3,1H15A2.006,2.006,0,0,1,17,3Z" style="fill:#f2f2f2"/><path d="M16,31H4c0-2.76,2.69-5,6-5S16,28.24,16,31Z" style="fill:#c1c5c8"/><path d="M14,21.5a4.907,4.907,0,0,1-.52,2.22A3.938,3.938,0,0,1,10,26a3.938,3.938,0,0,1-3.48-2.28A4.907,4.907,0,0,1,6,21.5,4.269,4.269,0,0,1,10,17,4.269,4.269,0,0,1,14,21.5Z" style="fill:#f2f2f2"/><path d="M17,11V3a2,2,0,0,0-2-2H3A2,2,0,0,0,1,3V15a2,2,0,0,0,2,2H4" style="fill:none;stroke:#6f7a7b;stroke-linecap:round;stroke-linejoin:round;stroke-width:2px"/><path d="M14,23h9l2,2,2-2h3a1,1,0,0,0,1-1V12a1,1,0,0,0-1-1H14a1,1,0,0,0-1,1v6" style="fill:none;stroke:#6f7a7b;stroke-linecap:round;stroke-linejoin:round;stroke-width:2px"/><line x1="22" y1="17" x2="22" y2="17" style="fill:none;stroke:#6f7a7b;stroke-linecap:round;stroke-linejoin:round;stroke-width:2px"/><line x1="26" y1="17" x2="26" y2="17" style="fill:none;stroke:#6f7a7b;stroke-linecap:round;stroke-linejoin:round;stroke-width:2px"/><line x1="18" y1="17" x2="18" y2="17" style="fill:none;stroke:#6f7a7b;stroke-linecap:round;stroke-linejoin:round;stroke-width:2px"/><line x1="6" y1="6" x2="12" y2="6" style="fill:none;stroke:#6f7a7b;stroke-linecap:round;stroke-linejoin:round;stroke-width:2px"/><line x1="6" y1="10" x2="8" y2="10" style="fill:none;stroke:#6f7a7b;stroke-linecap:round;stroke-linejoin:round;stroke-width:2px"/><ellipse cx="10" cy="21.5" rx="4" ry="4.5" style="fill:none;stroke:#6f7a7b;stroke-linecap:round;stroke-linejoin:round;stroke-width:2px"/><path d="M4,31c0-2.761,2.686-5,6-5s6,2.239,6,5" style="fill:none;stroke:#6f7a7b;stroke-linecap:round;stroke-linejoin:round;stroke-width:2px"/></g></svg>