<svg xmlns="http://www.w3.org/2000/svg" viewBox="0 0 32 32"><title>8-Speech bubble</title><g id="_8-Speech_bubble" data-name="8-Speech bubble"><path d="M31,9V23a4,4,0,0,1-4,4H22l-4,4-4-4H5a4,4,0,0,1-4-4V9A4,4,0,0,1,5,5H27A4,4,0,0,1,31,9Z" style="fill:#f2f2f2"/><path d="M11,5H5A4,4,0,0,0,1,9V23a4,4,0,0,0,4,4h9l4,4,4-4h5a4,4,0,0,0,4-4V19" style="fill:none;stroke:#6f7a7b;stroke-linecap:round;stroke-linejoin:round;stroke-width:2px"/><path d="M31,3V13a2.006,2.006,0,0,1-2,2H22l-3,3-3-3H13a2.006,2.006,0,0,1-2-2V3a2.006,2.006,0,0,1,2-2H29A2.006,2.006,0,0,1,31,3Z" style="fill:#c1c5c8"/><path d="M29,1H13a2.006,2.006,0,0,0-2,2V13a2.006,2.006,0,0,0,2,2h3l3,3,3-3h7a2.006,2.006,0,0,0,2-2V3A2.006,2.006,0,0,0,29,1Z" style="fill:none;stroke:#6f7a7b;stroke-linecap:round;stroke-linejoin:round;stroke-width:2px"/><line x1="21" y1="8" x2="21" y2="8" style="fill:none;stroke:#6f7a7b;stroke-linecap:round;stroke-linejoin:round;stroke-width:2px"/><line x1="25" y1="8" x2="25" y2="8" style="fill:none;stroke:#6f7a7b;stroke-linecap:round;stroke-linejoin:round;stroke-width:2px"/><line x1="17" y1="8" x2="17" y2="8" style="fill:none;stroke:#6f7a7b;stroke-linecap:round;stroke-linejoin:round;stroke-width:2px"/></g></svg>