<?xml version="1.0" encoding="UTF-8"?><svg xmlns="http://www.w3.org/2000/svg" viewBox="0 0 24 24"><g id="a"/><g id="b"/><g id="c"/><g id="d"/><g id="e"/><g id="f"/><g id="g"/><g id="h"/><g id="i"/><g id="j"><g><path d="M19,12.25H5c-1.52,0-2.75,1.23-2.75,2.75v3c0,1.52,1.23,2.75,2.75,2.75h14c1.52,0,2.75-1.23,2.75-2.75v-3c0-1.52-1.23-2.75-2.75-2.75Zm-2.75,7H7.75v-.25c0-.14,.11-.25,.25-.25h8c.14,0,.25,.11,.25,.25v.25Zm4-1.25c0,.69-.56,1.25-1.25,1.25h-1.25v-.25c0-.96-.79-1.75-1.75-1.75H8c-.96,0-1.75,.79-1.75,1.75v.25h-1.25c-.69,0-1.25-.56-1.25-1.25v-3c0-.69,.56-1.25,1.25-1.25h14c.69,0,1.25,.56,1.25,1.25v3Z"/><path d="M18,15.25h-1c-.41,0-.75,.34-.75,.75s.34,.75,.75,.75h1c.41,0,.75-.34,.75-.75s-.34-.75-.75-.75Z"/><path d="M12.01,9.25c-.41,0-.74,.34-.74,.75s.34,.75,.75,.75,.75-.34,.75-.75-.34-.75-.75-.75h-.01Z"/><path d="M14.24,8.75c.18,0,.36-.06,.5-.19,.31-.28,.33-.75,.06-1.06-.71-.79-1.73-1.25-2.79-1.25s-2.08,.46-2.79,1.25c-.28,.31-.25,.78,.06,1.06,.31,.28,.78,.25,1.06-.06,.85-.95,2.5-.95,3.35,0,.15,.17,.35,.25,.56,.25Z"/><path d="M8.09,6.5c1-1.11,2.42-1.75,3.91-1.75s2.92,.64,3.91,1.75c.15,.17,.35,.25,.56,.25,.18,0,.36-.06,.5-.19,.31-.28,.33-.75,.06-1.06-1.28-1.43-3.11-2.25-5.03-2.25s-3.75,.82-5.03,2.25c-.28,.31-.25,.78,.06,1.06,.31,.28,.78,.25,1.06-.06Z"/></g></g><g id="k"/><g id="l"/><g id="m"/><g id="n"/><g id="o"/><g id="p"/><g id="q"/><g id="r"/><g id="s"/><g id="t"/><g id="u"/></svg>