<?xml version="1.0" encoding="UTF-8"?><svg xmlns="http://www.w3.org/2000/svg" viewBox="0 0 24 24"><g id="a"/><g id="b"/><g id="c"/><g id="d"/><g id="e"/><g id="f"/><g id="g"/><g id="h"/><g id="i"/><g id="j"/><g id="k"/><g id="l"/><g id="m"/><g id="n"/><g id="o"/><g id="p"/><g id="q"/><g id="r"/><g id="s"/><g id="t"><path d="M12,2.25C6.62,2.25,2.25,6.62,2.25,12s4.37,9.75,9.75,9.75,9.75-4.37,9.75-9.75S17.38,2.25,12,2.25Zm7.09,13.95c-.72-.02-1.44-.01-2.15,.05-1.74,.15-2.68,.5-3.37,.75-.6,.22-.9,.33-1.46,.25-1.01-.14-1.59-.77-2.32-1.57-.56-.61-1.18-1.28-2.06-1.79,.19-.07,.39-.14,.57-.22,.45-.2,.83-.41,1.19-.62,.61,.57,1.3,1.13,2.15,1.59,1.25,.67,2.7,1.01,4.33,1.01,1.13,0,2.34-.17,3.64-.49-.15,.35-.33,.69-.52,1.02ZM3.83,13.11c-.04-.28-.06-.56-.07-.85,.76-.94,1.52-1.46,2.29-1.51,.79-.05,1.45,.43,2.31,1.24-.21,.11-.43,.22-.66,.33-.85,.38-1.78,.63-2.75,.78-.36-.02-.73-.02-1.11,.02Zm6.96-.89c.12-.09,.25-.18,.36-.26,1.02-.75,1.67-1.24,2.82-1.21,1,.03,1.89,.32,2.56,.84,.31,.24,.51,.49,.75,.77,.31,.37,.65,.78,1.26,1.24,.1,.08,.22,.14,.33,.21-2.63,.6-4.82,.44-6.53-.47-.59-.32-1.09-.71-1.56-1.12Zm1.2-8.47c4.55,0,8.25,3.7,8.25,8.25,0,.29-.02,.58-.05,.87-.26-.14-.52-.29-.75-.47-.47-.35-.73-.66-1.01-1-.27-.32-.55-.66-.98-1-.92-.72-2.11-1.12-3.44-1.16-1.64-.05-2.66,.7-3.75,1.5-.19,.14-.39,.28-.59,.43-1.09-1.06-2.15-2.02-3.73-1.92-.67,.04-1.31,.28-1.93,.7,.91-3.56,4.14-6.2,7.98-6.2Zm0,16.5c-3.61,0-6.67-2.33-7.79-5.56,.27-.02,.54-.05,.81-.09,.27,.02,.54,.06,.8,.13,1.37,.34,2.1,1.14,2.87,1.98,.82,.89,1.67,1.82,3.21,2.04,.19,.03,.37,.04,.54,.04,.63,0,1.11-.17,1.64-.37,.65-.24,1.45-.53,2.99-.67,.29-.03,.59-.04,.88-.05-1.5,1.57-3.61,2.55-5.95,2.55Z"/></g><g id="u"/></svg>