<?xml version="1.0" encoding="UTF-8"?><svg xmlns="http://www.w3.org/2000/svg" viewBox="0 0 24 24"><g id="a"/><g id="b"/><g id="c"/><g id="d"/><g id="e"/><g id="f"/><g id="g"><path d="M20.53,8.77L14.9,3.4c-1.6-1.53-4.21-1.53-5.81,0L3.47,8.77c-.78,.74-1.22,1.77-1.22,2.82v6.18c0,2.19,1.85,3.97,4.13,3.97h11.25c2.27,0,4.13-1.78,4.13-3.97v-6.18c0-1.05-.44-2.08-1.22-2.82Zm-10.78,2.98h4.5v.25c0,1.24-1.01,2.25-2.25,2.25s-2.25-1.01-2.25-2.25v-.25Zm10.5,6.03c0,1.36-1.18,2.47-2.63,2.47h-4.88v-4.58c1.71-.35,3-1.86,3-3.67v-1c0-.41-.34-.75-.75-.75h-.25v-1.25c0-.41-.34-.75-.75-.75s-.75,.34-.75,.75v1.25h-2.5v-1.25c0-.41-.34-.75-.75-.75s-.75,.34-.75,.75v1.25h-.25c-.41,0-.75,.34-.75,.75v1c0,1.81,1.29,3.33,3,3.67v4.58H6.38c-1.45,0-2.63-1.11-2.63-2.47v-6.18c0-.65,.27-1.27,.76-1.74l5.63-5.37c.52-.49,1.19-.74,1.87-.74s1.35,.25,1.87,.74l5.63,5.37c.49,.47,.76,1.08,.76,1.74v6.18Z"/></g><g id="h"/><g id="i"/><g id="j"/><g id="k"/><g id="l"/><g id="m"/><g id="n"/><g id="o"/><g id="p"/><g id="q"/><g id="r"/><g id="s"/><g id="t"/><g id="u"/></svg>