<?xml version="1.0" encoding="UTF-8"?><svg xmlns="http://www.w3.org/2000/svg" viewBox="0 0 24 24"><g id="a"/><g id="b"/><g id="c"/><g id="d"/><g id="e"/><g id="f"/><g id="g"/><g id="h"/><g id="i"/><g id="j"/><g id="k"><g><path d="M20.53,8.77L14.9,3.4c-1.6-1.53-4.21-1.53-5.81,0L3.47,8.77c-.78,.74-1.22,1.77-1.22,2.82v6.18c0,2.19,1.85,3.97,4.13,3.97h11.25c2.27,0,4.13-1.78,4.13-3.97v-6.18c0-1.05-.44-2.08-1.22-2.82Zm-.28,9c0,1.36-1.18,2.47-2.63,2.47H6.38c-1.45,0-2.63-1.11-2.63-2.47v-6.18c0-.65,.27-1.27,.76-1.74l5.62-5.37c.52-.49,1.19-.74,1.87-.74s1.35,.25,1.87,.74l5.63,5.37c.49,.47,.76,1.08,.76,1.74v6.18Z"/><path d="M14.18,13.27l-2.72-.68,2.06-2.06c.29-.29,.29-.77,0-1.06s-.77-.29-1.06,0l-3,3c-.19,.19-.26,.47-.19,.73,.07,.26,.28,.46,.54,.53l2.72,.68-2.06,2.06c-.29,.29-.29,.77,0,1.06,.15,.15,.34,.22,.53,.22s.38-.07,.53-.22l3-3c.19-.19,.26-.47,.19-.73-.07-.26-.28-.46-.54-.53Z"/></g></g><g id="l"/><g id="m"/><g id="n"/><g id="o"/><g id="p"/><g id="q"/><g id="r"/><g id="s"/><g id="t"/><g id="u"/></svg>