<?xml version="1.0" encoding="UTF-8"?><svg xmlns="http://www.w3.org/2000/svg" viewBox="0 0 24 24"><g id="a"/><g id="b"/><g id="c"/><g id="d"/><g id="e"/><g id="f"/><g id="g"/><g id="h"/><g id="i"/><g id="j"/><g id="k"/><g id="l"><g><path d="M19,6.25H5c-1.52,0-2.75,1.23-2.75,2.75v7c0,1.52,1.23,2.75,2.75,2.75h14c1.52,0,2.75-1.23,2.75-2.75v-7c0-1.52-1.23-2.75-2.75-2.75Zm1.25,9.75c0,.69-.56,1.25-1.25,1.25H5c-.69,0-1.25-.56-1.25-1.25v-7c0-.69,.56-1.25,1.25-1.25h14c.69,0,1.25,.56,1.25,1.25v7Z"/><path d="M8.42,9.38c-.25-.17-.58-.17-.83,0l-3,2c-.34,.23-.44,.7-.21,1.04,.2,.29,.56,.39,.87,.28v1.31c0,.96,.79,1.75,1.75,1.75h2c.96,0,1.75-.79,1.75-1.75v-1.3c.08,.03,.17,.05,.25,.05,.24,0,.48-.12,.63-.33,.23-.34,.14-.81-.21-1.04l-3-2Zm.58,4.87h-2c-.14,0-.25-.11-.25-.25v-2.27l1.25-.83,1.25,.83v2.27c0,.14-.11,.25-.25,.25Z"/><path d="M19,10.25h-4.25v-.25c0-.41-.34-.75-.75-.75s-.75,.34-.75,.75v.25h-.25c-.41,0-.75,.34-.75,.75s.34,.75,.75,.75h.25v.25c0,.41,.34,.75,.75,.75s.75-.34,.75-.75v-.25h4.25c.41,0,.75-.34,.75-.75s-.34-.75-.75-.75Z"/><path d="M19,13.25h-.25v-.25c0-.41-.34-.75-.75-.75s-.75,.34-.75,.75v.25h-4.25c-.41,0-.75,.34-.75,.75s.34,.75,.75,.75h4.25v.25c0,.41,.34,.75,.75,.75s.75-.34,.75-.75v-.25h.25c.41,0,.75-.34,.75-.75s-.34-.75-.75-.75Z"/></g></g><g id="m"/><g id="n"/><g id="o"/><g id="p"/><g id="q"/><g id="r"/><g id="s"/><g id="t"/><g id="u"/></svg>