<?xml version="1.0" encoding="UTF-8"?><svg xmlns="http://www.w3.org/2000/svg" viewBox="0 0 24 24"><g id="a"/><g id="b"/><g id="c"/><g id="d"/><g id="e"/><g id="f"/><g id="g"/><g id="h"/><g id="i"/><g id="j"/><g id="k"/><g id="l"/><g id="m"/><g id="n"/><g id="o"/><g id="p"/><g id="q"><g><path d="M19.39,15.62l-.64-9.67h0c-.06-2.12-2.93-3.7-6.74-3.7s-6.69,1.58-6.74,3.69h0l-.64,9.68c-.11,1.6,.44,3.14,1.54,4.31s2.59,1.82,4.2,1.82h3.31c1.61,0,3.1-.65,4.2-1.82s1.65-2.71,1.54-4.31ZM6.6,8.3c1.21,.89,3.14,1.45,5.4,1.45s4.19-.56,5.4-1.45l.4,5.99s-.03,0-.04,0c-3.71,1.27-7.8,1.27-11.51,0-.01,0-.03,0-.04,0l.4-5.99ZM12,3.75c3,0,5.25,1.19,5.25,2.25s-2.25,2.25-5.25,2.25-5.25-1.19-5.25-2.25,2.25-2.25,5.25-2.25Zm4.76,15.15c-.81,.87-1.91,1.35-3.1,1.35h-3.31c-1.19,0-2.29-.48-3.1-1.35-.79-.84-1.19-1.94-1.13-3.09,1.91,.61,3.89,.94,5.89,.94s3.99-.32,5.89-.94c.05,1.15-.34,2.25-1.13,3.09Z"/><path d="M15.02,6.75c.42,0,.75-.34,.75-.75s-.33-.75-.75-.75h0c-.41,0-.75,.34-.75,.75s.34,.75,.75,.75Z"/><path d="M13.02,6.75c.42,0,.75-.34,.75-.75s-.33-.75-.75-.75h0c-.41,0-.75,.34-.75,.75s.34,.75,.75,.75Z"/></g></g><g id="r"/><g id="s"/><g id="t"/><g id="u"/></svg>