<?xml version="1.0" encoding="UTF-8"?><svg xmlns="http://www.w3.org/2000/svg" viewBox="0 0 24 24"><g id="a"/><g id="b"/><g id="c"/><g id="d"/><g id="e"/><g id="f"/><g id="g"/><g id="h"/><g id="i"/><g id="j"/><g id="k"/><g id="l"/><g id="m"/><g id="n"><g><path d="M20.53,8.77L14.9,3.4c-1.6-1.53-4.21-1.53-5.81,0L3.47,8.77c-.78,.74-1.22,1.77-1.22,2.82v6.18c0,2.19,1.85,3.97,4.13,3.97h11.25c2.27,0,4.13-1.78,4.13-3.97v-6.18c0-1.05-.44-2.08-1.22-2.82Zm-.28,9.01c0,1.36-1.18,2.47-2.63,2.47H6.38c-1.45,0-2.63-1.11-2.63-2.47v-6.18c0-.65,.27-1.27,.76-1.74l5.63-5.37c.52-.49,1.19-.74,1.87-.74s1.35,.25,1.87,.74l5.63,5.37c.49,.47,.76,1.08,.76,1.74v6.18Z"/><path d="M14.75,9c0-1.52-1.23-2.75-2.75-2.75s-2.75,1.23-2.75,2.75c0,1.25,.85,2.3,2,2.63v2.37c0,.41,.34,.75,.75,.75s.75-.34,.75-.75v-2.37c1.15-.33,2-1.38,2-2.63Zm-4,0c0-.69,.56-1.25,1.25-1.25s1.25,.56,1.25,1.25-.56,1.25-1.25,1.25-1.25-.56-1.25-1.25Z"/><path d="M16.5,11.25c-1.24,0-2.25,1.01-2.25,2.25,0,.35,.09,.67,.23,.97h0l-.41,.42c-.52,.52-.81,1.21-.81,1.94v1.17c0,.41,.34,.75,.75,.75s.75-.34,.75-.75v-1.17c0-.33,.13-.65,.37-.88l.41-.41h0c.29,.13,.62,.22,.97,.22,1.24,0,2.25-1.01,2.25-2.25s-1.01-2.25-2.25-2.25Zm0,3c-.41,0-.75-.34-.75-.75s.34-.75,.75-.75,.75,.34,.75,.75-.34,.75-.75,.75Z"/><path d="M9.53,14.47h0c.14-.3,.23-.62,.23-.97,0-1.24-1.01-2.25-2.25-2.25s-2.25,1.01-2.25,2.25,1.01,2.25,2.25,2.25c.35,0,.67-.09,.97-.23h0l.41,.42c.24,.24,.37,.55,.37,.88v1.17c0,.41,.34,.75,.75,.75s.75-.34,.75-.75v-1.17c0-.73-.29-1.43-.81-1.94l-.41-.41Zm-2.03-.22c-.41,0-.75-.34-.75-.75s.34-.75,.75-.75,.75,.34,.75,.75-.34,.75-.75,.75Z"/></g></g><g id="o"/><g id="p"/><g id="q"/><g id="r"/><g id="s"/><g id="t"/><g id="u"/></svg>