<?xml version="1.0" encoding="UTF-8"?><svg xmlns="http://www.w3.org/2000/svg" viewBox="0 0 24 24"><g id="a"/><g id="b"/><g id="c"/><g id="d"/><g id="e"/><g id="f"><g><path d="M12.01,8.25c-.41,0-.74,.34-.74,.75s.34,.75,.75,.75,.75-.34,.75-.75-.34-.75-.75-.75h-.01Z"/><path d="M14.24,7.75c.18,0,.36-.06,.5-.19,.31-.28,.33-.75,.06-1.06-.71-.79-1.73-1.25-2.79-1.25s-2.08,.46-2.79,1.25c-.28,.31-.25,.78,.06,1.06,.31,.28,.78,.25,1.06-.06,.85-.95,2.5-.95,3.35,0,.15,.17,.35,.25,.56,.25Z"/><path d="M8.09,5.5c1-1.11,2.42-1.75,3.91-1.75s2.92,.64,3.91,1.75c.15,.17,.35,.25,.56,.25,.18,0,.36-.06,.5-.19,.31-.28,.33-.75,.06-1.06-1.28-1.43-3.11-2.25-5.03-2.25s-3.75,.82-5.03,2.25c-.28,.31-.25,.78,.06,1.06,.31,.28,.78,.25,1.06-.06Z"/><path d="M18.75,15.28v-4.28c0-.96-.79-1.75-1.75-1.75s-1.75,.79-1.75,1.75v4.25h-6.5v-4.25c0-.96-.79-1.75-1.75-1.75s-1.75,.79-1.75,1.75v4.28c-1.12,.13-2,1.07-2,2.22v2c0,1.24,1.01,2.25,2.25,2.25h13c1.24,0,2.25-1.01,2.25-2.25v-2c0-1.15-.88-2.1-2-2.22Zm-2-4.28c0-.28,.5-.28,.5,0v4.25h-.5v-4.25Zm-10,0c0-.28,.5-.28,.5,0v4.25h-.5v-4.25Zm12.5,8.5c0,.41-.34,.75-.75,.75H5.5c-.41,0-.75-.34-.75-.75v-2c0-.41,.34-.75,.75-.75h13c.41,0,.75,.34,.75,.75v2Z"/><path d="M17.02,18.25h-.01c-.41,0-.74,.34-.74,.75s.34,.75,.75,.75,.75-.34,.75-.75-.34-.75-.75-.75Z"/><path d="M15.02,18.25h-.01c-.41,0-.74,.34-.74,.75s.34,.75,.75,.75,.75-.34,.75-.75-.34-.75-.75-.75Z"/><path d="M13.02,18.25h-.01c-.41,0-.74,.34-.74,.75s.34,.75,.75,.75,.75-.34,.75-.75-.34-.75-.75-.75Z"/></g></g><g id="g"/><g id="h"/><g id="i"/><g id="j"/><g id="k"/><g id="l"/><g id="m"/><g id="n"/><g id="o"/><g id="p"/><g id="q"/><g id="r"/><g id="s"/><g id="t"/><g id="u"/></svg>