<?xml version="1.0" encoding="UTF-8"?><svg xmlns="http://www.w3.org/2000/svg" viewBox="0 0 24 24"><g id="a"/><g id="b"/><g id="c"><g><path d="M7.02,6.75c.42,0,.75-.34,.75-.75s-.33-.75-.75-.75h0c-.41,0-.75,.34-.75,.75s.34,.75,.75,.75Z"/><path d="M9.02,6.75c.42,0,.75-.34,.75-.75s-.33-.75-.75-.75h0c-.41,0-.75,.34-.75,.75s.34,.75,.75,.75Z"/><path d="M11.02,6.75c.42,0,.75-.34,.75-.75s-.33-.75-.75-.75h0c-.41,0-.75,.34-.75,.75s.34,.75,.75,.75Z"/><path d="M7.02,8.75c.42,0,.75-.34,.75-.75s-.33-.75-.75-.75h0c-.41,0-.75,.34-.75,.75s.34,.75,.75,.75Z"/><path d="M9.02,8.75c.42,0,.75-.34,.75-.75s-.33-.75-.75-.75h0c-.41,0-.75,.34-.75,.75s.34,.75,.75,.75Z"/><path d="M11.02,8.75c.42,0,.75-.34,.75-.75s-.33-.75-.75-.75h0c-.41,0-.75,.34-.75,.75s.34,.75,.75,.75Z"/><path d="M7.77,10c0-.41-.33-.75-.75-.75h0c-.41,0-.75,.34-.75,.75s.34,.75,.75,.75,.75-.34,.75-.75Z"/><path d="M9.02,10.75c.42,0,.75-.34,.75-.75s-.33-.75-.75-.75h0c-.41,0-.75,.34-.75,.75s.34,.75,.75,.75Z"/><path d="M11.02,10.75c.42,0,.75-.34,.75-.75s-.33-.75-.75-.75h0c-.41,0-.75,.34-.75,.75s.34,.75,.75,.75Z"/><path d="M20.13,13.18l-5.38-.41V7c0-2.62-2.13-4.75-4.75-4.75h-2c-2.62,0-4.75,2.13-4.75,4.75v10c0,2.62,2.13,4.75,4.75,4.75h2c2.15,0,4.03-1.44,4.58-3.51l5.55-.42c.91-.07,1.62-.83,1.62-1.75v-1.14c0-.91-.71-1.68-1.62-1.75Zm-10.13,7.07h-2c-1.79,0-3.25-1.46-3.25-3.25V7c0-1.79,1.46-3.25,3.25-3.25h2c1.79,0,3.25,1.46,3.25,3.25v5.66l-2.7-.2c-.84-.08-1.69,.22-2.32,.79-.63,.58-.99,1.39-.99,2.25s.36,1.67,.99,2.25c.56,.52,1.31,.8,2.06,.8,.08,0,.17,0,.25,0l2.4-.18c-.52,1.14-1.66,1.89-2.95,1.89Zm10.25-4.18c0,.13-.1,.24-.23,.25l-9.59,.72c-.44,.04-.86-.11-1.18-.4-.32-.3-.5-.7-.5-1.14s.18-.84,.5-1.14c.29-.27,.66-.41,1.05-.41,.05,0,.09,0,.14,0l9.58,.72c.13,0,.23,.12,.23,.25v1.14Z"/></g></g><g id="d"/><g id="e"/><g id="f"/><g id="g"/><g id="h"/><g id="i"/><g id="j"/><g id="k"/><g id="l"/><g id="m"/><g id="n"/><g id="o"/><g id="p"/><g id="q"/><g id="r"/><g id="s"/><g id="t"/><g id="u"/></svg>