<?xml version="1.0" encoding="UTF-8"?><svg xmlns="http://www.w3.org/2000/svg" viewBox="0 0 24 24"><g id="a"/><g id="b"/><g id="c"/><g id="d"/><g id="e"/><g id="f"/><g id="g"/><g id="h"/><g id="i"/><g id="j"/><g id="k"/><g id="l"/><g id="m"><g><path d="M12,2.25H5c-1.52,0-2.75,1.23-2.75,2.75v14c0,1.52,1.23,2.75,2.75,2.75h7c1.52,0,2.75-1.23,2.75-2.75V5c0-1.52-1.23-2.75-2.75-2.75Zm-7,1.5h7c.69,0,1.25,.56,1.25,1.25v4.25H3.75V5c0-.69,.56-1.25,1.25-1.25Zm7,16.5H5c-.69,0-1.25-.56-1.25-1.25V10.75H13.25v8.25c0,.69-.56,1.25-1.25,1.25Z"/><path d="M5,8.75c.41,0,.75-.34,.75-.75v-1c0-.41-.34-.75-.75-.75s-.75,.34-.75,.75v1c0,.41,.34,.75,.75,.75Z"/><path d="M5,11.25c-.41,0-.75,.34-.75,.75v1c0,.41,.34,.75,.75,.75s.75-.34,.75-.75v-1c0-.41-.34-.75-.75-.75Z"/><path d="M17.53,9.47c-.29-.29-.77-.29-1.06,0s-.29,.77,0,1.06c.5,.5,.78,1.21,.78,1.97s-.28,1.47-.78,1.97c-.29,.29-.29,.77,0,1.06,.15,.15,.34,.22,.53,.22s.38-.07,.53-.22c.78-.77,1.22-1.88,1.22-3.03s-.44-2.26-1.22-3.03Z"/><path d="M19.5,7.44c-.31-.28-.78-.25-1.06,.06-.28,.31-.25,.78,.06,1.06,1.11,1,1.75,2.42,1.75,3.91s-.64,2.92-1.75,3.91c-.31,.28-.33,.75-.06,1.06,.15,.17,.35,.25,.56,.25,.18,0,.36-.06,.5-.19,1.43-1.28,2.25-3.11,2.25-5.03s-.82-3.75-2.25-5.03Z"/></g></g><g id="n"/><g id="o"/><g id="p"/><g id="q"/><g id="r"/><g id="s"/><g id="t"/><g id="u"/></svg>