<?xml version="1.0" encoding="UTF-8"?><svg xmlns="http://www.w3.org/2000/svg" viewBox="0 0 24 24"><g id="a"/><g id="b"/><g id="c"/><g id="d"/><g id="e"/><g id="f"/><g id="g"/><g id="h"/><g id="i"/><g id="j"/><g id="k"/><g id="l"/><g id="m"/><g id="n"/><g id="o"/><g id="p"/><g id="q"/><g id="r"/><g id="s"><g><path d="M12.01,8.25c-.41,0-.74,.34-.74,.75s.34,.75,.75,.75,.75-.34,.75-.75-.34-.75-.75-.75h-.01Z"/><path d="M14.74,7.56c.31-.28,.33-.75,.06-1.06-.71-.79-1.73-1.25-2.79-1.25s-2.08,.46-2.79,1.25c-.28,.31-.25,.78,.06,1.06,.14,.13,.32,.19,.5,.19,.21,0,.41-.08,.56-.25,.85-.95,2.5-.95,3.35,0,.28,.31,.75,.33,1.06,.06Z"/><path d="M8.09,5.5c1-1.11,2.42-1.75,3.91-1.75s2.92,.64,3.91,1.75c.15,.17,.35,.25,.56,.25,.18,0,.36-.06,.5-.19,.31-.28,.33-.75,.06-1.06-1.28-1.43-3.11-2.25-5.03-2.25s-3.75,.82-5.03,2.25c-.28,.31-.25,.78,.06,1.06,.31,.28,.78,.25,1.06-.06Z"/><path d="M18,11.25H6c-2.07,0-3.75,1.68-3.75,3.75v2c0,2.07,1.68,3.75,3.75,3.75h12c2.07,0,3.75-1.68,3.75-3.75v-2c0-2.07-1.68-3.75-3.75-3.75Zm2.25,5.75c0,1.24-1.01,2.25-2.25,2.25H6c-1.24,0-2.25-1.01-2.25-2.25v-2c0-1.24,1.01-2.25,2.25-2.25h12c1.24,0,2.25,1.01,2.25,2.25v2Z"/><path d="M10.02,14.25h-.01c-.41,0-.74,.34-.74,.75s.34,.75,.75,.75,.75-.34,.75-.75-.34-.75-.75-.75Z"/><path d="M10.02,16.25h-.01c-.41,0-.74,.34-.74,.75s.34,.75,.75,.75,.75-.34,.75-.75-.34-.75-.75-.75Z"/><path d="M8,15.25h-2c-.41,0-.75,.34-.75,.75s.34,.75,.75,.75h2c.41,0,.75-.34,.75-.75s-.34-.75-.75-.75Z"/><path d="M14,15.25h-2c-.41,0-.75,.34-.75,.75s.34,.75,.75,.75h2c.41,0,.75-.34,.75-.75s-.34-.75-.75-.75Z"/><path d="M18,15.25h-2c-.41,0-.75,.34-.75,.75s.34,.75,.75,.75h2c.41,0,.75-.34,.75-.75s-.34-.75-.75-.75Z"/></g></g><g id="t"/><g id="u"/></svg>