<?xml version="1.0" encoding="UTF-8"?><svg xmlns="http://www.w3.org/2000/svg" viewBox="0 0 24 24"><g id="a"/><g id="b"/><g id="c"/><g id="d"/><g id="e"/><g id="f"/><g id="g"/><g id="h"/><g id="i"/><g id="j"/><g id="k"/><g id="l"/><g id="m"/><g id="n"/><g id="o"/><g id="p"><g><path d="M15.07,2.26s-.02,0-.03,0c-.01,0-.02,0-.03,0h-6s-.02,0-.03,0h-.03c-2.04,.04-3.68,1.7-3.68,3.75v12c0,2.07,1.68,3.75,3.75,3.75h6c2.07,0,3.75-1.68,3.75-3.75V6c0-2.04-1.65-3.71-3.68-3.74Zm-1.28,1.49l-.18,.36c-.04,.09-.13,.14-.22,.14h-2.76c-.1,0-.18-.05-.22-.14l-.18-.36h3.57Zm3.46,14.25c0,1.24-1.01,2.25-2.25,2.25h-6c-1.24,0-2.25-1.01-2.25-2.25V6c0-1.09,.78-2,1.81-2.21l.49,.99c.3,.6,.9,.97,1.57,.97h2.76c.67,0,1.27-.37,1.57-.97l.49-.99c1.03,.21,1.81,1.12,1.81,2.21v12Z"/><path d="M12.02,13.25h-.01c-.41,0-.74,.34-.74,.75s.34,.75,.75,.75,.75-.34,.75-.75-.34-.75-.75-.75Z"/><path d="M10.06,12.06c-.29,.29-.29,.77,0,1.06,.29,.29,.77,.29,1.06,0,.47-.47,1.29-.47,1.77,0,.15,.15,.34,.22,.53,.22s.38-.07,.53-.22c.29-.29,.29-.77,0-1.06-1.04-1.04-2.85-1.04-3.89,0Z"/><path d="M8.64,10.64c-.29,.29-.29,.77,0,1.06s.77,.29,1.06,0c1.27-1.27,3.33-1.27,4.6,0,.15,.15,.34,.22,.53,.22s.38-.07,.53-.22c.29-.29,.29-.77,0-1.06-1.85-1.85-4.87-1.85-6.72,0Z"/></g></g><g id="q"/><g id="r"/><g id="s"/><g id="t"/><g id="u"/></svg>