<?xml version="1.0" encoding="UTF-8"?><svg xmlns="http://www.w3.org/2000/svg" viewBox="0 0 24 24"><g id="a"/><g id="b"/><g id="c"/><g id="d"><g><path d="M12,2.25C6.62,2.25,2.25,6.62,2.25,12s4.37,9.75,9.75,9.75,9.75-4.37,9.75-9.75S17.38,2.25,12,2.25Zm0,18c-4.55,0-8.25-3.7-8.25-8.25S7.45,3.75,12,3.75s8.25,3.7,8.25,8.25-3.7,8.25-8.25,8.25Z"/><path d="M14,14.25h-4c-.96,0-1.75,.79-1.75,1.75v1c0,.96,.79,1.75,1.75,1.75h4c.96,0,1.75-.79,1.75-1.75v-1c0-.96-.79-1.75-1.75-1.75Zm.25,2.75c0,.14-.11,.25-.25,.25h-4c-.14,0-.25-.11-.25-.25v-1c0-.14,.11-.25,.25-.25h4c.14,0,.25,.11,.25,.25v1Z"/><path d="M12.01,11.25c-.41,0-.74,.34-.74,.75s.34,.75,.75,.75,.75-.34,.75-.75-.34-.75-.75-.75h-.01Z"/><path d="M13.41,10.47c.15,.18,.37,.28,.59,.28,.17,0,.33-.05,.47-.16,.32-.26,.38-.73,.12-1.05-.65-.81-1.59-1.28-2.59-1.28s-1.93,.47-2.59,1.28c-.26,.32-.21,.8,.12,1.05,.32,.26,.8,.21,1.05-.12,.74-.93,2.09-.93,2.83,0Z"/><path d="M12,5.25c-1.75,0-3.43,.83-4.59,2.28-.26,.32-.21,.8,.12,1.05,.32,.26,.79,.21,1.05-.12,.87-1.09,2.12-1.72,3.41-1.72s2.54,.63,3.41,1.72c.15,.18,.37,.28,.59,.28,.17,0,.33-.05,.47-.16,.32-.26,.38-.73,.12-1.05-1.16-1.45-2.83-2.28-4.59-2.28Z"/></g></g><g id="e"/><g id="f"/><g id="g"/><g id="h"/><g id="i"/><g id="j"/><g id="k"/><g id="l"/><g id="m"/><g id="n"/><g id="o"/><g id="p"/><g id="q"/><g id="r"/><g id="s"/><g id="t"/><g id="u"/></svg>