<svg xmlns="http://www.w3.org/2000/svg" viewBox="0 0 24 24"><title>33.Video</title><g id="_33.Video" data-name="33.Video"><polyline points="7 14 7 23 23 23 23 9 19 9" style="fill:none;stroke:#000;stroke-miterlimit:10;stroke-width:2px"/><polygon points="17 16 13 18 13 14 17 16 17 16" style="fill:none;stroke:#000;stroke-miterlimit:10;stroke-width:2px"/><path d="M12,3a3.959,3.959,0,0,0-1.25.219A3.5,3.5,0,0,0,4,4.5a3.5,3.5,0,0,0,.051.5c-.017,0-.034,0-.051,0a3,3,0,0,0,0,6h8a4,4,0,0,0,0-8Z" style="fill:none;stroke:#000;stroke-miterlimit:10;stroke-width:2px"/></g></svg>