<svg xmlns="http://www.w3.org/2000/svg" viewBox="0 0 24 24"><title>36.Secure</title><g id="_36.Secure" data-name="36.Secure"><polyline points="17 11 17 9 1 9 1 23 5 23" style="fill:none;stroke:#000;stroke-miterlimit:10;stroke-width:2px"/><path d="M14,7V5a4,4,0,0,0-4-4H8A4,4,0,0,0,4,5V7" style="fill:none;stroke:#000;stroke-miterlimit:10;stroke-width:2px"/><path d="M19,15a3.959,3.959,0,0,0-1.25.219,3.48,3.48,0,0,0-6.7,1.786c-.017,0-.034,0-.051,0a3,3,0,0,0,0,6h8a4,4,0,0,0,0-8Z" style="fill:none;stroke:#000;stroke-miterlimit:10;stroke-width:2px"/></g></svg>