<svg xmlns="http://www.w3.org/2000/svg" viewBox="0 0 24 24"><title>45.Cloud</title><g id="_45.Cloud" data-name="45.Cloud"><path d="M22.4,10a5.487,5.487,0,0,0-6.422-2.782c0-.074.022-.143.022-.218a5,5,0,0,0-9.907-.924A6,6,0,0,0,7,18h3" style="fill:none;stroke:#000;stroke-miterlimit:10;stroke-width:2px"/><circle cx="18" cy="17" r="3" style="fill:none;stroke:#000;stroke-miterlimit:10;stroke-width:2px"/><line x1="18" y1="14" x2="18" y2="11" style="fill:none;stroke:#000;stroke-miterlimit:10;stroke-width:2px"/><line x1="18" y1="23" x2="18" y2="20" style="fill:none;stroke:#000;stroke-miterlimit:10;stroke-width:2px"/><line x1="21" y1="17" x2="24" y2="17" style="fill:none;stroke:#000;stroke-miterlimit:10;stroke-width:2px"/><line x1="12" y1="17" x2="15" y2="17" style="fill:none;stroke:#000;stroke-miterlimit:10;stroke-width:2px"/><line x1="20" y1="15" x2="22" y2="13" style="fill:none;stroke:#000;stroke-miterlimit:10;stroke-width:2px"/><line x1="16" y1="15" x2="14" y2="13" style="fill:none;stroke:#000;stroke-miterlimit:10;stroke-width:2px"/><line x1="16" y1="19" x2="14" y2="21" style="fill:none;stroke:#000;stroke-miterlimit:10;stroke-width:2px"/><line x1="20" y1="19" x2="22" y2="21" style="fill:none;stroke:#000;stroke-miterlimit:10;stroke-width:2px"/></g></svg>