<svg xmlns="http://www.w3.org/2000/svg" viewBox="0 0 32 32"><title>10-Message</title><g id="_10-Message" data-name="10-Message"><path d="M31,15V27a4,4,0,0,1-4,4H5a4,4,0,0,1-4-4V15a3.992,3.992,0,0,1,.68-2.23L2,13l14,8,14-8,.32-.23A3.992,3.992,0,0,1,31,15Z" style="fill:#c1c5c8"/><path d="M30,13,16,21,2,13l-.32-.23A4,4,0,0,1,5,11H27a4,4,0,0,1,3.32,1.77Z" style="fill:#f2f2f2"/><path d="M31,3V13a2.006,2.006,0,0,1-2,2H22l-3,3-3-3H13a2.006,2.006,0,0,1-2-2V3a2.006,2.006,0,0,1,2-2H29A2.006,2.006,0,0,1,31,3Z" style="fill:#f2f2f2"/><path d="M13,16h2.586l2.707,2.707a1,1,0,0,0,1.414,0L22.414,16H29a3,3,0,0,0,3-3V3a3,3,0,0,0-3-3H13a3,3,0,0,0-3,3v7H5a5.006,5.006,0,0,0-5,5V27a5.006,5.006,0,0,0,5,5H27a5.006,5.006,0,0,0,5-5V19a1,1,0,0,0-2,0v8a3,3,0,0,1-3,3H5a3,3,0,0,1-3-3V15a2.974,2.974,0,0,1,.116-.782l9.656,5.518-6.422,5.5a1,1,0,1,0,1.3,1.518l6.966-5.97L15.5,21.868a1,1,0,0,0,1.364-.372,1,1,0,0,0-.372-1.364L3.258,12.567A2.978,2.978,0,0,1,5,12h5v1A3,3,0,0,0,13,16ZM12,3a1,1,0,0,1,1-1H29a1,1,0,0,1,1,1V13a1,1,0,0,1-1,1H22a1,1,0,0,0-.707.293L19,16.586l-2.293-2.293A1,1,0,0,0,16,14H13a1,1,0,0,1-1-1Z" style="fill:#6f7a7b"/><circle cx="21" cy="8" r="1" style="fill:#6f7a7b"/><circle cx="25" cy="8" r="1" style="fill:#6f7a7b"/><circle cx="17" cy="8" r="1" style="fill:#6f7a7b"/></g></svg>