<svg xmlns="http://www.w3.org/2000/svg" viewBox="0 0 32 32"><title>12-Message</title><g id="_12-Message" data-name="12-Message"><path d="M31,6V18a4,4,0,0,1-4,4H5a4,4,0,0,1-4-4V6a3.992,3.992,0,0,1,.68-2.23L2,4l14,8L30,4l.32-.23A3.992,3.992,0,0,1,31,6Z" style="fill:#f2f2f2"/><path d="M30,4,16,12,2,4l-.32-.23A4,4,0,0,1,5,2H27a4,4,0,0,1,3.32,1.77Z" style="fill:#c1c5c8"/><circle cx="23" cy="22" r="8" style="fill:#c1c5c8"/><path d="M31,13a1,1,0,0,0,1-1V6a5.006,5.006,0,0,0-5-5H5A5.006,5.006,0,0,0,0,6V18a5.006,5.006,0,0,0,5,5h9.059a9,9,0,1,0,0-2H5a3,3,0,0,1-3-3V6a2.974,2.974,0,0,1,.116-.782l9.656,5.518-6.422,5.5a1,1,0,1,0,1.3,1.518l6.966-5.97L15.5,12.868a1,1,0,0,0,.992,0l13.388-7.65A2.974,2.974,0,0,1,30,6v6A1,1,0,0,0,31,13Zm-8,2a7,7,0,1,1-7,7A7.008,7.008,0,0,1,23,15Zm-7-4.152L3.258,3.567A2.978,2.978,0,0,1,5,3H27a2.978,2.978,0,0,1,1.742.567Z" style="fill:#6f7a7b"/><path d="M22.445,25.832a.9.9,0,0,0,.109.051.832.832,0,0,0,.1.047.89.89,0,0,0,.692,0,.926.926,0,0,0,.1-.047.962.962,0,0,0,.108-.051l3-2a1,1,0,1,0-1.11-1.664L24,23.132V19a1,1,0,0,0-2,0v4.132l-1.445-.964a1,1,0,0,0-1.11,1.664Z" style="fill:#6f7a7b"/></g></svg>