<svg xmlns="http://www.w3.org/2000/svg" viewBox="0 0 32 32"><title>17-Speech bubble</title><g id="_17-Speech_bubble" data-name="17-Speech bubble"><path d="M31,15V25a1,1,0,0,1-1,1H27l-2,2-2-2H14a1,1,0,0,1-1-1V15a1,1,0,0,1,1-1H30A1,1,0,0,1,31,15Z" style="fill:#c1c5c8"/><path d="M17,6v8H14a1,1,0,0,0-1,1v5H8L6,22,4,20H3a2.006,2.006,0,0,1-2-2V6A2.006,2.006,0,0,1,3,4H15A2.006,2.006,0,0,1,17,6Z" style="fill:#f2f2f2"/><path d="M30,13H18V6a3,3,0,0,0-3-3H3A3,3,0,0,0,0,6V18a3,3,0,0,0,3,3h.586l1.707,1.707a1,1,0,0,0,1.414,0L8.414,21H12v4a2,2,0,0,0,2,2h8.586l1.707,1.707a1,1,0,0,0,1.414,0L27.414,27H30a2,2,0,0,0,2-2V15A2,2,0,0,0,30,13ZM8,19a1,1,0,0,0-.707.293L6,20.586,4.707,19.293A1,1,0,0,0,4,19H3a1,1,0,0,1-1-1V6A1,1,0,0,1,3,5H15a1,1,0,0,1,1,1v7H14a2,2,0,0,0-2,2v4Zm22,6H27a1,1,0,0,0-.707.293L25,26.586l-1.293-1.293A1,1,0,0,0,23,25H14V15H30Z" style="fill:#6f7a7b"/><path d="M6,10h6a1,1,0,0,0,0-2H6a1,1,0,0,0,0,2Z" style="fill:#6f7a7b"/><path d="M8,12H6a1,1,0,0,0,0,2H8a1,1,0,0,0,0-2Z" style="fill:#6f7a7b"/><circle cx="26" cy="20" r="1" style="fill:#6f7a7b"/><circle cx="22" cy="20" r="1" style="fill:#6f7a7b"/><circle cx="18" cy="20" r="1" style="fill:#6f7a7b"/></g></svg>