<svg xmlns="http://www.w3.org/2000/svg" viewBox="0 0 32 32"><title>24-Speech bubble</title><g id="_24-Speech_bubble" data-name="24-Speech bubble"><path d="M31,17c0,6.63-5.72,12-14,12l-5,2V28C5.66,27.6,1,22.52,1,17,1,10.37,7.72,5,16,5S31,10.37,31,17Z" style="fill:#c1c5c8"/><path d="M29,9c0,3.58-2.94,6.61-7,7.63V20l-3-3C13.48,17,9,13.42,9,9s4.48-8,10-8S29,4.58,29,9Z" style="fill:#f2f2f2"/><path d="M31.479,13.694a1,1,0,1,0-1.9.612A8.779,8.779,0,0,1,30,17c0,6.271-5.589,11-13,11a1,1,0,0,0-.371.071L13,29.523V28a1,1,0,0,0-.937-1C6.515,26.65,2,22.164,2,17c0-3.649,2.3-7.019,6.084-9.062A7.326,7.326,0,0,0,8,9c0,4.847,4.708,8.812,10.579,8.994l2.714,2.713A1,1,0,0,0,23,20V17.385C27.219,16.05,30,12.758,30,9c0-4.962-4.935-9-11-9C14.5,0,10.627,2.225,8.925,5.4a1,1,0,0,0-.315.064C3.3,7.709,0,12.129,0,17c0,6.006,4.761,11.074,11,11.906V31a1,1,0,0,0,1,1,.991.991,0,0,0,.371-.071L17.2,30C25.649,29.915,32,24.354,32,17A10.765,10.765,0,0,0,31.479,13.694ZM19,2c4.963,0,9,3.14,9,7,0,3.045-2.509,5.722-6.244,6.66a1,1,0,0,0-.756.97v.956l-1.293-1.293A1,1,0,0,0,19,16c-4.963,0-9-3.14-9-7S14.037,2,19,2Z" style="fill:#6f7a7b"/><circle cx="15" cy="9" r="1" style="fill:#6f7a7b"/><circle cx="19" cy="9" r="1" style="fill:#6f7a7b"/><circle cx="23" cy="9" r="1" style="fill:#6f7a7b"/></g></svg>