<svg xmlns="http://www.w3.org/2000/svg" viewBox="0 0 32 32"><title>25-Speech bubble</title><g id="_25-Speech_bubble" data-name="25-Speech bubble"><path d="M31,9V23a4,4,0,0,1-4,4H22l-4,4-4-4H5a4,4,0,0,1-4-4V9A4,4,0,0,1,5,5H27A4,4,0,0,1,31,9Z" style="fill:#f2f2f2"/><path d="M26,9c0,3.58-2.94,6.61-7,7.63V20l-3-3C10.48,17,6,13.42,6,9s4.48-8,10-8S26,4.58,26,9Z" style="fill:#c1c5c8"/><path d="M30.307,5.25a1,1,0,0,0-1.323,1.5A3.005,3.005,0,0,1,30,9V23a3,3,0,0,1-3,3H22a1,1,0,0,0-.707.293L18,29.586l-3.293-3.293A1,1,0,0,0,14,26H5a3,3,0,0,1-3-3V9A3,3,0,0,1,5,6h.642A7.5,7.5,0,0,0,5,9c0,4.847,4.708,8.812,10.579,8.994l2.714,2.713A1,1,0,0,0,20,20V17.385C24.219,16.05,27,12.758,27,9c0-4.962-4.935-9-11-9A11.8,11.8,0,0,0,6.86,4H5A5.006,5.006,0,0,0,0,9V23a5.006,5.006,0,0,0,5,5h8.586l3.707,3.707a1,1,0,0,0,1.414,0L22.414,28H27a5.006,5.006,0,0,0,5-5V9A5,5,0,0,0,30.307,5.25ZM16,2c4.962,0,9,3.14,9,7,0,3.045-2.509,5.722-6.244,6.66a1,1,0,0,0-.756.97v.956l-1.293-1.293A1,1,0,0,0,16,16c-4.962,0-9-3.14-9-7S11.038,2,16,2Z" style="fill:#6f7a7b"/><circle cx="16" cy="9" r="1" style="fill:#6f7a7b"/><circle cx="20" cy="9" r="1" style="fill:#6f7a7b"/><circle cx="12" cy="9" r="1" style="fill:#6f7a7b"/></g></svg>