<svg xmlns="http://www.w3.org/2000/svg" viewBox="0 0 32 32"><title>27-Smartphone</title><g id="_27-Smartphone" data-name="27-Smartphone"><path d="M25,4a3,3,0,0,0-3-3H6A3,3,0,0,0,3,4V31H25Z" style="fill:#f2f2f2"/><path d="M25,4a3,3,0,0,0-3-3H6A3,3,0,0,0,3,4V8H25Z" style="fill:#c1c5c8"/><path d="M28.66,11.25,21,17l-7.66-5.75A.985.985,0,0,1,14,11H28A.985.985,0,0,1,28.66,11.25Z" style="fill:#f2f2f2"/><path d="M29,12V22a1,1,0,0,1-1,1H14a1,1,0,0,1-1-1V12a.983.983,0,0,1,.34-.75L21,17l7.66-5.75A.983.983,0,0,1,29,12Z" style="fill:#c1c5c8"/><path d="M15,5a1,1,0,0,0-1-1H10a1,1,0,0,0,0,2h4A1,1,0,0,0,15,5Z" style="fill:#6f7a7b"/><path d="M28,10H26V4a4,4,0,0,0-4-4H6A4,4,0,0,0,2,4V31a1,1,0,0,0,2,0V4A2,2,0,0,1,6,2H22a2,2,0,0,1,2,2v6H14a2,2,0,0,0-2,2V22a2,2,0,0,0,2,2H24v7a1,1,0,0,0,2,0V24h2a2,2,0,0,0,2-2V12A2,2,0,0,0,28,10Zm-1.721,2L21,15.771,15.721,12ZM25,22H14V13.229l6.419,4.585a1,1,0,0,0,1.162,0L28,13.229V22Z" style="fill:#6f7a7b"/><circle cx="18" cy="5" r="1" style="fill:#6f7a7b"/><circle cx="14" cy="27" r="1" style="fill:#6f7a7b"/><circle cx="18" cy="27" r="1" style="fill:#6f7a7b"/></g></svg>