<svg xmlns="http://www.w3.org/2000/svg" viewBox="0 0 32 32"><title>3-Smartphone</title><g id="_3-Smartphone" data-name="3-Smartphone"><rect x="4" y="1" width="20" height="30" rx="3" style="fill:#f2f2f2"/><path d="M24,4a3,3,0,0,0-3-3H7A3,3,0,0,0,4,4V8H24Z" style="fill:#c1c5c8"/><path d="M4,28a3,3,0,0,0,3,3H21a3,3,0,0,0,3-3V24H4Z" style="fill:#c1c5c8"/><path d="M28,8V18a1,1,0,0,1-1,1H22l-3,3-3-3H13a1,1,0,0,1-1-1V8a1,1,0,0,1,1-1H27A1,1,0,0,1,28,8Z" style="fill:#f2f2f2"/><path d="M27,6H25V4a4,4,0,0,0-4-4H7A4,4,0,0,0,3,4V28a4,4,0,0,0,4,4H21a4,4,0,0,0,4-4V23a1,1,0,0,0-2,0v5a2,2,0,0,1-2,2H7a2,2,0,0,1-2-2V4A2,2,0,0,1,7,2H21a2,2,0,0,1,2,2V6H13a2,2,0,0,0-2,2V18a2,2,0,0,0,2,2h2.586l2.707,2.707a1,1,0,0,0,1.414,0L22.414,20H27a2,2,0,0,0,2-2V8A2,2,0,0,0,27,6Zm0,12H22a1,1,0,0,0-.707.293L19,20.586l-2.293-2.293A1,1,0,0,0,16,18H13V8H27Z" style="fill:#6f7a7b"/><path d="M17,12h6a1,1,0,0,0,0-2H17a1,1,0,0,0,0,2Z" style="fill:#6f7a7b"/><path d="M17,16h6a1,1,0,0,0,0-2H17a1,1,0,0,0,0,2Z" style="fill:#6f7a7b"/><circle cx="14" cy="27" r="1" style="fill:#6f7a7b"/></g></svg>