<svg xmlns="http://www.w3.org/2000/svg" viewBox="0 0 32 32"><title>31-Mail box</title><g id="_31-Mail_box" data-name="31-Mail box"><path d="M31,22v6a3,3,0,0,1-3,3H4a3,3,0,0,1-3-3V22a3.037,3.037,0,0,1,2.01-2.87A3.655,3.655,0,0,1,4,19H9l1,4H22l1-4h5a4.453,4.453,0,0,1,.53.03A2.97,2.97,0,0,1,31,22Z" style="fill:#c1c5c8"/><path d="M29,19l-.47.03A4.453,4.453,0,0,0,28,19H23l-1,4H10L9,19H4a3.655,3.655,0,0,0-.99.13L3,19V16L4,7A1.959,1.959,0,0,1,6,5H26a1.959,1.959,0,0,1,2,2l1,9Z" style="fill:#f2f2f2"/><path d="M23.66,1.25,16,7,8.34,1.25A.985.985,0,0,1,9,1H23A.985.985,0,0,1,23.66,1.25Z" style="fill:#c1c5c8"/><path d="M24,2V12a1,1,0,0,1-1,1H9a1,1,0,0,1-1-1V2a.983.983,0,0,1,.34-.75L16,7l7.66-5.75A.983.983,0,0,1,24,2Z" style="fill:#f2f2f2"/><path d="M28,18H23a1,1,0,0,0-.97.758L21.219,22H10.781L9.97,18.758A1,1,0,0,0,9,18H4a3.888,3.888,0,0,0-4,4v6a4,4,0,0,0,4,4H28a4,4,0,0,0,4-4V22A3.888,3.888,0,0,0,28,18Zm2,10a2,2,0,0,1-2,2H4a2,2,0,0,1-2-2V22a1.882,1.882,0,0,1,2-2H8.219l.811,3.242A1,1,0,0,0,10,24H22a1,1,0,0,0,.97-.758L23.781,20H28a1.882,1.882,0,0,1,2,2Z" style="fill:#6f7a7b"/><path d="M2.89,16.994A1.032,1.032,0,0,0,3,17a1,1,0,0,0,.993-.89L5,7.012A.919.919,0,0,1,6,6H7v6a2,2,0,0,0,2,2H23a2,2,0,0,0,2-2V6h1a.915.915,0,0,1,1,1,1,1,0,0,0,.006.11l1,9A1,1,0,0,0,29,17a1.032,1.032,0,0,0,.111-.006,1,1,0,0,0,.884-1.1L29,6.938A2.911,2.911,0,0,0,26,4H25V2A1.971,1.971,0,0,0,24.325.5,1.993,1.993,0,0,0,23,0H9A1.99,1.99,0,0,0,7.683.5a2,2,0,0,0-.141.151l0,0h0A1.976,1.976,0,0,0,7,2V4H6A2.911,2.911,0,0,0,3,6.938L2.006,15.89A1,1,0,0,0,2.89,16.994ZM23,12H9V3l6.4,4.8a1,1,0,0,0,1.2,0L23,3ZM11.005,2H21L16,5.75Z" style="fill:#6f7a7b"/><path d="M19,26H13a1,1,0,0,0,0,2h6a1,1,0,0,0,0-2Z" style="fill:#6f7a7b"/><path d="M15,17v1a1,1,0,0,0,2,0V17a1,1,0,0,0-2,0Z" style="fill:#6f7a7b"/><circle cx="20" cy="17" r="1" style="fill:#6f7a7b"/><circle cx="12" cy="17" r="1" style="fill:#6f7a7b"/></g></svg>