<svg xmlns="http://www.w3.org/2000/svg" viewBox="0 0 32 32"><title>33-Telephone</title><g id="_33-Telephone" data-name="33-Telephone"><path d="M13,6V7H5V5A2.006,2.006,0,0,1,7,3h4a2.006,2.006,0,0,1,2,2Z" style="fill:#f2f2f2"/><path d="M13,26v1a2.006,2.006,0,0,1-2,2H7a2.006,2.006,0,0,1-2-2V7h8Z" style="fill:#c1c5c8"/><rect x="17" y="10" width="10" height="4" style="fill:#c1c5c8"/><path d="M31,8V24a2.006,2.006,0,0,1-2,2H13V6H29A2.006,2.006,0,0,1,31,8Zm-4,6V10H17v4Z" style="fill:#f2f2f2"/><path d="M5,7V26H3a2.006,2.006,0,0,1-2-2V8A2.006,2.006,0,0,1,3,6H5Z" style="fill:#f2f2f2"/><path d="M29,5H14a3,3,0,0,0-3-3H7A3,3,0,0,0,4,5H3A3,3,0,0,0,0,8V24a3,3,0,0,0,3,3H4a3,3,0,0,0,3,3h4a3,3,0,0,0,3-3H29a3,3,0,0,0,3-3V8A3,3,0,0,0,29,5ZM6,5A1,1,0,0,1,7,4h4a1,1,0,0,1,1,1V6H6ZM3,25a1,1,0,0,1-1-1V8A1,1,0,0,1,3,7H4V25Zm9,2a1,1,0,0,1-1,1H7a1,1,0,0,1-1-1V8h6Zm18-3a1,1,0,0,1-1,1H14V7H29a1,1,0,0,1,1,1Z" style="fill:#6f7a7b"/><path d="M27,9H17a1,1,0,0,0-1,1v4a1,1,0,0,0,1,1H27a1,1,0,0,0,1-1V10A1,1,0,0,0,27,9Zm-1,4H18V11h8Z" style="fill:#6f7a7b"/><circle cx="18" cy="18" r="1" style="fill:#6f7a7b"/><circle cx="22" cy="18" r="1" style="fill:#6f7a7b"/><circle cx="26" cy="18" r="1" style="fill:#6f7a7b"/><circle cx="26" cy="21" r="1" style="fill:#6f7a7b"/><circle cx="22" cy="21" r="1" style="fill:#6f7a7b"/><circle cx="18" cy="21" r="1" style="fill:#6f7a7b"/></g></svg>