<svg xmlns="http://www.w3.org/2000/svg" viewBox="0 0 32 32"><title>34-Telephone</title><g id="_34-Telephone" data-name="34-Telephone"><path d="M28,8v4a1,1,0,0,1-1,1H24l-2,2-2-2H11a1,1,0,0,1-1-1V2a1,1,0,0,1,1-1H27a1,1,0,0,1,1,1Z" style="fill:#c1c5c8"/><path d="M13,28v1a2.006,2.006,0,0,1-2,2H7a2.006,2.006,0,0,1-2-2V7A2.006,2.006,0,0,1,7,5h3v7a1,1,0,0,0,1,1h2Z" style="fill:#f2f2f2"/><path d="M31,10V26a2.006,2.006,0,0,1-2,2H13V13h7l2,2,2-2h3a1,1,0,0,0,1-1V8h1A2.006,2.006,0,0,1,31,10Z" style="fill:#f2f2f2"/><path d="M5,8V28H3a2.006,2.006,0,0,1-2-2V10A2.006,2.006,0,0,1,3,8Z" style="fill:#c1c5c8"/><path d="M29,7V2a2,2,0,0,0-2-2H11A2,2,0,0,0,9,2V4H7A3,3,0,0,0,4,7H3a3,3,0,0,0-3,3V26a3,3,0,0,0,3,3H4a3,3,0,0,0,3,3h4a3,3,0,0,0,3-3H29a3,3,0,0,0,3-3V10A3,3,0,0,0,29,7ZM11,2H27V12H24a1,1,0,0,0-.707.293L22,13.586l-1.293-1.293A1,1,0,0,0,20,12H11ZM3,27a1,1,0,0,1-1-1V10A1,1,0,0,1,3,9H4V27Zm9,2a1,1,0,0,1-1,1H7a1,1,0,0,1-1-1V7A1,1,0,0,1,7,6H9v6a2,2,0,0,0,2,2h1Zm18-3a1,1,0,0,1-1,1H14V14h5.586l1.707,1.707a1,1,0,0,0,1.414,0L24.414,14H27a2,2,0,0,0,2-2V9a1,1,0,0,1,1,1Z" style="fill:#6f7a7b"/><path d="M15,6h8a1,1,0,0,0,0-2H15a1,1,0,0,0,0,2Z" style="fill:#6f7a7b"/><path d="M15,10h6a1,1,0,0,0,0-2H15a1,1,0,0,0,0,2Z" style="fill:#6f7a7b"/><circle cx="18" cy="20" r="1" style="fill:#6f7a7b"/><circle cx="22" cy="20" r="1" style="fill:#6f7a7b"/><circle cx="26" cy="20" r="1" style="fill:#6f7a7b"/><circle cx="26" cy="23" r="1" style="fill:#6f7a7b"/><circle cx="22" cy="23" r="1" style="fill:#6f7a7b"/><circle cx="18" cy="23" r="1" style="fill:#6f7a7b"/></g></svg>