<svg xmlns="http://www.w3.org/2000/svg" viewBox="0 0 32 32"><title>36-Communication</title><g id="_36-Communication" data-name="36-Communication"><path d="M13,31H1c0-2.76,2.69-5,6-5S13,28.24,13,31Z" style="fill:#c1c5c8"/><ellipse cx="7" cy="21.5" rx="4" ry="4.5" style="fill:#f2f2f2"/><path d="M29,31H17c0-2.76,2.69-5,6-5S29,28.24,29,31Z" style="fill:#c1c5c8"/><ellipse cx="23" cy="21.5" rx="4" ry="4.5" style="fill:#f2f2f2"/><path d="M31,3v8a2.006,2.006,0,0,1-2,2H16l-3,3-3-3H3a2.006,2.006,0,0,1-2-2V3A2.006,2.006,0,0,1,3,1H29A2.006,2.006,0,0,1,31,3Z" style="fill:#c1c5c8"/><path d="M26.236,25.685A5.726,5.726,0,0,0,28,21.5,5.274,5.274,0,0,0,23,16a5.274,5.274,0,0,0-5,5.5,5.726,5.726,0,0,0,1.764,4.185A5.966,5.966,0,0,0,16,31a1,1,0,0,0,2,0c0-2.206,2.243-4,5-4s5,1.794,5,4a1,1,0,0,0,2,0A5.966,5.966,0,0,0,26.236,25.685ZM20,21.5A3.283,3.283,0,0,1,23,18a3.283,3.283,0,0,1,3,3.5A3.283,3.283,0,0,1,23,25,3.283,3.283,0,0,1,20,21.5Z" style="fill:#6f7a7b"/><path d="M10.236,25.685A5.726,5.726,0,0,0,12,21.5,5.274,5.274,0,0,0,7,16a5.274,5.274,0,0,0-5,5.5,5.726,5.726,0,0,0,1.764,4.185A5.966,5.966,0,0,0,0,31a1,1,0,0,0,2,0c0-2.206,2.243-4,5-4s5,1.794,5,4a1,1,0,0,0,2,0A5.966,5.966,0,0,0,10.236,25.685ZM4,21.5A3.283,3.283,0,0,1,7,18a3.283,3.283,0,0,1,3,3.5A3.283,3.283,0,0,1,7,25,3.283,3.283,0,0,1,4,21.5Z" style="fill:#6f7a7b"/><path d="M29,0H3A3,3,0,0,0,0,3v8a3,3,0,0,0,3,3H9.586l2.707,2.707a1,1,0,0,0,1.414,0L16.414,14H29a3,3,0,0,0,3-3V3A3,3,0,0,0,29,0Zm1,11a1,1,0,0,1-1,1H16a1,1,0,0,0-.707.293L13,14.586l-2.293-2.293A1,1,0,0,0,10,12H3a1,1,0,0,1-1-1V3A1,1,0,0,1,3,2H29a1,1,0,0,1,1,1Z" style="fill:#6f7a7b"/><circle cx="11" cy="7" r="1" style="fill:#6f7a7b"/><circle cx="16" cy="7" r="1" style="fill:#6f7a7b"/><circle cx="21" cy="7" r="1" style="fill:#6f7a7b"/></g></svg>