<svg xmlns="http://www.w3.org/2000/svg" viewBox="0 0 32 32"><title>39-Communication</title><g id="_39-Communication" data-name="39-Communication"><path d="M31,5V19a4,4,0,0,1-4,4H22l-4,4-4-4H5a4,4,0,0,1-4-4V5A4,4,0,0,1,5,1H27A4,4,0,0,1,31,5Z" style="fill:#c1c5c8"/><path d="M16,31H4c0-2.76,2.69-5,6-5S16,28.24,16,31Z" style="fill:#c1c5c8"/><path d="M14,21.5a4.907,4.907,0,0,1-.52,2.22A3.938,3.938,0,0,1,10,26a3.938,3.938,0,0,1-3.48-2.28A4.907,4.907,0,0,1,6,21.5,4.269,4.269,0,0,1,10,17,4.269,4.269,0,0,1,14,21.5Z" style="fill:#f2f2f2"/><path d="M27,0H5A5.006,5.006,0,0,0,0,5V19a5.006,5.006,0,0,0,5,5h.552a5.479,5.479,0,0,0,1.212,1.685A5.966,5.966,0,0,0,3,31a1,1,0,0,0,2,0c0-2.206,2.243-4,5-4s5,1.794,5,4a1,1,0,0,0,2,0,5.966,5.966,0,0,0-3.764-5.315A5.722,5.722,0,0,0,15,21.5,5.274,5.274,0,0,0,10,16a5.274,5.274,0,0,0-5,5.5c0,.169.009.335.023.5H5a3,3,0,0,1-3-3V5A3,3,0,0,1,5,2H27a3,3,0,0,1,3,3V19a3,3,0,0,1-3,3H22a1,1,0,0,0-.707.293l-4,4a1,1,0,1,0,1.414,1.414L22.414,24H27a5.006,5.006,0,0,0,5-5V5A5.006,5.006,0,0,0,27,0ZM10,18a3.283,3.283,0,0,1,3,3.5A3.283,3.283,0,0,1,10,25a3.283,3.283,0,0,1-3-3.5A3.283,3.283,0,0,1,10,18Z" style="fill:#6f7a7b"/><path d="M7,8H21a1,1,0,0,0,0-2H7A1,1,0,0,0,7,8Z" style="fill:#6f7a7b"/><path d="M7,13H27a1,1,0,0,0,0-2H7a1,1,0,0,0,0,2Z" style="fill:#6f7a7b"/><path d="M17,18h7a1,1,0,0,0,0-2H17a1,1,0,0,0,0,2Z" style="fill:#6f7a7b"/><circle cx="25" cy="7" r="1" style="fill:#6f7a7b"/></g></svg>