<svg xmlns="http://www.w3.org/2000/svg" viewBox="0 0 32 32"><title>4-Message</title><g id="_4-Message" data-name="4-Message"><path d="M31,10V22a4,4,0,0,1-4,4H5a4,4,0,0,1-4-4V10a3.992,3.992,0,0,1,.68-2.23L2,8l14,8L30,8l.32-.23A3.992,3.992,0,0,1,31,10Z" style="fill:#f2f2f2"/><path d="M30,8,16,16,2,8l-.32-.23A4,4,0,0,1,5,6H27a4,4,0,0,1,3.32,1.77Z" style="fill:#c1c5c8"/><path d="M31.149,7.211A5,5,0,0,0,27,5H5A5,5,0,0,0,.851,7.211v0A4.981,4.981,0,0,0,0,10V22a5.006,5.006,0,0,0,5,5H27a5.006,5.006,0,0,0,5-5V10A4.986,4.986,0,0,0,31.149,7.211ZM27,7a2.977,2.977,0,0,1,1.728.575L16,14.848,3.272,7.575A2.977,2.977,0,0,1,5,7Zm3,15a3,3,0,0,1-3,3H5a3,3,0,0,1-3-3V10a2.993,2.993,0,0,1,.11-.785l9.662,5.521-6.422,5.5a1,1,0,1,0,1.3,1.518l6.966-5.97L15.5,16.868a1,1,0,0,0,.992,0l1.322-.755L25.4,21.8a1,1,0,1,0,1.2-1.6l-6.891-5.168L29.89,9.215A2.993,2.993,0,0,1,30,10Z" style="fill:#6f7a7b"/></g></svg>