<svg xmlns="http://www.w3.org/2000/svg" viewBox="0 0 32 32"><title>41-Message</title><g id="_41-Message" data-name="41-Message"><circle cx="16" cy="16" r="15" style="fill:#f2f2f2"/><path d="M23.66,10.25,16,16,8.34,10.25A.985.985,0,0,1,9,10H23A.985.985,0,0,1,23.66,10.25Z" style="fill:#f2f2f2"/><path d="M24,11V21a1,1,0,0,1-1,1H9a1,1,0,0,1-1-1V11a.983.983,0,0,1,.34-.75L16,16l7.66-5.75A.983.983,0,0,1,24,11Z" style="fill:#c1c5c8"/><path d="M16,0A16,16,0,1,0,32,16,16.019,16.019,0,0,0,16,0Zm0,30A14,14,0,1,1,30,16,14.015,14.015,0,0,1,16,30Z" style="fill:#6f7a7b"/><path d="M23,9H9a2,2,0,0,0-2,2V21a2,2,0,0,0,2,2H23a2,2,0,0,0,2-2V11A2,2,0,0,0,23,9Zm-1.72,2L16,14.771,10.72,11ZM9,21V12.229l6.419,4.584a1,1,0,0,0,1.162,0L23,12.229V21Z" style="fill:#6f7a7b"/></g></svg>