<svg xmlns="http://www.w3.org/2000/svg" viewBox="0 0 32 32"><title>42-Mail Box</title><g id="_42-Mail_Box" data-name="42-Mail Box"><polygon points="15 24 18 24 18 28 14 28 14 24 15 24" style="fill:#f2f2f2"/><polygon points="24 4 23.45 8.94 23 13 20 13 20 9 20 4 24 4" style="fill:#f2f2f2"/><path d="M20,13h3l.45-4.06L24,9h2a5,5,0,0,1,5,5V24H15V14c0-2.76-1.24-5-4-5h9Z" style="fill:#c1c5c8"/><path d="M15,14V24H1V14A5,5,0,0,1,6,9h5C13.76,9,15,11.24,15,14Z" style="fill:#f2f2f2"/><path d="M26,8H24.562l.432-3.89A1,1,0,0,0,24,3H20a1,1,0,0,0-1,1V8H6a6.006,6.006,0,0,0-6,6V24a1,1,0,0,0,1,1H13v3a1,1,0,0,0,2,0V25h2v3a1,1,0,0,0,2,0V25H31a1,1,0,0,0,1-1V14A6.006,6.006,0,0,0,26,8ZM21,5h1.883L22.1,12H21ZM2,14a4,4,0,0,1,4-4h5c2.708,0,3,2.8,3,4v9H2Zm28,9H16V14a6.934,6.934,0,0,0-1.116-4H19v7a1,1,0,0,0,2,0V14h2a1,1,0,0,0,.994-.89L24.34,10H26a4,4,0,0,1,4,4Z" style="fill:#6f7a7b"/><path d="M10,13H6a1,1,0,0,0,0,2h4a1,1,0,0,0,0-2Z" style="fill:#6f7a7b"/></g></svg>