<svg xmlns="http://www.w3.org/2000/svg" viewBox="0 0 32 32"><title>45-User</title><g id="_45-User" data-name="45-User"><path d="M31,15c0,6.63-5.72,12-14,12l-5,2V26C5.66,25.6,1,20.52,1,15,1,8.37,7.72,3,16,3S31,8.37,31,15Z" style="fill:#f2f2f2"/><path d="M22,21H10c0-2.76,2.69-5,6-5S22,18.24,22,21Z" style="fill:#c1c5c8"/><path d="M20,11.5a4.907,4.907,0,0,1-.52,2.22A3.938,3.938,0,0,1,16,16a3.938,3.938,0,0,1-3.48-2.28A4.907,4.907,0,0,1,12,11.5,4.269,4.269,0,0,1,16,7,4.269,4.269,0,0,1,20,11.5Z" style="fill:#f2f2f2"/><path d="M16,2C7.178,2,0,7.832,0,15c0,6.006,4.76,11.074,11,11.906V29a1,1,0,0,0,1.372.929L17.2,28C25.649,27.915,32,22.354,32,15,32,7.832,24.822,2,16,2Zm1,24a1.012,1.012,0,0,0-.372.071L13,27.523V26a1,1,0,0,0-.937-1C6.514,24.649,2,20.163,2,15,2,8.935,8.28,4,16,4S30,8.935,30,15C30,21.271,24.411,26,17,26Z" style="fill:#6f7a7b"/><path d="M19.236,15.685A5.722,5.722,0,0,0,21,11.5,5.274,5.274,0,0,0,16,6a5.274,5.274,0,0,0-5,5.5,5.722,5.722,0,0,0,1.764,4.185A5.966,5.966,0,0,0,9,21a1,1,0,0,0,2,0c0-2.206,2.243-4,5-4s5,1.794,5,4a1,1,0,0,0,2,0A5.966,5.966,0,0,0,19.236,15.685ZM13,11.5A3.283,3.283,0,0,1,16,8a3.283,3.283,0,0,1,3,3.5A3.283,3.283,0,0,1,16,15,3.283,3.283,0,0,1,13,11.5Z" style="fill:#6f7a7b"/></g></svg>