<svg xmlns="http://www.w3.org/2000/svg" viewBox="0 0 32 32"><title>47-Message</title><g id="_47-Message" data-name="47-Message"><rect x="1" y="2" width="30" height="28" rx="3" style="fill:#f2f2f2"/><path d="M31,5a3,3,0,0,0-3-3H4A3,3,0,0,0,1,5V9H31Z" style="fill:#c1c5c8"/><path d="M23.66,12.25,16,18,8.34,12.25A.985.985,0,0,1,9,12H23A.985.985,0,0,1,23.66,12.25Z" style="fill:#f2f2f2"/><path d="M24,13V23a1,1,0,0,1-1,1H9a1,1,0,0,1-1-1V13a.983.983,0,0,1,.34-.75L16,18l7.66-5.75A.983.983,0,0,1,24,13Z" style="fill:#c1c5c8"/><path d="M28,1H4A4,4,0,0,0,0,5V27a4,4,0,0,0,4,4H28a4,4,0,0,0,4-4V5A4,4,0,0,0,28,1Zm2,26a2,2,0,0,1-2,2H4a2,2,0,0,1-2-2V5A2,2,0,0,1,4,3H28a2,2,0,0,1,2,2Z" style="fill:#6f7a7b"/><path d="M23,11H9a2,2,0,0,0-2,2V23a2,2,0,0,0,2,2H23a2,2,0,0,0,2-2V13A2,2,0,0,0,23,11Zm-1.72,2L16,16.771,10.72,13ZM9,23V14.229l6.419,4.584a1,1,0,0,0,1.162,0L23,14.229V23Z" style="fill:#6f7a7b"/><circle cx="5" cy="6" r="1" style="fill:#6f7a7b"/><circle cx="9" cy="6" r="1" style="fill:#6f7a7b"/><circle cx="27" cy="6" r="1" style="fill:#6f7a7b"/></g></svg>