<?xml version="1.0" encoding="UTF-8"?><svg xmlns="http://www.w3.org/2000/svg" viewBox="0 0 24 24"><g id="a"/><g id="b"/><g id="c"/><g id="d"/><g id="e"/><g id="f"/><g id="g"><g><path d="M15.71,14.18c-.63-1.76-1.86-2.55-2.36-2.81-.22-.11-.48-.11-.69,0-.5,.26-1.73,1.06-2.36,2.81l-.05,.15c-.36,1.1-.18,2.31,.49,3.23,.56,.77,1.39,1.22,2.26,1.22s1.7-.44,2.26-1.22c.67-.92,.85-2.13,.49-3.23l-.05-.15Z"/><path d="M18.63,9.29c-.58-2.9-3.1-5.01-6.13-5.01-2.61,0-4.93,1.65-5.83,4.06-.22-.04-.44-.06-.67-.06-2.07,0-3.75,1.68-3.75,3.75s1.68,3.75,3.75,3.75h2.58c-.04-.64,.03-1.29,.24-1.92l.06-.17c.81-2.28,2.43-3.32,3.09-3.66,.32-.17,.68-.25,1.04-.25s.72,.09,1.04,.26c.66,.34,2.27,1.38,3.08,3.64l.06,.17c.21,.63,.28,1.29,.24,1.93h1.08c1.79,0,3.25-1.46,3.25-3.25s-1.39-3.17-3.12-3.24Z"/></g></g><g id="h"/><g id="i"/><g id="j"/><g id="k"/><g id="l"/><g id="m"/><g id="n"/><g id="o"/><g id="p"/><g id="q"/><g id="r"/><g id="s"/><g id="t"/><g id="u"/></svg>