<?xml version="1.0" encoding="UTF-8"?><svg xmlns="http://www.w3.org/2000/svg" viewBox="0 0 24 24"><g id="a"/><g id="b"/><g id="c"/><g id="d"><path d="M12,1.98C6.62,1.98,2.25,6.35,2.25,11.73s4.37,9.75,9.75,9.75,9.75-4.37,9.75-9.75S17.38,1.98,12,1.98Zm-3.98,6.5c-.41,0-.75-.34-.75-.75s.33-.75,.74-.75h.01c.41,0,.75,.34,.75,.75s-.34,.75-.75,.75Zm6.98,3.5c.41,0,.75,.34,.75,.75s-.34,.75-.75,.75h-4.25v3.25c0,.41-.34,.75-.75,.75s-.75-.34-.75-.75V8.73c0-.41,.34-.75,.75-.75h5c.41,0,.75,.34,.75,.75s-.34,.75-.75,.75h-4.25v2.5h4.25Z"/></g><g id="e"/><g id="f"/><g id="g"/><g id="h"/><g id="i"/><g id="j"/><g id="k"/><g id="l"/><g id="m"/><g id="n"/><g id="o"/><g id="p"/><g id="q"/><g id="r"/><g id="s"/><g id="t"/><g id="u"/></svg>