<?xml version="1.0" encoding="UTF-8"?><svg xmlns="http://www.w3.org/2000/svg" viewBox="0 0 24 24"><g id="a"/><g id="b"/><g id="c"><g><path d="M19.92,15.69c-.58,.39-1.25,.58-1.92,.58s-1.33-.19-1.92-.58c-.66-.44-1.51-.44-2.17,0-1.16,.78-2.67,.78-3.83,0-.66-.44-1.51-.44-2.17,0-1.16,.78-2.67,.78-3.83,0l-1.31-.87h-.52v1.18c0,.11,.01,.21,.02,.32h.73c.15,0,.29,.04,.42,.13l1.5,1c.66,.44,1.51,.44,2.17,0,1.16-.78,2.67-.78,3.83,0,.66,.44,1.51,.44,2.17,0,1.16-.78,2.67-.78,3.83,0,.66,.44,1.51,.44,2.17,0l1.5-1c.12-.08,.27-.13,.42-.13h.73c0-.11,.02-.21,.02-.32v-1.18h-.52l-1.31,.87Z"/><path d="M19.92,12.62c-.58,.39-1.25,.58-1.92,.58s-1.33-.19-1.92-.58c-.66-.44-1.51-.44-2.17,0-1.16,.78-2.67,.78-3.83,0-.66-.44-1.51-.44-2.17,0-1.16,.78-2.67,.78-3.83,0l-1.31-.87h-.52v1.57h.75c.15,0,.29,.04,.42,.13l1.5,1c.66,.44,1.51,.44,2.17,0,1.16-.78,2.67-.78,3.83,0,.66,.44,1.51,.44,2.17,0,1.16-.78,2.67-.78,3.83,0,.66,.44,1.51,.44,2.17,0l1.5-1c.12-.08,.27-.13,.42-.13h.75v-1.57h-.52l-1.31,.87Z"/><path d="M16,2.25H8c-3.17,0-5.75,2.58-5.75,5.75v2.25h.75c.15,0,.29,.04,.42,.13l1.5,1c.66,.44,1.51,.44,2.17,0,1.16-.78,2.67-.78,3.83,0,.66,.44,1.51,.44,2.17,0,1.16-.78,2.67-.78,3.83,0,.66,.44,1.51,.44,2.17,0l1.5-1c.12-.08,.27-.13,.42-.13h.75v-2.25c0-3.17-2.58-5.75-5.75-5.75Zm-1.47,5.03c-.15,.15-.34,.22-.53,.22s-.38-.07-.53-.22l-.72-.72v2.19c0,.41-.34,.75-.75,.75s-.75-.34-.75-.75v-2.19l-.72,.72c-.29,.29-.77,.29-1.06,0s-.29-.77,0-1.06l2-2c.29-.29,.77-.29,1.06,0l2,2c.29,.29,.29,.77,0,1.06Z"/><path d="M19.92,18.69c-.58,.39-1.25,.58-1.92,.58s-1.33-.19-1.92-.58c-.66-.44-1.51-.44-2.17,0-1.16,.78-2.67,.78-3.83,0-.66-.44-1.51-.44-2.17,0-1.16,.78-2.67,.78-3.83,0l-1.31-.87h-.22c.76,2.28,2.92,3.93,5.45,3.93h8c2.53,0,4.69-1.65,5.45-3.93h-.22l-1.31,.87Z"/></g></g><g id="d"/><g id="e"/><g id="f"/><g id="g"/><g id="h"/><g id="i"/><g id="j"/><g id="k"/><g id="l"/><g id="m"/><g id="n"/><g id="o"/><g id="p"/><g id="q"/><g id="r"/><g id="s"/><g id="t"/><g id="u"/></svg>