<?xml version="1.0" encoding="UTF-8"?><svg xmlns="http://www.w3.org/2000/svg" viewBox="0 0 24 24"><g id="a"/><g id="b"/><g id="c"/><g id="d"/><g id="e"/><g id="f"/><g id="g"/><g id="h"/><g id="i"/><g id="j"/><g id="k"/><g id="l"><g><path d="M10.25,12c0-4.83,3.13-7.9,4.47-8.99l.32-.26c-.96-.32-1.98-.49-3.05-.49C6.62,2.25,2.25,6.62,2.25,12s4.37,9.75,9.75,9.75c1.04,0,2.04-.17,2.98-.47l-.42-.42c-1.58-1.31-4.32-4.27-4.32-8.86Z"/><path d="M16.61,3.41l-.94,.76c-1.46,1.19-3.92,3.79-3.92,7.83s2.4,6.56,3.83,7.75l.9,.9c3.13-1.62,5.28-4.89,5.28-8.65s-2.08-6.94-5.14-8.59Z"/></g></g><g id="m"/><g id="n"/><g id="o"/><g id="p"/><g id="q"/><g id="r"/><g id="s"/><g id="t"/><g id="u"/></svg>