<?xml version="1.0" encoding="UTF-8"?><svg xmlns="http://www.w3.org/2000/svg" viewBox="0 0 24 24"><g id="a"/><g id="b"/><g id="c"/><g id="d"/><g id="e"/><g id="f"/><g id="g"/><g id="h"/><g id="i"/><g id="j"/><g id="k"/><g id="l"/><g id="m"/><g id="n"/><g id="o"/><g id="p"/><g id="q"/><g id="r"/><g id="s"><g><path d="M18.63,8.86c-.57-2.9-3.1-5.01-6.13-5.01-2.61,0-4.93,1.65-5.83,4.06-.22-.04-.44-.06-.67-.06-2.07,0-3.75,1.68-3.75,3.75s1.68,3.75,3.75,3.75h12.5c1.79,0,3.25-1.46,3.25-3.25s-1.39-3.17-3.12-3.24Z"/><path d="M10.47,17.06l-2,2c-.29,.29-.29,.77,0,1.06,.15,.15,.34,.22,.53,.22s.38-.07,.53-.22l2-2c.29-.29,.29-.77,0-1.06s-.77-.29-1.06,0Z"/><path d="M8.53,16.06c-.29-.29-.77-.29-1.06,0l-3,3c-.29,.29-.29,.77,0,1.06,.15,.15,.34,.22,.53,.22s.38-.07,.53-.22l3-3c.29-.29,.29-.77,0-1.06Z"/><path d="M15.53,16.06c-.29-.29-.77-.29-1.06,0l-2,2c-.29,.29-.29,.77,0,1.06,.15,.15,.34,.22,.53,.22s.38-.07,.53-.22l2-2c.29-.29,.29-.77,0-1.06Z"/><path d="M17.47,17.06l-2,2c-.29,.29-.29,.77,0,1.06,.15,.15,.34,.22,.53,.22s.38-.07,.53-.22l2-2c.29-.29,.29-.77,0-1.06s-.77-.29-1.06,0Z"/></g></g><g id="t"/><g id="u"/></svg>