<?xml version="1.0" encoding="UTF-8"?><svg xmlns="http://www.w3.org/2000/svg" viewBox="0 0 24 24"><g id="a"/><g id="b"><g><path d="M12,11.75c-2.89,0-5.25,2.36-5.25,5.25v.75h2.25c.41,0,.75-.34,.75-.75,0-1.24,1.01-2.25,2.25-2.25s2.25,1.01,2.25,2.25c0,.41,.34,.75,.75,.75h2.25v-.75c0-2.89-2.36-5.25-5.25-5.25Z"/><path d="M12,7.25c-5.38,0-9.75,4.37-9.75,9.75,0,.41,.34,.75,.75,.75h2.25v-.75c0-3.72,3.03-6.75,6.75-6.75s6.75,3.03,6.75,6.75v.75h2.25c.41,0,.75-.34,.75-.75,0-5.38-4.37-9.75-9.75-9.75Z"/></g></g><g id="c"/><g id="d"/><g id="e"/><g id="f"/><g id="g"/><g id="h"/><g id="i"/><g id="j"/><g id="k"/><g id="l"/><g id="m"/><g id="n"/><g id="o"/><g id="p"/><g id="q"/><g id="r"/><g id="s"/><g id="t"/><g id="u"/></svg>