<?xml version="1.0" encoding="UTF-8"?><svg xmlns="http://www.w3.org/2000/svg" viewBox="0 0 24 24"><g id="a"/><g id="b"/><g id="c"/><g id="d"/><g id="e"/><g id="f"><path d="M21.74,13.61c-.12-.4-.54-.62-.93-.51l-3.47,1-2.09-1.16v-1.95l2.04-1.17,3.47,1.08c.07,.02,.15,.03,.22,.03,.32,0,.62-.21,.72-.53,.12-.4-.1-.82-.49-.94l-2.15-.67,1.11-.64c.36-.21,.48-.67,.28-1.02-.21-.36-.67-.48-1.02-.27l-1.03,.59,.63-2.35c.11-.4-.13-.81-.53-.92-.4-.11-.81,.13-.92,.53l-1.02,3.8-2.05,1.18-1.75-1.01v-2.59l2.76-2.53c.31-.28,.33-.75,.04-1.06-.28-.3-.76-.32-1.06-.04l-1.74,1.6v-1.05c0-.41-.34-.75-.75-.75s-.75,.34-.75,.75v1.13l-1.73-1.67c-.3-.29-.77-.28-1.06,.02-.29,.3-.28,.77,.02,1.06l2.77,2.67v2.47l-1.81,1.04-2.25-1.25-.88-3.64c-.1-.4-.5-.65-.91-.55-.4,.1-.65,.5-.55,.91l.56,2.3-.92-.51c-.36-.2-.82-.07-1.02,.29-.2,.36-.07,.82,.29,1.02l.99,.55-2,.62c-.4,.12-.62,.54-.49,.94,.1,.32,.4,.53,.72,.53,.07,0,.15-.01,.22-.03l3.36-1.05,2.18,1.21v1.95l-2.23,1.28-3.25-1.18c-.39-.14-.82,.06-.96,.45-.14,.39,.06,.82,.45,.96l2.07,.75-1,.57c-.36,.21-.48,.67-.28,1.02,.14,.24,.39,.38,.65,.38,.13,0,.26-.03,.37-.1l.98-.56-.58,2.33c-.1,.4,.15,.81,.55,.91,.06,.02,.12,.02,.18,.02,.34,0,.64-.23,.73-.57l.93-3.73,2.14-1.23,1.75,1.01v2.37l-2.78,2.78c-.29,.29-.29,.77,0,1.06s.77,.29,1.06,0l1.72-1.72v1.19c0,.41,.34,.75,.75,.75s.75-.34,.75-.75v-1.19l1.72,1.72c.15,.15,.34,.22,.53,.22s.38-.07,.53-.22c.29-.29,.29-.77,0-1.06l-2.78-2.78v-2.37l1.81-1.04,2.05,1.14,1.08,3.78c.09,.33,.39,.54,.72,.54,.07,0,.14,0,.21-.03,.4-.11,.63-.53,.51-.93l-.67-2.34,1.04,.58c.11,.06,.24,.09,.36,.09,.26,0,.52-.14,.66-.39,.2-.36,.07-.82-.29-1.02l-1.05-.58,2.03-.59c.4-.12,.63-.53,.51-.93Z"/></g><g id="g"/><g id="h"/><g id="i"/><g id="j"/><g id="k"/><g id="l"/><g id="m"/><g id="n"/><g id="o"/><g id="p"/><g id="q"/><g id="r"/><g id="s"/><g id="t"/><g id="u"/></svg>