<?xml version="1.0" encoding="UTF-8"?><svg xmlns="http://www.w3.org/2000/svg" viewBox="0 0 24 24"><g id="a"/><g id="b"/><g id="c"/><g id="d"/><g id="e"/><g id="f"/><g id="g"/><g id="h"/><g id="i"/><g id="j"/><g id="k"/><g id="l"/><g id="m"/><g id="n"/><g id="o"/><g id="p"/><g id="q"><g><path d="M13,14.25h-1.79l1.46-2.91c.19-.37,.04-.82-.34-1.01-.37-.18-.82-.03-1.01,.34l-2,4c-.12,.23-.1,.51,.03,.73,.14,.22,.38,.36,.64,.36h1.89l-1.59,3.97c-.15,.38,.03,.82,.42,.97,.09,.04,.19,.05,.28,.05,.3,0,.58-.18,.7-.47l2-5c.09-.23,.06-.49-.08-.7s-.37-.33-.62-.33Z"/><path d="M18.63,11.26c-.57-2.9-3.1-5.01-6.13-5.01-2.61,0-4.93,1.65-5.83,4.06-.22-.04-.44-.06-.67-.06-2.07,0-3.75,1.68-3.75,3.75s1.68,3.75,3.75,3.75h3.48l.21-.52c-.66-.09-1.24-.47-1.6-1.04-.41-.67-.45-1.49-.1-2.19l2-4c.39-.77,1.16-1.24,2.01-1.24,.34,0,.69,.08,1,.23,.54,.27,.94,.73,1.13,1.3,.19,.57,.15,1.18-.12,1.72l-.41,.82c.51,.14,.96,.46,1.26,.91,.42,.62,.5,1.4,.22,2.1l-.76,1.91h4.18c1.79,0,3.25-1.46,3.25-3.25s-1.39-3.17-3.12-3.24Z"/></g></g><g id="r"/><g id="s"/><g id="t"/><g id="u"/></svg>