<?xml version="1.0" encoding="UTF-8"?><svg xmlns="http://www.w3.org/2000/svg" viewBox="0 0 24 24"><g id="a"/><g id="b"/><g id="c"/><g id="d"/><g id="e"/><g id="f"/><g id="g"/><g id="h"><path d="M21.18,13.14l-4.83-7.72c-.75-1.21-2.1-1.88-3.52-1.75l-4.28,.39c-.72,.07-1.36,.42-1.81,.93-.8-.44-1.57-.95-2.24-1.55-.33-.29-.64-.61-.94-.94,0,0-.01,0-.02-.01-.04-.04-.09-.07-.14-.1-.03-.02-.06-.05-.1-.07-.04-.02-.08-.02-.13-.03-.05-.01-.1-.03-.16-.03,0,0-.01,0-.02,0-.04,0-.07,.02-.11,.02-.05,0-.11,.01-.16,.03-.05,.02-.1,.05-.14,.08-.03,.02-.06,.03-.09,.05,0,0,0,.01-.01,.02-.04,.04-.07,.09-.1,.14-.02,.03-.05,.06-.07,.1-.02,.04-.02,.08-.03,.13-.01,.05-.03,.1-.03,.16,0,0,0,.01,0,.02V21c0,.41,.34,.75,.75,.75s.75-.34,.75-.75V4.77c.72,.61,1.5,1.15,2.34,1.6,0,.06-.03,.12-.03,.18h0l-.39,4.28c-.13,1.42,.54,2.77,1.75,3.52l7.72,4.83c.62,.39,1.31,.57,1.99,.57,.97,0,1.92-.38,2.65-1.1l.87-.87c1.24-1.24,1.46-3.15,.53-4.64Zm-12.1-1.07c-.29,0-.57-.17-.69-.46-.16-.38,.01-.82,.4-.98,.86-.37,1.63-.89,2.29-1.55,.65-.65,1.19-1.44,1.55-2.29,.16-.38,.6-.56,.98-.4,.38,.16,.56,.6,.4,.98-.44,1.04-1.07,1.97-1.87,2.77-.8,.8-1.73,1.43-2.77,1.87-.1,.04-.2,.06-.29,.06Zm5.73,.74c-.55,.55-1.18,.99-1.88,1.31-.1,.05-.21,.07-.31,.07-.28,0-.55-.16-.68-.44-.17-.38,0-.82,.37-1,.54-.25,1.03-.59,1.45-1.01s.76-.91,1.01-1.45c.17-.38,.62-.54,1-.37,.38,.17,.54,.62,.37,1-.33,.7-.77,1.34-1.31,1.88Zm3.28,1.87l-1.41,1.41c-.15,.15-.34,.22-.53,.22s-.38-.07-.53-.22c-.29-.29-.29-.77,0-1.06l1.41-1.41c.29-.29,.77-.29,1.06,0s.29,.77,0,1.06Z"/></g><g id="i"/><g id="j"/><g id="k"/><g id="l"/><g id="m"/><g id="n"/><g id="o"/><g id="p"/><g id="q"/><g id="r"/><g id="s"/><g id="t"/><g id="u"/></svg>