<?xml version="1.0" encoding="UTF-8"?><svg xmlns="http://www.w3.org/2000/svg" viewBox="0 0 24 24"><g id="a"/><g id="b"/><g id="c"/><g id="d"/><g id="e"><g><path d="M18.63,7.26c-.57-2.9-3.1-5.01-6.13-5.01-2.61,0-4.93,1.65-5.83,4.06-.22-.04-.44-.06-.67-.06-2.07,0-3.75,1.68-3.75,3.75s1.68,3.75,3.75,3.75h12.5c1.79,0,3.25-1.46,3.25-3.25s-1.39-3.17-3.12-3.24Z"/><path d="M18,15.25h-4c-.41,0-.75,.34-.75,.75s.34,.75,.75,.75h4c.14,0,.25,.11,.25,.25s-.11,.25-.25,.25h-1c-.41,0-.75,.34-.75,.75s.34,.75,.75,.75h1c.96,0,1.75-.79,1.75-1.75s-.79-1.75-1.75-1.75Z"/><path d="M5,16.75h5c.41,0,.75-.34,.75-.75s-.34-.75-.75-.75H5c-.41,0-.75,.34-.75,.75s.34,.75,.75,.75Z"/><path d="M13,18.25H5c-.41,0-.75,.34-.75,.75s.34,.75,.75,.75H13c.14,0,.25,.11,.25,.25s-.11,.25-.25,.25h-1c-.41,0-.75,.34-.75,.75s.34,.75,.75,.75h1c.96,0,1.75-.79,1.75-1.75s-.79-1.75-1.75-1.75Z"/></g></g><g id="f"/><g id="g"/><g id="h"/><g id="i"/><g id="j"/><g id="k"/><g id="l"/><g id="m"/><g id="n"/><g id="o"/><g id="p"/><g id="q"/><g id="r"/><g id="s"/><g id="t"/><g id="u"/></svg>