<?xml version="1.0" encoding="UTF-8"?><svg xmlns="http://www.w3.org/2000/svg" viewBox="0 0 24 24"><g id="a"/><g id="b"/><g id="c"/><g id="d"/><g id="e"/><g id="f"/><g id="g"/><g id="h"/><g id="i"/><g id="j"/><g id="k"/><g id="l"/><g id="m"/><g id="n"><path d="M21.24,6.52c-.87-2.02-2.79-3.27-5.01-3.27-1.45,0-2.82,.56-3.85,1.58l-.41,.4-.41-.4c-1.03-1.02-2.4-1.58-3.85-1.58-2.22,0-4.14,1.25-5.01,3.27-.86,1.99-.47,4.21,1.02,5.79l7.7,8.2c.14,.15,.34,.24,.55,.24s.4-.09,.55-.24l7.7-8.2c1.49-1.58,1.88-3.81,1.02-5.79Zm-5.24,5.23h-1.54l-.79,1.59c-.13,.25-.39,.41-.67,.41s-.54-.16-.67-.41l-1.33-2.66-.33,.66c-.13,.25-.39,.41-.67,.41h-2c-.41,0-.75-.34-.75-.75s.34-.75,.75-.75h1.54l.79-1.59c.25-.51,1.09-.51,1.34,0l1.33,2.66,.33-.66c.13-.25,.39-.41,.67-.41h2c.41,0,.75,.34,.75,.75s-.34,.75-.75,.75Z"/></g><g id="o"/><g id="p"/><g id="q"/><g id="r"/><g id="s"/><g id="t"/><g id="u"/></svg>