<?xml version="1.0" encoding="UTF-8"?><svg xmlns="http://www.w3.org/2000/svg" viewBox="0 0 24 24"><g id="a"/><g id="b"/><g id="c"/><g id="d"/><g id="e"/><g id="f"/><g id="g"/><g id="h"/><g id="i"/><g id="j"/><g id="k"/><g id="l"/><g id="m"/><g id="n"/><g id="o"/><g id="p"/><g id="q"/><g id="r"/><g id="s"/><g id="t"/><g id="u"><path d="M19,8.25h-2c-.69,0-1.25-.56-1.25-1.25v-2c0-1.52-1.23-2.75-2.75-2.75h-2c-1.52,0-2.75,1.23-2.75,2.75v2c0,.69-.56,1.25-1.25,1.25h-2c-1.52,0-2.75,1.23-2.75,2.75v2c0,1.52,1.23,2.75,2.75,2.75h2c.69,0,1.25,.56,1.25,1.25v2c0,1.52,1.23,2.75,2.75,2.75h2c1.52,0,2.75-1.23,2.75-2.75v-2c0-.69,.56-1.25,1.25-1.25h2c1.52,0,2.75-1.23,2.75-2.75v-2c0-1.52-1.23-2.75-2.75-2.75Z"/></g></svg>