<svg id="_1-Music" data-name="1-Music" xmlns="http://www.w3.org/2000/svg" viewBox="0 0 32 32"><title>1-Music</title><circle cx="24" cy="21" r="4" style="fill:#c1c5c8"/><circle cx="8" cy="27" r="4" style="fill:#c1c5c8"/><path d="M8,32a5,5,0,1,1,5-5A5.006,5.006,0,0,1,8,32Zm0-8a3,3,0,1,0,3,3A3,3,0,0,0,8,24Z" style="fill:#6f7a7b"/><path d="M24,26a5,5,0,1,1,5-5A5.006,5.006,0,0,1,24,26Zm0-8a3,3,0,1,0,3,3A3,3,0,0,0,24,18Z" style="fill:#6f7a7b"/><path d="M12,28a1,1,0,0,1-1-1V6a4.556,4.556,0,0,1,2.553-3.895C15.417,1.174,25.839.191,27.91,0A1,1,0,0,1,29,1V21a1,1,0,0,1-2,0V2.1c-4.688.45-11.461,1.251-12.553,1.8A2.556,2.556,0,0,0,13,6.011V27A1,1,0,0,1,12,28Z" style="fill:#6f7a7b"/></svg>