<svg xmlns="http://www.w3.org/2000/svg" viewBox="0 0 32 32"><title>10-Play</title><g id="_10-Play" data-name="10-Play"><circle cx="16" cy="16" r="15" style="fill:#c1c5c8"/><polygon points="22 16 12 21 12 11 22 16" style="fill:#f2f2f2"/><path d="M16,32A16,16,0,1,1,32,16,16.019,16.019,0,0,1,16,32ZM16,2A14,14,0,1,0,30,16,14.015,14.015,0,0,0,16,2Z" style="fill:#6f7a7b"/><path d="M12,22a1,1,0,0,1-1-1V11a1,1,0,0,1,1.447-.895l10,5a1,1,0,0,1,0,1.79l-10,5A1,1,0,0,1,12,22Zm1-9.382v6.764L19.764,16Z" style="fill:#6f7a7b"/></g></svg>