<svg xmlns="http://www.w3.org/2000/svg" viewBox="0 0 32 32"><title>12-Piano</title><g id="_12-Piano" data-name="12-Piano"><path d="M26,9V20a1,1,0,0,1-1,1H23a1,1,0,0,1-1-1V9Z" style="fill:#bbc2c6"/><path d="M18,9V20a1,1,0,0,1-1,1H15a1,1,0,0,1-1-1V9Z" style="fill:#bbc2c6"/><path d="M10,9V20a1,1,0,0,1-1,1H7a1,1,0,0,1-1-1V9Z" style="fill:#bbc2c6"/><path d="M31,9V27a4,4,0,0,1-4,4H24V21h1a1,1,0,0,0,1-1V9Z" style="fill:#f2f2f2"/><path d="M24,21V31H16V21h1a1,1,0,0,0,1-1V9h4V20a1,1,0,0,0,1,1Z" style="fill:#f2f2f2"/><path d="M16,21V31H8V21H9a1,1,0,0,0,1-1V9h4V20a1,1,0,0,0,1,1Z" style="fill:#f2f2f2"/><path d="M8,21V31H5a4,4,0,0,1-4-4V9H6V20a1,1,0,0,0,1,1Z" style="fill:#f2f2f2"/><path d="M31,5V9H1V5A4,4,0,0,1,5,1H27A4,4,0,0,1,31,5Z" style="fill:#c1c5c8"/><path d="M27,32H5a5.006,5.006,0,0,1-5-5V5A5.006,5.006,0,0,1,5,0H27a5.006,5.006,0,0,1,5,5V27A5.006,5.006,0,0,1,27,32ZM5,2A3,3,0,0,0,2,5V27a3,3,0,0,0,3,3H27a3,3,0,0,0,3-3V5a3,3,0,0,0-3-3Z" style="fill:#6f7a7b"/><path d="M31,10H1A1,1,0,0,1,1,8H31a1,1,0,0,1,0,2Z" style="fill:#6f7a7b"/><path d="M17,22H15a2,2,0,0,1-2-2V9a1,1,0,0,1,2,0V20h2V9a1,1,0,0,1,2,0V20A2,2,0,0,1,17,22Z" style="fill:#6f7a7b"/><path d="M25,22H23a2,2,0,0,1-2-2V9a1,1,0,0,1,2,0V20h2V9a1,1,0,0,1,2,0V20A2,2,0,0,1,25,22Z" style="fill:#6f7a7b"/><path d="M9,22H7a2,2,0,0,1-2-2V9A1,1,0,0,1,7,9V20H9V9a1,1,0,0,1,2,0V20A2,2,0,0,1,9,22Z" style="fill:#6f7a7b"/><path d="M8,32a1,1,0,0,1-1-1V21a1,1,0,0,1,2,0V31A1,1,0,0,1,8,32Z" style="fill:#6f7a7b"/><path d="M16,32a1,1,0,0,1-1-1V21a1,1,0,0,1,2,0V31A1,1,0,0,1,16,32Z" style="fill:#6f7a7b"/><path d="M24,32a1,1,0,0,1-1-1V21a1,1,0,0,1,2,0V31A1,1,0,0,1,24,32Z" style="fill:#6f7a7b"/><path d="M9,6H6A1,1,0,0,1,6,4H9A1,1,0,0,1,9,6Z" style="fill:#6f7a7b"/><circle cx="22" cy="5" r="1" style="fill:#6f7a7b"/><circle cx="26" cy="5" r="1" style="fill:#6f7a7b"/></g></svg>