<svg xmlns="http://www.w3.org/2000/svg" viewBox="0 0 32 32"><title>14-Pause</title><g id="_14-Pause" data-name="14-Pause"><circle cx="16" cy="16" r="15" style="fill:#c1c5c8"/><path d="M22,12v8a2,2,0,0,1-4,0V12a2,2,0,0,1,4,0Z" style="fill:#f2f2f2"/><path d="M14,12v8a2,2,0,0,1-4,0V12a2,2,0,0,1,4,0Z" style="fill:#f2f2f2"/><path d="M16,32A16,16,0,1,1,32,16,16.019,16.019,0,0,1,16,32ZM16,2A14,14,0,1,0,30,16,14.015,14.015,0,0,0,16,2Z" style="fill:#6f7a7b"/><path d="M12,23a3,3,0,0,1-3-3V12a3,3,0,0,1,6,0v8A3,3,0,0,1,12,23Zm0-12a1,1,0,0,0-1,1v8a1,1,0,0,0,2,0V12A1,1,0,0,0,12,11Z" style="fill:#6f7a7b"/><path d="M20,23a3,3,0,0,1-3-3V12a3,3,0,0,1,6,0v8A3,3,0,0,1,20,23Zm0-12a1,1,0,0,0-1,1v8a1,1,0,0,0,2,0V12A1,1,0,0,0,20,11Z" style="fill:#6f7a7b"/></g></svg>