<svg xmlns="http://www.w3.org/2000/svg" viewBox="0 0 32 32"><title>18-Note</title><g id="_18-Note" data-name="18-Note"><circle cx="20" cy="16" r="2" style="fill:#c1c5c8"/><circle cx="8" cy="24" r="2" style="fill:#c1c5c8"/><path d="M18,10H1A1,1,0,0,1,1,8H18a1,1,0,0,1,0,2Z" style="fill:#6f7a7b"/><path d="M6,15H1a1,1,0,0,1,0-2H6a1,1,0,0,1,0,2Z" style="fill:#6f7a7b"/><path d="M31,20H26a1,1,0,0,1,0-2h5a1,1,0,0,1,0,2Z" style="fill:#6f7a7b"/><path d="M31,25H14a1,1,0,0,1,0-2H31a1,1,0,0,1,0,2Z" style="fill:#6f7a7b"/><path d="M8,27a3,3,0,1,1,3-3A3,3,0,0,1,8,27Zm0-4a1,1,0,1,0,1,1A1,1,0,0,0,8,23Z" style="fill:#6f7a7b"/><path d="M10,25a1,1,0,0,1-1-1V14a1,1,0,0,1,1-1,5.785,5.785,0,0,1,6,6,1,1,0,0,1-2,0,3.657,3.657,0,0,0-3-3.869V24A1,1,0,0,1,10,25Z" style="fill:#6f7a7b"/><path d="M20,19a3,3,0,1,1,3-3A3,3,0,0,1,20,19Zm0-4a1,1,0,1,0,1,1A1,1,0,0,0,20,15Z" style="fill:#6f7a7b"/><path d="M22,17a1,1,0,0,1-1-1V6a1,1,0,0,1,1-1c1.729,0,5,1.254,5,6a1,1,0,0,1-2,0c0-2.475-1.127-3.418-2-3.778V16A1,1,0,0,1,22,17Z" style="fill:#6f7a7b"/><path d="M31,10H30a1,1,0,0,1,0-2h1a1,1,0,0,1,0,2Z" style="fill:#6f7a7b"/><path d="M31,15H28a1,1,0,0,1,0-2h3a1,1,0,0,1,0,2Z" style="fill:#6f7a7b"/><path d="M5,20H1a1,1,0,0,1,0-2H5a1,1,0,0,1,0,2Z" style="fill:#6f7a7b"/><path d="M2,25H1a1,1,0,0,1,0-2H2a1,1,0,0,1,0,2Z" style="fill:#6f7a7b"/></g></svg>