<svg xmlns="http://www.w3.org/2000/svg" viewBox="0 0 32 32"><title>20-Bluetooth</title><g id="_20-Bluetooth" data-name="20-Bluetooth"><circle cx="16" cy="16" r="15" style="fill:#c1c5c8"/><path d="M16,32A16,16,0,1,1,32,16,16.019,16.019,0,0,1,16,32ZM16,2A14,14,0,1,0,30,16,14.015,14.015,0,0,0,16,2Z" style="fill:#6f7a7b"/><path d="M15,25a1,1,0,0,1-1-1V14.414l-1.707-1.707a1,1,0,0,1,1.414-1.414l7,7a1,1,0,0,1,0,1.414l-5,5A1,1,0,0,1,15,25Zm1-8.586v5.172L18.586,19Z" style="fill:#6f7a7b"/><path d="M13,21a1,1,0,0,1-.707-1.707L14,17.586V8a1,1,0,0,1,1.707-.707l5,5a1,1,0,0,1,0,1.414l-7,7A1,1,0,0,1,13,21Zm3-10.586v5.172L18.586,13Z" style="fill:#6f7a7b"/></g></svg>