<svg xmlns="http://www.w3.org/2000/svg" viewBox="0 0 32 32"><title>21-Bluetooth</title><g id="_21-Bluetooth" data-name="21-Bluetooth"><circle cx="8" cy="27" r="4" style="fill:#c1c5c8"/><path d="M8,32a5,5,0,1,1,5-5A5.006,5.006,0,0,1,8,32Zm0-8a3,3,0,1,0,3,3A3,3,0,0,0,8,24Z" style="fill:#6f7a7b"/><path d="M12,28a1,1,0,0,1-1-1V6a4.556,4.556,0,0,1,2.553-3.895C15.417,1.174,25.839.191,27.91,0A1,1,0,0,1,29,1V5a1,1,0,0,1-2,0V2.1c-4.688.45-11.461,1.251-12.553,1.8A2.556,2.556,0,0,0,13,6.011V27A1,1,0,0,1,12,28Z" style="fill:#6f7a7b"/><path d="M23,25a1,1,0,0,1-1-1V14.414l-1.707-1.707a1,1,0,0,1,1.414-1.414l7,7a1,1,0,0,1,0,1.414l-5,5A1,1,0,0,1,23,25Zm1-8.586v5.172L26.586,19Z" style="fill:#6f7a7b"/><path d="M21,21a1,1,0,0,1-.707-1.707L22,17.586V8a1,1,0,0,1,1.707-.707l5,5a1,1,0,0,1,0,1.414l-7,7A1,1,0,0,1,21,21Zm3-10.586v5.172L26.586,13Z" style="fill:#6f7a7b"/></g></svg>