<svg xmlns="http://www.w3.org/2000/svg" viewBox="0 0 32 32"><title>24-Sound</title><g id="_24-Sound" data-name="24-Sound"><rect x="1" y="1" width="30" height="30" rx="4" style="fill:#c1c5c8"/><path d="M27,32H5a5.006,5.006,0,0,1-5-5V5A5.006,5.006,0,0,1,5,0H27a5.006,5.006,0,0,1,5,5V27A5.006,5.006,0,0,1,27,32ZM5,2A3,3,0,0,0,2,5V27a3,3,0,0,0,3,3H27a3,3,0,0,0,3-3V5a3,3,0,0,0-3-3Z" style="fill:#6f7a7b"/><path d="M10,27H6a1,1,0,0,1,0-2h4a1,1,0,0,1,0,2Z" style="fill:#6f7a7b"/><path d="M10,23H6a1,1,0,0,1,0-2h4a1,1,0,0,1,0,2Z" style="fill:#6f7a7b"/><path d="M10,19H6a1,1,0,0,1,0-2h4a1,1,0,0,1,0,2Z" style="fill:#6f7a7b"/><path d="M18,23H14a1,1,0,0,1,0-2h4a1,1,0,0,1,0,2Z" style="fill:#6f7a7b"/><path d="M18,19H14a1,1,0,0,1,0-2h4a1,1,0,0,1,0,2Z" style="fill:#6f7a7b"/><path d="M18,15H14a1,1,0,0,1,0-2h4a1,1,0,0,1,0,2Z" style="fill:#6f7a7b"/><path d="M18,11H14a1,1,0,0,1,0-2h4a1,1,0,0,1,0,2Z" style="fill:#6f7a7b"/><path d="M18,7H14a1,1,0,0,1,0-2h4a1,1,0,0,1,0,2Z" style="fill:#6f7a7b"/><path d="M26,23H22a1,1,0,0,1,0-2h4a1,1,0,0,1,0,2Z" style="fill:#6f7a7b"/><path d="M18,27H14a1,1,0,0,1,0-2h4a1,1,0,0,1,0,2Z" style="fill:#6f7a7b"/><path d="M26,27H22a1,1,0,0,1,0-2h4a1,1,0,0,1,0,2Z" style="fill:#6f7a7b"/></g></svg>