<svg xmlns="http://www.w3.org/2000/svg" viewBox="0 0 32 32"><title>27-Microphone</title><g id="_27-Microphone" data-name="27-Microphone"><path d="M23,10v6A7,7,0,0,1,9,16V10Z" style="fill:#c1c5c8"/><path d="M23,8v2H9V8A7,7,0,0,1,23,8Z" style="fill:#f2f2f2"/><path d="M16,24a8.009,8.009,0,0,1-8-8V8A8,8,0,0,1,24,8v8A8.009,8.009,0,0,1,16,24ZM16,2a6.006,6.006,0,0,0-6,6v8a6,6,0,0,0,12,0V8A6.006,6.006,0,0,0,16,2Z" style="fill:#6f7a7b"/><path d="M16,28C7.378,28,5.142,21.589,5.051,21.316a1,1,0,1,1,1.9-.632C7.022,20.9,8.862,26,16,26c7.2,0,9.034-5.263,9.051-5.316a1,1,0,0,1,1.9.632C26.858,21.589,24.622,28,16,28Z" style="fill:#6f7a7b"/><path d="M16,32a1,1,0,0,1-1-1V27a1,1,0,0,1,2,0v4A1,1,0,0,1,16,32Z" style="fill:#6f7a7b"/><path d="M23,11H9A1,1,0,0,1,9,9H23a1,1,0,0,1,0,2Z" style="fill:#6f7a7b"/></g></svg>