<svg xmlns="http://www.w3.org/2000/svg" viewBox="0 0 32 32"><title>28-Microphone</title><g id="_28-Microphone" data-name="28-Microphone"><path d="M23,8v8A7,7,0,0,1,9,16V8A7,7,0,0,1,23,8Z" style="fill:#c1c5c8"/><path d="M9,16a1,1,0,0,1-1-1V8A8,8,0,0,1,21.6,2.285a1,1,0,0,1-1.4,1.429A6,6,0,0,0,10,8v7A1,1,0,0,1,9,16Z" style="fill:#6f7a7b"/><path d="M16,24a7.923,7.923,0,0,1-3.43-.771,1,1,0,0,1,.86-1.806A5.933,5.933,0,0,0,16,22a6.006,6.006,0,0,0,6-6V13a1,1,0,0,1,2,0v3A8.009,8.009,0,0,1,16,24Z" style="fill:#6f7a7b"/><path d="M16,28C7.378,28,5.143,21.589,5.052,21.316a1,1,0,1,1,1.9-.632C7.021,20.9,8.862,26,16,26c7.2,0,9.033-5.263,9.052-5.316a1,1,0,1,1,1.9.632C26.857,21.589,24.622,28,16,28Z" style="fill:#6f7a7b"/><path d="M16,32a1,1,0,0,1-1-1V27a1,1,0,0,1,2,0v4A1,1,0,0,1,16,32Z" style="fill:#6f7a7b"/><path d="M10,21a1,1,0,0,1-.707-1.707l14-14a1,1,0,1,1,1.414,1.414l-14,14A1,1,0,0,1,10,21Z" style="fill:#6f7a7b"/></g></svg>