<svg xmlns="http://www.w3.org/2000/svg" viewBox="0 0 32 32"><title>3-Smartphone</title><g id="_3-Smartphone" data-name="3-Smartphone"><rect x="6" y="1" width="20" height="30" rx="3" style="fill:#f2f2f2"/><path d="M26,4a3,3,0,0,0-3-3H9A3,3,0,0,0,6,4V8H26Z" style="fill:#c1c5c8"/><path d="M6,28a3,3,0,0,0,3,3H23a3,3,0,0,0,3-3V24H6Z" style="fill:#c1c5c8"/><circle cx="14" cy="20" r="2" style="fill:#f2f2f2"/><path d="M23,32H9a4,4,0,0,1-4-4V4A4,4,0,0,1,9,0H23a4,4,0,0,1,4,4V28A4,4,0,0,1,23,32ZM9,2A2,2,0,0,0,7,4V28a2,2,0,0,0,2,2H23a2,2,0,0,0,2-2V4a2,2,0,0,0-2-2Z" style="fill:#6f7a7b"/><path d="M16,6H12a1,1,0,0,1,0-2h4a1,1,0,0,1,0,2Z" style="fill:#6f7a7b"/><path d="M14,23a3,3,0,1,1,3-3A3,3,0,0,1,14,23Zm0-4a1,1,0,1,0,1,1A1,1,0,0,0,14,19Z" style="fill:#6f7a7b"/><path d="M16,21a1,1,0,0,1-1-1V10a1,1,0,0,1,1-1,5.785,5.785,0,0,1,6,6,1,1,0,0,1-2,0,3.657,3.657,0,0,0-3-3.869V20A1,1,0,0,1,16,21Z" style="fill:#6f7a7b"/><circle cx="20" cy="5" r="1" style="fill:#6f7a7b"/><circle cx="16" cy="27" r="1" style="fill:#6f7a7b"/></g></svg>