<svg xmlns="http://www.w3.org/2000/svg" viewBox="0 0 32 32"><title>30-File</title><g id="_30-File" data-name="30-File"><path d="M28,11H22a4,4,0,0,1-4-4V1Z" style="fill:#ebeff3"/><path d="M28,11V27a4,4,0,0,1-4,4H8a4,4,0,0,1-4-4V5A4,4,0,0,1,8,1H18V7a4,4,0,0,0,4,4Z" style="fill:#c1c5c8"/><circle cx="12" cy="24" r="2" style="fill:#f2f2f2"/><path d="M24,32H8a5.006,5.006,0,0,1-5-5V5A5.006,5.006,0,0,1,8,0H18a1,1,0,0,1,.707.293l10,10A1,1,0,0,1,29,11V27A5.006,5.006,0,0,1,24,32ZM8,2A3,3,0,0,0,5,5V27a3,3,0,0,0,3,3H24a3,3,0,0,0,3-3V11.414L17.586,2Z" style="fill:#6f7a7b"/><path d="M28,12H22a5.006,5.006,0,0,1-5-5V1a1,1,0,0,1,2,0V7a3,3,0,0,0,3,3h6a1,1,0,0,1,0,2Z" style="fill:#6f7a7b"/><path d="M12,27a3,3,0,1,1,3-3A3,3,0,0,1,12,27Zm0-4a1,1,0,1,0,1,1A1,1,0,0,0,12,23Z" style="fill:#6f7a7b"/><path d="M14,25a1,1,0,0,1-1-1V14a1,1,0,0,1,1-1,5.785,5.785,0,0,1,6,6,1,1,0,0,1-2,0,3.657,3.657,0,0,0-3-3.869V24A1,1,0,0,1,14,25Z" style="fill:#6f7a7b"/><circle cx="17" cy="26" r="1" style="fill:#6f7a7b"/></g></svg>