<svg xmlns="http://www.w3.org/2000/svg" viewBox="0 0 32 32"><title>35-Speaker</title><g id="_35-Speaker" data-name="35-Speaker"><path d="M27,16V31s-9,0-9-7H13A8,8,0,0,1,13,8h5c0-7,9-7,9-7Z" style="fill:#c1c5c8"/><path d="M18,8V24c0,7,9,7,9,7V1S18,1,18,8Z" style="fill:#f2f2f2"/><path d="M27,17a1,1,0,0,1-1-1V2.062C23.846,2.283,19,3.305,19,8a1,1,0,0,1-1,1H13a7.009,7.009,0,0,0-7,7,1,1,0,0,1-2,0,9.01,9.01,0,0,1,9-9h4.058C17.709,1.494,23.731,0,27,0a1,1,0,0,1,1,1V16A1,1,0,0,1,27,17Z" style="fill:#6f7a7b"/><path d="M27,32c-3.269,0-9.291-1.494-9.942-7H13a9.01,9.01,0,0,1-9-9,1,1,0,0,1,2,0,7.009,7.009,0,0,0,7,7h5a1,1,0,0,1,1,1c0,4.7,4.846,5.717,7,5.938V16a1,1,0,0,1,2,0V31A1,1,0,0,1,27,32Z" style="fill:#6f7a7b"/><circle cx="18" cy="12" r="1" style="fill:#6f7a7b"/><circle cx="18" cy="16" r="1" style="fill:#6f7a7b"/><circle cx="18" cy="20" r="1" style="fill:#6f7a7b"/></g></svg>