<svg xmlns="http://www.w3.org/2000/svg" viewBox="0 0 32 32"><title>36-Speaker</title><g id="_36-Speaker" data-name="36-Speaker"><path d="M25,16V31s-9,0-9-7H11A8,8,0,0,1,11,8h5c0-7,9-7,9-7Z" style="fill:#c1c5c8"/><path d="M16,8V24c0,7,9,7,9,7V1S16,1,16,8Z" style="fill:#f2f2f2"/><path d="M3,17a1,1,0,0,1-1-1,9.01,9.01,0,0,1,9-9h4.058C15.709,1.494,21.731,0,25,0a1,1,0,0,1,1,1v9a1,1,0,0,1-2,0V2.062C21.846,2.283,17,3.305,17,8a1,1,0,0,1-1,1H11a7.009,7.009,0,0,0-7,7A1,1,0,0,1,3,17Z" style="fill:#6f7a7b"/><path d="M25,32c-3.269,0-9.291-1.494-9.942-7H11a9.01,9.01,0,0,1-9-9,1,1,0,0,1,2,0,7.009,7.009,0,0,0,7,7h5a1,1,0,0,1,1,1c0,4.7,4.846,5.717,7,5.938V22a1,1,0,0,1,2,0v9A1,1,0,0,1,25,32Z" style="fill:#6f7a7b"/><path d="M29,20a1,1,0,0,1-.707-.293l-6-6a1,1,0,0,1,1.414-1.414l6,6A1,1,0,0,1,29,20Z" style="fill:#6f7a7b"/><path d="M23,20a1,1,0,0,1-.707-1.707l6-6a1,1,0,0,1,1.414,1.414l-6,6A1,1,0,0,1,23,20Z" style="fill:#6f7a7b"/><circle cx="16" cy="12" r="1" style="fill:#6f7a7b"/><circle cx="16" cy="16" r="1" style="fill:#6f7a7b"/><circle cx="16" cy="20" r="1" style="fill:#6f7a7b"/></g></svg>