<svg xmlns="http://www.w3.org/2000/svg" viewBox="0 0 32 32"><title>38-Headphone</title><g id="_38-Headphone" data-name="38-Headphone"><rect x="25" y="21" width="6" height="10" rx="2" style="fill:#c1c5c8"/><rect x="1" y="21" width="6" height="10" rx="2" style="fill:#c1c5c8"/><path d="M5,32H3a3,3,0,0,1-3-3V23a3,3,0,0,1,3-3H5a3,3,0,0,1,3,3v6A3,3,0,0,1,5,32ZM3,22a1,1,0,0,0-1,1v6a1,1,0,0,0,1,1H5a1,1,0,0,0,1-1V23a1,1,0,0,0-1-1Z" style="fill:#6f7a7b"/><path d="M29,32H27a3,3,0,0,1-3-3V23a3,3,0,0,1,3-3h2a3,3,0,0,1,3,3v6A3,3,0,0,1,29,32ZM27,22a1,1,0,0,0-1,1v6a1,1,0,0,0,1,1h2a1,1,0,0,0,1-1V23a1,1,0,0,0-1-1Z" style="fill:#6f7a7b"/><path d="M4,22a1,1,0,0,1-1-1V8.052A6.109,6.109,0,0,1,4.552,3.624C6.638,1.22,10.489,0,16,0a1,1,0,0,1,0,2C9.89,2,7.224,3.6,6.063,4.935A4.071,4.071,0,0,0,4.99,7.858.969.969,0,0,1,5,8V21A1,1,0,0,1,4,22Z" style="fill:#6f7a7b"/><path d="M27.982,22a1,1,0,0,1-1-1V8a.97.97,0,0,1,.011-.142,4.058,4.058,0,0,0-1.109-2.964C24.713,3.573,22.046,2,15.982,2a1,1,0,0,1,0-2c5.511,0,9.363,1.22,11.449,3.624a6.111,6.111,0,0,1,1.551,4.428V21A1,1,0,0,1,27.982,22Z" style="fill:#6f7a7b"/><path d="M15,26a.987.987,0,0,1-.383-.076A1,1,0,0,1,14,25V15.414l-1.707-1.707a1,1,0,0,1,1.414-1.414l7,7a1,1,0,0,1,0,1.414l-5,5A1,1,0,0,1,15,26Zm1-8.586v5.172L18.586,20Z" style="fill:#6f7a7b"/><path d="M13,22a1,1,0,0,1-.707-1.707L14,18.586V9a1,1,0,0,1,1.707-.707l5,5a1,1,0,0,1,0,1.414l-7,7A1,1,0,0,1,13,22Zm3-10.586v5.172L18.586,14Z" style="fill:#6f7a7b"/></g></svg>