<svg xmlns="http://www.w3.org/2000/svg" viewBox="0 0 32 32"><title>39-Speaker</title><g id="_39-Speaker" data-name="39-Speaker"><path d="M25,16V31s-9,0-9-7H11A8,8,0,0,1,11,8h5c0-7,9-7,9-7Z" style="fill:#c1c5c8"/><path d="M16,8V24c0,7,9,7,9,7V1S16,1,16,8Z" style="fill:#f2f2f2"/><path d="M3,17a1,1,0,0,1-1-1,9.01,9.01,0,0,1,9-9h4.058c.65-5.506,6.673-7,9.942-7a1,1,0,0,1,1,1V6a1,1,0,0,1-2,0V2.062C21.845,2.283,17,3.305,17,8a1,1,0,0,1-1,1H11a7.008,7.008,0,0,0-7,7A1,1,0,0,1,3,17Z" style="fill:#6f7a7b"/><path d="M25,32c-3.269,0-9.292-1.494-9.942-7H11a9.01,9.01,0,0,1-9-9,1,1,0,0,1,2,0,7.008,7.008,0,0,0,7,7h5a1,1,0,0,1,1,1c0,4.7,4.845,5.717,7,5.938V26a1,1,0,0,1,2,0v5A1,1,0,0,1,25,32Z" style="fill:#6f7a7b"/><path d="M25,21a1,1,0,0,1-1-1V12a1,1,0,0,1,2,0v8A1,1,0,0,1,25,21Z" style="fill:#6f7a7b"/><path d="M29,17H21a1,1,0,0,1,0-2h8a1,1,0,0,1,0,2Z" style="fill:#6f7a7b"/><circle cx="16" cy="12" r="1" style="fill:#6f7a7b"/><circle cx="16" cy="16" r="1" style="fill:#6f7a7b"/><circle cx="16" cy="20" r="1" style="fill:#6f7a7b"/></g></svg>