<svg xmlns="http://www.w3.org/2000/svg" viewBox="0 0 32 32"><title>45-Tape</title><g id="_45-Tape" data-name="45-Tape"><path d="M26,22v5H6V22a1.959,1.959,0,0,1,2-2H24A1.959,1.959,0,0,1,26,22Z" style="fill:#f2f2f2"/><path d="M31,8V24a3,3,0,0,1-3,3H26V22a1.959,1.959,0,0,0-2-2H8a1.959,1.959,0,0,0-2,2v5H4a3,3,0,0,1-3-3V8A3,3,0,0,1,4,5H28A3,3,0,0,1,31,8Z" style="fill:#c1c5c8"/><circle cx="23" cy="14" r="2" style="fill:#ebeff3"/><path d="M21,14a2.006,2.006,0,0,0,2,2H9a2,2,0,0,0,0-4H23A2.006,2.006,0,0,0,21,14Z" style="fill:#ebeff3"/><circle cx="9" cy="14" r="2" style="fill:#ebeff3"/><path d="M28,28H4a4,4,0,0,1-4-4V8A4,4,0,0,1,4,4H28a4,4,0,0,1,4,4V24A4,4,0,0,1,28,28ZM4,6A2,2,0,0,0,2,8V24a2,2,0,0,0,2,2H28a2,2,0,0,0,2-2V8a2,2,0,0,0-2-2Z" style="fill:#6f7a7b"/><path d="M26,28a1,1,0,0,1-1-1V22a.918.918,0,0,0-1.012-1H8a.919.919,0,0,0-1,1.012V27a1,1,0,0,1-2,0V22a2.916,2.916,0,0,1,3-3H24a2.916,2.916,0,0,1,3,3v5A1,1,0,0,1,26,28Z" style="fill:#6f7a7b"/><path d="M16,9a1,1,0,0,1-1-1V5a1,1,0,0,1,2,0V8A1,1,0,0,1,16,9Z" style="fill:#6f7a7b"/><path d="M20,9a1,1,0,0,1-1-1V5a1,1,0,0,1,2,0V8A1,1,0,0,1,20,9Z" style="fill:#6f7a7b"/><path d="M24,9a1,1,0,0,1-1-1V5a1,1,0,0,1,2,0V8A1,1,0,0,1,24,9Z" style="fill:#6f7a7b"/><path d="M12,9a1,1,0,0,1-1-1V5a1,1,0,0,1,2,0V8A1,1,0,0,1,12,9Z" style="fill:#6f7a7b"/><path d="M8,9A1,1,0,0,1,7,8V5A1,1,0,0,1,9,5V8A1,1,0,0,1,8,9Z" style="fill:#6f7a7b"/><path d="M9,17a3,3,0,1,1,3-3A3,3,0,0,1,9,17Zm0-4a1,1,0,1,0,1,1A1,1,0,0,0,9,13Z" style="fill:#6f7a7b"/><path d="M23,17a3,3,0,1,1,3-3A3,3,0,0,1,23,17Zm0-4a1,1,0,1,0,1,1A1,1,0,0,0,23,13Z" style="fill:#6f7a7b"/><path d="M23,13H9a1,1,0,0,1,0-2H23a1,1,0,0,1,0,2Z" style="fill:#6f7a7b"/><path d="M23,17H9a1,1,0,0,1,0-2H23a1,1,0,0,1,0,2Z" style="fill:#6f7a7b"/></g></svg>