<svg xmlns="http://www.w3.org/2000/svg" viewBox="0 0 32 32"><title>46-Headphone</title><g id="_46-Headphone" data-name="46-Headphone"><path d="M14,23v3H10V13H9C6,13,3,9,3,9V3A1.959,1.959,0,0,1,5,1H9c5,0,5,5,5,5Z" style="fill:#c1c5c8"/><path d="M14,26v2c0,3-4,3-4,3V26Z" style="fill:#f2f2f2"/><path d="M22,26v5s-4,0-4-3V26Z" style="fill:#f2f2f2"/><path d="M29,3V9s-3,4-6,4H22V26H18V6s0-5,5-5h4A1.959,1.959,0,0,1,29,3Z" style="fill:#c1c5c8"/><path d="M10,32a1,1,0,0,1-1-1V14c-3.4,0-6.462-3.949-6.8-4.4A1,1,0,0,1,2,9V3A2.916,2.916,0,0,1,5,0H9a5.785,5.785,0,0,1,6,6V9a1,1,0,0,1-2,0V6A3.85,3.85,0,0,0,9,2H5A.915.915,0,0,0,4,3V8.654C4.919,9.782,7.114,12,9,12h1a1,1,0,0,1,1,1V29.884c.873-.184,2-.659,2-1.884V21a1,1,0,0,1,2,0v7C15,31.164,11.729,32,10,32Z" style="fill:#6f7a7b"/><path d="M14,27H10a1,1,0,0,1,0-2h4a1,1,0,0,1,0,2Z" style="fill:#6f7a7b"/><path d="M22,32c-1.729,0-5-.836-5-4V21a1,1,0,0,1,2,0v7c0,1.225,1.126,1.7,2,1.884V13a1,1,0,0,1,1-1h1c1.886,0,4.081-2.218,5-3.346V3a.918.918,0,0,0-1.012-1H23c-3.954,0-4,3.837-4,4V9a1,1,0,0,1-2,0V6a5.785,5.785,0,0,1,6-6h4a2.916,2.916,0,0,1,3,3V9a1,1,0,0,1-.2.6c-.338.451-3.4,4.4-6.8,4.4V31A1,1,0,0,1,22,32Z" style="fill:#6f7a7b"/><path d="M22,27H18a1,1,0,0,1,0-2h4a1,1,0,0,1,0,2Z" style="fill:#6f7a7b"/><path d="M18,18a1,1,0,0,1-.707-.293l-4-4a1,1,0,0,1,1.414-1.414l4,4A1,1,0,0,1,18,18Z" style="fill:#6f7a7b"/><path d="M14,18a1,1,0,0,1-.707-1.707l4-4a1,1,0,0,1,1.414,1.414l-4,4A1,1,0,0,1,14,18Z" style="fill:#6f7a7b"/><circle cx="7" cy="6" r="1" style="fill:#6f7a7b"/><circle cx="25" cy="6" r="1" style="fill:#6f7a7b"/></g></svg>