<svg xmlns="http://www.w3.org/2000/svg" viewBox="0 0 32 32"><title>49-Stop</title><g id="_49-Stop" data-name="49-Stop"><circle cx="16" cy="16" r="15" style="fill:#c1c5c8"/><rect x="10" y="10" width="12" height="12" rx="2" style="fill:#f2f2f2"/><path d="M16,32A16,16,0,1,1,32,16,16.019,16.019,0,0,1,16,32ZM16,2A14,14,0,1,0,30,16,14.015,14.015,0,0,0,16,2Z" style="fill:#6f7a7b"/><path d="M20,23H12a3,3,0,0,1-3-3V12a3,3,0,0,1,3-3h8a3,3,0,0,1,3,3v8A3,3,0,0,1,20,23ZM12,11a1,1,0,0,0-1,1v8a1,1,0,0,0,1,1h8a1,1,0,0,0,1-1V12a1,1,0,0,0-1-1Z" style="fill:#6f7a7b"/></g></svg>