<svg xmlns="http://www.w3.org/2000/svg" viewBox="0 0 32 32"><title>5-Cd</title><g id="_5-Cd" data-name="5-Cd"><circle cx="16" cy="16" r="3" style="fill:#f2f2f2"/><path d="M16,1A15,15,0,1,1,1,16,15.005,15.005,0,0,1,16,1Zm3,15a3,3,0,1,0-3,3A3,3,0,0,0,19,16Z" style="fill:#c1c5c8"/><path d="M16,32A16,16,0,1,1,32,16,16.019,16.019,0,0,1,16,32ZM16,2A14,14,0,1,0,30,16,14.015,14.015,0,0,0,16,2Z" style="fill:#6f7a7b"/><path d="M16,20a4,4,0,1,1,4-4A4,4,0,0,1,16,20Zm0-6a2,2,0,1,0,2,2A2,2,0,0,0,16,14Z" style="fill:#6f7a7b"/><path d="M16,27A11.013,11.013,0,0,1,5,16a1,1,0,0,1,2,0,9.01,9.01,0,0,0,9,9,1,1,0,0,1,0,2Z" style="fill:#6f7a7b"/><path d="M26,17a1,1,0,0,1-1-1,9.01,9.01,0,0,0-9-9,1,1,0,0,1,0-2A11.013,11.013,0,0,1,27,16,1,1,0,0,1,26,17Z" style="fill:#6f7a7b"/></g></svg>