<svg xmlns="http://www.w3.org/2000/svg" viewBox="0 0 32 32"><title>6-Cd</title><g id="_6-Cd" data-name="6-Cd"><circle cx="16" cy="16" r="3" style="fill:#ebeff3"/><path d="M16,1A15,15,0,1,1,1,16,15.005,15.005,0,0,1,16,1Zm3,15a3,3,0,1,0-3,3A3,3,0,0,0,19,16Z" style="fill:#c1c5c8"/><circle cx="24" cy="11" r="2" style="fill:#f2f2f2"/><path d="M16,32A16,16,0,1,1,22.4,1.332a1,1,0,0,1-.8,1.833,13.98,13.98,0,1,0,7.6,8.168,1,1,0,1,1,1.885-.666A16.01,16.01,0,0,1,16,32Z" style="fill:#6f7a7b"/><path d="M16,20a4,4,0,1,1,4-4A4,4,0,0,1,16,20Zm0-6a2,2,0,1,0,2,2A2,2,0,0,0,16,14Z" style="fill:#6f7a7b"/><path d="M16,27A11.013,11.013,0,0,1,5,16a1,1,0,0,1,2,0,9.01,9.01,0,0,0,9,9,1,1,0,0,1,0,2Z" style="fill:#6f7a7b"/><path d="M24,14a3,3,0,1,1,3-3A3,3,0,0,1,24,14Zm0-4a1,1,0,1,0,1,1A1,1,0,0,0,24,10Z" style="fill:#6f7a7b"/><path d="M26,12a1,1,0,0,1-1-1V1a1,1,0,0,1,1-1,5.785,5.785,0,0,1,6,6,1,1,0,0,1-2,0,3.657,3.657,0,0,0-3-3.869V11A1,1,0,0,1,26,12Z" style="fill:#6f7a7b"/></g></svg>