<svg id="_1-Smartphone" data-name="1-Smartphone" xmlns="http://www.w3.org/2000/svg" viewBox="0 0 32 32"><title>1-Smartphone</title><rect x="5" y="1" width="20" height="30" rx="3" style="fill:#f2f2f2"/><path d="M25,4a3,3,0,0,0-3-3H8A3,3,0,0,0,5,4V8H25Z" style="fill:#c1c5c8"/><path d="M5,28a3,3,0,0,0,3,3H22a3,3,0,0,0,3-3V24H5Z" style="fill:#c1c5c8"/><rect x="5" y="1" width="20" height="30" rx="3" style="fill:none;stroke:#6f7a7b;stroke-linecap:round;stroke-linejoin:round;stroke-width:2px"/><line x1="11" y1="5" x2="15" y2="5" style="fill:none;stroke:#6f7a7b;stroke-linecap:round;stroke-linejoin:round;stroke-width:2px"/><line x1="19" y1="5" x2="19" y2="5" style="fill:none;stroke:#6f7a7b;stroke-linecap:round;stroke-linejoin:round;stroke-width:2px"/><line x1="15" y1="27" x2="15" y2="27" style="fill:none;stroke:#6f7a7b;stroke-linecap:round;stroke-linejoin:round;stroke-width:2px"/></svg>