<svg xmlns="http://www.w3.org/2000/svg" viewBox="0 0 32 32"><title>10-Message</title><g id="_10-Message" data-name="10-Message"><path d="M31,15V27a4,4,0,0,1-4,4H5a4,4,0,0,1-4-4V15a3.992,3.992,0,0,1,.68-2.23L2,13l14,8,14-8,.32-.23A3.992,3.992,0,0,1,31,15Z" style="fill:#c1c5c8"/><path d="M30,13,16,21,2,13l-.32-.23A4,4,0,0,1,5,11H27a4,4,0,0,1,3.32,1.77Z" style="fill:#f2f2f2"/><path d="M11,11H5a4,4,0,0,0-4,4V27a4,4,0,0,0,4,4H27a4,4,0,0,0,4-4V19" style="fill:none;stroke:#6f7a7b;stroke-linecap:round;stroke-linejoin:round;stroke-width:2px"/><line x1="2" y1="13" x2="16" y2="21" style="fill:none;stroke:#6f7a7b;stroke-linecap:round;stroke-linejoin:round;stroke-width:2px"/><line x1="13" y1="20" x2="6" y2="26" style="fill:none;stroke:#6f7a7b;stroke-linecap:round;stroke-linejoin:round;stroke-width:2px"/><path d="M31,3V13a2.006,2.006,0,0,1-2,2H22l-3,3-3-3H13a2.006,2.006,0,0,1-2-2V3a2.006,2.006,0,0,1,2-2H29A2.006,2.006,0,0,1,31,3Z" style="fill:#f2f2f2"/><path d="M29,1H13a2.006,2.006,0,0,0-2,2V13a2.006,2.006,0,0,0,2,2h3l3,3,3-3h7a2.006,2.006,0,0,0,2-2V3A2.006,2.006,0,0,0,29,1Z" style="fill:none;stroke:#6f7a7b;stroke-linecap:round;stroke-linejoin:round;stroke-width:2px"/><line x1="21" y1="8" x2="21" y2="8" style="fill:none;stroke:#6f7a7b;stroke-linecap:round;stroke-linejoin:round;stroke-width:2px"/><line x1="25" y1="8" x2="25" y2="8" style="fill:none;stroke:#6f7a7b;stroke-linecap:round;stroke-linejoin:round;stroke-width:2px"/><line x1="17" y1="8" x2="17" y2="8" style="fill:none;stroke:#6f7a7b;stroke-linecap:round;stroke-linejoin:round;stroke-width:2px"/></g></svg>