<svg xmlns="http://www.w3.org/2000/svg" viewBox="0 0 32 32"><title>14-Smartphone</title><g id="_14-Smartphone" data-name="14-Smartphone"><rect x="2" y="1" width="20" height="30" rx="3" style="fill:#f2f2f2"/><path d="M22,4a3,3,0,0,0-3-3H5A3,3,0,0,0,2,4V8H22Z" style="fill:#c1c5c8"/><path d="M2,28a3,3,0,0,0,3,3H19a3,3,0,0,0,3-3V24H2Z" style="fill:#c1c5c8"/><rect x="2" y="1" width="20" height="30" rx="3" style="fill:none;stroke:#6f7a7b;stroke-linecap:round;stroke-linejoin:round;stroke-width:2px"/><line x1="8" y1="5" x2="12" y2="5" style="fill:none;stroke:#6f7a7b;stroke-linecap:round;stroke-linejoin:round;stroke-width:2px"/><line x1="16" y1="5" x2="16" y2="5" style="fill:none;stroke:#6f7a7b;stroke-linecap:round;stroke-linejoin:round;stroke-width:2px"/><line x1="12" y1="27" x2="12" y2="27" style="fill:none;stroke:#6f7a7b;stroke-linecap:round;stroke-linejoin:round;stroke-width:2px"/><line x1="26" y1="12" x2="26" y2="20" style="fill:none;stroke:#6f7a7b;stroke-linecap:round;stroke-linejoin:round;stroke-width:2px"/><line x1="30" y1="14" x2="30" y2="17" style="fill:none;stroke:#6f7a7b;stroke-linecap:round;stroke-linejoin:round;stroke-width:2px"/></g></svg>