<svg xmlns="http://www.w3.org/2000/svg" viewBox="0 0 32 32"><title>2-Smartphone</title><g id="_2-Smartphone" data-name="2-Smartphone"><rect x="4" y="1" width="20" height="30" rx="3" style="fill:#f2f2f2"/><path d="M24,4a3,3,0,0,0-3-3H7A3,3,0,0,0,4,4V8H24Z" style="fill:#c1c5c8"/><path d="M4,28a3,3,0,0,0,3,3H21a3,3,0,0,0,3-3V24H4Z" style="fill:#c1c5c8"/><path d="M24,10V4a3,3,0,0,0-3-3H7A3,3,0,0,0,4,4V28a3,3,0,0,0,3,3H21a3,3,0,0,0,3-3V22" style="fill:none;stroke:#6f7a7b;stroke-linecap:round;stroke-linejoin:round;stroke-width:2px"/><line x1="10" y1="5" x2="14" y2="5" style="fill:none;stroke:#6f7a7b;stroke-linecap:round;stroke-linejoin:round;stroke-width:2px"/><line x1="18" y1="5" x2="18" y2="5" style="fill:none;stroke:#6f7a7b;stroke-linecap:round;stroke-linejoin:round;stroke-width:2px"/><line x1="14" y1="27" x2="14" y2="27" style="fill:none;stroke:#6f7a7b;stroke-linecap:round;stroke-linejoin:round;stroke-width:2px"/><path d="M27.66,10.25,20,16l-7.66-5.75A.985.985,0,0,1,13,10H27A.985.985,0,0,1,27.66,10.25Z" style="fill:#c1c5c8"/><path d="M28,11V21a1,1,0,0,1-1,1H13a1,1,0,0,1-1-1V11a.983.983,0,0,1,.34-.75L20,16l7.66-5.75A.983.983,0,0,1,28,11Z" style="fill:#f2f2f2"/><path d="M12.34,10.25A.983.983,0,0,0,12,11V21a1,1,0,0,0,1,1H27a1,1,0,0,0,1-1V11a1,1,0,0,0-1-1H13A.985.985,0,0,0,12.34,10.25Z" style="fill:none;stroke:#6f7a7b;stroke-linecap:round;stroke-linejoin:round;stroke-width:2px"/><polyline points="12.34 10.25 20 16 27.66 10.25" style="fill:none;stroke:#6f7a7b;stroke-linecap:round;stroke-linejoin:round;stroke-width:2px"/></g></svg>