<svg xmlns="http://www.w3.org/2000/svg" viewBox="0 0 32 32"><title>22-Speech bubble</title><g id="_22-Speech_bubble" data-name="22-Speech bubble"><path d="M1,19v7a2.006,2.006,0,0,0,2,2H19l4,3V28h6a2.006,2.006,0,0,0,2-2V19a2.006,2.006,0,0,0-2-2H3A2.006,2.006,0,0,0,1,19Z" style="fill:#c1c5c8"/><path d="M31,3v8a2.006,2.006,0,0,1-2,2H13L9,16V13H3a2.006,2.006,0,0,1-2-2V3A2.006,2.006,0,0,1,3,1H29A2.006,2.006,0,0,1,31,3Z" style="fill:#f2f2f2"/><path d="M29,1H3A2.006,2.006,0,0,0,1,3v8a2.006,2.006,0,0,0,2,2H9v3l4-3H29a2.006,2.006,0,0,0,2-2V3A2.006,2.006,0,0,0,29,1Z" style="fill:none;stroke:#6f7a7b;stroke-linecap:round;stroke-linejoin:round;stroke-width:2px"/><path d="M5,17H3a2,2,0,0,0-2,2v7a2,2,0,0,0,2,2H19l4,3V28h6a2,2,0,0,0,2-2V19a2,2,0,0,0-2-2H15" style="fill:none;stroke:#6f7a7b;stroke-linecap:round;stroke-linejoin:round;stroke-width:2px"/><line x1="16" y1="22" x2="16" y2="22" style="fill:none;stroke:#6f7a7b;stroke-linecap:round;stroke-linejoin:round;stroke-width:2px"/><line x1="21" y1="22" x2="21" y2="22" style="fill:none;stroke:#6f7a7b;stroke-linecap:round;stroke-linejoin:round;stroke-width:2px"/><line x1="11" y1="22" x2="11" y2="22" style="fill:none;stroke:#6f7a7b;stroke-linecap:round;stroke-linejoin:round;stroke-width:2px"/><line x1="16" y1="7" x2="16" y2="7" style="fill:none;stroke:#6f7a7b;stroke-linecap:round;stroke-linejoin:round;stroke-width:2px"/><line x1="21" y1="7" x2="21" y2="7" style="fill:none;stroke:#6f7a7b;stroke-linecap:round;stroke-linejoin:round;stroke-width:2px"/><line x1="11" y1="7" x2="11" y2="7" style="fill:none;stroke:#6f7a7b;stroke-linecap:round;stroke-linejoin:round;stroke-width:2px"/></g></svg>