<svg xmlns="http://www.w3.org/2000/svg" viewBox="0 0 32 32"><title>27-Smartphone</title><g id="_27-Smartphone" data-name="27-Smartphone"><path d="M25,4a3,3,0,0,0-3-3H6A3,3,0,0,0,3,4V31H25Z" style="fill:#f2f2f2"/><path d="M25,4a3,3,0,0,0-3-3H6A3,3,0,0,0,3,4V8H25Z" style="fill:#c1c5c8"/><path d="M28.66,11.25,21,17l-7.66-5.75A.985.985,0,0,1,14,11H28A.985.985,0,0,1,28.66,11.25Z" style="fill:#f2f2f2"/><path d="M29,12V22a1,1,0,0,1-1,1H14a1,1,0,0,1-1-1V12a.983.983,0,0,1,.34-.75L21,17l7.66-5.75A.983.983,0,0,1,29,12Z" style="fill:#c1c5c8"/><path d="M25,11V4a3,3,0,0,0-3-3H6A3,3,0,0,0,3,4V31" style="fill:none;stroke:#6f7a7b;stroke-linecap:round;stroke-linejoin:round;stroke-width:2px"/><line x1="10" y1="5" x2="14" y2="5" style="fill:none;stroke:#6f7a7b;stroke-linecap:round;stroke-linejoin:round;stroke-width:2px"/><line x1="18" y1="5" x2="18" y2="5" style="fill:none;stroke:#6f7a7b;stroke-linecap:round;stroke-linejoin:round;stroke-width:2px"/><rect x="13" y="11" width="16" height="12" rx="1" style="fill:none;stroke:#6f7a7b;stroke-linecap:round;stroke-linejoin:round;stroke-width:2px"/><polyline points="14 12 21 17 28 12" style="fill:none;stroke:#6f7a7b;stroke-linecap:round;stroke-linejoin:round;stroke-width:2px"/><line x1="25" y1="23" x2="25" y2="31" style="fill:none;stroke:#6f7a7b;stroke-linecap:round;stroke-linejoin:round;stroke-width:2px"/><line x1="14" y1="27" x2="14" y2="27" style="fill:none;stroke:#6f7a7b;stroke-linecap:round;stroke-linejoin:round;stroke-width:2px"/><line x1="18" y1="27" x2="18" y2="27" style="fill:none;stroke:#6f7a7b;stroke-linecap:round;stroke-linejoin:round;stroke-width:2px"/></g></svg>