<svg xmlns="http://www.w3.org/2000/svg" viewBox="0 0 32 32"><title>29-Mail box</title><g id="_29-Mail_box" data-name="29-Mail box"><path d="M31,20v6a3,3,0,0,1-3,3H4a3,3,0,0,1-3-3V20a3.037,3.037,0,0,1,2.01-2.87A3.655,3.655,0,0,1,4,17H9l1,4H22l1-4h5a4.453,4.453,0,0,1,.53.03A2.97,2.97,0,0,1,31,20Z" style="fill:#c1c5c8"/><path d="M29,17l-.47.03A4.453,4.453,0,0,0,28,17H23l-1,4H10L9,17H4a3.655,3.655,0,0,0-.99.13L3,17V14L4,5A1.959,1.959,0,0,1,6,3H26a1.959,1.959,0,0,1,2,2l1,9Z" style="fill:#f2f2f2"/><path d="M28.53,17.03A4.453,4.453,0,0,0,28,17H23l-1,4H10L9,17H4a3.655,3.655,0,0,0-.99.13A3.037,3.037,0,0,0,1,20v6a3,3,0,0,0,3,3H28a3,3,0,0,0,3-3V20A2.97,2.97,0,0,0,28.53,17.03Z" style="fill:none;stroke:#6f7a7b;stroke-linecap:round;stroke-linejoin:round;stroke-width:2px"/><path d="M3,14,4,5A1.959,1.959,0,0,1,6,3H26a1.959,1.959,0,0,1,2,2l1,9" style="fill:none;stroke:#6f7a7b;stroke-linecap:round;stroke-linejoin:round;stroke-width:2px"/><line x1="13" y1="25" x2="19" y2="25" style="fill:none;stroke:#6f7a7b;stroke-linecap:round;stroke-linejoin:round;stroke-width:2px"/></g></svg>