<svg xmlns="http://www.w3.org/2000/svg" viewBox="0 0 32 32"><title>30-Mail box</title><g id="_30-Mail_box" data-name="30-Mail box"><path d="M31,22v6a3,3,0,0,1-3,3H4a3,3,0,0,1-3-3V22a3.037,3.037,0,0,1,2.01-2.87A3.655,3.655,0,0,1,4,19H9l1,4H22l1-4h5a4.453,4.453,0,0,1,.53.03A2.97,2.97,0,0,1,31,22Z" style="fill:#c1c5c8"/><path d="M29,19l-.47.03A4.453,4.453,0,0,0,28,19H23l-1,4H10L9,19H4a3.655,3.655,0,0,0-.99.13L3,19V16L4,7A1.959,1.959,0,0,1,6,5H26a1.959,1.959,0,0,1,2,2l1,9Z" style="fill:#f2f2f2"/><path d="M28,19H23l-1,4H10L9,19H4a2.938,2.938,0,0,0-3,3v6a3,3,0,0,0,3,3H28a3,3,0,0,0,3-3V22A2.938,2.938,0,0,0,28,19Z" style="fill:none;stroke:#6f7a7b;stroke-linecap:round;stroke-linejoin:round;stroke-width:2px"/><path d="M29,16,28,7a1.959,1.959,0,0,0-2-2H19" style="fill:none;stroke:#6f7a7b;stroke-linecap:round;stroke-linejoin:round;stroke-width:2px"/><line x1="13" y1="27" x2="19" y2="27" style="fill:none;stroke:#6f7a7b;stroke-linecap:round;stroke-linejoin:round;stroke-width:2px"/><path d="M19,2V12a1,1,0,0,1-1,1H15l-2,2-2-2H2a1,1,0,0,1-1-1V2A1,1,0,0,1,2,1H18A1,1,0,0,1,19,2Z" style="fill:#c1c5c8"/><path d="M18,1H2A1,1,0,0,0,1,2V12a1,1,0,0,0,1,1h9l2,2,2-2h3a1,1,0,0,0,1-1V2A1,1,0,0,0,18,1Z" style="fill:none;stroke:#6f7a7b;stroke-linecap:round;stroke-linejoin:round;stroke-width:2px"/><line x1="10" y1="7" x2="10" y2="7" style="fill:none;stroke:#6f7a7b;stroke-linecap:round;stroke-linejoin:round;stroke-width:2px"/><line x1="14" y1="7" x2="14" y2="7" style="fill:none;stroke:#6f7a7b;stroke-linecap:round;stroke-linejoin:round;stroke-width:2px"/><line x1="6" y1="7" x2="6" y2="7" style="fill:none;stroke:#6f7a7b;stroke-linecap:round;stroke-linejoin:round;stroke-width:2px"/></g></svg>