<svg xmlns="http://www.w3.org/2000/svg" viewBox="0 0 32 32"><title>32-Mail box</title><g id="_32-Mail_box" data-name="32-Mail box"><path d="M31,22v6a3,3,0,0,1-3,3H4a3,3,0,0,1-3-3V22a3.037,3.037,0,0,1,2.01-2.87A3.655,3.655,0,0,1,4,19H9l1,4H22l1-4h5a4.453,4.453,0,0,1,.53.03A2.97,2.97,0,0,1,31,22Z" style="fill:#c1c5c8"/><path d="M29,19l-.47.03A4.453,4.453,0,0,0,28,19H23l-1,4H10L9,19H4a3.655,3.655,0,0,0-.99.13L3,19V16L4,7A1.959,1.959,0,0,1,6,5H26a1.959,1.959,0,0,1,2,2l1,9Z" style="fill:#f2f2f2"/><path d="M28,19H23l-1,4H10L9,19H4a2.938,2.938,0,0,0-3,3v6a3,3,0,0,0,3,3H28a3,3,0,0,0,3-3V22A2.938,2.938,0,0,0,28,19Z" style="fill:none;stroke:#6f7a7b;stroke-linecap:round;stroke-linejoin:round;stroke-width:2px"/><path d="M3,16,4,7A1.959,1.959,0,0,1,6,5H17" style="fill:none;stroke:#6f7a7b;stroke-linecap:round;stroke-linejoin:round;stroke-width:2px"/><line x1="13" y1="27" x2="19" y2="27" style="fill:none;stroke:#6f7a7b;stroke-linecap:round;stroke-linejoin:round;stroke-width:2px"/><circle cx="24" cy="8" r="7" style="fill:#c1c5c8"/><circle cx="24" cy="8" r="7" style="fill:none;stroke:#6f7a7b;stroke-linecap:round;stroke-linejoin:round;stroke-width:2px"/><line x1="24" y1="5" x2="24" y2="8" style="fill:none;stroke:#6f7a7b;stroke-linecap:round;stroke-linejoin:round;stroke-width:2px"/><line x1="24" y1="11" x2="24" y2="11" style="fill:none;stroke:#6f7a7b;stroke-linecap:round;stroke-linejoin:round;stroke-width:2px"/></g></svg>