<svg xmlns="http://www.w3.org/2000/svg" viewBox="0 0 32 32"><title>33-Telephone</title><g id="_33-Telephone" data-name="33-Telephone"><path d="M13,6V7H5V5A2.006,2.006,0,0,1,7,3h4a2.006,2.006,0,0,1,2,2Z" style="fill:#f2f2f2"/><path d="M13,26v1a2.006,2.006,0,0,1-2,2H7a2.006,2.006,0,0,1-2-2V7h8Z" style="fill:#c1c5c8"/><rect x="17" y="10" width="10" height="4" style="fill:#c1c5c8"/><path d="M31,8V24a2.006,2.006,0,0,1-2,2H13V6H29A2.006,2.006,0,0,1,31,8Zm-4,6V10H17v4Z" style="fill:#f2f2f2"/><path d="M5,7V26H3a2.006,2.006,0,0,1-2-2V8A2.006,2.006,0,0,1,3,6H5Z" style="fill:#f2f2f2"/><path d="M5,26v1a2.006,2.006,0,0,0,2,2h4a2.006,2.006,0,0,0,2-2V5a2.006,2.006,0,0,0-2-2H7A2.006,2.006,0,0,0,5,5V26Z" style="fill:none;stroke:#6f7a7b;stroke-linecap:round;stroke-linejoin:round;stroke-width:2px"/><line x1="5" y1="7" x2="13" y2="7" style="fill:none;stroke:#6f7a7b;stroke-linecap:round;stroke-linejoin:round;stroke-width:2px"/><path d="M13,26H29a2.006,2.006,0,0,0,2-2V8a2.006,2.006,0,0,0-2-2H13" style="fill:none;stroke:#6f7a7b;stroke-linecap:round;stroke-linejoin:round;stroke-width:2px"/><path d="M5,6H3A2.006,2.006,0,0,0,1,8V24a2.006,2.006,0,0,0,2,2H5" style="fill:none;stroke:#6f7a7b;stroke-linecap:round;stroke-linejoin:round;stroke-width:2px"/><rect x="17" y="10" width="10" height="4" style="fill:none;stroke:#6f7a7b;stroke-linecap:round;stroke-linejoin:round;stroke-width:2px"/><line x1="18" y1="18" x2="18" y2="18" style="fill:none;stroke:#6f7a7b;stroke-linecap:round;stroke-linejoin:round;stroke-width:2px"/><line x1="22" y1="18" x2="22" y2="18" style="fill:none;stroke:#6f7a7b;stroke-linecap:round;stroke-linejoin:round;stroke-width:2px"/><line x1="26" y1="18" x2="26" y2="18" style="fill:none;stroke:#6f7a7b;stroke-linecap:round;stroke-linejoin:round;stroke-width:2px"/><line x1="18" y1="21" x2="18" y2="21" style="fill:none;stroke:#6f7a7b;stroke-linecap:round;stroke-linejoin:round;stroke-width:2px"/><line x1="22" y1="21" x2="22" y2="21" style="fill:none;stroke:#6f7a7b;stroke-linecap:round;stroke-linejoin:round;stroke-width:2px"/><line x1="26" y1="21" x2="26" y2="21" style="fill:none;stroke:#6f7a7b;stroke-linecap:round;stroke-linejoin:round;stroke-width:2px"/></g></svg>