<svg xmlns="http://www.w3.org/2000/svg" viewBox="0 0 32 32"><title>36-Communication</title><g id="_36-Communication" data-name="36-Communication"><path d="M13,31H1c0-2.76,2.69-5,6-5S13,28.24,13,31Z" style="fill:#c1c5c8"/><ellipse cx="7" cy="21.5" rx="4" ry="4.5" style="fill:#f2f2f2"/><path d="M29,31H17c0-2.76,2.69-5,6-5S29,28.24,29,31Z" style="fill:#c1c5c8"/><ellipse cx="23" cy="21.5" rx="4" ry="4.5" style="fill:#f2f2f2"/><ellipse cx="23" cy="21.5" rx="4" ry="4.5" style="fill:none;stroke:#6f7a7b;stroke-linecap:round;stroke-linejoin:round;stroke-width:2px"/><path d="M17,31c0-2.761,2.686-5,6-5s6,2.239,6,5" style="fill:none;stroke:#6f7a7b;stroke-linecap:round;stroke-linejoin:round;stroke-width:2px"/><ellipse cx="7" cy="21.5" rx="4" ry="4.5" style="fill:none;stroke:#6f7a7b;stroke-linecap:round;stroke-linejoin:round;stroke-width:2px"/><path d="M1,31c0-2.761,2.686-5,6-5s6,2.239,6,5" style="fill:none;stroke:#6f7a7b;stroke-linecap:round;stroke-linejoin:round;stroke-width:2px"/><path d="M31,3v8a2.006,2.006,0,0,1-2,2H16l-3,3-3-3H3a2.006,2.006,0,0,1-2-2V3A2.006,2.006,0,0,1,3,1H29A2.006,2.006,0,0,1,31,3Z" style="fill:#c1c5c8"/><path d="M29,1H3A2.006,2.006,0,0,0,1,3v8a2.006,2.006,0,0,0,2,2h7l3,3,3-3H29a2.006,2.006,0,0,0,2-2V3A2.006,2.006,0,0,0,29,1Z" style="fill:none;stroke:#6f7a7b;stroke-linecap:round;stroke-linejoin:round;stroke-width:2px"/><line x1="16" y1="7" x2="16" y2="7" style="fill:none;stroke:#6f7a7b;stroke-linecap:round;stroke-linejoin:round;stroke-width:2px"/><line x1="21" y1="7" x2="21" y2="7" style="fill:none;stroke:#6f7a7b;stroke-linecap:round;stroke-linejoin:round;stroke-width:2px"/><line x1="11" y1="7" x2="11" y2="7" style="fill:none;stroke:#6f7a7b;stroke-linecap:round;stroke-linejoin:round;stroke-width:2px"/></g></svg>