<svg xmlns="http://www.w3.org/2000/svg" viewBox="0 0 32 32"><title>39-Communication</title><g id="_39-Communication" data-name="39-Communication"><path d="M31,5V19a4,4,0,0,1-4,4H22l-4,4-4-4H5a4,4,0,0,1-4-4V5A4,4,0,0,1,5,1H27A4,4,0,0,1,31,5Z" style="fill:#c1c5c8"/><path d="M16,31H4c0-2.76,2.69-5,6-5S16,28.24,16,31Z" style="fill:#c1c5c8"/><path d="M14,21.5a4.907,4.907,0,0,1-.52,2.22A3.938,3.938,0,0,1,10,26a3.938,3.938,0,0,1-3.48-2.28A4.907,4.907,0,0,1,6,21.5,4.269,4.269,0,0,1,10,17,4.269,4.269,0,0,1,14,21.5Z" style="fill:#f2f2f2"/><path d="M18,27l4-4h5a4,4,0,0,0,4-4V5a4,4,0,0,0-4-4H5A4,4,0,0,0,1,5V19a4,4,0,0,0,4,4H6" style="fill:none;stroke:#6f7a7b;stroke-linecap:round;stroke-linejoin:round;stroke-width:2px"/><line x1="7" y1="7" x2="21" y2="7" style="fill:none;stroke:#6f7a7b;stroke-linecap:round;stroke-linejoin:round;stroke-width:2px"/><line x1="25" y1="7" x2="25" y2="7" style="fill:none;stroke:#6f7a7b;stroke-linecap:round;stroke-linejoin:round;stroke-width:2px"/><line x1="7" y1="12" x2="27" y2="12" style="fill:none;stroke:#6f7a7b;stroke-linecap:round;stroke-linejoin:round;stroke-width:2px"/><line x1="17" y1="17" x2="24" y2="17" style="fill:none;stroke:#6f7a7b;stroke-linecap:round;stroke-linejoin:round;stroke-width:2px"/><ellipse cx="10" cy="21.5" rx="4" ry="4.5" style="fill:none;stroke:#6f7a7b;stroke-linecap:round;stroke-linejoin:round;stroke-width:2px"/><path d="M4,31c0-2.761,2.686-5,6-5s6,2.239,6,5" style="fill:none;stroke:#6f7a7b;stroke-linecap:round;stroke-linejoin:round;stroke-width:2px"/></g></svg>