<svg xmlns="http://www.w3.org/2000/svg" viewBox="0 0 32 32"><title>40-Message</title><g id="_40-Message" data-name="40-Message"><path d="M31,6V18a4,4,0,0,1-4,4H5a4,4,0,0,1-4-4V6a3.992,3.992,0,0,1,.68-2.23L2,4l14,8L30,4l.32-.23A3.992,3.992,0,0,1,31,6Z" style="fill:#f2f2f2"/><path d="M30,4,16,12,2,4l-.32-.23A4,4,0,0,1,5,2H27a4,4,0,0,1,3.32,1.77Z" style="fill:#c1c5c8"/><path d="M18,30H6c0-2.76,2.69-5,6-5S18,27.24,18,30Z" style="fill:#c1c5c8"/><path d="M16,20.5a4.907,4.907,0,0,1-.52,2.22A3.938,3.938,0,0,1,12,25a3.938,3.938,0,0,1-3.48-2.28A4.907,4.907,0,0,1,8,20.5,4.269,4.269,0,0,1,12,16,4.269,4.269,0,0,1,16,20.5Z" style="fill:#f2f2f2"/><line x1="13" y1="11" x2="10" y2="13" style="fill:none;stroke:#6f7a7b;stroke-linecap:round;stroke-linejoin:round;stroke-width:2px"/><line x1="18" y1="11" x2="26" y2="17" style="fill:none;stroke:#6f7a7b;stroke-linecap:round;stroke-linejoin:round;stroke-width:2px"/><path d="M8,22H5a4,4,0,0,1-4-4V6A4,4,0,0,1,5,2H27a4,4,0,0,1,4,4V18a4,4,0,0,1-4,4H16" style="fill:none;stroke:#6f7a7b;stroke-linecap:round;stroke-linejoin:round;stroke-width:2px"/><polyline points="2 4 16 12 30 4" style="fill:none;stroke:#6f7a7b;stroke-linecap:round;stroke-linejoin:round;stroke-width:2px"/><ellipse cx="12" cy="20.5" rx="4" ry="4.5" style="fill:none;stroke:#6f7a7b;stroke-linecap:round;stroke-linejoin:round;stroke-width:2px"/><path d="M6,30c0-2.761,2.686-5,6-5s6,2.239,6,5" style="fill:none;stroke:#6f7a7b;stroke-linecap:round;stroke-linejoin:round;stroke-width:2px"/></g></svg>