<svg xmlns="http://www.w3.org/2000/svg" viewBox="0 0 32 32"><title>41-Message</title><g id="_41-Message" data-name="41-Message"><circle cx="16" cy="16" r="15" style="fill:#f2f2f2"/><path d="M23.66,10.25,16,16,8.34,10.25A.985.985,0,0,1,9,10H23A.985.985,0,0,1,23.66,10.25Z" style="fill:#f2f2f2"/><path d="M24,11V21a1,1,0,0,1-1,1H9a1,1,0,0,1-1-1V11a.983.983,0,0,1,.34-.75L16,16l7.66-5.75A.983.983,0,0,1,24,11Z" style="fill:#c1c5c8"/><circle cx="16" cy="16" r="15" style="fill:none;stroke:#6f7a7b;stroke-linecap:round;stroke-linejoin:round;stroke-width:2px"/><polyline points="9 11 16 16 23 11" style="fill:none;stroke:#6f7a7b;stroke-linecap:round;stroke-linejoin:round;stroke-width:2px"/><rect x="8" y="10" width="16" height="12" rx="1" style="fill:none;stroke:#6f7a7b;stroke-linecap:round;stroke-linejoin:round;stroke-width:2px"/></g></svg>