<svg xmlns="http://www.w3.org/2000/svg" viewBox="0 0 32 32"><title>46-Communication</title><g id="_46-Communication" data-name="46-Communication"><path d="M10,10V2a1,1,0,0,1,1-1H27a1,1,0,0,1,1,1V12a1,1,0,0,1-1,1H24l-2,2-2-2H16l-.21.07A4.057,4.057,0,0,0,12,10a3.654,3.654,0,0,0-1.9.54Z" style="fill:#f2f2f2"/><polygon points="17 24 16 31 8 31 7 24 17 24" style="fill:#f2f2f2"/><path d="M12,19c3.31,0,6,2.24,6,5H6C6,21.24,8.69,19,12,19Z" style="fill:#c1c5c8"/><path d="M15.79,13.07A4.8,4.8,0,0,1,16,14.5,4.269,4.269,0,0,1,12,19a4.269,4.269,0,0,1-4-4.5,4.606,4.606,0,0,1,2.1-3.96A3.654,3.654,0,0,1,12,10,4.057,4.057,0,0,1,15.79,13.07Z" style="fill:#f2f2f2"/><path d="M15.79,13.07A4.8,4.8,0,0,1,16,14.5,4.269,4.269,0,0,1,12,19a4.269,4.269,0,0,1-4-4.5,4.606,4.606,0,0,1,2.1-3.96A3.654,3.654,0,0,1,12,10,4.057,4.057,0,0,1,15.79,13.07Z" style="fill:none;stroke:#6f7a7b;stroke-linecap:round;stroke-linejoin:round;stroke-width:2px"/><path d="M6,24c0-2.76,2.69-5,6-5s6,2.24,6,5" style="fill:none;stroke:#6f7a7b;stroke-linecap:round;stroke-linejoin:round;stroke-width:2px"/><polyline points="17 24 18 24 20 24" style="fill:none;stroke:#6f7a7b;stroke-linecap:round;stroke-linejoin:round;stroke-width:2px"/><polyline points="4 24 6 24 7 24" style="fill:none;stroke:#6f7a7b;stroke-linecap:round;stroke-linejoin:round;stroke-width:2px"/><polygon points="17 24 16 31 8 31 7 24 17 24" style="fill:none;stroke:#6f7a7b;stroke-linecap:round;stroke-linejoin:round;stroke-width:2px"/><path d="M16,13h4l2,2,2-2h3a1,1,0,0,0,1-1V2a1,1,0,0,0-1-1H11a1,1,0,0,0-1,1v8" style="fill:none;stroke:#6f7a7b;stroke-linecap:round;stroke-linejoin:round;stroke-width:2px"/><line x1="15" y1="5" x2="23" y2="5" style="fill:none;stroke:#6f7a7b;stroke-linecap:round;stroke-linejoin:round;stroke-width:2px"/><line x1="19" y1="9" x2="21" y2="9" style="fill:none;stroke:#6f7a7b;stroke-linecap:round;stroke-linejoin:round;stroke-width:2px"/></g></svg>