<svg xmlns="http://www.w3.org/2000/svg" viewBox="0 0 32 32"><title>47-Message</title><g id="_47-Message" data-name="47-Message"><rect x="1" y="2" width="30" height="28" rx="3" style="fill:#f2f2f2"/><path d="M31,5a3,3,0,0,0-3-3H4A3,3,0,0,0,1,5V9H31Z" style="fill:#c1c5c8"/><path d="M23.66,12.25,16,18,8.34,12.25A.985.985,0,0,1,9,12H23A.985.985,0,0,1,23.66,12.25Z" style="fill:#f2f2f2"/><path d="M24,13V23a1,1,0,0,1-1,1H9a1,1,0,0,1-1-1V13a.983.983,0,0,1,.34-.75L16,18l7.66-5.75A.983.983,0,0,1,24,13Z" style="fill:#c1c5c8"/><rect x="1" y="2" width="30" height="28" rx="3" style="fill:none;stroke:#6f7a7b;stroke-linecap:round;stroke-linejoin:round;stroke-width:2px"/><polyline points="9 13 16 18 23 13" style="fill:none;stroke:#6f7a7b;stroke-linecap:round;stroke-linejoin:round;stroke-width:2px"/><rect x="8" y="12" width="16" height="12" rx="1" style="fill:none;stroke:#6f7a7b;stroke-linecap:round;stroke-linejoin:round;stroke-width:2px"/><line x1="5" y1="6" x2="5" y2="6" style="fill:none;stroke:#6f7a7b;stroke-linecap:round;stroke-linejoin:round;stroke-width:2px"/><line x1="9" y1="6" x2="9" y2="6" style="fill:none;stroke:#6f7a7b;stroke-linecap:round;stroke-linejoin:round;stroke-width:2px"/><line x1="27" y1="6" x2="27" y2="6" style="fill:none;stroke:#6f7a7b;stroke-linecap:round;stroke-linejoin:round;stroke-width:2px"/></g></svg>