<svg xmlns="http://www.w3.org/2000/svg" viewBox="0 0 32 32"><title>48-Chat</title><g id="_48-Chat" data-name="48-Chat"><rect x="1" y="2" width="30" height="28" rx="3" style="fill:#f2f2f2"/><path d="M31,5a3,3,0,0,0-3-3H4A3,3,0,0,0,1,5V9H31Z" style="fill:#c1c5c8"/><rect x="1" y="2" width="30" height="28" rx="3" style="fill:none;stroke:#6f7a7b;stroke-linecap:round;stroke-linejoin:round;stroke-width:2px"/><path d="M25,12V22a1,1,0,0,1-1,1H21l-2,2-2-2H8a1,1,0,0,1-1-1V12a1,1,0,0,1,1-1H24A1,1,0,0,1,25,12Z" style="fill:#c1c5c8"/><path d="M24,11H8a1,1,0,0,0-1,1V22a1,1,0,0,0,1,1h9l2,2,2-2h3a1,1,0,0,0,1-1V12A1,1,0,0,0,24,11Z" style="fill:none;stroke:#6f7a7b;stroke-linecap:round;stroke-linejoin:round;stroke-width:2px"/><line x1="12" y1="15" x2="20" y2="15" style="fill:none;stroke:#6f7a7b;stroke-linecap:round;stroke-linejoin:round;stroke-width:2px"/><line x1="14" y1="19" x2="17" y2="19" style="fill:none;stroke:#6f7a7b;stroke-linecap:round;stroke-linejoin:round;stroke-width:2px"/><line x1="5" y1="6" x2="5" y2="6" style="fill:none;stroke:#6f7a7b;stroke-linecap:round;stroke-linejoin:round;stroke-width:2px"/><line x1="9" y1="6" x2="9" y2="6" style="fill:none;stroke:#6f7a7b;stroke-linecap:round;stroke-linejoin:round;stroke-width:2px"/><line x1="27" y1="6" x2="27" y2="6" style="fill:none;stroke:#6f7a7b;stroke-linecap:round;stroke-linejoin:round;stroke-width:2px"/></g></svg>