<svg xmlns="http://www.w3.org/2000/svg" viewBox="0 0 32 32"><title>7-Speech bubble</title><g id="_7-Speech_bubble" data-name="7-Speech bubble"><path d="M31,7V21a4,4,0,0,1-4,4H22l-4,4-4-4H5a4,4,0,0,1-4-4V7A4,4,0,0,1,5,3H27A4,4,0,0,1,31,7Z" style="fill:#c1c5c8"/><path d="M27,3H5A4,4,0,0,0,1,7V21a4,4,0,0,0,4,4h9l4,4,4-4h5a4,4,0,0,0,4-4V7A4,4,0,0,0,27,3Z" style="fill:none;stroke:#6f7a7b;stroke-linecap:round;stroke-linejoin:round;stroke-width:2px"/><line x1="7" y1="9" x2="21" y2="9" style="fill:none;stroke:#6f7a7b;stroke-linecap:round;stroke-linejoin:round;stroke-width:2px"/><line x1="25" y1="9" x2="25" y2="9" style="fill:none;stroke:#6f7a7b;stroke-linecap:round;stroke-linejoin:round;stroke-width:2px"/><line x1="7" y1="14" x2="27" y2="14" style="fill:none;stroke:#6f7a7b;stroke-linecap:round;stroke-linejoin:round;stroke-width:2px"/><line x1="11" y1="19" x2="24" y2="19" style="fill:none;stroke:#6f7a7b;stroke-linecap:round;stroke-linejoin:round;stroke-width:2px"/></g></svg>