<svg xmlns="http://www.w3.org/2000/svg" viewBox="0 0 32 32"><title>9-Smartphone</title><g id="_9-Smartphone" data-name="9-Smartphone"><rect x="6" y="1" width="20" height="30" rx="3" style="fill:#f2f2f2"/><path d="M26,4a3,3,0,0,0-3-3H9A3,3,0,0,0,6,4V8H26Z" style="fill:#c1c5c8"/><path d="M6,28a3,3,0,0,0,3,3H23a3,3,0,0,0,3-3V24H6Z" style="fill:#c1c5c8"/><rect x="6" y="1" width="20" height="30" rx="3" style="fill:none;stroke:#6f7a7b;stroke-linecap:round;stroke-linejoin:round;stroke-width:2px"/><line x1="12" y1="5" x2="16" y2="5" style="fill:none;stroke:#6f7a7b;stroke-linecap:round;stroke-linejoin:round;stroke-width:2px"/><line x1="20" y1="5" x2="20" y2="5" style="fill:none;stroke:#6f7a7b;stroke-linecap:round;stroke-linejoin:round;stroke-width:2px"/><line x1="16" y1="21" x2="16" y2="21" style="fill:none;stroke:#6f7a7b;stroke-linecap:round;stroke-linejoin:round;stroke-width:2px"/><line x1="12" y1="21" x2="12" y2="21" style="fill:none;stroke:#6f7a7b;stroke-linecap:round;stroke-linejoin:round;stroke-width:2px"/><line x1="20" y1="21" x2="20" y2="21" style="fill:none;stroke:#6f7a7b;stroke-linecap:round;stroke-linejoin:round;stroke-width:2px"/><line x1="20" y1="16" x2="20" y2="16" style="fill:none;stroke:#6f7a7b;stroke-linecap:round;stroke-linejoin:round;stroke-width:2px"/><line x1="16" y1="16" x2="16" y2="16" style="fill:none;stroke:#6f7a7b;stroke-linecap:round;stroke-linejoin:round;stroke-width:2px"/><line x1="12" y1="16" x2="12" y2="16" style="fill:none;stroke:#6f7a7b;stroke-linecap:round;stroke-linejoin:round;stroke-width:2px"/><line x1="12" y1="11" x2="12" y2="11" style="fill:none;stroke:#6f7a7b;stroke-linecap:round;stroke-linejoin:round;stroke-width:2px"/><line x1="16" y1="11" x2="16" y2="11" style="fill:none;stroke:#6f7a7b;stroke-linecap:round;stroke-linejoin:round;stroke-width:2px"/><line x1="20" y1="11" x2="20" y2="11" style="fill:none;stroke:#6f7a7b;stroke-linecap:round;stroke-linejoin:round;stroke-width:2px"/><line x1="12" y1="26" x2="14" y2="26" style="fill:none;stroke:#6f7a7b;stroke-linecap:round;stroke-linejoin:round;stroke-width:2px"/><line x1="18" y1="26" x2="20" y2="26" style="fill:none;stroke:#6f7a7b;stroke-linecap:round;stroke-linejoin:round;stroke-width:2px"/></g></svg>