<svg id="_1-Smartphone" data-name="1-Smartphone" xmlns="http://www.w3.org/2000/svg" viewBox="0 0 32 32"><title>1-Smartphone</title><rect x="5" y="1" width="20" height="30" rx="3" style="fill:#f2f2f2"/><path d="M25,4a3,3,0,0,0-3-3H8A3,3,0,0,0,5,4V8H25Z" style="fill:#c1c5c8"/><path d="M5,28a3,3,0,0,0,3,3H22a3,3,0,0,0,3-3V24H5Z" style="fill:#c1c5c8"/><path d="M22,32H8a4,4,0,0,1-4-4V4A4,4,0,0,1,8,0H22a4,4,0,0,1,4,4V28A4,4,0,0,1,22,32ZM8,2A2,2,0,0,0,6,4V28a2,2,0,0,0,2,2H22a2,2,0,0,0,2-2V4a2,2,0,0,0-2-2Z" style="fill:#6f7a7b"/><path d="M15,6H11a1,1,0,0,1,0-2h4a1,1,0,0,1,0,2Z" style="fill:#6f7a7b"/><circle cx="19" cy="5" r="1" style="fill:#6f7a7b"/><circle cx="15" cy="27" r="1" style="fill:#6f7a7b"/></svg>