<svg xmlns="http://www.w3.org/2000/svg" viewBox="0 0 32 32"><title>13-Smartphone</title><g id="_13-Smartphone" data-name="13-Smartphone"><rect x="6" y="1" width="20" height="30" rx="3" style="fill:#f2f2f2"/><path d="M26,4a3,3,0,0,0-3-3H9A3,3,0,0,0,6,4V8H26Z" style="fill:#c1c5c8"/><path d="M6,28a3,3,0,0,0,3,3H23a3,3,0,0,0,3-3V24H6Z" style="fill:#c1c5c8"/><path d="M26,9a1,1,0,0,1-1-1V4a2,2,0,0,0-2-2H9A2,2,0,0,0,7,4V8A1,1,0,0,1,5,8V4A4,4,0,0,1,9,0H23a4,4,0,0,1,4,4V8A1,1,0,0,1,26,9Z" style="fill:#6f7a7b"/><path d="M23,32H9a4,4,0,0,1-4-4V24a1,1,0,0,1,2,0v4a2,2,0,0,0,2,2H23a2,2,0,0,0,2-2V25a1,1,0,0,1,2,0v3A4,4,0,0,1,23,32Z" style="fill:#6f7a7b"/><path d="M16,6H12a1,1,0,0,1,0-2h4a1,1,0,0,1,0,2Z" style="fill:#6f7a7b"/><path d="M26,22a1,1,0,0,1-1-1,3.047,3.047,0,0,1,1.36-2.436c.484-.4.64-.562.64-.9s-.156-.5-.64-.9A3.047,3.047,0,0,1,25,14.33,3.042,3.042,0,0,1,26.36,11.9c.512-.425.64-.575.64-.9a1,1,0,0,1,2,0,3.045,3.045,0,0,1-1.36,2.434c-.512.425-.64.575-.64.9,0,.337.156.5.641.9A3.049,3.049,0,0,1,29,17.665,3.047,3.047,0,0,1,27.64,20.1c-.484.4-.64.562-.64.9A1,1,0,0,1,26,22Z" style="fill:#6f7a7b"/><path d="M4,22a1,1,0,0,1-1-1,3.045,3.045,0,0,1,1.36-2.434c.512-.425.64-.575.64-.9,0-.337-.156-.5-.641-.9A3.049,3.049,0,0,1,3,14.335,3.047,3.047,0,0,1,4.36,11.9c.484-.4.64-.562.64-.9a1,1,0,0,1,2,0,3.047,3.047,0,0,1-1.36,2.436c-.484.4-.64.562-.64.9s.156.5.64.9A3.047,3.047,0,0,1,7,17.67,3.042,3.042,0,0,1,5.64,20.1c-.512.425-.64.575-.64.9A1,1,0,0,1,4,22Z" style="fill:#6f7a7b"/><circle cx="20" cy="5" r="1" style="fill:#6f7a7b"/><circle cx="16" cy="27" r="1" style="fill:#6f7a7b"/></g></svg>