<svg xmlns="http://www.w3.org/2000/svg" viewBox="0 0 32 32"><title>14-Smartphone</title><g id="_14-Smartphone" data-name="14-Smartphone"><rect x="2" y="1" width="20" height="30" rx="3" style="fill:#f2f2f2"/><path d="M22,4a3,3,0,0,0-3-3H5A3,3,0,0,0,2,4V8H22Z" style="fill:#c1c5c8"/><path d="M2,28a3,3,0,0,0,3,3H19a3,3,0,0,0,3-3V24H2Z" style="fill:#c1c5c8"/><path d="M19,32H5a4,4,0,0,1-4-4V4A4,4,0,0,1,5,0H19a4,4,0,0,1,4,4V28A4,4,0,0,1,19,32ZM5,2A2,2,0,0,0,3,4V28a2,2,0,0,0,2,2H19a2,2,0,0,0,2-2V4a2,2,0,0,0-2-2Z" style="fill:#6f7a7b"/><path d="M12,6H8A1,1,0,0,1,8,4h4a1,1,0,0,1,0,2Z" style="fill:#6f7a7b"/><path d="M26,21a1,1,0,0,1-1-1V12a1,1,0,0,1,2,0v8A1,1,0,0,1,26,21Z" style="fill:#6f7a7b"/><path d="M30,18a1,1,0,0,1-1-1V14a1,1,0,0,1,2,0v3A1,1,0,0,1,30,18Z" style="fill:#6f7a7b"/><circle cx="16" cy="5" r="1" style="fill:#6f7a7b"/><circle cx="12" cy="27" r="1" style="fill:#6f7a7b"/></g></svg>