<svg xmlns="http://www.w3.org/2000/svg" viewBox="0 0 32 32"><title>16-Speech bubble</title><g id="_16-Speech_bubble" data-name="16-Speech bubble"><path d="M31,17c0,6.63-5.72,12-14,12l-5,2V28C5.66,27.6,1,22.52,1,17,1,10.37,7.72,5,16,5S31,10.37,31,17Z" style="fill:#f2f2f2"/><path d="M27,3V13a2.006,2.006,0,0,1-2,2H18l-3,3-3-3H9a2.006,2.006,0,0,1-2-2V3A2.006,2.006,0,0,1,9,1H25A2.006,2.006,0,0,1,27,3Z" style="fill:#c1c5c8"/><path d="M30.9,12.249a1,1,0,1,0-1.8.868A8.891,8.891,0,0,1,30,17c0,6.271-5.589,11-13,11a1,1,0,0,0-.371.071L13,29.523V28a1,1,0,0,0-.937-1C6.515,26.65,2,22.164,2,17A9.856,9.856,0,0,1,6,9.325V13a3,3,0,0,0,3,3h2.586l2.707,2.707a1,1,0,0,0,1.414,0L18.414,16H25a3,3,0,0,0,3-3V3a3,3,0,0,0-3-3H9A3,3,0,0,0,6,3V6.852A12.32,12.32,0,0,0,0,17c0,6.006,4.761,11.074,11,11.906V31a1,1,0,0,0,1,1,.991.991,0,0,0,.371-.071L17.2,30C25.649,29.915,32,24.354,32,17A10.857,10.857,0,0,0,30.9,12.249ZM8,3A1,1,0,0,1,9,2H25a1,1,0,0,1,1,1V13a1,1,0,0,1-1,1H18a1,1,0,0,0-.707.293L15,16.586l-2.293-2.293A1,1,0,0,0,12,14H9a1,1,0,0,1-1-1Z" style="fill:#6f7a7b"/><circle cx="21" cy="8" r="1" style="fill:#6f7a7b"/><circle cx="17" cy="8" r="1" style="fill:#6f7a7b"/><circle cx="13" cy="8" r="1" style="fill:#6f7a7b"/></g></svg>