<svg xmlns="http://www.w3.org/2000/svg" viewBox="0 0 32 32"><title>2-Smartphone</title><g id="_2-Smartphone" data-name="2-Smartphone"><rect x="4" y="1" width="20" height="30" rx="3" style="fill:#f2f2f2"/><path d="M24,4a3,3,0,0,0-3-3H7A3,3,0,0,0,4,4V8H24Z" style="fill:#c1c5c8"/><path d="M4,28a3,3,0,0,0,3,3H21a3,3,0,0,0,3-3V24H4Z" style="fill:#c1c5c8"/><path d="M27.66,10.25,20,16l-7.66-5.75A.985.985,0,0,1,13,10H27A.985.985,0,0,1,27.66,10.25Z" style="fill:#c1c5c8"/><path d="M28,11V21a1,1,0,0,1-1,1H13a1,1,0,0,1-1-1V11a.983.983,0,0,1,.34-.75L20,16l7.66-5.75A.983.983,0,0,1,28,11Z" style="fill:#f2f2f2"/><path d="M15,5a1,1,0,0,0-1-1H10a1,1,0,0,0,0,2h4A1,1,0,0,0,15,5Z" style="fill:#6f7a7b"/><path d="M28.325,9.5A2,2,0,0,0,27,9H25V4a4,4,0,0,0-4-4H7A4,4,0,0,0,3,4V28a4,4,0,0,0,4,4H21a4,4,0,0,0,4-4V23h2a2,2,0,0,0,2-2V11A1.979,1.979,0,0,0,28.325,9.5ZM25,11l-5,3.75L15.005,11ZM23,28a2,2,0,0,1-2,2H7a2,2,0,0,1-2-2V4A2,2,0,0,1,7,2H21a2,2,0,0,1,2,2V9H13a2,2,0,0,0-2,2V21a2,2,0,0,0,2,2H23ZM13,21V12l6.4,4.8a1,1,0,0,0,1.2,0L27,12v9Z" style="fill:#6f7a7b"/><circle cx="18" cy="5" r="1" style="fill:#6f7a7b"/><circle cx="14" cy="27" r="1" style="fill:#6f7a7b"/></g></svg>