<svg xmlns="http://www.w3.org/2000/svg" viewBox="0 0 32 32"><title>22-Speech bubble</title><g id="_22-Speech_bubble" data-name="22-Speech bubble"><path d="M1,19v7a2.006,2.006,0,0,0,2,2H19l4,3V28h6a2.006,2.006,0,0,0,2-2V19a2.006,2.006,0,0,0-2-2H3A2.006,2.006,0,0,0,1,19Z" style="fill:#c1c5c8"/><path d="M31,3v8a2.006,2.006,0,0,1-2,2H13L9,16V13H3a2.006,2.006,0,0,1-2-2V3A2.006,2.006,0,0,1,3,1H29A2.006,2.006,0,0,1,31,3Z" style="fill:#f2f2f2"/><path d="M9,17a1,1,0,0,1-1-1V14H3a3,3,0,0,1-3-3V3A3,3,0,0,1,3,0H29a3,3,0,0,1,3,3v8a3,3,0,0,1-3,3H13.333L9.6,16.8A1,1,0,0,1,9,17ZM3,2A1,1,0,0,0,2,3v8a1,1,0,0,0,1,1H9a1,1,0,0,1,1,1v1l2.4-1.8A1,1,0,0,1,13,12H29a1,1,0,0,0,1-1V3a1,1,0,0,0-1-1Z" style="fill:#6f7a7b"/><path d="M23,32a1,1,0,0,1-.6-.2L18.667,29H3a3,3,0,0,1-3-3V19a3,3,0,0,1,3-3H5a1,1,0,0,1,0,2H3a1,1,0,0,0-1,1v7a1,1,0,0,0,1,1H19a1,1,0,0,1,.6.2L22,29V28a1,1,0,0,1,1-1h6a1,1,0,0,0,1-1V19a1,1,0,0,0-1-1H15a1,1,0,0,1,0-2H29a3,3,0,0,1,3,3v7a3,3,0,0,1-3,3H24v2a1,1,0,0,1-1,1Z" style="fill:#6f7a7b"/><circle cx="11" cy="7" r="1" style="fill:#6f7a7b"/><circle cx="16" cy="7" r="1" style="fill:#6f7a7b"/><circle cx="21" cy="7" r="1" style="fill:#6f7a7b"/><circle cx="21" cy="22" r="1" style="fill:#6f7a7b"/><circle cx="16" cy="22" r="1" style="fill:#6f7a7b"/><circle cx="11" cy="22" r="1" style="fill:#6f7a7b"/></g></svg>