<svg xmlns="http://www.w3.org/2000/svg" viewBox="0 0 32 32"><title>23-Post Card</title><g id="_23-Post_Card" data-name="23-Post Card"><rect x="19" y="9" width="7" height="6" rx="1" style="fill:#f2f2f2"/><path d="M31,6V26a2.006,2.006,0,0,1-2,2H3a2.006,2.006,0,0,1-2-2V6A2.006,2.006,0,0,1,3,4H29A2.006,2.006,0,0,1,31,6Zm-5,8V10a1,1,0,0,0-1-1H20a1,1,0,0,0-1,1v4a1,1,0,0,0,1,1h5A1,1,0,0,0,26,14Z" style="fill:#c1c5c8"/><path d="M25,16H20a2,2,0,0,1-2-2V10a2,2,0,0,1,2-2h5a2,2,0,0,1,2,2v4A2,2,0,0,1,25,16Zm-5-6v4h5V10Z" style="fill:#6f7a7b"/><path d="M3,4A2.006,2.006,0,0,0,1,6V26a2.006,2.006,0,0,0,2,2h7V4Z" style="fill:#f2f2f2"/><path d="M29,29H3a3,3,0,0,1-3-3V6A3,3,0,0,1,3,3H29a3,3,0,0,1,3,3V26A3,3,0,0,1,29,29ZM3,5A1,1,0,0,0,2,6V26a1,1,0,0,0,1,1H29a1,1,0,0,0,1-1V6a1,1,0,0,0-1-1Z" style="fill:#6f7a7b"/><path d="M25,16H20a2,2,0,0,1-2-2V10a2,2,0,0,1,2-2h5a2,2,0,0,1,2,2v4A2,2,0,0,1,25,16Zm-6-2h0Zm1,0,5,0V10H20Z" style="fill:#6f7a7b"/><path d="M10,24a1,1,0,0,1-1-1V9a1,1,0,0,1,2,0V23A1,1,0,0,1,10,24Z" style="fill:#6f7a7b"/><path d="M26,20H15a1,1,0,0,1,0-2H26a1,1,0,0,1,0,2Z" style="fill:#6f7a7b"/><path d="M26,24H21a1,1,0,0,1,0-2h5a1,1,0,0,1,0,2Z" style="fill:#6f7a7b"/></g></svg>