<svg xmlns="http://www.w3.org/2000/svg" viewBox="0 0 32 32"><title>26-Smartphone</title><g id="_26-Smartphone" data-name="26-Smartphone"><path d="M25,4a3,3,0,0,0-3-3H6A3,3,0,0,0,3,4V31H25Z" style="fill:#f2f2f2"/><path d="M25,4a3,3,0,0,0-3-3H6A3,3,0,0,0,3,4V8H25Z" style="fill:#c1c5c8"/><path d="M29,13V23a2.006,2.006,0,0,1-2,2H20l-3,3-3-3H11a2.006,2.006,0,0,1-2-2V13a2.006,2.006,0,0,1,2-2H27A2.006,2.006,0,0,1,29,13Z" style="fill:#c1c5c8"/><path d="M14,6a1,1,0,0,0,0-2H10a1,1,0,0,0,0,2Z" style="fill:#6f7a7b"/><path d="M27,10H26V4a4,4,0,0,0-4-4H6A4,4,0,0,0,2,4V31a1,1,0,0,0,2,0V4A2,2,0,0,1,6,2H22a2,2,0,0,1,2,2v6H11a3,3,0,0,0-3,3V23a3,3,0,0,0,3,3h2.586l2.707,2.707a1,1,0,0,0,1.414,0L20.414,26H24v5a1,1,0,0,0,2,0V26h1a3,3,0,0,0,3-3V13A3,3,0,0,0,27,10Zm1,13a1,1,0,0,1-1,1H20a1,1,0,0,0-.707.293L17,26.586l-2.293-2.293A1,1,0,0,0,14,24H11a1,1,0,0,1-1-1V13a1,1,0,0,1,1-1H27a1,1,0,0,1,1,1Z" style="fill:#6f7a7b"/><circle cx="18" cy="5" r="1" style="fill:#6f7a7b"/><circle cx="15" cy="18" r="1" style="fill:#6f7a7b"/><circle cx="19" cy="18" r="1" style="fill:#6f7a7b"/><circle cx="23" cy="18" r="1" style="fill:#6f7a7b"/></g></svg>