<svg xmlns="http://www.w3.org/2000/svg" viewBox="0 0 32 32"><title>28-Smartphone</title><g id="_28-Smartphone" data-name="28-Smartphone"><path d="M27,4a3,3,0,0,0-3-3H8A3,3,0,0,0,5,4V31H27Z" style="fill:#f2f2f2"/><path d="M27,4a3,3,0,0,0-3-3H8A3,3,0,0,0,5,4V8H27Z" style="fill:#c1c5c8"/><path d="M27,32a1,1,0,0,1-1-1V4a2,2,0,0,0-2-2H8A2,2,0,0,0,6,4V31a1,1,0,0,1-2,0V4A4,4,0,0,1,8,0H24a4,4,0,0,1,4,4V31A1,1,0,0,1,27,32Z" style="fill:#6f7a7b"/><path d="M16,6H12a1,1,0,0,1,0-2h4a1,1,0,0,1,0,2Z" style="fill:#6f7a7b"/><rect x="9" y="9" width="14" height="22" style="fill:#f2f2f2"/><path d="M23,32H9a1,1,0,0,1-1-1V9A1,1,0,0,1,9,8H23a1,1,0,0,1,1,1V31A1,1,0,0,1,23,32ZM10,30H22V10H10Z" style="fill:#6f7a7b"/><circle cx="20" cy="5" r="1" style="fill:#6f7a7b"/></g></svg>