<svg xmlns="http://www.w3.org/2000/svg" viewBox="0 0 32 32"><title>29-Mail box</title><g id="_29-Mail_box" data-name="29-Mail box"><path d="M31,20v6a3,3,0,0,1-3,3H4a3,3,0,0,1-3-3V20a3.037,3.037,0,0,1,2.01-2.87A3.655,3.655,0,0,1,4,17H9l1,4H22l1-4h5a4.453,4.453,0,0,1,.53.03A2.97,2.97,0,0,1,31,20Z" style="fill:#c1c5c8"/><path d="M29,17l-.47.03A4.453,4.453,0,0,0,28,17H23l-1,4H10L9,17H4a3.655,3.655,0,0,0-.99.13L3,17V14L4,5A1.959,1.959,0,0,1,6,3H26a1.959,1.959,0,0,1,2,2l1,9Z" style="fill:#f2f2f2"/><path d="M28,30H4a4,4,0,0,1-4-4V20a3.979,3.979,0,0,1,2.736-3.832A4.661,4.661,0,0,1,4,16H9a1,1,0,0,1,.97.757L10.781,20H21.219l.811-3.243A1,1,0,0,1,23,16h5a5.318,5.318,0,0,1,.647.037l.016,0A3.9,3.9,0,0,1,32,20v6A4,4,0,0,1,28,30ZM4,18a2.65,2.65,0,0,0-.724.094C2.015,18.452,2,19.984,2,20v6a2,2,0,0,0,2,2H28a2,2,0,0,0,2-2V20a1.917,1.917,0,0,0-1.595-1.978A3.461,3.461,0,0,0,28,18H23.781l-.811,3.243A1,1,0,0,1,22,22H10a1,1,0,0,1-.97-.757L8.219,18Z" style="fill:#6f7a7b"/><path d="M29,15a1,1,0,0,1-.993-.89l-1-9A1,1,0,0,1,27,5a.915.915,0,0,0-1-1H6A.918.918,0,0,0,5,5.012l-1.006,9.1a1,1,0,0,1-1.988-.22L3,4.938A2.909,2.909,0,0,1,6,2H26a2.909,2.909,0,0,1,3,2.938l1,8.952a1,1,0,0,1-.884,1.1A1.046,1.046,0,0,1,29,15Z" style="fill:#6f7a7b"/><path d="M19,26H13a1,1,0,0,1,0-2h6a1,1,0,0,1,0,2Z" style="fill:#6f7a7b"/></g></svg>