<svg xmlns="http://www.w3.org/2000/svg" viewBox="0 0 32 32"><title>30-Mail box</title><g id="_30-Mail_box" data-name="30-Mail box"><path d="M31,22v6a3,3,0,0,1-3,3H4a3,3,0,0,1-3-3V22a3.037,3.037,0,0,1,2.01-2.87A3.655,3.655,0,0,1,4,19H9l1,4H22l1-4h5a4.453,4.453,0,0,1,.53.03A2.97,2.97,0,0,1,31,22Z" style="fill:#c1c5c8"/><path d="M29,19l-.47.03A4.453,4.453,0,0,0,28,19H23l-1,4H10L9,19H4a3.655,3.655,0,0,0-.99.13L3,19V16L4,7A1.959,1.959,0,0,1,6,5H26a1.959,1.959,0,0,1,2,2l1,9Z" style="fill:#f2f2f2"/><path d="M19,2V12a1,1,0,0,1-1,1H15l-2,2-2-2H2a1,1,0,0,1-1-1V2A1,1,0,0,1,2,1H18A1,1,0,0,1,19,2Z" style="fill:#c1c5c8"/><path d="M28,18H23a1,1,0,0,0-.97.757L21.219,22H10.781L9.97,18.757A1,1,0,0,0,9,18H4a3.887,3.887,0,0,0-4,4v6a4,4,0,0,0,4,4H28a4,4,0,0,0,4-4V22A3.887,3.887,0,0,0,28,18Zm2,10a2,2,0,0,1-2,2H4a2,2,0,0,1-2-2V22a1.883,1.883,0,0,1,2-2H8.219l.811,3.243A1,1,0,0,0,10,24H22a1,1,0,0,0,.97-.757L23.781,20H28a1.884,1.884,0,0,1,2,2Z" style="fill:#6f7a7b"/><path d="M19,26H13a1,1,0,0,0,0,2h6a1,1,0,0,0,0-2Z" style="fill:#6f7a7b"/><path d="M2,14h8.586l1.707,1.707a1,1,0,0,0,1.414,0L15.414,14H18a2,2,0,0,0,2-2V6h6a.915.915,0,0,1,1,1,1,1,0,0,0,.006.11l1,9A1,1,0,0,0,29,17a1.046,1.046,0,0,0,.111-.006,1,1,0,0,0,.884-1.1L29,6.938A2.909,2.909,0,0,0,26,4H20V2a2,2,0,0,0-2-2H2A2,2,0,0,0,0,2V12A2,2,0,0,0,2,14ZM2,2H18V12H15a1,1,0,0,0-.707.293L13,13.586l-1.293-1.293A1,1,0,0,0,11,12H2Z" style="fill:#6f7a7b"/><circle cx="6" cy="7" r="1" style="fill:#6f7a7b"/><circle cx="10" cy="7" r="1" style="fill:#6f7a7b"/><circle cx="14" cy="7" r="1" style="fill:#6f7a7b"/></g></svg>