<svg xmlns="http://www.w3.org/2000/svg" viewBox="0 0 32 32"><title>35-Communication</title><g id="_35-Communication" data-name="35-Communication"><path d="M26,31H14c0-2.76,2.69-5,6-5S26,28.24,26,31Z" style="fill:#c1c5c8"/><ellipse cx="20" cy="21.5" rx="4" ry="4.5" style="fill:#f2f2f2"/><path d="M31,3v8a2.006,2.006,0,0,1-2,2H13v3L9,13H3a2.006,2.006,0,0,1-2-2V3A2.006,2.006,0,0,1,3,1H29A2.006,2.006,0,0,1,31,3Z" style="fill:#c1c5c8"/><path d="M23.236,25.685A5.726,5.726,0,0,0,25,21.5,5.274,5.274,0,0,0,20,16a5.274,5.274,0,0,0-5,5.5,5.726,5.726,0,0,0,1.764,4.185A5.966,5.966,0,0,0,13,31a1,1,0,0,0,2,0c0-2.206,2.243-4,5-4s5,1.794,5,4a1,1,0,0,0,2,0A5.966,5.966,0,0,0,23.236,25.685ZM17,21.5A3.283,3.283,0,0,1,20,18a3.283,3.283,0,0,1,3,3.5A3.283,3.283,0,0,1,20,25,3.283,3.283,0,0,1,17,21.5Z" style="fill:#6f7a7b"/><path d="M29,0H3A3,3,0,0,0,0,3v8a3,3,0,0,0,3,3H8.667L12.4,16.8a1,1,0,0,0,.6.2,1,1,0,0,0,1-1V14H29a3,3,0,0,0,3-3V3A3,3,0,0,0,29,0Zm1,11a1,1,0,0,1-1,1H13a1,1,0,0,0-1,1v1L9.6,12.2A1,1,0,0,0,9,12H3a1,1,0,0,1-1-1V3A1,1,0,0,1,3,2H29a1,1,0,0,1,1,1Z" style="fill:#6f7a7b"/><circle cx="11" cy="7" r="1" style="fill:#6f7a7b"/><circle cx="16" cy="7" r="1" style="fill:#6f7a7b"/><circle cx="21" cy="7" r="1" style="fill:#6f7a7b"/></g></svg>