<svg xmlns="http://www.w3.org/2000/svg" viewBox="0 0 32 32"><title>37-Communication</title><g id="_37-Communication" data-name="37-Communication"><path d="M2,1H14c0,2.76-2.69,5-6,5S2,3.76,2,1Z" style="fill:#f2f2f2"/><path d="M29,31H17c0-2.76,2.69-5,6-5S29,28.24,29,31Z" style="fill:#f2f2f2"/><path d="M27,21.5a4.907,4.907,0,0,1-.52,2.22,3.8,3.8,0,0,1-6.96,0A4.907,4.907,0,0,1,19,21.5,4.269,4.269,0,0,1,23,17,4.269,4.269,0,0,1,27,21.5Z" style="fill:#f2f2f2"/><path d="M12,10.5a4.8,4.8,0,0,1-.21,1.43A4.057,4.057,0,0,1,8,15a4.057,4.057,0,0,1-3.79-3.07A4.8,4.8,0,0,1,4,10.5,4.269,4.269,0,0,1,8,6,4.269,4.269,0,0,1,12,10.5Z" style="fill:#f2f2f2"/><path d="M26.48,23.72A4.907,4.907,0,0,0,27,21.5,4.269,4.269,0,0,0,23,17a4.269,4.269,0,0,0-4,4.5,4.907,4.907,0,0,0,.52,2.22L19,24H13L9,27V24H3a2.006,2.006,0,0,1-2-2V14a2.006,2.006,0,0,1,2-2H4l.21-.07A4.057,4.057,0,0,0,8,15a4.057,4.057,0,0,0,3.79-3.07L12,12h7l4-3v3h6a2.006,2.006,0,0,1,2,2v8a2.006,2.006,0,0,1-2,2H27Z" style="fill:#c1c5c8"/><path d="M29,11H24V9a1,1,0,0,0-1.6-.8L18.667,11h-5.7c.013-.166.036-.33.036-.5a5.722,5.722,0,0,0-1.764-4.185A5.966,5.966,0,0,0,15,1a1,1,0,0,0-2,0c0,2.206-2.243,4-5,4S3,3.206,3,1A1,1,0,0,0,1,1,5.966,5.966,0,0,0,4.764,6.315,5.722,5.722,0,0,0,3,10.5c0,.17.022.334.036.5H3a3,3,0,0,0-3,3v8a3,3,0,0,0,3,3H8v2a1,1,0,0,0,1.6.8L13.333,25H19a.979.979,0,0,0,.133-.027,5.259,5.259,0,0,0,.633.711A5.968,5.968,0,0,0,16,31a1,1,0,0,0,2,0c0-2.206,2.243-4,5-4s5,1.794,5,4a1,1,0,0,0,2,0,5.968,5.968,0,0,0-3.766-5.316,5.259,5.259,0,0,0,.633-.711A1.011,1.011,0,0,0,27,25h2a3,3,0,0,0,3-3V14A3,3,0,0,0,29,11Zm-18-.5a3.806,3.806,0,0,1-.169,1.146A3.07,3.07,0,0,1,8,14a3.07,3.07,0,0,1-2.831-2.354l0-.014A3.774,3.774,0,0,1,5,10.5,3.283,3.283,0,0,1,8,7,3.283,3.283,0,0,1,11,10.5Zm9.413,12.77v0A3.906,3.906,0,0,1,20,21.5,3.283,3.283,0,0,1,23,18a3.283,3.283,0,0,1,3,3.5,3.916,3.916,0,0,1-.413,1.77,2.8,2.8,0,0,1-5.174,0ZM30,22a1,1,0,0,1-1,1H27.806A6.067,6.067,0,0,0,28,21.5,5.274,5.274,0,0,0,23,16a5.274,5.274,0,0,0-5,5.5,6.061,6.061,0,0,0,.194,1.5H13a1,1,0,0,0-.6.2L10,25V24a1,1,0,0,0-1-1H3a1,1,0,0,1-1-1V14a1,1,0,0,1,1-1h.549A4.951,4.951,0,0,0,8,16a4.95,4.95,0,0,0,4.452-3H19a1,1,0,0,0,.6-.2L22,11v1a1,1,0,0,0,1,1h6a1,1,0,0,1,1,1Z" style="fill:#6f7a7b"/><circle cx="11" cy="18" r="1" style="fill:#6f7a7b"/><circle cx="15" cy="18" r="1" style="fill:#6f7a7b"/></g></svg>