<svg xmlns="http://www.w3.org/2000/svg" viewBox="0 0 32 32"><title>38-Communication</title><g id="_38-Communication" data-name="38-Communication"><path d="M31,13c0,6.63-5.72,12-14,12l-5,2V24C5.66,23.6,1,18.52,1,13,1,6.37,7.72,1,16,1S31,6.37,31,13Z" style="fill:#c1c5c8"/><path d="M29,31H17c0-2.76,2.69-5,6-5S29,28.24,29,31Z" style="fill:#c1c5c8"/><path d="M27,21.5a4.907,4.907,0,0,1-.52,2.22,3.8,3.8,0,0,1-6.96,0A4.907,4.907,0,0,1,19,21.5,4.269,4.269,0,0,1,23,17,4.269,4.269,0,0,1,27,21.5Z" style="fill:#f2f2f2"/><path d="M26.236,25.685A5.722,5.722,0,0,0,28,21.5,5.274,5.274,0,0,0,23,16a5.274,5.274,0,0,0-5,5.5,5.722,5.722,0,0,0,1.764,4.185A5.966,5.966,0,0,0,16,31a1,1,0,0,0,2,0c0-2.206,2.243-4,5-4s5,1.794,5,4a1,1,0,0,0,2,0A5.966,5.966,0,0,0,26.236,25.685ZM20,21.5A3.283,3.283,0,0,1,23,18a3.283,3.283,0,0,1,3,3.5A3.283,3.283,0,0,1,23,25,3.283,3.283,0,0,1,20,21.5Z" style="fill:#6f7a7b"/><path d="M16,0C7.178,0,0,5.832,0,13c0,6.006,4.76,11.074,11,11.906V27a1,1,0,0,0,1.371.929l4-1.6a1,1,0,1,0-.742-1.857L13,25.523V24a1,1,0,0,0-.937-1C6.514,22.649,2,18.163,2,13,2,6.935,8.28,2,16,2S30,6.935,30,13a10.019,10.019,0,0,1-1.075,4.55,1,1,0,0,0,1.786.9A12,12,0,0,0,32,13C32,5.832,24.822,0,16,0Z" style="fill:#6f7a7b"/><circle cx="11" cy="13" r="1" style="fill:#6f7a7b"/><circle cx="21" cy="13" r="1" style="fill:#6f7a7b"/><circle cx="16" cy="13" r="1" style="fill:#6f7a7b"/></g></svg>