<svg xmlns="http://www.w3.org/2000/svg" viewBox="0 0 32 32"><title>40-Message</title><g id="_40-Message" data-name="40-Message"><path d="M31,6V18a4,4,0,0,1-4,4H5a4,4,0,0,1-4-4V6a3.992,3.992,0,0,1,.68-2.23L2,4l14,8L30,4l.32-.23A3.992,3.992,0,0,1,31,6Z" style="fill:#f2f2f2"/><path d="M30,4,16,12,2,4l-.32-.23A4,4,0,0,1,5,2H27a4,4,0,0,1,3.32,1.77Z" style="fill:#c1c5c8"/><path d="M18,30H6c0-2.76,2.69-5,6-5S18,27.24,18,30Z" style="fill:#c1c5c8"/><path d="M16,20.5a4.907,4.907,0,0,1-.52,2.22A3.938,3.938,0,0,1,12,25a3.938,3.938,0,0,1-3.48-2.28A4.907,4.907,0,0,1,8,20.5,4.269,4.269,0,0,1,12,16,4.269,4.269,0,0,1,16,20.5Z" style="fill:#f2f2f2"/><path d="M27,1H5A5.006,5.006,0,0,0,0,6V18a5.006,5.006,0,0,0,5,5H7.552a5.479,5.479,0,0,0,1.212,1.685A5.966,5.966,0,0,0,5,30a1,1,0,0,0,2,0c0-2.206,2.243-4,5-4s5,1.794,5,4a1,1,0,0,0,2,0,5.966,5.966,0,0,0-3.764-5.315A5.479,5.479,0,0,0,16.448,23H27a5.006,5.006,0,0,0,5-5V6A5.006,5.006,0,0,0,27,1Zm0,2a2.978,2.978,0,0,1,1.742.567L16,10.849,3.258,3.567A2.978,2.978,0,0,1,5,3ZM9,20.5A3.283,3.283,0,0,1,12,17a3.283,3.283,0,0,1,3,3.5A3.283,3.283,0,0,1,12,24,3.283,3.283,0,0,1,9,20.5ZM30,18a3,3,0,0,1-3,3H16.977c.014-.165.023-.331.023-.5A5.274,5.274,0,0,0,12,15a5.274,5.274,0,0,0-5,5.5c0,.169.009.335.023.5H5a3,3,0,0,1-3-3V6a2.974,2.974,0,0,1,.116-.782l9.56,5.463L9.445,12.168a1,1,0,0,0,1.11,1.664l3-2c.02-.013.03-.035.049-.049l1.9,1.085a1,1,0,0,0,.992,0l1.322-.755L25.4,17.8a1,1,0,1,0,1.2-1.6l-6.891-5.168L29.884,5.218A2.974,2.974,0,0,1,30,6Z" style="fill:#6f7a7b"/></g></svg>