<svg xmlns="http://www.w3.org/2000/svg" viewBox="0 0 32 32"><title>43-Smartphone</title><g id="_43-Smartphone" data-name="43-Smartphone"><rect x="6" y="1" width="20" height="30" rx="3" style="fill:#f2f2f2"/><path d="M26,4a3,3,0,0,0-3-3H9A3,3,0,0,0,6,4V8H26Z" style="fill:#c1c5c8"/><path d="M6,28a3,3,0,0,0,3,3H23a3,3,0,0,0,3-3V24H6Z" style="fill:#c1c5c8"/><path d="M22,24H10c0-2.76,2.69-5,6-5S22,21.24,22,24Z" style="fill:#f2f2f2"/><ellipse cx="16" cy="14.5" rx="4" ry="4.5" style="fill:#f2f2f2"/><path d="M23,0H9A4,4,0,0,0,5,4V28a4,4,0,0,0,4,4H23a4,4,0,0,0,4-4V4A4,4,0,0,0,23,0Zm2,28a2,2,0,0,1-2,2H9a2,2,0,0,1-2-2V4A2,2,0,0,1,9,2H23a2,2,0,0,1,2,2Z" style="fill:#6f7a7b"/><path d="M12,6h4a1,1,0,0,0,0-2H12a1,1,0,0,0,0,2Z" style="fill:#6f7a7b"/><path d="M19.236,18.685A5.722,5.722,0,0,0,21,14.5,5.274,5.274,0,0,0,16,9a5.274,5.274,0,0,0-5,5.5,5.722,5.722,0,0,0,1.764,4.185A5.966,5.966,0,0,0,9,24a1,1,0,0,0,2,0c0-2.206,2.243-4,5-4s5,1.794,5,4a1,1,0,0,0,2,0A5.966,5.966,0,0,0,19.236,18.685ZM13,14.5A3.283,3.283,0,0,1,16,11a3.283,3.283,0,0,1,3,3.5A3.283,3.283,0,0,1,16,18,3.283,3.283,0,0,1,13,14.5Z" style="fill:#6f7a7b"/><circle cx="20" cy="5" r="1" style="fill:#6f7a7b"/><circle cx="16" cy="27" r="1" style="fill:#6f7a7b"/></g></svg>