<svg xmlns="http://www.w3.org/2000/svg" viewBox="0 0 32 32"><title>44-User</title><g id="_44-User" data-name="44-User"><circle cx="16" cy="16" r="15" style="fill:#c1c5c8"/><path d="M22,22H10c0-2.76,2.69-5,6-5S22,19.24,22,22Z" style="fill:#f2f2f2"/><path d="M20,12.5a4.907,4.907,0,0,1-.52,2.22A3.938,3.938,0,0,1,16,17a3.938,3.938,0,0,1-3.48-2.28A4.907,4.907,0,0,1,12,12.5,4.269,4.269,0,0,1,16,8,4.269,4.269,0,0,1,20,12.5Z" style="fill:#f2f2f2"/><path d="M16,0A16,16,0,1,0,32,16,16.019,16.019,0,0,0,16,0Zm0,30A14,14,0,1,1,30,16,14.015,14.015,0,0,1,16,30Z" style="fill:#6f7a7b"/><path d="M19.236,16.685A5.722,5.722,0,0,0,21,12.5,5.274,5.274,0,0,0,16,7a5.274,5.274,0,0,0-5,5.5,5.722,5.722,0,0,0,1.764,4.185A5.966,5.966,0,0,0,9,22a1,1,0,0,0,2,0c0-2.206,2.243-4,5-4s5,1.794,5,4a1,1,0,0,0,2,0A5.966,5.966,0,0,0,19.236,16.685ZM13,12.5A3.283,3.283,0,0,1,16,9a3.283,3.283,0,0,1,3,3.5A3.283,3.283,0,0,1,16,16,3.283,3.283,0,0,1,13,12.5Z" style="fill:#6f7a7b"/></g></svg>