<svg xmlns="http://www.w3.org/2000/svg" viewBox="0 0 32 32"><title>46-Communication</title><g id="_46-Communication" data-name="46-Communication"><path d="M10,10V2a1,1,0,0,1,1-1H27a1,1,0,0,1,1,1V12a1,1,0,0,1-1,1H24l-2,2-2-2H16l-.21.07A4.057,4.057,0,0,0,12,10a3.654,3.654,0,0,0-1.9.54Z" style="fill:#f2f2f2"/><polygon points="17 24 16 31 8 31 7 24 17 24" style="fill:#f2f2f2"/><path d="M12,19c3.31,0,6,2.24,6,5H6C6,21.24,8.69,19,12,19Z" style="fill:#c1c5c8"/><path d="M15.79,13.07A4.8,4.8,0,0,1,16,14.5,4.269,4.269,0,0,1,12,19a4.269,4.269,0,0,1-4-4.5,4.606,4.606,0,0,1,2.1-3.96A3.654,3.654,0,0,1,12,10,4.057,4.057,0,0,1,15.79,13.07Z" style="fill:#f2f2f2"/><path d="M27,0H11A2,2,0,0,0,9,2v8c0,.03.015.055.017.085a5.843,5.843,0,0,0-.253,8.6A6.169,6.169,0,0,0,5.105,23H4a1,1,0,0,0,0,2H6.132l.878,6.142A1,1,0,0,0,8,32h8a1,1,0,0,0,.99-.858L17.868,25H20a1,1,0,0,0,0-2H18.9a6.169,6.169,0,0,0-3.659-4.315A5.726,5.726,0,0,0,17,14.5c0-.17-.022-.334-.036-.5h2.622l1.707,1.707a1,1,0,0,0,1.414,0L24.414,14H27a2,2,0,0,0,2-2V2A2,2,0,0,0,27,0ZM15.133,30H8.867l-.714-5h7.694Zm1.69-7H7.177A4.921,4.921,0,0,1,12,20,4.921,4.921,0,0,1,16.823,23ZM9,14.5a3.6,3.6,0,0,1,1.618-3.1A2.668,2.668,0,0,1,12,11a3.07,3.07,0,0,1,2.831,2.354l0,.013A3.832,3.832,0,0,1,15,14.5,3.283,3.283,0,0,1,12,18,3.283,3.283,0,0,1,9,14.5ZM27,12H24a1,1,0,0,0-.707.293L22,13.586l-1.293-1.293A1,1,0,0,0,20,12H16.451A4.951,4.951,0,0,0,12,9a4.559,4.559,0,0,0-1,.122V2H27Z" style="fill:#6f7a7b"/><path d="M15,6h8a1,1,0,0,0,0-2H15a1,1,0,0,0,0,2Z" style="fill:#6f7a7b"/><path d="M21,8H19a1,1,0,0,0,0,2h2a1,1,0,0,0,0-2Z" style="fill:#6f7a7b"/></g></svg>