<svg xmlns="http://www.w3.org/2000/svg" viewBox="0 0 32 32"><title>48-Chat</title><g id="_48-Chat" data-name="48-Chat"><rect x="1" y="2" width="30" height="28" rx="3" style="fill:#f2f2f2"/><path d="M31,5a3,3,0,0,0-3-3H4A3,3,0,0,0,1,5V9H31Z" style="fill:#c1c5c8"/><path d="M28,31H4a4,4,0,0,1-4-4V5A4,4,0,0,1,4,1H28a4,4,0,0,1,4,4V27A4,4,0,0,1,28,31ZM4,3A2,2,0,0,0,2,5V27a2,2,0,0,0,2,2H28a2,2,0,0,0,2-2V5a2,2,0,0,0-2-2Z" style="fill:#6f7a7b"/><path d="M25,12V22a1,1,0,0,1-1,1H21l-2,2-2-2H8a1,1,0,0,1-1-1V12a1,1,0,0,1,1-1H24A1,1,0,0,1,25,12Z" style="fill:#c1c5c8"/><path d="M19,26a1,1,0,0,1-.707-.293L16.586,24H8a2,2,0,0,1-2-2V12a2,2,0,0,1,2-2H24a2,2,0,0,1,2,2V22a2,2,0,0,1-2,2H21.414l-1.707,1.707A1,1,0,0,1,19,26ZM8,12V22h9a1,1,0,0,1,.707.293L19,23.586l1.293-1.293A1,1,0,0,1,21,22h3V12Z" style="fill:#6f7a7b"/><path d="M20,16H12a1,1,0,0,1,0-2h8a1,1,0,0,1,0,2Z" style="fill:#6f7a7b"/><path d="M17,20H14a1,1,0,0,1,0-2h3a1,1,0,0,1,0,2Z" style="fill:#6f7a7b"/><circle cx="5" cy="6" r="1" style="fill:#6f7a7b"/><circle cx="9" cy="6" r="1" style="fill:#6f7a7b"/><circle cx="27" cy="6" r="1" style="fill:#6f7a7b"/></g></svg>