<svg xmlns="http://www.w3.org/2000/svg" viewBox="0 0 32 32"><title>50-Communication</title><g id="_50-Communication" data-name="50-Communication"><path d="M31,12V22a1,1,0,0,1-1,1H27l-2,2-2-2H14a1,1,0,0,1-1-1V12a1,1,0,0,1,1-1H30A1,1,0,0,1,31,12Z" style="fill:#c1c5c8"/><path d="M17,3v8H14a1,1,0,0,0-1,1v5H8L6,19,4,17H3a2.006,2.006,0,0,1-2-2V3A2.006,2.006,0,0,1,3,1H15A2.006,2.006,0,0,1,17,3Z" style="fill:#f2f2f2"/><path d="M16,31H4c0-2.76,2.69-5,6-5S16,28.24,16,31Z" style="fill:#c1c5c8"/><path d="M14,21.5a4.907,4.907,0,0,1-.52,2.22A3.938,3.938,0,0,1,10,26a3.938,3.938,0,0,1-3.48-2.28A4.907,4.907,0,0,1,6,21.5,4.269,4.269,0,0,1,10,17,4.269,4.269,0,0,1,14,21.5Z" style="fill:#f2f2f2"/><path d="M30,10H18V3a3,3,0,0,0-3-3H3A3,3,0,0,0,0,3V15a3,3,0,0,0,3,3H4a1,1,0,0,0,0-2H3a1,1,0,0,1-1-1V3A1,1,0,0,1,3,2H15a1,1,0,0,1,1,1v7H14a2,2,0,0,0-2,2v4.463A4.582,4.582,0,0,0,10,16a5.274,5.274,0,0,0-5,5.5,5.722,5.722,0,0,0,1.764,4.185A5.966,5.966,0,0,0,3,31a1,1,0,0,0,2,0c0-2.206,2.243-4,5-4s5,1.794,5,4a1,1,0,0,0,2,0,5.966,5.966,0,0,0-3.764-5.315A5.479,5.479,0,0,0,14.448,24h8.138l1.707,1.707a1,1,0,0,0,1.414,0L27.414,24H30a2,2,0,0,0,2-2V12A2,2,0,0,0,30,10ZM7,21.5A3.283,3.283,0,0,1,10,18a3.283,3.283,0,0,1,3,3.5A3.283,3.283,0,0,1,10,25,3.283,3.283,0,0,1,7,21.5ZM30,22H27a1,1,0,0,0-.707.293L25,23.586l-1.293-1.293A1,1,0,0,0,23,22H14.977c.014-.165.023-.331.023-.5a5.83,5.83,0,0,0-1.033-3.335A1,1,0,0,0,14,18V12H30Z" style="fill:#6f7a7b"/><path d="M6,7h6a1,1,0,0,0,0-2H6A1,1,0,0,0,6,7Z" style="fill:#6f7a7b"/><path d="M6,11H8A1,1,0,0,0,8,9H6a1,1,0,0,0,0,2Z" style="fill:#6f7a7b"/><circle cx="18" cy="17" r="1" style="fill:#6f7a7b"/><circle cx="26" cy="17" r="1" style="fill:#6f7a7b"/><circle cx="22" cy="17" r="1" style="fill:#6f7a7b"/></g></svg>