<svg xmlns="http://www.w3.org/2000/svg" viewBox="0 0 32 32"><title>7-Speech bubble</title><g id="_7-Speech_bubble" data-name="7-Speech bubble"><path d="M31,7V21a4,4,0,0,1-4,4H22l-4,4-4-4H5a4,4,0,0,1-4-4V7A4,4,0,0,1,5,3H27A4,4,0,0,1,31,7Z" style="fill:#c1c5c8"/><path d="M18,30a1,1,0,0,1-.707-.293L13.586,26H5a5.006,5.006,0,0,1-5-5V7A5.006,5.006,0,0,1,5,2H27a5.006,5.006,0,0,1,5,5V21a5.006,5.006,0,0,1-5,5H22.414l-3.707,3.707A1,1,0,0,1,18,30ZM5,4A3,3,0,0,0,2,7V21a3,3,0,0,0,3,3h9a1,1,0,0,1,.707.293L18,27.586l3.293-3.293A1,1,0,0,1,22,24h5a3,3,0,0,0,3-3V7a3,3,0,0,0-3-3Z" style="fill:#6f7a7b"/><path d="M21,10H7A1,1,0,0,1,7,8H21a1,1,0,0,1,0,2Z" style="fill:#6f7a7b"/><path d="M27,15H7a1,1,0,0,1,0-2H27a1,1,0,0,1,0,2Z" style="fill:#6f7a7b"/><path d="M24,20H11a1,1,0,0,1,0-2H24a1,1,0,0,1,0,2Z" style="fill:#6f7a7b"/><circle cx="25" cy="9" r="1" style="fill:#6f7a7b"/></g></svg>