<svg xmlns="http://www.w3.org/2000/svg" viewBox="0 0 32 32"><title>8-Speech bubble</title><g id="_8-Speech_bubble" data-name="8-Speech bubble"><path d="M31,9V23a4,4,0,0,1-4,4H22l-4,4-4-4H5a4,4,0,0,1-4-4V9A4,4,0,0,1,5,5H27A4,4,0,0,1,31,9Z" style="fill:#f2f2f2"/><path d="M31,3V13a2.006,2.006,0,0,1-2,2H22l-3,3-3-3H13a2.006,2.006,0,0,1-2-2V3a2.006,2.006,0,0,1,2-2H29A2.006,2.006,0,0,1,31,3Z" style="fill:#c1c5c8"/><path d="M13,16h2.586l2.707,2.707a1,1,0,0,0,1.414,0L22.414,16H29a3,3,0,0,0,3-3V3a3,3,0,0,0-3-3H13a3,3,0,0,0-3,3V4H5A5.006,5.006,0,0,0,0,9V23a5.006,5.006,0,0,0,5,5h8.586l3.707,3.707a1,1,0,0,0,1.414,0L22.414,28H27a5.006,5.006,0,0,0,5-5V19a1,1,0,0,0-2,0v4a3,3,0,0,1-3,3H22a1,1,0,0,0-.707.293L18,29.586l-3.293-3.293A1,1,0,0,0,14,26H5a3,3,0,0,1-3-3V9A3,3,0,0,1,5,6h5v7A3,3,0,0,0,13,16ZM12,3a1,1,0,0,1,1-1H29a1,1,0,0,1,1,1V13a1,1,0,0,1-1,1H22a1,1,0,0,0-.707.293L19,16.586l-2.293-2.293A1,1,0,0,0,16,14H13a1,1,0,0,1-1-1Z" style="fill:#6f7a7b"/><circle cx="21" cy="8" r="1" style="fill:#6f7a7b"/><circle cx="25" cy="8" r="1" style="fill:#6f7a7b"/><circle cx="17" cy="8" r="1" style="fill:#6f7a7b"/></g></svg>