<svg xmlns="http://www.w3.org/2000/svg" viewBox="0 0 32 32"><title>9-Smartphone</title><g id="_9-Smartphone" data-name="9-Smartphone"><rect x="6" y="1" width="20" height="30" rx="3" style="fill:#f2f2f2"/><path d="M26,4a3,3,0,0,0-3-3H9A3,3,0,0,0,6,4V8H26Z" style="fill:#c1c5c8"/><path d="M6,28a3,3,0,0,0,3,3H23a3,3,0,0,0,3-3V24H6Z" style="fill:#c1c5c8"/><path d="M23,32H9a4,4,0,0,1-4-4V4A4,4,0,0,1,9,0H23a4,4,0,0,1,4,4V28A4,4,0,0,1,23,32ZM9,2A2,2,0,0,0,7,4V28a2,2,0,0,0,2,2H23a2,2,0,0,0,2-2V4a2,2,0,0,0-2-2Z" style="fill:#6f7a7b"/><path d="M16,6H12a1,1,0,0,1,0-2h4a1,1,0,0,1,0,2Z" style="fill:#6f7a7b"/><path d="M14,27H12a1,1,0,0,1,0-2h2a1,1,0,0,1,0,2Z" style="fill:#6f7a7b"/><path d="M20,27H18a1,1,0,0,1,0-2h2a1,1,0,0,1,0,2Z" style="fill:#6f7a7b"/><circle cx="20" cy="5" r="1" style="fill:#6f7a7b"/><circle cx="20" cy="11" r="1" style="fill:#6f7a7b"/><circle cx="16" cy="11" r="1" style="fill:#6f7a7b"/><circle cx="12" cy="11" r="1" style="fill:#6f7a7b"/><circle cx="12" cy="16" r="1" style="fill:#6f7a7b"/><circle cx="16" cy="16" r="1" style="fill:#6f7a7b"/><circle cx="20" cy="16" r="1" style="fill:#6f7a7b"/><circle cx="20" cy="21" r="1" style="fill:#6f7a7b"/><circle cx="16" cy="21" r="1" style="fill:#6f7a7b"/><circle cx="12" cy="21" r="1" style="fill:#6f7a7b"/></g></svg>