<?xml version="1.0" encoding="UTF-8"?><svg xmlns="http://www.w3.org/2000/svg" viewBox="0 0 24 24"><defs><style>.v{fill:#231f20;}</style></defs><g id="a"/><g id="b"/><g id="c"/><g id="d"/><g id="e"/><g id="f"/><g id="g"/><g id="h"/><g id="i"/><g id="j"/><g id="k"/><g id="l"/><g id="m"/><g id="n"/><g id="o"><g><rect class="v" x="12.64" y="9.75" width="7.11" height="4.5"/><path class="v" d="M16,2.25h-3.36v6h7.11v-2.25c0-2.07-1.68-3.75-3.75-3.75Z"/><path class="v" d="M6.23,3.5h.77c1.24,0,2.25,1.01,2.25,2.25s-1.01,2.25-2.25,2.25h-1.75v1.75h1.75c1.24,0,2.25,1.01,2.25,2.25s-1.01,2.25-2.25,2.25h-1.75v1.75h1.75c1.24,0,2.25,1.01,2.25,2.25s-1.01,2.25-2.25,2.25h-.77c.69,.76,1.67,1.25,2.77,1.25h2.14V2.25h-2.14c-1.1,0-2.09,.49-2.77,1.25Z"/><path class="v" d="M12.64,21.75h3.36c2.07,0,3.75-1.68,3.75-3.75v-2.25h-7.11v6Z"/><path class="v" d="M5,12.75h2c.41,0,.75-.34,.75-.75s-.34-.75-.75-.75h-2c-.41,0-.75,.34-.75,.75s.34,.75,.75,.75Z"/><path class="v" d="M5,6.5h2c.41,0,.75-.34,.75-.75s-.34-.75-.75-.75h-2c-.41,0-.75,.34-.75,.75s.34,.75,.75,.75Z"/><path class="v" d="M7.75,18.25c0-.41-.34-.75-.75-.75h-2c-.41,0-.75,.34-.75,.75s.34,.75,.75,.75h2c.41,0,.75-.34,.75-.75Z"/></g></g><g id="p"/><g id="q"/><g id="r"/><g id="s"/><g id="t"/><g id="u"/></svg>