<?xml version="1.0" encoding="UTF-8"?><svg xmlns="http://www.w3.org/2000/svg" viewBox="0 0 24 24"><defs><style>.v{fill:#231f20;}</style></defs><g id="a"/><g id="b"/><g id="c"/><g id="d"/><g id="e"/><g id="f"/><g id="g"/><g id="h"/><g id="i"/><g id="j"/><g id="k"/><g id="l"/><g id="m"/><g id="n"/><g id="o"/><g id="p"/><g id="q"><g><circle class="v" cx="19" cy="7" r="2.75"/><path class="v" d="M14.75,7c0-.63,.14-1.21,.39-1.75H6c-2.07,0-3.75,1.68-3.75,3.75v4c0,2.07,1.68,3.75,3.75,3.75h3.95c.51,0,1.01,.17,1.41,.49l2.55,2.04c.32,.25,.7,.39,1.09,.39,.26,0,.52-.06,.76-.17,.61-.29,.99-.9,.99-1.58v-.42c0-.41,.34-.75,.75-.75,1.24,0,2.25-1.01,2.25-2.25v-3.33c-.24,.04-.49,.08-.75,.08-2.34,0-4.25-1.91-4.25-4.25Z"/></g></g><g id="r"/><g id="s"/><g id="t"/><g id="u"/></svg>