<?xml version="1.0" encoding="UTF-8"?><svg xmlns="http://www.w3.org/2000/svg" viewBox="0 0 24 24"><g id="a"/><g id="b"/><g id="c"/><g id="d"/><g id="e"/><g id="f"/><g id="g"/><g id="h"/><g id="i"/><g id="j"/><g id="k"/><g id="l"/><g id="m"/><g id="n"/><g id="o"><g><path d="M17,2.25H7c-2.07,0-3.75,1.68-3.75,3.75v.5l1.2,.9,2.46,1.64c.21,.14,.45,.21,.69,.21h3.64v-1.5h-.25c-.41,0-.75-.34-.75-.75s.34-.75,.75-.75h2c.41,0,.75,.34,.75,.75s-.34,.75-.75,.75h-.25v1.5h3.64c.25,0,.49-.07,.69-.21l2.5-1.66,1.17-.88v-.5c0-2.07-1.68-3.75-3.75-3.75Z"/><path d="M17.92,10.29c-.45,.3-.98,.46-1.53,.46h-3.64v1.5h.25c.41,0,.75,.34,.75,.75s-.34,.75-.75,.75h-2c-.41,0-.75-.34-.75-.75s.34-.75,.75-.75h.25v-1.5h-3.64c-.54,0-1.07-.16-1.53-.46l-2.5-1.66-.33-.25v9.63c0,2.07,1.68,3.75,3.75,3.75h10c2.07,0,3.75-1.68,3.75-3.75V8.38l-.3,.22-2.53,1.69Z"/></g></g><g id="p"/><g id="q"/><g id="r"/><g id="s"/><g id="t"/><g id="u"/></svg>