<?xml version="1.0" encoding="UTF-8"?><svg xmlns="http://www.w3.org/2000/svg" viewBox="0 0 24 24"><g id="a"/><g id="b"/><g id="c"/><g id="d"/><g id="e"/><g id="f"/><g id="g"/><g id="h"/><g id="i"><g><path d="M7.67,13.75h7.33c1.52,0,2.75-1.23,2.75-2.75V6c0-1.52-1.23-2.75-2.75-2.75H5c-1.52,0-2.75,1.23-2.75,2.75v10c0,.28,.16,.54,.41,.67,.11,.05,.22,.08,.34,.08,.16,0,.32-.05,.45-.15l3.47-2.6c.21-.16,.48-.25,.75-.25Z"/><path d="M19.25,7.28v3.72c0,2.34-1.91,4.25-4.25,4.25H7.75l-1.23,.92c.44,.93,1.38,1.58,2.48,1.58h7.33c.27,0,.54,.09,.75,.25l3.47,2.6c.13,.1,.29,.15,.45,.15,.11,0,.23-.03,.33-.08,.25-.13,.42-.39,.42-.67V10c0-1.43-1.1-2.6-2.5-2.72Z"/></g></g><g id="j"/><g id="k"/><g id="l"/><g id="m"/><g id="n"/><g id="o"/><g id="p"/><g id="q"/><g id="r"/><g id="s"/><g id="t"/><g id="u"/></svg>