<?xml version="1.0" encoding="UTF-8"?><svg xmlns="http://www.w3.org/2000/svg" viewBox="0 0 24 24"><g id="a"/><g id="b"/><g id="c"><g><path d="M12.68,13.62l4.71,4.71c.22-.4,.36-.85,.36-1.33v-6c0-.55-.17-1.06-.44-1.49l-4.62,4.11Z"/><path d="M10.83,13.26l5.33-4.74c-.35-.17-.75-.27-1.16-.27H5c-.42,0-.81,.1-1.16,.27l5.33,4.74c.47,.42,1.19,.42,1.66,0Z"/><path d="M2.69,9.51c-.28,.43-.44,.94-.44,1.49v6c0,.49,.14,.93,.36,1.33l4.71-4.71L2.69,9.51Z"/><path d="M10,15.07c-.54,0-1.07-.17-1.53-.48l-4.8,4.8c.4,.22,.85,.36,1.33,.36H15c.49,0,.93-.14,1.33-.36l-4.8-4.8c-.46,.31-1,.48-1.53,.48Z"/><path d="M19,4.25H9c-1.43,0-2.6,1.1-2.72,2.5H15c2.34,0,4.25,1.91,4.25,4.25v4.72c1.4-.13,2.5-1.29,2.5-2.72V7c0-1.52-1.23-2.75-2.75-2.75Z"/></g></g><g id="d"/><g id="e"/><g id="f"/><g id="g"/><g id="h"/><g id="i"/><g id="j"/><g id="k"/><g id="l"/><g id="m"/><g id="n"/><g id="o"/><g id="p"/><g id="q"/><g id="r"/><g id="s"/><g id="t"/><g id="u"/></svg>