<?xml version="1.0" encoding="UTF-8"?><svg xmlns="http://www.w3.org/2000/svg" viewBox="0 0 24 24"><g id="a"/><g id="b"/><g id="c"/><g id="d"/><g id="e"><g><path d="M7.24,11.25h9.51c.6,0,1.17-.23,1.59-.66l3.3-3.3c-.31-1.17-1.38-2.04-2.65-2.04H5c-1.27,0-2.33,.87-2.65,2.04l3.3,3.3c.43,.42,.99,.66,1.59,.66Z"/><path d="M19.41,11.65c-.71,.71-1.65,1.1-2.65,1.1H7.24c-1,0-1.94-.39-2.65-1.1l-2.34-2.34v6.69c0,1.52,1.23,2.75,2.75,2.75h14c1.52,0,2.75-1.23,2.75-2.75v-6.69l-2.34,2.34Z"/></g></g><g id="f"/><g id="g"/><g id="h"/><g id="i"/><g id="j"/><g id="k"/><g id="l"/><g id="m"/><g id="n"/><g id="o"/><g id="p"/><g id="q"/><g id="r"/><g id="s"/><g id="t"/><g id="u"/></svg>