<?xml version="1.0" encoding="UTF-8"?><svg xmlns="http://www.w3.org/2000/svg" viewBox="0 0 24 24"><g id="a"/><g id="b"/><g id="c"/><g id="d"/><g id="e"/><g id="f"/><g id="g"/><g id="h"/><g id="i"/><g id="j"/><g id="k"/><g id="l"/><g id="m"/><g id="n"/><g id="o"/><g id="p"/><g id="q"><g><path d="M13.2,11.36c.46,.39,1.14,.39,1.6,0l4.72-3.93,.81-.81c-.4-.22-.85-.36-1.33-.36H9c-.49,0-.93,.14-1.33,.36l.86,.86,4.67,3.89Z"/><path d="M21.39,7.67l-.86,.86-4.77,3.98c-.51,.43-1.14,.64-1.76,.64s-1.25-.21-1.76-.64l-4.55-3.79c-.08-.2-.25-.35-.45-.42l-.63-.63c-.1,.18-.18,.38-.24,.58H3c-.41,0-.75,.34-.75,.75s.34,.75,.75,.75h3.25v1.5h-2.25c-.41,0-.75,.34-.75,.75s.34,.75,.75,.75h2.25v1.5h-1.25c-.41,0-.75,.34-.75,.75s.34,.75,.75,.75h1.37c.33,1.15,1.38,2,2.63,2h10c1.52,0,2.75-1.23,2.75-2.75v-6c0-.49-.14-.93-.36-1.33Z"/></g></g><g id="r"/><g id="s"/><g id="t"/><g id="u"/></svg>