<?xml version="1.0" encoding="UTF-8"?><svg xmlns="http://www.w3.org/2000/svg" viewBox="0 0 24 24"><g id="a"/><g id="b"/><g id="c"/><g id="d"/><g id="e"/><g id="f"/><g id="g"/><g id="h"/><g id="i"/><g id="j"/><g id="k"/><g id="l"/><g id="m"/><g id="n"/><g id="o"/><g id="p"><g><path d="M17,2.25H7c-2.07,0-3.75,1.68-3.75,3.75V15.25h3.63c.98,0,1.85,.54,2.29,1.41,.18,.36,.54,.59,.95,.59h3.76c.4,0,.77-.22,.95-.59,.44-.87,1.31-1.41,2.29-1.41h3.63V6c0-2.07-1.68-3.75-3.75-3.75Zm-1,10.5H8c-.41,0-.75-.34-.75-.75s.34-.75,.75-.75h8c.41,0,.75,.34,.75,.75s-.34,.75-.75,.75Zm0-4H8c-.41,0-.75-.34-.75-.75s.34-.75,.75-.75h8c.41,0,.75,.34,.75,.75s-.34,.75-.75,.75Z"/><path d="M16.17,17.34c-.44,.87-1.31,1.41-2.29,1.41h-3.76c-.98,0-1.85-.54-2.29-1.41-.18-.36-.54-.59-.95-.59H3.25v1.25c0,2.07,1.68,3.75,3.75,3.75h10c2.07,0,3.75-1.68,3.75-3.75v-1.25h-3.63c-.4,0-.77,.22-.95,.59Z"/></g></g><g id="q"/><g id="r"/><g id="s"/><g id="t"/><g id="u"/></svg>