<?xml version="1.0" encoding="UTF-8"?><svg xmlns="http://www.w3.org/2000/svg" viewBox="0 0 24 24"><g id="a"/><g id="b"/><g id="c"/><g id="d"/><g id="e"/><g id="f"/><g id="g"/><g id="h"><g><path d="M19.5,12.25h-2.38c-.98,0-1.85,.54-2.29,1.42-.18,.36-.54,.58-.95,.58h-3.76c-.4,0-.77-.22-.95-.58-.44-.87-1.31-1.42-2.29-1.42h-2.38c-1.24,0-2.25,1.01-2.25,2.25v2.5c0,1.52,1.23,2.75,2.75,2.75h14c1.52,0,2.75-1.23,2.75-2.75v-2.5c0-1.24-1.01-2.25-2.25-2.25Z"/><path d="M6.88,10.75c1.45,0,2.77,.76,3.5,2h3.24c.73-1.24,2.04-2,3.5-2h2.38c.61,0,1.18,.16,1.69,.42l-.97-4.9c-.35-1.75-1.89-3.02-3.68-3.02H7.46c-1.78,0-3.33,1.27-3.68,3.02l-.97,4.9c.51-.26,1.08-.42,1.69-.42h2.38Zm2.59-2.53c.29-.29,.77-.29,1.06,0l.72,.72v-3.19c0-.41,.34-.75,.75-.75s.75,.34,.75,.75v3.19l.72-.72c.29-.29,.77-.29,1.06,0s.29,.77,0,1.06l-2,2c-.15,.15-.34,.22-.53,.22s-.38-.07-.53-.22l-2-2c-.29-.29-.29-.77,0-1.06Z"/></g></g><g id="i"/><g id="j"/><g id="k"/><g id="l"/><g id="m"/><g id="n"/><g id="o"/><g id="p"/><g id="q"/><g id="r"/><g id="s"/><g id="t"/><g id="u"/></svg>