<?xml version="1.0" encoding="UTF-8"?><svg xmlns="http://www.w3.org/2000/svg" viewBox="0 0 24 24"><g id="a"/><g id="b"/><g id="c"/><g id="d"/><g id="e"/><g id="f"/><g id="g"/><g id="h"/><g id="i"/><g id="j"/><g id="k"/><g id="l"/><g id="m"/><g id="n"/><g id="o"/><g id="p"/><g id="q"/><g id="r"/><g id="s"/><g id="t"><g><path d="M21.39,6.67l-.86,.86-5.11,4.47,5.07,4.44,.9,.9c.22-.4,.36-.85,.36-1.33V8c0-.49-.14-.93-.36-1.33Z"/><path d="M11.18,12.28c.47,.41,1.18,.41,1.65,0l6.68-5.85,.83-.83c-.4-.22-.85-.36-1.33-.36H5c-.49,0-.93,.14-1.33,.36l.86,.86,6.65,5.81Z"/><path d="M14.29,13l-.48,.42c-.52,.45-1.16,.68-1.81,.68s-1.29-.23-1.81-.68l-.48-.42-5.22,4.57-.83,.83c.4,.22,.85,.36,1.33,.36h14c.49,0,.93-.14,1.33-.36l-.86-.86-5.18-4.53Z"/><path d="M3.51,7.56l-.9-.9c-.22,.4-.36,.85-.36,1.33v8c0,.49,.14,.93,.36,1.33l.86-.86,5.11-4.47L3.51,7.56Z"/></g></g><g id="u"/></svg>