<?xml version="1.0" encoding="UTF-8"?><svg xmlns="http://www.w3.org/2000/svg" viewBox="0 0 24 24"><g id="a"/><g id="b"/><g id="c"/><g id="d"/><g id="e"/><g id="f"/><g id="g"/><g id="h"/><g id="i"/><g id="j"/><g id="k"><g><path d="M7,9.25c-2.62,0-4.75,2.13-4.75,4.75v4c0,1.52,1.23,2.75,2.75,2.75h6c.41,0,.75-.34,.75-.75v-6c0-2.62-2.13-4.75-4.75-4.75Z"/><path d="M20,7.75c.96,0,1.75-.79,1.75-1.75v-2c0-.96-.79-1.75-1.75-1.75h-4c-.96,0-1.75,.79-1.75,1.75v5.25h-3.2c1.34,1.15,2.2,2.85,2.2,4.75v6c0,.26-.05,.51-.14,.75h5.89c1.52,0,2.75-1.23,2.75-2.75v-4c0-2.62-2.13-4.75-4.75-4.75h-1.25v-1.5h4.25Z"/></g></g><g id="l"/><g id="m"/><g id="n"/><g id="o"/><g id="p"/><g id="q"/><g id="r"/><g id="s"/><g id="t"/><g id="u"/></svg>