<?xml version="1.0" encoding="UTF-8"?><svg xmlns="http://www.w3.org/2000/svg" viewBox="0 0 24 24"><g id="a"/><g id="b"/><g id="c"/><g id="d"/><g id="e"/><g id="f"/><g id="g"/><g id="h"/><g id="i"/><g id="j"/><g id="k"/><g id="l"/><g id="m"/><g id="n"/><g id="o"/><g id="p"/><g id="q"/><g id="r"/><g id="s"><g><rect x="13.75" y="9.75" width="3.5" height="1.5" rx=".25" ry=".25"/><path d="M19,5.25H5c-1.52,0-2.75,1.23-2.75,2.75v8c0,1.52,1.23,2.75,2.75,2.75h14c1.52,0,2.75-1.23,2.75-2.75V8c0-1.52-1.23-2.75-2.75-2.75ZM6,11.25h2c.41,0,.75,.34,.75,.75s-.34,.75-.75,.75h-2c-.41,0-.75-.34-.75-.75s.34-.75,.75-.75Zm4,4.5H6c-.41,0-.75-.34-.75-.75s.34-.75,.75-.75h4c.41,0,.75,.34,.75,.75s-.34,.75-.75,.75Zm8.75-4.75c0,.96-.79,1.75-1.75,1.75h-3c-.96,0-1.75-.79-1.75-1.75v-1c0-.96,.79-1.75,1.75-1.75h3c.96,0,1.75,.79,1.75,1.75v1Z"/></g></g><g id="t"/><g id="u"/></svg>