<?xml version="1.0" encoding="UTF-8"?><svg xmlns="http://www.w3.org/2000/svg" viewBox="0 0 24 24"><g id="a"/><g id="b"/><g id="c"/><g id="d"/><g id="e"/><g id="f"/><g id="g"/><g id="h"/><g id="i"/><g id="j"/><g id="k"/><g id="l"/><g id="m"/><g id="n"><g><path d="M19,14.25H5c-1.52,0-2.75,1.23-2.75,2.75v2c0,1.52,1.23,2.75,2.75,2.75h14c1.52,0,2.75-1.23,2.75-2.75v-2c0-1.52-1.23-2.75-2.75-2.75Zm-5,4.5h-4c-.41,0-.75-.34-.75-.75s.34-.75,.75-.75h4c.41,0,.75,.34,.75,.75s-.34,.75-.75,.75Z"/><path d="M19,12.75c.26,0,.51,.03,.75,.08V5c0-1.52-1.23-2.75-2.75-2.75H7c-1.52,0-2.75,1.23-2.75,2.75v7.83c.24-.04,.49-.08,.75-.08h14ZM9,5h6c.41,0,.75,.34,.75,.75s-.34,.75-.75,.75h-6c-.41,0-.75-.34-.75-.75s.34-.75,.75-.75Zm0,4h6c.41,0,.75,.34,.75,.75s-.34,.75-.75,.75h-6c-.41,0-.75-.34-.75-.75s.34-.75,.75-.75Z"/></g></g><g id="o"/><g id="p"/><g id="q"/><g id="r"/><g id="s"/><g id="t"/><g id="u"/></svg>