<?xml version="1.0" encoding="UTF-8"?><svg xmlns="http://www.w3.org/2000/svg" viewBox="0 0 24 24"><g id="a"/><g id="b"/><g id="c"/><g id="d"/><g id="e"/><g id="f"/><g id="g"/><g id="h"/><g id="i"/><g id="j"/><g id="k"/><g id="l"/><g id="m"/><g id="n"/><g id="o"/><g id="p"/><g id="q"/><g id="r"><g><path d="M10.19,12.31c.47,.4,1.16,.4,1.63,0l2.36-2.03,.31-.27c-.46-.73-.74-1.59-.74-2.51,0-.44,.08-.85,.19-1.25H5c-.49,0-.93,.14-1.33,.36l.86,.86,5.66,4.85Z"/><path d="M15.48,11.14l-.32,.28-2.38,2.04c-.52,.44-1.15,.67-1.79,.67s-1.27-.22-1.79-.67L3.51,8.57l-.9-.9c-.22,.4-.36,.85-.36,1.33v7c0,1.52,1.23,2.75,2.75,2.75h12c1.52,0,2.75-1.23,2.75-2.75v-3.94c-.4,.11-.81,.19-1.25,.19-1.15,0-2.2-.43-3.02-1.11Z"/><circle cx="18.5" cy="7.5" r="3.25"/></g></g><g id="s"/><g id="t"/><g id="u"/></svg>