<?xml version="1.0" encoding="UTF-8"?><svg xmlns="http://www.w3.org/2000/svg" viewBox="0 0 24 24"><g id="a"/><g id="b"/><g id="c"/><g id="d"/><g id="e"/><g id="f"/><g id="g"/><g id="h"/><g id="i"/><g id="j"/><g id="k"/><g id="l"/><g id="m"><g><path d="M21.4,9.66l-.87,.87-5.11,4.47,5.07,4.44,.9,.9c.22-.4,.36-.85,.36-1.33V10.98c0-.47-.13-.92-.35-1.32Z"/><path d="M11.18,15.28c.47,.41,1.18,.41,1.65,0l6.68-5.85,.87-.87L13.69,3.36c-.99-.77-2.38-.77-3.38,0L3.62,8.56l.91,.91,6.65,5.81Z"/><path d="M14.29,16l-.47,.42c-.52,.45-1.16,.68-1.81,.68s-1.29-.23-1.81-.68l-.48-.42-5.22,4.57-.83,.83c.4,.22,.85,.36,1.33,.36h14c.49,0,.93-.14,1.33-.36l-.86-.86-5.18-4.53Z"/><path d="M3.51,10.56l-.91-.91c-.22,.4-.35,.85-.35,1.32v8.02c0,.49,.14,.93,.36,1.33l.86-.86,5.11-4.47L3.51,10.56Z"/></g></g><g id="n"/><g id="o"/><g id="p"/><g id="q"/><g id="r"/><g id="s"/><g id="t"/><g id="u"/></svg>