<?xml version="1.0" encoding="UTF-8"?><svg xmlns="http://www.w3.org/2000/svg" viewBox="0 0 24 24"><g id="a"/><g id="b"/><g id="c"/><g id="d"/><g id="e"/><g id="f"/><g id="g"/><g id="h"/><g id="i"/><g id="j"/><g id="k"/><g id="l"><g><path d="M20.77,10.47c-.61-.3-1.31-.22-1.84,.19l-6.16,4.79c-.45,.35-1.08,.35-1.53,0l-6.16-4.79c-.53-.41-1.24-.49-1.84-.19-.6,.3-.98,.9-.98,1.57v6.96c0,1.52,1.23,2.75,2.75,2.75h14c1.52,0,2.75-1.23,2.75-2.75v-6.96c0-.67-.38-1.28-.98-1.57Z"/><path d="M12,14.15l6-4.67c.5-.39,1.11-.62,1.75-.67v-3.81c0-1.52-1.23-2.75-2.75-2.75H7c-1.52,0-2.75,1.23-2.75,2.75v3.81c.63,.05,1.24,.27,1.74,.66l6.01,4.67Zm-3-9.15h6c.41,0,.75,.34,.75,.75s-.34,.75-.75,.75h-6c-.41,0-.75-.34-.75-.75s.34-.75,.75-.75Zm0,3h6c.41,0,.75,.34,.75,.75s-.34,.75-.75,.75h-6c-.41,0-.75-.34-.75-.75s.34-.75,.75-.75Z"/></g></g><g id="m"/><g id="n"/><g id="o"/><g id="p"/><g id="q"/><g id="r"/><g id="s"/><g id="t"/><g id="u"/></svg>