<?xml version="1.0" encoding="UTF-8"?><svg xmlns="http://www.w3.org/2000/svg" viewBox="0 0 24 24"><g id="a"/><g id="b"/><g id="c"/><g id="d"/><g id="e"/><g id="f"/><g id="g"><g><path d="M17,11.25H7c-.41,0-.75,.34-.75,.75v8c0,.96,.79,1.75,1.75,1.75h8c.96,0,1.75-.79,1.75-1.75V12c0-.41-.34-.75-.75-.75Zm-3,7.5h-4c-.41,0-.75-.34-.75-.75s.34-.75,.75-.75h4c.41,0,.75,.34,.75,.75s-.34,.75-.75,.75Zm0-3h-4c-.41,0-.75-.34-.75-.75s.34-.75,.75-.75h4c.41,0,.75,.34,.75,.75s-.34,.75-.75,.75Z"/><path d="M19,7.25H5c-1.52,0-2.75,1.23-2.75,2.75v4c0,1.43,1.1,2.6,2.5,2.72v-4.72c0-1.24,1.01-2.25,2.25-2.25h10c1.24,0,2.25,1.01,2.25,2.25v4.72c1.4-.13,2.5-1.29,2.5-2.72v-4c0-1.52-1.23-2.75-2.75-2.75Z"/><path d="M19,5.75c.25,0,.49,.03,.73,.07-.09-1.43-1.28-2.57-2.73-2.57H7c-1.46,0-2.64,1.14-2.73,2.57,.24-.04,.48-.07,.73-.07h14Z"/></g></g><g id="h"/><g id="i"/><g id="j"/><g id="k"/><g id="l"/><g id="m"/><g id="n"/><g id="o"/><g id="p"/><g id="q"/><g id="r"/><g id="s"/><g id="t"/><g id="u"/></svg>