<?xml version="1.0" encoding="UTF-8"?><svg xmlns="http://www.w3.org/2000/svg" viewBox="0 0 24 24"><g id="a"/><g id="b"/><g id="c"/><g id="d"/><g id="e"/><g id="f"><g><path d="M11.32,14.01c.6-.05,1.08-.53,1.13-1.13l.56-6.12,.06-1.17c-.46,.12-.9,.35-1.26,.71l-7.07,7.07c-.36,.36-.6,.8-.72,1.29l1.19-.09,6.11-.55Z"/><path d="M21,18.25h-4.88l3.82-3.82c.89-.89,1.03-2.23,.45-3.28l.97-.97c.29-.29,.29-.77,0-1.06s-.77-.29-1.06,0l-.88,.88-1.06-1.06,1.59-1.59c.29-.29,.29-.77,0-1.06s-.77-.29-1.06,0l-1.59,1.59-1.06-1.06,2.3-2.3c.29-.29,.29-.77,0-1.06s-.77-.29-1.06,0l-2.38,2.38c-.17-.09-.34-.17-.52-.22l-.04,.84c-.11,.2-.13,.44-.04,.65l-.54,5.89c-.12,1.32-1.17,2.37-2.49,2.49l-6.12,.56-1.26,.09c.13,.41,.35,.79,.66,1.1l.99,.99H3c-.41,0-.75,.34-.75,.75s.34,.75,.75,.75H21c.41,0,.75-.34,.75-.75s-.34-.75-.75-.75Z"/></g></g><g id="g"/><g id="h"/><g id="i"/><g id="j"/><g id="k"/><g id="l"/><g id="m"/><g id="n"/><g id="o"/><g id="p"/><g id="q"/><g id="r"/><g id="s"/><g id="t"/><g id="u"/></svg>