<?xml version="1.0" encoding="UTF-8"?><svg xmlns="http://www.w3.org/2000/svg" viewBox="0 0 24 24"><g id="a"/><g id="b"/><g id="c"/><g id="d"><g><path d="M20.94,3.06c-1.07-1.07-2.82-1.07-3.89,0l-.83,.83,.53,.63,2.78,2.78,.52,.54,.9-.9c1.07-1.07,1.07-2.82,0-3.89Z"/><path d="M15.64,5.53l-.48-.58-4.88,4.88c-.33,.33-.51,.77-.51,1.24v2.41c0,.41,.34,.75,.75,.75h2.41c.47,0,.91-.18,1.24-.51l4.82-4.82-.53-.56-2.81-2.81Z"/><path d="M12.93,15.74h-2.41c-1.24,0-2.25-1.01-2.25-2.25v-2.41c0-.87,.34-1.69,.95-2.3l3.52-3.52H6c-2.07,0-3.75,1.68-3.75,3.75v9c0,2.07,1.68,3.75,3.75,3.75H15c2.07,0,3.75-1.68,3.75-3.75v-6.74l-3.52,3.52c-.61,.61-1.43,.95-2.3,.95Z"/></g></g><g id="e"/><g id="f"/><g id="g"/><g id="h"/><g id="i"/><g id="j"/><g id="k"/><g id="l"/><g id="m"/><g id="n"/><g id="o"/><g id="p"/><g id="q"/><g id="r"/><g id="s"/><g id="t"/><g id="u"/></svg>